<?xml version="1.0" encoding="utf-8" standalone="no"?>
<!DOCTYPE svg PUBLIC "-//W3C//DTD SVG 1.1//EN"
  "http://www.w3.org/Graphics/SVG/1.1/DTD/svg11.dtd">
<!-- Created with matplotlib (https://matplotlib.org/) -->
<svg height="720pt" version="1.1" viewBox="0 0 1080 720" width="1080pt" xmlns="http://www.w3.org/2000/svg" xmlns:xlink="http://www.w3.org/1999/xlink">
 <defs>
  <style type="text/css">
*{stroke-linecap:butt;stroke-linejoin:round;}
  </style>
 </defs>
 <g id="figure_1">
  <g id="patch_1">
   <path d="M 0 720 
L 1080 720 
L 1080 0 
L 0 0 
z
" style="fill:#ffffff;"/>
  </g>
  <g id="axes_1">
   <g id="patch_2">
    <path d="M 135 640.8 
L 972 640.8 
L 972 86.4 
L 135 86.4 
z
" style="fill:#ffffff;"/>
   </g>
   <g id="matplotlib.axis_1">
    <g id="xtick_1">
     <g id="line2d_1">
      <path clip-path="url(#pcecef838f7)" d="M 173.045455 640.8 
L 173.045455 86.4 
" style="fill:none;stroke:#b0b0b0;stroke-linecap:square;stroke-width:0.8;"/>
     </g>
     <g id="line2d_2">
      <defs>
       <path d="M 0 0 
L 0 3.5 
" id="m061b733368" style="stroke:#000000;stroke-width:0.8;"/>
      </defs>
      <g>
       <use style="stroke:#000000;stroke-width:0.8;" x="173.045455" xlink:href="#m061b733368" y="640.8"/>
      </g>
     </g>
     <g id="text_1">
      <!-- 0 -->
      <defs>
       <path d="M 31.78125 66.40625 
Q 24.171875 66.40625 20.328125 58.90625 
Q 16.5 51.421875 16.5 36.375 
Q 16.5 21.390625 20.328125 13.890625 
Q 24.171875 6.390625 31.78125 6.390625 
Q 39.453125 6.390625 43.28125 13.890625 
Q 47.125 21.390625 47.125 36.375 
Q 47.125 51.421875 43.28125 58.90625 
Q 39.453125 66.40625 31.78125 66.40625 
z
M 31.78125 74.21875 
Q 44.046875 74.21875 50.515625 64.515625 
Q 56.984375 54.828125 56.984375 36.375 
Q 56.984375 17.96875 50.515625 8.265625 
Q 44.046875 -1.421875 31.78125 -1.421875 
Q 19.53125 -1.421875 13.0625 8.265625 
Q 6.59375 17.96875 6.59375 36.375 
Q 6.59375 54.828125 13.0625 64.515625 
Q 19.53125 74.21875 31.78125 74.21875 
z
" id="DejaVuSans-48"/>
      </defs>
      <g transform="translate(164.45608 668.315781)scale(0.27 -0.27)">
       <use xlink:href="#DejaVuSans-48"/>
      </g>
     </g>
    </g>
    <g id="xtick_2">
     <g id="line2d_3">
      <path clip-path="url(#pcecef838f7)" d="M 282.371473 640.8 
L 282.371473 86.4 
" style="fill:none;stroke:#b0b0b0;stroke-linecap:square;stroke-width:0.8;"/>
     </g>
     <g id="line2d_4">
      <g>
       <use style="stroke:#000000;stroke-width:0.8;" x="282.371473" xlink:href="#m061b733368" y="640.8"/>
      </g>
     </g>
     <g id="text_2">
      <!-- 250 -->
      <defs>
       <path d="M 19.1875 8.296875 
L 53.609375 8.296875 
L 53.609375 0 
L 7.328125 0 
L 7.328125 8.296875 
Q 12.9375 14.109375 22.625 23.890625 
Q 32.328125 33.6875 34.8125 36.53125 
Q 39.546875 41.84375 41.421875 45.53125 
Q 43.3125 49.21875 43.3125 52.78125 
Q 43.3125 58.59375 39.234375 62.25 
Q 35.15625 65.921875 28.609375 65.921875 
Q 23.96875 65.921875 18.8125 64.3125 
Q 13.671875 62.703125 7.8125 59.421875 
L 7.8125 69.390625 
Q 13.765625 71.78125 18.9375 73 
Q 24.125 74.21875 28.421875 74.21875 
Q 39.75 74.21875 46.484375 68.546875 
Q 53.21875 62.890625 53.21875 53.421875 
Q 53.21875 48.921875 51.53125 44.890625 
Q 49.859375 40.875 45.40625 35.40625 
Q 44.1875 33.984375 37.640625 27.21875 
Q 31.109375 20.453125 19.1875 8.296875 
z
" id="DejaVuSans-50"/>
       <path d="M 10.796875 72.90625 
L 49.515625 72.90625 
L 49.515625 64.59375 
L 19.828125 64.59375 
L 19.828125 46.734375 
Q 21.96875 47.46875 24.109375 47.828125 
Q 26.265625 48.1875 28.421875 48.1875 
Q 40.625 48.1875 47.75 41.5 
Q 54.890625 34.8125 54.890625 23.390625 
Q 54.890625 11.625 47.5625 5.09375 
Q 40.234375 -1.421875 26.90625 -1.421875 
Q 22.3125 -1.421875 17.546875 -0.640625 
Q 12.796875 0.140625 7.71875 1.703125 
L 7.71875 11.625 
Q 12.109375 9.234375 16.796875 8.0625 
Q 21.484375 6.890625 26.703125 6.890625 
Q 35.15625 6.890625 40.078125 11.328125 
Q 45.015625 15.765625 45.015625 23.390625 
Q 45.015625 31 40.078125 35.4375 
Q 35.15625 39.890625 26.703125 39.890625 
Q 22.75 39.890625 18.8125 39.015625 
Q 14.890625 38.140625 10.796875 36.28125 
z
" id="DejaVuSans-53"/>
      </defs>
      <g transform="translate(256.603348 668.315781)scale(0.27 -0.27)">
       <use xlink:href="#DejaVuSans-50"/>
       <use x="63.623047" xlink:href="#DejaVuSans-53"/>
       <use x="127.246094" xlink:href="#DejaVuSans-48"/>
      </g>
     </g>
    </g>
    <g id="xtick_3">
     <g id="line2d_5">
      <path clip-path="url(#pcecef838f7)" d="M 391.697492 640.8 
L 391.697492 86.4 
" style="fill:none;stroke:#b0b0b0;stroke-linecap:square;stroke-width:0.8;"/>
     </g>
     <g id="line2d_6">
      <g>
       <use style="stroke:#000000;stroke-width:0.8;" x="391.697492" xlink:href="#m061b733368" y="640.8"/>
      </g>
     </g>
     <g id="text_3">
      <!-- 500 -->
      <g transform="translate(365.929367 668.315781)scale(0.27 -0.27)">
       <use xlink:href="#DejaVuSans-53"/>
       <use x="63.623047" xlink:href="#DejaVuSans-48"/>
       <use x="127.246094" xlink:href="#DejaVuSans-48"/>
      </g>
     </g>
    </g>
    <g id="xtick_4">
     <g id="line2d_7">
      <path clip-path="url(#pcecef838f7)" d="M 501.023511 640.8 
L 501.023511 86.4 
" style="fill:none;stroke:#b0b0b0;stroke-linecap:square;stroke-width:0.8;"/>
     </g>
     <g id="line2d_8">
      <g>
       <use style="stroke:#000000;stroke-width:0.8;" x="501.023511" xlink:href="#m061b733368" y="640.8"/>
      </g>
     </g>
     <g id="text_4">
      <!-- 750 -->
      <defs>
       <path d="M 8.203125 72.90625 
L 55.078125 72.90625 
L 55.078125 68.703125 
L 28.609375 0 
L 18.3125 0 
L 43.21875 64.59375 
L 8.203125 64.59375 
z
" id="DejaVuSans-55"/>
      </defs>
      <g transform="translate(475.255386 668.315781)scale(0.27 -0.27)">
       <use xlink:href="#DejaVuSans-55"/>
       <use x="63.623047" xlink:href="#DejaVuSans-53"/>
       <use x="127.246094" xlink:href="#DejaVuSans-48"/>
      </g>
     </g>
    </g>
    <g id="xtick_5">
     <g id="line2d_9">
      <path clip-path="url(#pcecef838f7)" d="M 610.34953 640.8 
L 610.34953 86.4 
" style="fill:none;stroke:#b0b0b0;stroke-linecap:square;stroke-width:0.8;"/>
     </g>
     <g id="line2d_10">
      <g>
       <use style="stroke:#000000;stroke-width:0.8;" x="610.34953" xlink:href="#m061b733368" y="640.8"/>
      </g>
     </g>
     <g id="text_5">
      <!-- 1000 -->
      <defs>
       <path d="M 12.40625 8.296875 
L 28.515625 8.296875 
L 28.515625 63.921875 
L 10.984375 60.40625 
L 10.984375 69.390625 
L 28.421875 72.90625 
L 38.28125 72.90625 
L 38.28125 8.296875 
L 54.390625 8.296875 
L 54.390625 0 
L 12.40625 0 
z
" id="DejaVuSans-49"/>
      </defs>
      <g transform="translate(575.99203 668.315781)scale(0.27 -0.27)">
       <use xlink:href="#DejaVuSans-49"/>
       <use x="63.623047" xlink:href="#DejaVuSans-48"/>
       <use x="127.246094" xlink:href="#DejaVuSans-48"/>
       <use x="190.869141" xlink:href="#DejaVuSans-48"/>
      </g>
     </g>
    </g>
    <g id="xtick_6">
     <g id="line2d_11">
      <path clip-path="url(#pcecef838f7)" d="M 719.675549 640.8 
L 719.675549 86.4 
" style="fill:none;stroke:#b0b0b0;stroke-linecap:square;stroke-width:0.8;"/>
     </g>
     <g id="line2d_12">
      <g>
       <use style="stroke:#000000;stroke-width:0.8;" x="719.675549" xlink:href="#m061b733368" y="640.8"/>
      </g>
     </g>
     <g id="text_6">
      <!-- 1250 -->
      <g transform="translate(685.318049 668.315781)scale(0.27 -0.27)">
       <use xlink:href="#DejaVuSans-49"/>
       <use x="63.623047" xlink:href="#DejaVuSans-50"/>
       <use x="127.246094" xlink:href="#DejaVuSans-53"/>
       <use x="190.869141" xlink:href="#DejaVuSans-48"/>
      </g>
     </g>
    </g>
    <g id="xtick_7">
     <g id="line2d_13">
      <path clip-path="url(#pcecef838f7)" d="M 829.001567 640.8 
L 829.001567 86.4 
" style="fill:none;stroke:#b0b0b0;stroke-linecap:square;stroke-width:0.8;"/>
     </g>
     <g id="line2d_14">
      <g>
       <use style="stroke:#000000;stroke-width:0.8;" x="829.001567" xlink:href="#m061b733368" y="640.8"/>
      </g>
     </g>
     <g id="text_7">
      <!-- 1500 -->
      <g transform="translate(794.644067 668.315781)scale(0.27 -0.27)">
       <use xlink:href="#DejaVuSans-49"/>
       <use x="63.623047" xlink:href="#DejaVuSans-53"/>
       <use x="127.246094" xlink:href="#DejaVuSans-48"/>
       <use x="190.869141" xlink:href="#DejaVuSans-48"/>
      </g>
     </g>
    </g>
    <g id="xtick_8">
     <g id="line2d_15">
      <path clip-path="url(#pcecef838f7)" d="M 938.327586 640.8 
L 938.327586 86.4 
" style="fill:none;stroke:#b0b0b0;stroke-linecap:square;stroke-width:0.8;"/>
     </g>
     <g id="line2d_16">
      <g>
       <use style="stroke:#000000;stroke-width:0.8;" x="938.327586" xlink:href="#m061b733368" y="640.8"/>
      </g>
     </g>
     <g id="text_8">
      <!-- 1750 -->
      <g transform="translate(903.970086 668.315781)scale(0.27 -0.27)">
       <use xlink:href="#DejaVuSans-49"/>
       <use x="63.623047" xlink:href="#DejaVuSans-55"/>
       <use x="127.246094" xlink:href="#DejaVuSans-53"/>
       <use x="190.869141" xlink:href="#DejaVuSans-48"/>
      </g>
     </g>
    </g>
   </g>
   <g id="matplotlib.axis_2">
    <g id="ytick_1">
     <g id="line2d_17">
      <path clip-path="url(#pcecef838f7)" d="M 135 568.984198 
L 972 568.984198 
" style="fill:none;stroke:#b0b0b0;stroke-linecap:square;stroke-width:0.8;"/>
     </g>
     <g id="line2d_18">
      <defs>
       <path d="M 0 0 
L -3.5 0 
" id="ma93a703a79" style="stroke:#000000;stroke-width:0.8;"/>
      </defs>
      <g>
       <use style="stroke:#000000;stroke-width:0.8;" x="135" xlink:href="#ma93a703a79" y="568.984198"/>
      </g>
     </g>
     <g id="text_9">
      <!-- 3.0 -->
      <defs>
       <path d="M 40.578125 39.3125 
Q 47.65625 37.796875 51.625 33 
Q 55.609375 28.21875 55.609375 21.1875 
Q 55.609375 10.40625 48.1875 4.484375 
Q 40.765625 -1.421875 27.09375 -1.421875 
Q 22.515625 -1.421875 17.65625 -0.515625 
Q 12.796875 0.390625 7.625 2.203125 
L 7.625 11.71875 
Q 11.71875 9.328125 16.59375 8.109375 
Q 21.484375 6.890625 26.8125 6.890625 
Q 36.078125 6.890625 40.9375 10.546875 
Q 45.796875 14.203125 45.796875 21.1875 
Q 45.796875 27.640625 41.28125 31.265625 
Q 36.765625 34.90625 28.71875 34.90625 
L 20.21875 34.90625 
L 20.21875 43.015625 
L 29.109375 43.015625 
Q 36.375 43.015625 40.234375 45.921875 
Q 44.09375 48.828125 44.09375 54.296875 
Q 44.09375 59.90625 40.109375 62.90625 
Q 36.140625 65.921875 28.71875 65.921875 
Q 24.65625 65.921875 20.015625 65.03125 
Q 15.375 64.15625 9.8125 62.3125 
L 9.8125 71.09375 
Q 15.4375 72.65625 20.34375 73.4375 
Q 25.25 74.21875 29.59375 74.21875 
Q 40.828125 74.21875 47.359375 69.109375 
Q 53.90625 64.015625 53.90625 55.328125 
Q 53.90625 49.265625 50.4375 45.09375 
Q 46.96875 40.921875 40.578125 39.3125 
z
" id="DejaVuSans-51"/>
       <path d="M 10.6875 12.40625 
L 21 12.40625 
L 21 0 
L 10.6875 0 
z
" id="DejaVuSans-46"/>
      </defs>
      <g transform="translate(85.061562 579.242088)scale(0.27 -0.27)">
       <use xlink:href="#DejaVuSans-51"/>
       <use x="63.623047" xlink:href="#DejaVuSans-46"/>
       <use x="95.410156" xlink:href="#DejaVuSans-48"/>
      </g>
     </g>
    </g>
    <g id="ytick_2">
     <g id="line2d_19">
      <path clip-path="url(#pcecef838f7)" d="M 135 462.064382 
L 972 462.064382 
" style="fill:none;stroke:#b0b0b0;stroke-linecap:square;stroke-width:0.8;"/>
     </g>
     <g id="line2d_20">
      <g>
       <use style="stroke:#000000;stroke-width:0.8;" x="135" xlink:href="#ma93a703a79" y="462.064382"/>
      </g>
     </g>
     <g id="text_10">
      <!-- 3.5 -->
      <g transform="translate(85.061562 472.322272)scale(0.27 -0.27)">
       <use xlink:href="#DejaVuSans-51"/>
       <use x="63.623047" xlink:href="#DejaVuSans-46"/>
       <use x="95.410156" xlink:href="#DejaVuSans-53"/>
      </g>
     </g>
    </g>
    <g id="ytick_3">
     <g id="line2d_21">
      <path clip-path="url(#pcecef838f7)" d="M 135 355.144566 
L 972 355.144566 
" style="fill:none;stroke:#b0b0b0;stroke-linecap:square;stroke-width:0.8;"/>
     </g>
     <g id="line2d_22">
      <g>
       <use style="stroke:#000000;stroke-width:0.8;" x="135" xlink:href="#ma93a703a79" y="355.144566"/>
      </g>
     </g>
     <g id="text_11">
      <!-- 4.0 -->
      <defs>
       <path d="M 37.796875 64.3125 
L 12.890625 25.390625 
L 37.796875 25.390625 
z
M 35.203125 72.90625 
L 47.609375 72.90625 
L 47.609375 25.390625 
L 58.015625 25.390625 
L 58.015625 17.1875 
L 47.609375 17.1875 
L 47.609375 0 
L 37.796875 0 
L 37.796875 17.1875 
L 4.890625 17.1875 
L 4.890625 26.703125 
z
" id="DejaVuSans-52"/>
      </defs>
      <g transform="translate(85.061562 365.402456)scale(0.27 -0.27)">
       <use xlink:href="#DejaVuSans-52"/>
       <use x="63.623047" xlink:href="#DejaVuSans-46"/>
       <use x="95.410156" xlink:href="#DejaVuSans-48"/>
      </g>
     </g>
    </g>
    <g id="ytick_4">
     <g id="line2d_23">
      <path clip-path="url(#pcecef838f7)" d="M 135 248.22475 
L 972 248.22475 
" style="fill:none;stroke:#b0b0b0;stroke-linecap:square;stroke-width:0.8;"/>
     </g>
     <g id="line2d_24">
      <g>
       <use style="stroke:#000000;stroke-width:0.8;" x="135" xlink:href="#ma93a703a79" y="248.22475"/>
      </g>
     </g>
     <g id="text_12">
      <!-- 4.5 -->
      <g transform="translate(85.061562 258.48264)scale(0.27 -0.27)">
       <use xlink:href="#DejaVuSans-52"/>
       <use x="63.623047" xlink:href="#DejaVuSans-46"/>
       <use x="95.410156" xlink:href="#DejaVuSans-53"/>
      </g>
     </g>
    </g>
    <g id="ytick_5">
     <g id="line2d_25">
      <path clip-path="url(#pcecef838f7)" d="M 135 141.304934 
L 972 141.304934 
" style="fill:none;stroke:#b0b0b0;stroke-linecap:square;stroke-width:0.8;"/>
     </g>
     <g id="line2d_26">
      <g>
       <use style="stroke:#000000;stroke-width:0.8;" x="135" xlink:href="#ma93a703a79" y="141.304934"/>
      </g>
     </g>
     <g id="text_13">
      <!-- 5.0 -->
      <g transform="translate(85.061562 151.562825)scale(0.27 -0.27)">
       <use xlink:href="#DejaVuSans-53"/>
       <use x="63.623047" xlink:href="#DejaVuSans-46"/>
       <use x="95.410156" xlink:href="#DejaVuSans-48"/>
      </g>
     </g>
    </g>
   </g>
   <g id="line2d_27">
    <path clip-path="url(#pcecef838f7)" d="M 173.045455 447.766002 
L 173.482759 449.182013 
L 173.920063 448.547219 
L 174.794671 442.066574 
L 175.231975 443.867815 
L 175.669279 442.052146 
L 176.106583 440.797854 
L 176.543887 440.692522 
L 176.981191 441.841941 
L 177.418495 441.879771 
L 177.855799 444.364495 
L 178.293103 442.300129 
L 178.730408 444.781998 
L 179.167712 443.076962 
L 179.605016 445.479909 
L 180.04232 445.906435 
L 180.916928 443.571092 
L 181.354232 443.613409 
L 181.791536 446.993298 
L 182.22884 447.666788 
L 183.103448 450.014571 
L 183.540752 449.875641 
L 183.978056 450.393785 
L 184.415361 449.22489 
L 184.852665 449.117723 
L 185.289969 452.418843 
L 185.727273 458.813582 
L 186.164577 457.36438 
L 186.601881 457.816603 
L 187.039185 456.219703 
L 187.476489 460.261458 
L 187.913793 458.154469 
L 188.351097 456.993171 
L 188.788401 457.937229 
L 189.225705 456.233213 
L 189.663009 455.185047 
L 190.100313 453.281227 
L 190.537618 453.275364 
L 190.974922 450.02227 
L 191.412226 455.000436 
L 191.84953 452.167445 
L 192.286834 455.579964 
L 192.724138 449.697761 
L 193.161442 448.023264 
L 193.598746 442.091658 
L 194.03605 442.335562 
L 194.473354 440.993477 
L 194.910658 441.595794 
L 195.347962 440.040751 
L 196.222571 435.729549 
L 196.659875 440.081079 
L 197.097179 438.192452 
L 197.534483 437.727484 
L 197.971787 436.293628 
L 198.409091 433.683332 
L 198.846395 433.716115 
L 199.283699 434.688469 
L 199.721003 433.773624 
L 200.595611 426.001468 
L 201.032915 427.035614 
L 201.470219 428.39794 
L 201.907524 429.050833 
L 202.344828 427.096743 
L 203.65674 416.141596 
L 204.094044 415.005942 
L 204.531348 409.811402 
L 204.968652 410.492132 
L 205.405956 400.126658 
L 205.84326 405.532575 
L 206.280564 400.639703 
L 206.717868 400.974307 
L 207.155172 398.011869 
L 207.592476 399.056161 
L 208.029781 397.67956 
L 208.467085 397.115582 
L 208.904389 394.451396 
L 209.341693 396.316979 
L 209.778997 397.280819 
L 210.216301 394.078504 
L 210.653605 398.808891 
L 211.528213 398.244761 
L 212.402821 398.69163 
L 212.840125 395.970802 
L 213.277429 396.543141 
L 214.152038 388.094793 
L 215.026646 384.80805 
L 215.46395 385.860295 
L 215.901254 386.307266 
L 216.338558 385.098757 
L 217.65047 383.024755 
L 218.087774 382.764485 
L 218.525078 384.927912 
L 218.962382 382.999314 
L 219.399687 386.076363 
L 219.836991 383.746781 
L 220.274295 390.385271 
L 220.711599 388.912056 
L 221.148903 390.36758 
L 221.586207 389.664672 
L 222.023511 392.871117 
L 222.460815 392.723673 
L 222.898119 393.372385 
L 223.335423 392.456112 
L 223.772727 391.906104 
L 224.210031 390.802417 
L 224.647335 390.510384 
L 225.084639 388.913127 
L 225.521944 384.18692 
L 225.959248 384.34038 
L 226.833856 384.058187 
L 227.27116 384.13349 
L 227.708464 381.692356 
L 228.145768 380.916645 
L 229.45768 389.242887 
L 229.894984 390.755512 
L 230.332288 393.306412 
L 230.769592 397.30942 
L 231.206897 400.035194 
L 231.644201 404.705727 
L 232.081505 403.200902 
L 232.518809 404.798261 
L 232.956113 405.89114 
L 233.393417 401.543281 
L 233.830721 395.705994 
L 234.268025 401.999531 
L 234.705329 402.263829 
L 235.142633 401.922087 
L 235.579937 403.523474 
L 236.454545 400.750184 
L 236.89185 397.254002 
L 237.329154 396.288224 
L 237.766458 397.997849 
L 238.203762 394.919525 
L 238.641066 395.219919 
L 239.07837 393.512334 
L 239.952978 388.339309 
L 240.390282 384.62451 
L 241.26489 380.167241 
L 241.702194 380.638327 
L 243.014107 372.993528 
L 243.451411 372.821969 
L 244.326019 368.227248 
L 244.763323 369.725546 
L 245.200627 368.959726 
L 245.637931 364.119265 
L 246.075235 367.431704 
L 246.512539 366.097215 
L 246.949843 362.963473 
L 247.387147 365.167228 
L 247.824451 370.603735 
L 248.261755 364.374488 
L 248.69906 365.215611 
L 249.136364 363.789607 
L 249.573668 361.550776 
L 250.010972 360.107437 
L 250.448276 356.922151 
L 250.88558 355.121317 
L 251.322884 354.261025 
L 251.760188 353.685627 
L 252.197492 353.834906 
L 252.634796 357.267053 
L 253.0721 358.093748 
L 253.509404 358.092423 
L 253.946708 360.551145 
L 254.384013 360.547882 
L 254.821317 361.051955 
L 255.258621 361.384519 
L 255.695925 361.271846 
L 256.133229 357.552305 
L 256.570533 356.414051 
L 257.007837 356.848531 
L 257.445141 356.74738 
L 257.882445 352.153679 
L 258.757053 349.103958 
L 259.194357 349.507134 
L 259.631661 349.248648 
L 260.068966 347.28477 
L 260.50627 346.580894 
L 260.943574 347.107858 
L 261.380878 343.521384 
L 261.818182 346.650027 
L 262.255486 345.450287 
L 262.69279 347.772579 
L 263.130094 346.267244 
L 263.567398 348.523053 
L 264.004702 349.158918 
L 264.442006 348.092958 
L 264.87931 345.850405 
L 265.753918 351.048768 
L 266.191223 351.776402 
L 267.065831 349.873296 
L 267.503135 350.976474 
L 267.940439 349.381715 
L 268.377743 350.590122 
L 268.815047 349.768882 
L 269.252351 352.669325 
L 269.689655 351.784968 
L 270.126959 352.163876 
L 270.564263 355.146707 
L 271.001567 355.287676 
L 271.438871 355.682032 
L 271.876176 354.950829 
L 272.31348 355.321274 
L 272.750784 357.002654 
L 273.188088 356.779398 
L 273.625392 355.455768 
L 274.062696 357.327876 
L 274.5 358.554485 
L 274.937304 359.204879 
L 275.811912 357.928205 
L 276.68652 361.700259 
L 277.123824 359.496198 
L 277.561129 358.86324 
L 277.998433 357.349799 
L 278.435737 359.454137 
L 278.873041 359.44914 
L 279.310345 358.621273 
L 279.747649 356.589077 
L 280.184953 355.813416 
L 280.622257 357.807273 
L 281.059561 356.155005 
L 281.496865 357.374118 
L 281.934169 356.012506 
L 282.371473 356.72821 
L 282.808777 356.277212 
L 283.246082 358.390726 
L 283.683386 359.265651 
L 284.12069 359.384544 
L 284.557994 360.447802 
L 284.995298 360.053497 
L 285.432602 360.166629 
L 285.869906 359.547079 
L 286.30721 360.802595 
L 286.744514 361.71122 
L 287.181818 362.196021 
L 287.619122 361.73661 
L 288.056426 361.718256 
L 288.49373 361.912095 
L 288.931034 362.804507 
L 289.368339 359.236795 
L 289.805643 361.825423 
L 290.242947 360.652143 
L 290.680251 360.896048 
L 291.117555 360.755384 
L 291.554859 363.60362 
L 291.992163 362.166705 
L 292.429467 363.228739 
L 292.866771 362.420144 
L 293.304075 362.093085 
L 293.741379 363.642571 
L 294.178683 363.436547 
L 294.615987 363.823409 
L 295.053292 364.453818 
L 295.490596 363.999353 
L 295.9279 363.260502 
L 296.365204 361.994891 
L 296.802508 362.372525 
L 297.239812 363.530051 
L 297.677116 365.937178 
L 298.11442 365.314009 
L 298.551724 365.092537 
L 298.989028 365.600025 
L 299.426332 366.483006 
L 299.863636 366.96796 
L 300.30094 366.557034 
L 300.738245 368.314175 
L 301.175549 368.965334 
L 301.612853 366.234054 
L 302.050157 366.157069 
L 302.487461 365.937994 
L 302.924765 363.65185 
L 303.362069 364.908895 
L 303.799373 363.372665 
L 304.236677 365.215815 
L 304.673981 363.934145 
L 305.111285 363.747138 
L 305.548589 361.947375 
L 305.985893 362.839634 
L 306.860502 364.068996 
L 307.297806 363.902433 
L 307.73511 361.94299 
L 308.172414 359.147778 
L 308.609718 361.458649 
L 309.047022 358.583341 
L 309.484326 359.338659 
L 309.92163 357.089478 
L 310.358934 356.475843 
L 310.796238 354.986517 
L 311.233542 355.128557 
L 311.670846 354.497893 
L 312.10815 353.016725 
L 312.545455 353.227592 
L 312.982759 353.018051 
L 313.420063 354.098796 
L 313.857367 353.232283 
L 314.294671 354.323836 
L 314.731975 354.973262 
L 315.169279 358.324244 
L 315.606583 359.171995 
L 316.481191 363.149256 
L 316.918495 366.569423 
L 317.355799 365.601963 
L 317.793103 368.798567 
L 318.230408 369.577542 
L 318.667712 372.875858 
L 319.105016 371.780634 
L 319.979624 372.920774 
L 320.416928 371.495637 
L 321.291536 370.457514 
L 321.72884 373.508561 
L 322.166144 373.256143 
L 322.603448 372.435923 
L 323.040752 372.466972 
L 323.478056 373.187213 
L 324.789969 377.151372 
L 325.227273 380.117634 
L 325.664577 380.825028 
L 326.101881 380.250802 
L 326.539185 382.288403 
L 326.976489 378.573552 
L 327.413793 379.273911 
L 327.851097 382.43187 
L 328.288401 380.881007 
L 329.163009 383.315462 
L 329.600313 380.799995 
L 330.037618 381.182472 
L 330.474922 380.834052 
L 330.912226 378.697646 
L 331.34953 383.647516 
L 331.786834 382.202445 
L 332.224138 383.154151 
L 332.661442 381.00974 
L 333.098746 379.656541 
L 333.53605 373.229835 
L 334.410658 375.76952 
L 336.159875 368.69966 
L 336.597179 370.8897 
L 337.034483 369.251299 
L 337.471787 368.590555 
L 337.909091 369.311817 
L 338.346395 369.118182 
L 338.783699 368.693593 
L 339.221003 370.162627 
L 339.658307 369.526202 
L 340.095611 367.297771 
L 340.532915 369.049966 
L 340.970219 369.556129 
L 341.407524 369.680783 
L 341.844828 370.210143 
L 342.719436 368.665807 
L 343.15674 368.370205 
L 343.594044 370.400872 
L 344.468652 368.559405 
L 344.905956 369.335983 
L 345.34326 369.427243 
L 345.780564 371.610401 
L 346.217868 370.70825 
L 346.655172 370.451498 
L 347.092476 366.997173 
L 347.529781 366.452569 
L 347.967085 365.678744 
L 349.278997 356.908436 
L 349.716301 356.878152 
L 350.153605 354.541943 
L 350.590909 351.262592 
L 351.028213 350.256181 
L 351.465517 348.404466 
L 351.902821 347.35788 
L 352.340125 345.132967 
L 352.777429 343.649046 
L 353.214734 340.824773 
L 353.652038 343.258208 
L 354.089342 342.401076 
L 354.526646 342.148096 
L 354.96395 342.587165 
L 355.401254 345.78382 
L 355.838558 346.814194 
L 356.275862 347.446489 
L 356.713166 348.31392 
L 357.587774 351.808624 
L 358.025078 355.895041 
L 358.462382 357.125829 
L 358.899687 356.501895 
L 359.336991 361.796107 
L 359.774295 361.645146 
L 360.211599 361.612516 
L 360.648903 362.65584 
L 361.086207 365.701635 
L 361.523511 366.413057 
L 361.960815 370.741797 
L 362.398119 373.582181 
L 362.835423 372.353483 
L 363.272727 374.851361 
L 363.710031 379.584552 
L 364.147335 379.110203 
L 364.584639 383.642214 
L 365.021944 384.189265 
L 366.77116 396.902013 
L 367.208464 401.857389 
L 367.645768 404.979354 
L 368.083072 410.049036 
L 368.520376 417.274956 
L 368.95768 418.92029 
L 369.394984 423.106073 
L 370.269592 425.670943 
L 370.706897 432.005827 
L 371.144201 432.536615 
L 371.581505 431.855834 
L 372.018809 431.794654 
L 372.456113 435.023225 
L 374.205329 441.848161 
L 374.642633 448.26727 
L 375.079937 452.933214 
L 375.517241 455.243932 
L 375.954545 456.100249 
L 376.39185 471.002169 
L 376.829154 457.619705 
L 377.266458 456.840731 
L 377.703762 458.061935 
L 378.141066 453.13572 
L 378.57837 453.446974 
L 379.015674 454.994624 
L 379.452978 464.253199 
L 379.890282 470.447878 
L 380.327586 469.699851 
L 380.76489 482.597515 
L 381.202194 484.912668 
L 382.076803 478.142845 
L 382.514107 478.123573 
L 382.951411 479.37394 
L 383.388715 475.89295 
L 383.826019 474.727624 
L 384.263323 474.736597 
L 384.700627 475.309752 
L 385.137931 474.274892 
L 385.575235 476.411604 
L 386.012539 474.642584 
L 386.449843 473.777091 
L 386.887147 469.724017 
L 387.324451 474.021403 
L 387.761755 470.964391 
L 388.19906 468.995363 
L 388.636364 471.695849 
L 389.073668 475.583634 
L 389.510972 476.589434 
L 389.948276 475.684887 
L 390.38558 478.552394 
L 390.822884 479.626205 
L 391.260188 478.556932 
L 392.134796 471.950663 
L 392.5721 474.960261 
L 393.009404 474.85651 
L 393.446708 474.916619 
L 393.884013 478.746284 
L 394.321317 478.085081 
L 394.758621 477.795649 
L 395.195925 478.781564 
L 395.633229 476.940097 
L 396.070533 473.91082 
L 396.507837 476.130176 
L 396.945141 476.898138 
L 397.819749 480.147306 
L 398.257053 479.90539 
L 398.694357 481.005356 
L 399.568966 489.181605 
L 400.00627 491.112242 
L 400.443574 497.101765 
L 401.318182 501.42087 
L 401.755486 495.266722 
L 402.19279 497.769443 
L 402.630094 505.47996 
L 403.067398 509.07036 
L 403.504702 513.879261 
L 403.942006 515.746475 
L 404.37931 519.081601 
L 404.816614 519.378324 
L 405.691223 527.715324 
L 406.128527 517.114205 
L 406.565831 517.490615 
L 407.003135 512.715108 
L 407.440439 514.378439 
L 407.877743 518.530471 
L 408.315047 518.603684 
L 408.752351 523.596482 
L 409.189655 523.965398 
L 409.626959 527.381587 
L 410.064263 523.035665 
L 410.501567 520.955443 
L 410.938871 527.202126 
L 411.376176 522.344229 
L 411.81348 525.295961 
L 412.250784 524.732697 
L 412.688088 529.362188 
L 413.125392 532.160664 
L 414 532.628997 
L 414.437304 534.458228 
L 414.874608 534.948433 
L 415.311912 537.694753 
L 415.749216 537.67181 
L 416.18652 542.142233 
L 416.623824 542.770195 
L 417.061129 542.158089 
L 417.498433 543.86287 
L 417.935737 547.152825 
L 418.373041 547.138958 
L 418.810345 547.370524 
L 419.247649 546.110165 
L 419.684953 545.335371 
L 420.122257 547.375112 
L 420.559561 550.046334 
L 420.996865 549.551081 
L 421.434169 553.007548 
L 421.871473 552.874023 
L 422.308777 552.989551 
L 422.746082 553.301008 
L 423.183386 556.705829 
L 423.62069 556.461262 
L 424.057994 555.982018 
L 424.495298 558.767697 
L 424.932602 557.768576 
L 425.369906 557.911942 
L 425.80721 560.790257 
L 426.244514 558.775497 
L 426.681818 558.719059 
L 427.556426 564.531619 
L 427.99373 563.637626 
L 428.431034 567.558245 
L 428.868339 569.191292 
L 429.742947 571.775332 
L 430.180251 570.489175 
L 430.617555 575.298383 
L 431.054859 576.594685 
L 431.492163 576.956871 
L 431.929467 577.034263 
L 432.366771 577.239267 
L 432.804075 576.369339 
L 433.241379 575.920481 
L 433.678683 577.954309 
L 434.115987 575.702324 
L 434.553292 574.981113 
L 434.990596 574.033588 
L 435.865204 575.104697 
L 436.302508 576.428173 
L 436.739812 577.104773 
L 437.61442 584.165201 
L 438.051724 582.494477 
L 438.489028 584.670956 
L 438.926332 587.847983 
L 439.363636 588.285828 
L 439.80094 590.306247 
L 440.238245 590.335154 
L 440.675549 591.907939 
L 441.112853 595.380415 
L 441.550157 594.647784 
L 441.987461 595.168171 
L 442.424765 597.208269 
L 442.862069 597.39752 
L 443.299373 598.240988 
L 443.736677 597.349085 
L 444.173981 601.515342 
L 444.611285 601.551132 
L 445.485893 601.958489 
L 445.923197 604.307802 
L 446.360502 605.312072 
L 446.797806 607.432979 
L 447.23511 606.844631 
L 447.672414 607.223947 
L 448.109718 608.080773 
L 448.547022 610.800836 
L 448.984326 610.225387 
L 449.42163 611.857925 
L 449.858934 612.620636 
L 450.296238 611.704975 
L 450.733542 611.915485 
L 451.170846 614.162423 
L 451.60815 614.081206 
L 452.045455 612.060634 
L 452.482759 612.713221 
L 452.920063 611.848289 
L 453.357367 613.191241 
L 453.794671 613.107119 
L 454.669279 610.934973 
L 455.106583 611.035156 
L 455.543887 610.814602 
L 455.981191 611.631916 
L 456.418495 612.94749 
L 456.855799 615.6 
L 457.293103 611.848136 
L 457.730408 611.984618 
L 458.167712 608.967985 
L 458.605016 610.237878 
L 459.04232 608.570825 
L 459.479624 608.812792 
L 459.916928 608.773331 
L 460.354232 609.252268 
L 460.791536 607.824429 
L 461.22884 605.362341 
L 462.103448 602.452518 
L 462.540752 601.459668 
L 462.978056 599.806279 
L 463.415361 592.696805 
L 463.852665 592.066752 
L 464.289969 593.861927 
L 465.164577 595.669592 
L 466.039185 594.529401 
L 466.476489 591.736126 
L 466.913793 590.67766 
L 467.351097 592.349863 
L 467.788401 592.796273 
L 468.225705 590.660785 
L 468.663009 589.960886 
L 469.100313 589.86881 
L 469.537618 586.297019 
L 469.974922 587.296547 
L 470.412226 585.286427 
L 470.84953 584.545996 
L 471.286834 584.827118 
L 471.724138 584.09204 
L 472.161442 583.708646 
L 472.598746 582.126683 
L 473.03605 582.276982 
L 473.473354 581.039005 
L 473.910658 581.937943 
L 474.785266 579.121419 
L 476.097179 578.122401 
L 476.534483 580.289754 
L 476.971787 578.761783 
L 477.409091 580.151589 
L 477.846395 580.877795 
L 478.283699 579.562425 
L 478.721003 579.980387 
L 479.595611 572.826302 
L 480.032915 570.97785 
L 480.470219 572.254371 
L 480.907524 574.984529 
L 481.782132 582.056938 
L 482.219436 580.402223 
L 482.65674 577.963078 
L 483.094044 577.736304 
L 483.531348 578.648141 
L 483.968652 578.695912 
L 484.405956 578.3479 
L 484.84326 576.554612 
L 485.280564 572.680796 
L 485.717868 574.719569 
L 486.592476 571.319999 
L 487.029781 567.840998 
L 487.467085 566.977289 
L 487.904389 566.748068 
L 488.341693 565.905722 
L 488.778997 563.509301 
L 489.216301 562.679037 
L 489.653605 562.357485 
L 490.090909 561.717389 
L 490.528213 560.738356 
L 490.965517 561.922546 
L 491.402821 559.240465 
L 491.840125 558.522773 
L 492.714734 554.888833 
L 493.152038 554.923043 
L 493.589342 554.80828 
L 494.026646 555.521639 
L 494.46395 552.823855 
L 494.901254 553.757666 
L 495.338558 552.614568 
L 496.213166 554.47286 
L 496.65047 554.723494 
L 497.087774 555.905237 
L 497.525078 555.504508 
L 497.962382 555.942914 
L 498.399687 553.967564 
L 498.836991 553.541701 
L 499.274295 554.153552 
L 499.711599 552.916186 
L 500.148903 552.18641 
L 500.586207 552.473447 
L 501.023511 550.839838 
L 501.460815 550.616225 
L 501.898119 549.852393 
L 502.335423 548.722908 
L 502.772727 548.468246 
L 503.210031 547.445011 
L 503.647335 547.357013 
L 504.084639 541.863303 
L 504.521944 544.482624 
L 504.959248 543.291143 
L 506.27116 534.058468 
L 507.145768 532.266913 
L 507.583072 528.433119 
L 508.020376 522.636619 
L 508.45768 523.248062 
L 508.894984 520.928677 
L 509.332288 521.972357 
L 510.206897 516.809988 
L 510.644201 515.315564 
L 511.081505 514.235839 
L 511.518809 512.19263 
L 511.956113 512.306476 
L 512.393417 512.760075 
L 512.830721 515.180662 
L 513.268025 511.672396 
L 513.705329 514.352387 
L 514.142633 512.350169 
L 514.579937 512.163876 
L 515.017241 510.532919 
L 515.454545 509.592531 
L 515.89185 509.169624 
L 517.203762 499.910234 
L 517.641066 499.104748 
L 518.07837 497.169573 
L 518.515674 496.936732 
L 518.952978 497.59508 
L 519.390282 496.23148 
L 519.827586 494.062189 
L 520.26489 490.804405 
L 520.702194 490.662773 
L 521.139498 487.665667 
L 521.576803 487.776147 
L 522.014107 483.936796 
L 522.451411 482.072539 
L 522.888715 480.805654 
L 523.326019 479.985638 
L 523.763323 478.083653 
L 524.200627 476.902267 
L 525.075235 473.489443 
L 525.512539 470.048169 
L 525.949843 470.592977 
L 526.387147 469.44422 
L 526.824451 468.897832 
L 527.261755 469.128939 
L 527.69906 466.296407 
L 528.136364 470.810574 
L 528.573668 470.318636 
L 529.010972 468.529477 
L 529.448276 467.912477 
L 529.88558 471.080021 
L 530.322884 471.970037 
L 531.634796 470.038278 
L 532.0721 469.234934 
L 532.509404 470.590428 
L 532.946708 470.708709 
L 533.384013 468.248763 
L 533.821317 471.721238 
L 534.258621 472.715465 
L 534.695925 472.682988 
L 535.133229 476.10086 
L 535.570533 475.018637 
L 536.007837 476.437503 
L 536.445141 477.096208 
L 536.882445 477.306463 
L 537.319749 478.303952 
L 537.757053 481.168248 
L 538.194357 479.285331 
L 538.631661 479.127486 
L 539.068966 479.950154 
L 539.50627 479.016343 
L 539.943574 479.95464 
L 540.380878 479.154406 
L 540.818182 479.807553 
L 541.255486 480.100452 
L 541.69279 477.455692 
L 542.130094 477.398641 
L 542.567398 478.879198 
L 543.004702 481.416536 
L 543.442006 485.783209 
L 543.87931 484.74891 
L 544.316614 486.999314 
L 544.753918 484.732085 
L 545.191223 488.919449 
L 545.628527 490.579772 
L 546.065831 491.100567 
L 546.503135 489.626078 
L 547.377743 483.579301 
L 547.815047 484.34971 
L 548.689655 481.411846 
L 549.126959 482.294164 
L 550.001567 476.823039 
L 550.438871 478.807515 
L 550.876176 479.179489 
L 551.750784 474.8508 
L 552.188088 475.221857 
L 552.625392 476.361181 
L 553.062696 474.115926 
L 553.5 474.612708 
L 553.937304 473.735131 
L 554.374608 472.387591 
L 554.811912 473.932845 
L 555.249216 475.910641 
L 555.68652 474.136574 
L 556.123824 475.568441 
L 556.561129 477.853719 
L 556.998433 472.975531 
L 557.435737 471.958515 
L 557.873041 471.785834 
L 558.310345 472.809223 
L 558.747649 473.25186 
L 559.184953 472.337525 
L 559.622257 469.841126 
L 560.059561 466.625861 
L 560.496865 471.452046 
L 560.934169 466.059946 
L 561.371473 463.386992 
L 561.808777 464.869383 
L 562.246082 462.64396 
L 563.12069 461.341387 
L 563.995298 455.510779 
L 564.432602 455.425688 
L 564.869906 454.743327 
L 565.30721 455.275593 
L 565.744514 456.814423 
L 566.181818 456.160817 
L 568.368339 464.958196 
L 568.805643 469.482866 
L 569.680251 474.52726 
L 570.554859 475.447101 
L 570.992163 477.756646 
L 571.429467 478.716255 
L 571.866771 477.830776 
L 572.304075 478.731958 
L 573.178683 475.108062 
L 573.615987 477.297694 
L 574.053292 476.079396 
L 574.490596 475.454646 
L 574.9279 476.268952 
L 575.365204 477.348117 
L 575.802508 477.895933 
L 576.239812 476.26625 
L 576.677116 476.628691 
L 577.11442 476.80183 
L 577.551724 477.823638 
L 577.989028 477.360149 
L 578.426332 478.739605 
L 578.863636 475.967845 
L 580.175549 470.961587 
L 580.612853 470.558716 
L 581.487461 464.453869 
L 581.924765 465.067606 
L 582.362069 464.191509 
L 582.799373 461.949567 
L 583.236677 464.393301 
L 583.673981 461.811097 
L 584.111285 462.957712 
L 584.548589 463.02348 
L 584.985893 461.48047 
L 585.423197 462.15967 
L 586.297806 465.311307 
L 586.73511 465.242785 
L 587.172414 465.875336 
L 587.609718 465.372589 
L 588.047022 465.806559 
L 588.484326 465.94401 
L 588.92163 465.480623 
L 589.358934 464.4192 
L 589.796238 465.612007 
L 590.233542 464.943972 
L 590.670846 464.805552 
L 591.10815 463.443277 
L 591.545455 460.666928 
L 591.982759 456.593359 
L 592.420063 456.518006 
L 593.294671 455.519191 
L 593.731975 453.94554 
L 594.606583 448.552114 
L 595.043887 449.046244 
L 595.481191 449.00556 
L 596.355799 444.973848 
L 596.793103 446.593793 
L 597.230408 442.083297 
L 597.667712 445.422501 
L 598.105016 442.590683 
L 598.54232 444.577096 
L 598.979624 441.811657 
L 599.416928 443.202789 
L 599.854232 442.050463 
L 600.291536 441.383346 
L 600.72884 437.770004 
L 601.166144 438.206115 
L 601.603448 439.021594 
L 602.040752 433.983573 
L 602.478056 433.739567 
L 602.915361 430.980043 
L 603.352665 436.305253 
L 603.789969 436.874176 
L 604.227273 435.260604 
L 604.664577 430.266429 
L 605.101881 429.289639 
L 605.539185 428.024742 
L 605.976489 424.786433 
L 606.413793 420.575413 
L 606.851097 421.154533 
L 607.288401 419.187239 
L 607.725705 414.965359 
L 608.600313 411.029598 
L 609.474922 405.828992 
L 609.912226 407.646395 
L 610.34953 406.386698 
L 610.786834 404.399776 
L 611.224138 406.037717 
L 611.661442 406.44176 
L 612.098746 404.360722 
L 612.53605 399.887036 
L 612.973354 397.789836 
L 613.847962 391.869294 
L 614.285266 386.910093 
L 614.722571 387.001812 
L 615.159875 386.042714 
L 616.034483 379.20391 
L 616.909091 374.921922 
L 617.346395 377.06934 
L 617.783699 379.912069 
L 618.221003 379.870212 
L 618.658307 378.642839 
L 619.095611 373.124606 
L 619.532915 372.612427 
L 620.844828 363.456635 
L 621.282132 368.23617 
L 621.719436 360.9273 
L 622.15674 362.479131 
L 623.031348 358.834128 
L 623.468652 353.02009 
L 624.34326 348.913688 
L 624.780564 348.347059 
L 625.217868 341.432086 
L 625.655172 345.978985 
L 626.967085 341.260578 
L 628.278997 330.885265 
L 628.716301 331.120094 
L 629.153605 327.800568 
L 629.590909 327.082009 
L 630.465517 319.399839 
L 630.902821 320.667285 
L 631.340125 318.561979 
L 631.777429 317.637447 
L 632.214734 319.825856 
L 632.652038 319.687487 
L 633.089342 322.310682 
L 633.526646 323.284668 
L 633.96395 324.687016 
L 635.275862 329.977353 
L 635.713166 335.036124 
L 636.15047 335.619985 
L 636.587774 337.071277 
L 637.025078 340.486039 
L 637.462382 339.880561 
L 637.899687 341.775102 
L 638.336991 333.774694 
L 638.774295 336.707256 
L 639.211599 336.406454 
L 639.648903 337.535328 
L 640.086207 335.895296 
L 640.523511 331.03332 
L 641.835423 326.493865 
L 642.272727 323.643897 
L 642.710031 322.64085 
L 643.147335 316.078887 
L 643.584639 315.526737 
L 644.021944 309.186449 
L 644.459248 309.010454 
L 645.333856 302.486014 
L 646.208464 301.611854 
L 647.083072 303.35477 
L 647.95768 314.747202 
L 648.394984 318.294623 
L 648.832288 314.196786 
L 649.269592 314.32353 
L 649.706897 316.243257 
L 650.144201 315.906359 
L 650.581505 315.243066 
L 651.018809 314.876699 
L 651.456113 313.875794 
L 651.893417 314.658491 
L 652.330721 316.469215 
L 652.768025 313.772808 
L 653.205329 307.942557 
L 653.642633 307.999047 
L 654.079937 302.988914 
L 654.517241 300.40518 
L 654.954545 296.18121 
L 655.829154 290.650027 
L 656.266458 290.776772 
L 656.703762 288.383002 
L 657.141066 286.663436 
L 657.57837 287.839928 
L 658.015674 286.588898 
L 658.452978 284.708837 
L 658.890282 284.053905 
L 659.327586 283.605251 
L 659.76489 282.445074 
L 660.202194 280.968291 
L 660.639498 278.712686 
L 661.076803 277.403944 
L 661.951411 277.595029 
L 662.388715 278.932322 
L 662.826019 278.062138 
L 663.263323 278.454914 
L 664.137931 273.380848 
L 664.575235 273.272661 
L 665.012539 272.840119 
L 665.449843 268.808254 
L 665.887147 269.34154 
L 666.324451 268.75931 
L 666.761755 267.030465 
L 667.19906 266.346269 
L 667.636364 266.052809 
L 668.073668 265.611497 
L 668.510972 266.083399 
L 668.948276 265.640761 
L 669.38558 266.071876 
L 669.822884 266.721608 
L 670.260188 268.042688 
L 670.697492 268.023213 
L 671.134796 267.293947 
L 671.5721 267.086649 
L 672.009404 266.276625 
L 672.446708 268.8884 
L 672.884013 265.561227 
L 673.321317 266.012226 
L 673.758621 263.832382 
L 674.195925 262.593589 
L 674.633229 259.588427 
L 675.070533 258.28723 
L 675.507837 255.828609 
L 675.945141 249.999684 
L 676.382445 245.931723 
L 677.257053 241.778416 
L 677.694357 238.390471 
L 678.131661 237.821089 
L 678.568966 234.343719 
L 679.00627 233.855809 
L 679.443574 237.462778 
L 679.880878 229.013717 
L 680.318182 228.09357 
L 680.755486 226.353406 
L 681.19279 221.424133 
L 681.630094 223.928129 
L 682.067398 220.825283 
L 682.504702 220.11692 
L 683.37931 211.853948 
L 684.253918 207.01828 
L 684.691223 206.622547 
L 685.128527 204.882282 
L 685.565831 205.077242 
L 686.003135 200.208945 
L 686.440439 197.318699 
L 686.877743 195.657254 
L 687.315047 192.128901 
L 688.189655 182.19082 
L 688.626959 183.203146 
L 689.064263 180.666215 
L 689.501567 182.320216 
L 689.938871 183.481005 
L 690.376176 182.248024 
L 690.81348 178.584871 
L 691.250784 177.567753 
L 691.688088 178.157936 
L 692.125392 175.228841 
L 692.562696 173.17146 
L 693 169.921781 
L 693.437304 168.79821 
L 693.874608 173.33012 
L 694.749216 172.20298 
L 695.18652 173.460637 
L 695.623824 171.518784 
L 696.061129 169.052617 
L 696.498433 164.829973 
L 697.373041 171.522964 
L 697.810345 178.506458 
L 698.247649 181.04186 
L 698.684953 182.84667 
L 699.122257 181.576981 
L 699.559561 174.268213 
L 700.434169 165.540783 
L 700.871473 166.02543 
L 701.308777 163.944291 
L 701.746082 167.543816 
L 702.183386 168.642609 
L 702.62069 167.627735 
L 703.057994 168.796375 
L 703.495298 169.639436 
L 703.932602 172.863214 
L 704.369906 171.305061 
L 704.80721 173.143623 
L 705.244514 176.171421 
L 705.681818 183.377305 
L 706.119122 188.150671 
L 706.556426 187.224508 
L 706.99373 187.081652 
L 707.431034 185.598649 
L 707.868339 184.985829 
L 708.305643 189.454111 
L 708.742947 190.246392 
L 709.180251 192.379229 
L 709.617555 192.710417 
L 710.492163 205.42036 
L 710.929467 207.401777 
L 711.366771 207.885405 
L 711.804075 204.791532 
L 712.241379 203.072985 
L 712.678683 199.736635 
L 713.115987 199.932615 
L 713.553292 201.025188 
L 713.990596 200.552369 
L 714.4279 199.209264 
L 714.865204 199.83126 
L 715.302508 201.049252 
L 715.739812 203.024959 
L 716.177116 200.370154 
L 716.61442 200.070576 
L 717.051724 198.519153 
L 717.489028 195.884028 
L 717.926332 194.318024 
L 718.363636 191.020421 
L 718.80094 194.200762 
L 719.238245 195.741989 
L 719.675549 194.943793 
L 720.112853 192.191713 
L 720.550157 191.509352 
L 720.987461 192.140627 
L 721.424765 191.906104 
L 721.862069 195.224712 
L 722.299373 196.466768 
L 722.736677 197.026871 
L 723.173981 200.474262 
L 723.611285 205.603594 
L 724.048589 207.253211 
L 724.485893 207.827182 
L 725.360502 196.9973 
L 725.797806 200.676564 
L 726.23511 201.147956 
L 726.672414 206.337449 
L 727.109718 207.072832 
L 727.547022 206.701674 
L 727.984326 205.095494 
L 728.42163 210.30691 
L 729.296238 204.655814 
L 729.733542 207.219358 
L 730.170846 210.694077 
L 730.60815 210.890057 
L 731.045455 214.072335 
L 731.482759 212.686404 
L 731.920063 209.530331 
L 732.357367 209.921883 
L 732.794671 209.672167 
L 733.231975 229.327876 
L 734.106583 241.882728 
L 734.543887 234.406021 
L 734.981191 232.959828 
L 735.418495 233.152749 
L 735.855799 234.702948 
L 736.293103 234.139072 
L 736.730408 231.791493 
L 737.167712 235.367465 
L 737.605016 235.564057 
L 738.04232 229.117315 
L 738.479624 228.369492 
L 738.916928 229.270877 
L 739.354232 227.385513 
L 739.791536 222.560552 
L 740.22884 219.178215 
L 740.666144 217.231365 
L 741.103448 210.747915 
L 741.978056 205.252217 
L 742.415361 203.797662 
L 743.289969 197.442181 
L 743.727273 200.552063 
L 744.164577 201.554293 
L 744.601881 198.929977 
L 745.039185 197.913369 
L 745.476489 204.238057 
L 746.351097 190.874915 
L 746.788401 190.311753 
L 747.225705 191.261471 
L 747.663009 188.026068 
L 748.100313 181.233659 
L 748.537618 178.86895 
L 748.974922 178.882919 
L 749.412226 174.971579 
L 749.84953 176.199462 
L 750.286834 176.0355 
L 750.724138 171.538055 
L 751.161442 169.159275 
L 751.598746 167.660466 
L 752.03605 163.295477 
L 752.473354 162.027929 
L 752.910658 158.658949 
L 753.347962 156.639193 
L 753.785266 157.3654 
L 754.222571 159.414013 
L 754.659875 155.708034 
L 755.097179 155.056059 
L 755.971787 152.771291 
L 756.409091 152.923731 
L 756.846395 151.16552 
L 757.283699 147.513685 
L 757.721003 147.573132 
L 758.158307 146.022015 
L 758.595611 139.708646 
L 759.032915 144.883353 
L 759.470219 133.936414 
L 759.907524 132.172186 
L 760.344828 133.912655 
L 760.782132 133.56658 
L 761.219436 135.486307 
L 761.65674 135.548201 
L 762.094044 137.483019 
L 762.531348 138.107769 
L 762.968652 139.09032 
L 763.405956 137.392472 
L 764.280564 136.123701 
L 764.717868 138.273261 
L 765.155172 130.067696 
L 765.592476 128.019797 
L 766.029781 130.894238 
L 766.467085 132.822733 
L 766.904389 130.096042 
L 767.341693 131.400706 
L 767.778997 133.862998 
L 768.216301 134.625199 
L 768.653605 134.104455 
L 769.090909 133.285866 
L 769.528213 133.990864 
L 770.402821 132.148938 
L 770.840125 131.698041 
L 771.277429 133.730441 
L 772.152038 139.264275 
L 772.589342 138.245526 
L 773.026646 138.338213 
L 773.46395 137.688278 
L 773.901254 138.483924 
L 774.338558 138.107463 
L 774.775862 140.294444 
L 775.213166 141.046958 
L 775.65047 141.223666 
L 776.087774 140.331458 
L 776.525078 141.627455 
L 776.962382 142.08967 
L 777.399687 140.948254 
L 777.836991 142.850443 
L 778.274295 143.904473 
L 778.711599 140.525806 
L 779.148903 140.362048 
L 779.586207 139.254996 
L 780.023511 137.645758 
L 780.898119 135.534231 
L 781.335423 136.572048 
L 782.210031 143.811275 
L 782.647335 143.606526 
L 783.084639 142.57034 
L 783.521944 140.382747 
L 783.959248 143.119431 
L 784.396552 143.392702 
L 784.833856 141.605022 
L 785.27116 142.528432 
L 785.708464 149.357855 
L 786.583072 155.171995 
L 787.020376 155.400808 
L 787.45768 155.333408 
L 787.894984 154.212081 
L 788.332288 157.248648 
L 789.206897 160.251159 
L 789.644201 161.550317 
L 790.518809 167.989921 
L 790.956113 168.382492 
L 791.393417 169.192414 
L 791.830721 170.861506 
L 792.268025 170.876903 
L 792.705329 168.652602 
L 793.142633 171.02139 
L 793.579937 170.198111 
L 794.017241 168.034378 
L 794.454545 169.49811 
L 795.329154 175.313066 
L 795.766458 176.624867 
L 797.515674 191.009205 
L 797.952978 188.888604 
L 798.390282 185.14296 
L 798.827586 185.39339 
L 799.26489 184.974715 
L 800.139498 180.957024 
L 800.576803 179.343299 
L 801.451411 177.591103 
L 801.888715 174.460114 
L 802.326019 173.36693 
L 802.763323 170.099917 
L 803.200627 168.999697 
L 803.637931 164.732289 
L 804.512539 159.89448 
L 804.949843 157.562604 
L 805.387147 152.157758 
L 805.824451 152.403497 
L 806.261755 151.29461 
L 806.69906 146.436509 
L 807.136364 150.978105 
L 807.573668 148.372143 
L 808.88558 133.92795 
L 809.322884 130.960414 
L 809.760188 131.806737 
L 810.197492 131.440269 
L 810.634796 129.830929 
L 811.946708 127.64201 
L 812.384013 128.939434 
L 813.258621 118.4075 
L 813.695925 119.394537 
L 814.133229 121.975824 
L 814.570533 121.613638 
L 815.445141 128.156126 
L 815.882445 129.271132 
L 816.319749 129.426835 
L 816.757053 128.797803 
L 817.194357 132.775013 
L 817.631661 134.663538 
L 818.068966 134.700756 
L 818.50627 136.353534 
L 818.943574 139.553554 
L 819.380878 145.19792 
L 819.818182 146.438854 
L 821.130094 157.186449 
L 822.004702 168.910068 
L 822.442006 177.561839 
L 822.87931 179.375316 
L 823.316614 182.478876 
L 823.753918 183.286452 
L 824.191223 188.303723 
L 824.628527 189.578918 
L 825.065831 189.620113 
L 825.503135 194.801142 
L 825.940439 195.063298 
L 826.377743 194.585075 
L 827.252351 188.911139 
L 827.689655 187.605251 
L 828.126959 188.878815 
L 828.564263 186.69836 
L 829.001567 189.934884 
L 829.438871 190.249655 
L 829.876176 187.944392 
L 830.31348 190.098439 
L 830.750784 188.944278 
L 831.188088 190.210194 
L 831.625392 188.342776 
L 832.062696 188.707817 
L 832.5 186.637689 
L 832.937304 187.474224 
L 833.374608 186.876393 
L 833.811912 185.853872 
L 834.249216 186.582933 
L 834.68652 189.520288 
L 835.123824 190.145649 
L 835.561129 189.840973 
L 835.998433 192.286236 
L 836.435737 192.716739 
L 836.873041 191.884487 
L 837.310345 192.298472 
L 837.747649 190.467864 
L 839.059561 179.924101 
L 839.496865 179.859454 
L 839.934169 177.663092 
L 840.808777 175.755397 
L 841.246082 170.558359 
L 841.683386 170.644929 
L 842.12069 168.411043 
L 842.557994 166.772336 
L 842.995298 166.099968 
L 843.432602 165.756952 
L 843.869906 162.130405 
L 844.30721 160.470388 
L 844.744514 160.386979 
L 845.181818 163.059322 
L 845.619122 161.627913 
L 846.056426 161.37473 
L 846.49373 156.518669 
L 846.931034 156.509798 
L 847.368339 150.836779 
L 847.805643 150.461746 
L 848.242947 147.714152 
L 848.680251 147.238681 
L 849.117555 138.761171 
L 849.554859 138.972548 
L 849.992163 133.885328 
L 850.429467 132.162907 
L 850.866771 131.569053 
L 851.304075 132.83344 
L 851.741379 131.916352 
L 852.178683 122.765352 
L 852.615987 119.800263 
L 853.053292 118.60766 
L 853.490596 123.098987 
L 853.9279 121.480775 
L 854.365204 121.508408 
L 854.802508 121.695925 
L 855.239812 119.546875 
L 855.677116 116.804787 
L 856.11442 113.247374 
L 856.551724 112.766193 
L 856.989028 111.90019 
L 857.426332 114.43865 
L 857.863636 112.893549 
L 858.30094 113.695313 
L 858.738245 112.916084 
L 859.175549 113.432749 
L 859.612853 113.509836 
L 860.050157 116.001494 
L 860.487461 121.700106 
L 860.924765 123.066765 
L 861.362069 121.204446 
L 861.799373 118.535468 
L 862.236677 119.290123 
L 862.673981 120.722551 
L 863.111285 122.64187 
L 863.548589 118.997887 
L 863.985893 124.392026 
L 864.860502 131.28997 
L 865.73511 137.899553 
L 866.172414 139.77319 
L 866.609718 144.166425 
L 867.047022 146.132546 
L 867.484326 150.26444 
L 867.92163 149.625007 
L 868.358934 150.581149 
L 868.796238 150.873793 
L 869.233542 153.728962 
L 869.670846 150.790894 
L 870.10815 149.169828 
L 870.545455 149.387323 
L 870.982759 150.833313 
L 871.420063 151.392498 
L 872.294671 144.055281 
L 872.731975 144.863061 
L 873.169279 146.976015 
L 873.606583 145.564184 
L 874.043887 145.52819 
L 874.918495 147.279978 
L 875.793103 150.342037 
L 876.230408 153.171409 
L 876.667712 150.290544 
L 877.105016 151.089147 
L 877.54232 151.375571 
L 877.979624 150.716357 
L 878.416928 152.901197 
L 878.854232 152.73703 
L 879.291536 155.502163 
L 880.166144 157.284235 
L 880.603448 161.728147 
L 881.040752 161.946049 
L 881.478056 165.265779 
L 882.352665 166.020536 
L 883.227273 171.113874 
L 883.664577 172.685792 
L 884.101881 172.054924 
L 884.539185 172.365209 
L 884.976489 172.353381 
L 885.413793 172.844656 
L 885.851097 172.879325 
L 886.288401 180.485836 
L 886.725705 181.716268 
L 887.163009 185.738037 
L 887.600313 177.353521 
L 888.037618 176.376782 
L 888.474922 178.225744 
L 888.912226 179.090422 
L 889.34953 184.191305 
L 889.786834 184.666266 
L 890.224138 187.628194 
L 890.661442 189.174926 
L 891.098746 194.065452 
L 891.53605 194.607405 
L 891.973354 197.802327 
L 892.410658 198.867879 
L 892.847962 199.598165 
L 893.285266 200.906091 
L 893.722571 203.488601 
L 894.159875 200.93403 
L 894.597179 202.678374 
L 895.909091 211.21635 
L 896.346395 213.104875 
L 896.783699 213.471955 
L 897.221003 216.624663 
L 897.658307 216.464881 
L 898.095611 217.394002 
L 898.532915 217.770973 
L 900.282132 230.54597 
L 901.594044 234.946547 
L 902.031348 238.584922 
L 902.905956 243.446285 
L 903.34326 245.279238 
L 903.780564 245.599516 
L 904.217868 248.374131 
L 904.655172 248.624255 
L 905.092476 249.79259 
L 905.529781 251.655725 
L 905.967085 250.835301 
L 906.404389 253.11028 
L 906.841693 253.065822 
L 907.278997 254.199182 
L 908.153605 250.198009 
L 908.590909 250.70825 
L 909.028213 250.942162 
L 909.465517 253.399661 
L 909.902821 252.399164 
L 910.340125 253.079893 
L 911.214734 256.359856 
L 911.652038 258.034658 
L 912.089342 258.075853 
L 912.526646 256.977978 
L 912.96395 258.701215 
L 913.401254 259.099904 
L 913.838558 259.071558 
L 914.713166 262.728695 
L 915.15047 264.303876 
L 915.587774 265.195065 
L 916.025078 264.956259 
L 916.462382 267.784305 
L 916.899687 268.211749 
L 917.336991 267.597604 
L 917.774295 266.355548 
L 918.211599 266.058009 
L 918.648903 263.182243 
L 919.086207 266.626269 
L 919.523511 265.386762 
L 919.960815 267.899629 
L 920.398119 267.725572 
L 920.835423 267.110713 
L 921.272727 267.448936 
L 921.710031 269.253849 
L 922.147335 269.670383 
L 922.584639 270.337449 
L 923.021944 271.919156 
L 923.459248 272.66494 
L 923.896552 271.838296 
L 924.333856 274.656961 
L 924.77116 274.950931 
L 925.208464 277.098859 
L 925.645768 276.192783 
L 926.083072 276.231837 
L 926.520376 277.23835 
L 926.95768 277.564031 
L 927.394984 276.934591 
L 927.832288 276.041057 
L 928.269592 275.589956 
L 928.706897 274.154367 
L 929.144201 274.345555 
L 929.581505 271.695033 
L 930.456113 269.407716 
L 930.893417 269.251401 
L 931.330721 266.618316 
L 931.768025 265.895984 
L 932.642633 266.243078 
L 933.079937 262.049801 
L 933.517241 263.643132 
L 933.954545 262.854726 
L 933.954545 262.854726 
" style="fill:none;stroke:#ff0000;stroke-linecap:square;stroke-width:1.5;"/>
   </g>
   <g id="line2d_28">
    <path clip-path="url(#pcecef838f7)" d="M 173.045455 454.358403 
L 173.482759 453.256908 
L 173.920063 452.877541 
L 174.357367 452.768385 
L 174.794671 452.267678 
L 175.669279 449.77964 
L 176.543887 447.706963 
L 176.981191 446.668942 
L 177.418495 446.055613 
L 177.855799 445.869218 
L 179.167712 446.991055 
L 180.04232 447.981763 
L 180.479624 448.788116 
L 180.916928 449.314417 
L 181.354232 449.408634 
L 181.791536 449.343936 
L 182.22884 449.781985 
L 183.103448 451.727611 
L 183.978056 453.951046 
L 184.415361 454.785082 
L 184.852665 455.264428 
L 185.289969 455.377152 
L 185.727273 455.890962 
L 187.039185 461.031255 
L 188.351097 463.414727 
L 188.788401 463.37343 
L 189.225705 463.217013 
L 189.663009 462.784369 
L 190.100313 461.920966 
L 190.974922 459.355535 
L 191.412226 457.750222 
L 191.84953 456.842209 
L 192.286834 456.387591 
L 192.724138 456.268698 
L 193.161442 455.756774 
L 193.598746 454.34581 
L 195.347962 445.752007 
L 196.222571 442.852074 
L 196.659875 441.139493 
L 197.097179 440.355063 
L 197.971787 439.770641 
L 198.409091 439.343911 
L 199.721003 436.937446 
L 200.158307 436.565319 
L 200.595611 435.594239 
L 201.470219 431.763198 
L 201.907524 430.679394 
L 202.782132 429.706326 
L 203.219436 428.611306 
L 203.65674 426.858753 
L 204.531348 421.69516 
L 206.717868 405.957725 
L 207.592476 401.628474 
L 208.029781 400.062725 
L 209.341693 397.053331 
L 209.778997 396.475231 
L 210.216301 396.665807 
L 210.653605 396.66856 
L 211.090909 397.171001 
L 212.840125 401.780812 
L 213.277429 402.300842 
L 213.714734 402.448133 
L 214.152038 401.926268 
L 214.589342 400.129972 
L 215.901254 393.493062 
L 216.775862 391.164602 
L 217.65047 389.424439 
L 218.525078 388.054364 
L 218.962382 387.983242 
L 219.399687 388.031268 
L 220.274295 388.953149 
L 220.711599 390.170835 
L 221.586207 393.452276 
L 222.460815 396.169433 
L 223.335423 398.973058 
L 223.772727 399.951326 
L 224.210031 400.490883 
L 224.647335 400.629507 
L 225.084639 400.424503 
L 225.521944 399.817036 
L 225.959248 398.271476 
L 226.833856 394.657981 
L 227.708464 392.109528 
L 229.020376 388.405588 
L 229.45768 388.496134 
L 229.894984 389.538845 
L 230.332288 391.055957 
L 231.206897 395.418193 
L 232.081505 401.362596 
L 232.956113 406.567383 
L 233.393417 408.579594 
L 233.830721 409.523703 
L 234.268025 408.291181 
L 234.705329 407.846453 
L 235.142633 407.766716 
L 235.579937 407.509352 
L 236.454545 407.256678 
L 236.89185 406.758826 
L 237.329154 405.682313 
L 238.203762 403.066051 
L 239.515674 399.469585 
L 239.952978 397.942124 
L 240.390282 395.941639 
L 241.26489 390.423304 
L 242.139498 384.909354 
L 244.763323 371.324945 
L 245.200627 369.750987 
L 245.637931 368.794132 
L 246.512539 366.189189 
L 246.949843 365.68685 
L 247.387147 364.757067 
L 247.824451 364.106876 
L 248.261755 364.90135 
L 248.69906 365.419901 
L 249.573668 365.127869 
L 250.010972 364.468195 
L 250.448276 363.491864 
L 250.88558 362.022626 
L 252.197492 356.809784 
L 252.634796 355.659141 
L 253.0721 355.444246 
L 253.946708 356.638888 
L 254.821317 358.81919 
L 255.695925 360.903134 
L 256.133229 361.729268 
L 256.570533 361.815532 
L 257.445141 360.594634 
L 257.882445 360.272572 
L 258.319749 359.449344 
L 260.068966 354.164972 
L 262.255486 349.221525 
L 262.69279 348.928371 
L 263.130094 349.033091 
L 263.567398 349.29749 
L 264.004702 349.780812 
L 264.87931 351.331114 
L 265.753918 351.550852 
L 266.191223 352.394117 
L 267.065831 354.395519 
L 267.940439 355.173626 
L 269.252351 355.479118 
L 269.689655 355.860066 
L 270.126959 356.408188 
L 270.564263 356.736572 
L 271.001567 357.472261 
L 271.876176 359.278142 
L 274.062696 361.720805 
L 274.5 361.99846 
L 275.811912 363.984516 
L 276.68652 364.490322 
L 277.123824 365.231518 
L 277.561129 365.613077 
L 277.998433 365.385946 
L 278.873041 364.33569 
L 279.310345 364.258654 
L 279.747649 364.017808 
L 280.184953 363.34595 
L 280.622257 362.397762 
L 281.496865 361.546952 
L 282.808777 360.820235 
L 283.246082 360.687271 
L 283.683386 360.870658 
L 284.557994 362.035015 
L 285.432602 363.353547 
L 285.869906 363.822083 
L 286.744514 364.485071 
L 288.49373 366.714419 
L 289.368339 367.141252 
L 291.117555 366.130354 
L 291.554859 365.955073 
L 293.304075 367.463773 
L 294.178683 367.687232 
L 295.490596 368.657598 
L 295.9279 368.973899 
L 296.365204 369.00663 
L 297.677116 368.372296 
L 298.989028 369.849232 
L 299.426332 370.116997 
L 301.175549 371.902331 
L 301.612853 372.683957 
L 302.050157 372.881262 
L 302.924765 372.256665 
L 304.236677 369.98755 
L 304.673981 369.485007 
L 305.548589 368.741364 
L 306.423197 367.59169 
L 306.860502 367.467341 
L 307.73511 367.858689 
L 308.172414 367.739949 
L 309.047022 366.343465 
L 309.92163 365.080505 
L 310.796238 363.441136 
L 312.10815 360.675239 
L 313.420063 358.149269 
L 313.857367 357.783158 
L 314.294671 357.563776 
L 314.731975 357.494592 
L 315.169279 357.673747 
L 315.606583 358.436203 
L 316.481191 360.884576 
L 317.355799 364.162907 
L 319.54232 372.508676 
L 320.416928 374.365285 
L 320.854232 374.733844 
L 321.291536 374.605519 
L 321.72884 374.239255 
L 322.166144 374.241804 
L 322.603448 374.538578 
L 323.040752 374.52726 
L 323.915361 374.245577 
L 324.352665 374.383385 
L 324.789969 374.862883 
L 325.227273 375.593678 
L 326.976489 380.15893 
L 327.413793 380.513672 
L 327.851097 380.231378 
L 328.725705 380.902879 
L 329.163009 381.066536 
L 329.600313 381.542567 
L 330.037618 381.578001 
L 331.786834 379.62697 
L 332.661442 379.97692 
L 333.098746 379.689578 
L 333.53605 378.855541 
L 334.847962 373.148874 
L 335.722571 370.536742 
L 337.034483 366.083755 
L 337.909091 364.563789 
L 338.346395 364.112434 
L 339.221003 363.898253 
L 339.658307 364.150977 
L 340.095611 364.541203 
L 340.970219 364.626957 
L 341.844828 365.506828 
L 342.719436 366.45782 
L 343.15674 366.596546 
L 343.594044 366.612351 
L 344.905956 367.531784 
L 345.34326 367.590517 
L 345.780564 367.857058 
L 346.655172 368.958094 
L 347.092476 369.177934 
L 347.529781 368.641692 
L 348.404389 366.294419 
L 348.841693 364.775931 
L 349.716301 360.264772 
L 351.902821 349.242938 
L 354.089342 340.41762 
L 354.96395 338.719773 
L 355.401254 338.217179 
L 355.838558 338.50758 
L 356.713166 340.399878 
L 357.587774 342.809248 
L 358.025078 344.410839 
L 360.211599 354.697748 
L 361.086207 357.025188 
L 362.398119 360.81529 
L 363.272727 364.48864 
L 363.710031 365.805998 
L 365.896552 375.699927 
L 367.208464 383.769265 
L 368.083072 390.889649 
L 368.95768 399.654858 
L 370.269592 412.211596 
L 372.018809 424.287153 
L 373.768025 428.833032 
L 374.642633 431.014201 
L 375.079937 433.057308 
L 376.39185 442.118577 
L 376.829154 446.636925 
L 377.266458 449.673442 
L 377.703762 450.007739 
L 378.141066 450.09696 
L 378.57837 449.32028 
L 379.015674 447.843802 
L 379.452978 446.764026 
L 379.890282 447.579556 
L 380.76489 453.640608 
L 381.202194 457.903886 
L 382.076803 467.694115 
L 382.514107 469.936516 
L 383.388715 472.037029 
L 383.826019 472.207976 
L 385.575235 469.10875 
L 386.887147 468.415275 
L 387.324451 467.38847 
L 387.761755 466.714164 
L 388.19906 466.35361 
L 388.636364 465.397673 
L 389.073668 464.814219 
L 389.510972 465.402771 
L 391.697492 471.724144 
L 392.134796 471.980846 
L 393.009404 470.338774 
L 393.884013 469.783769 
L 394.321317 470.317667 
L 394.758621 471.23812 
L 395.633229 472.202725 
L 396.070533 472.251975 
L 396.945141 470.795075 
L 397.382445 470.813837 
L 397.819749 471.39107 
L 399.131661 473.981789 
L 399.568966 475.536424 
L 400.443574 480.839252 
L 401.755486 491.601377 
L 402.19279 493.509938 
L 402.630094 494.360901 
L 403.067398 496.206192 
L 403.942006 502.362124 
L 405.253918 511.880714 
L 406.128527 517.61532 
L 406.565831 518.494783 
L 407.003135 517.643361 
L 407.877743 513.562451 
L 408.315047 512.539878 
L 408.752351 512.161123 
L 409.189655 512.551247 
L 409.626959 513.560819 
L 410.064263 514.978156 
L 410.501567 515.778901 
L 410.938871 515.354311 
L 411.81348 515.917065 
L 412.250784 515.922877 
L 412.688088 516.166374 
L 413.125392 516.924598 
L 414.437304 521.817113 
L 416.18652 527.433132 
L 418.810345 537.269806 
L 419.247649 538.473982 
L 419.684953 539.086802 
L 420.559561 539.185862 
L 421.434169 540.756353 
L 422.746082 544.219244 
L 423.183386 544.944737 
L 424.057994 547.143597 
L 425.369906 549.213776 
L 425.80721 549.564643 
L 426.681818 550.758877 
L 427.119122 550.917945 
L 427.556426 551.490233 
L 428.868339 555.410393 
L 430.180251 560.627926 
L 431.054859 563.251631 
L 431.929467 566.7212 
L 432.366771 567.904676 
L 432.804075 568.707868 
L 433.241379 569.083411 
L 433.678683 569.07403 
L 434.115987 569.199245 
L 434.553292 569.095545 
L 434.990596 568.549718 
L 435.865204 567.055396 
L 436.302508 566.53919 
L 436.739812 566.38935 
L 437.177116 566.522212 
L 437.61442 567.236285 
L 441.112853 580.494554 
L 441.987461 584.399521 
L 443.299373 588.596826 
L 443.736677 589.663347 
L 444.173981 590.292685 
L 444.611285 591.184588 
L 445.485893 593.323084 
L 446.360502 594.967858 
L 448.109718 599.129016 
L 448.547022 599.776708 
L 450.296238 603.554319 
L 450.733542 604.181618 
L 451.170846 604.505923 
L 452.045455 605.738598 
L 452.482759 605.838271 
L 452.920063 605.711679 
L 453.357367 605.393543 
L 453.794671 605.240797 
L 454.231975 605.228561 
L 454.669279 605.030644 
L 455.981191 603.606679 
L 456.418495 603.388266 
L 456.855799 603.432622 
L 457.293103 604.150365 
L 457.730408 604.501334 
L 458.167712 604.500723 
L 459.479624 602.904026 
L 460.354232 601.68272 
L 461.22884 600.897628 
L 461.666144 600.039884 
L 462.978056 596.382237 
L 463.415361 594.996153 
L 464.727273 587.465659 
L 465.164577 586.089924 
L 465.601881 585.343426 
L 466.476489 584.599579 
L 466.913793 583.907022 
L 467.351097 582.933852 
L 467.788401 582.409233 
L 468.225705 582.356771 
L 468.663009 582.139531 
L 469.537618 581.303557 
L 470.84953 578.682045 
L 471.724138 576.907468 
L 473.910658 573.566682 
L 474.785266 572.704146 
L 476.534483 569.90873 
L 477.409091 569.628525 
L 477.846395 569.642189 
L 478.283699 570.003049 
L 479.158307 570.241855 
L 479.595611 569.742728 
L 480.032915 568.319426 
L 480.907524 564.80025 
L 481.344828 564.030962 
L 481.782132 564.598305 
L 482.65674 567.692688 
L 483.094044 568.365362 
L 484.84326 569.677571 
L 485.280564 569.501526 
L 487.029781 565.92846 
L 490.090909 555.114078 
L 490.965517 552.942034 
L 491.840125 551.549832 
L 492.714734 549.676806 
L 493.589342 547.342942 
L 494.026646 546.577886 
L 494.46395 546.134484 
L 495.775862 544.233213 
L 496.213166 543.825346 
L 496.65047 543.843904 
L 497.087774 544.094538 
L 498.399687 545.57795 
L 498.836991 545.746195 
L 499.711599 545.420258 
L 500.148903 545.27205 
L 501.023511 544.536666 
L 502.335423 542.837085 
L 504.084639 540.356644 
L 504.959248 537.857134 
L 505.396552 537.126747 
L 505.833856 535.922113 
L 506.27116 534.31991 
L 508.020376 526.36707 
L 509.332288 518.319502 
L 511.518809 509.985613 
L 512.393417 506.998702 
L 512.830721 506.104659 
L 513.268025 505.927899 
L 514.142633 505.40532 
L 514.579937 505.240236 
L 515.017241 504.844503 
L 515.89185 503.572622 
L 516.329154 502.878688 
L 516.766458 501.909953 
L 517.203762 500.313971 
L 518.952978 492.157911 
L 520.702194 487.014813 
L 522.451411 479.60673 
L 523.763323 473.339246 
L 526.387147 462.926816 
L 527.261755 460.43164 
L 528.136364 458.555096 
L 528.573668 458.231556 
L 529.010972 458.664201 
L 529.448276 458.744143 
L 529.88558 458.583035 
L 530.322884 458.943386 
L 531.197492 460.588873 
L 531.634796 460.953761 
L 532.0721 460.976142 
L 532.509404 460.706593 
L 532.946708 460.630832 
L 533.384013 460.707307 
L 534.258621 460.215318 
L 535.133229 460.992712 
L 536.882445 464.488538 
L 537.757053 465.875183 
L 538.631661 467.898609 
L 540.380878 469.429129 
L 541.255486 469.376107 
L 541.69279 469.456966 
L 542.130094 469.197563 
L 542.567398 468.452849 
L 543.004702 468.032492 
L 543.442006 468.276804 
L 546.065831 475.789607 
L 546.503135 477.370346 
L 546.940439 478.38313 
L 547.377743 478.428403 
L 548.689655 475.476467 
L 549.564263 473.212297 
L 550.001567 472.183045 
L 550.876176 469.273273 
L 551.750784 468.080314 
L 552.625392 466.038074 
L 555.249216 463.270648 
L 556.561129 464.179171 
L 556.998433 465.051547 
L 557.435737 465.322115 
L 558.747649 463.802812 
L 559.622257 463.690546 
L 560.059561 463.135236 
L 560.496865 461.864731 
L 561.371473 460.499142 
L 562.246082 457.593602 
L 563.557994 454.267041 
L 563.995298 452.851845 
L 564.869906 449.244213 
L 565.744514 446.715337 
L 566.181818 446.197703 
L 566.619122 446.016508 
L 567.056426 446.131935 
L 567.49373 446.764179 
L 567.931034 447.744997 
L 568.805643 450.66833 
L 569.680251 455.812346 
L 570.554859 461.620725 
L 571.429467 465.878598 
L 571.866771 467.709104 
L 572.304075 469.006987 
L 572.741379 469.83567 
L 573.178683 470.115263 
L 574.490596 468.512653 
L 575.365204 466.671338 
L 575.802508 466.132852 
L 576.239812 465.830827 
L 577.551724 464.201399 
L 578.426332 463.831006 
L 578.863636 463.897896 
L 579.30094 463.705128 
L 579.738245 462.916313 
L 580.612853 460.295515 
L 581.487461 457.229377 
L 582.362069 453.01907 
L 583.673981 448.448363 
L 584.548589 446.591193 
L 585.860502 445.085094 
L 586.297806 445.100797 
L 586.73511 445.677163 
L 588.047022 447.787109 
L 588.92163 448.759718 
L 589.358934 449.094781 
L 591.10815 449.111605 
L 591.545455 448.849959 
L 591.982759 447.991348 
L 593.731975 441.24513 
L 594.169279 439.888464 
L 595.918495 433.053637 
L 598.105016 427.319337 
L 598.54232 426.770705 
L 599.854232 425.753179 
L 600.72884 425.449268 
L 601.166144 424.716688 
L 601.603448 423.755142 
L 602.040752 423.253976 
L 602.478056 422.226917 
L 603.352665 419.164194 
L 603.789969 418.48632 
L 604.664577 419.12509 
L 605.101881 418.467201 
L 606.413793 413.995962 
L 607.288401 409.23835 
L 608.163009 404.988888 
L 609.912226 395.247093 
L 610.34953 393.463033 
L 611.224138 391.185251 
L 611.661442 390.46613 
L 612.098746 390.397099 
L 612.53605 390.177106 
L 612.973354 389.285866 
L 613.847962 386.001978 
L 614.285266 383.85874 
L 615.159875 378.43136 
L 616.471787 371.823103 
L 617.346395 367.056314 
L 617.783699 365.416944 
L 618.221003 365.113033 
L 618.658307 365.412662 
L 619.095611 365.572087 
L 619.532915 364.783578 
L 620.407524 361.89578 
L 620.844828 359.918187 
L 621.282132 357.39808 
L 621.719436 355.85976 
L 622.594044 352.010926 
L 623.468652 348.944176 
L 624.34326 343.55748 
L 626.092476 332.468501 
L 627.404389 327.701355 
L 627.841693 325.750834 
L 628.716301 320.283279 
L 629.590909 314.677253 
L 631.777429 303.248623 
L 632.214734 301.75012 
L 632.652038 301.092129 
L 633.089342 301.16993 
L 633.526646 301.783362 
L 634.401254 304.8547 
L 635.275862 309.107017 
L 635.713166 311.533722 
L 637.899687 326.892045 
L 638.336991 329.216274 
L 638.774295 329.840004 
L 639.211599 329.4561 
L 639.648903 329.293769 
L 640.086207 329.263382 
L 640.523511 328.969107 
L 640.960815 327.60673 
L 642.710031 318.244149 
L 643.147335 315.747495 
L 644.459248 305.648103 
L 645.77116 296.056505 
L 646.645768 291.473204 
L 647.083072 290.289677 
L 647.520376 289.90149 
L 647.95768 291.035869 
L 648.394984 293.863813 
L 649.269592 300.716688 
L 650.581505 306.236043 
L 651.018809 307.325353 
L 651.456113 307.967641 
L 653.205329 308.456571 
L 653.642633 307.166897 
L 654.517241 303.245156 
L 655.39185 297.267563 
L 656.703762 287.47091 
L 657.57837 282.586604 
L 658.015674 280.936579 
L 659.76489 276.260795 
L 660.639498 274.566619 
L 661.951411 271.136663 
L 662.388715 270.506611 
L 662.826019 270.324601 
L 663.700627 270.319604 
L 664.137931 269.973224 
L 665.449843 267.129271 
L 668.073668 259.761566 
L 668.510972 258.839481 
L 668.948276 258.30436 
L 669.38558 258.010186 
L 669.822884 257.884462 
L 670.260188 258.104302 
L 671.5721 260.002615 
L 672.009404 260.289142 
L 672.446708 260.39947 
L 672.884013 260.781437 
L 673.321317 260.927453 
L 673.758621 260.689871 
L 674.195925 260.244073 
L 674.633229 259.462906 
L 675.070533 258.233697 
L 675.945141 254.766015 
L 676.382445 252.003023 
L 678.568966 235.164551 
L 679.443574 229.792029 
L 679.880878 228.523155 
L 680.318182 226.748425 
L 682.067398 217.786064 
L 683.37931 213.041146 
L 684.253918 207.86287 
L 685.128527 202.74506 
L 686.003135 199.32938 
L 686.440439 197.635714 
L 687.752351 190.633968 
L 688.626959 183.892848 
L 689.501567 177.927695 
L 689.938871 176.015208 
L 690.376176 175.202024 
L 690.81348 174.798542 
L 691.250784 174.022983 
L 691.688088 172.975378 
L 692.562696 171.572826 
L 693 170.463122 
L 693.874608 167.185505 
L 694.311912 166.546582 
L 695.18652 167.141456 
L 696.061129 168.044167 
L 696.498433 167.777626 
L 697.373041 165.747979 
L 697.810345 166.087324 
L 698.247649 168.034072 
L 699.559561 176.848888 
L 699.996865 177.512385 
L 700.434169 176.214043 
L 701.746082 168.585406 
L 702.183386 166.890108 
L 702.62069 166.303086 
L 703.057994 165.910106 
L 703.495298 165.721774 
L 703.932602 165.908781 
L 705.244514 168.420016 
L 705.681818 169.708977 
L 706.119122 172.23979 
L 706.99373 179.667655 
L 707.431034 182.231505 
L 707.868339 183.757335 
L 708.305643 184.453257 
L 708.742947 185.422043 
L 710.492163 190.758775 
L 712.241379 202.273261 
L 712.678683 202.63045 
L 713.115987 201.779028 
L 713.990596 199.139009 
L 715.739812 195.00426 
L 716.177116 194.934718 
L 716.61442 194.709372 
L 717.051724 194.016203 
L 717.489028 193.089529 
L 718.363636 189.813544 
L 719.238245 186.024054 
L 719.675549 185.419799 
L 720.112853 185.107577 
L 720.550157 184.442551 
L 720.987461 183.524749 
L 721.862069 182.402503 
L 722.299373 182.484994 
L 723.173981 184.237904 
L 723.611285 185.587942 
L 724.923197 193.50229 
L 725.360502 194.681841 
L 725.797806 193.81696 
L 726.23511 192.685741 
L 726.672414 192.100554 
L 727.109718 192.458152 
L 727.984326 194.312314 
L 728.42163 194.63045 
L 729.296238 196.231021 
L 730.170846 196.07909 
L 730.60815 196.893906 
L 731.045455 198.067237 
L 731.920063 201.008772 
L 732.357367 201.448044 
L 733.231975 201.071175 
L 733.669279 203.977022 
L 734.981191 221.497855 
L 735.418495 223.69228 
L 736.293103 226.012838 
L 736.730408 226.631469 
L 737.605016 226.276421 
L 738.04232 226.437631 
L 738.479624 225.380338 
L 739.354232 221.743697 
L 739.791536 220.233876 
L 740.22884 217.969706 
L 741.103448 211.658886 
L 743.289969 193.499639 
L 743.727273 190.539139 
L 744.164577 188.613192 
L 744.601881 188.09204 
L 745.039185 187.789811 
L 745.476489 187.329941 
L 746.351097 188.67998 
L 746.788401 187.301595 
L 747.225705 185.393696 
L 748.100313 182.70616 
L 748.537618 180.321975 
L 749.84953 171.381129 
L 750.286834 169.00867 
L 751.161442 165.969553 
L 752.03605 161.902918 
L 754.222571 150.27688 
L 754.659875 149.585852 
L 755.097179 149.104365 
L 756.409091 147.093073 
L 757.283699 146.394295 
L 758.595611 143.527196 
L 759.907524 138.471688 
L 760.344828 135.137275 
L 760.782132 132.671313 
L 761.219436 131.012213 
L 761.65674 130.194032 
L 762.094044 130.036494 
L 762.531348 130.400311 
L 762.968652 131.26091 
L 763.84326 133.221219 
L 764.280564 133.540681 
L 764.717868 133.540783 
L 765.155172 133.788766 
L 765.592476 132.961612 
L 766.467085 129.145917 
L 767.778997 128.448669 
L 768.216301 128.839405 
L 769.090909 130.279379 
L 769.965517 130.701317 
L 770.402821 130.694077 
L 770.840125 130.378082 
L 771.277429 129.810128 
L 771.714734 129.615575 
L 772.152038 130.189342 
L 773.026646 132.823549 
L 773.46395 133.594213 
L 773.901254 133.985765 
L 774.775862 134.394856 
L 775.213166 134.84147 
L 776.525078 137.096769 
L 776.962382 137.60854 
L 777.399687 138.309459 
L 778.274295 139.11316 
L 778.711599 139.8307 
L 779.148903 139.942455 
L 779.586207 139.409577 
L 780.023511 138.677456 
L 781.772727 134.390165 
L 782.210031 134.524659 
L 783.521944 138.520326 
L 784.396552 139.249897 
L 784.833856 140.119265 
L 785.27116 140.396615 
L 785.708464 140.479921 
L 786.145768 141.821089 
L 787.894984 151.961778 
L 789.206897 155.9396 
L 790.518809 161.014074 
L 791.830721 167.681369 
L 792.705329 170.869154 
L 793.142633 171.51032 
L 793.579937 171.931647 
L 794.017241 172.541509 
L 794.89185 172.04952 
L 795.329154 172.451983 
L 796.203762 174.897144 
L 796.641066 176.570417 
L 797.515674 181.75216 
L 798.390282 187.491049 
L 798.827586 188.424554 
L 799.26489 188.429448 
L 799.702194 188.17086 
L 800.139498 187.265702 
L 801.014107 183.80689 
L 802.763323 175.817393 
L 804.075235 168.054975 
L 806.69906 149.290557 
L 807.136364 146.510435 
L 807.573668 144.500366 
L 808.010972 143.350895 
L 808.448276 141.458394 
L 809.322884 134.739911 
L 810.197492 128.050693 
L 811.0721 124.402223 
L 811.946708 121.777499 
L 812.384013 120.788932 
L 812.821317 120.263293 
L 813.258621 119.263408 
L 814.133229 114.293756 
L 814.570533 112.986747 
L 815.007837 112.553287 
L 815.445141 112.931787 
L 815.882445 114.380122 
L 817.194357 119.874902 
L 817.631661 121.559392 
L 819.818182 133.070513 
L 821.567398 147.494108 
L 822.442006 157.040534 
L 823.753918 174.764893 
L 825.065831 186.975709 
L 826.377743 194.812256 
L 826.815047 196.315653 
L 827.252351 196.58148 
L 827.689655 195.551923 
L 829.001567 190.036749 
L 829.438871 188.649798 
L 829.876176 187.945106 
L 830.750784 186.027929 
L 832.062696 184.531058 
L 833.811912 182.38935 
L 834.68652 181.693019 
L 835.123824 182.06326 
L 837.747649 187.486664 
L 838.184953 187.76177 
L 838.622257 187.118564 
L 839.059561 185.431424 
L 840.808777 175.984007 
L 841.683386 171.608412 
L 842.995298 164.669172 
L 843.869906 161.345466 
L 845.619122 155.58394 
L 846.49373 155.075942 
L 846.931034 154.256946 
L 847.368339 153.117876 
L 848.242947 149.245385 
L 849.554859 142.501513 
L 851.304075 130.664099 
L 851.741379 129.117876 
L 852.178683 128.299593 
L 852.615987 126.342241 
L 853.490596 120.3518 
L 853.9279 118.755614 
L 854.802508 117.538947 
L 855.677116 117.014839 
L 856.11442 116.191764 
L 857.426332 112.038865 
L 857.863636 111.6 
L 858.738245 111.674436 
L 859.612853 112.080671 
L 860.050157 112.368727 
L 860.487461 113.156623 
L 860.924765 115.140181 
L 861.362069 117.865445 
L 861.799373 119.885507 
L 862.236677 120.722551 
L 862.673981 121.069952 
L 863.111285 121.564286 
L 863.548589 122.410304 
L 864.423197 123.073189 
L 864.860502 124.83293 
L 865.73511 130.279175 
L 867.484326 144.29113 
L 868.358934 151.238936 
L 869.233542 155.533263 
L 869.670846 157.210717 
L 870.10815 158.322663 
L 870.545455 158.267397 
L 870.982759 157.761541 
L 871.420063 157.50642 
L 871.857367 157.535888 
L 872.294671 156.929798 
L 873.169279 153.530739 
L 874.043887 151.9111 
L 874.481191 151.121368 
L 874.918495 150.669656 
L 875.355799 150.660275 
L 875.793103 151.10485 
L 876.230408 151.914873 
L 876.667712 153.200979 
L 877.105016 154.100529 
L 877.979624 154.76994 
L 878.416928 154.845498 
L 878.854232 155.060749 
L 879.291536 155.456686 
L 879.72884 156.122936 
L 880.603448 158.162576 
L 881.478056 161.68736 
L 882.789969 167.329584 
L 883.664577 170.732213 
L 884.539185 174.127499 
L 884.976489 175.040101 
L 885.851097 176.044575 
L 886.288401 176.393913 
L 886.725705 177.866821 
L 887.600313 183.121878 
L 888.037618 184.357307 
L 888.912226 183.177042 
L 889.34953 182.945782 
L 889.786834 183.552687 
L 890.661442 186.157732 
L 891.098746 187.893001 
L 892.410658 195.177705 
L 893.285266 199.619272 
L 894.597179 204.231123 
L 895.034483 204.9143 
L 895.471787 206.030937 
L 896.346395 209.852954 
L 897.221003 213.667425 
L 898.095611 217.078823 
L 898.970219 219.414574 
L 899.407524 220.594124 
L 899.844828 222.336327 
L 901.15674 229.553937 
L 904.655172 247.209366 
L 905.529781 250.210449 
L 905.967085 251.468106 
L 906.841693 253.121292 
L 907.716301 254.312263 
L 908.153605 254.317055 
L 909.465517 252.141596 
L 909.902821 252.025048 
L 910.777429 252.053089 
L 911.214734 252.369594 
L 911.652038 253.133426 
L 912.526646 255.220378 
L 914.275862 257.666457 
L 914.713166 258.516451 
L 915.587774 261.296471 
L 917.336991 267.019453 
L 917.774295 268.011079 
L 918.211599 268.388967 
L 918.648903 268.303723 
L 919.086207 267.632374 
L 919.523511 267.196365 
L 919.960815 267.098375 
L 920.398119 267.24949 
L 920.835423 267.724654 
L 922.147335 268.529171 
L 923.021944 270.065503 
L 926.520376 277.78326 
L 927.832288 279.173677 
L 928.269592 279.187545 
L 928.706897 278.894493 
L 929.581505 277.519064 
L 930.018809 276.56486 
L 931.768025 271.238834 
L 932.642633 268.225209 
L 933.517241 265.886399 
L 933.954545 264.294699 
L 933.954545 264.294699 
" style="fill:none;stroke:#0000ff;stroke-linecap:square;stroke-width:1.5;"/>
   </g>
   <g id="patch_3">
    <path d="M 135 640.8 
L 135 86.4 
" style="fill:none;stroke:#000000;stroke-linecap:square;stroke-linejoin:miter;stroke-width:0.8;"/>
   </g>
   <g id="patch_4">
    <path d="M 972 640.8 
L 972 86.4 
" style="fill:none;stroke:#000000;stroke-linecap:square;stroke-linejoin:miter;stroke-width:0.8;"/>
   </g>
   <g id="patch_5">
    <path d="M 135 640.8 
L 972 640.8 
" style="fill:none;stroke:#000000;stroke-linecap:square;stroke-linejoin:miter;stroke-width:0.8;"/>
   </g>
   <g id="patch_6">
    <path d="M 135 86.4 
L 972 86.4 
" style="fill:none;stroke:#000000;stroke-linecap:square;stroke-linejoin:miter;stroke-width:0.8;"/>
   </g>
   <g id="text_14">
    <!-- Evaluation Preds N:1 -->
    <defs>
     <path d="M 9.8125 72.90625 
L 55.90625 72.90625 
L 55.90625 64.59375 
L 19.671875 64.59375 
L 19.671875 43.015625 
L 54.390625 43.015625 
L 54.390625 34.71875 
L 19.671875 34.71875 
L 19.671875 8.296875 
L 56.78125 8.296875 
L 56.78125 0 
L 9.8125 0 
z
" id="DejaVuSans-69"/>
     <path d="M 2.984375 54.6875 
L 12.5 54.6875 
L 29.59375 8.796875 
L 46.6875 54.6875 
L 56.203125 54.6875 
L 35.6875 0 
L 23.484375 0 
z
" id="DejaVuSans-118"/>
     <path d="M 34.28125 27.484375 
Q 23.390625 27.484375 19.1875 25 
Q 14.984375 22.515625 14.984375 16.5 
Q 14.984375 11.71875 18.140625 8.90625 
Q 21.296875 6.109375 26.703125 6.109375 
Q 34.1875 6.109375 38.703125 11.40625 
Q 43.21875 16.703125 43.21875 25.484375 
L 43.21875 27.484375 
z
M 52.203125 31.203125 
L 52.203125 0 
L 43.21875 0 
L 43.21875 8.296875 
Q 40.140625 3.328125 35.546875 0.953125 
Q 30.953125 -1.421875 24.3125 -1.421875 
Q 15.921875 -1.421875 10.953125 3.296875 
Q 6 8.015625 6 15.921875 
Q 6 25.140625 12.171875 29.828125 
Q 18.359375 34.515625 30.609375 34.515625 
L 43.21875 34.515625 
L 43.21875 35.40625 
Q 43.21875 41.609375 39.140625 45 
Q 35.0625 48.390625 27.6875 48.390625 
Q 23 48.390625 18.546875 47.265625 
Q 14.109375 46.140625 10.015625 43.890625 
L 10.015625 52.203125 
Q 14.9375 54.109375 19.578125 55.046875 
Q 24.21875 56 28.609375 56 
Q 40.484375 56 46.34375 49.84375 
Q 52.203125 43.703125 52.203125 31.203125 
z
" id="DejaVuSans-97"/>
     <path d="M 9.421875 75.984375 
L 18.40625 75.984375 
L 18.40625 0 
L 9.421875 0 
z
" id="DejaVuSans-108"/>
     <path d="M 8.5 21.578125 
L 8.5 54.6875 
L 17.484375 54.6875 
L 17.484375 21.921875 
Q 17.484375 14.15625 20.5 10.265625 
Q 23.53125 6.390625 29.59375 6.390625 
Q 36.859375 6.390625 41.078125 11.03125 
Q 45.3125 15.671875 45.3125 23.6875 
L 45.3125 54.6875 
L 54.296875 54.6875 
L 54.296875 0 
L 45.3125 0 
L 45.3125 8.40625 
Q 42.046875 3.421875 37.71875 1 
Q 33.40625 -1.421875 27.6875 -1.421875 
Q 18.265625 -1.421875 13.375 4.4375 
Q 8.5 10.296875 8.5 21.578125 
z
M 31.109375 56 
z
" id="DejaVuSans-117"/>
     <path d="M 18.3125 70.21875 
L 18.3125 54.6875 
L 36.8125 54.6875 
L 36.8125 47.703125 
L 18.3125 47.703125 
L 18.3125 18.015625 
Q 18.3125 11.328125 20.140625 9.421875 
Q 21.96875 7.515625 27.59375 7.515625 
L 36.8125 7.515625 
L 36.8125 0 
L 27.59375 0 
Q 17.1875 0 13.234375 3.875 
Q 9.28125 7.765625 9.28125 18.015625 
L 9.28125 47.703125 
L 2.6875 47.703125 
L 2.6875 54.6875 
L 9.28125 54.6875 
L 9.28125 70.21875 
z
" id="DejaVuSans-116"/>
     <path d="M 9.421875 54.6875 
L 18.40625 54.6875 
L 18.40625 0 
L 9.421875 0 
z
M 9.421875 75.984375 
L 18.40625 75.984375 
L 18.40625 64.59375 
L 9.421875 64.59375 
z
" id="DejaVuSans-105"/>
     <path d="M 30.609375 48.390625 
Q 23.390625 48.390625 19.1875 42.75 
Q 14.984375 37.109375 14.984375 27.296875 
Q 14.984375 17.484375 19.15625 11.84375 
Q 23.34375 6.203125 30.609375 6.203125 
Q 37.796875 6.203125 41.984375 11.859375 
Q 46.1875 17.53125 46.1875 27.296875 
Q 46.1875 37.015625 41.984375 42.703125 
Q 37.796875 48.390625 30.609375 48.390625 
z
M 30.609375 56 
Q 42.328125 56 49.015625 48.375 
Q 55.71875 40.765625 55.71875 27.296875 
Q 55.71875 13.875 49.015625 6.21875 
Q 42.328125 -1.421875 30.609375 -1.421875 
Q 18.84375 -1.421875 12.171875 6.21875 
Q 5.515625 13.875 5.515625 27.296875 
Q 5.515625 40.765625 12.171875 48.375 
Q 18.84375 56 30.609375 56 
z
" id="DejaVuSans-111"/>
     <path d="M 54.890625 33.015625 
L 54.890625 0 
L 45.90625 0 
L 45.90625 32.71875 
Q 45.90625 40.484375 42.875 44.328125 
Q 39.84375 48.1875 33.796875 48.1875 
Q 26.515625 48.1875 22.3125 43.546875 
Q 18.109375 38.921875 18.109375 30.90625 
L 18.109375 0 
L 9.078125 0 
L 9.078125 54.6875 
L 18.109375 54.6875 
L 18.109375 46.1875 
Q 21.34375 51.125 25.703125 53.5625 
Q 30.078125 56 35.796875 56 
Q 45.21875 56 50.046875 50.171875 
Q 54.890625 44.34375 54.890625 33.015625 
z
" id="DejaVuSans-110"/>
     <path id="DejaVuSans-32"/>
     <path d="M 19.671875 64.796875 
L 19.671875 37.40625 
L 32.078125 37.40625 
Q 38.96875 37.40625 42.71875 40.96875 
Q 46.484375 44.53125 46.484375 51.125 
Q 46.484375 57.671875 42.71875 61.234375 
Q 38.96875 64.796875 32.078125 64.796875 
z
M 9.8125 72.90625 
L 32.078125 72.90625 
Q 44.34375 72.90625 50.609375 67.359375 
Q 56.890625 61.8125 56.890625 51.125 
Q 56.890625 40.328125 50.609375 34.8125 
Q 44.34375 29.296875 32.078125 29.296875 
L 19.671875 29.296875 
L 19.671875 0 
L 9.8125 0 
z
" id="DejaVuSans-80"/>
     <path d="M 41.109375 46.296875 
Q 39.59375 47.171875 37.8125 47.578125 
Q 36.03125 48 33.890625 48 
Q 26.265625 48 22.1875 43.046875 
Q 18.109375 38.09375 18.109375 28.8125 
L 18.109375 0 
L 9.078125 0 
L 9.078125 54.6875 
L 18.109375 54.6875 
L 18.109375 46.1875 
Q 20.953125 51.171875 25.484375 53.578125 
Q 30.03125 56 36.53125 56 
Q 37.453125 56 38.578125 55.875 
Q 39.703125 55.765625 41.0625 55.515625 
z
" id="DejaVuSans-114"/>
     <path d="M 56.203125 29.59375 
L 56.203125 25.203125 
L 14.890625 25.203125 
Q 15.484375 15.921875 20.484375 11.0625 
Q 25.484375 6.203125 34.421875 6.203125 
Q 39.59375 6.203125 44.453125 7.46875 
Q 49.3125 8.734375 54.109375 11.28125 
L 54.109375 2.78125 
Q 49.265625 0.734375 44.1875 -0.34375 
Q 39.109375 -1.421875 33.890625 -1.421875 
Q 20.796875 -1.421875 13.15625 6.1875 
Q 5.515625 13.8125 5.515625 26.8125 
Q 5.515625 40.234375 12.765625 48.109375 
Q 20.015625 56 32.328125 56 
Q 43.359375 56 49.78125 48.890625 
Q 56.203125 41.796875 56.203125 29.59375 
z
M 47.21875 32.234375 
Q 47.125 39.59375 43.09375 43.984375 
Q 39.0625 48.390625 32.421875 48.390625 
Q 24.90625 48.390625 20.390625 44.140625 
Q 15.875 39.890625 15.1875 32.171875 
z
" id="DejaVuSans-101"/>
     <path d="M 45.40625 46.390625 
L 45.40625 75.984375 
L 54.390625 75.984375 
L 54.390625 0 
L 45.40625 0 
L 45.40625 8.203125 
Q 42.578125 3.328125 38.25 0.953125 
Q 33.9375 -1.421875 27.875 -1.421875 
Q 17.96875 -1.421875 11.734375 6.484375 
Q 5.515625 14.40625 5.515625 27.296875 
Q 5.515625 40.1875 11.734375 48.09375 
Q 17.96875 56 27.875 56 
Q 33.9375 56 38.25 53.625 
Q 42.578125 51.265625 45.40625 46.390625 
z
M 14.796875 27.296875 
Q 14.796875 17.390625 18.875 11.75 
Q 22.953125 6.109375 30.078125 6.109375 
Q 37.203125 6.109375 41.296875 11.75 
Q 45.40625 17.390625 45.40625 27.296875 
Q 45.40625 37.203125 41.296875 42.84375 
Q 37.203125 48.484375 30.078125 48.484375 
Q 22.953125 48.484375 18.875 42.84375 
Q 14.796875 37.203125 14.796875 27.296875 
z
" id="DejaVuSans-100"/>
     <path d="M 44.28125 53.078125 
L 44.28125 44.578125 
Q 40.484375 46.53125 36.375 47.5 
Q 32.28125 48.484375 27.875 48.484375 
Q 21.1875 48.484375 17.84375 46.4375 
Q 14.5 44.390625 14.5 40.28125 
Q 14.5 37.15625 16.890625 35.375 
Q 19.28125 33.59375 26.515625 31.984375 
L 29.59375 31.296875 
Q 39.15625 29.25 43.1875 25.515625 
Q 47.21875 21.78125 47.21875 15.09375 
Q 47.21875 7.46875 41.1875 3.015625 
Q 35.15625 -1.421875 24.609375 -1.421875 
Q 20.21875 -1.421875 15.453125 -0.5625 
Q 10.6875 0.296875 5.421875 2 
L 5.421875 11.28125 
Q 10.40625 8.6875 15.234375 7.390625 
Q 20.0625 6.109375 24.8125 6.109375 
Q 31.15625 6.109375 34.5625 8.28125 
Q 37.984375 10.453125 37.984375 14.40625 
Q 37.984375 18.0625 35.515625 20.015625 
Q 33.0625 21.96875 24.703125 23.78125 
L 21.578125 24.515625 
Q 13.234375 26.265625 9.515625 29.90625 
Q 5.8125 33.546875 5.8125 39.890625 
Q 5.8125 47.609375 11.28125 51.796875 
Q 16.75 56 26.8125 56 
Q 31.78125 56 36.171875 55.265625 
Q 40.578125 54.546875 44.28125 53.078125 
z
" id="DejaVuSans-115"/>
     <path d="M 9.8125 72.90625 
L 23.09375 72.90625 
L 55.421875 11.921875 
L 55.421875 72.90625 
L 64.984375 72.90625 
L 64.984375 0 
L 51.703125 0 
L 19.390625 60.984375 
L 19.390625 0 
L 9.8125 0 
z
" id="DejaVuSans-78"/>
     <path d="M 11.71875 12.40625 
L 22.015625 12.40625 
L 22.015625 0 
L 11.71875 0 
z
M 11.71875 51.703125 
L 22.015625 51.703125 
L 22.015625 39.3125 
L 11.71875 39.3125 
z
" id="DejaVuSans-58"/>
    </defs>
    <g transform="translate(384.728906 80.4)scale(0.324 -0.324)">
     <use xlink:href="#DejaVuSans-69"/>
     <use x="63.183594" xlink:href="#DejaVuSans-118"/>
     <use x="122.363281" xlink:href="#DejaVuSans-97"/>
     <use x="183.642578" xlink:href="#DejaVuSans-108"/>
     <use x="211.425781" xlink:href="#DejaVuSans-117"/>
     <use x="274.804688" xlink:href="#DejaVuSans-97"/>
     <use x="336.083984" xlink:href="#DejaVuSans-116"/>
     <use x="375.292969" xlink:href="#DejaVuSans-105"/>
     <use x="403.076172" xlink:href="#DejaVuSans-111"/>
     <use x="464.257812" xlink:href="#DejaVuSans-110"/>
     <use x="527.636719" xlink:href="#DejaVuSans-32"/>
     <use x="559.423828" xlink:href="#DejaVuSans-80"/>
     <use x="619.710938" xlink:href="#DejaVuSans-114"/>
     <use x="660.792969" xlink:href="#DejaVuSans-101"/>
     <use x="722.316406" xlink:href="#DejaVuSans-100"/>
     <use x="785.792969" xlink:href="#DejaVuSans-115"/>
     <use x="837.892578" xlink:href="#DejaVuSans-32"/>
     <use x="869.679688" xlink:href="#DejaVuSans-78"/>
     <use x="944.484375" xlink:href="#DejaVuSans-58"/>
     <use x="978.175781" xlink:href="#DejaVuSans-49"/>
    </g>
   </g>
   <g id="legend_1">
    <g id="patch_7">
     <path d="M 153.9 187.261875 
L 301.42125 187.261875 
Q 306.82125 187.261875 306.82125 181.861875 
L 306.82125 105.3 
Q 306.82125 99.9 301.42125 99.9 
L 153.9 99.9 
Q 148.5 99.9 148.5 105.3 
L 148.5 181.861875 
Q 148.5 187.261875 153.9 187.261875 
z
" style="fill:#ffffff;opacity:0.8;stroke:#cccccc;stroke-linejoin:miter;"/>
    </g>
    <g id="line2d_29">
     <path d="M 159.3 121.765781 
L 213.3 121.765781 
" style="fill:none;stroke:#ff0000;stroke-linecap:square;stroke-width:1.5;"/>
    </g>
    <g id="line2d_30"/>
    <g id="text_15">
     <!-- Real -->
     <defs>
      <path d="M 44.390625 34.1875 
Q 47.5625 33.109375 50.5625 29.59375 
Q 53.5625 26.078125 56.59375 19.921875 
L 66.609375 0 
L 56 0 
L 46.6875 18.703125 
Q 43.0625 26.03125 39.671875 28.421875 
Q 36.28125 30.8125 30.421875 30.8125 
L 19.671875 30.8125 
L 19.671875 0 
L 9.8125 0 
L 9.8125 72.90625 
L 32.078125 72.90625 
Q 44.578125 72.90625 50.734375 67.671875 
Q 56.890625 62.453125 56.890625 51.90625 
Q 56.890625 45.015625 53.6875 40.46875 
Q 50.484375 35.9375 44.390625 34.1875 
z
M 19.671875 64.796875 
L 19.671875 38.921875 
L 32.078125 38.921875 
Q 39.203125 38.921875 42.84375 42.21875 
Q 46.484375 45.515625 46.484375 51.90625 
Q 46.484375 58.296875 42.84375 61.546875 
Q 39.203125 64.796875 32.078125 64.796875 
z
" id="DejaVuSans-82"/>
     </defs>
     <g transform="translate(234.9 131.215781)scale(0.27 -0.27)">
      <use xlink:href="#DejaVuSans-82"/>
      <use x="69.419922" xlink:href="#DejaVuSans-101"/>
      <use x="130.943359" xlink:href="#DejaVuSans-97"/>
      <use x="192.222656" xlink:href="#DejaVuSans-108"/>
     </g>
    </g>
    <g id="line2d_31">
     <path d="M 159.3 161.396719 
L 213.3 161.396719 
" style="fill:none;stroke:#0000ff;stroke-linecap:square;stroke-width:1.5;"/>
    </g>
    <g id="line2d_32"/>
    <g id="text_16">
     <!-- Pred -->
     <g transform="translate(234.9 170.846719)scale(0.27 -0.27)">
      <use xlink:href="#DejaVuSans-80"/>
      <use x="60.287109" xlink:href="#DejaVuSans-114"/>
      <use x="101.369141" xlink:href="#DejaVuSans-101"/>
      <use x="162.892578" xlink:href="#DejaVuSans-100"/>
     </g>
    </g>
   </g>
  </g>
 </g>
 <defs>
  <clipPath id="pcecef838f7">
   <rect height="554.4" width="837" x="135" y="86.4"/>
  </clipPath>
 </defs>
</svg>
