<?xml version="1.0" encoding="utf-8" standalone="no"?>
<!DOCTYPE svg PUBLIC "-//W3C//DTD SVG 1.1//EN"
  "http://www.w3.org/Graphics/SVG/1.1/DTD/svg11.dtd">
<!-- Created with matplotlib (https://matplotlib.org/) -->
<svg height="720pt" version="1.1" viewBox="0 0 1080 720" width="1080pt" xmlns="http://www.w3.org/2000/svg" xmlns:xlink="http://www.w3.org/1999/xlink">
 <defs>
  <style type="text/css">
*{stroke-linecap:butt;stroke-linejoin:round;}
  </style>
 </defs>
 <g id="figure_1">
  <g id="patch_1">
   <path d="M 0 720 
L 1080 720 
L 1080 0 
L 0 0 
z
" style="fill:#ffffff;"/>
  </g>
  <g id="axes_1">
   <g id="patch_2">
    <path d="M 135 640.8 
L 972 640.8 
L 972 86.4 
L 135 86.4 
z
" style="fill:#ffffff;"/>
   </g>
   <g id="matplotlib.axis_1">
    <g id="xtick_1">
     <g id="line2d_1">
      <path clip-path="url(#pfc174c8d4c)" d="M 173.045455 640.8 
L 173.045455 86.4 
" style="fill:none;stroke:#b0b0b0;stroke-linecap:square;stroke-width:0.8;"/>
     </g>
     <g id="line2d_2">
      <defs>
       <path d="M 0 0 
L 0 3.5 
" id="m8755b236d0" style="stroke:#000000;stroke-width:0.8;"/>
      </defs>
      <g>
       <use style="stroke:#000000;stroke-width:0.8;" x="173.045455" xlink:href="#m8755b236d0" y="640.8"/>
      </g>
     </g>
     <g id="text_1">
      <!-- 0 -->
      <defs>
       <path d="M 31.78125 66.40625 
Q 24.171875 66.40625 20.328125 58.90625 
Q 16.5 51.421875 16.5 36.375 
Q 16.5 21.390625 20.328125 13.890625 
Q 24.171875 6.390625 31.78125 6.390625 
Q 39.453125 6.390625 43.28125 13.890625 
Q 47.125 21.390625 47.125 36.375 
Q 47.125 51.421875 43.28125 58.90625 
Q 39.453125 66.40625 31.78125 66.40625 
z
M 31.78125 74.21875 
Q 44.046875 74.21875 50.515625 64.515625 
Q 56.984375 54.828125 56.984375 36.375 
Q 56.984375 17.96875 50.515625 8.265625 
Q 44.046875 -1.421875 31.78125 -1.421875 
Q 19.53125 -1.421875 13.0625 8.265625 
Q 6.59375 17.96875 6.59375 36.375 
Q 6.59375 54.828125 13.0625 64.515625 
Q 19.53125 74.21875 31.78125 74.21875 
z
" id="DejaVuSans-48"/>
      </defs>
      <g transform="translate(164.45608 668.315781)scale(0.27 -0.27)">
       <use xlink:href="#DejaVuSans-48"/>
      </g>
     </g>
    </g>
    <g id="xtick_2">
     <g id="line2d_3">
      <path clip-path="url(#pfc174c8d4c)" d="M 282.371473 640.8 
L 282.371473 86.4 
" style="fill:none;stroke:#b0b0b0;stroke-linecap:square;stroke-width:0.8;"/>
     </g>
     <g id="line2d_4">
      <g>
       <use style="stroke:#000000;stroke-width:0.8;" x="282.371473" xlink:href="#m8755b236d0" y="640.8"/>
      </g>
     </g>
     <g id="text_2">
      <!-- 250 -->
      <defs>
       <path d="M 19.1875 8.296875 
L 53.609375 8.296875 
L 53.609375 0 
L 7.328125 0 
L 7.328125 8.296875 
Q 12.9375 14.109375 22.625 23.890625 
Q 32.328125 33.6875 34.8125 36.53125 
Q 39.546875 41.84375 41.421875 45.53125 
Q 43.3125 49.21875 43.3125 52.78125 
Q 43.3125 58.59375 39.234375 62.25 
Q 35.15625 65.921875 28.609375 65.921875 
Q 23.96875 65.921875 18.8125 64.3125 
Q 13.671875 62.703125 7.8125 59.421875 
L 7.8125 69.390625 
Q 13.765625 71.78125 18.9375 73 
Q 24.125 74.21875 28.421875 74.21875 
Q 39.75 74.21875 46.484375 68.546875 
Q 53.21875 62.890625 53.21875 53.421875 
Q 53.21875 48.921875 51.53125 44.890625 
Q 49.859375 40.875 45.40625 35.40625 
Q 44.1875 33.984375 37.640625 27.21875 
Q 31.109375 20.453125 19.1875 8.296875 
z
" id="DejaVuSans-50"/>
       <path d="M 10.796875 72.90625 
L 49.515625 72.90625 
L 49.515625 64.59375 
L 19.828125 64.59375 
L 19.828125 46.734375 
Q 21.96875 47.46875 24.109375 47.828125 
Q 26.265625 48.1875 28.421875 48.1875 
Q 40.625 48.1875 47.75 41.5 
Q 54.890625 34.8125 54.890625 23.390625 
Q 54.890625 11.625 47.5625 5.09375 
Q 40.234375 -1.421875 26.90625 -1.421875 
Q 22.3125 -1.421875 17.546875 -0.640625 
Q 12.796875 0.140625 7.71875 1.703125 
L 7.71875 11.625 
Q 12.109375 9.234375 16.796875 8.0625 
Q 21.484375 6.890625 26.703125 6.890625 
Q 35.15625 6.890625 40.078125 11.328125 
Q 45.015625 15.765625 45.015625 23.390625 
Q 45.015625 31 40.078125 35.4375 
Q 35.15625 39.890625 26.703125 39.890625 
Q 22.75 39.890625 18.8125 39.015625 
Q 14.890625 38.140625 10.796875 36.28125 
z
" id="DejaVuSans-53"/>
      </defs>
      <g transform="translate(256.603348 668.315781)scale(0.27 -0.27)">
       <use xlink:href="#DejaVuSans-50"/>
       <use x="63.623047" xlink:href="#DejaVuSans-53"/>
       <use x="127.246094" xlink:href="#DejaVuSans-48"/>
      </g>
     </g>
    </g>
    <g id="xtick_3">
     <g id="line2d_5">
      <path clip-path="url(#pfc174c8d4c)" d="M 391.697492 640.8 
L 391.697492 86.4 
" style="fill:none;stroke:#b0b0b0;stroke-linecap:square;stroke-width:0.8;"/>
     </g>
     <g id="line2d_6">
      <g>
       <use style="stroke:#000000;stroke-width:0.8;" x="391.697492" xlink:href="#m8755b236d0" y="640.8"/>
      </g>
     </g>
     <g id="text_3">
      <!-- 500 -->
      <g transform="translate(365.929367 668.315781)scale(0.27 -0.27)">
       <use xlink:href="#DejaVuSans-53"/>
       <use x="63.623047" xlink:href="#DejaVuSans-48"/>
       <use x="127.246094" xlink:href="#DejaVuSans-48"/>
      </g>
     </g>
    </g>
    <g id="xtick_4">
     <g id="line2d_7">
      <path clip-path="url(#pfc174c8d4c)" d="M 501.023511 640.8 
L 501.023511 86.4 
" style="fill:none;stroke:#b0b0b0;stroke-linecap:square;stroke-width:0.8;"/>
     </g>
     <g id="line2d_8">
      <g>
       <use style="stroke:#000000;stroke-width:0.8;" x="501.023511" xlink:href="#m8755b236d0" y="640.8"/>
      </g>
     </g>
     <g id="text_4">
      <!-- 750 -->
      <defs>
       <path d="M 8.203125 72.90625 
L 55.078125 72.90625 
L 55.078125 68.703125 
L 28.609375 0 
L 18.3125 0 
L 43.21875 64.59375 
L 8.203125 64.59375 
z
" id="DejaVuSans-55"/>
      </defs>
      <g transform="translate(475.255386 668.315781)scale(0.27 -0.27)">
       <use xlink:href="#DejaVuSans-55"/>
       <use x="63.623047" xlink:href="#DejaVuSans-53"/>
       <use x="127.246094" xlink:href="#DejaVuSans-48"/>
      </g>
     </g>
    </g>
    <g id="xtick_5">
     <g id="line2d_9">
      <path clip-path="url(#pfc174c8d4c)" d="M 610.34953 640.8 
L 610.34953 86.4 
" style="fill:none;stroke:#b0b0b0;stroke-linecap:square;stroke-width:0.8;"/>
     </g>
     <g id="line2d_10">
      <g>
       <use style="stroke:#000000;stroke-width:0.8;" x="610.34953" xlink:href="#m8755b236d0" y="640.8"/>
      </g>
     </g>
     <g id="text_5">
      <!-- 1000 -->
      <defs>
       <path d="M 12.40625 8.296875 
L 28.515625 8.296875 
L 28.515625 63.921875 
L 10.984375 60.40625 
L 10.984375 69.390625 
L 28.421875 72.90625 
L 38.28125 72.90625 
L 38.28125 8.296875 
L 54.390625 8.296875 
L 54.390625 0 
L 12.40625 0 
z
" id="DejaVuSans-49"/>
      </defs>
      <g transform="translate(575.99203 668.315781)scale(0.27 -0.27)">
       <use xlink:href="#DejaVuSans-49"/>
       <use x="63.623047" xlink:href="#DejaVuSans-48"/>
       <use x="127.246094" xlink:href="#DejaVuSans-48"/>
       <use x="190.869141" xlink:href="#DejaVuSans-48"/>
      </g>
     </g>
    </g>
    <g id="xtick_6">
     <g id="line2d_11">
      <path clip-path="url(#pfc174c8d4c)" d="M 719.675549 640.8 
L 719.675549 86.4 
" style="fill:none;stroke:#b0b0b0;stroke-linecap:square;stroke-width:0.8;"/>
     </g>
     <g id="line2d_12">
      <g>
       <use style="stroke:#000000;stroke-width:0.8;" x="719.675549" xlink:href="#m8755b236d0" y="640.8"/>
      </g>
     </g>
     <g id="text_6">
      <!-- 1250 -->
      <g transform="translate(685.318049 668.315781)scale(0.27 -0.27)">
       <use xlink:href="#DejaVuSans-49"/>
       <use x="63.623047" xlink:href="#DejaVuSans-50"/>
       <use x="127.246094" xlink:href="#DejaVuSans-53"/>
       <use x="190.869141" xlink:href="#DejaVuSans-48"/>
      </g>
     </g>
    </g>
    <g id="xtick_7">
     <g id="line2d_13">
      <path clip-path="url(#pfc174c8d4c)" d="M 829.001567 640.8 
L 829.001567 86.4 
" style="fill:none;stroke:#b0b0b0;stroke-linecap:square;stroke-width:0.8;"/>
     </g>
     <g id="line2d_14">
      <g>
       <use style="stroke:#000000;stroke-width:0.8;" x="829.001567" xlink:href="#m8755b236d0" y="640.8"/>
      </g>
     </g>
     <g id="text_7">
      <!-- 1500 -->
      <g transform="translate(794.644067 668.315781)scale(0.27 -0.27)">
       <use xlink:href="#DejaVuSans-49"/>
       <use x="63.623047" xlink:href="#DejaVuSans-53"/>
       <use x="127.246094" xlink:href="#DejaVuSans-48"/>
       <use x="190.869141" xlink:href="#DejaVuSans-48"/>
      </g>
     </g>
    </g>
    <g id="xtick_8">
     <g id="line2d_15">
      <path clip-path="url(#pfc174c8d4c)" d="M 938.327586 640.8 
L 938.327586 86.4 
" style="fill:none;stroke:#b0b0b0;stroke-linecap:square;stroke-width:0.8;"/>
     </g>
     <g id="line2d_16">
      <g>
       <use style="stroke:#000000;stroke-width:0.8;" x="938.327586" xlink:href="#m8755b236d0" y="640.8"/>
      </g>
     </g>
     <g id="text_8">
      <!-- 1750 -->
      <g transform="translate(903.970086 668.315781)scale(0.27 -0.27)">
       <use xlink:href="#DejaVuSans-49"/>
       <use x="63.623047" xlink:href="#DejaVuSans-55"/>
       <use x="127.246094" xlink:href="#DejaVuSans-53"/>
       <use x="190.869141" xlink:href="#DejaVuSans-48"/>
      </g>
     </g>
    </g>
   </g>
   <g id="matplotlib.axis_2">
    <g id="ytick_1">
     <g id="line2d_17">
      <path clip-path="url(#pfc174c8d4c)" d="M 135 568.956416 
L 972 568.956416 
" style="fill:none;stroke:#b0b0b0;stroke-linecap:square;stroke-width:0.8;"/>
     </g>
     <g id="line2d_18">
      <defs>
       <path d="M 0 0 
L -3.5 0 
" id="mf143e5fd40" style="stroke:#000000;stroke-width:0.8;"/>
      </defs>
      <g>
       <use style="stroke:#000000;stroke-width:0.8;" x="135" xlink:href="#mf143e5fd40" y="568.956416"/>
      </g>
     </g>
     <g id="text_9">
      <!-- 3.0 -->
      <defs>
       <path d="M 40.578125 39.3125 
Q 47.65625 37.796875 51.625 33 
Q 55.609375 28.21875 55.609375 21.1875 
Q 55.609375 10.40625 48.1875 4.484375 
Q 40.765625 -1.421875 27.09375 -1.421875 
Q 22.515625 -1.421875 17.65625 -0.515625 
Q 12.796875 0.390625 7.625 2.203125 
L 7.625 11.71875 
Q 11.71875 9.328125 16.59375 8.109375 
Q 21.484375 6.890625 26.8125 6.890625 
Q 36.078125 6.890625 40.9375 10.546875 
Q 45.796875 14.203125 45.796875 21.1875 
Q 45.796875 27.640625 41.28125 31.265625 
Q 36.765625 34.90625 28.71875 34.90625 
L 20.21875 34.90625 
L 20.21875 43.015625 
L 29.109375 43.015625 
Q 36.375 43.015625 40.234375 45.921875 
Q 44.09375 48.828125 44.09375 54.296875 
Q 44.09375 59.90625 40.109375 62.90625 
Q 36.140625 65.921875 28.71875 65.921875 
Q 24.65625 65.921875 20.015625 65.03125 
Q 15.375 64.15625 9.8125 62.3125 
L 9.8125 71.09375 
Q 15.4375 72.65625 20.34375 73.4375 
Q 25.25 74.21875 29.59375 74.21875 
Q 40.828125 74.21875 47.359375 69.109375 
Q 53.90625 64.015625 53.90625 55.328125 
Q 53.90625 49.265625 50.4375 45.09375 
Q 46.96875 40.921875 40.578125 39.3125 
z
" id="DejaVuSans-51"/>
       <path d="M 10.6875 12.40625 
L 21 12.40625 
L 21 0 
L 10.6875 0 
z
" id="DejaVuSans-46"/>
      </defs>
      <g transform="translate(85.061562 579.214307)scale(0.27 -0.27)">
       <use xlink:href="#DejaVuSans-51"/>
       <use x="63.623047" xlink:href="#DejaVuSans-46"/>
       <use x="95.410156" xlink:href="#DejaVuSans-48"/>
      </g>
     </g>
    </g>
    <g id="ytick_2">
     <g id="line2d_19">
      <path clip-path="url(#pfc174c8d4c)" d="M 135 461.972879 
L 972 461.972879 
" style="fill:none;stroke:#b0b0b0;stroke-linecap:square;stroke-width:0.8;"/>
     </g>
     <g id="line2d_20">
      <g>
       <use style="stroke:#000000;stroke-width:0.8;" x="135" xlink:href="#mf143e5fd40" y="461.972879"/>
      </g>
     </g>
     <g id="text_10">
      <!-- 3.5 -->
      <g transform="translate(85.061562 472.23077)scale(0.27 -0.27)">
       <use xlink:href="#DejaVuSans-51"/>
       <use x="63.623047" xlink:href="#DejaVuSans-46"/>
       <use x="95.410156" xlink:href="#DejaVuSans-53"/>
      </g>
     </g>
    </g>
    <g id="ytick_3">
     <g id="line2d_21">
      <path clip-path="url(#pfc174c8d4c)" d="M 135 354.989342 
L 972 354.989342 
" style="fill:none;stroke:#b0b0b0;stroke-linecap:square;stroke-width:0.8;"/>
     </g>
     <g id="line2d_22">
      <g>
       <use style="stroke:#000000;stroke-width:0.8;" x="135" xlink:href="#mf143e5fd40" y="354.989342"/>
      </g>
     </g>
     <g id="text_11">
      <!-- 4.0 -->
      <defs>
       <path d="M 37.796875 64.3125 
L 12.890625 25.390625 
L 37.796875 25.390625 
z
M 35.203125 72.90625 
L 47.609375 72.90625 
L 47.609375 25.390625 
L 58.015625 25.390625 
L 58.015625 17.1875 
L 47.609375 17.1875 
L 47.609375 0 
L 37.796875 0 
L 37.796875 17.1875 
L 4.890625 17.1875 
L 4.890625 26.703125 
z
" id="DejaVuSans-52"/>
      </defs>
      <g transform="translate(85.061562 365.247233)scale(0.27 -0.27)">
       <use xlink:href="#DejaVuSans-52"/>
       <use x="63.623047" xlink:href="#DejaVuSans-46"/>
       <use x="95.410156" xlink:href="#DejaVuSans-48"/>
      </g>
     </g>
    </g>
    <g id="ytick_4">
     <g id="line2d_23">
      <path clip-path="url(#pfc174c8d4c)" d="M 135 248.005805 
L 972 248.005805 
" style="fill:none;stroke:#b0b0b0;stroke-linecap:square;stroke-width:0.8;"/>
     </g>
     <g id="line2d_24">
      <g>
       <use style="stroke:#000000;stroke-width:0.8;" x="135" xlink:href="#mf143e5fd40" y="248.005805"/>
      </g>
     </g>
     <g id="text_12">
      <!-- 4.5 -->
      <g transform="translate(85.061562 258.263696)scale(0.27 -0.27)">
       <use xlink:href="#DejaVuSans-52"/>
       <use x="63.623047" xlink:href="#DejaVuSans-46"/>
       <use x="95.410156" xlink:href="#DejaVuSans-53"/>
      </g>
     </g>
    </g>
    <g id="ytick_5">
     <g id="line2d_25">
      <path clip-path="url(#pfc174c8d4c)" d="M 135 141.022268 
L 972 141.022268 
" style="fill:none;stroke:#b0b0b0;stroke-linecap:square;stroke-width:0.8;"/>
     </g>
     <g id="line2d_26">
      <g>
       <use style="stroke:#000000;stroke-width:0.8;" x="135" xlink:href="#mf143e5fd40" y="141.022268"/>
      </g>
     </g>
     <g id="text_13">
      <!-- 5.0 -->
      <g transform="translate(85.061562 151.280159)scale(0.27 -0.27)">
       <use xlink:href="#DejaVuSans-53"/>
       <use x="63.623047" xlink:href="#DejaVuSans-46"/>
       <use x="95.410156" xlink:href="#DejaVuSans-48"/>
      </g>
     </g>
    </g>
   </g>
   <g id="line2d_27">
    <path clip-path="url(#pfc174c8d4c)" d="M 173.045455 441.738387 
L 173.482759 441.776239 
L 173.920063 444.262444 
L 174.357367 442.196847 
L 174.794671 444.680195 
L 175.231975 442.974143 
L 175.669279 445.378522 
L 176.106583 445.805303 
L 176.981191 443.468568 
L 177.418495 443.51091 
L 177.855799 446.892814 
L 178.293103 447.566705 
L 179.167712 449.915887 
L 179.605016 449.776875 
L 180.04232 450.295327 
L 180.479624 449.125736 
L 180.916928 449.018505 
L 181.354232 452.321592 
L 181.791536 458.720142 
L 182.22884 457.270077 
L 182.666144 457.722569 
L 183.103448 456.124717 
L 183.540752 460.168881 
L 183.978056 458.060637 
L 184.415361 456.898646 
L 184.852665 457.843267 
L 185.289969 456.138235 
L 185.727273 455.089444 
L 186.164577 453.18449 
L 186.601881 453.178623 
L 187.039185 449.92359 
L 187.476489 454.904723 
L 187.913793 452.070044 
L 188.351097 455.484596 
L 188.788401 449.598888 
L 189.225705 447.923393 
L 189.663009 441.988252 
L 190.100313 442.232302 
L 190.537618 440.889416 
L 190.974922 441.492093 
L 191.412226 439.936123 
L 192.286834 435.622351 
L 192.724138 439.976475 
L 193.161442 438.086722 
L 193.598746 437.621477 
L 194.03605 436.186767 
L 194.473354 433.574915 
L 194.910658 433.607717 
L 195.347962 434.580651 
L 195.785266 433.665261 
L 196.659875 425.888473 
L 197.097179 426.923236 
L 197.534483 428.286373 
L 197.971787 428.939655 
L 198.409091 426.984401 
L 199.721003 416.022725 
L 200.158307 414.886394 
L 200.595611 409.688759 
L 201.032915 410.369894 
L 201.470219 399.998242 
L 201.907524 405.407381 
L 202.344828 400.511593 
L 202.782132 400.846396 
L 203.219436 397.882193 
L 203.65674 398.927107 
L 204.094044 397.549685 
L 204.531348 396.985372 
L 204.968652 394.319598 
L 205.405956 396.186293 
L 205.84326 397.150707 
L 206.280564 393.946484 
L 206.717868 398.679691 
L 207.592476 398.115224 
L 208.467085 398.562359 
L 208.904389 395.839909 
L 209.341693 396.41259 
L 210.216301 387.959207 
L 211.090909 384.670505 
L 211.528213 385.723378 
L 211.965517 386.170615 
L 212.402821 384.961385 
L 213.714734 382.886147 
L 214.152038 382.625722 
L 214.589342 384.790438 
L 215.026646 382.860691 
L 215.46395 385.939574 
L 215.901254 383.608604 
L 216.338558 390.25105 
L 216.775862 388.776957 
L 217.213166 390.233348 
L 217.65047 389.530022 
L 218.087774 392.738377 
L 218.525078 392.590845 
L 218.962382 393.239944 
L 219.399687 392.323125 
L 219.836991 391.772789 
L 220.274295 390.668444 
L 220.711599 390.376237 
L 221.148903 388.778028 
L 221.586207 384.049005 
L 222.023511 384.202556 
L 222.898119 383.920195 
L 223.335423 383.995543 
L 223.772727 381.552954 
L 224.210031 380.776781 
L 225.521944 389.107985 
L 225.959248 390.621511 
L 226.396552 393.173932 
L 226.833856 397.179326 
L 227.27116 399.906724 
L 227.708464 404.58004 
L 228.145768 403.074319 
L 228.583072 404.67263 
L 229.020376 405.76616 
L 229.45768 401.41571 
L 229.894984 395.574944 
L 230.332288 401.872232 
L 230.769592 402.136687 
L 231.206897 401.794742 
L 231.644201 403.397083 
L 232.518809 400.62214 
L 232.956113 397.123874 
L 233.393417 396.157521 
L 233.830721 397.868164 
L 234.268025 394.788006 
L 234.705329 395.088579 
L 235.142633 393.379977 
L 236.017241 388.203869 
L 236.454545 384.486856 
L 237.329154 380.02693 
L 237.766458 380.498297 
L 239.07837 372.848942 
L 239.515674 372.67728 
L 240.390282 368.079821 
L 240.827586 369.579013 
L 241.26489 368.812736 
L 241.702194 363.96939 
L 242.139498 367.283803 
L 242.576803 365.948519 
L 243.014107 362.812909 
L 243.451411 365.017978 
L 243.888715 370.457724 
L 244.326019 364.224765 
L 244.763323 365.06639 
L 245.200627 363.639536 
L 245.637931 361.39937 
L 246.075235 359.955171 
L 246.512539 356.767987 
L 246.949843 354.96608 
L 247.387147 354.105274 
L 247.824451 353.529533 
L 248.261755 353.678902 
L 248.69906 357.113095 
L 249.136364 357.940282 
L 249.573668 357.938956 
L 250.010972 360.399144 
L 250.448276 360.395879 
L 250.88558 360.900252 
L 251.322884 361.233014 
L 251.760188 361.120274 
L 252.197492 357.398516 
L 252.634796 356.259584 
L 253.0721 356.694323 
L 253.509404 356.593112 
L 253.946708 351.996673 
L 254.821317 348.945134 
L 255.258621 349.348551 
L 255.695925 349.089911 
L 256.133229 347.124862 
L 256.570533 346.420567 
L 257.007837 346.947845 
L 257.445141 343.359233 
L 257.882445 346.489741 
L 258.319749 345.289286 
L 258.757053 347.612962 
L 259.194357 346.10673 
L 259.631661 348.363884 
L 260.068966 349.000127 
L 260.50627 347.933532 
L 260.943574 345.689642 
L 261.818182 350.891104 
L 262.255486 351.619171 
L 263.130094 349.714931 
L 263.567398 350.818766 
L 264.004702 349.223057 
L 264.442006 350.432184 
L 264.87931 349.610455 
L 265.316614 352.512626 
L 265.753918 351.627742 
L 266.191223 352.006876 
L 266.628527 354.991485 
L 267.065831 355.132538 
L 267.503135 355.527129 
L 267.940439 354.79549 
L 268.377743 355.166156 
L 268.815047 356.848537 
L 269.252351 356.625148 
L 269.689655 355.30073 
L 270.126959 357.173954 
L 270.564263 358.401293 
L 271.001567 359.052075 
L 271.876176 357.774641 
L 272.750784 361.548942 
L 273.188088 359.343568 
L 273.625392 358.710232 
L 274.062696 357.19589 
L 274.5 359.301481 
L 274.937304 359.296482 
L 275.374608 358.468121 
L 275.811912 356.434714 
L 276.249216 355.658591 
L 276.68652 357.653636 
L 277.123824 356.000383 
L 277.561129 357.220223 
L 277.998433 355.8578 
L 278.435737 356.573931 
L 278.873041 356.122663 
L 279.310345 358.237437 
L 279.747649 359.112884 
L 280.184953 359.231848 
L 280.622257 360.295739 
L 281.059561 359.901199 
L 281.496865 360.014398 
L 281.934169 359.394479 
L 282.371473 360.650743 
L 282.808777 361.55991 
L 283.246082 362.045 
L 283.683386 361.585315 
L 284.12069 361.56695 
L 284.557994 361.760904 
L 284.995298 362.653848 
L 285.432602 359.08401 
L 285.869906 361.674181 
L 286.30721 360.500202 
L 286.744514 360.744252 
L 287.181818 360.603505 
L 287.619122 363.453438 
L 288.056426 362.015667 
L 288.49373 363.078334 
L 288.931034 362.269256 
L 289.368339 361.942003 
L 289.805643 363.492412 
L 290.242947 363.286266 
L 290.680251 363.673358 
L 291.117555 364.304142 
L 291.554859 363.849406 
L 291.992163 363.110115 
L 292.429467 361.84375 
L 292.866771 362.221609 
L 293.304075 363.379825 
L 293.741379 365.788387 
L 294.178683 365.164846 
L 294.615987 364.943242 
L 295.053292 365.451033 
L 295.490596 366.33454 
L 295.9279 366.819782 
L 296.365204 366.408612 
L 296.802508 368.1668 
L 297.239812 368.818347 
L 297.677116 366.08544 
L 298.11442 366.008409 
L 298.551724 365.789203 
L 298.989028 363.501697 
L 299.426332 364.759491 
L 299.863636 363.222345 
L 300.30094 365.066594 
L 300.738245 363.78416 
L 301.175549 363.597041 
L 301.612853 361.796206 
L 302.050157 362.688997 
L 302.924765 363.919091 
L 303.362069 363.752429 
L 303.799373 361.791818 
L 304.236677 358.99494 
L 304.673981 361.307188 
L 305.111285 358.430167 
L 305.548589 359.185935 
L 305.985893 356.935414 
L 306.423197 356.321413 
L 306.860502 354.8312 
L 307.297806 354.973324 
L 307.73511 354.342284 
L 308.172414 352.860233 
L 308.609718 353.071226 
L 309.047022 352.86156 
L 309.484326 353.942949 
L 309.92163 353.075919 
L 310.358934 354.168123 
L 310.796238 354.817936 
L 311.233542 358.170915 
L 311.670846 359.019171 
L 312.545455 362.998803 
L 312.982759 366.421008 
L 313.420063 365.452972 
L 313.857367 368.651481 
L 314.294671 369.43092 
L 314.731975 372.731202 
L 315.169279 371.635325 
L 316.043887 372.776145 
L 316.481191 371.350158 
L 317.355799 370.311417 
L 317.793103 373.364282 
L 318.230408 373.111713 
L 318.667712 372.291004 
L 319.105016 372.322072 
L 319.54232 373.042743 
L 320.854232 377.009264 
L 321.291536 379.977293 
L 321.72884 380.685109 
L 322.166144 380.110541 
L 322.603448 382.149356 
L 323.040752 378.432292 
L 323.478056 379.133067 
L 323.915361 382.292909 
L 324.352665 380.741122 
L 325.227273 383.177027 
L 325.664577 380.660061 
L 326.101881 381.042766 
L 326.539185 380.694138 
L 326.976489 378.556459 
L 327.413793 383.50928 
L 327.851097 382.063347 
L 328.288401 383.01562 
L 328.725705 380.869932 
L 329.163009 379.515925 
L 329.600313 373.08539 
L 330.474922 375.626588 
L 332.224138 368.552515 
L 332.661442 370.74386 
L 333.098746 369.104483 
L 333.53605 368.443345 
L 333.973354 369.165036 
L 334.410658 368.971286 
L 334.847962 368.546444 
L 335.285266 370.016353 
L 335.722571 369.379549 
L 336.159875 367.14979 
L 336.597179 368.90303 
L 337.034483 369.409494 
L 337.471787 369.534223 
L 337.909091 370.063898 
L 338.783699 368.518641 
L 339.221003 368.222864 
L 339.658307 370.254741 
L 340.532915 368.412176 
L 340.970219 369.189217 
L 341.407524 369.280531 
L 341.844828 371.46499 
L 342.282132 370.562302 
L 342.719436 370.305397 
L 343.15674 366.849013 
L 343.594044 366.304085 
L 344.031348 365.529798 
L 345.34326 356.754264 
L 345.780564 356.723962 
L 346.217868 354.38636 
L 346.655172 351.105055 
L 347.092476 350.098044 
L 347.529781 348.245226 
L 347.967085 347.198016 
L 348.404389 344.971777 
L 348.841693 343.486971 
L 349.278997 340.661015 
L 349.716301 343.0959 
L 350.153605 342.238257 
L 350.590909 341.985127 
L 351.028213 342.424458 
L 351.465517 345.623018 
L 351.902821 346.654006 
L 352.340125 347.286678 
L 352.777429 348.154625 
L 353.652038 351.651412 
L 354.089342 355.740264 
L 354.526646 356.971787 
L 354.96395 356.347481 
L 355.401254 361.644848 
L 355.838558 361.493796 
L 356.275862 361.461148 
L 356.713166 362.505092 
L 357.15047 365.552703 
L 357.587774 366.264549 
L 358.025078 370.595869 
L 358.462382 373.437946 
L 358.899687 372.208515 
L 359.336991 374.707882 
L 359.774295 379.443894 
L 360.211599 378.969262 
L 360.648903 383.503974 
L 361.086207 384.051352 
L 362.835423 396.771675 
L 363.272727 401.730005 
L 363.710031 404.853831 
L 364.147335 409.926534 
L 364.584639 417.15676 
L 365.021944 418.803075 
L 365.459248 422.991353 
L 366.333856 425.557751 
L 366.77116 431.896411 
L 367.208464 432.427515 
L 367.645768 431.746328 
L 368.083072 431.685112 
L 368.520376 434.915607 
L 370.269592 441.744611 
L 370.706897 448.167545 
L 371.144201 452.83627 
L 371.581505 455.148365 
L 372.018809 456.005191 
L 372.456113 470.915993 
L 372.893417 457.525554 
L 373.330721 456.746115 
L 373.768025 457.968047 
L 374.205329 453.038896 
L 374.642633 453.350335 
L 375.079937 454.898908 
L 375.517241 464.163 
L 375.954545 470.361372 
L 376.39185 469.612899 
L 376.829154 482.518249 
L 377.266458 484.834782 
L 378.141066 478.060925 
L 378.57837 478.041642 
L 379.015674 479.292753 
L 379.452978 475.809689 
L 379.890282 474.643668 
L 380.327586 474.652647 
L 380.76489 475.226143 
L 381.202194 474.190666 
L 381.639498 476.328652 
L 382.076803 474.558577 
L 382.514107 473.692568 
L 382.951411 469.637079 
L 383.388715 473.937026 
L 383.826019 470.878192 
L 384.263323 468.907991 
L 384.700627 471.610086 
L 385.137931 475.500189 
L 385.575235 476.506588 
L 386.012539 475.601502 
L 386.449843 478.470718 
L 386.887147 479.545169 
L 387.324451 478.475258 
L 388.19906 471.865053 
L 388.636364 474.876444 
L 389.073668 474.772631 
L 389.510972 474.832776 
L 389.948276 478.664723 
L 390.38558 478.003126 
L 390.822884 477.713521 
L 391.260188 478.700025 
L 391.697492 476.85746 
L 392.134796 473.826377 
L 392.5721 476.047056 
L 393.009404 476.815476 
L 393.884013 480.06658 
L 394.321317 479.82452 
L 394.758621 480.925141 
L 395.633229 489.106264 
L 396.070533 491.038051 
L 396.507837 497.031144 
L 397.382445 501.352823 
L 397.819749 495.195007 
L 398.257053 497.69922 
L 398.694357 505.414331 
L 399.131661 509.006871 
L 399.568966 513.818639 
L 400.00627 515.686965 
L 400.443574 519.024079 
L 400.880878 519.320979 
L 401.755486 527.662948 
L 402.19279 517.055511 
L 402.630094 517.432145 
L 403.067398 512.653791 
L 403.504702 514.318114 
L 403.942006 518.472621 
L 404.37931 518.545877 
L 404.816614 523.541651 
L 405.253918 523.910786 
L 405.691223 527.329012 
L 406.128527 522.9805 
L 406.565831 520.899038 
L 407.003135 527.149444 
L 407.440439 522.288652 
L 407.877743 525.242142 
L 408.315047 524.678543 
L 408.752351 529.310793 
L 409.189655 532.110936 
L 410.064263 532.579549 
L 410.501567 534.40987 
L 410.938871 534.900367 
L 411.376176 537.648323 
L 411.81348 537.625367 
L 412.250784 542.098455 
L 412.688088 542.726791 
L 413.125392 542.11432 
L 413.562696 543.820117 
L 414 547.112033 
L 414.437304 547.098157 
L 414.874608 547.329861 
L 415.311912 546.068751 
L 415.749216 545.293495 
L 416.18652 547.334453 
L 416.623824 550.007266 
L 417.061129 549.511718 
L 417.498433 552.970245 
L 417.935737 552.83664 
L 418.373041 552.952237 
L 418.810345 553.26388 
L 419.247649 556.67073 
L 419.684953 556.426017 
L 420.122257 555.946488 
L 420.559561 558.733827 
L 420.996865 557.734111 
L 421.434169 557.877561 
L 421.871473 560.757592 
L 422.308777 558.741632 
L 422.746082 558.68516 
L 423.62069 564.501183 
L 424.057994 563.606658 
L 424.495298 567.529613 
L 424.932602 569.163634 
L 425.80721 571.749214 
L 426.244514 570.46229 
L 426.681818 575.274364 
L 427.119122 576.571439 
L 427.556426 576.933841 
L 427.99373 577.011279 
L 428.431034 577.216406 
L 428.868339 576.345958 
L 429.305643 575.896833 
L 429.742947 577.931873 
L 430.180251 575.678546 
L 430.617555 574.956906 
L 431.054859 574.008815 
L 431.929467 575.080563 
L 432.366771 576.404828 
L 432.804075 577.081831 
L 433.678683 584.146467 
L 434.115987 582.474747 
L 434.553292 584.652523 
L 434.990596 587.831444 
L 435.4279 588.269549 
L 435.865204 590.291172 
L 436.302508 590.320097 
L 436.739812 591.89382 
L 437.177116 595.368364 
L 437.61442 594.635297 
L 438.051724 595.155994 
L 438.489028 597.197309 
L 438.926332 597.386672 
L 439.363636 598.230643 
L 439.80094 597.338208 
L 440.238245 601.506948 
L 440.675549 601.54276 
L 441.550157 601.950359 
L 441.987461 604.301072 
L 442.424765 605.30594 
L 442.862069 607.428111 
L 443.299373 606.839413 
L 443.736677 607.218955 
L 444.173981 608.076292 
L 444.611285 610.797976 
L 445.048589 610.222184 
L 445.485893 611.855695 
L 445.923197 612.61886 
L 446.360502 611.702653 
L 446.797806 611.913289 
L 447.23511 614.161566 
L 447.672414 614.080301 
L 448.109718 612.058525 
L 448.547022 612.711501 
L 448.984326 611.846053 
L 449.42163 613.189806 
L 449.858934 613.105633 
L 450.733542 610.932193 
L 451.170846 611.032435 
L 451.60815 610.81175 
L 452.045455 611.629551 
L 452.482759 612.945909 
L 452.920063 615.6 
L 453.357367 611.8459 
L 453.794671 611.982464 
L 454.231975 608.964033 
L 454.669279 610.234682 
L 455.106583 608.566636 
L 455.543887 608.808747 
L 455.981191 608.769262 
L 456.418495 609.248485 
L 456.855799 607.819795 
L 457.293103 605.35624 
L 458.167712 602.444682 
L 458.605016 601.451241 
L 459.04232 599.796866 
L 459.479624 592.683155 
L 459.916928 592.052727 
L 460.354232 593.848972 
L 461.22884 595.657714 
L 462.103448 594.516843 
L 462.540752 591.721903 
L 462.978056 590.662807 
L 463.415361 592.336007 
L 463.852665 592.782683 
L 464.289969 590.645922 
L 464.727273 589.945605 
L 465.164577 589.853475 
L 465.601881 586.279555 
L 466.039185 587.279679 
L 466.476489 585.268361 
L 466.913793 584.527489 
L 467.351097 584.808778 
L 467.788401 584.073262 
L 468.225705 583.689639 
L 468.663009 582.106734 
L 469.100313 582.257123 
L 469.537618 581.018407 
L 469.974922 581.917882 
L 470.84953 579.099679 
L 472.161442 578.100065 
L 472.598746 580.26871 
L 473.03605 578.739828 
L 473.473354 580.130463 
L 473.910658 580.857102 
L 474.347962 579.540948 
L 474.785266 579.959158 
L 475.659875 572.80081 
L 476.097179 570.951257 
L 476.534483 572.228538 
L 476.971787 574.960324 
L 477.846395 582.036948 
L 478.283699 580.381246 
L 478.721003 577.940647 
L 479.158307 577.713738 
L 479.595611 578.626119 
L 480.032915 578.673919 
L 480.470219 578.325699 
L 480.907524 576.531342 
L 481.344828 572.655217 
L 481.782132 574.695205 
L 482.65674 571.29361 
L 483.094044 567.812535 
L 483.531348 566.948312 
L 483.968652 566.718954 
L 484.405956 565.876105 
L 484.84326 563.478256 
L 485.280564 562.647498 
L 485.717868 562.325754 
L 486.155172 561.685277 
L 486.592476 560.70566 
L 487.029781 561.890556 
L 487.467085 559.206877 
L 487.904389 558.488757 
L 488.778997 554.852651 
L 489.216301 554.886882 
L 489.653605 554.77205 
L 490.090909 555.485834 
L 490.528213 552.786442 
L 490.965517 553.72081 
L 491.402821 552.577031 
L 492.277429 554.43643 
L 492.714734 554.687214 
L 493.152038 555.869661 
L 493.589342 555.468693 
L 494.026646 555.90736 
L 494.46395 553.930833 
L 494.901254 553.504716 
L 495.338558 554.116931 
L 495.775862 552.878828 
L 496.213166 552.148618 
L 496.65047 552.435825 
L 497.087774 550.801243 
L 497.525078 550.577497 
L 497.962382 549.813209 
L 498.399687 548.683051 
L 498.836991 548.428238 
L 499.274295 547.404392 
L 499.711599 547.316343 
L 500.148903 541.819359 
L 500.586207 544.44024 
L 501.023511 543.248049 
L 502.335423 534.009871 
L 503.210031 532.217249 
L 503.647335 528.38117 
L 504.084639 522.581215 
L 504.521944 523.193023 
L 504.959248 520.872256 
L 505.396552 521.916558 
L 506.27116 516.751112 
L 506.708464 515.255797 
L 507.145768 514.175429 
L 507.583072 512.131003 
L 508.020376 512.244916 
L 508.45768 512.698785 
L 508.894984 515.120815 
L 509.332288 511.610459 
L 509.769592 514.292046 
L 510.206897 512.288635 
L 510.644201 512.102231 
L 511.081505 510.470302 
L 511.518809 509.529354 
L 511.956113 509.106195 
L 513.268025 499.841286 
L 513.705329 499.03532 
L 514.142633 497.098992 
L 514.579937 496.866012 
L 515.017241 497.524753 
L 515.454545 496.16034 
L 515.89185 493.989757 
L 516.329154 490.730031 
L 516.766458 490.588314 
L 517.203762 487.589422 
L 517.641066 487.699968 
L 518.07837 483.858329 
L 518.515674 481.992961 
L 518.952978 480.725321 
L 519.390282 479.904816 
L 519.827586 478.001698 
L 520.26489 476.819608 
L 521.139498 473.404749 
L 521.576803 469.961425 
L 522.014107 470.506557 
L 522.451411 469.357116 
L 522.888715 468.810402 
L 523.326019 469.041647 
L 523.763323 466.207427 
L 524.200627 470.724284 
L 524.637931 470.232052 
L 525.075235 468.441828 
L 525.512539 467.82446 
L 525.949843 470.993891 
L 526.387147 471.884438 
L 527.69906 469.951528 
L 528.136364 469.147705 
L 528.573668 470.504007 
L 529.010972 470.622358 
L 529.448276 468.160946 
L 529.88558 471.635491 
L 530.322884 472.63031 
L 530.760188 472.597814 
L 531.197492 476.017723 
L 531.634796 474.934855 
L 532.0721 476.354567 
L 532.509404 477.013664 
L 532.946708 477.224045 
L 533.384013 478.222128 
L 533.821317 481.08813 
L 534.258621 479.204091 
L 534.695925 479.046153 
L 535.133229 479.86931 
L 535.570533 478.934943 
L 536.007837 479.8738 
L 536.445141 479.073088 
L 536.882445 479.726625 
L 537.319749 480.019699 
L 537.757053 477.373362 
L 538.194357 477.316277 
L 538.631661 478.797716 
L 539.068966 481.336567 
L 539.50627 485.705842 
L 539.943574 484.670926 
L 540.380878 486.922672 
L 540.818182 484.654092 
L 541.255486 488.843951 
L 541.69279 490.505264 
L 542.130094 491.026369 
L 542.567398 489.551001 
L 543.442006 483.50062 
L 543.87931 484.271489 
L 544.753918 481.331874 
L 545.191223 482.214717 
L 546.065831 476.740332 
L 546.503135 478.725991 
L 546.940439 479.098187 
L 547.815047 474.766918 
L 548.252351 475.138195 
L 548.689655 476.278199 
L 549.126959 474.031606 
L 549.564263 474.528683 
L 550.001567 473.650584 
L 550.438871 472.30224 
L 550.876176 473.848415 
L 551.31348 475.827391 
L 551.750784 474.052266 
L 552.188088 475.484987 
L 552.625392 477.771626 
L 553.062696 472.890531 
L 553.5 471.872909 
L 553.937304 471.700125 
L 554.374608 472.724124 
L 554.811912 473.167025 
L 555.249216 472.252145 
L 555.68652 469.754258 
L 556.123824 466.537077 
L 556.561129 471.366139 
L 556.998433 465.970825 
L 557.435737 463.296277 
L 557.873041 464.779552 
L 558.310345 462.552803 
L 559.184953 461.249454 
L 560.059561 455.415371 
L 560.496865 455.330229 
L 560.934169 454.647461 
L 561.371473 455.180044 
L 561.808777 456.719792 
L 562.246082 456.065796 
L 564.432602 464.868418 
L 564.869906 469.395784 
L 565.744514 474.443184 
L 566.619122 475.363574 
L 567.056426 477.674496 
L 567.49373 478.634676 
L 567.931034 477.74867 
L 568.368339 478.650388 
L 569.242947 475.024333 
L 569.680251 477.21527 
L 570.117555 475.996246 
L 570.554859 475.371124 
L 570.992163 476.185915 
L 571.429467 477.265723 
L 571.866771 477.813865 
L 572.304075 476.183212 
L 572.741379 476.545868 
L 573.178683 476.719111 
L 573.615987 477.741528 
L 574.053292 477.277762 
L 574.490596 478.65804 
L 574.9279 475.884628 
L 576.239812 470.875386 
L 576.677116 470.472276 
L 577.551724 464.36379 
L 577.989028 464.977894 
L 578.426332 464.101274 
L 578.863636 461.857996 
L 579.30094 464.303186 
L 579.738245 461.719443 
L 580.175549 462.866742 
L 580.612853 462.932549 
L 581.050157 461.388619 
L 581.487461 462.068224 
L 582.362069 465.221739 
L 582.799373 465.153177 
L 583.236677 465.786104 
L 583.673981 465.283058 
L 584.111285 465.717287 
L 584.548589 465.85482 
L 584.985893 465.391156 
L 585.423197 464.329101 
L 585.860502 465.522618 
L 586.297806 464.854185 
L 586.73511 464.715683 
L 587.172414 463.352596 
L 587.609718 460.574593 
L 588.047022 456.498596 
L 588.484326 456.423198 
L 589.358934 455.423788 
L 589.796238 453.849198 
L 590.670846 448.452558 
L 591.10815 448.946983 
L 591.545455 448.906274 
L 592.420063 444.87216 
L 592.857367 446.49307 
L 593.294671 441.979886 
L 593.731975 445.321081 
L 594.169279 442.487574 
L 594.606583 444.475171 
L 595.043887 441.708085 
L 595.481191 443.100045 
L 595.918495 441.947033 
L 596.355799 441.279518 
L 596.793103 437.664023 
L 597.230408 438.100394 
L 597.667712 438.916359 
L 598.105016 433.875335 
L 598.54232 433.631184 
L 598.979624 430.870015 
L 599.416928 436.198398 
L 599.854232 436.76766 
L 600.291536 435.153127 
L 600.72884 430.155976 
L 601.166144 429.178604 
L 601.603448 427.912953 
L 602.040752 424.672714 
L 602.478056 420.459185 
L 602.915361 421.038649 
L 603.352665 419.070183 
L 603.789969 414.845787 
L 604.664577 410.907681 
L 605.539185 405.703974 
L 605.976489 407.522461 
L 606.413793 406.262014 
L 606.851097 404.273907 
L 607.288401 405.912825 
L 607.725705 406.317108 
L 608.163009 404.23483 
L 608.600313 399.758478 
L 609.037618 397.660028 
L 609.912226 391.735957 
L 610.34953 386.773801 
L 610.786834 386.865575 
L 611.224138 385.905905 
L 612.098746 379.063025 
L 612.973354 374.778485 
L 613.410658 376.927183 
L 613.847962 379.771606 
L 614.285266 379.729724 
L 614.722571 378.501619 
L 615.159875 372.980098 
L 615.597179 372.467614 
L 616.909091 363.306365 
L 617.346395 368.088749 
L 617.783699 360.775523 
L 618.221003 362.328279 
L 619.095611 358.681104 
L 619.532915 352.8636 
L 620.407524 348.754751 
L 620.844828 348.187784 
L 621.282132 341.268691 
L 621.719436 345.818299 
L 623.031348 341.09708 
L 624.34326 330.715583 
L 624.780564 330.950552 
L 625.217868 327.629049 
L 625.655172 326.910061 
L 626.529781 319.223313 
L 626.967085 320.491514 
L 627.404389 318.384953 
L 627.841693 317.459871 
L 628.278997 319.649584 
L 628.716301 319.511132 
L 629.153605 322.135891 
L 629.590909 323.110457 
L 630.028213 324.51364 
L 631.340125 329.807131 
L 631.777429 334.868917 
L 632.214734 335.453126 
L 632.652038 336.905283 
L 633.089342 340.32208 
L 633.526646 339.716241 
L 633.96395 341.611911 
L 634.401254 333.606735 
L 634.838558 336.541045 
L 635.275862 336.240064 
L 635.713166 337.369609 
L 636.15047 335.7286 
L 636.587774 330.863727 
L 637.899687 326.321567 
L 638.336991 323.4699 
L 638.774295 322.466256 
L 639.211599 315.900381 
L 639.648903 315.347902 
L 640.086207 309.003835 
L 640.523511 308.827736 
L 641.398119 302.299407 
L 642.272727 301.424726 
L 643.147335 303.168681 
L 644.021944 314.567902 
L 644.459248 318.117437 
L 644.896552 314.017158 
L 645.333856 314.143978 
L 645.77116 316.064849 
L 646.208464 315.727751 
L 646.645768 315.064062 
L 647.083072 314.697477 
L 647.520376 313.695976 
L 647.95768 314.479139 
L 648.394984 316.290942 
L 648.832288 313.592928 
L 649.269592 307.759203 
L 649.706897 307.815726 
L 650.144201 302.802607 
L 650.581505 300.217333 
L 651.018809 295.990846 
L 651.893417 290.456367 
L 652.330721 290.583187 
L 652.768025 288.187991 
L 653.205329 286.4674 
L 653.642633 287.644592 
L 654.079937 286.392818 
L 654.517241 284.511636 
L 654.954545 283.856313 
L 655.39185 283.407392 
L 655.829154 282.246524 
L 656.266458 280.76886 
L 656.703762 278.511911 
L 657.141066 277.202389 
L 658.015674 277.393588 
L 658.452978 278.731678 
L 658.890282 277.860976 
L 659.327586 278.253986 
L 660.202194 273.176896 
L 660.639498 273.068645 
L 661.076803 272.635844 
L 661.514107 268.601577 
L 661.951411 269.13518 
L 662.388715 268.552604 
L 662.826019 266.822728 
L 663.263323 266.138124 
L 663.700627 265.844489 
L 664.137931 265.402914 
L 664.575235 265.875097 
L 665.012539 265.432196 
L 665.449843 265.863568 
L 665.887147 266.513687 
L 666.324451 267.835555 
L 666.761755 267.816067 
L 667.19906 267.086367 
L 667.636364 266.878945 
L 668.073668 266.068439 
L 668.510972 268.68177 
L 668.948276 265.352615 
L 669.38558 265.803882 
L 669.822884 263.622739 
L 670.260188 262.383208 
L 670.697492 259.376255 
L 671.134796 258.074282 
L 671.5721 255.614196 
L 672.009404 249.781797 
L 672.446708 245.711412 
L 673.321317 241.55563 
L 673.758621 238.165666 
L 674.195925 237.595944 
L 674.633229 234.116502 
L 675.070533 233.628301 
L 675.507837 237.23742 
L 675.945141 228.783323 
L 676.382445 227.862628 
L 676.819749 226.121427 
L 677.257053 221.189216 
L 677.694357 223.694704 
L 678.131661 220.590009 
L 678.568966 219.881224 
L 679.443574 211.613328 
L 680.318182 206.774778 
L 680.755486 206.378809 
L 681.19279 204.637507 
L 681.630094 204.832583 
L 682.067398 199.961384 
L 682.504702 197.069416 
L 682.942006 195.406981 
L 683.37931 191.876525 
L 684.253918 181.932522 
L 684.691223 182.94545 
L 685.128527 180.407007 
L 685.565831 182.061994 
L 686.003135 183.223475 
L 686.440439 181.989759 
L 686.877743 178.324423 
L 687.315047 177.306699 
L 687.752351 177.897234 
L 688.189655 174.966393 
L 688.626959 172.907785 
L 689.064263 169.656171 
L 689.501567 168.53193 
L 689.938871 173.06654 
L 690.81348 171.938729 
L 691.250784 173.197135 
L 691.688088 171.254125 
L 692.125392 168.786489 
L 692.562696 164.561328 
L 693.437304 171.258308 
L 693.874608 178.245964 
L 694.311912 180.782876 
L 694.749216 182.588762 
L 695.18652 181.318316 
L 695.623824 174.005193 
L 696.498433 165.272561 
L 696.935737 165.757498 
L 697.373041 163.675117 
L 697.810345 167.276788 
L 698.247649 168.376236 
L 698.684953 167.360757 
L 699.122257 168.530094 
L 699.559561 169.373657 
L 699.996865 172.599356 
L 700.434169 171.040275 
L 700.871473 172.879932 
L 701.308777 175.909535 
L 701.746082 183.119713 
L 702.183386 187.895924 
L 702.62069 186.969209 
L 703.057994 186.826268 
L 703.495298 185.342381 
L 703.932602 184.729196 
L 704.369906 189.200141 
L 704.80721 189.992894 
L 705.244514 192.127003 
L 705.681818 192.458388 
L 706.556426 205.175905 
L 706.99373 207.158503 
L 707.431034 207.642419 
L 707.868339 204.546702 
L 708.305643 202.827132 
L 708.742947 199.488793 
L 709.180251 199.68489 
L 709.617555 200.778114 
L 710.054859 200.305013 
L 710.492163 198.961107 
L 710.929467 199.583475 
L 711.366771 200.802193 
L 711.804075 202.779077 
L 712.241379 200.12269 
L 712.678683 199.822933 
L 713.115987 198.270586 
L 713.553292 195.63389 
L 713.990596 194.066953 
L 714.4279 190.767385 
L 714.865204 193.949621 
L 715.302508 195.491766 
L 715.739812 194.693095 
L 716.177116 191.939374 
L 716.61442 191.256606 
L 717.051724 191.888258 
L 717.489028 191.653595 
L 717.926332 194.974181 
L 718.363636 196.216977 
L 718.80094 196.777414 
L 719.238245 200.22686 
L 719.675549 205.359249 
L 720.112853 207.009849 
L 720.550157 207.584161 
L 721.424765 196.747826 
L 721.862069 200.429282 
L 722.299373 200.900955 
L 722.736677 206.09354 
L 723.173981 206.829362 
L 723.611285 206.457982 
L 724.048589 204.850846 
L 724.485893 210.065367 
L 725.360502 204.410904 
L 725.797806 206.975976 
L 726.23511 210.452765 
L 726.672414 210.648862 
L 727.109718 213.833037 
L 727.547022 212.44628 
L 727.984326 209.288326 
L 728.42163 209.680111 
L 728.858934 209.430246 
L 729.296238 229.09767 
L 730.170846 241.660004 
L 730.60815 234.178841 
L 731.045455 232.731786 
L 731.482759 232.924822 
L 731.920063 234.475945 
L 732.357367 233.911733 
L 732.794671 231.562755 
L 733.231975 235.140858 
L 733.669279 235.337567 
L 734.106583 228.886983 
L 734.543887 228.138714 
L 734.981191 229.040637 
L 735.418495 227.154149 
L 735.855799 222.326312 
L 736.293103 218.941959 
L 736.730408 216.993949 
L 737.167712 210.506636 
L 738.04232 205.007662 
L 738.479624 203.552241 
L 739.354232 197.192972 
L 739.791536 200.304707 
L 740.22884 201.307535 
L 740.666144 198.681654 
L 741.103448 197.66444 
L 741.540752 203.992897 
L 742.415361 190.621792 
L 742.852665 190.058294 
L 743.289969 191.008578 
L 743.727273 187.771247 
L 744.164577 180.97479 
L 744.601881 178.608671 
L 745.039185 178.622649 
L 745.476489 174.708978 
L 745.913793 175.937593 
L 746.351097 175.773533 
L 746.788401 171.273408 
L 747.225705 168.893209 
L 747.663009 167.393508 
L 748.100313 163.025917 
L 748.537618 161.757613 
L 748.974922 158.386626 
L 749.412226 156.365667 
L 749.84953 157.092306 
L 750.286834 159.14214 
L 750.724138 155.433952 
L 751.161442 154.781588 
L 752.03605 152.495459 
L 752.473354 152.64799 
L 752.910658 150.888731 
L 753.347962 147.23472 
L 753.785266 147.294202 
L 754.222571 145.74216 
L 754.659875 139.425029 
L 755.097179 144.60282 
L 755.534483 133.649357 
L 755.971787 131.884078 
L 756.409091 133.625584 
L 756.846395 133.279303 
L 757.283699 135.200174 
L 757.721003 135.262105 
L 758.158307 137.198075 
L 758.595611 137.823198 
L 759.032915 138.806334 
L 759.470219 137.107475 
L 760.344828 135.837947 
L 760.782132 137.988788 
L 761.219436 129.778333 
L 761.65674 127.729214 
L 762.094044 130.605368 
L 762.531348 132.535013 
L 762.968652 129.806697 
L 763.405956 131.112138 
L 763.84326 133.575897 
L 764.280564 134.338552 
L 764.717868 133.817498 
L 765.155172 132.998421 
L 765.592476 133.703839 
L 766.467085 131.860815 
L 766.904389 131.40965 
L 767.341693 133.443261 
L 768.216301 138.980393 
L 768.653605 137.961037 
L 769.090909 138.05378 
L 769.528213 137.403457 
L 769.965517 138.199577 
L 770.402821 137.822892 
L 770.840125 140.011176 
L 771.277429 140.764139 
L 771.714734 140.940952 
L 772.152038 140.048212 
L 772.589342 141.344981 
L 773.026646 141.807472 
L 773.46395 140.665376 
L 773.901254 142.568698 
L 774.338558 143.623356 
L 774.775862 140.242677 
L 775.213166 140.07882 
L 775.65047 138.971108 
L 776.087774 137.360911 
L 776.962382 135.248127 
L 777.399687 136.286562 
L 778.274295 143.530103 
L 778.711599 143.325232 
L 779.148903 142.288429 
L 779.586207 140.099532 
L 780.023511 142.837847 
L 780.460815 143.11128 
L 780.898119 141.322535 
L 781.335423 142.246496 
L 781.772727 149.079988 
L 782.647335 154.897594 
L 783.084639 155.126543 
L 783.521944 155.059103 
L 783.959248 153.937107 
L 784.396552 156.975485 
L 785.27116 159.979785 
L 785.708464 161.279717 
L 786.583072 167.723158 
L 787.020376 168.115964 
L 787.45768 168.926368 
L 787.894984 170.596456 
L 788.332288 170.611862 
L 788.769592 168.386235 
L 789.206897 170.756435 
L 789.644201 169.932665 
L 790.081505 167.767642 
L 790.518809 169.232247 
L 791.393417 175.050668 
L 791.830721 176.363251 
L 793.579937 190.756162 
L 794.017241 188.634297 
L 794.454545 184.88642 
L 794.89185 185.137 
L 795.329154 184.718075 
L 796.203762 180.697989 
L 796.641066 179.083303 
L 797.515674 177.330063 
L 797.952978 174.197208 
L 798.390282 173.103372 
L 798.827586 169.834413 
L 799.26489 168.733536 
L 799.702194 164.463585 
L 800.576803 159.622893 
L 801.014107 157.289627 
L 801.451411 151.88156 
L 801.888715 152.127446 
L 802.326019 151.017898 
L 802.763323 146.156902 
L 803.200627 150.701205 
L 803.637931 148.093689 
L 804.949843 133.640888 
L 805.387147 130.671583 
L 805.824451 131.518411 
L 806.261755 131.151725 
L 806.69906 129.541425 
L 808.010972 127.351202 
L 808.448276 128.649399 
L 809.322884 118.111188 
L 809.760188 119.098814 
L 810.197492 121.681639 
L 810.634796 121.319237 
L 811.509404 127.865624 
L 811.946708 128.981295 
L 812.384013 129.137091 
L 812.821317 128.507683 
L 813.258621 132.487264 
L 813.695925 134.376914 
L 814.133229 134.414154 
L 814.570533 136.067917 
L 815.007837 139.269845 
L 815.445141 144.917574 
L 815.882445 146.159248 
L 817.194357 156.913248 
L 818.068966 168.643854 
L 818.50627 177.300781 
L 818.943574 179.11534 
L 819.380878 182.220749 
L 819.818182 183.028807 
L 820.255486 188.049067 
L 820.69279 189.325023 
L 821.130094 189.366242 
L 821.567398 194.550359 
L 822.004702 194.812671 
L 822.442006 194.334162 
L 823.316614 188.656845 
L 823.753918 187.350179 
L 824.191223 188.624502 
L 824.628527 186.442747 
L 825.065831 189.6812 
L 825.503135 189.996159 
L 825.940439 187.689523 
L 826.377743 189.844853 
L 826.815047 188.690004 
L 827.252351 189.956675 
L 827.689655 188.088144 
L 828.126959 188.453402 
L 828.564263 186.382041 
L 829.001567 187.219074 
L 829.438871 186.620887 
L 829.876176 185.597756 
L 830.31348 186.327252 
L 830.750784 189.266357 
L 831.188088 189.892091 
L 831.625392 189.587233 
L 832.062696 192.033954 
L 832.5 192.464713 
L 832.937304 191.631965 
L 833.374608 192.046197 
L 833.811912 190.214498 
L 835.123824 179.664451 
L 835.561129 179.599766 
L 835.998433 177.402095 
L 836.873041 175.493263 
L 837.310345 170.293128 
L 837.747649 170.379749 
L 838.184953 168.144532 
L 838.622257 166.504849 
L 839.059561 165.83208 
L 839.496865 165.488859 
L 839.934169 161.860151 
L 840.371473 160.199144 
L 840.808777 160.115686 
L 841.246082 162.789621 
L 841.683386 161.35736 
L 842.12069 161.104026 
L 842.557994 156.24507 
L 842.995298 156.236194 
L 843.432602 150.559795 
L 843.869906 150.184538 
L 844.30721 147.435306 
L 844.744514 146.959552 
L 845.181818 138.47699 
L 845.619122 138.688492 
L 846.056426 133.598241 
L 846.49373 131.874793 
L 846.931034 131.280585 
L 847.368339 132.545726 
L 847.805643 131.628091 
L 848.242947 122.471637 
L 848.680251 119.504781 
L 849.117555 118.311468 
L 849.554859 122.805471 
L 849.992163 121.186295 
L 850.429467 121.213945 
L 850.866771 121.401573 
L 851.304075 119.251243 
L 851.741379 116.50752 
L 852.178683 112.947987 
L 852.615987 112.466519 
L 853.053292 111.6 
L 853.490596 114.139973 
L 853.9279 112.593951 
L 854.365204 113.396193 
L 854.802508 112.616499 
L 855.239812 113.133473 
L 855.677116 113.210605 
L 856.11442 115.703748 
L 856.551724 121.405756 
L 856.989028 122.77323 
L 857.426332 120.909801 
L 857.863636 118.239232 
L 858.30094 118.994338 
L 858.738245 120.427619 
L 859.175549 122.348082 
L 859.612853 118.701927 
L 860.050157 124.099281 
L 860.924765 131.001336 
L 861.799373 137.614858 
L 862.236677 139.489612 
L 862.673981 143.885465 
L 863.111285 145.852758 
L 863.548589 149.987114 
L 863.985893 149.3473 
L 864.423197 150.304012 
L 864.860502 150.59683 
L 865.297806 153.453701 
L 865.73511 150.513882 
L 866.172414 148.89185 
L 866.609718 149.109474 
L 867.047022 150.556326 
L 867.484326 151.115844 
L 868.358934 143.774255 
L 868.796238 144.582516 
L 869.233542 146.696729 
L 869.670846 145.284057 
L 870.10815 145.248041 
L 870.982759 147.000873 
L 871.857367 150.064757 
L 872.294671 152.895815 
L 872.731975 150.013233 
L 873.169279 150.812312 
L 873.606583 151.098908 
L 874.043887 150.4393 
L 874.481191 152.625442 
L 874.918495 152.461178 
L 875.355799 155.227959 
L 876.230408 157.011092 
L 876.667712 161.457653 
L 877.105016 161.675685 
L 877.54232 164.997393 
L 878.416928 165.7526 
L 879.291536 170.848974 
L 879.72884 172.421829 
L 880.166144 171.790585 
L 880.603448 172.101054 
L 881.040752 172.089219 
L 881.478056 172.580787 
L 881.915361 172.615477 
L 882.352665 180.226521 
L 882.789969 181.457686 
L 883.227273 185.481853 
L 883.664577 177.092339 
L 884.101881 176.115018 
L 884.539185 177.965082 
L 884.976489 178.830275 
L 885.413793 183.934198 
L 885.851097 184.409442 
L 886.288401 187.373135 
L 886.725705 188.92079 
L 887.163009 193.814231 
L 887.600313 194.356506 
L 888.037618 197.553333 
L 888.474922 198.619519 
L 888.912226 199.35024 
L 889.34953 200.658946 
L 889.786834 203.242995 
L 890.224138 200.686902 
L 890.661442 202.432285 
L 891.973354 210.97535 
L 892.410658 212.865 
L 892.847962 213.232299 
L 893.285266 216.386886 
L 893.722571 216.227009 
L 894.159875 217.156683 
L 894.597179 217.533879 
L 896.346395 230.31649 
L 897.658307 234.719689 
L 898.095611 238.360232 
L 898.970219 243.224493 
L 899.407524 245.058538 
L 899.844828 245.379007 
L 900.282132 248.155275 
L 900.719436 248.405549 
L 901.15674 249.574579 
L 901.594044 251.438825 
L 902.031348 250.617912 
L 902.468652 252.894247 
L 902.905956 252.849763 
L 903.34326 253.983798 
L 904.217868 249.980241 
L 904.655172 250.490786 
L 905.092476 250.724837 
L 905.529781 253.1838 
L 905.967085 252.182707 
L 906.404389 252.863842 
L 907.278997 256.145759 
L 907.716301 257.82156 
L 908.153605 257.862779 
L 908.590909 256.76425 
L 909.028213 258.488514 
L 909.465517 258.887441 
L 909.902821 258.859077 
L 910.777429 262.518394 
L 911.214734 264.094514 
L 911.652038 264.986234 
L 912.089342 264.747286 
L 912.526646 267.577017 
L 912.96395 268.004716 
L 913.401254 267.390205 
L 913.838558 266.147408 
L 914.275862 265.849692 
L 914.713166 262.972212 
L 915.15047 266.418291 
L 915.587774 265.178046 
L 916.025078 267.69241 
L 916.462382 267.518249 
L 916.899687 266.903024 
L 917.336991 267.241449 
L 917.774295 269.047437 
L 918.211599 269.464219 
L 918.648903 270.131682 
L 919.086207 271.714332 
L 919.523511 272.460561 
L 919.960815 271.633425 
L 920.398119 274.453769 
L 920.835423 274.747915 
L 921.272727 276.897123 
L 921.710031 275.990507 
L 922.147335 276.029583 
L 922.584639 277.036696 
L 923.021944 277.362572 
L 923.459248 276.732757 
L 923.896552 275.83869 
L 924.333856 275.387321 
L 924.77116 273.950876 
L 925.208464 274.142178 
L 925.645768 271.490076 
L 926.520376 269.201396 
L 926.95768 269.044988 
L 927.394984 266.410333 
L 927.832288 265.687571 
L 928.706897 266.034872 
L 929.144201 261.839095 
L 929.581505 263.433376 
L 930.018809 262.6445 
L 930.456113 263.74303 
L 930.893417 261.216116 
L 931.330721 260.443462 
L 931.768025 260.427954 
L 932.205329 259.188422 
L 932.642633 257.220721 
L 933.079937 254.491486 
L 933.517241 256.348794 
L 933.954545 253.285114 
L 933.954545 253.285114 
" style="fill:none;stroke:#ff0000;stroke-linecap:square;stroke-width:1.5;"/>
   </g>
   <g id="line2d_28">
    <path clip-path="url(#pfc174c8d4c)" d="M 173.045455 449.154864 
L 173.482759 447.429019 
L 173.920063 447.454373 
L 174.357367 448.135967 
L 174.794671 448.368029 
L 175.231975 446.980659 
L 175.669279 444.763297 
L 176.106583 443.847753 
L 176.981191 441.035112 
L 177.418495 440.412438 
L 177.855799 440.770095 
L 178.293103 441.526221 
L 178.730408 443.229008 
L 179.167712 443.971972 
L 179.605016 445.336691 
L 180.04232 445.664403 
L 180.916928 447.919159 
L 181.354232 448.196367 
L 181.791536 447.80851 
L 182.22884 447.772392 
L 183.540752 452.757964 
L 183.978056 454.5714 
L 184.415361 455.621925 
L 184.852665 456.230468 
L 185.289969 455.671868 
L 185.727273 455.350481 
L 186.164577 456.716935 
L 186.601881 459.802551 
L 187.039185 461.161353 
L 187.476489 461.85667 
L 187.913793 461.839937 
L 188.351097 462.8143 
L 188.788401 461.981041 
L 189.663009 459.651653 
L 190.537618 455.045317 
L 191.84953 447.941809 
L 192.286834 448.22366 
L 192.724138 447.846974 
L 193.161442 448.142548 
L 193.598746 446.601933 
L 194.03605 444.416863 
L 194.910658 437.555006 
L 195.347962 435.201488 
L 197.097179 429.564777 
L 197.534483 430.775588 
L 197.971787 431.534213 
L 198.409091 432.038127 
L 198.846395 431.883963 
L 199.283699 430.697588 
L 199.721003 430.150007 
L 200.158307 430.250555 
L 200.595611 429.580286 
L 201.032915 427.023274 
L 201.470219 423.503531 
L 201.907524 422.07836 
L 202.344828 421.854359 
L 202.782132 422.202221 
L 203.219436 421.509608 
L 203.65674 419.534204 
L 204.094044 416.550819 
L 206.717868 392.669968 
L 207.155172 389.716528 
L 208.029781 386.07476 
L 208.904389 385.425355 
L 209.341693 385.509324 
L 209.778997 385.303688 
L 211.090909 389.19879 
L 212.402821 398.313463 
L 212.840125 400.731361 
L 213.277429 402.314725 
L 213.714734 402.445116 
L 214.152038 402.438943 
L 214.589342 399.298589 
L 215.901254 387.963696 
L 216.338558 386.294578 
L 217.213166 384.391052 
L 218.087774 383.077755 
L 218.525078 382.709283 
L 218.962382 382.927417 
L 219.836991 385.175031 
L 220.274295 387.141712 
L 220.711599 388.313038 
L 221.586207 394.170383 
L 223.335423 402.829657 
L 223.772727 404.617331 
L 224.210031 405.419726 
L 224.647335 405.673315 
L 225.084639 404.999832 
L 225.521944 403.623227 
L 225.959248 401.378113 
L 226.833856 394.527173 
L 227.27116 391.840025 
L 229.020376 384.491702 
L 229.45768 384.485631 
L 229.894984 385.935238 
L 230.332288 388.292633 
L 230.769592 392.252216 
L 231.206897 394.872944 
L 232.081505 403.413407 
L 232.518809 407.945416 
L 233.393417 413.189678 
L 233.830721 414.511545 
L 234.268025 410.58961 
L 234.705329 408.573701 
L 236.017241 405.486146 
L 236.454545 405.491451 
L 236.89185 404.974937 
L 237.329154 403.958081 
L 238.203762 399.390363 
L 238.641066 398.233218 
L 240.390282 390.474184 
L 240.827586 387.226242 
L 242.139498 375.489106 
L 244.326019 363.293969 
L 245.200627 360.16897 
L 245.637931 360.131118 
L 246.075235 359.936806 
L 246.512539 359.338364 
L 246.949843 359.926042 
L 247.824451 360.210903 
L 248.261755 361.686118 
L 248.69906 364.871823 
L 249.136364 364.754798 
L 249.573668 365.101283 
L 250.010972 364.434227 
L 250.448276 362.796687 
L 250.88558 360.637225 
L 252.634796 348.680679 
L 253.0721 346.817351 
L 253.509404 347.788755 
L 254.384013 348.994515 
L 255.695925 355.220434 
L 256.133229 356.859811 
L 256.570533 357.921407 
L 257.007837 357.349186 
L 257.445141 356.502409 
L 257.882445 356.733961 
L 258.319749 356.808543 
L 259.194357 353.571977 
L 259.631661 351.841591 
L 260.50627 350.371478 
L 260.943574 349.047978 
L 261.380878 348.083104 
L 261.818182 347.598168 
L 262.255486 346.110097 
L 263.130094 346.93203 
L 263.567398 348.214413 
L 264.004702 349.039713 
L 264.87931 352.521808 
L 265.316614 353.375166 
L 265.753918 353.207025 
L 266.191223 354.517159 
L 267.065831 358.644017 
L 267.503135 359.680922 
L 268.377743 360.362822 
L 268.815047 360.243399 
L 269.252351 360.55494 
L 269.689655 360.609626 
L 270.126959 361.703973 
L 270.564263 361.938279 
L 271.001567 362.407707 
L 271.438871 363.753959 
L 271.876176 364.732046 
L 272.31348 365.412263 
L 272.750784 365.727834 
L 273.188088 366.296228 
L 273.625392 367.231922 
L 274.062696 367.649214 
L 274.5 367.710941 
L 274.937304 368.362488 
L 275.811912 370.134246 
L 276.249216 370.240355 
L 276.68652 369.811074 
L 277.123824 369.962993 
L 277.561129 370.400691 
L 277.998433 369.345268 
L 278.873041 366.317756 
L 279.310345 365.82379 
L 279.747649 365.498884 
L 280.184953 364.800455 
L 281.059561 362.570645 
L 281.496865 362.520039 
L 281.934169 362.137896 
L 282.371473 361.932769 
L 283.246082 360.977333 
L 283.683386 360.779808 
L 284.557994 362.247677 
L 285.432602 364.182832 
L 285.869906 365.17663 
L 287.181818 367.275845 
L 287.619122 368.323514 
L 288.056426 368.998528 
L 289.805643 368.761518 
L 290.242947 367.330226 
L 290.680251 367.459137 
L 291.117555 367.150147 
L 291.554859 367.034805 
L 291.992163 367.113468 
L 292.429467 368.203836 
L 292.866771 368.423246 
L 293.304075 368.826662 
L 293.741379 368.601539 
L 294.178683 368.137773 
L 295.490596 369.675888 
L 295.9279 370.316722 
L 296.365204 370.418648 
L 296.802508 370.204798 
L 297.239812 369.297978 
L 297.677116 368.794983 
L 298.11442 369.33833 
L 298.551724 370.410485 
L 299.863636 371.762859 
L 300.738245 373.080748 
L 301.175549 373.467024 
L 301.612853 374.513468 
L 302.050157 374.877808 
L 303.362069 372.207801 
L 303.799373 370.677542 
L 305.111285 368.400341 
L 305.548589 367.903569 
L 306.423197 366.410958 
L 306.860502 366.294137 
L 307.297806 366.52727 
L 307.73511 367.146933 
L 308.172414 367.407256 
L 308.609718 366.895742 
L 309.047022 365.804456 
L 309.484326 365.713805 
L 309.92163 364.796425 
L 310.358934 364.231907 
L 312.545455 357.870444 
L 312.982759 356.400994 
L 313.420063 355.360671 
L 313.857367 355.100348 
L 314.731975 355.61574 
L 315.169279 356.247035 
L 315.606583 357.076467 
L 316.043887 358.778489 
L 316.481191 359.950835 
L 317.355799 363.335086 
L 317.793103 365.938775 
L 318.230408 367.097246 
L 319.54232 373.825752 
L 319.979624 374.846843 
L 320.416928 375.301426 
L 320.854232 375.236486 
L 321.291536 374.396596 
L 322.166144 371.965996 
L 322.603448 372.2455 
L 323.040752 372.022315 
L 323.478056 371.531359 
L 324.352665 371.012192 
L 324.789969 371.541868 
L 325.227273 372.267997 
L 326.976489 377.055431 
L 327.413793 377.876548 
L 327.851097 376.711395 
L 328.288401 376.867089 
L 328.725705 377.761257 
L 329.163009 377.762788 
L 330.037618 378.959927 
L 330.474922 377.670657 
L 330.912226 377.325396 
L 331.34953 376.34328 
L 331.786834 374.666918 
L 332.224138 375.617916 
L 332.661442 375.97088 
L 333.098746 375.405341 
L 333.53605 374.111429 
L 333.973354 371.782959 
L 334.410658 368.15976 
L 334.847962 365.887762 
L 335.285266 364.293787 
L 337.034483 356.229231 
L 337.471787 356.164392 
L 337.909091 355.592273 
L 338.346395 355.240177 
L 339.221003 356.316107 
L 339.658307 357.156915 
L 340.095611 358.546733 
L 340.532915 359.201546 
L 340.970219 359.119618 
L 341.407524 359.608839 
L 342.719436 362.647778 
L 343.15674 363.122512 
L 343.594044 363.307589 
L 344.031348 363.771916 
L 344.905956 365.058227 
L 345.34326 364.884526 
L 345.780564 365.519187 
L 346.217868 365.21688 
L 346.655172 365.648405 
L 347.092476 364.991654 
L 347.529781 363.720392 
L 348.404389 358.54658 
L 349.278997 353.84286 
L 351.028213 341.718734 
L 351.465517 338.926344 
L 352.340125 335.05175 
L 352.777429 333.474303 
L 354.089342 325.659817 
L 354.96395 323.258907 
L 355.401254 322.636539 
L 355.838558 322.772644 
L 356.713166 326.386354 
L 357.587774 330.468473 
L 358.462382 335.449453 
L 358.899687 339.078467 
L 359.336991 341.617216 
L 359.774295 342.84124 
L 360.211599 345.528949 
L 360.648903 347.038853 
L 361.086207 347.13231 
L 361.523511 347.399826 
L 362.398119 349.362018 
L 363.272727 354.110478 
L 363.710031 355.109275 
L 364.147335 356.836039 
L 364.584639 359.78351 
L 365.021944 361.850739 
L 366.77116 374.996109 
L 367.645768 383.504382 
L 370.269592 415.579671 
L 371.581505 426.763104 
L 372.018809 429.00179 
L 372.456113 428.664028 
L 372.893417 428.676475 
L 373.330721 428.946185 
L 373.768025 430.802268 
L 374.205329 431.283481 
L 374.642633 432.677839 
L 375.079937 434.730835 
L 376.829154 451.190312 
L 377.266458 457.847399 
L 377.703762 457.21034 
L 378.57837 452.466012 
L 379.452978 445.633234 
L 379.890282 445.342609 
L 381.202194 460.220609 
L 382.076803 478.06873 
L 382.514107 481.824462 
L 383.388715 484.220526 
L 383.826019 484.89656 
L 384.700627 481.032933 
L 385.137931 480.085353 
L 385.575235 479.702802 
L 386.012539 479.499257 
L 386.449843 480.919989 
L 386.887147 481.086498 
L 387.324451 480.691448 
L 387.761755 479.403147 
L 388.19906 480.217428 
L 389.073668 477.219708 
L 389.510972 478.369609 
L 390.38558 484.105082 
L 390.822884 486.053704 
L 391.697492 491.858148 
L 392.134796 492.460875 
L 392.5721 491.11345 
L 393.009404 488.875835 
L 393.446708 487.992277 
L 393.884013 487.746697 
L 394.321317 488.804977 
L 394.758621 490.509753 
L 395.195925 490.680088 
L 395.633229 490.381607 
L 396.070533 489.802448 
L 396.945141 487.395875 
L 397.382445 487.532184 
L 398.257053 488.710754 
L 399.131661 490.189081 
L 399.568966 491.745153 
L 400.00627 494.688747 
L 401.755486 510.907183 
L 402.19279 513.75783 
L 402.630094 512.808873 
L 403.067398 512.414639 
L 403.942006 517.075865 
L 404.816614 523.382182 
L 405.253918 526.183652 
L 406.565831 531.161367 
L 408.315047 514.186448 
L 409.189655 511.782273 
L 410.501567 516.666429 
L 411.376176 514.022184 
L 411.81348 515.6912 
L 412.250784 514.530382 
L 413.125392 514.849728 
L 414.437304 522.07822 
L 415.311912 525.65668 
L 417.498433 535.481515 
L 417.935737 536.194483 
L 418.373041 537.512168 
L 418.810345 539.392432 
L 419.247649 540.215385 
L 419.684953 540.566972 
L 420.559561 538.668649 
L 420.996865 539.242859 
L 421.871473 541.495523 
L 422.308777 543.557702 
L 422.746082 544.654701 
L 423.183386 545.077707 
L 423.62069 545.315941 
L 424.057994 546.478289 
L 424.495298 546.870636 
L 424.932602 546.961797 
L 425.369906 547.312568 
L 425.80721 547.364959 
L 426.244514 547.565392 
L 426.681818 548.550518 
L 427.119122 548.633568 
L 427.556426 548.961688 
L 429.305643 555.886342 
L 429.742947 558.221394 
L 430.617555 560.956036 
L 431.054859 561.567486 
L 431.929467 565.670112 
L 432.366771 566.934487 
L 432.804075 567.290716 
L 433.241379 567.502627 
L 433.678683 566.858732 
L 434.115987 565.969052 
L 434.553292 565.710464 
L 435.4279 562.730548 
L 435.865204 560.871557 
L 436.302508 559.637127 
L 436.739812 559.293906 
L 437.177116 559.520611 
L 437.61442 560.493137 
L 438.051724 562.800692 
L 438.489028 565.880186 
L 438.926332 567.317651 
L 439.363636 569.233472 
L 440.675549 576.958174 
L 441.550157 581.559918 
L 441.987461 584.862496 
L 442.424765 586.700571 
L 443.299373 589.322932 
L 443.736677 589.975908 
L 444.173981 590.214346 
L 444.611285 589.842558 
L 445.485893 591.904839 
L 445.923197 592.379878 
L 446.360502 592.684736 
L 447.672414 595.606395 
L 448.547022 595.8583 
L 448.984326 596.564636 
L 449.42163 597.751828 
L 449.858934 598.596258 
L 450.296238 599.74473 
L 450.733542 600.503406 
L 451.170846 600.261958 
L 451.60815 600.199568 
L 452.045455 600.629308 
L 452.482759 600.201711 
L 453.357367 597.646127 
L 453.794671 596.981725 
L 454.231975 597.075794 
L 454.669279 596.809859 
L 455.106583 596.10337 
L 455.981191 593.791836 
L 456.418495 592.984595 
L 456.855799 592.705958 
L 457.293103 593.816629 
L 457.730408 595.624249 
L 458.167712 596.057815 
L 458.605016 596.308037 
L 459.04232 595.187878 
L 459.479624 594.379923 
L 460.354232 592.061145 
L 460.791536 591.112799 
L 461.22884 591.298438 
L 461.666144 590.614497 
L 462.978056 586.78255 
L 463.415361 585.260964 
L 463.852665 582.759047 
L 464.727273 573.825421 
L 465.164577 571.549036 
L 465.601881 570.759955 
L 466.039185 570.881164 
L 466.476489 571.549189 
L 466.913793 571.773598 
L 467.351097 571.198469 
L 467.788401 571.103074 
L 468.663009 573.147143 
L 469.100313 573.267382 
L 469.537618 573.214685 
L 469.974922 572.84203 
L 470.412226 571.239484 
L 470.84953 570.310626 
L 471.724138 568.016335 
L 472.161442 567.486507 
L 472.598746 566.716556 
L 473.03605 566.558669 
L 473.473354 566.268809 
L 473.910658 566.216877 
L 474.785266 565.566605 
L 475.222571 564.542045 
L 476.097179 561.980799 
L 476.534483 560.917775 
L 476.971787 560.266636 
L 477.846395 560.245465 
L 478.721003 561.082856 
L 479.595611 560.649443 
L 480.032915 558.321789 
L 480.907524 551.30985 
L 481.344828 549.315213 
L 481.782132 550.858583 
L 483.094044 561.833727 
L 483.968652 564.913986 
L 484.84326 567.77351 
L 485.280564 568.487498 
L 485.717868 568.298747 
L 486.155172 567.325456 
L 486.592476 567.281993 
L 487.029781 566.29804 
L 487.467085 565.009943 
L 487.904389 562.783653 
L 490.090909 555.469611 
L 490.528213 554.441073 
L 490.965517 553.035134 
L 491.402821 552.257583 
L 491.840125 551.804683 
L 493.152038 549.101364 
L 494.026646 546.084514 
L 494.901254 543.575455 
L 495.338558 541.234537 
L 496.213166 538.104335 
L 496.65047 537.313061 
L 497.087774 537.147981 
L 497.525078 537.244346 
L 497.962382 537.652864 
L 498.399687 536.991777 
L 498.836991 537.534716 
L 499.711599 535.160639 
L 500.148903 535.003007 
L 500.586207 534.571277 
L 501.023511 533.234973 
L 501.460815 532.683515 
L 501.898119 531.866479 
L 504.084639 529.246873 
L 504.521944 528.407034 
L 504.959248 526.940185 
L 505.396552 526.900905 
L 505.833856 525.766002 
L 506.708464 522.510561 
L 507.583072 518.525471 
L 508.020376 516.788352 
L 509.769592 505.484475 
L 510.206897 504.550261 
L 510.644201 503.157382 
L 512.393417 496.451985 
L 512.830721 495.677852 
L 513.268025 495.629593 
L 513.705329 496.332766 
L 514.142633 495.199853 
L 514.579937 495.563479 
L 515.017241 495.318511 
L 515.454545 495.339733 
L 515.89185 495.022427 
L 516.766458 494.713794 
L 517.203762 493.443655 
L 518.952978 483.064912 
L 519.390282 481.874813 
L 519.827586 481.167712 
L 520.26489 479.617609 
L 522.451411 467.987704 
L 523.326019 461.883911 
L 524.200627 457.973199 
L 524.637931 456.239344 
L 525.949843 452.294198 
L 526.387147 450.601052 
L 526.824451 449.871097 
L 527.261755 449.396771 
L 527.69906 449.422737 
L 528.136364 449.82998 
L 528.573668 449.538794 
L 529.448276 454.774638 
L 530.322884 457.731496 
L 531.197492 462.709211 
L 531.634796 464.766085 
L 533.384013 468.479986 
L 533.821317 468.627467 
L 534.258621 466.678079 
L 534.695925 466.303536 
L 535.133229 466.430254 
L 535.570533 466.347918 
L 536.007837 467.080884 
L 536.445141 467.508277 
L 537.319749 471.658243 
L 538.194357 475.239662 
L 539.068966 480.838775 
L 539.50627 482.802906 
L 539.943574 484.001626 
L 540.818182 485.327779 
L 541.69279 482.48759 
L 542.130094 480.129072 
L 543.004702 473.872188 
L 543.442006 471.866889 
L 543.87931 472.205518 
L 544.316614 473.529631 
L 544.753918 474.316466 
L 545.191223 475.540592 
L 545.628527 476.255957 
L 546.503135 480.908562 
L 546.940439 482.525187 
L 547.377743 483.001451 
L 547.815047 481.506494 
L 548.252351 479.11747 
L 548.689655 477.689188 
L 549.564263 473.679917 
L 550.001567 472.209804 
L 550.876176 467.51047 
L 551.31348 466.645226 
L 551.750784 466.140292 
L 552.625392 463.392744 
L 553.062696 463.117576 
L 553.5 463.039576 
L 553.937304 462.586217 
L 554.374608 462.522399 
L 554.811912 462.068275 
L 555.249216 461.407341 
L 555.68652 461.587521 
L 556.123824 462.477201 
L 556.561129 462.771244 
L 556.998433 463.389581 
L 557.435737 464.274057 
L 558.747649 460.010687 
L 559.184953 459.995485 
L 559.622257 460.240759 
L 560.059561 459.979365 
L 560.934169 458.631582 
L 561.371473 459.057292 
L 561.808777 458.536442 
L 562.246082 458.334988 
L 562.683386 457.926164 
L 563.557994 456.175475 
L 563.995298 454.727859 
L 564.432602 451.921747 
L 565.30721 444.632702 
L 565.744514 442.300456 
L 566.181818 441.178205 
L 566.619122 440.854676 
L 567.056426 440.26154 
L 567.49373 440.088858 
L 567.931034 440.865134 
L 568.368339 442.142722 
L 568.805643 444.324528 
L 569.242947 447.389687 
L 570.992163 465.390187 
L 572.304075 472.4864 
L 572.741379 472.614648 
L 573.178683 472.862932 
L 573.615987 471.362874 
L 574.490596 466.629208 
L 575.365204 461.670317 
L 575.802508 460.147557 
L 576.239812 459.201201 
L 576.677116 458.544961 
L 577.11442 457.170447 
L 577.551724 456.480231 
L 577.989028 456.259546 
L 578.426332 456.165885 
L 578.863636 456.479415 
L 579.30094 457.183813 
L 579.738245 456.597359 
L 580.175549 455.265237 
L 581.487461 449.708771 
L 582.799373 441.545606 
L 583.673981 437.270197 
L 584.111285 436.8879 
L 584.548589 435.96853 
L 584.985893 435.452578 
L 585.423197 435.373302 
L 585.860502 434.910047 
L 586.297806 435.249747 
L 586.73511 436.464843 
L 587.609718 439.742577 
L 588.484326 442.275765 
L 589.358934 444.363247 
L 589.796238 444.749625 
L 590.233542 444.598522 
L 590.670846 445.022855 
L 591.10815 445.020967 
L 591.545455 444.690959 
L 591.982759 443.579523 
L 592.420063 440.987159 
L 592.857367 436.985438 
L 593.731975 431.861007 
L 594.169279 429.990028 
L 595.043887 424.818307 
L 595.481191 422.086114 
L 595.918495 420.604166 
L 596.355799 419.524562 
L 597.230408 416.857666 
L 597.667712 416.445833 
L 598.105016 414.753962 
L 598.54232 415.19365 
L 598.979624 415.046475 
L 599.416928 415.482898 
L 599.854232 415.426221 
L 600.291536 416.349825 
L 600.72884 416.886183 
L 601.166144 417.028869 
L 601.603448 415.689146 
L 602.478056 414.827422 
L 603.789969 409.279629 
L 604.227273 410.393819 
L 604.664577 411.915814 
L 605.101881 411.812001 
L 606.851097 402.115261 
L 607.288401 398.334583 
L 608.163009 394.12692 
L 609.037618 388.584941 
L 610.34953 381.37507 
L 611.661442 379.187448 
L 612.098746 379.916026 
L 612.53605 380.39734 
L 612.973354 379.910568 
L 613.410658 378.270374 
L 613.847962 375.765039 
L 614.722571 368.359581 
L 615.159875 363.868587 
L 615.597179 361.187 
L 616.034483 359.250825 
L 617.783699 348.736896 
L 618.221003 349.341511 
L 619.532915 354.971793 
L 619.970219 354.398399 
L 620.407524 354.235155 
L 620.844828 353.407917 
L 621.719436 349.947146 
L 622.15674 349.594029 
L 622.594044 347.305961 
L 623.905956 347.607044 
L 624.34326 347.052219 
L 625.655172 341.345313 
L 626.529781 339.078365 
L 627.841693 336.1664 
L 628.278997 334.347454 
L 629.153605 327.552324 
L 629.590909 325.041837 
L 630.028213 323.518873 
L 630.465517 321.560966 
L 631.340125 314.538825 
L 631.777429 312.538474 
L 632.652038 307.999375 
L 633.089342 307.270083 
L 633.526646 307.493931 
L 633.96395 308.120176 
L 634.838558 312.075372 
L 635.713166 317.373657 
L 636.15047 321.218562 
L 637.025078 331.350296 
L 638.336991 341.798213 
L 638.774295 343.464729 
L 639.211599 340.473999 
L 639.648903 340.012835 
L 640.086207 339.279665 
L 640.523511 338.311731 
L 641.398119 332.079996 
L 643.147335 317.227554 
L 643.584639 313.363979 
L 644.896552 298.923829 
L 646.208464 287.957817 
L 646.645768 285.983382 
L 647.083072 284.948721 
L 647.520376 285.370809 
L 647.95768 287.450944 
L 648.394984 292.420395 
L 649.269592 304.571865 
L 650.144201 310.833392 
L 650.581505 313.502022 
L 651.018809 314.639628 
L 651.456113 315.20435 
L 651.893417 315.162518 
L 652.330721 315.289135 
L 652.768025 315.864365 
L 653.205329 316.649977 
L 653.642633 315.742034 
L 654.954545 307.496176 
L 656.703762 289.612804 
L 657.57837 284.581728 
L 658.015674 282.986529 
L 658.452978 282.421705 
L 659.76489 278.947364 
L 660.639498 277.725484 
L 661.076803 276.874983 
L 661.514107 275.571276 
L 662.388715 274.29879 
L 662.826019 274.247266 
L 663.263323 275.055731 
L 664.137931 275.703606 
L 664.575235 274.906669 
L 665.449843 272.203962 
L 665.887147 271.064621 
L 666.324451 268.726458 
L 668.948276 259.030994 
L 669.822884 257.822683 
L 670.260188 257.735041 
L 670.697492 258.215386 
L 671.134796 259.265759 
L 671.5721 259.434002 
L 672.009404 259.084354 
L 672.446708 258.184166 
L 672.884013 257.821458 
L 673.321317 258.236506 
L 673.758621 257.755549 
L 674.195925 257.90808 
L 674.633229 257.50048 
L 675.070533 256.392156 
L 675.945141 251.210896 
L 676.382445 247.91847 
L 678.568966 225.278476 
L 679.443574 219.002156 
L 679.880878 217.285238 
L 680.318182 216.575025 
L 680.755486 213.484817 
L 682.067398 206.605718 
L 682.504702 205.81123 
L 683.37931 203.306048 
L 683.816614 200.801683 
L 684.691223 193.932582 
L 685.128527 191.262524 
L 686.003135 187.899495 
L 686.440439 186.907686 
L 687.752351 179.299295 
L 688.189655 176.160625 
L 689.064263 167.336576 
L 689.938871 162.419772 
L 690.376176 162.216227 
L 691.250784 163.787245 
L 691.688088 163.187018 
L 692.125392 163.068972 
L 692.562696 163.81918 
L 693 163.452289 
L 693.437304 162.408446 
L 693.874608 160.624292 
L 694.311912 160.067223 
L 696.061129 167.439828 
L 696.498433 167.720302 
L 696.935737 167.089364 
L 697.373041 165.12656 
L 697.810345 165.743622 
L 698.247649 168.374298 
L 699.559561 183.694434 
L 699.996865 186.044636 
L 700.434169 184.110808 
L 702.183386 166.98397 
L 702.62069 166.082557 
L 703.495298 165.622719 
L 703.932602 166.147651 
L 704.369906 167.366164 
L 704.80721 169.686371 
L 705.244514 169.937256 
L 705.681818 171.407574 
L 706.119122 174.205779 
L 706.99373 185.581227 
L 707.431034 189.129232 
L 707.868339 190.997763 
L 708.305643 191.876627 
L 708.742947 191.86622 
L 709.617555 194.603107 
L 710.054859 195.75265 
L 710.492163 196.478065 
L 710.929467 199.563069 
L 711.804075 208.495471 
L 712.241379 210.482557 
L 712.678683 209.695313 
L 713.115987 207.570388 
L 713.990596 200.729957 
L 715.302508 193.301747 
L 716.177116 190.780852 
L 716.61442 190.512112 
L 717.489028 187.453839 
L 718.363636 182.96708 
L 719.238245 176.888795 
L 719.675549 175.804957 
L 720.112853 176.154503 
L 720.550157 175.984015 
L 720.987461 174.510433 
L 721.424765 173.852662 
L 721.862069 173.472099 
L 722.299373 173.367827 
L 723.611285 180.003489 
L 724.048589 183.909201 
L 724.923197 192.977809 
L 725.360502 195.248941 
L 725.797806 193.710877 
L 726.23511 190.527008 
L 726.672414 189.083728 
L 727.109718 188.703369 
L 727.984326 192.388193 
L 728.42163 193.25614 
L 728.858934 193.510903 
L 729.296238 195.831823 
L 729.733542 195.804888 
L 730.170846 194.566989 
L 730.60815 195.07478 
L 731.920063 201.871542 
L 732.357367 202.813052 
L 733.231975 202.088249 
L 733.669279 203.814961 
L 734.981191 232.282355 
L 735.418495 234.311681 
L 735.855799 235.034953 
L 736.293103 235.005263 
L 736.730408 234.602153 
L 737.167712 233.07674 
L 737.605016 231.004257 
L 738.04232 230.26619 
L 738.479624 228.693233 
L 739.354232 221.681294 
L 739.791536 219.035927 
L 740.22884 215.513531 
L 741.540752 200.422038 
L 742.415361 188.880285 
L 743.289969 180.88674 
L 744.164577 175.579476 
L 744.601881 176.377025 
L 745.913793 180.093681 
L 746.351097 183.66454 
L 746.788401 183.223271 
L 747.225705 180.666259 
L 747.663009 178.968726 
L 748.100313 178.985663 
L 748.537618 177.490348 
L 749.412226 167.626845 
L 750.286834 161.363991 
L 751.161442 159.141323 
L 751.598746 157.128424 
L 752.910658 147.015565 
L 754.222571 140.334297 
L 754.659875 140.493358 
L 755.097179 141.974899 
L 756.409091 142.993541 
L 756.846395 143.44491 
L 757.283699 143.63162 
L 758.595611 143.038229 
L 759.032915 141.839508 
L 759.470219 138.984678 
L 759.907524 137.398049 
L 760.344828 131.584729 
L 760.782132 127.970611 
L 761.219436 127.176939 
L 761.65674 126.732099 
L 762.094044 127.51414 
L 762.531348 128.681232 
L 763.405956 133.541616 
L 763.84326 134.909906 
L 764.280564 135.364336 
L 764.717868 135.607263 
L 765.155172 135.452692 
L 765.592476 135.562881 
L 766.467085 128.885797 
L 766.904389 129.145253 
L 767.341693 130.134613 
L 767.778997 129.938006 
L 768.216301 130.027178 
L 769.090909 132.395337 
L 769.528213 133.176969 
L 770.402821 133.358986 
L 770.840125 132.892619 
L 771.277429 132.120067 
L 771.714734 131.92193 
L 772.152038 132.813344 
L 773.026646 137.413251 
L 773.46395 138.594321 
L 773.901254 139.304636 
L 774.338558 139.728254 
L 775.213166 140.940238 
L 776.525078 146.043855 
L 776.962382 146.37922 
L 777.836991 148.231528 
L 778.274295 148.684734 
L 778.711599 149.308326 
L 779.148903 150.140462 
L 779.586207 150.166275 
L 780.023511 149.280268 
L 780.898119 146.633778 
L 781.335423 145.629828 
L 781.772727 143.973106 
L 782.210031 143.785478 
L 782.647335 145.403531 
L 783.084639 147.885859 
L 783.521944 149.460857 
L 783.959248 150.136381 
L 784.396552 150.17311 
L 784.833856 150.872203 
L 785.27116 150.869652 
L 785.708464 150.228919 
L 786.145768 150.658149 
L 787.020376 157.247184 
L 787.45768 160.976389 
L 787.894984 163.501161 
L 788.769592 165.319902 
L 790.518809 173.394252 
L 791.393417 179.057796 
L 792.705329 183.945319 
L 793.142633 184.583909 
L 793.579937 183.775341 
L 794.017241 184.705424 
L 794.454545 183.963072 
L 794.89185 182.537034 
L 795.329154 181.633989 
L 795.766458 182.268702 
L 796.203762 183.375088 
L 796.641066 184.786229 
L 797.07837 187.299676 
L 797.952978 194.937247 
L 798.390282 198.889688 
L 798.827586 200.093 
L 799.702194 195.995986 
L 800.576803 189.275641 
L 801.888715 178.009974 
L 802.763323 170.936717 
L 806.261755 143.658964 
L 807.573668 137.725353 
L 808.010972 138.488621 
L 808.448276 137.97379 
L 808.88558 135.416676 
L 810.197492 125.521748 
L 810.634796 123.87227 
L 811.0721 122.930965 
L 811.509404 122.45113 
L 811.946708 122.390321 
L 812.384013 123.093596 
L 812.821317 124.575545 
L 813.258621 125.561845 
L 813.695925 124.554426 
L 814.133229 122.515713 
L 814.570533 121.59012 
L 815.007837 121.858146 
L 815.445141 122.59509 
L 816.757053 130.118799 
L 817.631661 133.092797 
L 818.50627 137.887067 
L 819.380878 141.614436 
L 819.818182 144.580068 
L 821.130094 156.851317 
L 822.004702 167.519614 
L 822.87931 181.617563 
L 823.316614 190.582001 
L 824.191223 202.493808 
L 825.503135 213.919964 
L 826.377743 217.444502 
L 826.815047 218.16502 
L 827.252351 217.218512 
L 827.689655 214.11249 
L 829.001567 200.753934 
L 829.438871 197.146345 
L 830.750784 190.017075 
L 831.188088 188.974252 
L 831.625392 187.348139 
L 833.374608 184.538405 
L 833.811912 184.753989 
L 834.249216 184.835815 
L 834.68652 184.41689 
L 835.123824 184.466986 
L 835.998433 187.230603 
L 836.435737 188.051006 
L 837.310345 190.966542 
L 838.184953 192.781917 
L 838.622257 192.433595 
L 839.059561 189.554482 
L 840.371473 177.281906 
L 842.557994 161.527133 
L 843.432602 156.699705 
L 844.30721 154.235435 
L 845.181818 149.349341 
L 845.619122 148.329883 
L 846.49373 149.37546 
L 846.931034 149.45851 
L 847.805643 147.592428 
L 848.242947 145.13173 
L 849.554859 140.033928 
L 850.866771 130.121247 
L 851.304075 127.438946 
L 851.741379 125.740291 
L 852.178683 126.018009 
L 852.615987 125.50175 
L 853.9279 116.712698 
L 854.365204 116.774118 
L 854.802508 117.127745 
L 855.677116 118.752839 
L 856.11442 119.045351 
L 856.551724 118.75845 
L 856.989028 117.890707 
L 857.426332 117.30211 
L 857.863636 117.926926 
L 858.30094 119.272974 
L 859.612853 122.004862 
L 860.050157 123.220315 
L 860.487461 124.836225 
L 860.924765 127.652591 
L 861.799373 136.558771 
L 862.236677 138.609625 
L 863.111285 138.08398 
L 863.985893 139.218321 
L 864.423197 138.425262 
L 864.860502 139.7859 
L 865.73511 145.843882 
L 867.047022 158.504978 
L 868.358934 171.26096 
L 868.796238 174.151806 
L 870.10815 178.38217 
L 870.545455 177.618189 
L 871.420063 173.827563 
L 872.294671 171.448283 
L 872.731975 168.812404 
L 873.169279 165.256747 
L 874.043887 162.395795 
L 874.481191 161.137389 
L 874.918495 160.387691 
L 875.355799 160.377692 
L 875.793103 160.709179 
L 876.667712 163.189671 
L 877.105016 164.96352 
L 878.854232 164.730183 
L 879.72884 165.733317 
L 880.603448 168.583556 
L 881.040752 170.485144 
L 882.352665 179.190738 
L 882.789969 181.253529 
L 883.227273 182.604168 
L 884.539185 188.641439 
L 884.976489 189.775678 
L 885.413793 190.367641 
L 885.851097 191.444031 
L 886.288401 191.959678 
L 886.725705 192.915063 
L 887.600313 199.20077 
L 888.037618 201.819304 
L 888.912226 197.663114 
L 889.34953 196.486636 
L 889.786834 196.144946 
L 890.661442 198.94917 
L 891.53605 203.122705 
L 892.410658 209.554924 
L 893.722571 217.522758 
L 894.597179 221.267981 
L 895.034483 221.267267 
L 895.471787 221.718432 
L 895.909091 223.056216 
L 897.221003 228.989113 
L 897.658307 230.23497 
L 898.095611 232.263174 
L 898.532915 233.634218 
L 899.407524 234.992 
L 899.844828 236.398346 
L 902.031348 248.259956 
L 902.468652 250.13318 
L 903.34326 255.350762 
L 904.217868 260.20482 
L 905.092476 263.27503 
L 905.529781 263.986059 
L 905.967085 263.885868 
L 906.404389 264.166648 
L 906.841693 263.61672 
L 907.278997 263.343898 
L 908.153605 262.155074 
L 909.465517 257.290507 
L 909.902821 256.252174 
L 910.340125 256.235237 
L 910.777429 255.827842 
L 911.214734 255.684901 
L 911.652038 256.071075 
L 912.089342 256.622126 
L 912.526646 257.596284 
L 912.96395 257.818091 
L 913.401254 257.765853 
L 914.275862 259.057725 
L 914.713166 259.782732 
L 916.462382 266.525012 
L 916.899687 267.544266 
L 917.336991 269.01489 
L 917.774295 269.736938 
L 918.211599 269.463505 
L 918.648903 268.809101 
L 919.086207 267.728426 
L 919.523511 266.158733 
L 919.960815 266.055176 
L 920.398119 265.746951 
L 920.835423 265.747767 
L 921.272727 265.90795 
L 921.710031 265.573096 
L 922.147335 265.795618 
L 922.584639 266.929653 
L 923.021944 269.40994 
L 923.459248 270.642126 
L 924.333856 273.898332 
L 924.77116 274.725775 
L 925.645768 277.36849 
L 926.083072 278.351728 
L 926.520376 278.870028 
L 926.95768 279.114485 
L 927.394984 279.500761 
L 927.832288 279.683492 
L 928.269592 279.317622 
L 928.706897 278.288675 
L 929.144201 276.099574 
L 930.456113 271.265411 
L 931.330721 266.959955 
L 932.642633 262.293321 
L 933.079937 261.905515 
L 933.517241 261.946224 
L 933.954545 261.553418 
L 933.954545 261.553418 
" style="fill:none;stroke:#0000ff;stroke-linecap:square;stroke-width:1.5;"/>
   </g>
   <g id="patch_3">
    <path d="M 135 640.8 
L 135 86.4 
" style="fill:none;stroke:#000000;stroke-linecap:square;stroke-linejoin:miter;stroke-width:0.8;"/>
   </g>
   <g id="patch_4">
    <path d="M 972 640.8 
L 972 86.4 
" style="fill:none;stroke:#000000;stroke-linecap:square;stroke-linejoin:miter;stroke-width:0.8;"/>
   </g>
   <g id="patch_5">
    <path d="M 135 640.8 
L 972 640.8 
" style="fill:none;stroke:#000000;stroke-linecap:square;stroke-linejoin:miter;stroke-width:0.8;"/>
   </g>
   <g id="patch_6">
    <path d="M 135 86.4 
L 972 86.4 
" style="fill:none;stroke:#000000;stroke-linecap:square;stroke-linejoin:miter;stroke-width:0.8;"/>
   </g>
   <g id="text_14">
    <!-- Evaluation Preds N:10 -->
    <defs>
     <path d="M 9.8125 72.90625 
L 55.90625 72.90625 
L 55.90625 64.59375 
L 19.671875 64.59375 
L 19.671875 43.015625 
L 54.390625 43.015625 
L 54.390625 34.71875 
L 19.671875 34.71875 
L 19.671875 8.296875 
L 56.78125 8.296875 
L 56.78125 0 
L 9.8125 0 
z
" id="DejaVuSans-69"/>
     <path d="M 2.984375 54.6875 
L 12.5 54.6875 
L 29.59375 8.796875 
L 46.6875 54.6875 
L 56.203125 54.6875 
L 35.6875 0 
L 23.484375 0 
z
" id="DejaVuSans-118"/>
     <path d="M 34.28125 27.484375 
Q 23.390625 27.484375 19.1875 25 
Q 14.984375 22.515625 14.984375 16.5 
Q 14.984375 11.71875 18.140625 8.90625 
Q 21.296875 6.109375 26.703125 6.109375 
Q 34.1875 6.109375 38.703125 11.40625 
Q 43.21875 16.703125 43.21875 25.484375 
L 43.21875 27.484375 
z
M 52.203125 31.203125 
L 52.203125 0 
L 43.21875 0 
L 43.21875 8.296875 
Q 40.140625 3.328125 35.546875 0.953125 
Q 30.953125 -1.421875 24.3125 -1.421875 
Q 15.921875 -1.421875 10.953125 3.296875 
Q 6 8.015625 6 15.921875 
Q 6 25.140625 12.171875 29.828125 
Q 18.359375 34.515625 30.609375 34.515625 
L 43.21875 34.515625 
L 43.21875 35.40625 
Q 43.21875 41.609375 39.140625 45 
Q 35.0625 48.390625 27.6875 48.390625 
Q 23 48.390625 18.546875 47.265625 
Q 14.109375 46.140625 10.015625 43.890625 
L 10.015625 52.203125 
Q 14.9375 54.109375 19.578125 55.046875 
Q 24.21875 56 28.609375 56 
Q 40.484375 56 46.34375 49.84375 
Q 52.203125 43.703125 52.203125 31.203125 
z
" id="DejaVuSans-97"/>
     <path d="M 9.421875 75.984375 
L 18.40625 75.984375 
L 18.40625 0 
L 9.421875 0 
z
" id="DejaVuSans-108"/>
     <path d="M 8.5 21.578125 
L 8.5 54.6875 
L 17.484375 54.6875 
L 17.484375 21.921875 
Q 17.484375 14.15625 20.5 10.265625 
Q 23.53125 6.390625 29.59375 6.390625 
Q 36.859375 6.390625 41.078125 11.03125 
Q 45.3125 15.671875 45.3125 23.6875 
L 45.3125 54.6875 
L 54.296875 54.6875 
L 54.296875 0 
L 45.3125 0 
L 45.3125 8.40625 
Q 42.046875 3.421875 37.71875 1 
Q 33.40625 -1.421875 27.6875 -1.421875 
Q 18.265625 -1.421875 13.375 4.4375 
Q 8.5 10.296875 8.5 21.578125 
z
M 31.109375 56 
z
" id="DejaVuSans-117"/>
     <path d="M 18.3125 70.21875 
L 18.3125 54.6875 
L 36.8125 54.6875 
L 36.8125 47.703125 
L 18.3125 47.703125 
L 18.3125 18.015625 
Q 18.3125 11.328125 20.140625 9.421875 
Q 21.96875 7.515625 27.59375 7.515625 
L 36.8125 7.515625 
L 36.8125 0 
L 27.59375 0 
Q 17.1875 0 13.234375 3.875 
Q 9.28125 7.765625 9.28125 18.015625 
L 9.28125 47.703125 
L 2.6875 47.703125 
L 2.6875 54.6875 
L 9.28125 54.6875 
L 9.28125 70.21875 
z
" id="DejaVuSans-116"/>
     <path d="M 9.421875 54.6875 
L 18.40625 54.6875 
L 18.40625 0 
L 9.421875 0 
z
M 9.421875 75.984375 
L 18.40625 75.984375 
L 18.40625 64.59375 
L 9.421875 64.59375 
z
" id="DejaVuSans-105"/>
     <path d="M 30.609375 48.390625 
Q 23.390625 48.390625 19.1875 42.75 
Q 14.984375 37.109375 14.984375 27.296875 
Q 14.984375 17.484375 19.15625 11.84375 
Q 23.34375 6.203125 30.609375 6.203125 
Q 37.796875 6.203125 41.984375 11.859375 
Q 46.1875 17.53125 46.1875 27.296875 
Q 46.1875 37.015625 41.984375 42.703125 
Q 37.796875 48.390625 30.609375 48.390625 
z
M 30.609375 56 
Q 42.328125 56 49.015625 48.375 
Q 55.71875 40.765625 55.71875 27.296875 
Q 55.71875 13.875 49.015625 6.21875 
Q 42.328125 -1.421875 30.609375 -1.421875 
Q 18.84375 -1.421875 12.171875 6.21875 
Q 5.515625 13.875 5.515625 27.296875 
Q 5.515625 40.765625 12.171875 48.375 
Q 18.84375 56 30.609375 56 
z
" id="DejaVuSans-111"/>
     <path d="M 54.890625 33.015625 
L 54.890625 0 
L 45.90625 0 
L 45.90625 32.71875 
Q 45.90625 40.484375 42.875 44.328125 
Q 39.84375 48.1875 33.796875 48.1875 
Q 26.515625 48.1875 22.3125 43.546875 
Q 18.109375 38.921875 18.109375 30.90625 
L 18.109375 0 
L 9.078125 0 
L 9.078125 54.6875 
L 18.109375 54.6875 
L 18.109375 46.1875 
Q 21.34375 51.125 25.703125 53.5625 
Q 30.078125 56 35.796875 56 
Q 45.21875 56 50.046875 50.171875 
Q 54.890625 44.34375 54.890625 33.015625 
z
" id="DejaVuSans-110"/>
     <path id="DejaVuSans-32"/>
     <path d="M 19.671875 64.796875 
L 19.671875 37.40625 
L 32.078125 37.40625 
Q 38.96875 37.40625 42.71875 40.96875 
Q 46.484375 44.53125 46.484375 51.125 
Q 46.484375 57.671875 42.71875 61.234375 
Q 38.96875 64.796875 32.078125 64.796875 
z
M 9.8125 72.90625 
L 32.078125 72.90625 
Q 44.34375 72.90625 50.609375 67.359375 
Q 56.890625 61.8125 56.890625 51.125 
Q 56.890625 40.328125 50.609375 34.8125 
Q 44.34375 29.296875 32.078125 29.296875 
L 19.671875 29.296875 
L 19.671875 0 
L 9.8125 0 
z
" id="DejaVuSans-80"/>
     <path d="M 41.109375 46.296875 
Q 39.59375 47.171875 37.8125 47.578125 
Q 36.03125 48 33.890625 48 
Q 26.265625 48 22.1875 43.046875 
Q 18.109375 38.09375 18.109375 28.8125 
L 18.109375 0 
L 9.078125 0 
L 9.078125 54.6875 
L 18.109375 54.6875 
L 18.109375 46.1875 
Q 20.953125 51.171875 25.484375 53.578125 
Q 30.03125 56 36.53125 56 
Q 37.453125 56 38.578125 55.875 
Q 39.703125 55.765625 41.0625 55.515625 
z
" id="DejaVuSans-114"/>
     <path d="M 56.203125 29.59375 
L 56.203125 25.203125 
L 14.890625 25.203125 
Q 15.484375 15.921875 20.484375 11.0625 
Q 25.484375 6.203125 34.421875 6.203125 
Q 39.59375 6.203125 44.453125 7.46875 
Q 49.3125 8.734375 54.109375 11.28125 
L 54.109375 2.78125 
Q 49.265625 0.734375 44.1875 -0.34375 
Q 39.109375 -1.421875 33.890625 -1.421875 
Q 20.796875 -1.421875 13.15625 6.1875 
Q 5.515625 13.8125 5.515625 26.8125 
Q 5.515625 40.234375 12.765625 48.109375 
Q 20.015625 56 32.328125 56 
Q 43.359375 56 49.78125 48.890625 
Q 56.203125 41.796875 56.203125 29.59375 
z
M 47.21875 32.234375 
Q 47.125 39.59375 43.09375 43.984375 
Q 39.0625 48.390625 32.421875 48.390625 
Q 24.90625 48.390625 20.390625 44.140625 
Q 15.875 39.890625 15.1875 32.171875 
z
" id="DejaVuSans-101"/>
     <path d="M 45.40625 46.390625 
L 45.40625 75.984375 
L 54.390625 75.984375 
L 54.390625 0 
L 45.40625 0 
L 45.40625 8.203125 
Q 42.578125 3.328125 38.25 0.953125 
Q 33.9375 -1.421875 27.875 -1.421875 
Q 17.96875 -1.421875 11.734375 6.484375 
Q 5.515625 14.40625 5.515625 27.296875 
Q 5.515625 40.1875 11.734375 48.09375 
Q 17.96875 56 27.875 56 
Q 33.9375 56 38.25 53.625 
Q 42.578125 51.265625 45.40625 46.390625 
z
M 14.796875 27.296875 
Q 14.796875 17.390625 18.875 11.75 
Q 22.953125 6.109375 30.078125 6.109375 
Q 37.203125 6.109375 41.296875 11.75 
Q 45.40625 17.390625 45.40625 27.296875 
Q 45.40625 37.203125 41.296875 42.84375 
Q 37.203125 48.484375 30.078125 48.484375 
Q 22.953125 48.484375 18.875 42.84375 
Q 14.796875 37.203125 14.796875 27.296875 
z
" id="DejaVuSans-100"/>
     <path d="M 44.28125 53.078125 
L 44.28125 44.578125 
Q 40.484375 46.53125 36.375 47.5 
Q 32.28125 48.484375 27.875 48.484375 
Q 21.1875 48.484375 17.84375 46.4375 
Q 14.5 44.390625 14.5 40.28125 
Q 14.5 37.15625 16.890625 35.375 
Q 19.28125 33.59375 26.515625 31.984375 
L 29.59375 31.296875 
Q 39.15625 29.25 43.1875 25.515625 
Q 47.21875 21.78125 47.21875 15.09375 
Q 47.21875 7.46875 41.1875 3.015625 
Q 35.15625 -1.421875 24.609375 -1.421875 
Q 20.21875 -1.421875 15.453125 -0.5625 
Q 10.6875 0.296875 5.421875 2 
L 5.421875 11.28125 
Q 10.40625 8.6875 15.234375 7.390625 
Q 20.0625 6.109375 24.8125 6.109375 
Q 31.15625 6.109375 34.5625 8.28125 
Q 37.984375 10.453125 37.984375 14.40625 
Q 37.984375 18.0625 35.515625 20.015625 
Q 33.0625 21.96875 24.703125 23.78125 
L 21.578125 24.515625 
Q 13.234375 26.265625 9.515625 29.90625 
Q 5.8125 33.546875 5.8125 39.890625 
Q 5.8125 47.609375 11.28125 51.796875 
Q 16.75 56 26.8125 56 
Q 31.78125 56 36.171875 55.265625 
Q 40.578125 54.546875 44.28125 53.078125 
z
" id="DejaVuSans-115"/>
     <path d="M 9.8125 72.90625 
L 23.09375 72.90625 
L 55.421875 11.921875 
L 55.421875 72.90625 
L 64.984375 72.90625 
L 64.984375 0 
L 51.703125 0 
L 19.390625 60.984375 
L 19.390625 0 
L 9.8125 0 
z
" id="DejaVuSans-78"/>
     <path d="M 11.71875 12.40625 
L 22.015625 12.40625 
L 22.015625 0 
L 11.71875 0 
z
M 11.71875 51.703125 
L 22.015625 51.703125 
L 22.015625 39.3125 
L 11.71875 39.3125 
z
" id="DejaVuSans-58"/>
    </defs>
    <g transform="translate(374.421656 80.4)scale(0.324 -0.324)">
     <use xlink:href="#DejaVuSans-69"/>
     <use x="63.183594" xlink:href="#DejaVuSans-118"/>
     <use x="122.363281" xlink:href="#DejaVuSans-97"/>
     <use x="183.642578" xlink:href="#DejaVuSans-108"/>
     <use x="211.425781" xlink:href="#DejaVuSans-117"/>
     <use x="274.804688" xlink:href="#DejaVuSans-97"/>
     <use x="336.083984" xlink:href="#DejaVuSans-116"/>
     <use x="375.292969" xlink:href="#DejaVuSans-105"/>
     <use x="403.076172" xlink:href="#DejaVuSans-111"/>
     <use x="464.257812" xlink:href="#DejaVuSans-110"/>
     <use x="527.636719" xlink:href="#DejaVuSans-32"/>
     <use x="559.423828" xlink:href="#DejaVuSans-80"/>
     <use x="619.710938" xlink:href="#DejaVuSans-114"/>
     <use x="660.792969" xlink:href="#DejaVuSans-101"/>
     <use x="722.316406" xlink:href="#DejaVuSans-100"/>
     <use x="785.792969" xlink:href="#DejaVuSans-115"/>
     <use x="837.892578" xlink:href="#DejaVuSans-32"/>
     <use x="869.679688" xlink:href="#DejaVuSans-78"/>
     <use x="944.484375" xlink:href="#DejaVuSans-58"/>
     <use x="978.175781" xlink:href="#DejaVuSans-49"/>
     <use x="1041.798828" xlink:href="#DejaVuSans-48"/>
    </g>
   </g>
   <g id="legend_1">
    <g id="patch_7">
     <path d="M 153.9 187.261875 
L 301.42125 187.261875 
Q 306.82125 187.261875 306.82125 181.861875 
L 306.82125 105.3 
Q 306.82125 99.9 301.42125 99.9 
L 153.9 99.9 
Q 148.5 99.9 148.5 105.3 
L 148.5 181.861875 
Q 148.5 187.261875 153.9 187.261875 
z
" style="fill:#ffffff;opacity:0.8;stroke:#cccccc;stroke-linejoin:miter;"/>
    </g>
    <g id="line2d_29">
     <path d="M 159.3 121.765781 
L 213.3 121.765781 
" style="fill:none;stroke:#ff0000;stroke-linecap:square;stroke-width:1.5;"/>
    </g>
    <g id="line2d_30"/>
    <g id="text_15">
     <!-- Real -->
     <defs>
      <path d="M 44.390625 34.1875 
Q 47.5625 33.109375 50.5625 29.59375 
Q 53.5625 26.078125 56.59375 19.921875 
L 66.609375 0 
L 56 0 
L 46.6875 18.703125 
Q 43.0625 26.03125 39.671875 28.421875 
Q 36.28125 30.8125 30.421875 30.8125 
L 19.671875 30.8125 
L 19.671875 0 
L 9.8125 0 
L 9.8125 72.90625 
L 32.078125 72.90625 
Q 44.578125 72.90625 50.734375 67.671875 
Q 56.890625 62.453125 56.890625 51.90625 
Q 56.890625 45.015625 53.6875 40.46875 
Q 50.484375 35.9375 44.390625 34.1875 
z
M 19.671875 64.796875 
L 19.671875 38.921875 
L 32.078125 38.921875 
Q 39.203125 38.921875 42.84375 42.21875 
Q 46.484375 45.515625 46.484375 51.90625 
Q 46.484375 58.296875 42.84375 61.546875 
Q 39.203125 64.796875 32.078125 64.796875 
z
" id="DejaVuSans-82"/>
     </defs>
     <g transform="translate(234.9 131.215781)scale(0.27 -0.27)">
      <use xlink:href="#DejaVuSans-82"/>
      <use x="69.419922" xlink:href="#DejaVuSans-101"/>
      <use x="130.943359" xlink:href="#DejaVuSans-97"/>
      <use x="192.222656" xlink:href="#DejaVuSans-108"/>
     </g>
    </g>
    <g id="line2d_31">
     <path d="M 159.3 161.396719 
L 213.3 161.396719 
" style="fill:none;stroke:#0000ff;stroke-linecap:square;stroke-width:1.5;"/>
    </g>
    <g id="line2d_32"/>
    <g id="text_16">
     <!-- Pred -->
     <g transform="translate(234.9 170.846719)scale(0.27 -0.27)">
      <use xlink:href="#DejaVuSans-80"/>
      <use x="60.287109" xlink:href="#DejaVuSans-114"/>
      <use x="101.369141" xlink:href="#DejaVuSans-101"/>
      <use x="162.892578" xlink:href="#DejaVuSans-100"/>
     </g>
    </g>
   </g>
  </g>
 </g>
 <defs>
  <clipPath id="pfc174c8d4c">
   <rect height="554.4" width="837" x="135" y="86.4"/>
  </clipPath>
 </defs>
</svg>
