<?xml version="1.0" encoding="utf-8" standalone="no"?>
<!DOCTYPE svg PUBLIC "-//W3C//DTD SVG 1.1//EN"
  "http://www.w3.org/Graphics/SVG/1.1/DTD/svg11.dtd">
<!-- Created with matplotlib (https://matplotlib.org/) -->
<svg height="720pt" version="1.1" viewBox="0 0 1080 720" width="1080pt" xmlns="http://www.w3.org/2000/svg" xmlns:xlink="http://www.w3.org/1999/xlink">
 <defs>
  <style type="text/css">
*{stroke-linecap:butt;stroke-linejoin:round;}
  </style>
 </defs>
 <g id="figure_1">
  <g id="patch_1">
   <path d="M 0 720 
L 1080 720 
L 1080 0 
L 0 0 
z
" style="fill:#ffffff;"/>
  </g>
  <g id="axes_1">
   <g id="patch_2">
    <path d="M 135 640.8 
L 972 640.8 
L 972 86.4 
L 135 86.4 
z
" style="fill:#ffffff;"/>
   </g>
   <g id="matplotlib.axis_1">
    <g id="xtick_1">
     <g id="line2d_1">
      <path clip-path="url(#p1d00fe3724)" d="M 173.045455 640.8 
L 173.045455 86.4 
" style="fill:none;stroke:#b0b0b0;stroke-linecap:square;stroke-width:0.8;"/>
     </g>
     <g id="line2d_2">
      <defs>
       <path d="M 0 0 
L 0 3.5 
" id="mcdb399f302" style="stroke:#000000;stroke-width:0.8;"/>
      </defs>
      <g>
       <use style="stroke:#000000;stroke-width:0.8;" x="173.045455" xlink:href="#mcdb399f302" y="640.8"/>
      </g>
     </g>
     <g id="text_1">
      <!-- 0 -->
      <defs>
       <path d="M 31.78125 66.40625 
Q 24.171875 66.40625 20.328125 58.90625 
Q 16.5 51.421875 16.5 36.375 
Q 16.5 21.390625 20.328125 13.890625 
Q 24.171875 6.390625 31.78125 6.390625 
Q 39.453125 6.390625 43.28125 13.890625 
Q 47.125 21.390625 47.125 36.375 
Q 47.125 51.421875 43.28125 58.90625 
Q 39.453125 66.40625 31.78125 66.40625 
z
M 31.78125 74.21875 
Q 44.046875 74.21875 50.515625 64.515625 
Q 56.984375 54.828125 56.984375 36.375 
Q 56.984375 17.96875 50.515625 8.265625 
Q 44.046875 -1.421875 31.78125 -1.421875 
Q 19.53125 -1.421875 13.0625 8.265625 
Q 6.59375 17.96875 6.59375 36.375 
Q 6.59375 54.828125 13.0625 64.515625 
Q 19.53125 74.21875 31.78125 74.21875 
z
" id="DejaVuSans-48"/>
      </defs>
      <g transform="translate(164.45608 668.315781)scale(0.27 -0.27)">
       <use xlink:href="#DejaVuSans-48"/>
      </g>
     </g>
    </g>
    <g id="xtick_2">
     <g id="line2d_3">
      <path clip-path="url(#p1d00fe3724)" d="M 282.371473 640.8 
L 282.371473 86.4 
" style="fill:none;stroke:#b0b0b0;stroke-linecap:square;stroke-width:0.8;"/>
     </g>
     <g id="line2d_4">
      <g>
       <use style="stroke:#000000;stroke-width:0.8;" x="282.371473" xlink:href="#mcdb399f302" y="640.8"/>
      </g>
     </g>
     <g id="text_2">
      <!-- 250 -->
      <defs>
       <path d="M 19.1875 8.296875 
L 53.609375 8.296875 
L 53.609375 0 
L 7.328125 0 
L 7.328125 8.296875 
Q 12.9375 14.109375 22.625 23.890625 
Q 32.328125 33.6875 34.8125 36.53125 
Q 39.546875 41.84375 41.421875 45.53125 
Q 43.3125 49.21875 43.3125 52.78125 
Q 43.3125 58.59375 39.234375 62.25 
Q 35.15625 65.921875 28.609375 65.921875 
Q 23.96875 65.921875 18.8125 64.3125 
Q 13.671875 62.703125 7.8125 59.421875 
L 7.8125 69.390625 
Q 13.765625 71.78125 18.9375 73 
Q 24.125 74.21875 28.421875 74.21875 
Q 39.75 74.21875 46.484375 68.546875 
Q 53.21875 62.890625 53.21875 53.421875 
Q 53.21875 48.921875 51.53125 44.890625 
Q 49.859375 40.875 45.40625 35.40625 
Q 44.1875 33.984375 37.640625 27.21875 
Q 31.109375 20.453125 19.1875 8.296875 
z
" id="DejaVuSans-50"/>
       <path d="M 10.796875 72.90625 
L 49.515625 72.90625 
L 49.515625 64.59375 
L 19.828125 64.59375 
L 19.828125 46.734375 
Q 21.96875 47.46875 24.109375 47.828125 
Q 26.265625 48.1875 28.421875 48.1875 
Q 40.625 48.1875 47.75 41.5 
Q 54.890625 34.8125 54.890625 23.390625 
Q 54.890625 11.625 47.5625 5.09375 
Q 40.234375 -1.421875 26.90625 -1.421875 
Q 22.3125 -1.421875 17.546875 -0.640625 
Q 12.796875 0.140625 7.71875 1.703125 
L 7.71875 11.625 
Q 12.109375 9.234375 16.796875 8.0625 
Q 21.484375 6.890625 26.703125 6.890625 
Q 35.15625 6.890625 40.078125 11.328125 
Q 45.015625 15.765625 45.015625 23.390625 
Q 45.015625 31 40.078125 35.4375 
Q 35.15625 39.890625 26.703125 39.890625 
Q 22.75 39.890625 18.8125 39.015625 
Q 14.890625 38.140625 10.796875 36.28125 
z
" id="DejaVuSans-53"/>
      </defs>
      <g transform="translate(256.603348 668.315781)scale(0.27 -0.27)">
       <use xlink:href="#DejaVuSans-50"/>
       <use x="63.623047" xlink:href="#DejaVuSans-53"/>
       <use x="127.246094" xlink:href="#DejaVuSans-48"/>
      </g>
     </g>
    </g>
    <g id="xtick_3">
     <g id="line2d_5">
      <path clip-path="url(#p1d00fe3724)" d="M 391.697492 640.8 
L 391.697492 86.4 
" style="fill:none;stroke:#b0b0b0;stroke-linecap:square;stroke-width:0.8;"/>
     </g>
     <g id="line2d_6">
      <g>
       <use style="stroke:#000000;stroke-width:0.8;" x="391.697492" xlink:href="#mcdb399f302" y="640.8"/>
      </g>
     </g>
     <g id="text_3">
      <!-- 500 -->
      <g transform="translate(365.929367 668.315781)scale(0.27 -0.27)">
       <use xlink:href="#DejaVuSans-53"/>
       <use x="63.623047" xlink:href="#DejaVuSans-48"/>
       <use x="127.246094" xlink:href="#DejaVuSans-48"/>
      </g>
     </g>
    </g>
    <g id="xtick_4">
     <g id="line2d_7">
      <path clip-path="url(#p1d00fe3724)" d="M 501.023511 640.8 
L 501.023511 86.4 
" style="fill:none;stroke:#b0b0b0;stroke-linecap:square;stroke-width:0.8;"/>
     </g>
     <g id="line2d_8">
      <g>
       <use style="stroke:#000000;stroke-width:0.8;" x="501.023511" xlink:href="#mcdb399f302" y="640.8"/>
      </g>
     </g>
     <g id="text_4">
      <!-- 750 -->
      <defs>
       <path d="M 8.203125 72.90625 
L 55.078125 72.90625 
L 55.078125 68.703125 
L 28.609375 0 
L 18.3125 0 
L 43.21875 64.59375 
L 8.203125 64.59375 
z
" id="DejaVuSans-55"/>
      </defs>
      <g transform="translate(475.255386 668.315781)scale(0.27 -0.27)">
       <use xlink:href="#DejaVuSans-55"/>
       <use x="63.623047" xlink:href="#DejaVuSans-53"/>
       <use x="127.246094" xlink:href="#DejaVuSans-48"/>
      </g>
     </g>
    </g>
    <g id="xtick_5">
     <g id="line2d_9">
      <path clip-path="url(#p1d00fe3724)" d="M 610.34953 640.8 
L 610.34953 86.4 
" style="fill:none;stroke:#b0b0b0;stroke-linecap:square;stroke-width:0.8;"/>
     </g>
     <g id="line2d_10">
      <g>
       <use style="stroke:#000000;stroke-width:0.8;" x="610.34953" xlink:href="#mcdb399f302" y="640.8"/>
      </g>
     </g>
     <g id="text_5">
      <!-- 1000 -->
      <defs>
       <path d="M 12.40625 8.296875 
L 28.515625 8.296875 
L 28.515625 63.921875 
L 10.984375 60.40625 
L 10.984375 69.390625 
L 28.421875 72.90625 
L 38.28125 72.90625 
L 38.28125 8.296875 
L 54.390625 8.296875 
L 54.390625 0 
L 12.40625 0 
z
" id="DejaVuSans-49"/>
      </defs>
      <g transform="translate(575.99203 668.315781)scale(0.27 -0.27)">
       <use xlink:href="#DejaVuSans-49"/>
       <use x="63.623047" xlink:href="#DejaVuSans-48"/>
       <use x="127.246094" xlink:href="#DejaVuSans-48"/>
       <use x="190.869141" xlink:href="#DejaVuSans-48"/>
      </g>
     </g>
    </g>
    <g id="xtick_6">
     <g id="line2d_11">
      <path clip-path="url(#p1d00fe3724)" d="M 719.675549 640.8 
L 719.675549 86.4 
" style="fill:none;stroke:#b0b0b0;stroke-linecap:square;stroke-width:0.8;"/>
     </g>
     <g id="line2d_12">
      <g>
       <use style="stroke:#000000;stroke-width:0.8;" x="719.675549" xlink:href="#mcdb399f302" y="640.8"/>
      </g>
     </g>
     <g id="text_6">
      <!-- 1250 -->
      <g transform="translate(685.318049 668.315781)scale(0.27 -0.27)">
       <use xlink:href="#DejaVuSans-49"/>
       <use x="63.623047" xlink:href="#DejaVuSans-50"/>
       <use x="127.246094" xlink:href="#DejaVuSans-53"/>
       <use x="190.869141" xlink:href="#DejaVuSans-48"/>
      </g>
     </g>
    </g>
    <g id="xtick_7">
     <g id="line2d_13">
      <path clip-path="url(#p1d00fe3724)" d="M 829.001567 640.8 
L 829.001567 86.4 
" style="fill:none;stroke:#b0b0b0;stroke-linecap:square;stroke-width:0.8;"/>
     </g>
     <g id="line2d_14">
      <g>
       <use style="stroke:#000000;stroke-width:0.8;" x="829.001567" xlink:href="#mcdb399f302" y="640.8"/>
      </g>
     </g>
     <g id="text_7">
      <!-- 1500 -->
      <g transform="translate(794.644067 668.315781)scale(0.27 -0.27)">
       <use xlink:href="#DejaVuSans-49"/>
       <use x="63.623047" xlink:href="#DejaVuSans-53"/>
       <use x="127.246094" xlink:href="#DejaVuSans-48"/>
       <use x="190.869141" xlink:href="#DejaVuSans-48"/>
      </g>
     </g>
    </g>
    <g id="xtick_8">
     <g id="line2d_15">
      <path clip-path="url(#p1d00fe3724)" d="M 938.327586 640.8 
L 938.327586 86.4 
" style="fill:none;stroke:#b0b0b0;stroke-linecap:square;stroke-width:0.8;"/>
     </g>
     <g id="line2d_16">
      <g>
       <use style="stroke:#000000;stroke-width:0.8;" x="938.327586" xlink:href="#mcdb399f302" y="640.8"/>
      </g>
     </g>
     <g id="text_8">
      <!-- 1750 -->
      <g transform="translate(903.970086 668.315781)scale(0.27 -0.27)">
       <use xlink:href="#DejaVuSans-49"/>
       <use x="63.623047" xlink:href="#DejaVuSans-55"/>
       <use x="127.246094" xlink:href="#DejaVuSans-53"/>
       <use x="190.869141" xlink:href="#DejaVuSans-48"/>
      </g>
     </g>
    </g>
   </g>
   <g id="matplotlib.axis_2">
    <g id="ytick_1">
     <g id="line2d_17">
      <path clip-path="url(#p1d00fe3724)" d="M 135 568.956416 
L 972 568.956416 
" style="fill:none;stroke:#b0b0b0;stroke-linecap:square;stroke-width:0.8;"/>
     </g>
     <g id="line2d_18">
      <defs>
       <path d="M 0 0 
L -3.5 0 
" id="m15ecf1b7a8" style="stroke:#000000;stroke-width:0.8;"/>
      </defs>
      <g>
       <use style="stroke:#000000;stroke-width:0.8;" x="135" xlink:href="#m15ecf1b7a8" y="568.956416"/>
      </g>
     </g>
     <g id="text_9">
      <!-- 3.0 -->
      <defs>
       <path d="M 40.578125 39.3125 
Q 47.65625 37.796875 51.625 33 
Q 55.609375 28.21875 55.609375 21.1875 
Q 55.609375 10.40625 48.1875 4.484375 
Q 40.765625 -1.421875 27.09375 -1.421875 
Q 22.515625 -1.421875 17.65625 -0.515625 
Q 12.796875 0.390625 7.625 2.203125 
L 7.625 11.71875 
Q 11.71875 9.328125 16.59375 8.109375 
Q 21.484375 6.890625 26.8125 6.890625 
Q 36.078125 6.890625 40.9375 10.546875 
Q 45.796875 14.203125 45.796875 21.1875 
Q 45.796875 27.640625 41.28125 31.265625 
Q 36.765625 34.90625 28.71875 34.90625 
L 20.21875 34.90625 
L 20.21875 43.015625 
L 29.109375 43.015625 
Q 36.375 43.015625 40.234375 45.921875 
Q 44.09375 48.828125 44.09375 54.296875 
Q 44.09375 59.90625 40.109375 62.90625 
Q 36.140625 65.921875 28.71875 65.921875 
Q 24.65625 65.921875 20.015625 65.03125 
Q 15.375 64.15625 9.8125 62.3125 
L 9.8125 71.09375 
Q 15.4375 72.65625 20.34375 73.4375 
Q 25.25 74.21875 29.59375 74.21875 
Q 40.828125 74.21875 47.359375 69.109375 
Q 53.90625 64.015625 53.90625 55.328125 
Q 53.90625 49.265625 50.4375 45.09375 
Q 46.96875 40.921875 40.578125 39.3125 
z
" id="DejaVuSans-51"/>
       <path d="M 10.6875 12.40625 
L 21 12.40625 
L 21 0 
L 10.6875 0 
z
" id="DejaVuSans-46"/>
      </defs>
      <g transform="translate(85.061562 579.214307)scale(0.27 -0.27)">
       <use xlink:href="#DejaVuSans-51"/>
       <use x="63.623047" xlink:href="#DejaVuSans-46"/>
       <use x="95.410156" xlink:href="#DejaVuSans-48"/>
      </g>
     </g>
    </g>
    <g id="ytick_2">
     <g id="line2d_19">
      <path clip-path="url(#p1d00fe3724)" d="M 135 461.972879 
L 972 461.972879 
" style="fill:none;stroke:#b0b0b0;stroke-linecap:square;stroke-width:0.8;"/>
     </g>
     <g id="line2d_20">
      <g>
       <use style="stroke:#000000;stroke-width:0.8;" x="135" xlink:href="#m15ecf1b7a8" y="461.972879"/>
      </g>
     </g>
     <g id="text_10">
      <!-- 3.5 -->
      <g transform="translate(85.061562 472.23077)scale(0.27 -0.27)">
       <use xlink:href="#DejaVuSans-51"/>
       <use x="63.623047" xlink:href="#DejaVuSans-46"/>
       <use x="95.410156" xlink:href="#DejaVuSans-53"/>
      </g>
     </g>
    </g>
    <g id="ytick_3">
     <g id="line2d_21">
      <path clip-path="url(#p1d00fe3724)" d="M 135 354.989342 
L 972 354.989342 
" style="fill:none;stroke:#b0b0b0;stroke-linecap:square;stroke-width:0.8;"/>
     </g>
     <g id="line2d_22">
      <g>
       <use style="stroke:#000000;stroke-width:0.8;" x="135" xlink:href="#m15ecf1b7a8" y="354.989342"/>
      </g>
     </g>
     <g id="text_11">
      <!-- 4.0 -->
      <defs>
       <path d="M 37.796875 64.3125 
L 12.890625 25.390625 
L 37.796875 25.390625 
z
M 35.203125 72.90625 
L 47.609375 72.90625 
L 47.609375 25.390625 
L 58.015625 25.390625 
L 58.015625 17.1875 
L 47.609375 17.1875 
L 47.609375 0 
L 37.796875 0 
L 37.796875 17.1875 
L 4.890625 17.1875 
L 4.890625 26.703125 
z
" id="DejaVuSans-52"/>
      </defs>
      <g transform="translate(85.061562 365.247233)scale(0.27 -0.27)">
       <use xlink:href="#DejaVuSans-52"/>
       <use x="63.623047" xlink:href="#DejaVuSans-46"/>
       <use x="95.410156" xlink:href="#DejaVuSans-48"/>
      </g>
     </g>
    </g>
    <g id="ytick_4">
     <g id="line2d_23">
      <path clip-path="url(#p1d00fe3724)" d="M 135 248.005805 
L 972 248.005805 
" style="fill:none;stroke:#b0b0b0;stroke-linecap:square;stroke-width:0.8;"/>
     </g>
     <g id="line2d_24">
      <g>
       <use style="stroke:#000000;stroke-width:0.8;" x="135" xlink:href="#m15ecf1b7a8" y="248.005805"/>
      </g>
     </g>
     <g id="text_12">
      <!-- 4.5 -->
      <g transform="translate(85.061562 258.263696)scale(0.27 -0.27)">
       <use xlink:href="#DejaVuSans-52"/>
       <use x="63.623047" xlink:href="#DejaVuSans-46"/>
       <use x="95.410156" xlink:href="#DejaVuSans-53"/>
      </g>
     </g>
    </g>
    <g id="ytick_5">
     <g id="line2d_25">
      <path clip-path="url(#p1d00fe3724)" d="M 135 141.022268 
L 972 141.022268 
" style="fill:none;stroke:#b0b0b0;stroke-linecap:square;stroke-width:0.8;"/>
     </g>
     <g id="line2d_26">
      <g>
       <use style="stroke:#000000;stroke-width:0.8;" x="135" xlink:href="#m15ecf1b7a8" y="141.022268"/>
      </g>
     </g>
     <g id="text_13">
      <!-- 5.0 -->
      <g transform="translate(85.061562 151.280159)scale(0.27 -0.27)">
       <use xlink:href="#DejaVuSans-53"/>
       <use x="63.623047" xlink:href="#DejaVuSans-46"/>
       <use x="95.410156" xlink:href="#DejaVuSans-48"/>
      </g>
     </g>
    </g>
   </g>
   <g id="line2d_27">
    <path clip-path="url(#p1d00fe3724)" d="M 173.045455 443.51091 
L 173.482759 446.892814 
L 173.920063 447.566705 
L 174.794671 449.915887 
L 175.231975 449.776875 
L 175.669279 450.295327 
L 176.106583 449.125736 
L 176.543887 449.018505 
L 176.981191 452.321592 
L 177.418495 458.720142 
L 177.855799 457.270077 
L 178.293103 457.722569 
L 178.730408 456.124717 
L 179.167712 460.168881 
L 179.605016 458.060637 
L 180.04232 456.898646 
L 180.479624 457.843267 
L 180.916928 456.138235 
L 181.354232 455.089444 
L 181.791536 453.18449 
L 182.22884 453.178623 
L 182.666144 449.92359 
L 183.103448 454.904723 
L 183.540752 452.070044 
L 183.978056 455.484596 
L 184.415361 449.598888 
L 184.852665 447.923393 
L 185.289969 441.988252 
L 185.727273 442.232302 
L 186.164577 440.889416 
L 186.601881 441.492093 
L 187.039185 439.936123 
L 187.913793 435.622351 
L 188.351097 439.976475 
L 188.788401 438.086722 
L 189.225705 437.621477 
L 189.663009 436.186767 
L 190.100313 433.574915 
L 190.537618 433.607717 
L 190.974922 434.580651 
L 191.412226 433.665261 
L 192.286834 425.888473 
L 192.724138 426.923236 
L 193.161442 428.286373 
L 193.598746 428.939655 
L 194.03605 426.984401 
L 195.347962 416.022725 
L 195.785266 414.886394 
L 196.222571 409.688759 
L 196.659875 410.369894 
L 197.097179 399.998242 
L 197.534483 405.407381 
L 197.971787 400.511593 
L 198.409091 400.846396 
L 198.846395 397.882193 
L 199.283699 398.927107 
L 199.721003 397.549685 
L 200.158307 396.985372 
L 200.595611 394.319598 
L 201.032915 396.186293 
L 201.470219 397.150707 
L 201.907524 393.946484 
L 202.344828 398.679691 
L 203.219436 398.115224 
L 204.094044 398.562359 
L 204.531348 395.839909 
L 204.968652 396.41259 
L 205.84326 387.959207 
L 206.717868 384.670505 
L 207.155172 385.723378 
L 207.592476 386.170615 
L 208.029781 384.961385 
L 209.341693 382.886147 
L 209.778997 382.625722 
L 210.216301 384.790438 
L 210.653605 382.860691 
L 211.090909 385.939574 
L 211.528213 383.608604 
L 211.965517 390.25105 
L 212.402821 388.776957 
L 212.840125 390.233348 
L 213.277429 389.530022 
L 213.714734 392.738377 
L 214.152038 392.590845 
L 214.589342 393.239944 
L 215.026646 392.323125 
L 215.46395 391.772789 
L 215.901254 390.668444 
L 216.338558 390.376237 
L 216.775862 388.778028 
L 217.213166 384.049005 
L 217.65047 384.202556 
L 218.525078 383.920195 
L 218.962382 383.995543 
L 219.399687 381.552954 
L 219.836991 380.776781 
L 221.148903 389.107985 
L 221.586207 390.621511 
L 222.023511 393.173932 
L 222.460815 397.179326 
L 222.898119 399.906724 
L 223.335423 404.58004 
L 223.772727 403.074319 
L 224.210031 404.67263 
L 224.647335 405.76616 
L 225.084639 401.41571 
L 225.521944 395.574944 
L 225.959248 401.872232 
L 226.396552 402.136687 
L 226.833856 401.794742 
L 227.27116 403.397083 
L 228.145768 400.62214 
L 228.583072 397.123874 
L 229.020376 396.157521 
L 229.45768 397.868164 
L 229.894984 394.788006 
L 230.332288 395.088579 
L 230.769592 393.379977 
L 231.644201 388.203869 
L 232.081505 384.486856 
L 232.956113 380.02693 
L 233.393417 380.498297 
L 234.705329 372.848942 
L 235.142633 372.67728 
L 236.017241 368.079821 
L 236.454545 369.579013 
L 236.89185 368.812736 
L 237.329154 363.96939 
L 237.766458 367.283803 
L 238.203762 365.948519 
L 238.641066 362.812909 
L 239.07837 365.017978 
L 239.515674 370.457724 
L 239.952978 364.224765 
L 240.390282 365.06639 
L 240.827586 363.639536 
L 241.26489 361.39937 
L 241.702194 359.955171 
L 242.139498 356.767987 
L 242.576803 354.96608 
L 243.014107 354.105274 
L 243.451411 353.529533 
L 243.888715 353.678902 
L 244.326019 357.113095 
L 244.763323 357.940282 
L 245.200627 357.938956 
L 245.637931 360.399144 
L 246.075235 360.395879 
L 246.512539 360.900252 
L 246.949843 361.233014 
L 247.387147 361.120274 
L 247.824451 357.398516 
L 248.261755 356.259584 
L 248.69906 356.694323 
L 249.136364 356.593112 
L 249.573668 351.996673 
L 250.448276 348.945134 
L 250.88558 349.348551 
L 251.322884 349.089911 
L 251.760188 347.124862 
L 252.197492 346.420567 
L 252.634796 346.947845 
L 253.0721 343.359233 
L 253.509404 346.489741 
L 253.946708 345.289286 
L 254.384013 347.612962 
L 254.821317 346.10673 
L 255.258621 348.363884 
L 255.695925 349.000127 
L 256.133229 347.933532 
L 256.570533 345.689642 
L 257.445141 350.891104 
L 257.882445 351.619171 
L 258.757053 349.714931 
L 259.194357 350.818766 
L 259.631661 349.223057 
L 260.068966 350.432184 
L 260.50627 349.610455 
L 260.943574 352.512626 
L 261.380878 351.627742 
L 261.818182 352.006876 
L 262.255486 354.991485 
L 262.69279 355.132538 
L 263.130094 355.527129 
L 263.567398 354.79549 
L 264.004702 355.166156 
L 264.442006 356.848537 
L 264.87931 356.625148 
L 265.316614 355.30073 
L 265.753918 357.173954 
L 266.191223 358.401293 
L 266.628527 359.052075 
L 267.503135 357.774641 
L 268.377743 361.548942 
L 268.815047 359.343568 
L 269.252351 358.710232 
L 269.689655 357.19589 
L 270.126959 359.301481 
L 270.564263 359.296482 
L 271.001567 358.468121 
L 271.438871 356.434714 
L 271.876176 355.658591 
L 272.31348 357.653636 
L 272.750784 356.000383 
L 273.188088 357.220223 
L 273.625392 355.8578 
L 274.062696 356.573931 
L 274.5 356.122663 
L 274.937304 358.237437 
L 275.374608 359.112884 
L 275.811912 359.231848 
L 276.249216 360.295739 
L 276.68652 359.901199 
L 277.123824 360.014398 
L 277.561129 359.394479 
L 277.998433 360.650743 
L 278.435737 361.55991 
L 278.873041 362.045 
L 279.310345 361.585315 
L 279.747649 361.56695 
L 280.184953 361.760904 
L 280.622257 362.653848 
L 281.059561 359.08401 
L 281.496865 361.674181 
L 281.934169 360.500202 
L 282.371473 360.744252 
L 282.808777 360.603505 
L 283.246082 363.453438 
L 283.683386 362.015667 
L 284.12069 363.078334 
L 284.557994 362.269256 
L 284.995298 361.942003 
L 285.432602 363.492412 
L 285.869906 363.286266 
L 286.30721 363.673358 
L 286.744514 364.304142 
L 287.181818 363.849406 
L 287.619122 363.110115 
L 288.056426 361.84375 
L 288.49373 362.221609 
L 288.931034 363.379825 
L 289.368339 365.788387 
L 289.805643 365.164846 
L 290.242947 364.943242 
L 290.680251 365.451033 
L 291.117555 366.33454 
L 291.554859 366.819782 
L 291.992163 366.408612 
L 292.429467 368.1668 
L 292.866771 368.818347 
L 293.304075 366.08544 
L 293.741379 366.008409 
L 294.178683 365.789203 
L 294.615987 363.501697 
L 295.053292 364.759491 
L 295.490596 363.222345 
L 295.9279 365.066594 
L 296.365204 363.78416 
L 296.802508 363.597041 
L 297.239812 361.796206 
L 297.677116 362.688997 
L 298.551724 363.919091 
L 298.989028 363.752429 
L 299.426332 361.791818 
L 299.863636 358.99494 
L 300.30094 361.307188 
L 300.738245 358.430167 
L 301.175549 359.185935 
L 301.612853 356.935414 
L 302.050157 356.321413 
L 302.487461 354.8312 
L 302.924765 354.973324 
L 303.362069 354.342284 
L 303.799373 352.860233 
L 304.236677 353.071226 
L 304.673981 352.86156 
L 305.111285 353.942949 
L 305.548589 353.075919 
L 305.985893 354.168123 
L 306.423197 354.817936 
L 306.860502 358.170915 
L 307.297806 359.019171 
L 308.172414 362.998803 
L 308.609718 366.421008 
L 309.047022 365.452972 
L 309.484326 368.651481 
L 309.92163 369.43092 
L 310.358934 372.731202 
L 310.796238 371.635325 
L 311.670846 372.776145 
L 312.10815 371.350158 
L 312.982759 370.311417 
L 313.420063 373.364282 
L 313.857367 373.111713 
L 314.294671 372.291004 
L 314.731975 372.322072 
L 315.169279 373.042743 
L 316.481191 377.009264 
L 316.918495 379.977293 
L 317.355799 380.685109 
L 317.793103 380.110541 
L 318.230408 382.149356 
L 318.667712 378.432292 
L 319.105016 379.133067 
L 319.54232 382.292909 
L 319.979624 380.741122 
L 320.854232 383.177027 
L 321.291536 380.660061 
L 321.72884 381.042766 
L 322.166144 380.694138 
L 322.603448 378.556459 
L 323.040752 383.50928 
L 323.478056 382.063347 
L 323.915361 383.01562 
L 324.352665 380.869932 
L 324.789969 379.515925 
L 325.227273 373.08539 
L 326.101881 375.626588 
L 327.851097 368.552515 
L 328.288401 370.74386 
L 328.725705 369.104483 
L 329.163009 368.443345 
L 329.600313 369.165036 
L 330.037618 368.971286 
L 330.474922 368.546444 
L 330.912226 370.016353 
L 331.34953 369.379549 
L 331.786834 367.14979 
L 332.224138 368.90303 
L 332.661442 369.409494 
L 333.098746 369.534223 
L 333.53605 370.063898 
L 334.410658 368.518641 
L 334.847962 368.222864 
L 335.285266 370.254741 
L 336.159875 368.412176 
L 336.597179 369.189217 
L 337.034483 369.280531 
L 337.471787 371.46499 
L 337.909091 370.562302 
L 338.346395 370.305397 
L 338.783699 366.849013 
L 339.221003 366.304085 
L 339.658307 365.529798 
L 340.970219 356.754264 
L 341.407524 356.723962 
L 341.844828 354.38636 
L 342.282132 351.105055 
L 342.719436 350.098044 
L 343.15674 348.245226 
L 343.594044 347.198016 
L 344.031348 344.971777 
L 344.468652 343.486971 
L 344.905956 340.661015 
L 345.34326 343.0959 
L 345.780564 342.238257 
L 346.217868 341.985127 
L 346.655172 342.424458 
L 347.092476 345.623018 
L 347.529781 346.654006 
L 347.967085 347.286678 
L 348.404389 348.154625 
L 349.278997 351.651412 
L 349.716301 355.740264 
L 350.153605 356.971787 
L 350.590909 356.347481 
L 351.028213 361.644848 
L 351.465517 361.493796 
L 351.902821 361.461148 
L 352.340125 362.505092 
L 352.777429 365.552703 
L 353.214734 366.264549 
L 353.652038 370.595869 
L 354.089342 373.437946 
L 354.526646 372.208515 
L 354.96395 374.707882 
L 355.401254 379.443894 
L 355.838558 378.969262 
L 356.275862 383.503974 
L 356.713166 384.051352 
L 358.462382 396.771675 
L 358.899687 401.730005 
L 359.336991 404.853831 
L 359.774295 409.926534 
L 360.211599 417.15676 
L 360.648903 418.803075 
L 361.086207 422.991353 
L 361.960815 425.557751 
L 362.398119 431.896411 
L 362.835423 432.427515 
L 363.272727 431.746328 
L 363.710031 431.685112 
L 364.147335 434.915607 
L 365.896552 441.744611 
L 366.333856 448.167545 
L 366.77116 452.83627 
L 367.208464 455.148365 
L 367.645768 456.005191 
L 368.083072 470.915993 
L 368.520376 457.525554 
L 368.95768 456.746115 
L 369.394984 457.968047 
L 369.832288 453.038896 
L 370.269592 453.350335 
L 370.706897 454.898908 
L 371.144201 464.163 
L 371.581505 470.361372 
L 372.018809 469.612899 
L 372.456113 482.518249 
L 372.893417 484.834782 
L 373.768025 478.060925 
L 374.205329 478.041642 
L 374.642633 479.292753 
L 375.079937 475.809689 
L 375.517241 474.643668 
L 375.954545 474.652647 
L 376.39185 475.226143 
L 376.829154 474.190666 
L 377.266458 476.328652 
L 377.703762 474.558577 
L 378.141066 473.692568 
L 378.57837 469.637079 
L 379.015674 473.937026 
L 379.452978 470.878192 
L 379.890282 468.907991 
L 380.327586 471.610086 
L 380.76489 475.500189 
L 381.202194 476.506588 
L 381.639498 475.601502 
L 382.076803 478.470718 
L 382.514107 479.545169 
L 382.951411 478.475258 
L 383.826019 471.865053 
L 384.263323 474.876444 
L 384.700627 474.772631 
L 385.137931 474.832776 
L 385.575235 478.664723 
L 386.012539 478.003126 
L 386.449843 477.713521 
L 386.887147 478.700025 
L 387.324451 476.85746 
L 387.761755 473.826377 
L 388.19906 476.047056 
L 388.636364 476.815476 
L 389.510972 480.06658 
L 389.948276 479.82452 
L 390.38558 480.925141 
L 391.260188 489.106264 
L 391.697492 491.038051 
L 392.134796 497.031144 
L 393.009404 501.352823 
L 393.446708 495.195007 
L 393.884013 497.69922 
L 394.321317 505.414331 
L 394.758621 509.006871 
L 395.195925 513.818639 
L 395.633229 515.686965 
L 396.070533 519.024079 
L 396.507837 519.320979 
L 397.382445 527.662948 
L 397.819749 517.055511 
L 398.257053 517.432145 
L 398.694357 512.653791 
L 399.131661 514.318114 
L 399.568966 518.472621 
L 400.00627 518.545877 
L 400.443574 523.541651 
L 400.880878 523.910786 
L 401.318182 527.329012 
L 401.755486 522.9805 
L 402.19279 520.899038 
L 402.630094 527.149444 
L 403.067398 522.288652 
L 403.504702 525.242142 
L 403.942006 524.678543 
L 404.37931 529.310793 
L 404.816614 532.110936 
L 405.691223 532.579549 
L 406.128527 534.40987 
L 406.565831 534.900367 
L 407.003135 537.648323 
L 407.440439 537.625367 
L 407.877743 542.098455 
L 408.315047 542.726791 
L 408.752351 542.11432 
L 409.189655 543.820117 
L 409.626959 547.112033 
L 410.064263 547.098157 
L 410.501567 547.329861 
L 410.938871 546.068751 
L 411.376176 545.293495 
L 411.81348 547.334453 
L 412.250784 550.007266 
L 412.688088 549.511718 
L 413.125392 552.970245 
L 413.562696 552.83664 
L 414 552.952237 
L 414.437304 553.26388 
L 414.874608 556.67073 
L 415.311912 556.426017 
L 415.749216 555.946488 
L 416.18652 558.733827 
L 416.623824 557.734111 
L 417.061129 557.877561 
L 417.498433 560.757592 
L 417.935737 558.741632 
L 418.373041 558.68516 
L 419.247649 564.501183 
L 419.684953 563.606658 
L 420.122257 567.529613 
L 420.559561 569.163634 
L 421.434169 571.749214 
L 421.871473 570.46229 
L 422.308777 575.274364 
L 422.746082 576.571439 
L 423.183386 576.933841 
L 423.62069 577.011279 
L 424.057994 577.216406 
L 424.495298 576.345958 
L 424.932602 575.896833 
L 425.369906 577.931873 
L 425.80721 575.678546 
L 426.244514 574.956906 
L 426.681818 574.008815 
L 427.556426 575.080563 
L 427.99373 576.404828 
L 428.431034 577.081831 
L 429.305643 584.146467 
L 429.742947 582.474747 
L 430.180251 584.652523 
L 430.617555 587.831444 
L 431.054859 588.269549 
L 431.492163 590.291172 
L 431.929467 590.320097 
L 432.366771 591.89382 
L 432.804075 595.368364 
L 433.241379 594.635297 
L 433.678683 595.155994 
L 434.115987 597.197309 
L 434.553292 597.386672 
L 434.990596 598.230643 
L 435.4279 597.338208 
L 435.865204 601.506948 
L 436.302508 601.54276 
L 437.177116 601.950359 
L 437.61442 604.301072 
L 438.051724 605.30594 
L 438.489028 607.428111 
L 438.926332 606.839413 
L 439.363636 607.218955 
L 439.80094 608.076292 
L 440.238245 610.797976 
L 440.675549 610.222184 
L 441.112853 611.855695 
L 441.550157 612.61886 
L 441.987461 611.702653 
L 442.424765 611.913289 
L 442.862069 614.161566 
L 443.299373 614.080301 
L 443.736677 612.058525 
L 444.173981 612.711501 
L 444.611285 611.846053 
L 445.048589 613.189806 
L 445.485893 613.105633 
L 446.360502 610.932193 
L 446.797806 611.032435 
L 447.23511 610.81175 
L 447.672414 611.629551 
L 448.109718 612.945909 
L 448.547022 615.6 
L 448.984326 611.8459 
L 449.42163 611.982464 
L 449.858934 608.964033 
L 450.296238 610.234682 
L 450.733542 608.566636 
L 451.170846 608.808747 
L 451.60815 608.769262 
L 452.045455 609.248485 
L 452.482759 607.819795 
L 452.920063 605.35624 
L 453.794671 602.444682 
L 454.231975 601.451241 
L 454.669279 599.796866 
L 455.106583 592.683155 
L 455.543887 592.052727 
L 455.981191 593.848972 
L 456.855799 595.657714 
L 457.730408 594.516843 
L 458.167712 591.721903 
L 458.605016 590.662807 
L 459.04232 592.336007 
L 459.479624 592.782683 
L 459.916928 590.645922 
L 460.354232 589.945605 
L 460.791536 589.853475 
L 461.22884 586.279555 
L 461.666144 587.279679 
L 462.103448 585.268361 
L 462.540752 584.527489 
L 462.978056 584.808778 
L 463.415361 584.073262 
L 463.852665 583.689639 
L 464.289969 582.106734 
L 464.727273 582.257123 
L 465.164577 581.018407 
L 465.601881 581.917882 
L 466.476489 579.099679 
L 467.788401 578.100065 
L 468.225705 580.26871 
L 468.663009 578.739828 
L 469.100313 580.130463 
L 469.537618 580.857102 
L 469.974922 579.540948 
L 470.412226 579.959158 
L 471.286834 572.80081 
L 471.724138 570.951257 
L 472.161442 572.228538 
L 472.598746 574.960324 
L 473.473354 582.036948 
L 473.910658 580.381246 
L 474.347962 577.940647 
L 474.785266 577.713738 
L 475.222571 578.626119 
L 475.659875 578.673919 
L 476.097179 578.325699 
L 476.534483 576.531342 
L 476.971787 572.655217 
L 477.409091 574.695205 
L 478.283699 571.29361 
L 478.721003 567.812535 
L 479.158307 566.948312 
L 479.595611 566.718954 
L 480.032915 565.876105 
L 480.470219 563.478256 
L 480.907524 562.647498 
L 481.344828 562.325754 
L 481.782132 561.685277 
L 482.219436 560.70566 
L 482.65674 561.890556 
L 483.094044 559.206877 
L 483.531348 558.488757 
L 484.405956 554.852651 
L 484.84326 554.886882 
L 485.280564 554.77205 
L 485.717868 555.485834 
L 486.155172 552.786442 
L 486.592476 553.72081 
L 487.029781 552.577031 
L 487.904389 554.43643 
L 488.341693 554.687214 
L 488.778997 555.869661 
L 489.216301 555.468693 
L 489.653605 555.90736 
L 490.090909 553.930833 
L 490.528213 553.504716 
L 490.965517 554.116931 
L 491.402821 552.878828 
L 491.840125 552.148618 
L 492.277429 552.435825 
L 492.714734 550.801243 
L 493.152038 550.577497 
L 493.589342 549.813209 
L 494.026646 548.683051 
L 494.46395 548.428238 
L 494.901254 547.404392 
L 495.338558 547.316343 
L 495.775862 541.819359 
L 496.213166 544.44024 
L 496.65047 543.248049 
L 497.962382 534.009871 
L 498.836991 532.217249 
L 499.274295 528.38117 
L 499.711599 522.581215 
L 500.148903 523.193023 
L 500.586207 520.872256 
L 501.023511 521.916558 
L 501.898119 516.751112 
L 502.335423 515.255797 
L 502.772727 514.175429 
L 503.210031 512.131003 
L 503.647335 512.244916 
L 504.084639 512.698785 
L 504.521944 515.120815 
L 504.959248 511.610459 
L 505.396552 514.292046 
L 505.833856 512.288635 
L 506.27116 512.102231 
L 506.708464 510.470302 
L 507.145768 509.529354 
L 507.583072 509.106195 
L 508.894984 499.841286 
L 509.332288 499.03532 
L 509.769592 497.098992 
L 510.206897 496.866012 
L 510.644201 497.524753 
L 511.081505 496.16034 
L 511.518809 493.989757 
L 511.956113 490.730031 
L 512.393417 490.588314 
L 512.830721 487.589422 
L 513.268025 487.699968 
L 513.705329 483.858329 
L 514.142633 481.992961 
L 514.579937 480.725321 
L 515.017241 479.904816 
L 515.454545 478.001698 
L 515.89185 476.819608 
L 516.766458 473.404749 
L 517.203762 469.961425 
L 517.641066 470.506557 
L 518.07837 469.357116 
L 518.515674 468.810402 
L 518.952978 469.041647 
L 519.390282 466.207427 
L 519.827586 470.724284 
L 520.26489 470.232052 
L 520.702194 468.441828 
L 521.139498 467.82446 
L 521.576803 470.993891 
L 522.014107 471.884438 
L 523.326019 469.951528 
L 523.763323 469.147705 
L 524.200627 470.504007 
L 524.637931 470.622358 
L 525.075235 468.160946 
L 525.512539 471.635491 
L 525.949843 472.63031 
L 526.387147 472.597814 
L 526.824451 476.017723 
L 527.261755 474.934855 
L 527.69906 476.354567 
L 528.136364 477.013664 
L 528.573668 477.224045 
L 529.010972 478.222128 
L 529.448276 481.08813 
L 529.88558 479.204091 
L 530.322884 479.046153 
L 530.760188 479.86931 
L 531.197492 478.934943 
L 531.634796 479.8738 
L 532.0721 479.073088 
L 532.509404 479.726625 
L 532.946708 480.019699 
L 533.384013 477.373362 
L 533.821317 477.316277 
L 534.258621 478.797716 
L 534.695925 481.336567 
L 535.133229 485.705842 
L 535.570533 484.670926 
L 536.007837 486.922672 
L 536.445141 484.654092 
L 536.882445 488.843951 
L 537.319749 490.505264 
L 537.757053 491.026369 
L 538.194357 489.551001 
L 539.068966 483.50062 
L 539.50627 484.271489 
L 540.380878 481.331874 
L 540.818182 482.214717 
L 541.69279 476.740332 
L 542.130094 478.725991 
L 542.567398 479.098187 
L 543.442006 474.766918 
L 543.87931 475.138195 
L 544.316614 476.278199 
L 544.753918 474.031606 
L 545.191223 474.528683 
L 545.628527 473.650584 
L 546.065831 472.30224 
L 546.503135 473.848415 
L 546.940439 475.827391 
L 547.377743 474.052266 
L 547.815047 475.484987 
L 548.252351 477.771626 
L 548.689655 472.890531 
L 549.126959 471.872909 
L 549.564263 471.700125 
L 550.001567 472.724124 
L 550.438871 473.167025 
L 550.876176 472.252145 
L 551.31348 469.754258 
L 551.750784 466.537077 
L 552.188088 471.366139 
L 552.625392 465.970825 
L 553.062696 463.296277 
L 553.5 464.779552 
L 553.937304 462.552803 
L 554.811912 461.249454 
L 555.68652 455.415371 
L 556.123824 455.330229 
L 556.561129 454.647461 
L 556.998433 455.180044 
L 557.435737 456.719792 
L 557.873041 456.065796 
L 560.059561 464.868418 
L 560.496865 469.395784 
L 561.371473 474.443184 
L 562.246082 475.363574 
L 562.683386 477.674496 
L 563.12069 478.634676 
L 563.557994 477.74867 
L 563.995298 478.650388 
L 564.869906 475.024333 
L 565.30721 477.21527 
L 565.744514 475.996246 
L 566.181818 475.371124 
L 566.619122 476.185915 
L 567.056426 477.265723 
L 567.49373 477.813865 
L 567.931034 476.183212 
L 568.368339 476.545868 
L 568.805643 476.719111 
L 569.242947 477.741528 
L 569.680251 477.277762 
L 570.117555 478.65804 
L 570.554859 475.884628 
L 571.866771 470.875386 
L 572.304075 470.472276 
L 573.178683 464.36379 
L 573.615987 464.977894 
L 574.053292 464.101274 
L 574.490596 461.857996 
L 574.9279 464.303186 
L 575.365204 461.719443 
L 575.802508 462.866742 
L 576.239812 462.932549 
L 576.677116 461.388619 
L 577.11442 462.068224 
L 577.989028 465.221739 
L 578.426332 465.153177 
L 578.863636 465.786104 
L 579.30094 465.283058 
L 579.738245 465.717287 
L 580.175549 465.85482 
L 580.612853 465.391156 
L 581.050157 464.329101 
L 581.487461 465.522618 
L 581.924765 464.854185 
L 582.362069 464.715683 
L 582.799373 463.352596 
L 583.236677 460.574593 
L 583.673981 456.498596 
L 584.111285 456.423198 
L 584.985893 455.423788 
L 585.423197 453.849198 
L 586.297806 448.452558 
L 586.73511 448.946983 
L 587.172414 448.906274 
L 588.047022 444.87216 
L 588.484326 446.49307 
L 588.92163 441.979886 
L 589.358934 445.321081 
L 589.796238 442.487574 
L 590.233542 444.475171 
L 590.670846 441.708085 
L 591.10815 443.100045 
L 591.545455 441.947033 
L 591.982759 441.279518 
L 592.420063 437.664023 
L 592.857367 438.100394 
L 593.294671 438.916359 
L 593.731975 433.875335 
L 594.169279 433.631184 
L 594.606583 430.870015 
L 595.043887 436.198398 
L 595.481191 436.76766 
L 595.918495 435.153127 
L 596.355799 430.155976 
L 596.793103 429.178604 
L 597.230408 427.912953 
L 597.667712 424.672714 
L 598.105016 420.459185 
L 598.54232 421.038649 
L 598.979624 419.070183 
L 599.416928 414.845787 
L 600.291536 410.907681 
L 601.166144 405.703974 
L 601.603448 407.522461 
L 602.040752 406.262014 
L 602.478056 404.273907 
L 602.915361 405.912825 
L 603.352665 406.317108 
L 603.789969 404.23483 
L 604.227273 399.758478 
L 604.664577 397.660028 
L 605.539185 391.735957 
L 605.976489 386.773801 
L 606.413793 386.865575 
L 606.851097 385.905905 
L 607.725705 379.063025 
L 608.600313 374.778485 
L 609.037618 376.927183 
L 609.474922 379.771606 
L 609.912226 379.729724 
L 610.34953 378.501619 
L 610.786834 372.980098 
L 611.224138 372.467614 
L 612.53605 363.306365 
L 612.973354 368.088749 
L 613.410658 360.775523 
L 613.847962 362.328279 
L 614.722571 358.681104 
L 615.159875 352.8636 
L 616.034483 348.754751 
L 616.471787 348.187784 
L 616.909091 341.268691 
L 617.346395 345.818299 
L 618.658307 341.09708 
L 619.970219 330.715583 
L 620.407524 330.950552 
L 620.844828 327.629049 
L 621.282132 326.910061 
L 622.15674 319.223313 
L 622.594044 320.491514 
L 623.031348 318.384953 
L 623.468652 317.459871 
L 623.905956 319.649584 
L 624.34326 319.511132 
L 624.780564 322.135891 
L 625.217868 323.110457 
L 625.655172 324.51364 
L 626.967085 329.807131 
L 627.404389 334.868917 
L 627.841693 335.453126 
L 628.278997 336.905283 
L 628.716301 340.32208 
L 629.153605 339.716241 
L 629.590909 341.611911 
L 630.028213 333.606735 
L 630.465517 336.541045 
L 630.902821 336.240064 
L 631.340125 337.369609 
L 631.777429 335.7286 
L 632.214734 330.863727 
L 633.526646 326.321567 
L 633.96395 323.4699 
L 634.401254 322.466256 
L 634.838558 315.900381 
L 635.275862 315.347902 
L 635.713166 309.003835 
L 636.15047 308.827736 
L 637.025078 302.299407 
L 637.899687 301.424726 
L 638.774295 303.168681 
L 639.648903 314.567902 
L 640.086207 318.117437 
L 640.523511 314.017158 
L 640.960815 314.143978 
L 641.398119 316.064849 
L 641.835423 315.727751 
L 642.272727 315.064062 
L 642.710031 314.697477 
L 643.147335 313.695976 
L 643.584639 314.479139 
L 644.021944 316.290942 
L 644.459248 313.592928 
L 644.896552 307.759203 
L 645.333856 307.815726 
L 645.77116 302.802607 
L 646.208464 300.217333 
L 646.645768 295.990846 
L 647.520376 290.456367 
L 647.95768 290.583187 
L 648.394984 288.187991 
L 648.832288 286.4674 
L 649.269592 287.644592 
L 649.706897 286.392818 
L 650.144201 284.511636 
L 650.581505 283.856313 
L 651.018809 283.407392 
L 651.456113 282.246524 
L 651.893417 280.76886 
L 652.330721 278.511911 
L 652.768025 277.202389 
L 653.642633 277.393588 
L 654.079937 278.731678 
L 654.517241 277.860976 
L 654.954545 278.253986 
L 655.829154 273.176896 
L 656.266458 273.068645 
L 656.703762 272.635844 
L 657.141066 268.601577 
L 657.57837 269.13518 
L 658.015674 268.552604 
L 658.452978 266.822728 
L 658.890282 266.138124 
L 659.327586 265.844489 
L 659.76489 265.402914 
L 660.202194 265.875097 
L 660.639498 265.432196 
L 661.076803 265.863568 
L 661.514107 266.513687 
L 661.951411 267.835555 
L 662.388715 267.816067 
L 662.826019 267.086367 
L 663.263323 266.878945 
L 663.700627 266.068439 
L 664.137931 268.68177 
L 664.575235 265.352615 
L 665.012539 265.803882 
L 665.449843 263.622739 
L 665.887147 262.383208 
L 666.324451 259.376255 
L 666.761755 258.074282 
L 667.19906 255.614196 
L 667.636364 249.781797 
L 668.073668 245.711412 
L 668.948276 241.55563 
L 669.38558 238.165666 
L 669.822884 237.595944 
L 670.260188 234.116502 
L 670.697492 233.628301 
L 671.134796 237.23742 
L 671.5721 228.783323 
L 672.009404 227.862628 
L 672.446708 226.121427 
L 672.884013 221.189216 
L 673.321317 223.694704 
L 673.758621 220.590009 
L 674.195925 219.881224 
L 675.070533 211.613328 
L 675.945141 206.774778 
L 676.382445 206.378809 
L 676.819749 204.637507 
L 677.257053 204.832583 
L 677.694357 199.961384 
L 678.131661 197.069416 
L 678.568966 195.406981 
L 679.00627 191.876525 
L 679.880878 181.932522 
L 680.318182 182.94545 
L 680.755486 180.407007 
L 681.19279 182.061994 
L 681.630094 183.223475 
L 682.067398 181.989759 
L 682.504702 178.324423 
L 682.942006 177.306699 
L 683.37931 177.897234 
L 683.816614 174.966393 
L 684.253918 172.907785 
L 684.691223 169.656171 
L 685.128527 168.53193 
L 685.565831 173.06654 
L 686.440439 171.938729 
L 686.877743 173.197135 
L 687.315047 171.254125 
L 687.752351 168.786489 
L 688.189655 164.561328 
L 689.064263 171.258308 
L 689.501567 178.245964 
L 689.938871 180.782876 
L 690.376176 182.588762 
L 690.81348 181.318316 
L 691.250784 174.005193 
L 692.125392 165.272561 
L 692.562696 165.757498 
L 693 163.675117 
L 693.437304 167.276788 
L 693.874608 168.376236 
L 694.311912 167.360757 
L 694.749216 168.530094 
L 695.18652 169.373657 
L 695.623824 172.599356 
L 696.061129 171.040275 
L 696.498433 172.879932 
L 696.935737 175.909535 
L 697.373041 183.119713 
L 697.810345 187.895924 
L 698.247649 186.969209 
L 698.684953 186.826268 
L 699.122257 185.342381 
L 699.559561 184.729196 
L 699.996865 189.200141 
L 700.434169 189.992894 
L 700.871473 192.127003 
L 701.308777 192.458388 
L 702.183386 205.175905 
L 702.62069 207.158503 
L 703.057994 207.642419 
L 703.495298 204.546702 
L 703.932602 202.827132 
L 704.369906 199.488793 
L 704.80721 199.68489 
L 705.244514 200.778114 
L 705.681818 200.305013 
L 706.119122 198.961107 
L 706.556426 199.583475 
L 706.99373 200.802193 
L 707.431034 202.779077 
L 707.868339 200.12269 
L 708.305643 199.822933 
L 708.742947 198.270586 
L 709.180251 195.63389 
L 709.617555 194.066953 
L 710.054859 190.767385 
L 710.492163 193.949621 
L 710.929467 195.491766 
L 711.366771 194.693095 
L 711.804075 191.939374 
L 712.241379 191.256606 
L 712.678683 191.888258 
L 713.115987 191.653595 
L 713.553292 194.974181 
L 713.990596 196.216977 
L 714.4279 196.777414 
L 714.865204 200.22686 
L 715.302508 205.359249 
L 715.739812 207.009849 
L 716.177116 207.584161 
L 717.051724 196.747826 
L 717.489028 200.429282 
L 717.926332 200.900955 
L 718.363636 206.09354 
L 718.80094 206.829362 
L 719.238245 206.457982 
L 719.675549 204.850846 
L 720.112853 210.065367 
L 720.987461 204.410904 
L 721.424765 206.975976 
L 721.862069 210.452765 
L 722.299373 210.648862 
L 722.736677 213.833037 
L 723.173981 212.44628 
L 723.611285 209.288326 
L 724.048589 209.680111 
L 724.485893 209.430246 
L 724.923197 229.09767 
L 725.797806 241.660004 
L 726.23511 234.178841 
L 726.672414 232.731786 
L 727.109718 232.924822 
L 727.547022 234.475945 
L 727.984326 233.911733 
L 728.42163 231.562755 
L 728.858934 235.140858 
L 729.296238 235.337567 
L 729.733542 228.886983 
L 730.170846 228.138714 
L 730.60815 229.040637 
L 731.045455 227.154149 
L 731.482759 222.326312 
L 731.920063 218.941959 
L 732.357367 216.993949 
L 732.794671 210.506636 
L 733.669279 205.007662 
L 734.106583 203.552241 
L 734.981191 197.192972 
L 735.418495 200.304707 
L 735.855799 201.307535 
L 736.293103 198.681654 
L 736.730408 197.66444 
L 737.167712 203.992897 
L 738.04232 190.621792 
L 738.479624 190.058294 
L 738.916928 191.008578 
L 739.354232 187.771247 
L 739.791536 180.97479 
L 740.22884 178.608671 
L 740.666144 178.622649 
L 741.103448 174.708978 
L 741.540752 175.937593 
L 741.978056 175.773533 
L 742.415361 171.273408 
L 742.852665 168.893209 
L 743.289969 167.393508 
L 743.727273 163.025917 
L 744.164577 161.757613 
L 744.601881 158.386626 
L 745.039185 156.365667 
L 745.476489 157.092306 
L 745.913793 159.14214 
L 746.351097 155.433952 
L 746.788401 154.781588 
L 747.663009 152.495459 
L 748.100313 152.64799 
L 748.537618 150.888731 
L 748.974922 147.23472 
L 749.412226 147.294202 
L 749.84953 145.74216 
L 750.286834 139.425029 
L 750.724138 144.60282 
L 751.161442 133.649357 
L 751.598746 131.884078 
L 752.03605 133.625584 
L 752.473354 133.279303 
L 752.910658 135.200174 
L 753.347962 135.262105 
L 753.785266 137.198075 
L 754.222571 137.823198 
L 754.659875 138.806334 
L 755.097179 137.107475 
L 755.971787 135.837947 
L 756.409091 137.988788 
L 756.846395 129.778333 
L 757.283699 127.729214 
L 757.721003 130.605368 
L 758.158307 132.535013 
L 758.595611 129.806697 
L 759.032915 131.112138 
L 759.470219 133.575897 
L 759.907524 134.338552 
L 760.344828 133.817498 
L 760.782132 132.998421 
L 761.219436 133.703839 
L 762.094044 131.860815 
L 762.531348 131.40965 
L 762.968652 133.443261 
L 763.84326 138.980393 
L 764.280564 137.961037 
L 764.717868 138.05378 
L 765.155172 137.403457 
L 765.592476 138.199577 
L 766.029781 137.822892 
L 766.467085 140.011176 
L 766.904389 140.764139 
L 767.341693 140.940952 
L 767.778997 140.048212 
L 768.216301 141.344981 
L 768.653605 141.807472 
L 769.090909 140.665376 
L 769.528213 142.568698 
L 769.965517 143.623356 
L 770.402821 140.242677 
L 770.840125 140.07882 
L 771.277429 138.971108 
L 771.714734 137.360911 
L 772.589342 135.248127 
L 773.026646 136.286562 
L 773.901254 143.530103 
L 774.338558 143.325232 
L 774.775862 142.288429 
L 775.213166 140.099532 
L 775.65047 142.837847 
L 776.087774 143.11128 
L 776.525078 141.322535 
L 776.962382 142.246496 
L 777.399687 149.079988 
L 778.274295 154.897594 
L 778.711599 155.126543 
L 779.148903 155.059103 
L 779.586207 153.937107 
L 780.023511 156.975485 
L 780.898119 159.979785 
L 781.335423 161.279717 
L 782.210031 167.723158 
L 782.647335 168.115964 
L 783.084639 168.926368 
L 783.521944 170.596456 
L 783.959248 170.611862 
L 784.396552 168.386235 
L 784.833856 170.756435 
L 785.27116 169.932665 
L 785.708464 167.767642 
L 786.145768 169.232247 
L 787.020376 175.050668 
L 787.45768 176.363251 
L 789.206897 190.756162 
L 789.644201 188.634297 
L 790.081505 184.88642 
L 790.518809 185.137 
L 790.956113 184.718075 
L 791.830721 180.697989 
L 792.268025 179.083303 
L 793.142633 177.330063 
L 793.579937 174.197208 
L 794.017241 173.103372 
L 794.454545 169.834413 
L 794.89185 168.733536 
L 795.329154 164.463585 
L 796.203762 159.622893 
L 796.641066 157.289627 
L 797.07837 151.88156 
L 797.515674 152.127446 
L 797.952978 151.017898 
L 798.390282 146.156902 
L 798.827586 150.701205 
L 799.26489 148.093689 
L 800.576803 133.640888 
L 801.014107 130.671583 
L 801.451411 131.518411 
L 801.888715 131.151725 
L 802.326019 129.541425 
L 803.637931 127.351202 
L 804.075235 128.649399 
L 804.949843 118.111188 
L 805.387147 119.098814 
L 805.824451 121.681639 
L 806.261755 121.319237 
L 807.136364 127.865624 
L 807.573668 128.981295 
L 808.010972 129.137091 
L 808.448276 128.507683 
L 808.88558 132.487264 
L 809.322884 134.376914 
L 809.760188 134.414154 
L 810.197492 136.067917 
L 810.634796 139.269845 
L 811.0721 144.917574 
L 811.509404 146.159248 
L 812.821317 156.913248 
L 813.695925 168.643854 
L 814.133229 177.300781 
L 814.570533 179.11534 
L 815.007837 182.220749 
L 815.445141 183.028807 
L 815.882445 188.049067 
L 816.319749 189.325023 
L 816.757053 189.366242 
L 817.194357 194.550359 
L 817.631661 194.812671 
L 818.068966 194.334162 
L 818.943574 188.656845 
L 819.380878 187.350179 
L 819.818182 188.624502 
L 820.255486 186.442747 
L 820.69279 189.6812 
L 821.130094 189.996159 
L 821.567398 187.689523 
L 822.004702 189.844853 
L 822.442006 188.690004 
L 822.87931 189.956675 
L 823.316614 188.088144 
L 823.753918 188.453402 
L 824.191223 186.382041 
L 824.628527 187.219074 
L 825.065831 186.620887 
L 825.503135 185.597756 
L 825.940439 186.327252 
L 826.377743 189.266357 
L 826.815047 189.892091 
L 827.252351 189.587233 
L 827.689655 192.033954 
L 828.126959 192.464713 
L 828.564263 191.631965 
L 829.001567 192.046197 
L 829.438871 190.214498 
L 830.750784 179.664451 
L 831.188088 179.599766 
L 831.625392 177.402095 
L 832.5 175.493263 
L 832.937304 170.293128 
L 833.374608 170.379749 
L 833.811912 168.144532 
L 834.249216 166.504849 
L 834.68652 165.83208 
L 835.123824 165.488859 
L 835.561129 161.860151 
L 835.998433 160.199144 
L 836.435737 160.115686 
L 836.873041 162.789621 
L 837.310345 161.35736 
L 837.747649 161.104026 
L 838.184953 156.24507 
L 838.622257 156.236194 
L 839.059561 150.559795 
L 839.496865 150.184538 
L 839.934169 147.435306 
L 840.371473 146.959552 
L 840.808777 138.47699 
L 841.246082 138.688492 
L 841.683386 133.598241 
L 842.12069 131.874793 
L 842.557994 131.280585 
L 842.995298 132.545726 
L 843.432602 131.628091 
L 843.869906 122.471637 
L 844.30721 119.504781 
L 844.744514 118.311468 
L 845.181818 122.805471 
L 845.619122 121.186295 
L 846.056426 121.213945 
L 846.49373 121.401573 
L 846.931034 119.251243 
L 847.368339 116.50752 
L 847.805643 112.947987 
L 848.242947 112.466519 
L 848.680251 111.6 
L 849.117555 114.139973 
L 849.554859 112.593951 
L 849.992163 113.396193 
L 850.429467 112.616499 
L 850.866771 113.133473 
L 851.304075 113.210605 
L 851.741379 115.703748 
L 852.178683 121.405756 
L 852.615987 122.77323 
L 853.053292 120.909801 
L 853.490596 118.239232 
L 853.9279 118.994338 
L 854.365204 120.427619 
L 854.802508 122.348082 
L 855.239812 118.701927 
L 855.677116 124.099281 
L 856.551724 131.001336 
L 857.426332 137.614858 
L 857.863636 139.489612 
L 858.30094 143.885465 
L 858.738245 145.852758 
L 859.175549 149.987114 
L 859.612853 149.3473 
L 860.050157 150.304012 
L 860.487461 150.59683 
L 860.924765 153.453701 
L 861.362069 150.513882 
L 861.799373 148.89185 
L 862.236677 149.109474 
L 862.673981 150.556326 
L 863.111285 151.115844 
L 863.985893 143.774255 
L 864.423197 144.582516 
L 864.860502 146.696729 
L 865.297806 145.284057 
L 865.73511 145.248041 
L 866.609718 147.000873 
L 867.484326 150.064757 
L 867.92163 152.895815 
L 868.358934 150.013233 
L 868.796238 150.812312 
L 869.233542 151.098908 
L 869.670846 150.4393 
L 870.10815 152.625442 
L 870.545455 152.461178 
L 870.982759 155.227959 
L 871.857367 157.011092 
L 872.294671 161.457653 
L 872.731975 161.675685 
L 873.169279 164.997393 
L 874.043887 165.7526 
L 874.918495 170.848974 
L 875.355799 172.421829 
L 875.793103 171.790585 
L 876.230408 172.101054 
L 876.667712 172.089219 
L 877.105016 172.580787 
L 877.54232 172.615477 
L 877.979624 180.226521 
L 878.416928 181.457686 
L 878.854232 185.481853 
L 879.291536 177.092339 
L 879.72884 176.115018 
L 880.166144 177.965082 
L 880.603448 178.830275 
L 881.040752 183.934198 
L 881.478056 184.409442 
L 881.915361 187.373135 
L 882.352665 188.92079 
L 882.789969 193.814231 
L 883.227273 194.356506 
L 883.664577 197.553333 
L 884.101881 198.619519 
L 884.539185 199.35024 
L 884.976489 200.658946 
L 885.413793 203.242995 
L 885.851097 200.686902 
L 886.288401 202.432285 
L 887.600313 210.97535 
L 888.037618 212.865 
L 888.474922 213.232299 
L 888.912226 216.386886 
L 889.34953 216.227009 
L 889.786834 217.156683 
L 890.224138 217.533879 
L 891.973354 230.31649 
L 893.285266 234.719689 
L 893.722571 238.360232 
L 894.597179 243.224493 
L 895.034483 245.058538 
L 895.471787 245.379007 
L 895.909091 248.155275 
L 896.346395 248.405549 
L 896.783699 249.574579 
L 897.221003 251.438825 
L 897.658307 250.617912 
L 898.095611 252.894247 
L 898.532915 252.849763 
L 898.970219 253.983798 
L 899.844828 249.980241 
L 900.282132 250.490786 
L 900.719436 250.724837 
L 901.15674 253.1838 
L 901.594044 252.182707 
L 902.031348 252.863842 
L 902.905956 256.145759 
L 903.34326 257.82156 
L 903.780564 257.862779 
L 904.217868 256.76425 
L 904.655172 258.488514 
L 905.092476 258.887441 
L 905.529781 258.859077 
L 906.404389 262.518394 
L 906.841693 264.094514 
L 907.278997 264.986234 
L 907.716301 264.747286 
L 908.153605 267.577017 
L 908.590909 268.004716 
L 909.028213 267.390205 
L 909.465517 266.147408 
L 909.902821 265.849692 
L 910.340125 262.972212 
L 910.777429 266.418291 
L 911.214734 265.178046 
L 911.652038 267.69241 
L 912.089342 267.518249 
L 912.526646 266.903024 
L 912.96395 267.241449 
L 913.401254 269.047437 
L 913.838558 269.464219 
L 914.275862 270.131682 
L 914.713166 271.714332 
L 915.15047 272.460561 
L 915.587774 271.633425 
L 916.025078 274.453769 
L 916.462382 274.747915 
L 916.899687 276.897123 
L 917.336991 275.990507 
L 917.774295 276.029583 
L 918.211599 277.036696 
L 918.648903 277.362572 
L 919.086207 276.732757 
L 919.523511 275.83869 
L 919.960815 275.387321 
L 920.398119 273.950876 
L 920.835423 274.142178 
L 921.272727 271.490076 
L 922.147335 269.201396 
L 922.584639 269.044988 
L 923.021944 266.410333 
L 923.459248 265.687571 
L 924.333856 266.034872 
L 924.77116 261.839095 
L 925.208464 263.433376 
L 925.645768 262.6445 
L 926.083072 263.74303 
L 926.520376 261.216116 
L 926.95768 260.443462 
L 927.394984 260.427954 
L 927.832288 259.188422 
L 928.269592 257.220721 
L 928.706897 254.491486 
L 929.144201 256.348794 
L 929.581505 253.285114 
L 930.018809 254.370686 
L 930.456113 255.811007 
L 930.893417 255.989453 
L 931.330721 255.913137 
L 932.205329 256.396135 
L 932.642633 253.95676 
L 933.079937 253.958291 
L 933.517241 253.793925 
L 933.954545 253.190228 
L 933.954545 253.190228 
" style="fill:none;stroke:#ff0000;stroke-linecap:square;stroke-width:1.5;"/>
   </g>
   <g id="line2d_28">
    <path clip-path="url(#p1d00fe3724)" d="M 173.045455 444.909655 
L 173.482759 442.603682 
L 173.920063 443.025871 
L 174.357367 444.436197 
L 174.794671 445.332661 
L 175.231975 443.855661 
L 175.669279 440.68225 
L 176.106583 439.763339 
L 176.981191 436.323994 
L 177.418495 435.700912 
L 177.855799 436.549016 
L 178.293103 437.719322 
L 178.730408 440.680464 
L 179.167712 441.726501 
L 179.605016 443.924121 
L 180.04232 444.054206 
L 180.916928 447.129313 
L 181.354232 447.57451 
L 181.791536 446.887457 
L 182.22884 446.436037 
L 184.415361 457.028119 
L 184.852665 457.763635 
L 185.727273 455.498574 
L 186.164577 456.451358 
L 186.601881 460.530109 
L 187.039185 461.935741 
L 187.476489 462.583207 
L 187.913793 461.746531 
L 188.351097 462.943568 
L 188.788401 461.353573 
L 189.663009 457.354862 
L 190.537618 450.319304 
L 191.84953 440.072891 
L 192.286834 440.962774 
L 192.724138 440.345661 
L 193.161442 441.286252 
L 193.598746 439.638764 
L 194.03605 437.51848 
L 194.473354 432.373797 
L 195.347962 425.55163 
L 197.097179 419.579657 
L 197.534483 422.100347 
L 198.409091 425.25325 
L 198.846395 425.753389 
L 199.283699 424.390302 
L 199.721003 423.860219 
L 200.158307 424.373774 
L 200.595611 423.945514 
L 201.032915 420.77751 
L 201.470219 415.788011 
L 201.907524 414.047116 
L 202.344828 414.061349 
L 202.782132 415.119884 
L 203.219436 414.773756 
L 203.65674 412.589093 
L 204.094044 409.151074 
L 205.405956 393.822929 
L 205.84326 390.234419 
L 206.280564 382.151907 
L 206.717868 380.145486 
L 207.155172 376.586819 
L 208.029781 372.788541 
L 208.467085 373.202467 
L 208.904389 373.273988 
L 209.341693 374.318239 
L 209.778997 374.44006 
L 210.216301 376.783069 
L 210.653605 379.882918 
L 211.090909 381.131581 
L 211.965517 391.174143 
L 212.840125 398.838853 
L 213.277429 401.375511 
L 213.714734 401.520186 
L 214.152038 401.976044 
L 214.589342 397.615952 
L 215.46395 386.859351 
L 215.901254 382.051767 
L 216.338558 380.04759 
L 217.213166 378.100243 
L 218.087774 376.970493 
L 218.525078 376.790466 
L 218.962382 377.279739 
L 219.399687 379.625095 
L 219.836991 381.142855 
L 220.274295 384.415182 
L 220.711599 385.587477 
L 221.148903 390.252376 
L 222.023511 396.952213 
L 222.460815 399.072037 
L 222.898119 402.828994 
L 223.772727 407.860784 
L 224.210031 408.951457 
L 224.647335 409.374871 
L 225.084639 408.339854 
L 225.521944 406.274512 
L 225.959248 403.401317 
L 226.833856 393.666062 
L 227.27116 389.824269 
L 229.020376 380.146608 
L 229.45768 380.009993 
L 229.894984 381.782924 
L 230.332288 384.844258 
L 230.769592 390.560091 
L 231.206897 393.443387 
L 232.956113 413.923969 
L 233.393417 416.366455 
L 233.830721 417.979713 
L 234.268025 411.468679 
L 234.705329 408.15396 
L 235.579937 404.256052 
L 236.017241 402.580251 
L 236.454545 402.725589 
L 236.89185 402.201423 
L 237.329154 401.254812 
L 238.203762 394.976859 
L 238.641066 393.79732 
L 239.07837 391.460126 
L 239.952978 387.806268 
L 240.827586 380.585734 
L 242.139498 366.013561 
L 243.888715 354.548482 
L 245.200627 350.676336 
L 246.075235 352.427331 
L 246.512539 352.44743 
L 247.387147 355.169421 
L 247.824451 356.102819 
L 248.261755 358.228459 
L 248.69906 363.756969 
L 249.136364 363.686315 
L 249.573668 364.501566 
L 250.010972 363.81487 
L 250.88558 358.763287 
L 253.0721 338.050643 
L 253.509404 339.286501 
L 254.384013 339.769397 
L 255.695925 348.379902 
L 256.570533 352.573434 
L 257.007837 352.064215 
L 257.445141 350.983438 
L 258.319749 352.589861 
L 259.194357 349.216017 
L 259.631661 347.172509 
L 260.068966 346.58075 
L 260.50627 346.181312 
L 260.943574 344.753336 
L 261.380878 343.746529 
L 261.818182 343.780606 
L 262.255486 341.682514 
L 262.69279 342.766658 
L 263.130094 343.404023 
L 263.567398 345.563332 
L 264.004702 346.696143 
L 264.87931 351.867608 
L 265.316614 353.425057 
L 265.753918 353.006745 
L 266.191223 354.764984 
L 267.065831 360.820466 
L 267.503135 362.450865 
L 267.940439 362.662266 
L 268.377743 363.31616 
L 268.815047 363.049307 
L 269.252351 363.592603 
L 269.689655 363.400893 
L 270.126959 364.989512 
L 271.001567 365.407824 
L 271.438871 367.080667 
L 272.31348 369.00118 
L 272.750784 369.259361 
L 273.188088 369.802504 
L 273.625392 370.97633 
L 274.062696 371.574721 
L 274.5 371.500037 
L 274.937304 372.175713 
L 275.811912 374.383434 
L 276.249216 374.419909 
L 276.68652 373.371832 
L 277.123824 372.976578 
L 277.561129 373.433457 
L 277.998433 371.620276 
L 278.873041 366.795398 
L 279.310345 365.903933 
L 279.747649 365.486998 
L 280.184953 364.762756 
L 281.059561 361.875736 
L 281.496865 362.101166 
L 281.934169 361.658826 
L 282.371473 361.430029 
L 283.246082 359.892782 
L 283.683386 359.337344 
L 284.557994 360.991107 
L 284.995298 362.004291 
L 286.30721 365.980811 
L 286.744514 366.693013 
L 288.056426 369.887034 
L 288.931034 369.06056 
L 289.368339 368.74703 
L 289.805643 368.935679 
L 290.242947 366.538748 
L 290.680251 366.929666 
L 291.117555 366.578181 
L 291.554859 366.522525 
L 291.992163 366.350252 
L 292.429467 367.970193 
L 292.866771 368.046407 
L 293.304075 368.476963 
L 293.741379 367.961163 
L 294.178683 366.915739 
L 295.490596 368.93221 
L 295.9279 369.858568 
L 296.365204 370.025536 
L 296.802508 369.831531 
L 297.239812 368.40687 
L 297.677116 367.518619 
L 298.11442 368.088188 
L 298.551724 369.533253 
L 299.863636 371.208493 
L 300.30094 372.276057 
L 300.738245 372.980098 
L 301.175549 373.264499 
L 301.612853 374.539383 
L 302.050157 375.023657 
L 302.487461 373.539055 
L 303.362069 371.202474 
L 303.799373 369.037961 
L 304.236677 368.174554 
L 304.673981 366.728162 
L 305.985893 364.796323 
L 306.423197 363.718046 
L 306.860502 363.594695 
L 307.297806 363.892564 
L 307.73511 364.839787 
L 308.172414 365.420782 
L 308.609718 365.204127 
L 309.047022 363.761458 
L 309.484326 364.121054 
L 309.92163 363.025483 
L 310.358934 362.602733 
L 311.233542 359.581955 
L 311.670846 357.650218 
L 312.10815 356.376814 
L 313.420063 351.358389 
L 313.857367 351.209939 
L 314.294671 351.938721 
L 314.731975 352.446614 
L 315.606583 354.370546 
L 316.043887 356.520825 
L 316.481191 357.527224 
L 317.355799 360.888978 
L 317.793103 364.244762 
L 318.230408 365.001092 
L 319.54232 373.109265 
L 319.979624 374.090667 
L 320.416928 374.203458 
L 320.854232 373.691229 
L 321.291536 372.18107 
L 322.166144 367.835108 
L 322.603448 368.046509 
L 323.040752 367.589528 
L 323.478056 366.820599 
L 324.352665 365.750586 
L 325.227273 366.973028 
L 326.976489 371.73169 
L 327.413793 372.903475 
L 327.851097 370.945007 
L 328.288401 370.965821 
L 328.725705 372.313042 
L 329.163009 372.174132 
L 330.037618 373.951501 
L 330.474922 371.931307 
L 330.912226 371.557784 
L 331.34953 370.385795 
L 331.786834 367.547697 
L 332.224138 369.108258 
L 332.661442 369.662777 
L 333.098746 368.786923 
L 333.53605 367.061179 
L 333.973354 364.366073 
L 334.410658 359.621031 
L 334.847962 356.60311 
L 335.285266 354.546441 
L 336.597179 346.46097 
L 337.034483 344.373182 
L 337.471787 344.875667 
L 338.346395 344.096075 
L 339.658307 347.5495 
L 340.095611 349.781861 
L 340.532915 350.953034 
L 340.970219 350.700312 
L 341.407524 351.19892 
L 342.282132 354.069463 
L 342.719436 355.533404 
L 343.15674 356.265502 
L 343.594044 356.564952 
L 344.031348 357.122226 
L 344.468652 357.887585 
L 344.905956 358.955404 
L 345.34326 358.538673 
L 345.780564 359.493344 
L 346.217868 358.380531 
L 346.655172 358.641415 
L 347.092476 357.145845 
L 347.529781 355.151158 
L 348.404389 347.358505 
L 349.278997 341.589567 
L 351.028213 326.668358 
L 351.465517 323.418376 
L 352.340125 319.572859 
L 352.777429 318.176817 
L 354.089342 308.046512 
L 354.96395 304.937225 
L 355.401254 304.187732 
L 355.838558 304.163959 
L 356.713166 309.162896 
L 358.462382 320.640168 
L 358.899687 325.356489 
L 359.336991 328.494037 
L 359.774295 328.965404 
L 360.211599 332.130296 
L 360.648903 333.754573 
L 361.523511 332.424543 
L 361.960815 333.214133 
L 362.398119 333.696825 
L 363.272727 339.25171 
L 363.710031 339.961005 
L 364.147335 341.506517 
L 364.584639 345.33979 
L 365.021944 347.505425 
L 365.896552 354.884458 
L 366.333856 358.775836 
L 367.645768 374.338491 
L 368.520376 387.51049 
L 369.394984 398.552411 
L 370.269592 412.519765 
L 371.144201 421.142921 
L 371.581505 424.933496 
L 372.018809 427.154991 
L 372.456113 425.416851 
L 372.893417 424.517377 
L 373.330721 423.926945 
L 373.768025 426.503138 
L 374.205329 426.511096 
L 374.642633 428.109713 
L 375.079937 430.198827 
L 376.829154 449.270359 
L 377.266458 459.139016 
L 377.703762 457.638141 
L 378.57837 449.000497 
L 379.452978 438.190382 
L 379.890282 436.904938 
L 380.327586 443.151467 
L 380.76489 451.165009 
L 381.202194 455.93112 
L 382.076803 481.255047 
L 382.514107 486.449979 
L 382.951411 487.660739 
L 383.826019 490.513324 
L 384.263323 487.159376 
L 384.700627 484.860187 
L 385.137931 483.781859 
L 386.012539 483.60127 
L 386.449843 486.556598 
L 386.887147 487.310683 
L 387.324451 487.583657 
L 387.761755 485.872095 
L 388.19906 487.84148 
L 388.636364 486.038859 
L 389.073668 483.596679 
L 389.510972 485.384506 
L 390.38558 494.517749 
L 390.822884 497.268664 
L 391.697492 506.218155 
L 392.134796 507.237358 
L 392.5721 505.58839 
L 393.009404 502.097215 
L 393.446708 500.742392 
L 393.884013 500.629142 
L 394.321317 502.356161 
L 394.758621 504.893532 
L 395.195925 504.81594 
L 396.070533 502.819773 
L 396.945141 499.753287 
L 397.382445 500.09462 
L 397.819749 500.759788 
L 398.257053 501.162082 
L 399.131661 502.62286 
L 399.568966 504.296213 
L 400.00627 507.789633 
L 400.443574 513.251264 
L 400.880878 517.121165 
L 401.318182 522.963053 
L 402.19279 530.808301 
L 403.067398 526.030151 
L 403.504702 527.480523 
L 403.942006 529.402363 
L 404.816614 535.550537 
L 405.253918 538.413784 
L 405.691223 539.443751 
L 406.128527 541.024106 
L 406.565831 542.082947 
L 407.877743 520.2505 
L 408.315047 514.870644 
L 408.752351 512.902075 
L 409.189655 510.163607 
L 410.501567 516.68107 
L 410.938871 514.505896 
L 411.376176 511.755644 
L 411.81348 514.759536 
L 412.250784 512.540133 
L 412.688088 512.556916 
L 413.125392 512.286186 
L 414.437304 521.86034 
L 414.874608 523.827838 
L 416.18652 531.29135 
L 416.623824 532.835637 
L 417.498433 538.263549 
L 417.935737 538.498977 
L 418.373041 539.526802 
L 418.810345 541.623262 
L 419.247649 542.115799 
L 419.684953 542.257975 
L 420.559561 538.527953 
L 420.996865 538.966977 
L 421.434169 540.596254 
L 421.871473 541.646014 
L 422.308777 544.432894 
L 422.746082 545.694259 
L 423.183386 545.871991 
L 423.62069 545.36216 
L 424.057994 546.559248 
L 424.495298 546.698005 
L 424.932602 546.162871 
L 425.369906 546.246075 
L 426.244514 545.837863 
L 426.681818 547.276654 
L 427.119122 547.329096 
L 427.556426 547.493819 
L 428.431034 551.775503 
L 428.868339 552.780678 
L 429.742947 558.70582 
L 430.180251 559.67049 
L 430.617555 561.4021 
L 431.054859 561.305888 
L 431.929467 566.107402 
L 432.366771 567.509667 
L 432.804075 567.478753 
L 433.241379 567.577974 
L 433.678683 566.34084 
L 434.115987 564.498735 
L 434.553292 564.071699 
L 435.4279 559.467455 
L 435.865204 556.498864 
L 436.302508 554.562791 
L 436.739812 554.05444 
L 437.177116 554.375367 
L 437.61442 555.652036 
L 438.051724 558.672049 
L 438.489028 563.271651 
L 438.926332 564.8895 
L 439.363636 566.996673 
L 440.675549 577.065966 
L 441.550157 582.854494 
L 441.987461 587.622746 
L 442.424765 589.94132 
L 443.299373 592.587861 
L 443.736677 592.897158 
L 444.173981 592.784315 
L 444.611285 591.25574 
L 445.485893 593.2918 
L 445.923197 593.55452 
L 446.360502 593.322204 
L 447.672414 595.79489 
L 448.109718 595.298272 
L 448.547022 595.002086 
L 448.984326 595.466413 
L 449.42163 596.928007 
L 449.858934 597.794781 
L 450.296238 599.124709 
L 450.733542 600.027754 
L 451.60815 598.576924 
L 452.045455 598.779958 
L 452.482759 597.78213 
L 453.357367 593.072135 
L 453.794671 591.903971 
L 454.231975 592.091294 
L 454.669279 591.719659 
L 455.106583 590.725911 
L 456.418495 585.543427 
L 456.855799 584.909173 
L 457.293103 586.402906 
L 457.730408 589.594121 
L 458.605016 591.439746 
L 459.04232 589.760936 
L 459.479624 588.657509 
L 460.354232 585.171639 
L 460.791536 583.628576 
L 461.22884 584.339146 
L 461.666144 583.779372 
L 462.978056 579.738065 
L 463.415361 578.044001 
L 463.852665 575.347926 
L 464.727273 562.532054 
L 465.164577 559.243811 
L 465.601881 558.313831 
L 466.039185 558.847485 
L 466.476489 560.442429 
L 466.913793 561.49168 
L 467.351097 561.273749 
L 467.788401 561.607685 
L 468.663009 565.87937 
L 469.100313 566.565709 
L 469.537618 566.82139 
L 469.974922 566.842254 
L 470.412226 564.54832 
L 470.84953 563.506977 
L 471.724138 560.631741 
L 472.161442 560.200318 
L 472.598746 559.31523 
L 473.03605 559.657685 
L 473.473354 559.724054 
L 473.910658 560.230008 
L 474.347962 559.89745 
L 474.785266 559.735073 
L 475.222571 558.333012 
L 476.097179 554.599113 
L 476.971787 551.87998 
L 477.409091 551.961704 
L 477.846395 551.818406 
L 478.721003 552.81802 
L 479.158307 552.360835 
L 479.595611 552.256053 
L 480.032915 548.958321 
L 480.907524 538.352058 
L 481.344828 535.068508 
L 481.782132 537.561651 
L 483.094044 555.645507 
L 483.968652 561.27579 
L 484.84326 566.480159 
L 485.280564 568.144788 
L 485.717868 568.735323 
L 486.155172 567.827992 
L 486.592476 568.507903 
L 487.467085 566.711608 
L 487.904389 564.207752 
L 489.216301 560.326679 
L 489.653605 558.203845 
L 490.528213 556.403163 
L 490.965517 554.658085 
L 491.402821 553.802687 
L 491.840125 553.618527 
L 492.277429 552.841741 
L 492.714734 552.293599 
L 493.152038 551.40698 
L 494.46395 545.229524 
L 494.901254 543.362269 
L 495.338558 539.314483 
L 496.213166 533.905089 
L 496.65047 532.23036 
L 497.087774 531.563763 
L 497.525078 531.178304 
L 497.962382 531.361443 
L 498.399687 529.476588 
L 498.836991 530.314029 
L 499.711599 525.730038 
L 500.148903 525.46997 
L 500.586207 524.909431 
L 501.023511 522.525508 
L 501.460815 521.839629 
L 501.898119 520.776605 
L 502.335423 520.259071 
L 502.772727 519.522024 
L 503.647335 518.824412 
L 504.521944 517.745165 
L 504.959248 516.03998 
L 505.396552 516.629444 
L 505.833856 515.474289 
L 507.145768 510.156159 
L 508.020376 506.952497 
L 508.45768 503.874227 
L 508.894984 499.27284 
L 509.332288 496.200232 
L 509.769592 494.095763 
L 510.206897 493.630059 
L 510.644201 492.502655 
L 512.393417 485.273347 
L 512.830721 484.575735 
L 513.268025 484.611444 
L 513.705329 486.167873 
L 514.142633 484.098144 
L 514.579937 484.878195 
L 515.017241 484.737652 
L 515.454545 485.26391 
L 515.89185 485.310434 
L 516.329154 485.649472 
L 516.766458 486.271023 
L 517.203762 485.291253 
L 517.641066 482.232368 
L 518.07837 478.014961 
L 518.952978 472.660663 
L 519.390282 471.45832 
L 519.827586 470.90778 
L 520.26489 468.962525 
L 520.702194 466.110449 
L 521.139498 462.332934 
L 521.576803 460.14016 
L 522.014107 456.791517 
L 522.451411 454.582776 
L 523.326019 446.677689 
L 523.763323 444.064613 
L 524.637931 440.525842 
L 525.075235 439.711407 
L 525.949843 437.611632 
L 526.387147 435.975315 
L 526.824451 435.772995 
L 527.261755 435.942717 
L 527.69906 436.861016 
L 528.136364 438.542785 
L 528.573668 438.319141 
L 529.88558 451.246019 
L 530.322884 453.839965 
L 531.197492 462.090415 
L 531.634796 465.876807 
L 533.384013 473.862189 
L 533.821317 474.484097 
L 534.258621 470.914667 
L 534.695925 469.861438 
L 535.133229 469.642997 
L 535.570533 468.606143 
L 536.007837 469.147041 
L 536.445141 469.239682 
L 537.757053 479.041358 
L 538.194357 481.462622 
L 539.068966 491.512632 
L 539.50627 495.056811 
L 539.943574 497.237903 
L 540.380878 498.402393 
L 540.818182 499.942599 
L 541.69279 494.306909 
L 542.567398 484.281794 
L 543.442006 474.335545 
L 543.87931 473.796432 
L 544.316614 474.946639 
L 544.753918 475.218644 
L 545.191223 476.62698 
L 545.628527 477.018051 
L 546.503135 482.969312 
L 546.940439 485.143007 
L 547.377743 486.041461 
L 547.815047 484.014686 
L 548.252351 480.393782 
L 548.689655 478.552748 
L 549.564263 472.869768 
L 550.001567 470.918952 
L 550.438871 468.191911 
L 550.876176 464.498671 
L 551.31348 463.318213 
L 551.750784 462.855978 
L 552.188088 461.368469 
L 552.625392 459.379239 
L 553.062696 459.314554 
L 553.5 459.551564 
L 553.937304 459.158554 
L 554.374608 459.381331 
L 554.811912 459.014848 
L 555.249216 458.023294 
L 555.68652 458.040945 
L 556.123824 459.382453 
L 556.998433 460.004106 
L 557.435737 461.342452 
L 558.747649 454.348929 
L 559.184953 454.308169 
L 559.622257 454.834835 
L 560.059561 454.811572 
L 560.496865 454.614608 
L 560.934169 454.13661 
L 561.371473 455.62065 
L 561.808777 456.255159 
L 562.246082 457.277576 
L 562.683386 457.56968 
L 563.557994 456.380806 
L 563.995298 454.906101 
L 564.432602 451.229235 
L 565.30721 439.847206 
L 565.744514 436.274205 
L 566.181818 434.529433 
L 566.619122 433.964456 
L 567.49373 431.537121 
L 567.931034 432.008641 
L 568.368339 433.136708 
L 568.805643 435.793655 
L 569.242947 439.537196 
L 570.992163 464.261049 
L 572.304075 473.361336 
L 572.741379 472.857831 
L 573.178683 473.106931 
L 573.615987 470.649396 
L 574.053292 465.957408 
L 574.9279 458.396919 
L 575.365204 454.500134 
L 575.802508 452.015153 
L 576.239812 450.412863 
L 576.677116 449.565423 
L 577.11442 447.471309 
L 577.551724 446.545869 
L 577.989028 446.310186 
L 578.426332 446.21831 
L 578.863636 446.755842 
L 579.30094 448.265032 
L 579.738245 447.877124 
L 580.175549 446.399205 
L 581.487461 439.815782 
L 581.924765 436.191256 
L 582.362069 431.550538 
L 583.236677 426.758921 
L 583.673981 423.779056 
L 584.111285 423.894704 
L 584.548589 422.896161 
L 584.985893 422.25548 
L 585.423197 422.547533 
L 585.860502 422.07484 
L 586.297806 422.6767 
L 586.73511 424.426573 
L 587.609718 429.251451 
L 588.484326 433.019376 
L 589.358934 436.263186 
L 589.796238 436.997171 
L 590.233542 436.663235 
L 590.670846 437.403445 
L 591.10815 437.421503 
L 591.545455 436.971562 
L 591.982759 435.574755 
L 592.420063 432.108526 
L 592.857367 426.179303 
L 593.731975 418.946474 
L 594.606583 413.467396 
L 595.481191 406.205235 
L 595.918495 404.434192 
L 596.355799 403.353925 
L 597.230408 400.428594 
L 597.667712 400.593266 
L 598.105016 398.118233 
L 598.54232 399.379089 
L 598.979624 399.379446 
L 599.416928 400.477465 
L 599.854232 400.614029 
L 600.291536 402.434964 
L 601.166144 404.520252 
L 601.603448 402.819199 
L 602.040752 402.366452 
L 602.478056 402.457614 
L 603.789969 395.19025 
L 604.227273 396.931909 
L 604.664577 399.52407 
L 605.101881 399.853924 
L 605.976489 393.73998 
L 606.413793 391.435997 
L 606.851097 387.455447 
L 607.288401 382.331985 
L 608.163009 378.110242 
L 609.037618 372.01553 
L 610.34953 364.215072 
L 611.224138 363.562097 
L 611.661442 362.604569 
L 612.53605 365.019151 
L 612.973354 364.805607 
L 613.410658 363.01324 
L 613.847962 359.804222 
L 614.722571 349.960613 
L 615.159875 343.807134 
L 615.597179 340.576434 
L 616.034483 338.780241 
L 617.783699 326.66948 
L 618.221003 328.087152 
L 619.532915 339.033575 
L 619.970219 339.280278 
L 620.407524 340.451043 
L 620.844828 340.800385 
L 621.719436 338.219192 
L 622.15674 339.350472 
L 622.594044 336.816009 
L 623.468652 340.242396 
L 624.34326 344.758846 
L 624.780564 343.81601 
L 625.217868 343.46075 
L 625.655172 342.060628 
L 626.092476 342.644735 
L 626.529781 342.013287 
L 626.967085 341.772298 
L 627.404389 341.686085 
L 627.841693 341.474174 
L 628.278997 340.406048 
L 629.153605 333.11986 
L 629.590909 330.92025 
L 630.028213 330.199834 
L 630.465517 328.376808 
L 631.340125 319.899347 
L 631.777429 317.785542 
L 632.652038 310.958273 
L 633.089342 309.312162 
L 633.526646 309.068317 
L 633.96395 308.647249 
L 634.838558 312.588774 
L 635.713166 317.968681 
L 636.15047 322.345965 
L 636.587774 329.920279 
L 637.025078 335.518015 
L 638.336991 347.855787 
L 638.774295 350.406575 
L 639.211599 345.135123 
L 639.648903 344.472046 
L 640.523511 341.574365 
L 642.272727 323.97616 
L 643.584639 309.39256 
L 644.021944 302.707925 
L 644.459248 297.809792 
L 644.896552 291.642334 
L 646.208464 278.718517 
L 646.645768 276.773976 
L 647.083072 275.858483 
L 647.520376 276.952116 
L 647.95768 279.815516 
L 648.394984 286.540757 
L 649.269592 302.953505 
L 649.706897 307.874187 
L 650.581505 314.795832 
L 651.018809 315.911196 
L 651.456113 316.390521 
L 651.893417 316.194424 
L 652.330721 316.479693 
L 652.768025 317.358149 
L 653.205329 318.829691 
L 653.642633 318.308943 
L 654.079937 314.89388 
L 654.517241 313.11493 
L 654.954545 309.131064 
L 656.703762 287.303515 
L 658.015674 280.843647 
L 658.452978 280.843443 
L 659.327586 278.662912 
L 659.76489 277.454601 
L 661.076803 276.01081 
L 661.514107 274.732916 
L 662.388715 273.834769 
L 662.826019 273.907922 
L 663.263323 275.419357 
L 664.137931 276.917426 
L 664.575235 276.265675 
L 665.449843 272.901626 
L 665.887147 271.881759 
L 666.324451 268.842566 
L 667.19906 264.798401 
L 667.636364 262.271284 
L 668.510972 258.499737 
L 668.948276 255.973843 
L 669.822884 253.954414 
L 670.260188 253.516512 
L 670.697492 253.782498 
L 671.134796 255.009888 
L 671.5721 254.755329 
L 672.009404 253.755562 
L 672.446708 251.87438 
L 672.884013 250.804622 
L 673.321317 251.337308 
L 673.758621 250.623728 
L 674.195925 251.262011 
L 674.633229 251.186409 
L 675.070533 250.196437 
L 675.945141 243.573529 
L 676.382445 239.866667 
L 678.568966 212.7593 
L 679.880878 203.725789 
L 680.318182 203.813635 
L 680.755486 200.189824 
L 681.19279 198.054185 
L 681.630094 196.539078 
L 682.067398 193.147481 
L 682.504702 192.918838 
L 683.37931 191.00868 
L 683.816614 188.45381 
L 684.691223 180.58729 
L 685.128527 177.720726 
L 686.003135 174.423301 
L 686.440439 173.980196 
L 688.189655 162.864305 
L 689.064263 152.832864 
L 689.938871 147.758937 
L 690.376176 148.04492 
L 691.250784 151.740048 
L 691.688088 151.516098 
L 692.125392 151.884825 
L 692.562696 153.764477 
L 693 154.011893 
L 693.437304 153.380343 
L 693.874608 151.621696 
L 694.311912 151.169 
L 696.061129 163.113354 
L 696.498433 163.823159 
L 696.935737 163.589516 
L 697.373041 160.872219 
L 697.810345 161.701192 
L 698.247649 164.824865 
L 699.559561 185.050787 
L 699.996865 188.723673 
L 700.434169 186.323783 
L 700.871473 180.812056 
L 701.308777 173.814401 
L 702.183386 163.214769 
L 702.62069 162.049514 
L 703.495298 161.64222 
L 703.932602 162.410283 
L 704.369906 163.877132 
L 704.80721 167.195268 
L 705.244514 167.089466 
L 705.681818 168.654567 
L 706.119122 171.603671 
L 707.431034 190.092065 
L 707.868339 192.181383 
L 708.305643 193.202678 
L 708.742947 192.402987 
L 709.180251 194.028896 
L 710.054859 196.333492 
L 710.492163 196.290233 
L 710.929467 199.34218 
L 711.804075 209.820603 
L 712.241379 211.91992 
L 712.678683 210.166374 
L 713.115987 206.994137 
L 713.990596 196.763232 
L 715.302508 186.139828 
L 716.177116 182.059342 
L 716.61442 181.685105 
L 717.926332 174.950069 
L 718.80094 168.719252 
L 719.238245 164.15434 
L 719.675549 162.677493 
L 720.112853 163.531871 
L 720.550157 163.723682 
L 720.987461 161.801383 
L 721.424765 161.143306 
L 722.299373 160.550016 
L 723.611285 169.887467 
L 724.048589 174.884669 
L 724.485893 181.826923 
L 724.923197 186.667514 
L 725.360502 189.734867 
L 725.797806 187.625041 
L 726.23511 182.855054 
L 726.672414 180.718089 
L 727.109718 179.747808 
L 727.984326 184.844997 
L 728.42163 186.135542 
L 728.858934 185.957709 
L 729.296238 189.441538 
L 729.733542 189.446639 
L 730.170846 187.224175 
L 730.60815 187.446391 
L 731.045455 190.49691 
L 731.482759 192.688664 
L 731.920063 196.239729 
L 732.357367 197.546803 
L 733.231975 196.575093 
L 733.669279 197.378662 
L 734.981191 234.452377 
L 735.418495 236.334477 
L 735.855799 236.608931 
L 736.293103 235.710171 
L 736.730408 234.440439 
L 737.167712 231.794561 
L 737.605016 228.146876 
L 738.04232 226.647991 
L 738.479624 224.607136 
L 739.354232 214.900652 
L 739.791536 211.316428 
L 740.22884 206.753148 
L 741.540752 187.703602 
L 742.415361 173.508931 
L 743.289969 164.333807 
L 744.164577 158.819835 
L 744.601881 160.679183 
L 745.476489 165.366222 
L 745.913793 167.382081 
L 746.351097 173.306611 
L 746.788401 173.684929 
L 747.225705 170.727969 
L 747.663009 168.841277 
L 748.100313 170.043569 
L 748.537618 169.373146 
L 749.412226 156.731027 
L 750.286834 149.830196 
L 750.724138 148.808493 
L 751.161442 148.328862 
L 751.598746 146.376057 
L 752.03605 141.684733 
L 753.785266 128.380965 
L 754.222571 127.611372 
L 754.659875 128.508703 
L 755.097179 131.534225 
L 756.846395 136.167802 
L 757.283699 136.780375 
L 758.158307 137.745555 
L 758.595611 138.169785 
L 759.032915 137.511606 
L 759.470219 133.637419 
L 759.907524 132.129556 
L 760.344828 124.488414 
L 760.782132 120.135106 
L 761.65674 120.122863 
L 762.531348 123.479464 
L 763.405956 130.555476 
L 763.84326 132.281066 
L 764.717868 133.275324 
L 765.155172 132.804875 
L 765.592476 133.627013 
L 766.029781 129.897603 
L 766.467085 124.920908 
L 766.904389 125.628264 
L 767.341693 127.556583 
L 768.216301 127.340081 
L 769.090909 130.380805 
L 769.528213 131.573914 
L 770.402821 131.828779 
L 770.840125 131.262118 
L 771.277429 130.381417 
L 771.714734 130.244088 
L 772.152038 131.411895 
L 773.026646 137.500179 
L 773.46395 139.002941 
L 773.901254 139.983221 
L 774.338558 140.605588 
L 774.775862 141.618313 
L 775.213166 142.34485 
L 776.525078 149.760511 
L 776.962382 149.976708 
L 777.836991 152.415164 
L 778.711599 153.532568 
L 779.148903 154.956055 
L 779.586207 155.586483 
L 780.023511 154.667114 
L 780.898119 151.859012 
L 781.335423 151.135841 
L 781.772727 148.948067 
L 782.210031 148.556077 
L 782.647335 150.382981 
L 783.084639 153.494818 
L 783.521944 155.393549 
L 783.959248 156.34067 
L 784.396552 156.084479 
L 784.833856 156.603289 
L 785.27116 156.34924 
L 785.708464 155.141949 
L 786.145768 154.821481 
L 786.583072 158.025449 
L 787.894984 169.410795 
L 788.332288 170.18304 
L 788.769592 170.703992 
L 790.956113 182.975446 
L 791.393417 186.144419 
L 791.830721 187.45741 
L 792.705329 190.757284 
L 793.142633 191.378529 
L 793.579937 189.592028 
L 794.017241 190.797483 
L 794.454545 189.6107 
L 795.329154 185.347687 
L 795.766458 185.551333 
L 796.203762 186.434075 
L 796.641066 187.596576 
L 797.07837 190.241739 
L 797.952978 199.018141 
L 798.390282 204.066153 
L 798.827586 205.461582 
L 799.702194 198.197432 
L 800.576803 187.987545 
L 801.451411 177.016635 
L 803.637931 153.789678 
L 804.512539 146.432478 
L 804.949843 142.735513 
L 805.824451 137.940937 
L 806.261755 133.923402 
L 806.69906 132.633061 
L 807.136364 131.793885 
L 807.573668 129.661512 
L 808.010972 132.000389 
L 808.448276 132.669077 
L 808.88558 130.624447 
L 810.197492 121.827334 
L 810.634796 120.582803 
L 811.0721 120.252234 
L 811.509404 120.628205 
L 811.946708 121.543595 
L 812.384013 123.70321 
L 813.258621 129.511327 
L 813.695925 129.872606 
L 814.133229 128.508601 
L 814.570533 128.055498 
L 815.445141 129.933007 
L 816.319749 136.524898 
L 816.757053 138.759095 
L 817.631661 141.34692 
L 818.50627 146.20108 
L 818.943574 147.611507 
L 819.380878 149.42178 
L 819.818182 152.133466 
L 821.130094 165.272459 
L 822.004702 177.577276 
L 822.87931 193.744444 
L 823.316614 204.836052 
L 824.191223 218.310103 
L 825.503135 230.405764 
L 826.377743 232.707401 
L 826.815047 232.790349 
L 827.252351 230.8806 
L 827.689655 226.107653 
L 828.564263 211.523543 
L 829.876176 197.431308 
L 830.750784 190.372641 
L 831.188088 188.914464 
L 831.625392 186.316743 
L 833.374608 183.123692 
L 834.249216 184.292825 
L 834.68652 183.805644 
L 835.123824 183.590774 
L 835.998433 187.114496 
L 836.435737 187.770328 
L 836.873041 189.238911 
L 837.310345 191.244873 
L 837.747649 192.288512 
L 838.184953 193.786683 
L 838.622257 193.686186 
L 839.059561 189.860463 
L 840.371473 173.708395 
L 841.246082 165.594356 
L 841.683386 162.809006 
L 842.12069 157.400021 
L 843.432602 149.311795 
L 843.869906 148.0842 
L 844.30721 147.297365 
L 845.181818 141.370284 
L 845.619122 140.151668 
L 846.49373 142.38158 
L 846.931034 143.158519 
L 847.368339 142.427696 
L 847.805643 142.188442 
L 848.242947 139.591537 
L 849.117555 137.284391 
L 849.554859 135.930282 
L 849.992163 132.139962 
L 850.429467 129.387058 
L 851.304075 123.080639 
L 851.741379 121.27006 
L 852.178683 122.388485 
L 852.615987 123.001058 
L 853.053292 120.170306 
L 853.490596 116.076454 
L 853.9279 113.664219 
L 854.365204 114.27516 
L 854.802508 115.352468 
L 856.11442 119.885649 
L 856.551724 120.572906 
L 856.989028 120.341712 
L 857.426332 120.343242 
L 857.863636 121.915179 
L 858.30094 124.333332 
L 860.050157 130.937059 
L 860.487461 133.235737 
L 860.924765 136.720077 
L 861.799373 148.891544 
L 862.236677 151.999504 
L 863.111285 150.489089 
L 863.548589 150.790785 
L 863.985893 151.649448 
L 864.423197 150.002521 
L 864.860502 150.986677 
L 865.73511 157.309829 
L 866.609718 166.650952 
L 868.358934 185.667032 
L 868.796238 188.899568 
L 869.670846 191.251709 
L 870.10815 192.734678 
L 870.545455 191.434542 
L 871.420063 185.271064 
L 871.857367 182.969019 
L 872.294671 181.467174 
L 872.731975 178.098534 
L 873.169279 173.249679 
L 874.043887 169.535268 
L 874.481191 167.975982 
L 874.918495 167.048859 
L 875.355799 167.091915 
L 875.793103 167.355554 
L 876.667712 170.18355 
L 877.105016 172.631393 
L 877.54232 172.274195 
L 878.416928 171.941483 
L 878.854232 171.51307 
L 879.72884 172.511817 
L 881.040752 178.204337 
L 881.478056 182.315431 
L 882.789969 191.494534 
L 883.227273 192.700499 
L 884.539185 199.274638 
L 884.976489 200.624257 
L 885.413793 201.270193 
L 885.851097 202.936403 
L 886.725705 204.187259 
L 887.163009 208.245401 
L 887.600313 211.168998 
L 888.037618 214.852597 
L 888.912226 208.427418 
L 889.34953 206.508996 
L 889.786834 205.434443 
L 890.661442 208.381506 
L 891.53605 212.630847 
L 891.973354 217.151378 
L 892.847962 223.291492 
L 893.285266 227.044163 
L 894.159875 231.737426 
L 894.597179 234.07161 
L 895.034483 233.560657 
L 895.471787 233.479137 
L 895.909091 234.449928 
L 897.221003 240.34538 
L 897.658307 241.15609 
L 898.095611 243.45885 
L 898.532915 244.909986 
L 898.970219 245.43655 
L 899.407524 245.582653 
L 899.844828 246.7072 
L 901.594044 257.009116 
L 902.905956 262.684801 
L 903.780564 268.830628 
L 904.217868 271.071253 
L 905.092476 273.838136 
L 905.529781 273.988422 
L 905.967085 272.706855 
L 906.404389 272.414037 
L 906.841693 270.76966 
L 907.278997 269.629503 
L 908.153605 266.950977 
L 909.465517 259.838745 
L 909.902821 258.032349 
L 910.340125 257.918588 
L 911.214734 256.615698 
L 912.089342 256.66967 
L 912.526646 257.507724 
L 912.96395 257.34346 
L 913.401254 256.760577 
L 913.838558 257.197152 
L 914.713166 258.477903 
L 915.15047 260.621296 
L 915.587774 262.008767 
L 916.025078 264.779322 
L 916.462382 265.935293 
L 916.899687 266.585004 
L 917.336991 267.929828 
L 917.774295 268.349671 
L 918.211599 267.46846 
L 919.086207 264.858292 
L 919.523511 262.372903 
L 919.960815 262.216699 
L 920.835423 261.017774 
L 921.272727 261.055933 
L 921.710031 260.287564 
L 922.147335 260.273382 
L 922.584639 261.724212 
L 923.021944 265.633394 
L 923.459248 266.999746 
L 924.333856 271.250311 
L 924.77116 271.960627 
L 925.208464 273.783755 
L 926.083072 275.732173 
L 926.520376 276.1965 
L 926.95768 276.226496 
L 927.394984 276.404534 
L 927.832288 276.422899 
L 928.269592 275.697892 
L 928.706897 274.007297 
L 929.144201 270.412666 
L 929.581505 268.24142 
L 930.018809 266.921899 
L 931.330721 258.178758 
L 932.642633 253.504065 
L 933.079937 253.759643 
L 933.517241 255.015295 
L 933.954545 255.92436 
L 933.954545 255.92436 
" style="fill:none;stroke:#0000ff;stroke-linecap:square;stroke-width:1.5;"/>
   </g>
   <g id="patch_3">
    <path d="M 135 640.8 
L 135 86.4 
" style="fill:none;stroke:#000000;stroke-linecap:square;stroke-linejoin:miter;stroke-width:0.8;"/>
   </g>
   <g id="patch_4">
    <path d="M 972 640.8 
L 972 86.4 
" style="fill:none;stroke:#000000;stroke-linecap:square;stroke-linejoin:miter;stroke-width:0.8;"/>
   </g>
   <g id="patch_5">
    <path d="M 135 640.8 
L 972 640.8 
" style="fill:none;stroke:#000000;stroke-linecap:square;stroke-linejoin:miter;stroke-width:0.8;"/>
   </g>
   <g id="patch_6">
    <path d="M 135 86.4 
L 972 86.4 
" style="fill:none;stroke:#000000;stroke-linecap:square;stroke-linejoin:miter;stroke-width:0.8;"/>
   </g>
   <g id="text_14">
    <!-- Evaluation Preds N:20 -->
    <defs>
     <path d="M 9.8125 72.90625 
L 55.90625 72.90625 
L 55.90625 64.59375 
L 19.671875 64.59375 
L 19.671875 43.015625 
L 54.390625 43.015625 
L 54.390625 34.71875 
L 19.671875 34.71875 
L 19.671875 8.296875 
L 56.78125 8.296875 
L 56.78125 0 
L 9.8125 0 
z
" id="DejaVuSans-69"/>
     <path d="M 2.984375 54.6875 
L 12.5 54.6875 
L 29.59375 8.796875 
L 46.6875 54.6875 
L 56.203125 54.6875 
L 35.6875 0 
L 23.484375 0 
z
" id="DejaVuSans-118"/>
     <path d="M 34.28125 27.484375 
Q 23.390625 27.484375 19.1875 25 
Q 14.984375 22.515625 14.984375 16.5 
Q 14.984375 11.71875 18.140625 8.90625 
Q 21.296875 6.109375 26.703125 6.109375 
Q 34.1875 6.109375 38.703125 11.40625 
Q 43.21875 16.703125 43.21875 25.484375 
L 43.21875 27.484375 
z
M 52.203125 31.203125 
L 52.203125 0 
L 43.21875 0 
L 43.21875 8.296875 
Q 40.140625 3.328125 35.546875 0.953125 
Q 30.953125 -1.421875 24.3125 -1.421875 
Q 15.921875 -1.421875 10.953125 3.296875 
Q 6 8.015625 6 15.921875 
Q 6 25.140625 12.171875 29.828125 
Q 18.359375 34.515625 30.609375 34.515625 
L 43.21875 34.515625 
L 43.21875 35.40625 
Q 43.21875 41.609375 39.140625 45 
Q 35.0625 48.390625 27.6875 48.390625 
Q 23 48.390625 18.546875 47.265625 
Q 14.109375 46.140625 10.015625 43.890625 
L 10.015625 52.203125 
Q 14.9375 54.109375 19.578125 55.046875 
Q 24.21875 56 28.609375 56 
Q 40.484375 56 46.34375 49.84375 
Q 52.203125 43.703125 52.203125 31.203125 
z
" id="DejaVuSans-97"/>
     <path d="M 9.421875 75.984375 
L 18.40625 75.984375 
L 18.40625 0 
L 9.421875 0 
z
" id="DejaVuSans-108"/>
     <path d="M 8.5 21.578125 
L 8.5 54.6875 
L 17.484375 54.6875 
L 17.484375 21.921875 
Q 17.484375 14.15625 20.5 10.265625 
Q 23.53125 6.390625 29.59375 6.390625 
Q 36.859375 6.390625 41.078125 11.03125 
Q 45.3125 15.671875 45.3125 23.6875 
L 45.3125 54.6875 
L 54.296875 54.6875 
L 54.296875 0 
L 45.3125 0 
L 45.3125 8.40625 
Q 42.046875 3.421875 37.71875 1 
Q 33.40625 -1.421875 27.6875 -1.421875 
Q 18.265625 -1.421875 13.375 4.4375 
Q 8.5 10.296875 8.5 21.578125 
z
M 31.109375 56 
z
" id="DejaVuSans-117"/>
     <path d="M 18.3125 70.21875 
L 18.3125 54.6875 
L 36.8125 54.6875 
L 36.8125 47.703125 
L 18.3125 47.703125 
L 18.3125 18.015625 
Q 18.3125 11.328125 20.140625 9.421875 
Q 21.96875 7.515625 27.59375 7.515625 
L 36.8125 7.515625 
L 36.8125 0 
L 27.59375 0 
Q 17.1875 0 13.234375 3.875 
Q 9.28125 7.765625 9.28125 18.015625 
L 9.28125 47.703125 
L 2.6875 47.703125 
L 2.6875 54.6875 
L 9.28125 54.6875 
L 9.28125 70.21875 
z
" id="DejaVuSans-116"/>
     <path d="M 9.421875 54.6875 
L 18.40625 54.6875 
L 18.40625 0 
L 9.421875 0 
z
M 9.421875 75.984375 
L 18.40625 75.984375 
L 18.40625 64.59375 
L 9.421875 64.59375 
z
" id="DejaVuSans-105"/>
     <path d="M 30.609375 48.390625 
Q 23.390625 48.390625 19.1875 42.75 
Q 14.984375 37.109375 14.984375 27.296875 
Q 14.984375 17.484375 19.15625 11.84375 
Q 23.34375 6.203125 30.609375 6.203125 
Q 37.796875 6.203125 41.984375 11.859375 
Q 46.1875 17.53125 46.1875 27.296875 
Q 46.1875 37.015625 41.984375 42.703125 
Q 37.796875 48.390625 30.609375 48.390625 
z
M 30.609375 56 
Q 42.328125 56 49.015625 48.375 
Q 55.71875 40.765625 55.71875 27.296875 
Q 55.71875 13.875 49.015625 6.21875 
Q 42.328125 -1.421875 30.609375 -1.421875 
Q 18.84375 -1.421875 12.171875 6.21875 
Q 5.515625 13.875 5.515625 27.296875 
Q 5.515625 40.765625 12.171875 48.375 
Q 18.84375 56 30.609375 56 
z
" id="DejaVuSans-111"/>
     <path d="M 54.890625 33.015625 
L 54.890625 0 
L 45.90625 0 
L 45.90625 32.71875 
Q 45.90625 40.484375 42.875 44.328125 
Q 39.84375 48.1875 33.796875 48.1875 
Q 26.515625 48.1875 22.3125 43.546875 
Q 18.109375 38.921875 18.109375 30.90625 
L 18.109375 0 
L 9.078125 0 
L 9.078125 54.6875 
L 18.109375 54.6875 
L 18.109375 46.1875 
Q 21.34375 51.125 25.703125 53.5625 
Q 30.078125 56 35.796875 56 
Q 45.21875 56 50.046875 50.171875 
Q 54.890625 44.34375 54.890625 33.015625 
z
" id="DejaVuSans-110"/>
     <path id="DejaVuSans-32"/>
     <path d="M 19.671875 64.796875 
L 19.671875 37.40625 
L 32.078125 37.40625 
Q 38.96875 37.40625 42.71875 40.96875 
Q 46.484375 44.53125 46.484375 51.125 
Q 46.484375 57.671875 42.71875 61.234375 
Q 38.96875 64.796875 32.078125 64.796875 
z
M 9.8125 72.90625 
L 32.078125 72.90625 
Q 44.34375 72.90625 50.609375 67.359375 
Q 56.890625 61.8125 56.890625 51.125 
Q 56.890625 40.328125 50.609375 34.8125 
Q 44.34375 29.296875 32.078125 29.296875 
L 19.671875 29.296875 
L 19.671875 0 
L 9.8125 0 
z
" id="DejaVuSans-80"/>
     <path d="M 41.109375 46.296875 
Q 39.59375 47.171875 37.8125 47.578125 
Q 36.03125 48 33.890625 48 
Q 26.265625 48 22.1875 43.046875 
Q 18.109375 38.09375 18.109375 28.8125 
L 18.109375 0 
L 9.078125 0 
L 9.078125 54.6875 
L 18.109375 54.6875 
L 18.109375 46.1875 
Q 20.953125 51.171875 25.484375 53.578125 
Q 30.03125 56 36.53125 56 
Q 37.453125 56 38.578125 55.875 
Q 39.703125 55.765625 41.0625 55.515625 
z
" id="DejaVuSans-114"/>
     <path d="M 56.203125 29.59375 
L 56.203125 25.203125 
L 14.890625 25.203125 
Q 15.484375 15.921875 20.484375 11.0625 
Q 25.484375 6.203125 34.421875 6.203125 
Q 39.59375 6.203125 44.453125 7.46875 
Q 49.3125 8.734375 54.109375 11.28125 
L 54.109375 2.78125 
Q 49.265625 0.734375 44.1875 -0.34375 
Q 39.109375 -1.421875 33.890625 -1.421875 
Q 20.796875 -1.421875 13.15625 6.1875 
Q 5.515625 13.8125 5.515625 26.8125 
Q 5.515625 40.234375 12.765625 48.109375 
Q 20.015625 56 32.328125 56 
Q 43.359375 56 49.78125 48.890625 
Q 56.203125 41.796875 56.203125 29.59375 
z
M 47.21875 32.234375 
Q 47.125 39.59375 43.09375 43.984375 
Q 39.0625 48.390625 32.421875 48.390625 
Q 24.90625 48.390625 20.390625 44.140625 
Q 15.875 39.890625 15.1875 32.171875 
z
" id="DejaVuSans-101"/>
     <path d="M 45.40625 46.390625 
L 45.40625 75.984375 
L 54.390625 75.984375 
L 54.390625 0 
L 45.40625 0 
L 45.40625 8.203125 
Q 42.578125 3.328125 38.25 0.953125 
Q 33.9375 -1.421875 27.875 -1.421875 
Q 17.96875 -1.421875 11.734375 6.484375 
Q 5.515625 14.40625 5.515625 27.296875 
Q 5.515625 40.1875 11.734375 48.09375 
Q 17.96875 56 27.875 56 
Q 33.9375 56 38.25 53.625 
Q 42.578125 51.265625 45.40625 46.390625 
z
M 14.796875 27.296875 
Q 14.796875 17.390625 18.875 11.75 
Q 22.953125 6.109375 30.078125 6.109375 
Q 37.203125 6.109375 41.296875 11.75 
Q 45.40625 17.390625 45.40625 27.296875 
Q 45.40625 37.203125 41.296875 42.84375 
Q 37.203125 48.484375 30.078125 48.484375 
Q 22.953125 48.484375 18.875 42.84375 
Q 14.796875 37.203125 14.796875 27.296875 
z
" id="DejaVuSans-100"/>
     <path d="M 44.28125 53.078125 
L 44.28125 44.578125 
Q 40.484375 46.53125 36.375 47.5 
Q 32.28125 48.484375 27.875 48.484375 
Q 21.1875 48.484375 17.84375 46.4375 
Q 14.5 44.390625 14.5 40.28125 
Q 14.5 37.15625 16.890625 35.375 
Q 19.28125 33.59375 26.515625 31.984375 
L 29.59375 31.296875 
Q 39.15625 29.25 43.1875 25.515625 
Q 47.21875 21.78125 47.21875 15.09375 
Q 47.21875 7.46875 41.1875 3.015625 
Q 35.15625 -1.421875 24.609375 -1.421875 
Q 20.21875 -1.421875 15.453125 -0.5625 
Q 10.6875 0.296875 5.421875 2 
L 5.421875 11.28125 
Q 10.40625 8.6875 15.234375 7.390625 
Q 20.0625 6.109375 24.8125 6.109375 
Q 31.15625 6.109375 34.5625 8.28125 
Q 37.984375 10.453125 37.984375 14.40625 
Q 37.984375 18.0625 35.515625 20.015625 
Q 33.0625 21.96875 24.703125 23.78125 
L 21.578125 24.515625 
Q 13.234375 26.265625 9.515625 29.90625 
Q 5.8125 33.546875 5.8125 39.890625 
Q 5.8125 47.609375 11.28125 51.796875 
Q 16.75 56 26.8125 56 
Q 31.78125 56 36.171875 55.265625 
Q 40.578125 54.546875 44.28125 53.078125 
z
" id="DejaVuSans-115"/>
     <path d="M 9.8125 72.90625 
L 23.09375 72.90625 
L 55.421875 11.921875 
L 55.421875 72.90625 
L 64.984375 72.90625 
L 64.984375 0 
L 51.703125 0 
L 19.390625 60.984375 
L 19.390625 0 
L 9.8125 0 
z
" id="DejaVuSans-78"/>
     <path d="M 11.71875 12.40625 
L 22.015625 12.40625 
L 22.015625 0 
L 11.71875 0 
z
M 11.71875 51.703125 
L 22.015625 51.703125 
L 22.015625 39.3125 
L 11.71875 39.3125 
z
" id="DejaVuSans-58"/>
    </defs>
    <g transform="translate(374.421656 80.4)scale(0.324 -0.324)">
     <use xlink:href="#DejaVuSans-69"/>
     <use x="63.183594" xlink:href="#DejaVuSans-118"/>
     <use x="122.363281" xlink:href="#DejaVuSans-97"/>
     <use x="183.642578" xlink:href="#DejaVuSans-108"/>
     <use x="211.425781" xlink:href="#DejaVuSans-117"/>
     <use x="274.804688" xlink:href="#DejaVuSans-97"/>
     <use x="336.083984" xlink:href="#DejaVuSans-116"/>
     <use x="375.292969" xlink:href="#DejaVuSans-105"/>
     <use x="403.076172" xlink:href="#DejaVuSans-111"/>
     <use x="464.257812" xlink:href="#DejaVuSans-110"/>
     <use x="527.636719" xlink:href="#DejaVuSans-32"/>
     <use x="559.423828" xlink:href="#DejaVuSans-80"/>
     <use x="619.710938" xlink:href="#DejaVuSans-114"/>
     <use x="660.792969" xlink:href="#DejaVuSans-101"/>
     <use x="722.316406" xlink:href="#DejaVuSans-100"/>
     <use x="785.792969" xlink:href="#DejaVuSans-115"/>
     <use x="837.892578" xlink:href="#DejaVuSans-32"/>
     <use x="869.679688" xlink:href="#DejaVuSans-78"/>
     <use x="944.484375" xlink:href="#DejaVuSans-58"/>
     <use x="978.175781" xlink:href="#DejaVuSans-50"/>
     <use x="1041.798828" xlink:href="#DejaVuSans-48"/>
    </g>
   </g>
   <g id="legend_1">
    <g id="patch_7">
     <path d="M 153.9 187.261875 
L 301.42125 187.261875 
Q 306.82125 187.261875 306.82125 181.861875 
L 306.82125 105.3 
Q 306.82125 99.9 301.42125 99.9 
L 153.9 99.9 
Q 148.5 99.9 148.5 105.3 
L 148.5 181.861875 
Q 148.5 187.261875 153.9 187.261875 
z
" style="fill:#ffffff;opacity:0.8;stroke:#cccccc;stroke-linejoin:miter;"/>
    </g>
    <g id="line2d_29">
     <path d="M 159.3 121.765781 
L 213.3 121.765781 
" style="fill:none;stroke:#ff0000;stroke-linecap:square;stroke-width:1.5;"/>
    </g>
    <g id="line2d_30"/>
    <g id="text_15">
     <!-- Real -->
     <defs>
      <path d="M 44.390625 34.1875 
Q 47.5625 33.109375 50.5625 29.59375 
Q 53.5625 26.078125 56.59375 19.921875 
L 66.609375 0 
L 56 0 
L 46.6875 18.703125 
Q 43.0625 26.03125 39.671875 28.421875 
Q 36.28125 30.8125 30.421875 30.8125 
L 19.671875 30.8125 
L 19.671875 0 
L 9.8125 0 
L 9.8125 72.90625 
L 32.078125 72.90625 
Q 44.578125 72.90625 50.734375 67.671875 
Q 56.890625 62.453125 56.890625 51.90625 
Q 56.890625 45.015625 53.6875 40.46875 
Q 50.484375 35.9375 44.390625 34.1875 
z
M 19.671875 64.796875 
L 19.671875 38.921875 
L 32.078125 38.921875 
Q 39.203125 38.921875 42.84375 42.21875 
Q 46.484375 45.515625 46.484375 51.90625 
Q 46.484375 58.296875 42.84375 61.546875 
Q 39.203125 64.796875 32.078125 64.796875 
z
" id="DejaVuSans-82"/>
     </defs>
     <g transform="translate(234.9 131.215781)scale(0.27 -0.27)">
      <use xlink:href="#DejaVuSans-82"/>
      <use x="69.419922" xlink:href="#DejaVuSans-101"/>
      <use x="130.943359" xlink:href="#DejaVuSans-97"/>
      <use x="192.222656" xlink:href="#DejaVuSans-108"/>
     </g>
    </g>
    <g id="line2d_31">
     <path d="M 159.3 161.396719 
L 213.3 161.396719 
" style="fill:none;stroke:#0000ff;stroke-linecap:square;stroke-width:1.5;"/>
    </g>
    <g id="line2d_32"/>
    <g id="text_16">
     <!-- Pred -->
     <g transform="translate(234.9 170.846719)scale(0.27 -0.27)">
      <use xlink:href="#DejaVuSans-80"/>
      <use x="60.287109" xlink:href="#DejaVuSans-114"/>
      <use x="101.369141" xlink:href="#DejaVuSans-101"/>
      <use x="162.892578" xlink:href="#DejaVuSans-100"/>
     </g>
    </g>
   </g>
  </g>
 </g>
 <defs>
  <clipPath id="p1d00fe3724">
   <rect height="554.4" width="837" x="135" y="86.4"/>
  </clipPath>
 </defs>
</svg>
