<?xml version="1.0" encoding="utf-8" standalone="no"?>
<!DOCTYPE svg PUBLIC "-//W3C//DTD SVG 1.1//EN"
  "http://www.w3.org/Graphics/SVG/1.1/DTD/svg11.dtd">
<!-- Created with matplotlib (https://matplotlib.org/) -->
<svg height="720pt" version="1.1" viewBox="0 0 1080 720" width="1080pt" xmlns="http://www.w3.org/2000/svg" xmlns:xlink="http://www.w3.org/1999/xlink">
 <defs>
  <style type="text/css">
*{stroke-linecap:butt;stroke-linejoin:round;}
  </style>
 </defs>
 <g id="figure_1">
  <g id="patch_1">
   <path d="M 0 720 
L 1080 720 
L 1080 0 
L 0 0 
z
" style="fill:#ffffff;"/>
  </g>
  <g id="axes_1">
   <g id="patch_2">
    <path d="M 135 640.8 
L 972 640.8 
L 972 86.4 
L 135 86.4 
z
" style="fill:#ffffff;"/>
   </g>
   <g id="matplotlib.axis_1">
    <g id="xtick_1">
     <g id="line2d_1">
      <path clip-path="url(#p5cffadc7eb)" d="M 173.045455 640.8 
L 173.045455 86.4 
" style="fill:none;stroke:#b0b0b0;stroke-linecap:square;stroke-width:0.8;"/>
     </g>
     <g id="line2d_2">
      <defs>
       <path d="M 0 0 
L 0 3.5 
" id="m70e33869b5" style="stroke:#000000;stroke-width:0.8;"/>
      </defs>
      <g>
       <use style="stroke:#000000;stroke-width:0.8;" x="173.045455" xlink:href="#m70e33869b5" y="640.8"/>
      </g>
     </g>
     <g id="text_1">
      <!-- 0 -->
      <defs>
       <path d="M 31.78125 66.40625 
Q 24.171875 66.40625 20.328125 58.90625 
Q 16.5 51.421875 16.5 36.375 
Q 16.5 21.390625 20.328125 13.890625 
Q 24.171875 6.390625 31.78125 6.390625 
Q 39.453125 6.390625 43.28125 13.890625 
Q 47.125 21.390625 47.125 36.375 
Q 47.125 51.421875 43.28125 58.90625 
Q 39.453125 66.40625 31.78125 66.40625 
z
M 31.78125 74.21875 
Q 44.046875 74.21875 50.515625 64.515625 
Q 56.984375 54.828125 56.984375 36.375 
Q 56.984375 17.96875 50.515625 8.265625 
Q 44.046875 -1.421875 31.78125 -1.421875 
Q 19.53125 -1.421875 13.0625 8.265625 
Q 6.59375 17.96875 6.59375 36.375 
Q 6.59375 54.828125 13.0625 64.515625 
Q 19.53125 74.21875 31.78125 74.21875 
z
" id="DejaVuSans-48"/>
      </defs>
      <g transform="translate(164.45608 668.315781)scale(0.27 -0.27)">
       <use xlink:href="#DejaVuSans-48"/>
      </g>
     </g>
    </g>
    <g id="xtick_2">
     <g id="line2d_3">
      <path clip-path="url(#p5cffadc7eb)" d="M 282.371473 640.8 
L 282.371473 86.4 
" style="fill:none;stroke:#b0b0b0;stroke-linecap:square;stroke-width:0.8;"/>
     </g>
     <g id="line2d_4">
      <g>
       <use style="stroke:#000000;stroke-width:0.8;" x="282.371473" xlink:href="#m70e33869b5" y="640.8"/>
      </g>
     </g>
     <g id="text_2">
      <!-- 250 -->
      <defs>
       <path d="M 19.1875 8.296875 
L 53.609375 8.296875 
L 53.609375 0 
L 7.328125 0 
L 7.328125 8.296875 
Q 12.9375 14.109375 22.625 23.890625 
Q 32.328125 33.6875 34.8125 36.53125 
Q 39.546875 41.84375 41.421875 45.53125 
Q 43.3125 49.21875 43.3125 52.78125 
Q 43.3125 58.59375 39.234375 62.25 
Q 35.15625 65.921875 28.609375 65.921875 
Q 23.96875 65.921875 18.8125 64.3125 
Q 13.671875 62.703125 7.8125 59.421875 
L 7.8125 69.390625 
Q 13.765625 71.78125 18.9375 73 
Q 24.125 74.21875 28.421875 74.21875 
Q 39.75 74.21875 46.484375 68.546875 
Q 53.21875 62.890625 53.21875 53.421875 
Q 53.21875 48.921875 51.53125 44.890625 
Q 49.859375 40.875 45.40625 35.40625 
Q 44.1875 33.984375 37.640625 27.21875 
Q 31.109375 20.453125 19.1875 8.296875 
z
" id="DejaVuSans-50"/>
       <path d="M 10.796875 72.90625 
L 49.515625 72.90625 
L 49.515625 64.59375 
L 19.828125 64.59375 
L 19.828125 46.734375 
Q 21.96875 47.46875 24.109375 47.828125 
Q 26.265625 48.1875 28.421875 48.1875 
Q 40.625 48.1875 47.75 41.5 
Q 54.890625 34.8125 54.890625 23.390625 
Q 54.890625 11.625 47.5625 5.09375 
Q 40.234375 -1.421875 26.90625 -1.421875 
Q 22.3125 -1.421875 17.546875 -0.640625 
Q 12.796875 0.140625 7.71875 1.703125 
L 7.71875 11.625 
Q 12.109375 9.234375 16.796875 8.0625 
Q 21.484375 6.890625 26.703125 6.890625 
Q 35.15625 6.890625 40.078125 11.328125 
Q 45.015625 15.765625 45.015625 23.390625 
Q 45.015625 31 40.078125 35.4375 
Q 35.15625 39.890625 26.703125 39.890625 
Q 22.75 39.890625 18.8125 39.015625 
Q 14.890625 38.140625 10.796875 36.28125 
z
" id="DejaVuSans-53"/>
      </defs>
      <g transform="translate(256.603348 668.315781)scale(0.27 -0.27)">
       <use xlink:href="#DejaVuSans-50"/>
       <use x="63.623047" xlink:href="#DejaVuSans-53"/>
       <use x="127.246094" xlink:href="#DejaVuSans-48"/>
      </g>
     </g>
    </g>
    <g id="xtick_3">
     <g id="line2d_5">
      <path clip-path="url(#p5cffadc7eb)" d="M 391.697492 640.8 
L 391.697492 86.4 
" style="fill:none;stroke:#b0b0b0;stroke-linecap:square;stroke-width:0.8;"/>
     </g>
     <g id="line2d_6">
      <g>
       <use style="stroke:#000000;stroke-width:0.8;" x="391.697492" xlink:href="#m70e33869b5" y="640.8"/>
      </g>
     </g>
     <g id="text_3">
      <!-- 500 -->
      <g transform="translate(365.929367 668.315781)scale(0.27 -0.27)">
       <use xlink:href="#DejaVuSans-53"/>
       <use x="63.623047" xlink:href="#DejaVuSans-48"/>
       <use x="127.246094" xlink:href="#DejaVuSans-48"/>
      </g>
     </g>
    </g>
    <g id="xtick_4">
     <g id="line2d_7">
      <path clip-path="url(#p5cffadc7eb)" d="M 501.023511 640.8 
L 501.023511 86.4 
" style="fill:none;stroke:#b0b0b0;stroke-linecap:square;stroke-width:0.8;"/>
     </g>
     <g id="line2d_8">
      <g>
       <use style="stroke:#000000;stroke-width:0.8;" x="501.023511" xlink:href="#m70e33869b5" y="640.8"/>
      </g>
     </g>
     <g id="text_4">
      <!-- 750 -->
      <defs>
       <path d="M 8.203125 72.90625 
L 55.078125 72.90625 
L 55.078125 68.703125 
L 28.609375 0 
L 18.3125 0 
L 43.21875 64.59375 
L 8.203125 64.59375 
z
" id="DejaVuSans-55"/>
      </defs>
      <g transform="translate(475.255386 668.315781)scale(0.27 -0.27)">
       <use xlink:href="#DejaVuSans-55"/>
       <use x="63.623047" xlink:href="#DejaVuSans-53"/>
       <use x="127.246094" xlink:href="#DejaVuSans-48"/>
      </g>
     </g>
    </g>
    <g id="xtick_5">
     <g id="line2d_9">
      <path clip-path="url(#p5cffadc7eb)" d="M 610.34953 640.8 
L 610.34953 86.4 
" style="fill:none;stroke:#b0b0b0;stroke-linecap:square;stroke-width:0.8;"/>
     </g>
     <g id="line2d_10">
      <g>
       <use style="stroke:#000000;stroke-width:0.8;" x="610.34953" xlink:href="#m70e33869b5" y="640.8"/>
      </g>
     </g>
     <g id="text_5">
      <!-- 1000 -->
      <defs>
       <path d="M 12.40625 8.296875 
L 28.515625 8.296875 
L 28.515625 63.921875 
L 10.984375 60.40625 
L 10.984375 69.390625 
L 28.421875 72.90625 
L 38.28125 72.90625 
L 38.28125 8.296875 
L 54.390625 8.296875 
L 54.390625 0 
L 12.40625 0 
z
" id="DejaVuSans-49"/>
      </defs>
      <g transform="translate(575.99203 668.315781)scale(0.27 -0.27)">
       <use xlink:href="#DejaVuSans-49"/>
       <use x="63.623047" xlink:href="#DejaVuSans-48"/>
       <use x="127.246094" xlink:href="#DejaVuSans-48"/>
       <use x="190.869141" xlink:href="#DejaVuSans-48"/>
      </g>
     </g>
    </g>
    <g id="xtick_6">
     <g id="line2d_11">
      <path clip-path="url(#p5cffadc7eb)" d="M 719.675549 640.8 
L 719.675549 86.4 
" style="fill:none;stroke:#b0b0b0;stroke-linecap:square;stroke-width:0.8;"/>
     </g>
     <g id="line2d_12">
      <g>
       <use style="stroke:#000000;stroke-width:0.8;" x="719.675549" xlink:href="#m70e33869b5" y="640.8"/>
      </g>
     </g>
     <g id="text_6">
      <!-- 1250 -->
      <g transform="translate(685.318049 668.315781)scale(0.27 -0.27)">
       <use xlink:href="#DejaVuSans-49"/>
       <use x="63.623047" xlink:href="#DejaVuSans-50"/>
       <use x="127.246094" xlink:href="#DejaVuSans-53"/>
       <use x="190.869141" xlink:href="#DejaVuSans-48"/>
      </g>
     </g>
    </g>
    <g id="xtick_7">
     <g id="line2d_13">
      <path clip-path="url(#p5cffadc7eb)" d="M 829.001567 640.8 
L 829.001567 86.4 
" style="fill:none;stroke:#b0b0b0;stroke-linecap:square;stroke-width:0.8;"/>
     </g>
     <g id="line2d_14">
      <g>
       <use style="stroke:#000000;stroke-width:0.8;" x="829.001567" xlink:href="#m70e33869b5" y="640.8"/>
      </g>
     </g>
     <g id="text_7">
      <!-- 1500 -->
      <g transform="translate(794.644067 668.315781)scale(0.27 -0.27)">
       <use xlink:href="#DejaVuSans-49"/>
       <use x="63.623047" xlink:href="#DejaVuSans-53"/>
       <use x="127.246094" xlink:href="#DejaVuSans-48"/>
       <use x="190.869141" xlink:href="#DejaVuSans-48"/>
      </g>
     </g>
    </g>
    <g id="xtick_8">
     <g id="line2d_15">
      <path clip-path="url(#p5cffadc7eb)" d="M 938.327586 640.8 
L 938.327586 86.4 
" style="fill:none;stroke:#b0b0b0;stroke-linecap:square;stroke-width:0.8;"/>
     </g>
     <g id="line2d_16">
      <g>
       <use style="stroke:#000000;stroke-width:0.8;" x="938.327586" xlink:href="#m70e33869b5" y="640.8"/>
      </g>
     </g>
     <g id="text_8">
      <!-- 1750 -->
      <g transform="translate(903.970086 668.315781)scale(0.27 -0.27)">
       <use xlink:href="#DejaVuSans-49"/>
       <use x="63.623047" xlink:href="#DejaVuSans-55"/>
       <use x="127.246094" xlink:href="#DejaVuSans-53"/>
       <use x="190.869141" xlink:href="#DejaVuSans-48"/>
      </g>
     </g>
    </g>
   </g>
   <g id="matplotlib.axis_2">
    <g id="ytick_1">
     <g id="line2d_17">
      <path clip-path="url(#p5cffadc7eb)" d="M 135 568.956416 
L 972 568.956416 
" style="fill:none;stroke:#b0b0b0;stroke-linecap:square;stroke-width:0.8;"/>
     </g>
     <g id="line2d_18">
      <defs>
       <path d="M 0 0 
L -3.5 0 
" id="m441be27bbe" style="stroke:#000000;stroke-width:0.8;"/>
      </defs>
      <g>
       <use style="stroke:#000000;stroke-width:0.8;" x="135" xlink:href="#m441be27bbe" y="568.956416"/>
      </g>
     </g>
     <g id="text_9">
      <!-- 3.0 -->
      <defs>
       <path d="M 40.578125 39.3125 
Q 47.65625 37.796875 51.625 33 
Q 55.609375 28.21875 55.609375 21.1875 
Q 55.609375 10.40625 48.1875 4.484375 
Q 40.765625 -1.421875 27.09375 -1.421875 
Q 22.515625 -1.421875 17.65625 -0.515625 
Q 12.796875 0.390625 7.625 2.203125 
L 7.625 11.71875 
Q 11.71875 9.328125 16.59375 8.109375 
Q 21.484375 6.890625 26.8125 6.890625 
Q 36.078125 6.890625 40.9375 10.546875 
Q 45.796875 14.203125 45.796875 21.1875 
Q 45.796875 27.640625 41.28125 31.265625 
Q 36.765625 34.90625 28.71875 34.90625 
L 20.21875 34.90625 
L 20.21875 43.015625 
L 29.109375 43.015625 
Q 36.375 43.015625 40.234375 45.921875 
Q 44.09375 48.828125 44.09375 54.296875 
Q 44.09375 59.90625 40.109375 62.90625 
Q 36.140625 65.921875 28.71875 65.921875 
Q 24.65625 65.921875 20.015625 65.03125 
Q 15.375 64.15625 9.8125 62.3125 
L 9.8125 71.09375 
Q 15.4375 72.65625 20.34375 73.4375 
Q 25.25 74.21875 29.59375 74.21875 
Q 40.828125 74.21875 47.359375 69.109375 
Q 53.90625 64.015625 53.90625 55.328125 
Q 53.90625 49.265625 50.4375 45.09375 
Q 46.96875 40.921875 40.578125 39.3125 
z
" id="DejaVuSans-51"/>
       <path d="M 10.6875 12.40625 
L 21 12.40625 
L 21 0 
L 10.6875 0 
z
" id="DejaVuSans-46"/>
      </defs>
      <g transform="translate(85.061562 579.214307)scale(0.27 -0.27)">
       <use xlink:href="#DejaVuSans-51"/>
       <use x="63.623047" xlink:href="#DejaVuSans-46"/>
       <use x="95.410156" xlink:href="#DejaVuSans-48"/>
      </g>
     </g>
    </g>
    <g id="ytick_2">
     <g id="line2d_19">
      <path clip-path="url(#p5cffadc7eb)" d="M 135 461.972879 
L 972 461.972879 
" style="fill:none;stroke:#b0b0b0;stroke-linecap:square;stroke-width:0.8;"/>
     </g>
     <g id="line2d_20">
      <g>
       <use style="stroke:#000000;stroke-width:0.8;" x="135" xlink:href="#m441be27bbe" y="461.972879"/>
      </g>
     </g>
     <g id="text_10">
      <!-- 3.5 -->
      <g transform="translate(85.061562 472.23077)scale(0.27 -0.27)">
       <use xlink:href="#DejaVuSans-51"/>
       <use x="63.623047" xlink:href="#DejaVuSans-46"/>
       <use x="95.410156" xlink:href="#DejaVuSans-53"/>
      </g>
     </g>
    </g>
    <g id="ytick_3">
     <g id="line2d_21">
      <path clip-path="url(#p5cffadc7eb)" d="M 135 354.989342 
L 972 354.989342 
" style="fill:none;stroke:#b0b0b0;stroke-linecap:square;stroke-width:0.8;"/>
     </g>
     <g id="line2d_22">
      <g>
       <use style="stroke:#000000;stroke-width:0.8;" x="135" xlink:href="#m441be27bbe" y="354.989342"/>
      </g>
     </g>
     <g id="text_11">
      <!-- 4.0 -->
      <defs>
       <path d="M 37.796875 64.3125 
L 12.890625 25.390625 
L 37.796875 25.390625 
z
M 35.203125 72.90625 
L 47.609375 72.90625 
L 47.609375 25.390625 
L 58.015625 25.390625 
L 58.015625 17.1875 
L 47.609375 17.1875 
L 47.609375 0 
L 37.796875 0 
L 37.796875 17.1875 
L 4.890625 17.1875 
L 4.890625 26.703125 
z
" id="DejaVuSans-52"/>
      </defs>
      <g transform="translate(85.061562 365.247233)scale(0.27 -0.27)">
       <use xlink:href="#DejaVuSans-52"/>
       <use x="63.623047" xlink:href="#DejaVuSans-46"/>
       <use x="95.410156" xlink:href="#DejaVuSans-48"/>
      </g>
     </g>
    </g>
    <g id="ytick_4">
     <g id="line2d_23">
      <path clip-path="url(#p5cffadc7eb)" d="M 135 248.005805 
L 972 248.005805 
" style="fill:none;stroke:#b0b0b0;stroke-linecap:square;stroke-width:0.8;"/>
     </g>
     <g id="line2d_24">
      <g>
       <use style="stroke:#000000;stroke-width:0.8;" x="135" xlink:href="#m441be27bbe" y="248.005805"/>
      </g>
     </g>
     <g id="text_12">
      <!-- 4.5 -->
      <g transform="translate(85.061562 258.263696)scale(0.27 -0.27)">
       <use xlink:href="#DejaVuSans-52"/>
       <use x="63.623047" xlink:href="#DejaVuSans-46"/>
       <use x="95.410156" xlink:href="#DejaVuSans-53"/>
      </g>
     </g>
    </g>
    <g id="ytick_5">
     <g id="line2d_25">
      <path clip-path="url(#p5cffadc7eb)" d="M 135 141.022268 
L 972 141.022268 
" style="fill:none;stroke:#b0b0b0;stroke-linecap:square;stroke-width:0.8;"/>
     </g>
     <g id="line2d_26">
      <g>
       <use style="stroke:#000000;stroke-width:0.8;" x="135" xlink:href="#m441be27bbe" y="141.022268"/>
      </g>
     </g>
     <g id="text_13">
      <!-- 5.0 -->
      <g transform="translate(85.061562 151.280159)scale(0.27 -0.27)">
       <use xlink:href="#DejaVuSans-53"/>
       <use x="63.623047" xlink:href="#DejaVuSans-46"/>
       <use x="95.410156" xlink:href="#DejaVuSans-48"/>
      </g>
     </g>
    </g>
   </g>
   <g id="line2d_27">
    <path clip-path="url(#p5cffadc7eb)" d="M 173.045455 458.720142 
L 173.482759 457.270077 
L 173.920063 457.722569 
L 174.357367 456.124717 
L 174.794671 460.168881 
L 175.231975 458.060637 
L 175.669279 456.898646 
L 176.106583 457.843267 
L 176.543887 456.138235 
L 176.981191 455.089444 
L 177.418495 453.18449 
L 177.855799 453.178623 
L 178.293103 449.92359 
L 178.730408 454.904723 
L 179.167712 452.070044 
L 179.605016 455.484596 
L 180.04232 449.598888 
L 180.479624 447.923393 
L 180.916928 441.988252 
L 181.354232 442.232302 
L 181.791536 440.889416 
L 182.22884 441.492093 
L 182.666144 439.936123 
L 183.540752 435.622351 
L 183.978056 439.976475 
L 184.415361 438.086722 
L 184.852665 437.621477 
L 185.289969 436.186767 
L 185.727273 433.574915 
L 186.164577 433.607717 
L 186.601881 434.580651 
L 187.039185 433.665261 
L 187.913793 425.888473 
L 188.351097 426.923236 
L 188.788401 428.286373 
L 189.225705 428.939655 
L 189.663009 426.984401 
L 190.974922 416.022725 
L 191.412226 414.886394 
L 191.84953 409.688759 
L 192.286834 410.369894 
L 192.724138 399.998242 
L 193.161442 405.407381 
L 193.598746 400.511593 
L 194.03605 400.846396 
L 194.473354 397.882193 
L 194.910658 398.927107 
L 195.347962 397.549685 
L 195.785266 396.985372 
L 196.222571 394.319598 
L 196.659875 396.186293 
L 197.097179 397.150707 
L 197.534483 393.946484 
L 197.971787 398.679691 
L 198.846395 398.115224 
L 199.721003 398.562359 
L 200.158307 395.839909 
L 200.595611 396.41259 
L 201.470219 387.959207 
L 202.344828 384.670505 
L 202.782132 385.723378 
L 203.219436 386.170615 
L 203.65674 384.961385 
L 204.968652 382.886147 
L 205.405956 382.625722 
L 205.84326 384.790438 
L 206.280564 382.860691 
L 206.717868 385.939574 
L 207.155172 383.608604 
L 207.592476 390.25105 
L 208.029781 388.776957 
L 208.467085 390.233348 
L 208.904389 389.530022 
L 209.341693 392.738377 
L 209.778997 392.590845 
L 210.216301 393.239944 
L 210.653605 392.323125 
L 211.090909 391.772789 
L 211.528213 390.668444 
L 211.965517 390.376237 
L 212.402821 388.778028 
L 212.840125 384.049005 
L 213.277429 384.202556 
L 214.152038 383.920195 
L 214.589342 383.995543 
L 215.026646 381.552954 
L 215.46395 380.776781 
L 216.775862 389.107985 
L 217.213166 390.621511 
L 217.65047 393.173932 
L 218.087774 397.179326 
L 218.525078 399.906724 
L 218.962382 404.58004 
L 219.399687 403.074319 
L 219.836991 404.67263 
L 220.274295 405.76616 
L 220.711599 401.41571 
L 221.148903 395.574944 
L 221.586207 401.872232 
L 222.023511 402.136687 
L 222.460815 401.794742 
L 222.898119 403.397083 
L 223.772727 400.62214 
L 224.210031 397.123874 
L 224.647335 396.157521 
L 225.084639 397.868164 
L 225.521944 394.788006 
L 225.959248 395.088579 
L 226.396552 393.379977 
L 227.27116 388.203869 
L 227.708464 384.486856 
L 228.583072 380.02693 
L 229.020376 380.498297 
L 230.332288 372.848942 
L 230.769592 372.67728 
L 231.644201 368.079821 
L 232.081505 369.579013 
L 232.518809 368.812736 
L 232.956113 363.96939 
L 233.393417 367.283803 
L 233.830721 365.948519 
L 234.268025 362.812909 
L 234.705329 365.017978 
L 235.142633 370.457724 
L 235.579937 364.224765 
L 236.017241 365.06639 
L 236.454545 363.639536 
L 236.89185 361.39937 
L 237.329154 359.955171 
L 237.766458 356.767987 
L 238.203762 354.96608 
L 238.641066 354.105274 
L 239.07837 353.529533 
L 239.515674 353.678902 
L 239.952978 357.113095 
L 240.390282 357.940282 
L 240.827586 357.938956 
L 241.26489 360.399144 
L 241.702194 360.395879 
L 242.139498 360.900252 
L 242.576803 361.233014 
L 243.014107 361.120274 
L 243.451411 357.398516 
L 243.888715 356.259584 
L 244.326019 356.694323 
L 244.763323 356.593112 
L 245.200627 351.996673 
L 246.075235 348.945134 
L 246.512539 349.348551 
L 246.949843 349.089911 
L 247.387147 347.124862 
L 247.824451 346.420567 
L 248.261755 346.947845 
L 248.69906 343.359233 
L 249.136364 346.489741 
L 249.573668 345.289286 
L 250.010972 347.612962 
L 250.448276 346.10673 
L 250.88558 348.363884 
L 251.322884 349.000127 
L 251.760188 347.933532 
L 252.197492 345.689642 
L 253.0721 350.891104 
L 253.509404 351.619171 
L 254.384013 349.714931 
L 254.821317 350.818766 
L 255.258621 349.223057 
L 255.695925 350.432184 
L 256.133229 349.610455 
L 256.570533 352.512626 
L 257.007837 351.627742 
L 257.445141 352.006876 
L 257.882445 354.991485 
L 258.319749 355.132538 
L 258.757053 355.527129 
L 259.194357 354.79549 
L 259.631661 355.166156 
L 260.068966 356.848537 
L 260.50627 356.625148 
L 260.943574 355.30073 
L 261.380878 357.173954 
L 261.818182 358.401293 
L 262.255486 359.052075 
L 263.130094 357.774641 
L 264.004702 361.548942 
L 264.442006 359.343568 
L 264.87931 358.710232 
L 265.316614 357.19589 
L 265.753918 359.301481 
L 266.191223 359.296482 
L 266.628527 358.468121 
L 267.065831 356.434714 
L 267.503135 355.658591 
L 267.940439 357.653636 
L 268.377743 356.000383 
L 268.815047 357.220223 
L 269.252351 355.8578 
L 269.689655 356.573931 
L 270.126959 356.122663 
L 270.564263 358.237437 
L 271.001567 359.112884 
L 271.438871 359.231848 
L 271.876176 360.295739 
L 272.31348 359.901199 
L 272.750784 360.014398 
L 273.188088 359.394479 
L 273.625392 360.650743 
L 274.062696 361.55991 
L 274.5 362.045 
L 274.937304 361.585315 
L 275.374608 361.56695 
L 275.811912 361.760904 
L 276.249216 362.653848 
L 276.68652 359.08401 
L 277.123824 361.674181 
L 277.561129 360.500202 
L 277.998433 360.744252 
L 278.435737 360.603505 
L 278.873041 363.453438 
L 279.310345 362.015667 
L 279.747649 363.078334 
L 280.184953 362.269256 
L 280.622257 361.942003 
L 281.059561 363.492412 
L 281.496865 363.286266 
L 281.934169 363.673358 
L 282.371473 364.304142 
L 282.808777 363.849406 
L 283.246082 363.110115 
L 283.683386 361.84375 
L 284.12069 362.221609 
L 284.557994 363.379825 
L 284.995298 365.788387 
L 285.432602 365.164846 
L 285.869906 364.943242 
L 286.30721 365.451033 
L 286.744514 366.33454 
L 287.181818 366.819782 
L 287.619122 366.408612 
L 288.056426 368.1668 
L 288.49373 368.818347 
L 288.931034 366.08544 
L 289.368339 366.008409 
L 289.805643 365.789203 
L 290.242947 363.501697 
L 290.680251 364.759491 
L 291.117555 363.222345 
L 291.554859 365.066594 
L 291.992163 363.78416 
L 292.429467 363.597041 
L 292.866771 361.796206 
L 293.304075 362.688997 
L 294.178683 363.919091 
L 294.615987 363.752429 
L 295.053292 361.791818 
L 295.490596 358.99494 
L 295.9279 361.307188 
L 296.365204 358.430167 
L 296.802508 359.185935 
L 297.239812 356.935414 
L 297.677116 356.321413 
L 298.11442 354.8312 
L 298.551724 354.973324 
L 298.989028 354.342284 
L 299.426332 352.860233 
L 299.863636 353.071226 
L 300.30094 352.86156 
L 300.738245 353.942949 
L 301.175549 353.075919 
L 301.612853 354.168123 
L 302.050157 354.817936 
L 302.487461 358.170915 
L 302.924765 359.019171 
L 303.799373 362.998803 
L 304.236677 366.421008 
L 304.673981 365.452972 
L 305.111285 368.651481 
L 305.548589 369.43092 
L 305.985893 372.731202 
L 306.423197 371.635325 
L 307.297806 372.776145 
L 307.73511 371.350158 
L 308.609718 370.311417 
L 309.047022 373.364282 
L 309.484326 373.111713 
L 309.92163 372.291004 
L 310.358934 372.322072 
L 310.796238 373.042743 
L 312.10815 377.009264 
L 312.545455 379.977293 
L 312.982759 380.685109 
L 313.420063 380.110541 
L 313.857367 382.149356 
L 314.294671 378.432292 
L 314.731975 379.133067 
L 315.169279 382.292909 
L 315.606583 380.741122 
L 316.481191 383.177027 
L 316.918495 380.660061 
L 317.355799 381.042766 
L 317.793103 380.694138 
L 318.230408 378.556459 
L 318.667712 383.50928 
L 319.105016 382.063347 
L 319.54232 383.01562 
L 319.979624 380.869932 
L 320.416928 379.515925 
L 320.854232 373.08539 
L 321.72884 375.626588 
L 323.478056 368.552515 
L 323.915361 370.74386 
L 324.352665 369.104483 
L 324.789969 368.443345 
L 325.227273 369.165036 
L 325.664577 368.971286 
L 326.101881 368.546444 
L 326.539185 370.016353 
L 326.976489 369.379549 
L 327.413793 367.14979 
L 327.851097 368.90303 
L 328.288401 369.409494 
L 328.725705 369.534223 
L 329.163009 370.063898 
L 330.037618 368.518641 
L 330.474922 368.222864 
L 330.912226 370.254741 
L 331.786834 368.412176 
L 332.224138 369.189217 
L 332.661442 369.280531 
L 333.098746 371.46499 
L 333.53605 370.562302 
L 333.973354 370.305397 
L 334.410658 366.849013 
L 334.847962 366.304085 
L 335.285266 365.529798 
L 336.597179 356.754264 
L 337.034483 356.723962 
L 337.471787 354.38636 
L 337.909091 351.105055 
L 338.346395 350.098044 
L 338.783699 348.245226 
L 339.221003 347.198016 
L 339.658307 344.971777 
L 340.095611 343.486971 
L 340.532915 340.661015 
L 340.970219 343.0959 
L 341.407524 342.238257 
L 341.844828 341.985127 
L 342.282132 342.424458 
L 342.719436 345.623018 
L 343.15674 346.654006 
L 343.594044 347.286678 
L 344.031348 348.154625 
L 344.905956 351.651412 
L 345.34326 355.740264 
L 345.780564 356.971787 
L 346.217868 356.347481 
L 346.655172 361.644848 
L 347.092476 361.493796 
L 347.529781 361.461148 
L 347.967085 362.505092 
L 348.404389 365.552703 
L 348.841693 366.264549 
L 349.278997 370.595869 
L 349.716301 373.437946 
L 350.153605 372.208515 
L 350.590909 374.707882 
L 351.028213 379.443894 
L 351.465517 378.969262 
L 351.902821 383.503974 
L 352.340125 384.051352 
L 354.089342 396.771675 
L 354.526646 401.730005 
L 354.96395 404.853831 
L 355.401254 409.926534 
L 355.838558 417.15676 
L 356.275862 418.803075 
L 356.713166 422.991353 
L 357.587774 425.557751 
L 358.025078 431.896411 
L 358.462382 432.427515 
L 358.899687 431.746328 
L 359.336991 431.685112 
L 359.774295 434.915607 
L 361.523511 441.744611 
L 361.960815 448.167545 
L 362.398119 452.83627 
L 362.835423 455.148365 
L 363.272727 456.005191 
L 363.710031 470.915993 
L 364.147335 457.525554 
L 364.584639 456.746115 
L 365.021944 457.968047 
L 365.459248 453.038896 
L 365.896552 453.350335 
L 366.333856 454.898908 
L 366.77116 464.163 
L 367.208464 470.361372 
L 367.645768 469.612899 
L 368.083072 482.518249 
L 368.520376 484.834782 
L 369.394984 478.060925 
L 369.832288 478.041642 
L 370.269592 479.292753 
L 370.706897 475.809689 
L 371.144201 474.643668 
L 371.581505 474.652647 
L 372.018809 475.226143 
L 372.456113 474.190666 
L 372.893417 476.328652 
L 373.330721 474.558577 
L 373.768025 473.692568 
L 374.205329 469.637079 
L 374.642633 473.937026 
L 375.079937 470.878192 
L 375.517241 468.907991 
L 375.954545 471.610086 
L 376.39185 475.500189 
L 376.829154 476.506588 
L 377.266458 475.601502 
L 377.703762 478.470718 
L 378.141066 479.545169 
L 378.57837 478.475258 
L 379.452978 471.865053 
L 379.890282 474.876444 
L 380.327586 474.772631 
L 380.76489 474.832776 
L 381.202194 478.664723 
L 381.639498 478.003126 
L 382.076803 477.713521 
L 382.514107 478.700025 
L 382.951411 476.85746 
L 383.388715 473.826377 
L 383.826019 476.047056 
L 384.263323 476.815476 
L 385.137931 480.06658 
L 385.575235 479.82452 
L 386.012539 480.925141 
L 386.887147 489.106264 
L 387.324451 491.038051 
L 387.761755 497.031144 
L 388.636364 501.352823 
L 389.073668 495.195007 
L 389.510972 497.69922 
L 389.948276 505.414331 
L 390.38558 509.006871 
L 390.822884 513.818639 
L 391.260188 515.686965 
L 391.697492 519.024079 
L 392.134796 519.320979 
L 393.009404 527.662948 
L 393.446708 517.055511 
L 393.884013 517.432145 
L 394.321317 512.653791 
L 394.758621 514.318114 
L 395.195925 518.472621 
L 395.633229 518.545877 
L 396.070533 523.541651 
L 396.507837 523.910786 
L 396.945141 527.329012 
L 397.382445 522.9805 
L 397.819749 520.899038 
L 398.257053 527.149444 
L 398.694357 522.288652 
L 399.131661 525.242142 
L 399.568966 524.678543 
L 400.00627 529.310793 
L 400.443574 532.110936 
L 401.318182 532.579549 
L 401.755486 534.40987 
L 402.19279 534.900367 
L 402.630094 537.648323 
L 403.067398 537.625367 
L 403.504702 542.098455 
L 403.942006 542.726791 
L 404.37931 542.11432 
L 404.816614 543.820117 
L 405.253918 547.112033 
L 405.691223 547.098157 
L 406.128527 547.329861 
L 406.565831 546.068751 
L 407.003135 545.293495 
L 407.440439 547.334453 
L 407.877743 550.007266 
L 408.315047 549.511718 
L 408.752351 552.970245 
L 409.189655 552.83664 
L 409.626959 552.952237 
L 410.064263 553.26388 
L 410.501567 556.67073 
L 410.938871 556.426017 
L 411.376176 555.946488 
L 411.81348 558.733827 
L 412.250784 557.734111 
L 412.688088 557.877561 
L 413.125392 560.757592 
L 413.562696 558.741632 
L 414 558.68516 
L 414.874608 564.501183 
L 415.311912 563.606658 
L 415.749216 567.529613 
L 416.18652 569.163634 
L 417.061129 571.749214 
L 417.498433 570.46229 
L 417.935737 575.274364 
L 418.373041 576.571439 
L 418.810345 576.933841 
L 419.247649 577.011279 
L 419.684953 577.216406 
L 420.122257 576.345958 
L 420.559561 575.896833 
L 420.996865 577.931873 
L 421.434169 575.678546 
L 421.871473 574.956906 
L 422.308777 574.008815 
L 423.183386 575.080563 
L 423.62069 576.404828 
L 424.057994 577.081831 
L 424.932602 584.146467 
L 425.369906 582.474747 
L 425.80721 584.652523 
L 426.244514 587.831444 
L 426.681818 588.269549 
L 427.119122 590.291172 
L 427.556426 590.320097 
L 427.99373 591.89382 
L 428.431034 595.368364 
L 428.868339 594.635297 
L 429.305643 595.155994 
L 429.742947 597.197309 
L 430.180251 597.386672 
L 430.617555 598.230643 
L 431.054859 597.338208 
L 431.492163 601.506948 
L 431.929467 601.54276 
L 432.804075 601.950359 
L 433.241379 604.301072 
L 433.678683 605.30594 
L 434.115987 607.428111 
L 434.553292 606.839413 
L 434.990596 607.218955 
L 435.4279 608.076292 
L 435.865204 610.797976 
L 436.302508 610.222184 
L 436.739812 611.855695 
L 437.177116 612.61886 
L 437.61442 611.702653 
L 438.051724 611.913289 
L 438.489028 614.161566 
L 438.926332 614.080301 
L 439.363636 612.058525 
L 439.80094 612.711501 
L 440.238245 611.846053 
L 440.675549 613.189806 
L 441.112853 613.105633 
L 441.987461 610.932193 
L 442.424765 611.032435 
L 442.862069 610.81175 
L 443.299373 611.629551 
L 443.736677 612.945909 
L 444.173981 615.6 
L 444.611285 611.8459 
L 445.048589 611.982464 
L 445.485893 608.964033 
L 445.923197 610.234682 
L 446.360502 608.566636 
L 446.797806 608.808747 
L 447.23511 608.769262 
L 447.672414 609.248485 
L 448.109718 607.819795 
L 448.547022 605.35624 
L 449.42163 602.444682 
L 449.858934 601.451241 
L 450.296238 599.796866 
L 450.733542 592.683155 
L 451.170846 592.052727 
L 451.60815 593.848972 
L 452.482759 595.657714 
L 453.357367 594.516843 
L 453.794671 591.721903 
L 454.231975 590.662807 
L 454.669279 592.336007 
L 455.106583 592.782683 
L 455.543887 590.645922 
L 455.981191 589.945605 
L 456.418495 589.853475 
L 456.855799 586.279555 
L 457.293103 587.279679 
L 457.730408 585.268361 
L 458.167712 584.527489 
L 458.605016 584.808778 
L 459.04232 584.073262 
L 459.479624 583.689639 
L 459.916928 582.106734 
L 460.354232 582.257123 
L 460.791536 581.018407 
L 461.22884 581.917882 
L 462.103448 579.099679 
L 463.415361 578.100065 
L 463.852665 580.26871 
L 464.289969 578.739828 
L 464.727273 580.130463 
L 465.164577 580.857102 
L 465.601881 579.540948 
L 466.039185 579.959158 
L 466.913793 572.80081 
L 467.351097 570.951257 
L 467.788401 572.228538 
L 468.225705 574.960324 
L 469.100313 582.036948 
L 469.537618 580.381246 
L 469.974922 577.940647 
L 470.412226 577.713738 
L 470.84953 578.626119 
L 471.286834 578.673919 
L 471.724138 578.325699 
L 472.161442 576.531342 
L 472.598746 572.655217 
L 473.03605 574.695205 
L 473.910658 571.29361 
L 474.347962 567.812535 
L 474.785266 566.948312 
L 475.222571 566.718954 
L 475.659875 565.876105 
L 476.097179 563.478256 
L 476.534483 562.647498 
L 476.971787 562.325754 
L 477.409091 561.685277 
L 477.846395 560.70566 
L 478.283699 561.890556 
L 478.721003 559.206877 
L 479.158307 558.488757 
L 480.032915 554.852651 
L 480.470219 554.886882 
L 480.907524 554.77205 
L 481.344828 555.485834 
L 481.782132 552.786442 
L 482.219436 553.72081 
L 482.65674 552.577031 
L 483.531348 554.43643 
L 483.968652 554.687214 
L 484.405956 555.869661 
L 484.84326 555.468693 
L 485.280564 555.90736 
L 485.717868 553.930833 
L 486.155172 553.504716 
L 486.592476 554.116931 
L 487.029781 552.878828 
L 487.467085 552.148618 
L 487.904389 552.435825 
L 488.341693 550.801243 
L 488.778997 550.577497 
L 489.216301 549.813209 
L 489.653605 548.683051 
L 490.090909 548.428238 
L 490.528213 547.404392 
L 490.965517 547.316343 
L 491.402821 541.819359 
L 491.840125 544.44024 
L 492.277429 543.248049 
L 493.589342 534.009871 
L 494.46395 532.217249 
L 494.901254 528.38117 
L 495.338558 522.581215 
L 495.775862 523.193023 
L 496.213166 520.872256 
L 496.65047 521.916558 
L 497.525078 516.751112 
L 497.962382 515.255797 
L 498.399687 514.175429 
L 498.836991 512.131003 
L 499.274295 512.244916 
L 499.711599 512.698785 
L 500.148903 515.120815 
L 500.586207 511.610459 
L 501.023511 514.292046 
L 501.460815 512.288635 
L 501.898119 512.102231 
L 502.335423 510.470302 
L 502.772727 509.529354 
L 503.210031 509.106195 
L 504.521944 499.841286 
L 504.959248 499.03532 
L 505.396552 497.098992 
L 505.833856 496.866012 
L 506.27116 497.524753 
L 506.708464 496.16034 
L 507.145768 493.989757 
L 507.583072 490.730031 
L 508.020376 490.588314 
L 508.45768 487.589422 
L 508.894984 487.699968 
L 509.332288 483.858329 
L 509.769592 481.992961 
L 510.206897 480.725321 
L 510.644201 479.904816 
L 511.081505 478.001698 
L 511.518809 476.819608 
L 512.393417 473.404749 
L 512.830721 469.961425 
L 513.268025 470.506557 
L 513.705329 469.357116 
L 514.142633 468.810402 
L 514.579937 469.041647 
L 515.017241 466.207427 
L 515.454545 470.724284 
L 515.89185 470.232052 
L 516.329154 468.441828 
L 516.766458 467.82446 
L 517.203762 470.993891 
L 517.641066 471.884438 
L 518.952978 469.951528 
L 519.390282 469.147705 
L 519.827586 470.504007 
L 520.26489 470.622358 
L 520.702194 468.160946 
L 521.139498 471.635491 
L 521.576803 472.63031 
L 522.014107 472.597814 
L 522.451411 476.017723 
L 522.888715 474.934855 
L 523.326019 476.354567 
L 523.763323 477.013664 
L 524.200627 477.224045 
L 524.637931 478.222128 
L 525.075235 481.08813 
L 525.512539 479.204091 
L 525.949843 479.046153 
L 526.387147 479.86931 
L 526.824451 478.934943 
L 527.261755 479.8738 
L 527.69906 479.073088 
L 528.136364 479.726625 
L 528.573668 480.019699 
L 529.010972 477.373362 
L 529.448276 477.316277 
L 529.88558 478.797716 
L 530.322884 481.336567 
L 530.760188 485.705842 
L 531.197492 484.670926 
L 531.634796 486.922672 
L 532.0721 484.654092 
L 532.509404 488.843951 
L 532.946708 490.505264 
L 533.384013 491.026369 
L 533.821317 489.551001 
L 534.695925 483.50062 
L 535.133229 484.271489 
L 536.007837 481.331874 
L 536.445141 482.214717 
L 537.319749 476.740332 
L 537.757053 478.725991 
L 538.194357 479.098187 
L 539.068966 474.766918 
L 539.50627 475.138195 
L 539.943574 476.278199 
L 540.380878 474.031606 
L 540.818182 474.528683 
L 541.255486 473.650584 
L 541.69279 472.30224 
L 542.130094 473.848415 
L 542.567398 475.827391 
L 543.004702 474.052266 
L 543.442006 475.484987 
L 543.87931 477.771626 
L 544.316614 472.890531 
L 544.753918 471.872909 
L 545.191223 471.700125 
L 545.628527 472.724124 
L 546.065831 473.167025 
L 546.503135 472.252145 
L 546.940439 469.754258 
L 547.377743 466.537077 
L 547.815047 471.366139 
L 548.252351 465.970825 
L 548.689655 463.296277 
L 549.126959 464.779552 
L 549.564263 462.552803 
L 550.438871 461.249454 
L 551.31348 455.415371 
L 551.750784 455.330229 
L 552.188088 454.647461 
L 552.625392 455.180044 
L 553.062696 456.719792 
L 553.5 456.065796 
L 555.68652 464.868418 
L 556.123824 469.395784 
L 556.998433 474.443184 
L 557.873041 475.363574 
L 558.310345 477.674496 
L 558.747649 478.634676 
L 559.184953 477.74867 
L 559.622257 478.650388 
L 560.496865 475.024333 
L 560.934169 477.21527 
L 561.371473 475.996246 
L 561.808777 475.371124 
L 562.246082 476.185915 
L 562.683386 477.265723 
L 563.12069 477.813865 
L 563.557994 476.183212 
L 563.995298 476.545868 
L 564.432602 476.719111 
L 564.869906 477.741528 
L 565.30721 477.277762 
L 565.744514 478.65804 
L 566.181818 475.884628 
L 567.49373 470.875386 
L 567.931034 470.472276 
L 568.805643 464.36379 
L 569.242947 464.977894 
L 569.680251 464.101274 
L 570.117555 461.857996 
L 570.554859 464.303186 
L 570.992163 461.719443 
L 571.429467 462.866742 
L 571.866771 462.932549 
L 572.304075 461.388619 
L 572.741379 462.068224 
L 573.615987 465.221739 
L 574.053292 465.153177 
L 574.490596 465.786104 
L 574.9279 465.283058 
L 575.365204 465.717287 
L 575.802508 465.85482 
L 576.239812 465.391156 
L 576.677116 464.329101 
L 577.11442 465.522618 
L 577.551724 464.854185 
L 577.989028 464.715683 
L 578.426332 463.352596 
L 578.863636 460.574593 
L 579.30094 456.498596 
L 579.738245 456.423198 
L 580.612853 455.423788 
L 581.050157 453.849198 
L 581.924765 448.452558 
L 582.362069 448.946983 
L 582.799373 448.906274 
L 583.673981 444.87216 
L 584.111285 446.49307 
L 584.548589 441.979886 
L 584.985893 445.321081 
L 585.423197 442.487574 
L 585.860502 444.475171 
L 586.297806 441.708085 
L 586.73511 443.100045 
L 587.172414 441.947033 
L 587.609718 441.279518 
L 588.047022 437.664023 
L 588.484326 438.100394 
L 588.92163 438.916359 
L 589.358934 433.875335 
L 589.796238 433.631184 
L 590.233542 430.870015 
L 590.670846 436.198398 
L 591.10815 436.76766 
L 591.545455 435.153127 
L 591.982759 430.155976 
L 592.420063 429.178604 
L 592.857367 427.912953 
L 593.294671 424.672714 
L 593.731975 420.459185 
L 594.169279 421.038649 
L 594.606583 419.070183 
L 595.043887 414.845787 
L 595.918495 410.907681 
L 596.793103 405.703974 
L 597.230408 407.522461 
L 597.667712 406.262014 
L 598.105016 404.273907 
L 598.54232 405.912825 
L 598.979624 406.317108 
L 599.416928 404.23483 
L 599.854232 399.758478 
L 600.291536 397.660028 
L 601.166144 391.735957 
L 601.603448 386.773801 
L 602.040752 386.865575 
L 602.478056 385.905905 
L 603.352665 379.063025 
L 604.227273 374.778485 
L 604.664577 376.927183 
L 605.101881 379.771606 
L 605.539185 379.729724 
L 605.976489 378.501619 
L 606.413793 372.980098 
L 606.851097 372.467614 
L 608.163009 363.306365 
L 608.600313 368.088749 
L 609.037618 360.775523 
L 609.474922 362.328279 
L 610.34953 358.681104 
L 610.786834 352.8636 
L 611.661442 348.754751 
L 612.098746 348.187784 
L 612.53605 341.268691 
L 612.973354 345.818299 
L 614.285266 341.09708 
L 615.597179 330.715583 
L 616.034483 330.950552 
L 616.471787 327.629049 
L 616.909091 326.910061 
L 617.783699 319.223313 
L 618.221003 320.491514 
L 618.658307 318.384953 
L 619.095611 317.459871 
L 619.532915 319.649584 
L 619.970219 319.511132 
L 620.407524 322.135891 
L 620.844828 323.110457 
L 621.282132 324.51364 
L 622.594044 329.807131 
L 623.031348 334.868917 
L 623.468652 335.453126 
L 623.905956 336.905283 
L 624.34326 340.32208 
L 624.780564 339.716241 
L 625.217868 341.611911 
L 625.655172 333.606735 
L 626.092476 336.541045 
L 626.529781 336.240064 
L 626.967085 337.369609 
L 627.404389 335.7286 
L 627.841693 330.863727 
L 629.153605 326.321567 
L 629.590909 323.4699 
L 630.028213 322.466256 
L 630.465517 315.900381 
L 630.902821 315.347902 
L 631.340125 309.003835 
L 631.777429 308.827736 
L 632.652038 302.299407 
L 633.526646 301.424726 
L 634.401254 303.168681 
L 635.275862 314.567902 
L 635.713166 318.117437 
L 636.15047 314.017158 
L 636.587774 314.143978 
L 637.025078 316.064849 
L 637.462382 315.727751 
L 637.899687 315.064062 
L 638.336991 314.697477 
L 638.774295 313.695976 
L 639.211599 314.479139 
L 639.648903 316.290942 
L 640.086207 313.592928 
L 640.523511 307.759203 
L 640.960815 307.815726 
L 641.398119 302.802607 
L 641.835423 300.217333 
L 642.272727 295.990846 
L 643.147335 290.456367 
L 643.584639 290.583187 
L 644.021944 288.187991 
L 644.459248 286.4674 
L 644.896552 287.644592 
L 645.333856 286.392818 
L 645.77116 284.511636 
L 646.208464 283.856313 
L 646.645768 283.407392 
L 647.083072 282.246524 
L 647.520376 280.76886 
L 647.95768 278.511911 
L 648.394984 277.202389 
L 649.269592 277.393588 
L 649.706897 278.731678 
L 650.144201 277.860976 
L 650.581505 278.253986 
L 651.456113 273.176896 
L 651.893417 273.068645 
L 652.330721 272.635844 
L 652.768025 268.601577 
L 653.205329 269.13518 
L 653.642633 268.552604 
L 654.079937 266.822728 
L 654.517241 266.138124 
L 654.954545 265.844489 
L 655.39185 265.402914 
L 655.829154 265.875097 
L 656.266458 265.432196 
L 656.703762 265.863568 
L 657.141066 266.513687 
L 657.57837 267.835555 
L 658.015674 267.816067 
L 658.452978 267.086367 
L 658.890282 266.878945 
L 659.327586 266.068439 
L 659.76489 268.68177 
L 660.202194 265.352615 
L 660.639498 265.803882 
L 661.076803 263.622739 
L 661.514107 262.383208 
L 661.951411 259.376255 
L 662.388715 258.074282 
L 662.826019 255.614196 
L 663.263323 249.781797 
L 663.700627 245.711412 
L 664.575235 241.55563 
L 665.012539 238.165666 
L 665.449843 237.595944 
L 665.887147 234.116502 
L 666.324451 233.628301 
L 666.761755 237.23742 
L 667.19906 228.783323 
L 667.636364 227.862628 
L 668.073668 226.121427 
L 668.510972 221.189216 
L 668.948276 223.694704 
L 669.38558 220.590009 
L 669.822884 219.881224 
L 670.697492 211.613328 
L 671.5721 206.774778 
L 672.009404 206.378809 
L 672.446708 204.637507 
L 672.884013 204.832583 
L 673.321317 199.961384 
L 673.758621 197.069416 
L 674.195925 195.406981 
L 674.633229 191.876525 
L 675.507837 181.932522 
L 675.945141 182.94545 
L 676.382445 180.407007 
L 676.819749 182.061994 
L 677.257053 183.223475 
L 677.694357 181.989759 
L 678.131661 178.324423 
L 678.568966 177.306699 
L 679.00627 177.897234 
L 679.443574 174.966393 
L 679.880878 172.907785 
L 680.318182 169.656171 
L 680.755486 168.53193 
L 681.19279 173.06654 
L 682.067398 171.938729 
L 682.504702 173.197135 
L 682.942006 171.254125 
L 683.37931 168.786489 
L 683.816614 164.561328 
L 684.691223 171.258308 
L 685.128527 178.245964 
L 685.565831 180.782876 
L 686.003135 182.588762 
L 686.440439 181.318316 
L 686.877743 174.005193 
L 687.752351 165.272561 
L 688.189655 165.757498 
L 688.626959 163.675117 
L 689.064263 167.276788 
L 689.501567 168.376236 
L 689.938871 167.360757 
L 690.376176 168.530094 
L 690.81348 169.373657 
L 691.250784 172.599356 
L 691.688088 171.040275 
L 692.125392 172.879932 
L 692.562696 175.909535 
L 693 183.119713 
L 693.437304 187.895924 
L 693.874608 186.969209 
L 694.311912 186.826268 
L 694.749216 185.342381 
L 695.18652 184.729196 
L 695.623824 189.200141 
L 696.061129 189.992894 
L 696.498433 192.127003 
L 696.935737 192.458388 
L 697.810345 205.175905 
L 698.247649 207.158503 
L 698.684953 207.642419 
L 699.122257 204.546702 
L 699.559561 202.827132 
L 699.996865 199.488793 
L 700.434169 199.68489 
L 700.871473 200.778114 
L 701.308777 200.305013 
L 701.746082 198.961107 
L 702.183386 199.583475 
L 702.62069 200.802193 
L 703.057994 202.779077 
L 703.495298 200.12269 
L 703.932602 199.822933 
L 704.369906 198.270586 
L 704.80721 195.63389 
L 705.244514 194.066953 
L 705.681818 190.767385 
L 706.119122 193.949621 
L 706.556426 195.491766 
L 706.99373 194.693095 
L 707.431034 191.939374 
L 707.868339 191.256606 
L 708.305643 191.888258 
L 708.742947 191.653595 
L 709.180251 194.974181 
L 709.617555 196.216977 
L 710.054859 196.777414 
L 710.492163 200.22686 
L 710.929467 205.359249 
L 711.366771 207.009849 
L 711.804075 207.584161 
L 712.678683 196.747826 
L 713.115987 200.429282 
L 713.553292 200.900955 
L 713.990596 206.09354 
L 714.4279 206.829362 
L 714.865204 206.457982 
L 715.302508 204.850846 
L 715.739812 210.065367 
L 716.61442 204.410904 
L 717.051724 206.975976 
L 717.489028 210.452765 
L 717.926332 210.648862 
L 718.363636 213.833037 
L 718.80094 212.44628 
L 719.238245 209.288326 
L 719.675549 209.680111 
L 720.112853 209.430246 
L 720.550157 229.09767 
L 721.424765 241.660004 
L 721.862069 234.178841 
L 722.299373 232.731786 
L 722.736677 232.924822 
L 723.173981 234.475945 
L 723.611285 233.911733 
L 724.048589 231.562755 
L 724.485893 235.140858 
L 724.923197 235.337567 
L 725.360502 228.886983 
L 725.797806 228.138714 
L 726.23511 229.040637 
L 726.672414 227.154149 
L 727.109718 222.326312 
L 727.547022 218.941959 
L 727.984326 216.993949 
L 728.42163 210.506636 
L 729.296238 205.007662 
L 729.733542 203.552241 
L 730.60815 197.192972 
L 731.045455 200.304707 
L 731.482759 201.307535 
L 731.920063 198.681654 
L 732.357367 197.66444 
L 732.794671 203.992897 
L 733.669279 190.621792 
L 734.106583 190.058294 
L 734.543887 191.008578 
L 734.981191 187.771247 
L 735.418495 180.97479 
L 735.855799 178.608671 
L 736.293103 178.622649 
L 736.730408 174.708978 
L 737.167712 175.937593 
L 737.605016 175.773533 
L 738.04232 171.273408 
L 738.479624 168.893209 
L 738.916928 167.393508 
L 739.354232 163.025917 
L 739.791536 161.757613 
L 740.22884 158.386626 
L 740.666144 156.365667 
L 741.103448 157.092306 
L 741.540752 159.14214 
L 741.978056 155.433952 
L 742.415361 154.781588 
L 743.289969 152.495459 
L 743.727273 152.64799 
L 744.164577 150.888731 
L 744.601881 147.23472 
L 745.039185 147.294202 
L 745.476489 145.74216 
L 745.913793 139.425029 
L 746.351097 144.60282 
L 746.788401 133.649357 
L 747.225705 131.884078 
L 747.663009 133.625584 
L 748.100313 133.279303 
L 748.537618 135.200174 
L 748.974922 135.262105 
L 749.412226 137.198075 
L 749.84953 137.823198 
L 750.286834 138.806334 
L 750.724138 137.107475 
L 751.598746 135.837947 
L 752.03605 137.988788 
L 752.473354 129.778333 
L 752.910658 127.729214 
L 753.347962 130.605368 
L 753.785266 132.535013 
L 754.222571 129.806697 
L 754.659875 131.112138 
L 755.097179 133.575897 
L 755.534483 134.338552 
L 755.971787 133.817498 
L 756.409091 132.998421 
L 756.846395 133.703839 
L 757.721003 131.860815 
L 758.158307 131.40965 
L 758.595611 133.443261 
L 759.470219 138.980393 
L 759.907524 137.961037 
L 760.344828 138.05378 
L 760.782132 137.403457 
L 761.219436 138.199577 
L 761.65674 137.822892 
L 762.094044 140.011176 
L 762.531348 140.764139 
L 762.968652 140.940952 
L 763.405956 140.048212 
L 763.84326 141.344981 
L 764.280564 141.807472 
L 764.717868 140.665376 
L 765.155172 142.568698 
L 765.592476 143.623356 
L 766.029781 140.242677 
L 766.467085 140.07882 
L 766.904389 138.971108 
L 767.341693 137.360911 
L 768.216301 135.248127 
L 768.653605 136.286562 
L 769.528213 143.530103 
L 769.965517 143.325232 
L 770.402821 142.288429 
L 770.840125 140.099532 
L 771.277429 142.837847 
L 771.714734 143.11128 
L 772.152038 141.322535 
L 772.589342 142.246496 
L 773.026646 149.079988 
L 773.901254 154.897594 
L 774.338558 155.126543 
L 774.775862 155.059103 
L 775.213166 153.937107 
L 775.65047 156.975485 
L 776.525078 159.979785 
L 776.962382 161.279717 
L 777.836991 167.723158 
L 778.274295 168.115964 
L 778.711599 168.926368 
L 779.148903 170.596456 
L 779.586207 170.611862 
L 780.023511 168.386235 
L 780.460815 170.756435 
L 780.898119 169.932665 
L 781.335423 167.767642 
L 781.772727 169.232247 
L 782.647335 175.050668 
L 783.084639 176.363251 
L 784.833856 190.756162 
L 785.27116 188.634297 
L 785.708464 184.88642 
L 786.145768 185.137 
L 786.583072 184.718075 
L 787.45768 180.697989 
L 787.894984 179.083303 
L 788.769592 177.330063 
L 789.206897 174.197208 
L 789.644201 173.103372 
L 790.081505 169.834413 
L 790.518809 168.733536 
L 790.956113 164.463585 
L 791.830721 159.622893 
L 792.268025 157.289627 
L 792.705329 151.88156 
L 793.142633 152.127446 
L 793.579937 151.017898 
L 794.017241 146.156902 
L 794.454545 150.701205 
L 794.89185 148.093689 
L 796.203762 133.640888 
L 796.641066 130.671583 
L 797.07837 131.518411 
L 797.515674 131.151725 
L 797.952978 129.541425 
L 799.26489 127.351202 
L 799.702194 128.649399 
L 800.576803 118.111188 
L 801.014107 119.098814 
L 801.451411 121.681639 
L 801.888715 121.319237 
L 802.763323 127.865624 
L 803.200627 128.981295 
L 803.637931 129.137091 
L 804.075235 128.507683 
L 804.512539 132.487264 
L 804.949843 134.376914 
L 805.387147 134.414154 
L 805.824451 136.067917 
L 806.261755 139.269845 
L 806.69906 144.917574 
L 807.136364 146.159248 
L 808.448276 156.913248 
L 809.322884 168.643854 
L 809.760188 177.300781 
L 810.197492 179.11534 
L 810.634796 182.220749 
L 811.0721 183.028807 
L 811.509404 188.049067 
L 811.946708 189.325023 
L 812.384013 189.366242 
L 812.821317 194.550359 
L 813.258621 194.812671 
L 813.695925 194.334162 
L 814.570533 188.656845 
L 815.007837 187.350179 
L 815.445141 188.624502 
L 815.882445 186.442747 
L 816.319749 189.6812 
L 816.757053 189.996159 
L 817.194357 187.689523 
L 817.631661 189.844853 
L 818.068966 188.690004 
L 818.50627 189.956675 
L 818.943574 188.088144 
L 819.380878 188.453402 
L 819.818182 186.382041 
L 820.255486 187.219074 
L 820.69279 186.620887 
L 821.130094 185.597756 
L 821.567398 186.327252 
L 822.004702 189.266357 
L 822.442006 189.892091 
L 822.87931 189.587233 
L 823.316614 192.033954 
L 823.753918 192.464713 
L 824.191223 191.631965 
L 824.628527 192.046197 
L 825.065831 190.214498 
L 826.377743 179.664451 
L 826.815047 179.599766 
L 827.252351 177.402095 
L 828.126959 175.493263 
L 828.564263 170.293128 
L 829.001567 170.379749 
L 829.438871 168.144532 
L 829.876176 166.504849 
L 830.31348 165.83208 
L 830.750784 165.488859 
L 831.188088 161.860151 
L 831.625392 160.199144 
L 832.062696 160.115686 
L 832.5 162.789621 
L 832.937304 161.35736 
L 833.374608 161.104026 
L 833.811912 156.24507 
L 834.249216 156.236194 
L 834.68652 150.559795 
L 835.123824 150.184538 
L 835.561129 147.435306 
L 835.998433 146.959552 
L 836.435737 138.47699 
L 836.873041 138.688492 
L 837.310345 133.598241 
L 837.747649 131.874793 
L 838.184953 131.280585 
L 838.622257 132.545726 
L 839.059561 131.628091 
L 839.496865 122.471637 
L 839.934169 119.504781 
L 840.371473 118.311468 
L 840.808777 122.805471 
L 841.246082 121.186295 
L 841.683386 121.213945 
L 842.12069 121.401573 
L 842.557994 119.251243 
L 842.995298 116.50752 
L 843.432602 112.947987 
L 843.869906 112.466519 
L 844.30721 111.6 
L 844.744514 114.139973 
L 845.181818 112.593951 
L 845.619122 113.396193 
L 846.056426 112.616499 
L 846.49373 113.133473 
L 846.931034 113.210605 
L 847.368339 115.703748 
L 847.805643 121.405756 
L 848.242947 122.77323 
L 848.680251 120.909801 
L 849.117555 118.239232 
L 849.554859 118.994338 
L 849.992163 120.427619 
L 850.429467 122.348082 
L 850.866771 118.701927 
L 851.304075 124.099281 
L 852.178683 131.001336 
L 853.053292 137.614858 
L 853.490596 139.489612 
L 853.9279 143.885465 
L 854.365204 145.852758 
L 854.802508 149.987114 
L 855.239812 149.3473 
L 855.677116 150.304012 
L 856.11442 150.59683 
L 856.551724 153.453701 
L 856.989028 150.513882 
L 857.426332 148.89185 
L 857.863636 149.109474 
L 858.30094 150.556326 
L 858.738245 151.115844 
L 859.612853 143.774255 
L 860.050157 144.582516 
L 860.487461 146.696729 
L 860.924765 145.284057 
L 861.362069 145.248041 
L 862.236677 147.000873 
L 863.111285 150.064757 
L 863.548589 152.895815 
L 863.985893 150.013233 
L 864.423197 150.812312 
L 864.860502 151.098908 
L 865.297806 150.4393 
L 865.73511 152.625442 
L 866.172414 152.461178 
L 866.609718 155.227959 
L 867.484326 157.011092 
L 867.92163 161.457653 
L 868.358934 161.675685 
L 868.796238 164.997393 
L 869.670846 165.7526 
L 870.545455 170.848974 
L 870.982759 172.421829 
L 871.420063 171.790585 
L 871.857367 172.101054 
L 872.294671 172.089219 
L 872.731975 172.580787 
L 873.169279 172.615477 
L 873.606583 180.226521 
L 874.043887 181.457686 
L 874.481191 185.481853 
L 874.918495 177.092339 
L 875.355799 176.115018 
L 875.793103 177.965082 
L 876.230408 178.830275 
L 876.667712 183.934198 
L 877.105016 184.409442 
L 877.54232 187.373135 
L 877.979624 188.92079 
L 878.416928 193.814231 
L 878.854232 194.356506 
L 879.291536 197.553333 
L 879.72884 198.619519 
L 880.166144 199.35024 
L 880.603448 200.658946 
L 881.040752 203.242995 
L 881.478056 200.686902 
L 881.915361 202.432285 
L 883.227273 210.97535 
L 883.664577 212.865 
L 884.101881 213.232299 
L 884.539185 216.386886 
L 884.976489 216.227009 
L 885.413793 217.156683 
L 885.851097 217.533879 
L 887.600313 230.31649 
L 888.912226 234.719689 
L 889.34953 238.360232 
L 890.224138 243.224493 
L 890.661442 245.058538 
L 891.098746 245.379007 
L 891.53605 248.155275 
L 891.973354 248.405549 
L 892.410658 249.574579 
L 892.847962 251.438825 
L 893.285266 250.617912 
L 893.722571 252.894247 
L 894.159875 252.849763 
L 894.597179 253.983798 
L 895.471787 249.980241 
L 895.909091 250.490786 
L 896.346395 250.724837 
L 896.783699 253.1838 
L 897.221003 252.182707 
L 897.658307 252.863842 
L 898.532915 256.145759 
L 898.970219 257.82156 
L 899.407524 257.862779 
L 899.844828 256.76425 
L 900.282132 258.488514 
L 900.719436 258.887441 
L 901.15674 258.859077 
L 902.031348 262.518394 
L 902.468652 264.094514 
L 902.905956 264.986234 
L 903.34326 264.747286 
L 903.780564 267.577017 
L 904.217868 268.004716 
L 904.655172 267.390205 
L 905.092476 266.147408 
L 905.529781 265.849692 
L 905.967085 262.972212 
L 906.404389 266.418291 
L 906.841693 265.178046 
L 907.278997 267.69241 
L 907.716301 267.518249 
L 908.153605 266.903024 
L 908.590909 267.241449 
L 909.028213 269.047437 
L 909.465517 269.464219 
L 909.902821 270.131682 
L 910.340125 271.714332 
L 910.777429 272.460561 
L 911.214734 271.633425 
L 911.652038 274.453769 
L 912.089342 274.747915 
L 912.526646 276.897123 
L 912.96395 275.990507 
L 913.401254 276.029583 
L 913.838558 277.036696 
L 914.275862 277.362572 
L 914.713166 276.732757 
L 915.15047 275.83869 
L 915.587774 275.387321 
L 916.025078 273.950876 
L 916.462382 274.142178 
L 916.899687 271.490076 
L 917.774295 269.201396 
L 918.211599 269.044988 
L 918.648903 266.410333 
L 919.086207 265.687571 
L 919.960815 266.034872 
L 920.398119 261.839095 
L 920.835423 263.433376 
L 921.272727 262.6445 
L 921.710031 263.74303 
L 922.147335 261.216116 
L 922.584639 260.443462 
L 923.021944 260.427954 
L 923.459248 259.188422 
L 923.896552 257.220721 
L 924.333856 254.491486 
L 924.77116 256.348794 
L 925.208464 253.285114 
L 925.645768 254.370686 
L 926.083072 255.811007 
L 926.520376 255.989453 
L 926.95768 255.913137 
L 927.832288 256.396135 
L 928.269592 253.95676 
L 928.706897 253.958291 
L 929.144201 253.793925 
L 929.581505 253.190228 
L 930.018809 253.952169 
L 930.456113 255.324438 
L 930.893417 257.429265 
L 931.330721 256.367261 
L 931.768025 256.287884 
L 932.205329 254.724313 
L 932.642633 255.294034 
L 933.079937 256.685995 
L 933.517241 257.176135 
L 933.954545 259.410638 
L 933.954545 259.410638 
" style="fill:none;stroke:#ff0000;stroke-linecap:square;stroke-width:1.5;"/>
   </g>
   <g id="line2d_28">
    <path clip-path="url(#p5cffadc7eb)" d="M 173.045455 440.859931 
L 173.482759 438.061164 
L 173.920063 438.825707 
L 174.357367 440.862022 
L 174.794671 442.331319 
L 175.231975 440.782696 
L 175.669279 436.793933 
L 176.106583 435.876196 
L 176.981191 431.909878 
L 177.418495 431.289552 
L 178.293103 434.081278 
L 178.730408 438.11932 
L 179.167712 439.423894 
L 179.605016 442.335247 
L 180.04232 442.29362 
L 180.916928 446.069503 
L 181.354232 446.65912 
L 182.22884 444.904605 
L 184.415361 457.848164 
L 184.852665 458.692339 
L 185.727273 455.227997 
L 186.164577 455.817614 
L 186.601881 460.74906 
L 187.039185 462.19132 
L 187.476489 462.795118 
L 187.913793 461.244964 
L 188.351097 462.632385 
L 188.788401 460.386556 
L 189.663009 454.945228 
L 191.412226 437.678919 
L 191.84953 432.897555 
L 192.286834 434.310125 
L 192.724138 433.487733 
L 193.161442 434.98269 
L 194.03605 431.19941 
L 194.473354 424.989867 
L 195.347962 416.925515 
L 197.097179 410.704289 
L 197.534483 414.336262 
L 198.409091 419.099006 
L 198.846395 420.160193 
L 199.283699 418.652023 
L 199.721003 418.139641 
L 200.158307 419.006059 
L 200.595611 418.788026 
L 201.032915 415.11065 
L 201.470219 408.88667 
L 201.907524 406.885095 
L 202.344828 407.103485 
L 202.782132 408.765053 
L 203.219436 408.717814 
L 203.65674 406.365674 
L 204.094044 402.558009 
L 204.531348 395.925204 
L 204.968652 391.406613 
L 205.405956 384.698053 
L 205.84326 381.174075 
L 206.280564 371.243233 
L 206.717868 369.395516 
L 207.155172 365.354974 
L 207.592476 363.767325 
L 208.029781 361.456352 
L 208.467085 362.448212 
L 208.904389 362.89244 
L 209.341693 364.736586 
L 209.778997 365.13286 
L 210.216301 368.298823 
L 210.653605 372.588874 
L 211.090909 374.134487 
L 211.965517 387.170637 
L 212.840125 396.979658 
L 213.277429 400.317078 
L 213.714734 400.47369 
L 214.152038 401.320467 
L 214.589342 395.939386 
L 215.46395 382.797536 
L 215.901254 376.867344 
L 216.338558 374.591519 
L 217.213166 372.617339 
L 218.087774 371.647823 
L 218.525078 371.626959 
L 218.962382 372.341559 
L 219.399687 375.582155 
L 219.836991 377.544959 
L 220.274295 381.902756 
L 220.711599 383.07199 
L 221.148903 388.848682 
L 222.023511 397.104744 
L 222.460815 399.504736 
L 222.898119 404.155147 
L 223.772727 410.341173 
L 224.210031 411.675641 
L 224.647335 412.243067 
L 225.084639 410.902426 
L 225.521944 408.255273 
L 225.959248 404.853831 
L 226.833856 392.69976 
L 227.27116 387.894828 
L 227.708464 384.772125 
L 228.145768 382.617866 
L 229.020376 376.292674 
L 229.45768 376.04689 
L 229.894984 378.083868 
L 230.332288 381.724922 
L 230.769592 388.900971 
L 231.206897 391.996841 
L 232.956113 416.173011 
L 233.393417 418.781445 
L 233.830721 420.641304 
L 234.268025 411.933924 
L 234.705329 407.521645 
L 235.579937 402.157704 
L 236.017241 399.851527 
L 236.454545 400.115217 
L 236.89185 399.586357 
L 237.329154 398.7028 
L 238.203762 390.999319 
L 238.641066 389.805598 
L 239.07837 387.053203 
L 239.952978 383.041076 
L 240.827586 374.796339 
L 241.702194 362.865657 
L 242.139498 357.932324 
L 243.888715 345.781059 
L 245.200627 342.683301 
L 245.637931 344.132397 
L 246.075235 346.06745 
L 246.512539 346.600441 
L 247.387147 350.940383 
L 247.824451 352.544867 
L 248.261755 355.201304 
L 248.69906 362.656552 
L 249.136364 362.624669 
L 249.573668 363.827521 
L 250.010972 363.126236 
L 250.88558 357.047695 
L 251.322884 351.849243 
L 251.760188 345.179097 
L 253.0721 330.739968 
L 253.509404 332.185187 
L 253.946708 332.205898 
L 254.384013 332.068467 
L 255.695925 342.593823 
L 256.570533 348.000666 
L 257.007837 347.546032 
L 257.445141 346.277014 
L 257.882445 347.438086 
L 258.319749 348.95197 
L 258.757053 347.451452 
L 259.631661 343.186705 
L 260.068966 342.752578 
L 260.50627 342.595047 
L 260.943574 341.087286 
L 261.380878 340.050483 
L 261.818182 340.511545 
L 262.255486 337.920762 
L 262.69279 339.525245 
L 263.130094 340.375032 
L 263.567398 343.248023 
L 264.004702 344.630189 
L 264.87931 351.179127 
L 265.316614 353.314153 
L 265.753918 352.690358 
L 266.191223 354.815079 
L 267.065831 362.455507 
L 267.503135 364.575791 
L 267.940439 364.73378 
L 268.377743 365.592545 
L 268.815047 365.204025 
L 269.252351 365.939081 
L 269.689655 365.54347 
L 270.126959 367.540555 
L 271.001567 367.722062 
L 271.438871 369.664512 
L 272.31348 371.80163 
L 272.750784 372.012112 
L 273.188088 372.534085 
L 273.625392 373.905334 
L 274.062696 374.654266 
L 274.5 374.466332 
L 274.937304 375.161751 
L 275.811912 377.731771 
L 276.249216 377.710346 
L 276.68652 376.147387 
L 277.123824 375.296529 
L 277.561129 375.769018 
L 278.435737 370.359523 
L 278.873041 367.013685 
L 279.310345 365.793539 
L 279.747649 365.301002 
L 280.184953 364.557017 
L 281.059561 361.131599 
L 281.496865 361.585519 
L 281.934169 361.094461 
L 282.371473 360.846483 
L 283.246082 358.830625 
L 283.683386 357.979971 
L 284.557994 359.782745 
L 284.995298 360.90923 
L 286.30721 365.899852 
L 286.744514 366.755352 
L 288.056426 370.441298 
L 288.49373 369.614212 
L 289.368339 368.536649 
L 289.805643 368.896755 
L 290.242947 365.701714 
L 290.680251 366.309747 
L 291.117555 365.923828 
L 291.554859 365.918064 
L 291.992163 365.53745 
L 292.429467 367.594018 
L 292.866771 367.550962 
L 293.304075 368.002893 
L 293.741379 367.246257 
L 294.178683 365.719263 
L 295.490596 368.128641 
L 295.9279 369.290632 
L 296.365204 369.51142 
L 296.802508 369.334402 
L 297.239812 367.481889 
L 297.677116 366.27516 
L 298.11442 366.864776 
L 298.551724 368.616537 
L 299.863636 370.556487 
L 300.30094 371.872998 
L 300.738245 372.702481 
L 301.175549 372.901078 
L 301.612853 374.363845 
L 302.050157 374.947136 
L 302.487461 372.999738 
L 303.362069 370.17419 
L 303.799373 367.48694 
L 304.236677 366.576396 
L 304.673981 364.773163 
L 305.985893 362.604059 
L 306.423197 361.307137 
L 306.860502 361.178736 
L 307.297806 361.529302 
L 307.73511 362.745877 
L 308.172414 363.591736 
L 308.609718 363.621273 
L 309.047022 361.89104 
L 309.484326 362.623903 
L 309.92163 361.383658 
L 310.358934 361.080024 
L 311.233542 357.65384 
L 311.670846 355.349805 
L 312.10815 353.892139 
L 313.420063 347.909147 
L 313.857367 347.853746 
L 314.294671 348.944012 
L 314.731975 349.681976 
L 315.169279 351.049246 
L 315.606583 351.982083 
L 316.043887 354.495835 
L 316.481191 355.36113 
L 317.355799 358.692429 
L 317.793103 362.662164 
L 318.230408 363.081343 
L 318.667712 366.396419 
L 319.105016 368.825489 
L 319.54232 372.315899 
L 319.979624 373.261643 
L 320.416928 373.0884 
L 320.854232 372.203669 
L 321.291536 370.138123 
L 322.166144 364.208849 
L 322.603448 364.362451 
L 323.040752 363.712128 
L 323.478056 362.714606 
L 323.915361 362.072394 
L 324.352665 361.189806 
L 325.227273 362.378425 
L 327.413793 368.549505 
L 327.851097 365.936276 
L 328.288401 365.844247 
L 328.725705 367.564022 
L 329.163009 367.308137 
L 330.037618 369.563147 
L 330.474922 366.940226 
L 330.912226 366.544869 
L 331.34953 365.219788 
L 331.786834 361.425081 
L 332.224138 363.486699 
L 332.661442 364.20691 
L 333.098746 363.075834 
L 333.53605 360.998351 
L 333.973354 358.012161 
L 334.410658 352.360197 
L 334.847962 348.740773 
L 335.285266 346.312724 
L 336.597179 336.918954 
L 337.034483 334.465092 
L 337.471787 335.432822 
L 338.346395 334.77852 
L 339.658307 339.478007 
L 340.095611 342.393135 
L 340.532915 343.984661 
L 340.970219 343.591754 
L 341.407524 344.094851 
L 342.282132 347.631224 
L 342.719436 349.478023 
L 343.15674 350.419737 
L 343.594044 350.812542 
L 344.031348 351.443888 
L 344.468652 352.287655 
L 344.905956 353.721753 
L 345.34326 353.105099 
L 345.780564 354.320858 
L 346.217868 352.539561 
L 346.655172 352.656689 
L 347.529781 347.887415 
L 348.404389 337.975448 
L 349.278997 331.370191 
L 351.028213 314.278144 
L 351.465517 310.684738 
L 352.340125 306.901152 
L 352.777429 305.667028 
L 354.526646 291.694368 
L 354.96395 290.106107 
L 355.401254 289.261728 
L 355.838558 289.108176 
L 356.713166 295.174014 
L 358.462382 308.499412 
L 358.899687 314.060928 
L 359.336991 317.661171 
L 359.774295 317.51017 
L 360.211599 321.038075 
L 360.648903 322.741934 
L 361.523511 320.031268 
L 361.960815 320.652105 
L 362.398119 320.721892 
L 363.272727 326.887513 
L 363.710031 327.35031 
L 364.147335 328.730537 
L 364.584639 333.26076 
L 365.021944 335.487815 
L 365.459248 340.444105 
L 366.333856 348.434793 
L 367.645768 366.435037 
L 368.520376 381.670439 
L 369.394984 393.262543 
L 370.269592 409.589843 
L 371.144201 419.094006 
L 371.581505 423.011197 
L 372.018809 425.20994 
L 372.456113 422.274049 
L 373.330721 419.266484 
L 373.768025 422.450505 
L 374.205329 422.05066 
L 375.079937 425.928417 
L 376.829154 447.181449 
L 377.266458 459.812244 
L 377.703762 457.563559 
L 379.452978 431.359134 
L 379.890282 429.218394 
L 380.327586 436.781638 
L 380.76489 446.7789 
L 381.202194 451.74932 
L 382.076803 483.531484 
L 382.514107 489.981047 
L 382.951411 491.245677 
L 383.826019 494.911626 
L 384.263323 490.523068 
L 384.700627 487.696295 
L 385.137931 486.506094 
L 385.575235 486.672399 
L 386.012539 486.683826 
L 386.449843 490.983263 
L 386.887147 492.253249 
L 387.324451 493.113545 
L 387.761755 491.033256 
L 388.19906 494.015723 
L 388.636364 491.877737 
L 389.073668 488.682442 
L 389.510972 491.029073 
L 390.38558 503.143507 
L 390.822884 506.601013 
L 391.697492 518.324987 
L 392.134796 519.712918 
L 392.5721 517.798219 
L 393.009404 513.202189 
L 393.446708 511.432931 
L 393.884013 511.43742 
L 394.321317 513.755484 
L 394.758621 517.028626 
L 395.195925 516.733665 
L 396.070533 513.753443 
L 396.945141 510.107594 
L 397.382445 510.630893 
L 397.819749 511.384978 
L 398.257053 511.603011 
L 399.131661 513.051188 
L 399.568966 514.829935 
L 400.00627 518.810944 
L 400.443574 525.453237 
L 400.880878 529.554027 
L 401.318182 536.350636 
L 402.19279 545.345019 
L 403.067398 537.52033 
L 403.504702 538.409958 
L 403.942006 539.749324 
L 404.816614 545.755119 
L 405.253918 548.672338 
L 405.691223 549.030047 
L 406.565831 551.172419 
L 407.440439 531.957691 
L 407.877743 522.120663 
L 408.315047 514.890029 
L 408.752351 512.232571 
L 409.189655 508.149279 
L 410.501567 516.096096 
L 410.938871 513.171377 
L 411.376176 509.157107 
L 411.81348 513.338498 
L 412.250784 510.184421 
L 412.688088 510.104431 
L 413.125392 509.420235 
L 414.437304 521.047692 
L 414.874608 523.304794 
L 416.18652 532.262345 
L 416.623824 533.788523 
L 417.498433 540.076424 
L 417.935737 539.882725 
L 418.373041 540.646808 
L 418.810345 542.929672 
L 419.247649 543.123678 
L 419.684953 543.077357 
L 420.559561 537.716835 
L 420.996865 538.032406 
L 421.434169 540.038265 
L 421.871473 541.083384 
L 422.308777 544.510588 
L 422.746082 545.914741 
L 423.183386 545.870971 
L 423.62069 544.689799 
L 424.057994 545.913006 
L 424.495298 545.822712 
L 424.932602 544.725764 
L 425.369906 544.567468 
L 426.244514 543.565609 
L 426.681818 545.406644 
L 427.556426 545.448424 
L 428.431034 550.52332 
L 428.868339 551.391472 
L 429.742947 558.370813 
L 430.180251 559.04149 
L 430.617555 561.02016 
L 431.054859 560.284287 
L 431.929467 565.696027 
L 432.366771 567.216848 
L 432.804075 566.835367 
L 433.241379 566.832001 
L 433.678683 565.063049 
L 434.115987 562.367075 
L 434.553292 561.789396 
L 435.4279 555.737484 
L 435.865204 551.780095 
L 436.302508 549.219614 
L 436.739812 548.564291 
L 437.177116 548.968371 
L 437.61442 550.512965 
L 438.051724 554.160752 
L 438.489028 560.11283 
L 438.926332 561.885404 
L 439.363636 564.154698 
L 440.238245 571.939393 
L 440.675549 576.300454 
L 441.550157 583.139048 
L 441.987461 589.217078 
L 442.424765 591.961617 
L 443.299373 594.617391 
L 443.736677 594.612035 
L 444.173981 594.179949 
L 444.611285 591.605133 
L 445.485893 593.606452 
L 445.923197 593.674097 
L 446.360502 592.953069 
L 446.797806 593.575028 
L 447.23511 593.853971 
L 447.672414 595.002035 
L 448.109718 593.969211 
L 448.547022 593.259406 
L 448.984326 593.499681 
L 449.42163 595.203284 
L 449.858934 596.085311 
L 450.296238 597.572872 
L 450.733542 598.602584 
L 451.60815 596.111175 
L 452.045455 596.105411 
L 452.482759 594.591732 
L 453.357367 587.939134 
L 453.794671 586.317254 
L 454.231975 586.588494 
L 454.669279 586.122127 
L 455.106583 584.87178 
L 456.418495 577.83459 
L 456.855799 576.879154 
L 457.293103 578.712893 
L 457.730408 583.148741 
L 458.167712 584.406739 
L 458.605016 586.044943 
L 459.04232 583.865892 
L 459.479624 582.499132 
L 460.354232 577.968705 
L 460.791536 575.892038 
L 461.22884 577.077852 
L 461.666144 576.635206 
L 462.103448 575.253346 
L 462.540752 574.333875 
L 463.415361 570.588906 
L 463.852665 567.733668 
L 464.727273 551.46784 
L 465.164577 547.282214 
L 465.601881 546.230618 
L 466.039185 547.135499 
L 466.476489 549.562426 
L 466.913793 551.35515 
L 467.351097 551.464116 
L 467.788401 552.18647 
L 468.663009 558.456414 
L 469.100313 559.653349 
L 469.974922 560.566699 
L 470.412226 557.658457 
L 470.84953 556.521616 
L 471.724138 553.136856 
L 472.161442 552.797716 
L 472.598746 551.813764 
L 473.03605 552.608456 
L 473.473354 552.997945 
L 473.910658 554.007405 
L 474.347962 553.722238 
L 474.785266 553.656482 
L 475.222571 551.920535 
L 476.097179 547.146467 
L 476.971787 543.533726 
L 477.409091 543.660852 
L 477.846395 543.435882 
L 478.721003 544.575936 
L 479.158307 543.868478 
L 479.595611 543.901127 
L 480.032915 539.746467 
L 480.907524 525.961436 
L 481.344828 521.537117 
L 481.782132 524.869742 
L 482.219436 532.677903 
L 482.65674 542.677512 
L 483.094044 549.268281 
L 483.968652 557.177704 
L 485.280564 566.998611 
L 485.717868 568.292728 
L 486.155172 567.449267 
L 486.592476 568.781541 
L 487.467085 567.424066 
L 487.904389 564.680242 
L 488.341693 563.569775 
L 488.778997 561.91846 
L 489.216301 561.182638 
L 489.653605 558.856515 
L 490.528213 557.395379 
L 490.965517 555.351668 
L 491.402821 554.429799 
L 491.840125 554.488821 
L 492.277429 553.784832 
L 492.714734 553.4511 
L 493.152038 552.730225 
L 494.901254 542.451827 
L 495.338558 536.886892 
L 496.213166 529.454856 
L 496.65047 526.994668 
L 497.525078 525.064053 
L 497.962382 525.043393 
L 498.399687 522.068578 
L 498.836991 523.165884 
L 499.711599 516.622659 
L 500.148903 516.272093 
L 500.586207 515.599426 
L 501.023511 512.289349 
L 501.460815 511.487516 
L 501.898119 510.21105 
L 502.335423 509.677753 
L 502.772727 508.879694 
L 503.647335 508.375882 
L 504.084639 507.752342 
L 504.521944 507.586445 
L 504.959248 505.679807 
L 505.396552 506.829605 
L 505.833856 505.664605 
L 506.27116 504.01278 
L 506.708464 503.027501 
L 507.145768 500.548234 
L 508.020376 497.611986 
L 508.45768 494.459134 
L 508.894984 489.092082 
L 509.332288 485.710484 
L 509.769592 483.46185 
L 510.206897 483.416907 
L 510.644201 482.534063 
L 512.393417 474.891799 
L 512.830721 474.267187 
L 513.268025 474.377071 
L 513.705329 476.67932 
L 514.142633 473.792963 
L 514.579937 474.936895 
L 515.017241 474.889861 
L 515.454545 475.86055 
L 515.89185 476.22943 
L 516.329154 477.013256 
L 516.766458 478.309158 
L 517.203762 477.593078 
L 517.641066 474.131286 
L 518.07837 469.049503 
L 518.952978 463.055033 
L 519.390282 461.850242 
L 519.827586 461.44152 
L 520.26489 459.161309 
L 520.702194 455.813074 
L 521.139498 451.196944 
L 521.576803 448.853016 
L 522.014107 444.833033 
L 522.451411 442.472729 
L 523.326019 433.056514 
L 523.763323 430.120215 
L 524.637931 426.516197 
L 525.075235 426.056257 
L 525.949843 424.52656 
L 526.387147 422.953909 
L 526.824451 423.212344 
L 527.261755 423.940718 
L 527.69906 425.627538 
L 528.136364 428.404878 
L 528.573668 428.241481 
L 529.88558 446.476083 
L 530.322884 450.051482 
L 531.197492 461.125235 
L 531.634796 466.410971 
L 532.0721 469.274117 
L 532.946708 475.771888 
L 533.384013 478.113622 
L 533.821317 479.149456 
L 534.258621 474.168935 
L 534.695925 472.524456 
L 535.133229 472.00483 
L 535.570533 470.135943 
L 536.007837 470.507578 
L 536.445141 470.307298 
L 537.757053 483.420529 
L 538.194357 486.441103 
L 539.068966 500.390092 
L 539.50627 505.322711 
L 539.943574 508.367924 
L 540.380878 509.967409 
L 540.818182 512.285982 
L 541.69279 504.191481 
L 542.567398 490.231933 
L 543.442006 476.037771 
L 543.87931 474.730902 
L 544.316614 475.725363 
L 544.753918 475.545183 
L 545.191223 477.1111 
L 545.628527 477.216597 
L 546.065831 481.292134 
L 546.940439 486.950628 
L 547.377743 488.218625 
L 547.815047 485.728849 
L 548.252351 481.03477 
L 548.689655 478.836435 
L 549.564263 471.702421 
L 550.001567 469.336915 
L 550.438871 466.126264 
L 550.876176 461.434225 
L 551.31348 459.982834 
L 551.750784 459.559624 
L 552.188088 457.874028 
L 552.625392 455.460722 
L 553.062696 455.580298 
L 553.5 456.091456 
L 553.937304 455.752878 
L 554.374608 456.225061 
L 554.811912 455.936629 
L 555.249216 454.660572 
L 555.68652 454.536149 
L 556.123824 456.266331 
L 556.561129 456.582157 
L 556.998433 456.631334 
L 557.435737 458.360495 
L 558.747649 449.014577 
L 559.184953 448.951626 
L 559.622257 449.721015 
L 560.496865 450.177894 
L 560.934169 449.821155 
L 561.371473 452.221452 
L 561.808777 453.860881 
L 562.246082 455.946628 
L 562.683386 456.84855 
L 563.12069 456.631283 
L 563.557994 456.15257 
L 563.995298 454.658582 
L 564.432602 450.235845 
L 565.30721 435.346469 
L 565.744514 430.716361 
L 566.181818 428.441863 
L 566.619122 427.67074 
L 567.49373 423.819612 
L 567.931034 424.024126 
L 568.368339 425.015271 
L 568.805643 428.067116 
L 569.242947 432.376246 
L 570.992163 462.842306 
L 572.304075 473.668694 
L 572.741379 472.613016 
L 573.178683 472.862167 
L 573.615987 469.573363 
L 574.053292 463.131554 
L 575.802508 444.535776 
L 576.239812 442.370396 
L 576.677116 441.361344 
L 577.11442 438.652822 
L 577.551724 437.528377 
L 577.989028 437.281165 
L 578.426332 437.191329 
L 578.863636 437.920367 
L 579.30094 440.121507 
L 579.738245 439.909239 
L 580.175549 438.313733 
L 581.487461 430.879248 
L 581.924765 426.654955 
L 582.362069 420.949477 
L 583.236677 415.53233 
L 583.673981 411.842711 
L 584.111285 412.387691 
L 584.548589 411.328595 
L 584.985893 410.585121 
L 585.423197 411.195347 
L 585.860502 410.718063 
L 586.297806 411.541373 
L 586.73511 413.739401 
L 587.609718 419.866201 
L 588.484326 424.677356 
L 589.796238 429.933607 
L 590.233542 429.443059 
L 590.670846 430.45262 
L 591.10815 430.487769 
L 591.545455 429.936208 
L 591.982759 428.300249 
L 592.420063 424.098351 
L 592.857367 416.541789 
L 593.731975 407.543172 
L 594.606583 401.033464 
L 595.481191 392.360059 
L 595.918495 390.357515 
L 596.355799 389.286584 
L 597.230408 386.167707 
L 597.667712 386.823795 
L 598.105016 383.702367 
L 598.54232 385.653081 
L 598.979624 385.779391 
L 599.416928 387.432745 
L 599.854232 387.733216 
L 600.291536 390.305532 
L 601.166144 393.576634 
L 601.603448 391.580059 
L 602.040752 391.136291 
L 602.478056 391.648673 
L 603.789969 382.97333 
L 604.227273 385.234819 
L 604.664577 388.71875 
L 605.101881 389.415751 
L 605.976489 381.974226 
L 606.413793 379.414306 
L 606.851097 374.819704 
L 607.288401 368.604498 
L 607.725705 366.193487 
L 608.163009 364.411118 
L 609.037618 357.909164 
L 609.912226 352.764532 
L 610.34953 349.690445 
L 611.224138 349.636778 
L 611.661442 348.579672 
L 612.53605 351.980757 
L 612.973354 351.998101 
L 613.410658 350.094779 
L 613.847962 346.327008 
L 614.722571 334.548857 
L 615.159875 327.08208 
L 615.597179 323.433884 
L 616.034483 321.775632 
L 617.783699 308.497575 
L 618.221003 310.566794 
L 619.532915 325.777965 
L 619.970219 326.700599 
L 620.407524 328.963466 
L 620.844828 330.282375 
L 621.719436 328.448737 
L 622.15674 330.795165 
L 622.594044 328.076439 
L 623.468652 334.131462 
L 624.34326 342.724418 
L 624.780564 342.594741 
L 625.217868 343.202723 
L 625.655172 342.506182 
L 626.092476 344.531937 
L 626.529781 344.278806 
L 626.967085 344.60509 
L 627.841693 345.681888 
L 628.278997 345.227152 
L 629.153605 337.538363 
L 629.590909 335.590659 
L 630.028213 335.521688 
L 630.465517 333.806403 
L 630.902821 329.585833 
L 631.340125 324.147668 
L 631.777429 321.941834 
L 632.652038 313.275113 
L 633.089342 310.893486 
L 633.526646 310.273975 
L 633.96395 309.011079 
L 634.838558 312.9323 
L 635.713166 318.365874 
L 636.15047 323.165144 
L 636.587774 332.253137 
L 637.025078 338.793709 
L 638.774295 355.956256 
L 639.211599 348.812396 
L 639.648903 347.984239 
L 640.523511 344.108421 
L 642.710031 317.239083 
L 645.333856 281.240635 
L 646.208464 271.420595 
L 646.645768 269.514008 
L 647.083072 268.699421 
L 647.520376 270.317372 
L 647.95768 273.782327 
L 648.832288 291.952804 
L 649.269592 301.607457 
L 649.706897 307.590347 
L 650.581505 315.762746 
L 651.018809 316.858011 
L 651.456113 317.267549 
L 651.893417 316.947387 
L 652.330721 317.360598 
L 652.768025 318.482492 
L 653.205329 320.506104 
L 653.642633 320.298988 
L 654.079937 316.323693 
L 654.517241 314.740329 
L 654.954545 310.384165 
L 656.703762 285.46345 
L 658.015674 279.160194 
L 658.452978 279.606768 
L 658.890282 278.737698 
L 659.76489 276.297201 
L 661.076803 275.35406 
L 661.514107 274.100652 
L 662.388715 273.500017 
L 662.826019 273.671117 
L 663.263323 275.731867 
L 663.700627 276.631545 
L 664.137931 277.89638 
L 664.575235 277.360327 
L 665.449843 273.48359 
L 665.887147 272.559936 
L 666.324451 268.97816 
L 667.19906 264.308466 
L 667.636364 261.333345 
L 668.510972 256.933411 
L 668.948276 253.67445 
L 669.822884 251.032042 
L 670.260188 250.323359 
L 670.697492 250.420795 
L 671.134796 251.779495 
L 671.5721 251.196408 
L 672.009404 249.695278 
L 672.446708 247.060623 
L 672.884013 245.446957 
L 673.321317 246.067488 
L 673.758621 245.177298 
L 674.195925 246.189513 
L 674.633229 246.372856 
L 675.070533 245.481136 
L 676.382445 233.781138 
L 676.819749 227.636331 
L 677.257053 219.832149 
L 678.568966 203.480719 
L 679.880878 193.75128 
L 680.318182 194.441801 
L 680.755486 190.452732 
L 681.19279 188.342396 
L 681.630094 187.17459 
L 682.067398 183.363253 
L 682.504702 183.5619 
L 682.942006 182.634573 
L 683.37931 182.118008 
L 683.816614 179.551609 
L 684.691223 171.025277 
L 685.128527 168.044545 
L 686.003135 164.832721 
L 686.440439 164.80099 
L 688.189655 153.537772 
L 689.064263 142.740717 
L 689.501567 140.641808 
L 689.938871 137.615062 
L 690.376176 138.253753 
L 691.250784 143.452766 
L 691.688088 143.505514 
L 692.125392 144.22491 
L 692.562696 146.908538 
L 693 147.601509 
L 693.437304 147.276551 
L 693.874608 145.553205 
L 694.311912 145.180703 
L 696.061129 160.36402 
L 696.498433 161.383479 
L 696.935737 161.442145 
L 697.373041 158.191244 
L 697.810345 159.169483 
L 698.247649 162.633723 
L 699.559561 186.375103 
L 699.996865 191.017658 
L 700.434169 188.279037 
L 700.871473 181.823556 
L 701.308777 173.479241 
L 702.183386 160.873443 
L 702.62069 159.522804 
L 703.495298 159.156628 
L 703.932602 160.097321 
L 704.369906 161.73629 
L 704.80721 165.765456 
L 705.244514 165.398565 
L 705.681818 167.024066 
L 706.119122 170.067035 
L 707.431034 191.106728 
L 707.868339 193.35327 
L 708.305643 194.477511 
L 708.742947 193.092488 
L 709.180251 194.802162 
L 710.054859 197.041971 
L 710.492163 196.424501 
L 710.929467 199.439514 
L 711.366771 206.139045 
L 711.804075 211.043504 
L 712.241379 213.221178 
L 712.678683 210.744054 
L 713.115987 206.794265 
L 713.990596 194.067157 
L 715.302508 181.128851 
L 716.177116 175.920656 
L 716.61442 175.471123 
L 718.363636 164.288404 
L 718.80094 160.682244 
L 719.238245 155.223775 
L 719.675549 153.474311 
L 720.112853 154.690172 
L 720.550157 155.146133 
L 720.987461 152.915098 
L 721.424765 152.263959 
L 722.299373 151.597414 
L 723.611285 162.825229 
L 724.048589 168.582026 
L 724.485893 176.771157 
L 724.923197 182.283802 
L 725.360502 185.922917 
L 725.797806 183.401411 
L 726.23511 177.487288 
L 726.672414 174.852531 
L 727.109718 173.452612 
L 727.984326 179.556812 
L 728.42163 181.151706 
L 728.858934 180.653097 
L 729.296238 184.977327 
L 729.733542 185.006201 
L 730.170846 182.065974 
L 730.60815 182.073422 
L 731.045455 185.706109 
L 731.482759 188.077839 
L 731.920063 192.294532 
L 732.357367 193.866673 
L 733.231975 192.716517 
L 733.669279 192.822218 
L 734.981191 236.25061 
L 735.418495 238.015889 
L 735.855799 237.945592 
L 736.730408 234.451866 
L 737.167712 230.956406 
L 737.605016 226.118876 
L 738.479624 221.65793 
L 739.354232 209.959667 
L 740.22884 200.372861 
L 741.540752 178.524703 
L 741.978056 169.288158 
L 742.852665 157.101897 
L 743.289969 152.584019 
L 744.164577 146.990874 
L 744.601881 149.606042 
L 745.476489 156.014386 
L 745.913793 158.427641 
L 746.351097 166.028789 
L 746.788401 167.009783 
L 747.225705 163.785307 
L 747.663009 161.777305 
L 748.100313 163.842544 
L 748.537618 163.786123 
L 749.412226 149.224765 
L 750.286834 141.931741 
L 750.724138 141.08777 
L 751.161442 140.970949 
L 751.598746 139.082216 
L 752.03605 133.622931 
L 752.473354 129.893318 
L 752.910658 125.104149 
L 753.347962 122.886481 
L 753.785266 119.471724 
L 754.222571 119.10718 
L 754.659875 120.523321 
L 755.097179 124.62258 
L 756.846395 131.483722 
L 758.595611 135.201806 
L 759.032915 134.937045 
L 759.470219 130.361216 
L 759.907524 128.921404 
L 760.344828 120.039711 
L 760.782132 115.201161 
L 761.219436 115.839445 
L 761.65674 116.06115 
L 762.531348 120.389869 
L 763.405956 128.993028 
L 763.84326 130.962158 
L 764.717868 132.162409 
L 765.155172 131.46903 
L 765.592476 132.795285 
L 766.029781 128.658174 
L 766.467085 122.700791 
L 766.904389 123.722188 
L 767.341693 126.306135 
L 767.778997 126.319602 
L 768.216301 126.013622 
L 769.090909 129.514082 
L 769.528213 130.993684 
L 770.402821 131.299256 
L 770.840125 130.664339 
L 771.277429 129.712117 
L 771.714734 129.619272 
L 772.152038 130.977462 
L 773.026646 138.097039 
L 773.46395 139.823038 
L 773.901254 140.992476 
L 774.338558 141.754825 
L 774.775862 143.038637 
L 775.213166 143.865569 
L 776.525078 152.9202 
L 776.962382 153.049774 
L 777.836991 155.905013 
L 778.711599 157.049251 
L 779.148903 158.897478 
L 779.586207 159.964787 
L 780.023511 159.02338 
L 780.898119 156.10468 
L 781.335423 155.586177 
L 781.772727 153.020186 
L 782.210031 152.481992 
L 782.647335 154.455101 
L 783.084639 158.015042 
L 783.521944 160.144457 
L 783.959248 161.286859 
L 784.396552 160.819063 
L 784.833856 161.206257 
L 785.27116 160.770498 
L 785.708464 159.155403 
L 786.145768 158.292863 
L 786.583072 161.648036 
L 787.894984 174.123238 
L 788.332288 174.730404 
L 788.769592 175.030263 
L 790.956113 188.311584 
L 791.393417 191.707466 
L 791.830721 192.796507 
L 792.705329 196.115154 
L 793.142633 196.723237 
L 793.579937 194.213056 
L 794.017241 195.621749 
L 794.454545 194.106539 
L 795.329154 188.418101 
L 795.766458 188.302197 
L 796.203762 189.017002 
L 796.641066 189.992384 
L 797.07837 192.728556 
L 797.952978 202.335053 
L 798.390282 208.195612 
L 798.827586 209.733574 
L 799.702194 200.111875 
L 800.576803 187.338242 
L 801.451411 174.055084 
L 802.763323 157.322888 
L 804.512539 139.456759 
L 804.949843 135.707658 
L 805.824451 131.617786 
L 806.261755 127.500774 
L 806.69906 126.711694 
L 807.136364 126.549878 
L 807.573668 124.48117 
L 808.010972 127.927555 
L 808.448276 129.438786 
L 808.88558 127.777473 
L 810.197492 119.830963 
L 810.634796 118.883128 
L 811.0721 118.988114 
L 811.509404 119.968598 
L 811.946708 121.570531 
L 812.384013 124.751543 
L 813.258621 132.908331 
L 813.695925 134.242544 
L 814.133229 133.361945 
L 814.570533 133.245838 
L 815.445141 135.739287 
L 816.319749 143.247997 
L 816.757053 145.482296 
L 817.631661 147.791586 
L 818.50627 152.684414 
L 818.943574 153.910886 
L 819.380878 155.537918 
L 819.818182 158.063914 
L 821.130094 171.823642 
L 822.004702 185.328607 
L 822.87931 203.047001 
L 823.316614 215.751867 
L 824.191223 230.45035 
L 825.503135 243.11012 
L 825.940439 243.632092 
L 826.377743 244.495959 
L 826.815047 244.095195 
L 827.252351 241.446869 
L 827.689655 235.395212 
L 828.564263 217.148215 
L 829.876176 199.690706 
L 830.750784 190.940015 
L 831.188088 189.178409 
L 831.625392 185.869965 
L 832.5 183.94685 
L 832.937304 183.483339 
L 833.374608 182.407357 
L 834.249216 184.217222 
L 835.123824 183.271428 
L 835.998433 187.343445 
L 836.435737 187.874192 
L 836.873041 189.394299 
L 837.310345 191.750317 
L 837.747649 192.924041 
L 838.184953 194.824302 
L 838.622257 194.908985 
L 839.059561 190.391924 
L 840.371473 171.447977 
L 841.246082 162.123586 
L 841.683386 159.251717 
L 842.12069 152.974988 
L 843.432602 144.441616 
L 843.869906 143.305235 
L 844.30721 142.770713 
L 845.181818 136.142703 
L 845.619122 134.791554 
L 846.931034 139.127415 
L 847.368339 138.555653 
L 847.805643 138.811946 
L 848.242947 136.137398 
L 849.117555 134.451394 
L 849.554859 133.536922 
L 849.992163 129.604988 
L 850.429467 126.986862 
L 851.304075 120.60229 
L 851.741379 118.726107 
L 852.615987 121.843352 
L 853.053292 119.175742 
L 853.490596 114.787848 
L 853.9279 112.184923 
L 854.365204 113.179283 
L 854.802508 114.760096 
L 856.551724 122.489186 
L 856.989028 122.709565 
L 857.426332 123.128592 
L 857.863636 125.364728 
L 858.30094 128.534108 
L 860.050157 137.009019 
L 860.487461 139.790899 
L 860.924765 143.748646 
L 861.799373 158.262153 
L 862.236677 162.135625 
L 863.111285 159.914998 
L 863.548589 160.055898 
L 863.985893 161.096067 
L 864.423197 158.833201 
L 864.860502 159.547393 
L 865.73511 166.068171 
L 866.609718 176.167563 
L 868.358934 196.632739 
L 868.796238 200.127995 
L 869.233542 200.913199 
L 869.670846 202.08427 
L 870.10815 203.68508 
L 870.545455 201.984793 
L 871.420063 194.055627 
L 871.857367 190.982867 
L 872.294671 189.197998 
L 872.731975 185.288613 
L 873.169279 179.491413 
L 874.043887 175.154838 
L 874.481191 173.377418 
L 874.918495 172.321842 
L 875.355799 172.403872 
L 875.793103 172.617823 
L 876.667712 175.697114 
L 877.105016 178.636627 
L 877.54232 178.046092 
L 878.416928 177.494736 
L 878.854232 176.871756 
L 879.291536 177.489328 
L 879.72884 177.866626 
L 881.040752 184.2463 
L 881.478056 189.06873 
L 882.789969 199.403906 
L 883.227273 200.504375 
L 884.976489 208.999282 
L 885.413793 209.686845 
L 885.851097 211.796467 
L 886.288401 212.592587 
L 886.725705 212.88612 
L 887.163009 217.443176 
L 887.600313 220.404319 
L 888.037618 224.897506 
L 888.912226 216.755103 
L 889.34953 214.278387 
L 889.786834 212.654314 
L 891.098746 217.824249 
L 891.53605 220.023246 
L 891.973354 225.195936 
L 892.847962 231.720183 
L 893.285266 236.097671 
L 894.159875 241.261281 
L 894.597179 244.006227 
L 895.034483 243.105529 
L 895.471787 242.61845 
L 895.909091 243.312543 
L 897.221003 249.194833 
L 897.658307 249.674668 
L 898.095611 252.193522 
L 898.532915 253.709956 
L 898.970219 254.063379 
L 899.407524 253.858916 
L 899.844828 254.769613 
L 901.594044 265.359859 
L 902.905956 270.684569 
L 903.780564 277.296866 
L 904.217868 279.625235 
L 904.655172 281.149219 
L 905.092476 282.16276 
L 905.529781 281.874838 
L 905.967085 279.666556 
L 906.404389 278.924612 
L 906.841693 276.422389 
L 908.153605 270.760376 
L 908.590909 267.538553 
L 909.028213 265.176311 
L 909.465517 261.902148 
L 909.902821 259.50134 
L 910.340125 259.312181 
L 911.214734 257.426816 
L 912.089342 256.792818 
L 912.526646 257.52211 
L 912.96395 257.057477 
L 913.401254 256.063117 
L 913.838558 256.369914 
L 914.275862 257.073393 
L 914.713166 257.540679 
L 915.15047 259.971381 
L 915.587774 261.28376 
L 916.025078 264.47375 
L 916.462382 265.531469 
L 916.899687 265.889279 
L 917.336991 267.130851 
L 917.774295 267.311848 
L 918.648903 264.411513 
L 919.086207 262.670721 
L 919.523511 259.479404 
L 919.960815 259.282593 
L 920.835423 257.391617 
L 921.272727 257.333767 
L 921.710031 256.230238 
L 922.147335 256.030672 
L 922.584639 257.721267 
L 923.021944 262.730611 
L 923.459248 264.195725 
L 924.333856 269.20915 
L 924.77116 269.824376 
L 925.208464 271.882167 
L 926.083072 273.694889 
L 926.520376 274.114732 
L 926.95768 273.975465 
L 927.394984 273.988218 
L 927.832288 273.876498 
L 928.269592 272.87112 
L 928.706897 270.666102 
L 929.144201 265.98192 
L 929.581505 263.293803 
L 930.018809 261.846645 
L 931.330721 251.396892 
L 932.642633 246.750766 
L 933.079937 247.506891 
L 933.954545 251.622576 
L 933.954545 251.622576 
" style="fill:none;stroke:#0000ff;stroke-linecap:square;stroke-width:1.5;"/>
   </g>
   <g id="patch_3">
    <path d="M 135 640.8 
L 135 86.4 
" style="fill:none;stroke:#000000;stroke-linecap:square;stroke-linejoin:miter;stroke-width:0.8;"/>
   </g>
   <g id="patch_4">
    <path d="M 972 640.8 
L 972 86.4 
" style="fill:none;stroke:#000000;stroke-linecap:square;stroke-linejoin:miter;stroke-width:0.8;"/>
   </g>
   <g id="patch_5">
    <path d="M 135 640.8 
L 972 640.8 
" style="fill:none;stroke:#000000;stroke-linecap:square;stroke-linejoin:miter;stroke-width:0.8;"/>
   </g>
   <g id="patch_6">
    <path d="M 135 86.4 
L 972 86.4 
" style="fill:none;stroke:#000000;stroke-linecap:square;stroke-linejoin:miter;stroke-width:0.8;"/>
   </g>
   <g id="text_14">
    <!-- Evaluation Preds N:30 -->
    <defs>
     <path d="M 9.8125 72.90625 
L 55.90625 72.90625 
L 55.90625 64.59375 
L 19.671875 64.59375 
L 19.671875 43.015625 
L 54.390625 43.015625 
L 54.390625 34.71875 
L 19.671875 34.71875 
L 19.671875 8.296875 
L 56.78125 8.296875 
L 56.78125 0 
L 9.8125 0 
z
" id="DejaVuSans-69"/>
     <path d="M 2.984375 54.6875 
L 12.5 54.6875 
L 29.59375 8.796875 
L 46.6875 54.6875 
L 56.203125 54.6875 
L 35.6875 0 
L 23.484375 0 
z
" id="DejaVuSans-118"/>
     <path d="M 34.28125 27.484375 
Q 23.390625 27.484375 19.1875 25 
Q 14.984375 22.515625 14.984375 16.5 
Q 14.984375 11.71875 18.140625 8.90625 
Q 21.296875 6.109375 26.703125 6.109375 
Q 34.1875 6.109375 38.703125 11.40625 
Q 43.21875 16.703125 43.21875 25.484375 
L 43.21875 27.484375 
z
M 52.203125 31.203125 
L 52.203125 0 
L 43.21875 0 
L 43.21875 8.296875 
Q 40.140625 3.328125 35.546875 0.953125 
Q 30.953125 -1.421875 24.3125 -1.421875 
Q 15.921875 -1.421875 10.953125 3.296875 
Q 6 8.015625 6 15.921875 
Q 6 25.140625 12.171875 29.828125 
Q 18.359375 34.515625 30.609375 34.515625 
L 43.21875 34.515625 
L 43.21875 35.40625 
Q 43.21875 41.609375 39.140625 45 
Q 35.0625 48.390625 27.6875 48.390625 
Q 23 48.390625 18.546875 47.265625 
Q 14.109375 46.140625 10.015625 43.890625 
L 10.015625 52.203125 
Q 14.9375 54.109375 19.578125 55.046875 
Q 24.21875 56 28.609375 56 
Q 40.484375 56 46.34375 49.84375 
Q 52.203125 43.703125 52.203125 31.203125 
z
" id="DejaVuSans-97"/>
     <path d="M 9.421875 75.984375 
L 18.40625 75.984375 
L 18.40625 0 
L 9.421875 0 
z
" id="DejaVuSans-108"/>
     <path d="M 8.5 21.578125 
L 8.5 54.6875 
L 17.484375 54.6875 
L 17.484375 21.921875 
Q 17.484375 14.15625 20.5 10.265625 
Q 23.53125 6.390625 29.59375 6.390625 
Q 36.859375 6.390625 41.078125 11.03125 
Q 45.3125 15.671875 45.3125 23.6875 
L 45.3125 54.6875 
L 54.296875 54.6875 
L 54.296875 0 
L 45.3125 0 
L 45.3125 8.40625 
Q 42.046875 3.421875 37.71875 1 
Q 33.40625 -1.421875 27.6875 -1.421875 
Q 18.265625 -1.421875 13.375 4.4375 
Q 8.5 10.296875 8.5 21.578125 
z
M 31.109375 56 
z
" id="DejaVuSans-117"/>
     <path d="M 18.3125 70.21875 
L 18.3125 54.6875 
L 36.8125 54.6875 
L 36.8125 47.703125 
L 18.3125 47.703125 
L 18.3125 18.015625 
Q 18.3125 11.328125 20.140625 9.421875 
Q 21.96875 7.515625 27.59375 7.515625 
L 36.8125 7.515625 
L 36.8125 0 
L 27.59375 0 
Q 17.1875 0 13.234375 3.875 
Q 9.28125 7.765625 9.28125 18.015625 
L 9.28125 47.703125 
L 2.6875 47.703125 
L 2.6875 54.6875 
L 9.28125 54.6875 
L 9.28125 70.21875 
z
" id="DejaVuSans-116"/>
     <path d="M 9.421875 54.6875 
L 18.40625 54.6875 
L 18.40625 0 
L 9.421875 0 
z
M 9.421875 75.984375 
L 18.40625 75.984375 
L 18.40625 64.59375 
L 9.421875 64.59375 
z
" id="DejaVuSans-105"/>
     <path d="M 30.609375 48.390625 
Q 23.390625 48.390625 19.1875 42.75 
Q 14.984375 37.109375 14.984375 27.296875 
Q 14.984375 17.484375 19.15625 11.84375 
Q 23.34375 6.203125 30.609375 6.203125 
Q 37.796875 6.203125 41.984375 11.859375 
Q 46.1875 17.53125 46.1875 27.296875 
Q 46.1875 37.015625 41.984375 42.703125 
Q 37.796875 48.390625 30.609375 48.390625 
z
M 30.609375 56 
Q 42.328125 56 49.015625 48.375 
Q 55.71875 40.765625 55.71875 27.296875 
Q 55.71875 13.875 49.015625 6.21875 
Q 42.328125 -1.421875 30.609375 -1.421875 
Q 18.84375 -1.421875 12.171875 6.21875 
Q 5.515625 13.875 5.515625 27.296875 
Q 5.515625 40.765625 12.171875 48.375 
Q 18.84375 56 30.609375 56 
z
" id="DejaVuSans-111"/>
     <path d="M 54.890625 33.015625 
L 54.890625 0 
L 45.90625 0 
L 45.90625 32.71875 
Q 45.90625 40.484375 42.875 44.328125 
Q 39.84375 48.1875 33.796875 48.1875 
Q 26.515625 48.1875 22.3125 43.546875 
Q 18.109375 38.921875 18.109375 30.90625 
L 18.109375 0 
L 9.078125 0 
L 9.078125 54.6875 
L 18.109375 54.6875 
L 18.109375 46.1875 
Q 21.34375 51.125 25.703125 53.5625 
Q 30.078125 56 35.796875 56 
Q 45.21875 56 50.046875 50.171875 
Q 54.890625 44.34375 54.890625 33.015625 
z
" id="DejaVuSans-110"/>
     <path id="DejaVuSans-32"/>
     <path d="M 19.671875 64.796875 
L 19.671875 37.40625 
L 32.078125 37.40625 
Q 38.96875 37.40625 42.71875 40.96875 
Q 46.484375 44.53125 46.484375 51.125 
Q 46.484375 57.671875 42.71875 61.234375 
Q 38.96875 64.796875 32.078125 64.796875 
z
M 9.8125 72.90625 
L 32.078125 72.90625 
Q 44.34375 72.90625 50.609375 67.359375 
Q 56.890625 61.8125 56.890625 51.125 
Q 56.890625 40.328125 50.609375 34.8125 
Q 44.34375 29.296875 32.078125 29.296875 
L 19.671875 29.296875 
L 19.671875 0 
L 9.8125 0 
z
" id="DejaVuSans-80"/>
     <path d="M 41.109375 46.296875 
Q 39.59375 47.171875 37.8125 47.578125 
Q 36.03125 48 33.890625 48 
Q 26.265625 48 22.1875 43.046875 
Q 18.109375 38.09375 18.109375 28.8125 
L 18.109375 0 
L 9.078125 0 
L 9.078125 54.6875 
L 18.109375 54.6875 
L 18.109375 46.1875 
Q 20.953125 51.171875 25.484375 53.578125 
Q 30.03125 56 36.53125 56 
Q 37.453125 56 38.578125 55.875 
Q 39.703125 55.765625 41.0625 55.515625 
z
" id="DejaVuSans-114"/>
     <path d="M 56.203125 29.59375 
L 56.203125 25.203125 
L 14.890625 25.203125 
Q 15.484375 15.921875 20.484375 11.0625 
Q 25.484375 6.203125 34.421875 6.203125 
Q 39.59375 6.203125 44.453125 7.46875 
Q 49.3125 8.734375 54.109375 11.28125 
L 54.109375 2.78125 
Q 49.265625 0.734375 44.1875 -0.34375 
Q 39.109375 -1.421875 33.890625 -1.421875 
Q 20.796875 -1.421875 13.15625 6.1875 
Q 5.515625 13.8125 5.515625 26.8125 
Q 5.515625 40.234375 12.765625 48.109375 
Q 20.015625 56 32.328125 56 
Q 43.359375 56 49.78125 48.890625 
Q 56.203125 41.796875 56.203125 29.59375 
z
M 47.21875 32.234375 
Q 47.125 39.59375 43.09375 43.984375 
Q 39.0625 48.390625 32.421875 48.390625 
Q 24.90625 48.390625 20.390625 44.140625 
Q 15.875 39.890625 15.1875 32.171875 
z
" id="DejaVuSans-101"/>
     <path d="M 45.40625 46.390625 
L 45.40625 75.984375 
L 54.390625 75.984375 
L 54.390625 0 
L 45.40625 0 
L 45.40625 8.203125 
Q 42.578125 3.328125 38.25 0.953125 
Q 33.9375 -1.421875 27.875 -1.421875 
Q 17.96875 -1.421875 11.734375 6.484375 
Q 5.515625 14.40625 5.515625 27.296875 
Q 5.515625 40.1875 11.734375 48.09375 
Q 17.96875 56 27.875 56 
Q 33.9375 56 38.25 53.625 
Q 42.578125 51.265625 45.40625 46.390625 
z
M 14.796875 27.296875 
Q 14.796875 17.390625 18.875 11.75 
Q 22.953125 6.109375 30.078125 6.109375 
Q 37.203125 6.109375 41.296875 11.75 
Q 45.40625 17.390625 45.40625 27.296875 
Q 45.40625 37.203125 41.296875 42.84375 
Q 37.203125 48.484375 30.078125 48.484375 
Q 22.953125 48.484375 18.875 42.84375 
Q 14.796875 37.203125 14.796875 27.296875 
z
" id="DejaVuSans-100"/>
     <path d="M 44.28125 53.078125 
L 44.28125 44.578125 
Q 40.484375 46.53125 36.375 47.5 
Q 32.28125 48.484375 27.875 48.484375 
Q 21.1875 48.484375 17.84375 46.4375 
Q 14.5 44.390625 14.5 40.28125 
Q 14.5 37.15625 16.890625 35.375 
Q 19.28125 33.59375 26.515625 31.984375 
L 29.59375 31.296875 
Q 39.15625 29.25 43.1875 25.515625 
Q 47.21875 21.78125 47.21875 15.09375 
Q 47.21875 7.46875 41.1875 3.015625 
Q 35.15625 -1.421875 24.609375 -1.421875 
Q 20.21875 -1.421875 15.453125 -0.5625 
Q 10.6875 0.296875 5.421875 2 
L 5.421875 11.28125 
Q 10.40625 8.6875 15.234375 7.390625 
Q 20.0625 6.109375 24.8125 6.109375 
Q 31.15625 6.109375 34.5625 8.28125 
Q 37.984375 10.453125 37.984375 14.40625 
Q 37.984375 18.0625 35.515625 20.015625 
Q 33.0625 21.96875 24.703125 23.78125 
L 21.578125 24.515625 
Q 13.234375 26.265625 9.515625 29.90625 
Q 5.8125 33.546875 5.8125 39.890625 
Q 5.8125 47.609375 11.28125 51.796875 
Q 16.75 56 26.8125 56 
Q 31.78125 56 36.171875 55.265625 
Q 40.578125 54.546875 44.28125 53.078125 
z
" id="DejaVuSans-115"/>
     <path d="M 9.8125 72.90625 
L 23.09375 72.90625 
L 55.421875 11.921875 
L 55.421875 72.90625 
L 64.984375 72.90625 
L 64.984375 0 
L 51.703125 0 
L 19.390625 60.984375 
L 19.390625 0 
L 9.8125 0 
z
" id="DejaVuSans-78"/>
     <path d="M 11.71875 12.40625 
L 22.015625 12.40625 
L 22.015625 0 
L 11.71875 0 
z
M 11.71875 51.703125 
L 22.015625 51.703125 
L 22.015625 39.3125 
L 11.71875 39.3125 
z
" id="DejaVuSans-58"/>
    </defs>
    <g transform="translate(374.421656 80.4)scale(0.324 -0.324)">
     <use xlink:href="#DejaVuSans-69"/>
     <use x="63.183594" xlink:href="#DejaVuSans-118"/>
     <use x="122.363281" xlink:href="#DejaVuSans-97"/>
     <use x="183.642578" xlink:href="#DejaVuSans-108"/>
     <use x="211.425781" xlink:href="#DejaVuSans-117"/>
     <use x="274.804688" xlink:href="#DejaVuSans-97"/>
     <use x="336.083984" xlink:href="#DejaVuSans-116"/>
     <use x="375.292969" xlink:href="#DejaVuSans-105"/>
     <use x="403.076172" xlink:href="#DejaVuSans-111"/>
     <use x="464.257812" xlink:href="#DejaVuSans-110"/>
     <use x="527.636719" xlink:href="#DejaVuSans-32"/>
     <use x="559.423828" xlink:href="#DejaVuSans-80"/>
     <use x="619.710938" xlink:href="#DejaVuSans-114"/>
     <use x="660.792969" xlink:href="#DejaVuSans-101"/>
     <use x="722.316406" xlink:href="#DejaVuSans-100"/>
     <use x="785.792969" xlink:href="#DejaVuSans-115"/>
     <use x="837.892578" xlink:href="#DejaVuSans-32"/>
     <use x="869.679688" xlink:href="#DejaVuSans-78"/>
     <use x="944.484375" xlink:href="#DejaVuSans-58"/>
     <use x="978.175781" xlink:href="#DejaVuSans-51"/>
     <use x="1041.798828" xlink:href="#DejaVuSans-48"/>
    </g>
   </g>
   <g id="legend_1">
    <g id="patch_7">
     <path d="M 153.9 187.261875 
L 301.42125 187.261875 
Q 306.82125 187.261875 306.82125 181.861875 
L 306.82125 105.3 
Q 306.82125 99.9 301.42125 99.9 
L 153.9 99.9 
Q 148.5 99.9 148.5 105.3 
L 148.5 181.861875 
Q 148.5 187.261875 153.9 187.261875 
z
" style="fill:#ffffff;opacity:0.8;stroke:#cccccc;stroke-linejoin:miter;"/>
    </g>
    <g id="line2d_29">
     <path d="M 159.3 121.765781 
L 213.3 121.765781 
" style="fill:none;stroke:#ff0000;stroke-linecap:square;stroke-width:1.5;"/>
    </g>
    <g id="line2d_30"/>
    <g id="text_15">
     <!-- Real -->
     <defs>
      <path d="M 44.390625 34.1875 
Q 47.5625 33.109375 50.5625 29.59375 
Q 53.5625 26.078125 56.59375 19.921875 
L 66.609375 0 
L 56 0 
L 46.6875 18.703125 
Q 43.0625 26.03125 39.671875 28.421875 
Q 36.28125 30.8125 30.421875 30.8125 
L 19.671875 30.8125 
L 19.671875 0 
L 9.8125 0 
L 9.8125 72.90625 
L 32.078125 72.90625 
Q 44.578125 72.90625 50.734375 67.671875 
Q 56.890625 62.453125 56.890625 51.90625 
Q 56.890625 45.015625 53.6875 40.46875 
Q 50.484375 35.9375 44.390625 34.1875 
z
M 19.671875 64.796875 
L 19.671875 38.921875 
L 32.078125 38.921875 
Q 39.203125 38.921875 42.84375 42.21875 
Q 46.484375 45.515625 46.484375 51.90625 
Q 46.484375 58.296875 42.84375 61.546875 
Q 39.203125 64.796875 32.078125 64.796875 
z
" id="DejaVuSans-82"/>
     </defs>
     <g transform="translate(234.9 131.215781)scale(0.27 -0.27)">
      <use xlink:href="#DejaVuSans-82"/>
      <use x="69.419922" xlink:href="#DejaVuSans-101"/>
      <use x="130.943359" xlink:href="#DejaVuSans-97"/>
      <use x="192.222656" xlink:href="#DejaVuSans-108"/>
     </g>
    </g>
    <g id="line2d_31">
     <path d="M 159.3 161.396719 
L 213.3 161.396719 
" style="fill:none;stroke:#0000ff;stroke-linecap:square;stroke-width:1.5;"/>
    </g>
    <g id="line2d_32"/>
    <g id="text_16">
     <!-- Pred -->
     <g transform="translate(234.9 170.846719)scale(0.27 -0.27)">
      <use xlink:href="#DejaVuSans-80"/>
      <use x="60.287109" xlink:href="#DejaVuSans-114"/>
      <use x="101.369141" xlink:href="#DejaVuSans-101"/>
      <use x="162.892578" xlink:href="#DejaVuSans-100"/>
     </g>
    </g>
   </g>
  </g>
 </g>
 <defs>
  <clipPath id="p5cffadc7eb">
   <rect height="554.4" width="837" x="135" y="86.4"/>
  </clipPath>
 </defs>
</svg>
