<?xml version="1.0" encoding="utf-8" standalone="no"?>
<!DOCTYPE svg PUBLIC "-//W3C//DTD SVG 1.1//EN"
  "http://www.w3.org/Graphics/SVG/1.1/DTD/svg11.dtd">
<!-- Created with matplotlib (https://matplotlib.org/) -->
<svg height="720pt" version="1.1" viewBox="0 0 1080 720" width="1080pt" xmlns="http://www.w3.org/2000/svg" xmlns:xlink="http://www.w3.org/1999/xlink">
 <defs>
  <style type="text/css">
*{stroke-linecap:butt;stroke-linejoin:round;}
  </style>
 </defs>
 <g id="figure_1">
  <g id="patch_1">
   <path d="M 0 720 
L 1080 720 
L 1080 0 
L 0 0 
z
" style="fill:#ffffff;"/>
  </g>
  <g id="axes_1">
   <g id="patch_2">
    <path d="M 135 640.8 
L 972 640.8 
L 972 86.4 
L 135 86.4 
z
" style="fill:#ffffff;"/>
   </g>
   <g id="matplotlib.axis_1">
    <g id="xtick_1">
     <g id="line2d_1">
      <path clip-path="url(#pda2c8ace07)" d="M 173.045455 640.8 
L 173.045455 86.4 
" style="fill:none;stroke:#b0b0b0;stroke-linecap:square;stroke-width:0.8;"/>
     </g>
     <g id="line2d_2">
      <defs>
       <path d="M 0 0 
L 0 3.5 
" id="m75a959a305" style="stroke:#000000;stroke-width:0.8;"/>
      </defs>
      <g>
       <use style="stroke:#000000;stroke-width:0.8;" x="173.045455" xlink:href="#m75a959a305" y="640.8"/>
      </g>
     </g>
     <g id="text_1">
      <!-- 0 -->
      <defs>
       <path d="M 31.78125 66.40625 
Q 24.171875 66.40625 20.328125 58.90625 
Q 16.5 51.421875 16.5 36.375 
Q 16.5 21.390625 20.328125 13.890625 
Q 24.171875 6.390625 31.78125 6.390625 
Q 39.453125 6.390625 43.28125 13.890625 
Q 47.125 21.390625 47.125 36.375 
Q 47.125 51.421875 43.28125 58.90625 
Q 39.453125 66.40625 31.78125 66.40625 
z
M 31.78125 74.21875 
Q 44.046875 74.21875 50.515625 64.515625 
Q 56.984375 54.828125 56.984375 36.375 
Q 56.984375 17.96875 50.515625 8.265625 
Q 44.046875 -1.421875 31.78125 -1.421875 
Q 19.53125 -1.421875 13.0625 8.265625 
Q 6.59375 17.96875 6.59375 36.375 
Q 6.59375 54.828125 13.0625 64.515625 
Q 19.53125 74.21875 31.78125 74.21875 
z
" id="DejaVuSans-48"/>
      </defs>
      <g transform="translate(164.45608 668.315781)scale(0.27 -0.27)">
       <use xlink:href="#DejaVuSans-48"/>
      </g>
     </g>
    </g>
    <g id="xtick_2">
     <g id="line2d_3">
      <path clip-path="url(#pda2c8ace07)" d="M 282.371473 640.8 
L 282.371473 86.4 
" style="fill:none;stroke:#b0b0b0;stroke-linecap:square;stroke-width:0.8;"/>
     </g>
     <g id="line2d_4">
      <g>
       <use style="stroke:#000000;stroke-width:0.8;" x="282.371473" xlink:href="#m75a959a305" y="640.8"/>
      </g>
     </g>
     <g id="text_2">
      <!-- 250 -->
      <defs>
       <path d="M 19.1875 8.296875 
L 53.609375 8.296875 
L 53.609375 0 
L 7.328125 0 
L 7.328125 8.296875 
Q 12.9375 14.109375 22.625 23.890625 
Q 32.328125 33.6875 34.8125 36.53125 
Q 39.546875 41.84375 41.421875 45.53125 
Q 43.3125 49.21875 43.3125 52.78125 
Q 43.3125 58.59375 39.234375 62.25 
Q 35.15625 65.921875 28.609375 65.921875 
Q 23.96875 65.921875 18.8125 64.3125 
Q 13.671875 62.703125 7.8125 59.421875 
L 7.8125 69.390625 
Q 13.765625 71.78125 18.9375 73 
Q 24.125 74.21875 28.421875 74.21875 
Q 39.75 74.21875 46.484375 68.546875 
Q 53.21875 62.890625 53.21875 53.421875 
Q 53.21875 48.921875 51.53125 44.890625 
Q 49.859375 40.875 45.40625 35.40625 
Q 44.1875 33.984375 37.640625 27.21875 
Q 31.109375 20.453125 19.1875 8.296875 
z
" id="DejaVuSans-50"/>
       <path d="M 10.796875 72.90625 
L 49.515625 72.90625 
L 49.515625 64.59375 
L 19.828125 64.59375 
L 19.828125 46.734375 
Q 21.96875 47.46875 24.109375 47.828125 
Q 26.265625 48.1875 28.421875 48.1875 
Q 40.625 48.1875 47.75 41.5 
Q 54.890625 34.8125 54.890625 23.390625 
Q 54.890625 11.625 47.5625 5.09375 
Q 40.234375 -1.421875 26.90625 -1.421875 
Q 22.3125 -1.421875 17.546875 -0.640625 
Q 12.796875 0.140625 7.71875 1.703125 
L 7.71875 11.625 
Q 12.109375 9.234375 16.796875 8.0625 
Q 21.484375 6.890625 26.703125 6.890625 
Q 35.15625 6.890625 40.078125 11.328125 
Q 45.015625 15.765625 45.015625 23.390625 
Q 45.015625 31 40.078125 35.4375 
Q 35.15625 39.890625 26.703125 39.890625 
Q 22.75 39.890625 18.8125 39.015625 
Q 14.890625 38.140625 10.796875 36.28125 
z
" id="DejaVuSans-53"/>
      </defs>
      <g transform="translate(256.603348 668.315781)scale(0.27 -0.27)">
       <use xlink:href="#DejaVuSans-50"/>
       <use x="63.623047" xlink:href="#DejaVuSans-53"/>
       <use x="127.246094" xlink:href="#DejaVuSans-48"/>
      </g>
     </g>
    </g>
    <g id="xtick_3">
     <g id="line2d_5">
      <path clip-path="url(#pda2c8ace07)" d="M 391.697492 640.8 
L 391.697492 86.4 
" style="fill:none;stroke:#b0b0b0;stroke-linecap:square;stroke-width:0.8;"/>
     </g>
     <g id="line2d_6">
      <g>
       <use style="stroke:#000000;stroke-width:0.8;" x="391.697492" xlink:href="#m75a959a305" y="640.8"/>
      </g>
     </g>
     <g id="text_3">
      <!-- 500 -->
      <g transform="translate(365.929367 668.315781)scale(0.27 -0.27)">
       <use xlink:href="#DejaVuSans-53"/>
       <use x="63.623047" xlink:href="#DejaVuSans-48"/>
       <use x="127.246094" xlink:href="#DejaVuSans-48"/>
      </g>
     </g>
    </g>
    <g id="xtick_4">
     <g id="line2d_7">
      <path clip-path="url(#pda2c8ace07)" d="M 501.023511 640.8 
L 501.023511 86.4 
" style="fill:none;stroke:#b0b0b0;stroke-linecap:square;stroke-width:0.8;"/>
     </g>
     <g id="line2d_8">
      <g>
       <use style="stroke:#000000;stroke-width:0.8;" x="501.023511" xlink:href="#m75a959a305" y="640.8"/>
      </g>
     </g>
     <g id="text_4">
      <!-- 750 -->
      <defs>
       <path d="M 8.203125 72.90625 
L 55.078125 72.90625 
L 55.078125 68.703125 
L 28.609375 0 
L 18.3125 0 
L 43.21875 64.59375 
L 8.203125 64.59375 
z
" id="DejaVuSans-55"/>
      </defs>
      <g transform="translate(475.255386 668.315781)scale(0.27 -0.27)">
       <use xlink:href="#DejaVuSans-55"/>
       <use x="63.623047" xlink:href="#DejaVuSans-53"/>
       <use x="127.246094" xlink:href="#DejaVuSans-48"/>
      </g>
     </g>
    </g>
    <g id="xtick_5">
     <g id="line2d_9">
      <path clip-path="url(#pda2c8ace07)" d="M 610.34953 640.8 
L 610.34953 86.4 
" style="fill:none;stroke:#b0b0b0;stroke-linecap:square;stroke-width:0.8;"/>
     </g>
     <g id="line2d_10">
      <g>
       <use style="stroke:#000000;stroke-width:0.8;" x="610.34953" xlink:href="#m75a959a305" y="640.8"/>
      </g>
     </g>
     <g id="text_5">
      <!-- 1000 -->
      <defs>
       <path d="M 12.40625 8.296875 
L 28.515625 8.296875 
L 28.515625 63.921875 
L 10.984375 60.40625 
L 10.984375 69.390625 
L 28.421875 72.90625 
L 38.28125 72.90625 
L 38.28125 8.296875 
L 54.390625 8.296875 
L 54.390625 0 
L 12.40625 0 
z
" id="DejaVuSans-49"/>
      </defs>
      <g transform="translate(575.99203 668.315781)scale(0.27 -0.27)">
       <use xlink:href="#DejaVuSans-49"/>
       <use x="63.623047" xlink:href="#DejaVuSans-48"/>
       <use x="127.246094" xlink:href="#DejaVuSans-48"/>
       <use x="190.869141" xlink:href="#DejaVuSans-48"/>
      </g>
     </g>
    </g>
    <g id="xtick_6">
     <g id="line2d_11">
      <path clip-path="url(#pda2c8ace07)" d="M 719.675549 640.8 
L 719.675549 86.4 
" style="fill:none;stroke:#b0b0b0;stroke-linecap:square;stroke-width:0.8;"/>
     </g>
     <g id="line2d_12">
      <g>
       <use style="stroke:#000000;stroke-width:0.8;" x="719.675549" xlink:href="#m75a959a305" y="640.8"/>
      </g>
     </g>
     <g id="text_6">
      <!-- 1250 -->
      <g transform="translate(685.318049 668.315781)scale(0.27 -0.27)">
       <use xlink:href="#DejaVuSans-49"/>
       <use x="63.623047" xlink:href="#DejaVuSans-50"/>
       <use x="127.246094" xlink:href="#DejaVuSans-53"/>
       <use x="190.869141" xlink:href="#DejaVuSans-48"/>
      </g>
     </g>
    </g>
    <g id="xtick_7">
     <g id="line2d_13">
      <path clip-path="url(#pda2c8ace07)" d="M 829.001567 640.8 
L 829.001567 86.4 
" style="fill:none;stroke:#b0b0b0;stroke-linecap:square;stroke-width:0.8;"/>
     </g>
     <g id="line2d_14">
      <g>
       <use style="stroke:#000000;stroke-width:0.8;" x="829.001567" xlink:href="#m75a959a305" y="640.8"/>
      </g>
     </g>
     <g id="text_7">
      <!-- 1500 -->
      <g transform="translate(794.644067 668.315781)scale(0.27 -0.27)">
       <use xlink:href="#DejaVuSans-49"/>
       <use x="63.623047" xlink:href="#DejaVuSans-53"/>
       <use x="127.246094" xlink:href="#DejaVuSans-48"/>
       <use x="190.869141" xlink:href="#DejaVuSans-48"/>
      </g>
     </g>
    </g>
    <g id="xtick_8">
     <g id="line2d_15">
      <path clip-path="url(#pda2c8ace07)" d="M 938.327586 640.8 
L 938.327586 86.4 
" style="fill:none;stroke:#b0b0b0;stroke-linecap:square;stroke-width:0.8;"/>
     </g>
     <g id="line2d_16">
      <g>
       <use style="stroke:#000000;stroke-width:0.8;" x="938.327586" xlink:href="#m75a959a305" y="640.8"/>
      </g>
     </g>
     <g id="text_8">
      <!-- 1750 -->
      <g transform="translate(903.970086 668.315781)scale(0.27 -0.27)">
       <use xlink:href="#DejaVuSans-49"/>
       <use x="63.623047" xlink:href="#DejaVuSans-55"/>
       <use x="127.246094" xlink:href="#DejaVuSans-53"/>
       <use x="190.869141" xlink:href="#DejaVuSans-48"/>
      </g>
     </g>
    </g>
   </g>
   <g id="matplotlib.axis_2">
    <g id="ytick_1">
     <g id="line2d_17">
      <path clip-path="url(#pda2c8ace07)" d="M 135 568.956416 
L 972 568.956416 
" style="fill:none;stroke:#b0b0b0;stroke-linecap:square;stroke-width:0.8;"/>
     </g>
     <g id="line2d_18">
      <defs>
       <path d="M 0 0 
L -3.5 0 
" id="me1354ff765" style="stroke:#000000;stroke-width:0.8;"/>
      </defs>
      <g>
       <use style="stroke:#000000;stroke-width:0.8;" x="135" xlink:href="#me1354ff765" y="568.956416"/>
      </g>
     </g>
     <g id="text_9">
      <!-- 3.0 -->
      <defs>
       <path d="M 40.578125 39.3125 
Q 47.65625 37.796875 51.625 33 
Q 55.609375 28.21875 55.609375 21.1875 
Q 55.609375 10.40625 48.1875 4.484375 
Q 40.765625 -1.421875 27.09375 -1.421875 
Q 22.515625 -1.421875 17.65625 -0.515625 
Q 12.796875 0.390625 7.625 2.203125 
L 7.625 11.71875 
Q 11.71875 9.328125 16.59375 8.109375 
Q 21.484375 6.890625 26.8125 6.890625 
Q 36.078125 6.890625 40.9375 10.546875 
Q 45.796875 14.203125 45.796875 21.1875 
Q 45.796875 27.640625 41.28125 31.265625 
Q 36.765625 34.90625 28.71875 34.90625 
L 20.21875 34.90625 
L 20.21875 43.015625 
L 29.109375 43.015625 
Q 36.375 43.015625 40.234375 45.921875 
Q 44.09375 48.828125 44.09375 54.296875 
Q 44.09375 59.90625 40.109375 62.90625 
Q 36.140625 65.921875 28.71875 65.921875 
Q 24.65625 65.921875 20.015625 65.03125 
Q 15.375 64.15625 9.8125 62.3125 
L 9.8125 71.09375 
Q 15.4375 72.65625 20.34375 73.4375 
Q 25.25 74.21875 29.59375 74.21875 
Q 40.828125 74.21875 47.359375 69.109375 
Q 53.90625 64.015625 53.90625 55.328125 
Q 53.90625 49.265625 50.4375 45.09375 
Q 46.96875 40.921875 40.578125 39.3125 
z
" id="DejaVuSans-51"/>
       <path d="M 10.6875 12.40625 
L 21 12.40625 
L 21 0 
L 10.6875 0 
z
" id="DejaVuSans-46"/>
      </defs>
      <g transform="translate(85.061562 579.214307)scale(0.27 -0.27)">
       <use xlink:href="#DejaVuSans-51"/>
       <use x="63.623047" xlink:href="#DejaVuSans-46"/>
       <use x="95.410156" xlink:href="#DejaVuSans-48"/>
      </g>
     </g>
    </g>
    <g id="ytick_2">
     <g id="line2d_19">
      <path clip-path="url(#pda2c8ace07)" d="M 135 461.972879 
L 972 461.972879 
" style="fill:none;stroke:#b0b0b0;stroke-linecap:square;stroke-width:0.8;"/>
     </g>
     <g id="line2d_20">
      <g>
       <use style="stroke:#000000;stroke-width:0.8;" x="135" xlink:href="#me1354ff765" y="461.972879"/>
      </g>
     </g>
     <g id="text_10">
      <!-- 3.5 -->
      <g transform="translate(85.061562 472.23077)scale(0.27 -0.27)">
       <use xlink:href="#DejaVuSans-51"/>
       <use x="63.623047" xlink:href="#DejaVuSans-46"/>
       <use x="95.410156" xlink:href="#DejaVuSans-53"/>
      </g>
     </g>
    </g>
    <g id="ytick_3">
     <g id="line2d_21">
      <path clip-path="url(#pda2c8ace07)" d="M 135 354.989342 
L 972 354.989342 
" style="fill:none;stroke:#b0b0b0;stroke-linecap:square;stroke-width:0.8;"/>
     </g>
     <g id="line2d_22">
      <g>
       <use style="stroke:#000000;stroke-width:0.8;" x="135" xlink:href="#me1354ff765" y="354.989342"/>
      </g>
     </g>
     <g id="text_11">
      <!-- 4.0 -->
      <defs>
       <path d="M 37.796875 64.3125 
L 12.890625 25.390625 
L 37.796875 25.390625 
z
M 35.203125 72.90625 
L 47.609375 72.90625 
L 47.609375 25.390625 
L 58.015625 25.390625 
L 58.015625 17.1875 
L 47.609375 17.1875 
L 47.609375 0 
L 37.796875 0 
L 37.796875 17.1875 
L 4.890625 17.1875 
L 4.890625 26.703125 
z
" id="DejaVuSans-52"/>
      </defs>
      <g transform="translate(85.061562 365.247233)scale(0.27 -0.27)">
       <use xlink:href="#DejaVuSans-52"/>
       <use x="63.623047" xlink:href="#DejaVuSans-46"/>
       <use x="95.410156" xlink:href="#DejaVuSans-48"/>
      </g>
     </g>
    </g>
    <g id="ytick_4">
     <g id="line2d_23">
      <path clip-path="url(#pda2c8ace07)" d="M 135 248.005805 
L 972 248.005805 
" style="fill:none;stroke:#b0b0b0;stroke-linecap:square;stroke-width:0.8;"/>
     </g>
     <g id="line2d_24">
      <g>
       <use style="stroke:#000000;stroke-width:0.8;" x="135" xlink:href="#me1354ff765" y="248.005805"/>
      </g>
     </g>
     <g id="text_12">
      <!-- 4.5 -->
      <g transform="translate(85.061562 258.263696)scale(0.27 -0.27)">
       <use xlink:href="#DejaVuSans-52"/>
       <use x="63.623047" xlink:href="#DejaVuSans-46"/>
       <use x="95.410156" xlink:href="#DejaVuSans-53"/>
      </g>
     </g>
    </g>
    <g id="ytick_5">
     <g id="line2d_25">
      <path clip-path="url(#pda2c8ace07)" d="M 135 141.022268 
L 972 141.022268 
" style="fill:none;stroke:#b0b0b0;stroke-linecap:square;stroke-width:0.8;"/>
     </g>
     <g id="line2d_26">
      <g>
       <use style="stroke:#000000;stroke-width:0.8;" x="135" xlink:href="#me1354ff765" y="141.022268"/>
      </g>
     </g>
     <g id="text_13">
      <!-- 5.0 -->
      <g transform="translate(85.061562 151.280159)scale(0.27 -0.27)">
       <use xlink:href="#DejaVuSans-53"/>
       <use x="63.623047" xlink:href="#DejaVuSans-46"/>
       <use x="95.410156" xlink:href="#DejaVuSans-48"/>
      </g>
     </g>
    </g>
   </g>
   <g id="line2d_27">
    <path clip-path="url(#pda2c8ace07)" d="M 173.045455 453.18449 
L 173.482759 453.178623 
L 173.920063 449.92359 
L 174.357367 454.904723 
L 174.794671 452.070044 
L 175.231975 455.484596 
L 175.669279 449.598888 
L 176.106583 447.923393 
L 176.543887 441.988252 
L 176.981191 442.232302 
L 177.418495 440.889416 
L 177.855799 441.492093 
L 178.293103 439.936123 
L 179.167712 435.622351 
L 179.605016 439.976475 
L 180.04232 438.086722 
L 180.479624 437.621477 
L 180.916928 436.186767 
L 181.354232 433.574915 
L 181.791536 433.607717 
L 182.22884 434.580651 
L 182.666144 433.665261 
L 183.540752 425.888473 
L 183.978056 426.923236 
L 184.415361 428.286373 
L 184.852665 428.939655 
L 185.289969 426.984401 
L 186.601881 416.022725 
L 187.039185 414.886394 
L 187.476489 409.688759 
L 187.913793 410.369894 
L 188.351097 399.998242 
L 188.788401 405.407381 
L 189.225705 400.511593 
L 189.663009 400.846396 
L 190.100313 397.882193 
L 190.537618 398.927107 
L 190.974922 397.549685 
L 191.412226 396.985372 
L 191.84953 394.319598 
L 192.286834 396.186293 
L 192.724138 397.150707 
L 193.161442 393.946484 
L 193.598746 398.679691 
L 194.473354 398.115224 
L 195.347962 398.562359 
L 195.785266 395.839909 
L 196.222571 396.41259 
L 197.097179 387.959207 
L 197.971787 384.670505 
L 198.409091 385.723378 
L 198.846395 386.170615 
L 199.283699 384.961385 
L 200.595611 382.886147 
L 201.032915 382.625722 
L 201.470219 384.790438 
L 201.907524 382.860691 
L 202.344828 385.939574 
L 202.782132 383.608604 
L 203.219436 390.25105 
L 203.65674 388.776957 
L 204.094044 390.233348 
L 204.531348 389.530022 
L 204.968652 392.738377 
L 205.405956 392.590845 
L 205.84326 393.239944 
L 206.280564 392.323125 
L 206.717868 391.772789 
L 207.155172 390.668444 
L 207.592476 390.376237 
L 208.029781 388.778028 
L 208.467085 384.049005 
L 208.904389 384.202556 
L 209.778997 383.920195 
L 210.216301 383.995543 
L 210.653605 381.552954 
L 211.090909 380.776781 
L 212.402821 389.107985 
L 212.840125 390.621511 
L 213.277429 393.173932 
L 213.714734 397.179326 
L 214.152038 399.906724 
L 214.589342 404.58004 
L 215.026646 403.074319 
L 215.46395 404.67263 
L 215.901254 405.76616 
L 216.338558 401.41571 
L 216.775862 395.574944 
L 217.213166 401.872232 
L 217.65047 402.136687 
L 218.087774 401.794742 
L 218.525078 403.397083 
L 219.399687 400.62214 
L 219.836991 397.123874 
L 220.274295 396.157521 
L 220.711599 397.868164 
L 221.148903 394.788006 
L 221.586207 395.088579 
L 222.023511 393.379977 
L 222.898119 388.203869 
L 223.335423 384.486856 
L 224.210031 380.02693 
L 224.647335 380.498297 
L 225.959248 372.848942 
L 226.396552 372.67728 
L 227.27116 368.079821 
L 227.708464 369.579013 
L 228.145768 368.812736 
L 228.583072 363.96939 
L 229.020376 367.283803 
L 229.45768 365.948519 
L 229.894984 362.812909 
L 230.332288 365.017978 
L 230.769592 370.457724 
L 231.206897 364.224765 
L 231.644201 365.06639 
L 232.081505 363.639536 
L 232.518809 361.39937 
L 232.956113 359.955171 
L 233.393417 356.767987 
L 233.830721 354.96608 
L 234.268025 354.105274 
L 234.705329 353.529533 
L 235.142633 353.678902 
L 235.579937 357.113095 
L 236.017241 357.940282 
L 236.454545 357.938956 
L 236.89185 360.399144 
L 237.329154 360.395879 
L 237.766458 360.900252 
L 238.203762 361.233014 
L 238.641066 361.120274 
L 239.07837 357.398516 
L 239.515674 356.259584 
L 239.952978 356.694323 
L 240.390282 356.593112 
L 240.827586 351.996673 
L 241.702194 348.945134 
L 242.139498 349.348551 
L 242.576803 349.089911 
L 243.014107 347.124862 
L 243.451411 346.420567 
L 243.888715 346.947845 
L 244.326019 343.359233 
L 244.763323 346.489741 
L 245.200627 345.289286 
L 245.637931 347.612962 
L 246.075235 346.10673 
L 246.512539 348.363884 
L 246.949843 349.000127 
L 247.387147 347.933532 
L 247.824451 345.689642 
L 248.69906 350.891104 
L 249.136364 351.619171 
L 250.010972 349.714931 
L 250.448276 350.818766 
L 250.88558 349.223057 
L 251.322884 350.432184 
L 251.760188 349.610455 
L 252.197492 352.512626 
L 252.634796 351.627742 
L 253.0721 352.006876 
L 253.509404 354.991485 
L 253.946708 355.132538 
L 254.384013 355.527129 
L 254.821317 354.79549 
L 255.258621 355.166156 
L 255.695925 356.848537 
L 256.133229 356.625148 
L 256.570533 355.30073 
L 257.007837 357.173954 
L 257.445141 358.401293 
L 257.882445 359.052075 
L 258.757053 357.774641 
L 259.631661 361.548942 
L 260.068966 359.343568 
L 260.50627 358.710232 
L 260.943574 357.19589 
L 261.380878 359.301481 
L 261.818182 359.296482 
L 262.255486 358.468121 
L 262.69279 356.434714 
L 263.130094 355.658591 
L 263.567398 357.653636 
L 264.004702 356.000383 
L 264.442006 357.220223 
L 264.87931 355.8578 
L 265.316614 356.573931 
L 265.753918 356.122663 
L 266.191223 358.237437 
L 266.628527 359.112884 
L 267.065831 359.231848 
L 267.503135 360.295739 
L 267.940439 359.901199 
L 268.377743 360.014398 
L 268.815047 359.394479 
L 269.252351 360.650743 
L 269.689655 361.55991 
L 270.126959 362.045 
L 270.564263 361.585315 
L 271.001567 361.56695 
L 271.438871 361.760904 
L 271.876176 362.653848 
L 272.31348 359.08401 
L 272.750784 361.674181 
L 273.188088 360.500202 
L 273.625392 360.744252 
L 274.062696 360.603505 
L 274.5 363.453438 
L 274.937304 362.015667 
L 275.374608 363.078334 
L 275.811912 362.269256 
L 276.249216 361.942003 
L 276.68652 363.492412 
L 277.123824 363.286266 
L 277.561129 363.673358 
L 277.998433 364.304142 
L 278.435737 363.849406 
L 278.873041 363.110115 
L 279.310345 361.84375 
L 279.747649 362.221609 
L 280.184953 363.379825 
L 280.622257 365.788387 
L 281.059561 365.164846 
L 281.496865 364.943242 
L 281.934169 365.451033 
L 282.371473 366.33454 
L 282.808777 366.819782 
L 283.246082 366.408612 
L 283.683386 368.1668 
L 284.12069 368.818347 
L 284.557994 366.08544 
L 284.995298 366.008409 
L 285.432602 365.789203 
L 285.869906 363.501697 
L 286.30721 364.759491 
L 286.744514 363.222345 
L 287.181818 365.066594 
L 287.619122 363.78416 
L 288.056426 363.597041 
L 288.49373 361.796206 
L 288.931034 362.688997 
L 289.805643 363.919091 
L 290.242947 363.752429 
L 290.680251 361.791818 
L 291.117555 358.99494 
L 291.554859 361.307188 
L 291.992163 358.430167 
L 292.429467 359.185935 
L 292.866771 356.935414 
L 293.304075 356.321413 
L 293.741379 354.8312 
L 294.178683 354.973324 
L 294.615987 354.342284 
L 295.053292 352.860233 
L 295.490596 353.071226 
L 295.9279 352.86156 
L 296.365204 353.942949 
L 296.802508 353.075919 
L 297.239812 354.168123 
L 297.677116 354.817936 
L 298.11442 358.170915 
L 298.551724 359.019171 
L 299.426332 362.998803 
L 299.863636 366.421008 
L 300.30094 365.452972 
L 300.738245 368.651481 
L 301.175549 369.43092 
L 301.612853 372.731202 
L 302.050157 371.635325 
L 302.924765 372.776145 
L 303.362069 371.350158 
L 304.236677 370.311417 
L 304.673981 373.364282 
L 305.111285 373.111713 
L 305.548589 372.291004 
L 305.985893 372.322072 
L 306.423197 373.042743 
L 307.73511 377.009264 
L 308.172414 379.977293 
L 308.609718 380.685109 
L 309.047022 380.110541 
L 309.484326 382.149356 
L 309.92163 378.432292 
L 310.358934 379.133067 
L 310.796238 382.292909 
L 311.233542 380.741122 
L 312.10815 383.177027 
L 312.545455 380.660061 
L 312.982759 381.042766 
L 313.420063 380.694138 
L 313.857367 378.556459 
L 314.294671 383.50928 
L 314.731975 382.063347 
L 315.169279 383.01562 
L 315.606583 380.869932 
L 316.043887 379.515925 
L 316.481191 373.08539 
L 317.355799 375.626588 
L 319.105016 368.552515 
L 319.54232 370.74386 
L 319.979624 369.104483 
L 320.416928 368.443345 
L 320.854232 369.165036 
L 321.291536 368.971286 
L 321.72884 368.546444 
L 322.166144 370.016353 
L 322.603448 369.379549 
L 323.040752 367.14979 
L 323.478056 368.90303 
L 323.915361 369.409494 
L 324.352665 369.534223 
L 324.789969 370.063898 
L 325.664577 368.518641 
L 326.101881 368.222864 
L 326.539185 370.254741 
L 327.413793 368.412176 
L 327.851097 369.189217 
L 328.288401 369.280531 
L 328.725705 371.46499 
L 329.163009 370.562302 
L 329.600313 370.305397 
L 330.037618 366.849013 
L 330.474922 366.304085 
L 330.912226 365.529798 
L 332.224138 356.754264 
L 332.661442 356.723962 
L 333.098746 354.38636 
L 333.53605 351.105055 
L 333.973354 350.098044 
L 334.410658 348.245226 
L 334.847962 347.198016 
L 335.285266 344.971777 
L 335.722571 343.486971 
L 336.159875 340.661015 
L 336.597179 343.0959 
L 337.034483 342.238257 
L 337.471787 341.985127 
L 337.909091 342.424458 
L 338.346395 345.623018 
L 338.783699 346.654006 
L 339.221003 347.286678 
L 339.658307 348.154625 
L 340.532915 351.651412 
L 340.970219 355.740264 
L 341.407524 356.971787 
L 341.844828 356.347481 
L 342.282132 361.644848 
L 342.719436 361.493796 
L 343.15674 361.461148 
L 343.594044 362.505092 
L 344.031348 365.552703 
L 344.468652 366.264549 
L 344.905956 370.595869 
L 345.34326 373.437946 
L 345.780564 372.208515 
L 346.217868 374.707882 
L 346.655172 379.443894 
L 347.092476 378.969262 
L 347.529781 383.503974 
L 347.967085 384.051352 
L 349.716301 396.771675 
L 350.153605 401.730005 
L 350.590909 404.853831 
L 351.028213 409.926534 
L 351.465517 417.15676 
L 351.902821 418.803075 
L 352.340125 422.991353 
L 353.214734 425.557751 
L 353.652038 431.896411 
L 354.089342 432.427515 
L 354.526646 431.746328 
L 354.96395 431.685112 
L 355.401254 434.915607 
L 357.15047 441.744611 
L 357.587774 448.167545 
L 358.025078 452.83627 
L 358.462382 455.148365 
L 358.899687 456.005191 
L 359.336991 470.915993 
L 359.774295 457.525554 
L 360.211599 456.746115 
L 360.648903 457.968047 
L 361.086207 453.038896 
L 361.523511 453.350335 
L 361.960815 454.898908 
L 362.398119 464.163 
L 362.835423 470.361372 
L 363.272727 469.612899 
L 363.710031 482.518249 
L 364.147335 484.834782 
L 365.021944 478.060925 
L 365.459248 478.041642 
L 365.896552 479.292753 
L 366.333856 475.809689 
L 366.77116 474.643668 
L 367.208464 474.652647 
L 367.645768 475.226143 
L 368.083072 474.190666 
L 368.520376 476.328652 
L 368.95768 474.558577 
L 369.394984 473.692568 
L 369.832288 469.637079 
L 370.269592 473.937026 
L 370.706897 470.878192 
L 371.144201 468.907991 
L 371.581505 471.610086 
L 372.018809 475.500189 
L 372.456113 476.506588 
L 372.893417 475.601502 
L 373.330721 478.470718 
L 373.768025 479.545169 
L 374.205329 478.475258 
L 375.079937 471.865053 
L 375.517241 474.876444 
L 375.954545 474.772631 
L 376.39185 474.832776 
L 376.829154 478.664723 
L 377.266458 478.003126 
L 377.703762 477.713521 
L 378.141066 478.700025 
L 378.57837 476.85746 
L 379.015674 473.826377 
L 379.452978 476.047056 
L 379.890282 476.815476 
L 380.76489 480.06658 
L 381.202194 479.82452 
L 381.639498 480.925141 
L 382.514107 489.106264 
L 382.951411 491.038051 
L 383.388715 497.031144 
L 384.263323 501.352823 
L 384.700627 495.195007 
L 385.137931 497.69922 
L 385.575235 505.414331 
L 386.012539 509.006871 
L 386.449843 513.818639 
L 386.887147 515.686965 
L 387.324451 519.024079 
L 387.761755 519.320979 
L 388.636364 527.662948 
L 389.073668 517.055511 
L 389.510972 517.432145 
L 389.948276 512.653791 
L 390.38558 514.318114 
L 390.822884 518.472621 
L 391.260188 518.545877 
L 391.697492 523.541651 
L 392.134796 523.910786 
L 392.5721 527.329012 
L 393.009404 522.9805 
L 393.446708 520.899038 
L 393.884013 527.149444 
L 394.321317 522.288652 
L 394.758621 525.242142 
L 395.195925 524.678543 
L 395.633229 529.310793 
L 396.070533 532.110936 
L 396.945141 532.579549 
L 397.382445 534.40987 
L 397.819749 534.900367 
L 398.257053 537.648323 
L 398.694357 537.625367 
L 399.131661 542.098455 
L 399.568966 542.726791 
L 400.00627 542.11432 
L 400.443574 543.820117 
L 400.880878 547.112033 
L 401.318182 547.098157 
L 401.755486 547.329861 
L 402.19279 546.068751 
L 402.630094 545.293495 
L 403.067398 547.334453 
L 403.504702 550.007266 
L 403.942006 549.511718 
L 404.37931 552.970245 
L 404.816614 552.83664 
L 405.253918 552.952237 
L 405.691223 553.26388 
L 406.128527 556.67073 
L 406.565831 556.426017 
L 407.003135 555.946488 
L 407.440439 558.733827 
L 407.877743 557.734111 
L 408.315047 557.877561 
L 408.752351 560.757592 
L 409.189655 558.741632 
L 409.626959 558.68516 
L 410.501567 564.501183 
L 410.938871 563.606658 
L 411.376176 567.529613 
L 411.81348 569.163634 
L 412.688088 571.749214 
L 413.125392 570.46229 
L 413.562696 575.274364 
L 414 576.571439 
L 414.437304 576.933841 
L 414.874608 577.011279 
L 415.311912 577.216406 
L 415.749216 576.345958 
L 416.18652 575.896833 
L 416.623824 577.931873 
L 417.061129 575.678546 
L 417.498433 574.956906 
L 417.935737 574.008815 
L 418.810345 575.080563 
L 419.247649 576.404828 
L 419.684953 577.081831 
L 420.559561 584.146467 
L 420.996865 582.474747 
L 421.434169 584.652523 
L 421.871473 587.831444 
L 422.308777 588.269549 
L 422.746082 590.291172 
L 423.183386 590.320097 
L 423.62069 591.89382 
L 424.057994 595.368364 
L 424.495298 594.635297 
L 424.932602 595.155994 
L 425.369906 597.197309 
L 425.80721 597.386672 
L 426.244514 598.230643 
L 426.681818 597.338208 
L 427.119122 601.506948 
L 427.556426 601.54276 
L 428.431034 601.950359 
L 428.868339 604.301072 
L 429.305643 605.30594 
L 429.742947 607.428111 
L 430.180251 606.839413 
L 430.617555 607.218955 
L 431.054859 608.076292 
L 431.492163 610.797976 
L 431.929467 610.222184 
L 432.366771 611.855695 
L 432.804075 612.61886 
L 433.241379 611.702653 
L 433.678683 611.913289 
L 434.115987 614.161566 
L 434.553292 614.080301 
L 434.990596 612.058525 
L 435.4279 612.711501 
L 435.865204 611.846053 
L 436.302508 613.189806 
L 436.739812 613.105633 
L 437.61442 610.932193 
L 438.051724 611.032435 
L 438.489028 610.81175 
L 438.926332 611.629551 
L 439.363636 612.945909 
L 439.80094 615.6 
L 440.238245 611.8459 
L 440.675549 611.982464 
L 441.112853 608.964033 
L 441.550157 610.234682 
L 441.987461 608.566636 
L 442.424765 608.808747 
L 442.862069 608.769262 
L 443.299373 609.248485 
L 443.736677 607.819795 
L 444.173981 605.35624 
L 445.048589 602.444682 
L 445.485893 601.451241 
L 445.923197 599.796866 
L 446.360502 592.683155 
L 446.797806 592.052727 
L 447.23511 593.848972 
L 448.109718 595.657714 
L 448.984326 594.516843 
L 449.42163 591.721903 
L 449.858934 590.662807 
L 450.296238 592.336007 
L 450.733542 592.782683 
L 451.170846 590.645922 
L 451.60815 589.945605 
L 452.045455 589.853475 
L 452.482759 586.279555 
L 452.920063 587.279679 
L 453.357367 585.268361 
L 453.794671 584.527489 
L 454.231975 584.808778 
L 454.669279 584.073262 
L 455.106583 583.689639 
L 455.543887 582.106734 
L 455.981191 582.257123 
L 456.418495 581.018407 
L 456.855799 581.917882 
L 457.730408 579.099679 
L 459.04232 578.100065 
L 459.479624 580.26871 
L 459.916928 578.739828 
L 460.354232 580.130463 
L 460.791536 580.857102 
L 461.22884 579.540948 
L 461.666144 579.959158 
L 462.540752 572.80081 
L 462.978056 570.951257 
L 463.415361 572.228538 
L 463.852665 574.960324 
L 464.727273 582.036948 
L 465.164577 580.381246 
L 465.601881 577.940647 
L 466.039185 577.713738 
L 466.476489 578.626119 
L 466.913793 578.673919 
L 467.351097 578.325699 
L 467.788401 576.531342 
L 468.225705 572.655217 
L 468.663009 574.695205 
L 469.537618 571.29361 
L 469.974922 567.812535 
L 470.412226 566.948312 
L 470.84953 566.718954 
L 471.286834 565.876105 
L 471.724138 563.478256 
L 472.161442 562.647498 
L 472.598746 562.325754 
L 473.03605 561.685277 
L 473.473354 560.70566 
L 473.910658 561.890556 
L 474.347962 559.206877 
L 474.785266 558.488757 
L 475.659875 554.852651 
L 476.097179 554.886882 
L 476.534483 554.77205 
L 476.971787 555.485834 
L 477.409091 552.786442 
L 477.846395 553.72081 
L 478.283699 552.577031 
L 479.158307 554.43643 
L 479.595611 554.687214 
L 480.032915 555.869661 
L 480.470219 555.468693 
L 480.907524 555.90736 
L 481.344828 553.930833 
L 481.782132 553.504716 
L 482.219436 554.116931 
L 482.65674 552.878828 
L 483.094044 552.148618 
L 483.531348 552.435825 
L 483.968652 550.801243 
L 484.405956 550.577497 
L 484.84326 549.813209 
L 485.280564 548.683051 
L 485.717868 548.428238 
L 486.155172 547.404392 
L 486.592476 547.316343 
L 487.029781 541.819359 
L 487.467085 544.44024 
L 487.904389 543.248049 
L 489.216301 534.009871 
L 490.090909 532.217249 
L 490.528213 528.38117 
L 490.965517 522.581215 
L 491.402821 523.193023 
L 491.840125 520.872256 
L 492.277429 521.916558 
L 493.152038 516.751112 
L 493.589342 515.255797 
L 494.026646 514.175429 
L 494.46395 512.131003 
L 494.901254 512.244916 
L 495.338558 512.698785 
L 495.775862 515.120815 
L 496.213166 511.610459 
L 496.65047 514.292046 
L 497.087774 512.288635 
L 497.525078 512.102231 
L 497.962382 510.470302 
L 498.399687 509.529354 
L 498.836991 509.106195 
L 500.148903 499.841286 
L 500.586207 499.03532 
L 501.023511 497.098992 
L 501.460815 496.866012 
L 501.898119 497.524753 
L 502.335423 496.16034 
L 502.772727 493.989757 
L 503.210031 490.730031 
L 503.647335 490.588314 
L 504.084639 487.589422 
L 504.521944 487.699968 
L 504.959248 483.858329 
L 505.396552 481.992961 
L 505.833856 480.725321 
L 506.27116 479.904816 
L 506.708464 478.001698 
L 507.145768 476.819608 
L 508.020376 473.404749 
L 508.45768 469.961425 
L 508.894984 470.506557 
L 509.332288 469.357116 
L 509.769592 468.810402 
L 510.206897 469.041647 
L 510.644201 466.207427 
L 511.081505 470.724284 
L 511.518809 470.232052 
L 511.956113 468.441828 
L 512.393417 467.82446 
L 512.830721 470.993891 
L 513.268025 471.884438 
L 514.579937 469.951528 
L 515.017241 469.147705 
L 515.454545 470.504007 
L 515.89185 470.622358 
L 516.329154 468.160946 
L 516.766458 471.635491 
L 517.203762 472.63031 
L 517.641066 472.597814 
L 518.07837 476.017723 
L 518.515674 474.934855 
L 518.952978 476.354567 
L 519.390282 477.013664 
L 519.827586 477.224045 
L 520.26489 478.222128 
L 520.702194 481.08813 
L 521.139498 479.204091 
L 521.576803 479.046153 
L 522.014107 479.86931 
L 522.451411 478.934943 
L 522.888715 479.8738 
L 523.326019 479.073088 
L 523.763323 479.726625 
L 524.200627 480.019699 
L 524.637931 477.373362 
L 525.075235 477.316277 
L 525.512539 478.797716 
L 525.949843 481.336567 
L 526.387147 485.705842 
L 526.824451 484.670926 
L 527.261755 486.922672 
L 527.69906 484.654092 
L 528.136364 488.843951 
L 528.573668 490.505264 
L 529.010972 491.026369 
L 529.448276 489.551001 
L 530.322884 483.50062 
L 530.760188 484.271489 
L 531.634796 481.331874 
L 532.0721 482.214717 
L 532.946708 476.740332 
L 533.384013 478.725991 
L 533.821317 479.098187 
L 534.695925 474.766918 
L 535.133229 475.138195 
L 535.570533 476.278199 
L 536.007837 474.031606 
L 536.445141 474.528683 
L 536.882445 473.650584 
L 537.319749 472.30224 
L 537.757053 473.848415 
L 538.194357 475.827391 
L 538.631661 474.052266 
L 539.068966 475.484987 
L 539.50627 477.771626 
L 539.943574 472.890531 
L 540.380878 471.872909 
L 540.818182 471.700125 
L 541.255486 472.724124 
L 541.69279 473.167025 
L 542.130094 472.252145 
L 542.567398 469.754258 
L 543.004702 466.537077 
L 543.442006 471.366139 
L 543.87931 465.970825 
L 544.316614 463.296277 
L 544.753918 464.779552 
L 545.191223 462.552803 
L 546.065831 461.249454 
L 546.940439 455.415371 
L 547.377743 455.330229 
L 547.815047 454.647461 
L 548.252351 455.180044 
L 548.689655 456.719792 
L 549.126959 456.065796 
L 551.31348 464.868418 
L 551.750784 469.395784 
L 552.625392 474.443184 
L 553.5 475.363574 
L 553.937304 477.674496 
L 554.374608 478.634676 
L 554.811912 477.74867 
L 555.249216 478.650388 
L 556.123824 475.024333 
L 556.561129 477.21527 
L 556.998433 475.996246 
L 557.435737 475.371124 
L 557.873041 476.185915 
L 558.310345 477.265723 
L 558.747649 477.813865 
L 559.184953 476.183212 
L 559.622257 476.545868 
L 560.059561 476.719111 
L 560.496865 477.741528 
L 560.934169 477.277762 
L 561.371473 478.65804 
L 561.808777 475.884628 
L 563.12069 470.875386 
L 563.557994 470.472276 
L 564.432602 464.36379 
L 564.869906 464.977894 
L 565.30721 464.101274 
L 565.744514 461.857996 
L 566.181818 464.303186 
L 566.619122 461.719443 
L 567.056426 462.866742 
L 567.49373 462.932549 
L 567.931034 461.388619 
L 568.368339 462.068224 
L 569.242947 465.221739 
L 569.680251 465.153177 
L 570.117555 465.786104 
L 570.554859 465.283058 
L 570.992163 465.717287 
L 571.429467 465.85482 
L 571.866771 465.391156 
L 572.304075 464.329101 
L 572.741379 465.522618 
L 573.178683 464.854185 
L 573.615987 464.715683 
L 574.053292 463.352596 
L 574.490596 460.574593 
L 574.9279 456.498596 
L 575.365204 456.423198 
L 576.239812 455.423788 
L 576.677116 453.849198 
L 577.551724 448.452558 
L 577.989028 448.946983 
L 578.426332 448.906274 
L 579.30094 444.87216 
L 579.738245 446.49307 
L 580.175549 441.979886 
L 580.612853 445.321081 
L 581.050157 442.487574 
L 581.487461 444.475171 
L 581.924765 441.708085 
L 582.362069 443.100045 
L 582.799373 441.947033 
L 583.236677 441.279518 
L 583.673981 437.664023 
L 584.111285 438.100394 
L 584.548589 438.916359 
L 584.985893 433.875335 
L 585.423197 433.631184 
L 585.860502 430.870015 
L 586.297806 436.198398 
L 586.73511 436.76766 
L 587.172414 435.153127 
L 587.609718 430.155976 
L 588.047022 429.178604 
L 588.484326 427.912953 
L 588.92163 424.672714 
L 589.358934 420.459185 
L 589.796238 421.038649 
L 590.233542 419.070183 
L 590.670846 414.845787 
L 591.545455 410.907681 
L 592.420063 405.703974 
L 592.857367 407.522461 
L 593.294671 406.262014 
L 593.731975 404.273907 
L 594.169279 405.912825 
L 594.606583 406.317108 
L 595.043887 404.23483 
L 595.481191 399.758478 
L 595.918495 397.660028 
L 596.793103 391.735957 
L 597.230408 386.773801 
L 597.667712 386.865575 
L 598.105016 385.905905 
L 598.979624 379.063025 
L 599.854232 374.778485 
L 600.291536 376.927183 
L 600.72884 379.771606 
L 601.166144 379.729724 
L 601.603448 378.501619 
L 602.040752 372.980098 
L 602.478056 372.467614 
L 603.789969 363.306365 
L 604.227273 368.088749 
L 604.664577 360.775523 
L 605.101881 362.328279 
L 605.976489 358.681104 
L 606.413793 352.8636 
L 607.288401 348.754751 
L 607.725705 348.187784 
L 608.163009 341.268691 
L 608.600313 345.818299 
L 609.912226 341.09708 
L 611.224138 330.715583 
L 611.661442 330.950552 
L 612.098746 327.629049 
L 612.53605 326.910061 
L 613.410658 319.223313 
L 613.847962 320.491514 
L 614.285266 318.384953 
L 614.722571 317.459871 
L 615.159875 319.649584 
L 615.597179 319.511132 
L 616.034483 322.135891 
L 616.471787 323.110457 
L 616.909091 324.51364 
L 618.221003 329.807131 
L 618.658307 334.868917 
L 619.095611 335.453126 
L 619.532915 336.905283 
L 619.970219 340.32208 
L 620.407524 339.716241 
L 620.844828 341.611911 
L 621.282132 333.606735 
L 621.719436 336.541045 
L 622.15674 336.240064 
L 622.594044 337.369609 
L 623.031348 335.7286 
L 623.468652 330.863727 
L 624.780564 326.321567 
L 625.217868 323.4699 
L 625.655172 322.466256 
L 626.092476 315.900381 
L 626.529781 315.347902 
L 626.967085 309.003835 
L 627.404389 308.827736 
L 628.278997 302.299407 
L 629.153605 301.424726 
L 630.028213 303.168681 
L 630.902821 314.567902 
L 631.340125 318.117437 
L 631.777429 314.017158 
L 632.214734 314.143978 
L 632.652038 316.064849 
L 633.089342 315.727751 
L 633.526646 315.064062 
L 633.96395 314.697477 
L 634.401254 313.695976 
L 634.838558 314.479139 
L 635.275862 316.290942 
L 635.713166 313.592928 
L 636.15047 307.759203 
L 636.587774 307.815726 
L 637.025078 302.802607 
L 637.462382 300.217333 
L 637.899687 295.990846 
L 638.774295 290.456367 
L 639.211599 290.583187 
L 639.648903 288.187991 
L 640.086207 286.4674 
L 640.523511 287.644592 
L 640.960815 286.392818 
L 641.398119 284.511636 
L 641.835423 283.856313 
L 642.272727 283.407392 
L 642.710031 282.246524 
L 643.147335 280.76886 
L 643.584639 278.511911 
L 644.021944 277.202389 
L 644.896552 277.393588 
L 645.333856 278.731678 
L 645.77116 277.860976 
L 646.208464 278.253986 
L 647.083072 273.176896 
L 647.520376 273.068645 
L 647.95768 272.635844 
L 648.394984 268.601577 
L 648.832288 269.13518 
L 649.269592 268.552604 
L 649.706897 266.822728 
L 650.144201 266.138124 
L 650.581505 265.844489 
L 651.018809 265.402914 
L 651.456113 265.875097 
L 651.893417 265.432196 
L 652.330721 265.863568 
L 652.768025 266.513687 
L 653.205329 267.835555 
L 653.642633 267.816067 
L 654.079937 267.086367 
L 654.517241 266.878945 
L 654.954545 266.068439 
L 655.39185 268.68177 
L 655.829154 265.352615 
L 656.266458 265.803882 
L 656.703762 263.622739 
L 657.141066 262.383208 
L 657.57837 259.376255 
L 658.015674 258.074282 
L 658.452978 255.614196 
L 658.890282 249.781797 
L 659.327586 245.711412 
L 660.202194 241.55563 
L 660.639498 238.165666 
L 661.076803 237.595944 
L 661.514107 234.116502 
L 661.951411 233.628301 
L 662.388715 237.23742 
L 662.826019 228.783323 
L 663.263323 227.862628 
L 663.700627 226.121427 
L 664.137931 221.189216 
L 664.575235 223.694704 
L 665.012539 220.590009 
L 665.449843 219.881224 
L 666.324451 211.613328 
L 667.19906 206.774778 
L 667.636364 206.378809 
L 668.073668 204.637507 
L 668.510972 204.832583 
L 668.948276 199.961384 
L 669.38558 197.069416 
L 669.822884 195.406981 
L 670.260188 191.876525 
L 671.134796 181.932522 
L 671.5721 182.94545 
L 672.009404 180.407007 
L 672.446708 182.061994 
L 672.884013 183.223475 
L 673.321317 181.989759 
L 673.758621 178.324423 
L 674.195925 177.306699 
L 674.633229 177.897234 
L 675.070533 174.966393 
L 675.507837 172.907785 
L 675.945141 169.656171 
L 676.382445 168.53193 
L 676.819749 173.06654 
L 677.694357 171.938729 
L 678.131661 173.197135 
L 678.568966 171.254125 
L 679.00627 168.786489 
L 679.443574 164.561328 
L 680.318182 171.258308 
L 680.755486 178.245964 
L 681.19279 180.782876 
L 681.630094 182.588762 
L 682.067398 181.318316 
L 682.504702 174.005193 
L 683.37931 165.272561 
L 683.816614 165.757498 
L 684.253918 163.675117 
L 684.691223 167.276788 
L 685.128527 168.376236 
L 685.565831 167.360757 
L 686.003135 168.530094 
L 686.440439 169.373657 
L 686.877743 172.599356 
L 687.315047 171.040275 
L 687.752351 172.879932 
L 688.189655 175.909535 
L 688.626959 183.119713 
L 689.064263 187.895924 
L 689.501567 186.969209 
L 689.938871 186.826268 
L 690.376176 185.342381 
L 690.81348 184.729196 
L 691.250784 189.200141 
L 691.688088 189.992894 
L 692.125392 192.127003 
L 692.562696 192.458388 
L 693.437304 205.175905 
L 693.874608 207.158503 
L 694.311912 207.642419 
L 694.749216 204.546702 
L 695.18652 202.827132 
L 695.623824 199.488793 
L 696.061129 199.68489 
L 696.498433 200.778114 
L 696.935737 200.305013 
L 697.373041 198.961107 
L 697.810345 199.583475 
L 698.247649 200.802193 
L 698.684953 202.779077 
L 699.122257 200.12269 
L 699.559561 199.822933 
L 699.996865 198.270586 
L 700.434169 195.63389 
L 700.871473 194.066953 
L 701.308777 190.767385 
L 701.746082 193.949621 
L 702.183386 195.491766 
L 702.62069 194.693095 
L 703.057994 191.939374 
L 703.495298 191.256606 
L 703.932602 191.888258 
L 704.369906 191.653595 
L 704.80721 194.974181 
L 705.244514 196.216977 
L 705.681818 196.777414 
L 706.119122 200.22686 
L 706.556426 205.359249 
L 706.99373 207.009849 
L 707.431034 207.584161 
L 708.305643 196.747826 
L 708.742947 200.429282 
L 709.180251 200.900955 
L 709.617555 206.09354 
L 710.054859 206.829362 
L 710.492163 206.457982 
L 710.929467 204.850846 
L 711.366771 210.065367 
L 712.241379 204.410904 
L 712.678683 206.975976 
L 713.115987 210.452765 
L 713.553292 210.648862 
L 713.990596 213.833037 
L 714.4279 212.44628 
L 714.865204 209.288326 
L 715.302508 209.680111 
L 715.739812 209.430246 
L 716.177116 229.09767 
L 717.051724 241.660004 
L 717.489028 234.178841 
L 717.926332 232.731786 
L 718.363636 232.924822 
L 718.80094 234.475945 
L 719.238245 233.911733 
L 719.675549 231.562755 
L 720.112853 235.140858 
L 720.550157 235.337567 
L 720.987461 228.886983 
L 721.424765 228.138714 
L 721.862069 229.040637 
L 722.299373 227.154149 
L 722.736677 222.326312 
L 723.173981 218.941959 
L 723.611285 216.993949 
L 724.048589 210.506636 
L 724.923197 205.007662 
L 725.360502 203.552241 
L 726.23511 197.192972 
L 726.672414 200.304707 
L 727.109718 201.307535 
L 727.547022 198.681654 
L 727.984326 197.66444 
L 728.42163 203.992897 
L 729.296238 190.621792 
L 729.733542 190.058294 
L 730.170846 191.008578 
L 730.60815 187.771247 
L 731.045455 180.97479 
L 731.482759 178.608671 
L 731.920063 178.622649 
L 732.357367 174.708978 
L 732.794671 175.937593 
L 733.231975 175.773533 
L 733.669279 171.273408 
L 734.106583 168.893209 
L 734.543887 167.393508 
L 734.981191 163.025917 
L 735.418495 161.757613 
L 735.855799 158.386626 
L 736.293103 156.365667 
L 736.730408 157.092306 
L 737.167712 159.14214 
L 737.605016 155.433952 
L 738.04232 154.781588 
L 738.916928 152.495459 
L 739.354232 152.64799 
L 739.791536 150.888731 
L 740.22884 147.23472 
L 740.666144 147.294202 
L 741.103448 145.74216 
L 741.540752 139.425029 
L 741.978056 144.60282 
L 742.415361 133.649357 
L 742.852665 131.884078 
L 743.289969 133.625584 
L 743.727273 133.279303 
L 744.164577 135.200174 
L 744.601881 135.262105 
L 745.039185 137.198075 
L 745.476489 137.823198 
L 745.913793 138.806334 
L 746.351097 137.107475 
L 747.225705 135.837947 
L 747.663009 137.988788 
L 748.100313 129.778333 
L 748.537618 127.729214 
L 748.974922 130.605368 
L 749.412226 132.535013 
L 749.84953 129.806697 
L 750.286834 131.112138 
L 750.724138 133.575897 
L 751.161442 134.338552 
L 751.598746 133.817498 
L 752.03605 132.998421 
L 752.473354 133.703839 
L 753.347962 131.860815 
L 753.785266 131.40965 
L 754.222571 133.443261 
L 755.097179 138.980393 
L 755.534483 137.961037 
L 755.971787 138.05378 
L 756.409091 137.403457 
L 756.846395 138.199577 
L 757.283699 137.822892 
L 757.721003 140.011176 
L 758.158307 140.764139 
L 758.595611 140.940952 
L 759.032915 140.048212 
L 759.470219 141.344981 
L 759.907524 141.807472 
L 760.344828 140.665376 
L 760.782132 142.568698 
L 761.219436 143.623356 
L 761.65674 140.242677 
L 762.094044 140.07882 
L 762.531348 138.971108 
L 762.968652 137.360911 
L 763.84326 135.248127 
L 764.280564 136.286562 
L 765.155172 143.530103 
L 765.592476 143.325232 
L 766.029781 142.288429 
L 766.467085 140.099532 
L 766.904389 142.837847 
L 767.341693 143.11128 
L 767.778997 141.322535 
L 768.216301 142.246496 
L 768.653605 149.079988 
L 769.528213 154.897594 
L 769.965517 155.126543 
L 770.402821 155.059103 
L 770.840125 153.937107 
L 771.277429 156.975485 
L 772.152038 159.979785 
L 772.589342 161.279717 
L 773.46395 167.723158 
L 773.901254 168.115964 
L 774.338558 168.926368 
L 774.775862 170.596456 
L 775.213166 170.611862 
L 775.65047 168.386235 
L 776.087774 170.756435 
L 776.525078 169.932665 
L 776.962382 167.767642 
L 777.399687 169.232247 
L 778.274295 175.050668 
L 778.711599 176.363251 
L 780.460815 190.756162 
L 780.898119 188.634297 
L 781.335423 184.88642 
L 781.772727 185.137 
L 782.210031 184.718075 
L 783.084639 180.697989 
L 783.521944 179.083303 
L 784.396552 177.330063 
L 784.833856 174.197208 
L 785.27116 173.103372 
L 785.708464 169.834413 
L 786.145768 168.733536 
L 786.583072 164.463585 
L 787.45768 159.622893 
L 787.894984 157.289627 
L 788.332288 151.88156 
L 788.769592 152.127446 
L 789.206897 151.017898 
L 789.644201 146.156902 
L 790.081505 150.701205 
L 790.518809 148.093689 
L 791.830721 133.640888 
L 792.268025 130.671583 
L 792.705329 131.518411 
L 793.142633 131.151725 
L 793.579937 129.541425 
L 794.89185 127.351202 
L 795.329154 128.649399 
L 796.203762 118.111188 
L 796.641066 119.098814 
L 797.07837 121.681639 
L 797.515674 121.319237 
L 798.390282 127.865624 
L 798.827586 128.981295 
L 799.26489 129.137091 
L 799.702194 128.507683 
L 800.139498 132.487264 
L 800.576803 134.376914 
L 801.014107 134.414154 
L 801.451411 136.067917 
L 801.888715 139.269845 
L 802.326019 144.917574 
L 802.763323 146.159248 
L 804.075235 156.913248 
L 804.949843 168.643854 
L 805.387147 177.300781 
L 805.824451 179.11534 
L 806.261755 182.220749 
L 806.69906 183.028807 
L 807.136364 188.049067 
L 807.573668 189.325023 
L 808.010972 189.366242 
L 808.448276 194.550359 
L 808.88558 194.812671 
L 809.322884 194.334162 
L 810.197492 188.656845 
L 810.634796 187.350179 
L 811.0721 188.624502 
L 811.509404 186.442747 
L 811.946708 189.6812 
L 812.384013 189.996159 
L 812.821317 187.689523 
L 813.258621 189.844853 
L 813.695925 188.690004 
L 814.133229 189.956675 
L 814.570533 188.088144 
L 815.007837 188.453402 
L 815.445141 186.382041 
L 815.882445 187.219074 
L 816.319749 186.620887 
L 816.757053 185.597756 
L 817.194357 186.327252 
L 817.631661 189.266357 
L 818.068966 189.892091 
L 818.50627 189.587233 
L 818.943574 192.033954 
L 819.380878 192.464713 
L 819.818182 191.631965 
L 820.255486 192.046197 
L 820.69279 190.214498 
L 822.004702 179.664451 
L 822.442006 179.599766 
L 822.87931 177.402095 
L 823.753918 175.493263 
L 824.191223 170.293128 
L 824.628527 170.379749 
L 825.065831 168.144532 
L 825.503135 166.504849 
L 825.940439 165.83208 
L 826.377743 165.488859 
L 826.815047 161.860151 
L 827.252351 160.199144 
L 827.689655 160.115686 
L 828.126959 162.789621 
L 828.564263 161.35736 
L 829.001567 161.104026 
L 829.438871 156.24507 
L 829.876176 156.236194 
L 830.31348 150.559795 
L 830.750784 150.184538 
L 831.188088 147.435306 
L 831.625392 146.959552 
L 832.062696 138.47699 
L 832.5 138.688492 
L 832.937304 133.598241 
L 833.374608 131.874793 
L 833.811912 131.280585 
L 834.249216 132.545726 
L 834.68652 131.628091 
L 835.123824 122.471637 
L 835.561129 119.504781 
L 835.998433 118.311468 
L 836.435737 122.805471 
L 836.873041 121.186295 
L 837.310345 121.213945 
L 837.747649 121.401573 
L 838.184953 119.251243 
L 838.622257 116.50752 
L 839.059561 112.947987 
L 839.496865 112.466519 
L 839.934169 111.6 
L 840.371473 114.139973 
L 840.808777 112.593951 
L 841.246082 113.396193 
L 841.683386 112.616499 
L 842.12069 113.133473 
L 842.557994 113.210605 
L 842.995298 115.703748 
L 843.432602 121.405756 
L 843.869906 122.77323 
L 844.30721 120.909801 
L 844.744514 118.239232 
L 845.181818 118.994338 
L 845.619122 120.427619 
L 846.056426 122.348082 
L 846.49373 118.701927 
L 846.931034 124.099281 
L 847.805643 131.001336 
L 848.680251 137.614858 
L 849.117555 139.489612 
L 849.554859 143.885465 
L 849.992163 145.852758 
L 850.429467 149.987114 
L 850.866771 149.3473 
L 851.304075 150.304012 
L 851.741379 150.59683 
L 852.178683 153.453701 
L 852.615987 150.513882 
L 853.053292 148.89185 
L 853.490596 149.109474 
L 853.9279 150.556326 
L 854.365204 151.115844 
L 855.239812 143.774255 
L 855.677116 144.582516 
L 856.11442 146.696729 
L 856.551724 145.284057 
L 856.989028 145.248041 
L 857.863636 147.000873 
L 858.738245 150.064757 
L 859.175549 152.895815 
L 859.612853 150.013233 
L 860.050157 150.812312 
L 860.487461 151.098908 
L 860.924765 150.4393 
L 861.362069 152.625442 
L 861.799373 152.461178 
L 862.236677 155.227959 
L 863.111285 157.011092 
L 863.548589 161.457653 
L 863.985893 161.675685 
L 864.423197 164.997393 
L 865.297806 165.7526 
L 866.172414 170.848974 
L 866.609718 172.421829 
L 867.047022 171.790585 
L 867.484326 172.101054 
L 867.92163 172.089219 
L 868.358934 172.580787 
L 868.796238 172.615477 
L 869.233542 180.226521 
L 869.670846 181.457686 
L 870.10815 185.481853 
L 870.545455 177.092339 
L 870.982759 176.115018 
L 871.420063 177.965082 
L 871.857367 178.830275 
L 872.294671 183.934198 
L 872.731975 184.409442 
L 873.169279 187.373135 
L 873.606583 188.92079 
L 874.043887 193.814231 
L 874.481191 194.356506 
L 874.918495 197.553333 
L 875.355799 198.619519 
L 875.793103 199.35024 
L 876.230408 200.658946 
L 876.667712 203.242995 
L 877.105016 200.686902 
L 877.54232 202.432285 
L 878.854232 210.97535 
L 879.291536 212.865 
L 879.72884 213.232299 
L 880.166144 216.386886 
L 880.603448 216.227009 
L 881.040752 217.156683 
L 881.478056 217.533879 
L 883.227273 230.31649 
L 884.539185 234.719689 
L 884.976489 238.360232 
L 885.851097 243.224493 
L 886.288401 245.058538 
L 886.725705 245.379007 
L 887.163009 248.155275 
L 887.600313 248.405549 
L 888.037618 249.574579 
L 888.474922 251.438825 
L 888.912226 250.617912 
L 889.34953 252.894247 
L 889.786834 252.849763 
L 890.224138 253.983798 
L 891.098746 249.980241 
L 891.53605 250.490786 
L 891.973354 250.724837 
L 892.410658 253.1838 
L 892.847962 252.182707 
L 893.285266 252.863842 
L 894.159875 256.145759 
L 894.597179 257.82156 
L 895.034483 257.862779 
L 895.471787 256.76425 
L 895.909091 258.488514 
L 896.346395 258.887441 
L 896.783699 258.859077 
L 897.658307 262.518394 
L 898.095611 264.094514 
L 898.532915 264.986234 
L 898.970219 264.747286 
L 899.407524 267.577017 
L 899.844828 268.004716 
L 900.282132 267.390205 
L 900.719436 266.147408 
L 901.15674 265.849692 
L 901.594044 262.972212 
L 902.031348 266.418291 
L 902.468652 265.178046 
L 902.905956 267.69241 
L 903.34326 267.518249 
L 903.780564 266.903024 
L 904.217868 267.241449 
L 904.655172 269.047437 
L 905.092476 269.464219 
L 905.529781 270.131682 
L 905.967085 271.714332 
L 906.404389 272.460561 
L 906.841693 271.633425 
L 907.278997 274.453769 
L 907.716301 274.747915 
L 908.153605 276.897123 
L 908.590909 275.990507 
L 909.028213 276.029583 
L 909.465517 277.036696 
L 909.902821 277.362572 
L 910.340125 276.732757 
L 910.777429 275.83869 
L 911.214734 275.387321 
L 911.652038 273.950876 
L 912.089342 274.142178 
L 912.526646 271.490076 
L 913.401254 269.201396 
L 913.838558 269.044988 
L 914.275862 266.410333 
L 914.713166 265.687571 
L 915.587774 266.034872 
L 916.025078 261.839095 
L 916.462382 263.433376 
L 916.899687 262.6445 
L 917.336991 263.74303 
L 917.774295 261.216116 
L 918.211599 260.443462 
L 918.648903 260.427954 
L 919.086207 259.188422 
L 919.523511 257.220721 
L 919.960815 254.491486 
L 920.398119 256.348794 
L 920.835423 253.285114 
L 921.272727 254.370686 
L 921.710031 255.811007 
L 922.147335 255.989453 
L 922.584639 255.913137 
L 923.459248 256.396135 
L 923.896552 253.95676 
L 924.333856 253.958291 
L 924.77116 253.793925 
L 925.208464 253.190228 
L 925.645768 253.952169 
L 926.083072 255.324438 
L 926.520376 257.429265 
L 926.95768 256.367261 
L 927.394984 256.287884 
L 927.832288 254.724313 
L 928.269592 255.294034 
L 928.706897 256.685995 
L 929.144201 257.176135 
L 930.018809 261.399561 
L 930.456113 260.759339 
L 930.893417 263.301251 
L 931.330721 268.088583 
L 931.768025 268.620656 
L 932.205329 265.880709 
L 932.642633 264.810033 
L 933.079937 265.733177 
L 933.517241 267.981964 
L 933.954545 267.701389 
L 933.954545 267.701389 
" style="fill:none;stroke:#ff0000;stroke-linecap:square;stroke-width:1.5;"/>
   </g>
   <g id="line2d_28">
    <path clip-path="url(#pda2c8ace07)" d="M 173.045455 436.982173 
L 173.482759 433.769329 
L 173.920063 434.826945 
L 174.794671 439.35625 
L 175.231975 437.751919 
L 175.669279 433.074522 
L 176.106583 432.161835 
L 176.981191 427.758279 
L 177.418495 427.143105 
L 178.293103 430.590255 
L 178.730408 435.542719 
L 179.167712 437.065989 
L 179.605016 440.584456 
L 180.04232 440.394226 
L 180.916928 444.764317 
L 181.354232 445.477132 
L 182.22884 443.194319 
L 183.978056 456.494617 
L 184.415361 458.140473 
L 184.852665 459.076932 
L 185.727273 454.578287 
L 186.164577 454.849629 
L 186.601881 460.508479 
L 187.039185 461.978287 
L 187.476489 462.541886 
L 187.913793 460.373701 
L 188.351097 461.922784 
L 188.788401 459.111876 
L 190.100313 447.399227 
L 190.974922 436.395515 
L 191.412226 432.08307 
L 191.84953 426.353157 
L 192.286834 428.210108 
L 192.724138 427.214677 
L 193.161442 429.181256 
L 194.03605 425.405271 
L 194.473354 418.311558 
L 195.347962 409.227237 
L 197.097179 402.832157 
L 197.534483 407.394416 
L 198.409091 413.51239 
L 198.846395 415.050046 
L 199.283699 413.425055 
L 199.721003 412.930579 
L 200.158307 414.095477 
L 200.595611 414.059002 
L 201.032915 409.96311 
L 201.470219 402.715539 
L 201.907524 400.502615 
L 202.344828 400.894094 
L 202.782132 403.061872 
L 203.219436 403.270365 
L 203.65674 400.78768 
L 204.094044 396.685207 
L 204.531348 389.13288 
L 204.968652 384.323408 
L 205.405956 376.783681 
L 205.84326 373.337398 
L 206.280564 361.919914 
L 206.717868 360.219167 
L 207.155172 355.805052 
L 207.592476 354.323001 
L 208.029781 351.852406 
L 208.467085 353.319765 
L 208.904389 354.072422 
L 209.341693 356.5724 
L 209.778997 357.195584 
L 210.216301 361.029673 
L 210.653605 366.291484 
L 211.090909 368.077577 
L 211.965517 383.568864 
L 212.840125 395.153826 
L 213.277429 399.159373 
L 213.714734 399.325626 
L 214.152038 400.501544 
L 214.589342 394.271543 
L 215.46395 379.16541 
L 215.901254 372.318246 
L 216.338558 369.825409 
L 217.213166 367.838475 
L 218.087774 367.00787 
L 218.525078 367.120457 
L 218.962382 368.02039 
L 219.399687 371.996757 
L 219.836991 374.324718 
L 220.274295 379.577754 
L 220.711599 380.740102 
L 221.148903 387.43397 
L 222.023511 396.981699 
L 222.460815 399.613089 
L 222.898119 405.010953 
L 223.772727 412.166699 
L 224.210031 413.7066 
L 224.647335 414.395795 
L 225.084639 412.797025 
L 225.959248 405.815541 
L 226.833856 391.642602 
L 227.27116 386.039969 
L 227.708464 382.448806 
L 228.145768 380.095747 
L 229.020376 372.862868 
L 229.45768 372.526484 
L 229.894984 374.776546 
L 230.332288 378.890191 
L 230.769592 387.270675 
L 231.206897 390.536216 
L 232.956113 417.791983 
L 233.830721 422.605383 
L 234.268025 412.040287 
L 234.705329 406.704864 
L 235.579937 400.111238 
L 236.017241 397.278088 
L 236.454545 397.641255 
L 236.89185 397.110355 
L 237.329154 396.283627 
L 238.203762 387.403259 
L 238.641066 386.202702 
L 239.07837 383.111577 
L 239.952978 378.815507 
L 240.827586 369.749501 
L 241.702194 356.516846 
L 242.139498 351.06455 
L 243.451411 341.440709 
L 243.888715 338.421308 
L 245.200627 335.982954 
L 245.637931 337.977285 
L 246.075235 340.695704 
L 246.512539 341.649457 
L 247.387147 347.306063 
L 247.824451 349.458944 
L 248.261755 352.54456 
L 248.69906 361.573837 
L 249.136364 361.574296 
L 249.573668 363.095933 
L 250.010972 362.384496 
L 250.88558 355.471422 
L 251.322884 349.520059 
L 251.760188 341.731385 
L 253.0721 324.672803 
L 253.509404 326.281062 
L 253.946708 326.110064 
L 254.384013 325.673591 
L 255.695925 337.713646 
L 256.570533 344.095259 
L 257.007837 343.687863 
L 257.445141 342.26907 
L 257.882445 343.770812 
L 258.319749 345.814626 
L 258.757053 344.315128 
L 259.631661 339.78664 
L 260.068966 339.483924 
L 260.50627 339.526164 
L 260.943574 337.959022 
L 261.380878 336.901712 
L 261.818182 337.711912 
L 262.255486 334.726894 
L 262.69279 336.752139 
L 263.130094 337.773026 
L 263.567398 341.222166 
L 264.004702 342.804918 
L 264.87931 350.469526 
L 265.316614 353.076123 
L 265.753918 352.284084 
L 266.191223 354.70642 
L 267.065831 363.644382 
L 267.503135 366.168082 
L 267.940439 366.281536 
L 268.377743 367.309259 
L 268.815047 366.82019 
L 269.252351 367.713492 
L 269.689655 367.149178 
L 270.126959 369.483056 
L 271.001567 369.467395 
L 271.438871 371.631805 
L 272.31348 373.946859 
L 272.750784 374.117347 
L 273.188088 374.621056 
L 273.625392 376.155447 
L 274.062696 377.02921 
L 274.5 376.746951 
L 274.937304 377.458185 
L 275.811912 380.328319 
L 276.249216 380.258532 
L 276.68652 378.267007 
L 277.123824 377.036709 
L 277.561129 377.521595 
L 278.435737 371.035404 
L 278.873041 367.016593 
L 279.310345 365.525768 
L 279.747649 364.971504 
L 280.184953 364.21293 
L 281.059561 360.349048 
L 281.496865 360.991515 
L 281.934169 360.461278 
L 282.371473 360.198048 
L 283.683386 356.69769 
L 284.557994 358.618816 
L 284.995298 359.836003 
L 286.30721 365.656312 
L 286.744514 366.629042 
L 288.056426 370.716466 
L 288.49373 369.610284 
L 289.368339 368.178839 
L 289.805643 368.680967 
L 290.242947 364.829482 
L 290.680251 365.616624 
L 291.117555 365.203106 
L 291.554859 365.238816 
L 291.992163 364.685878 
L 292.429467 367.100562 
L 292.866771 366.958183 
L 293.304075 367.426795 
L 293.741379 366.471461 
L 294.178683 364.547733 
L 295.490596 367.277631 
L 295.9279 368.632861 
L 296.365204 368.897928 
L 296.802508 368.735603 
L 297.239812 366.531504 
L 297.677116 365.06287 
L 298.11442 365.667535 
L 298.551724 367.669824 
L 299.863636 369.825307 
L 300.30094 371.346077 
L 300.738245 372.2782 
L 301.175549 372.404663 
L 301.612853 374.020727 
L 302.050157 374.685334 
L 302.487461 372.356047 
L 303.362069 369.130041 
L 303.799373 366.014735 
L 304.236677 365.067767 
L 304.673981 362.973143 
L 305.548589 361.419877 
L 305.985893 360.613912 
L 306.423197 359.139666 
L 306.860502 359.00754 
L 307.297806 359.400601 
L 308.172414 361.900427 
L 308.609718 362.134631 
L 309.047022 360.170755 
L 309.484326 361.211588 
L 309.92163 359.854929 
L 310.358934 359.651181 
L 311.233542 355.899478 
L 311.670846 353.294564 
L 312.10815 351.689366 
L 313.420063 344.93168 
L 313.857367 344.953412 
L 314.294671 346.33772 
L 314.731975 347.262905 
L 315.169279 348.898814 
L 315.606583 349.865626 
L 316.043887 352.671585 
L 316.481191 353.417201 
L 317.355799 356.711872 
L 317.793103 361.178736 
L 318.230408 361.316269 
L 318.667712 364.994307 
L 319.105016 367.548156 
L 319.54232 371.461878 
L 319.979624 372.375126 
L 320.416928 371.963343 
L 320.854232 370.769928 
L 321.291536 368.246993 
L 322.166144 361.019063 
L 322.603448 361.123845 
L 323.040752 360.315175 
L 323.478056 359.131504 
L 323.915361 358.359156 
L 324.352665 357.234915 
L 325.227273 358.389968 
L 325.664577 359.631081 
L 326.101881 360.52826 
L 326.539185 362.440407 
L 326.976489 363.040532 
L 327.413793 364.73429 
L 327.851097 361.586131 
L 328.288401 361.400339 
L 328.725705 363.423135 
L 329.163009 363.070835 
L 330.037618 365.714621 
L 330.474922 362.60008 
L 330.912226 362.188399 
L 331.34953 360.741803 
L 331.786834 356.168576 
L 332.224138 358.637283 
L 332.661442 359.492018 
L 333.098746 358.153826 
L 333.53605 355.793931 
L 333.973354 352.581188 
L 334.410658 346.207533 
L 334.847962 342.111131 
L 335.285266 339.390977 
L 336.597179 328.979994 
L 337.034483 326.242292 
L 337.471787 327.585891 
L 338.346395 327.039024 
L 339.658307 332.732768 
L 340.095611 336.193029 
L 340.532915 338.12196 
L 340.970219 337.615802 
L 341.407524 338.119511 
L 342.282132 342.186223 
L 342.719436 344.339717 
L 343.15674 345.450082 
L 343.594044 345.918082 
L 344.031348 346.607787 
L 344.468652 347.512158 
L 344.905956 349.24285 
L 345.34326 348.46336 
L 345.780564 349.889704 
L 346.217868 347.56307 
L 346.655172 347.560417 
L 347.529781 341.75832 
L 348.404389 330.159942 
L 349.278997 322.914156 
L 349.716301 318.083666 
L 350.153605 311.866216 
L 351.465517 300.342725 
L 352.340125 296.642597 
L 352.777429 295.55019 
L 353.652038 287.544504 
L 354.089342 282.312842 
L 354.96395 278.264597 
L 355.401254 277.352675 
L 355.838558 277.096484 
L 356.713166 283.959667 
L 358.462382 298.657027 
L 358.899687 304.858664 
L 359.336991 308.806922 
L 359.774295 308.150172 
L 360.211599 311.946103 
L 360.648903 313.701587 
L 361.523511 309.885557 
L 361.960815 310.363351 
L 362.398119 310.095325 
L 363.272727 316.707622 
L 363.710031 316.964323 
L 364.147335 318.197019 
L 364.584639 323.261968 
L 365.021944 325.521264 
L 365.459248 331.069924 
L 366.333856 339.753583 
L 367.645768 359.663526 
L 368.520376 376.546008 
L 369.394984 388.545202 
L 370.269592 406.807963 
L 370.706897 412.678928 
L 371.581505 421.041863 
L 372.018809 423.21316 
L 372.456113 419.259342 
L 373.330721 414.961792 
L 373.768025 418.65335 
L 374.205329 417.904876 
L 375.079937 421.928278 
L 376.829154 444.978626 
L 377.266458 459.970692 
L 377.703762 457.07699 
L 379.452978 425.121278 
L 379.890282 422.253592 
L 380.327586 430.912815 
L 380.76489 442.581134 
L 381.202194 447.705717 
L 382.076803 485.027716 
L 382.514107 492.565606 
L 382.951411 493.874721 
L 383.826019 498.249862 
L 384.263323 492.95882 
L 384.700627 489.674148 
L 385.137931 488.388501 
L 385.575235 488.781 
L 386.012539 488.881344 
L 386.449843 494.355168 
L 387.324451 497.453895 
L 387.761755 495.052424 
L 388.19906 498.922631 
L 388.636364 496.492541 
L 389.073668 492.639627 
L 389.510972 495.474205 
L 390.38558 510.20197 
L 390.822884 514.280466 
L 391.697492 528.45315 
L 392.134796 530.167365 
L 392.5721 528.017748 
L 393.009404 522.445264 
L 393.446708 520.310288 
L 393.884013 520.418795 
L 394.321317 523.258831 
L 394.758621 527.182296 
L 395.195925 526.694911 
L 396.070533 522.844599 
L 396.945141 518.688205 
L 397.819749 520.204537 
L 398.257053 520.259326 
L 398.694357 521.123549 
L 399.131661 521.695362 
L 399.568966 523.566188 
L 400.00627 527.97658 
L 400.443574 535.662563 
L 400.880878 539.966132 
L 401.318182 547.607988 
L 402.19279 557.621217 
L 403.067398 547.084842 
L 403.504702 547.472598 
L 403.942006 548.28948 
L 404.37931 551.689851 
L 405.253918 557.116947 
L 405.691223 556.87106 
L 406.128527 557.387217 
L 406.565831 558.562574 
L 407.440439 534.977857 
L 408.315047 514.277354 
L 408.752351 511.016557 
L 409.189655 505.752757 
L 409.626959 508.710532 
L 410.064263 510.818011 
L 410.501567 514.938645 
L 410.938871 511.357941 
L 411.376176 506.234887 
L 411.81348 511.447011 
L 412.250784 507.473807 
L 412.688088 507.307757 
L 413.125392 506.258201 
L 414.437304 519.664506 
L 414.874608 522.170606 
L 416.18652 532.42814 
L 416.623824 533.931514 
L 417.498433 540.965389 
L 417.935737 540.386638 
L 418.373041 540.910192 
L 418.810345 543.350638 
L 419.247649 543.275035 
L 419.684953 543.059196 
L 420.559561 536.256057 
L 420.996865 536.458989 
L 421.434169 538.794041 
L 421.871473 539.829925 
L 422.308777 543.817362 
L 422.746082 545.343591 
L 423.183386 545.100357 
L 423.62069 543.319417 
L 424.057994 544.560071 
L 424.495298 544.263528 
L 424.932602 542.665268 
L 425.369906 542.289807 
L 425.80721 541.63724 
L 426.244514 540.757661 
L 426.681818 542.951863 
L 427.119122 542.951761 
L 427.556426 542.835042 
L 428.431034 548.599185 
L 428.868339 549.338884 
L 429.742947 557.235196 
L 430.180251 557.636011 
L 430.617555 559.82802 
L 431.054859 558.516355 
L 431.929467 564.452108 
L 432.366771 566.072202 
L 432.804075 565.374538 
L 433.241379 565.27802 
L 433.678683 563.036171 
L 434.115987 559.580297 
L 434.553292 558.86937 
L 435.4279 551.540228 
L 435.865204 546.710861 
L 436.302508 543.600707 
L 436.739812 542.816575 
L 437.177116 543.293349 
L 437.61442 545.07082 
L 438.051724 549.264608 
L 438.489028 556.407091 
L 438.926332 558.309392 
L 439.363636 560.712292 
L 439.80094 565.841926 
L 440.238245 569.592149 
L 440.675549 574.674953 
L 441.550157 582.430825 
L 441.987461 589.668601 
L 442.424765 592.786407 
L 442.862069 593.924778 
L 443.299373 595.435703 
L 443.736677 595.14319 
L 444.173981 594.422009 
L 444.611285 590.906908 
L 445.048589 591.740676 
L 445.485893 592.864509 
L 445.923197 592.753503 
L 446.360502 591.590288 
L 446.797806 592.075837 
L 447.23511 592.078591 
L 447.672414 593.239103 
L 448.109718 591.722311 
L 448.547022 590.638678 
L 448.984326 590.672245 
L 449.42163 592.586433 
L 449.858934 593.476674 
L 450.296238 595.099114 
L 450.733542 596.238046 
L 451.60815 592.809822 
L 452.045455 592.612909 
L 452.482759 590.636892 
L 453.357367 582.250848 
L 453.794671 580.225042 
L 454.231975 580.571119 
L 454.669279 580.021395 
L 455.106583 578.544956 
L 456.418495 569.861706 
L 456.855799 568.619623 
L 457.293103 570.750671 
L 457.730408 576.293006 
L 458.167712 577.899683 
L 458.605016 580.130259 
L 459.04232 577.508765 
L 459.479624 575.910811 
L 460.791536 567.90839 
L 461.22884 569.520016 
L 461.666144 569.187712 
L 462.103448 567.752645 
L 462.540752 566.918877 
L 463.415361 562.901597 
L 463.852665 559.921987 
L 464.727273 540.637371 
L 465.164577 535.669552 
L 465.601881 534.516285 
L 466.039185 535.751072 
L 466.913793 541.369622 
L 467.351097 541.774977 
L 467.788401 542.84499 
L 468.663009 550.886232 
L 469.100313 552.539281 
L 469.974922 554.025617 
L 470.412226 550.578874 
L 470.84953 549.363064 
L 471.724138 545.539279 
L 472.161442 545.286353 
L 472.598746 544.219452 
L 473.03605 545.419346 
L 473.473354 546.099461 
L 473.910658 547.559219 
L 474.347962 547.318995 
L 474.785266 547.341441 
L 475.222571 545.314207 
L 476.097179 539.629492 
L 476.971787 535.232364 
L 477.409091 535.399842 
L 477.846395 535.102381 
L 478.721003 536.361604 
L 479.158307 535.432338 
L 479.595611 535.58946 
L 480.032915 530.688776 
L 480.907524 514.13727 
L 481.344828 508.720327 
L 481.782132 512.78255 
L 482.219436 522.238148 
L 482.65674 534.515724 
L 483.094044 542.711895 
L 483.968652 552.637329 
L 485.280564 565.080036 
L 485.717868 567.006059 
L 486.155172 566.225243 
L 486.592476 568.142543 
L 487.029781 567.544101 
L 487.467085 567.190525 
L 487.904389 564.243258 
L 488.341693 563.29124 
L 488.778997 561.598298 
L 489.216301 561.110913 
L 489.653605 558.612261 
L 490.090909 558.141353 
L 490.528213 557.465574 
L 490.965517 555.161897 
L 491.402821 554.184372 
L 491.840125 554.462906 
L 492.277429 553.828041 
L 492.714734 553.68964 
L 493.152038 553.121807 
L 494.901254 540.877951 
L 495.338558 533.974876 
L 496.65047 521.611853 
L 497.525078 518.903024 
L 497.962382 518.699275 
L 498.399687 514.763821 
L 498.836991 516.087525 
L 499.711599 507.828505 
L 500.148903 507.399123 
L 500.586207 506.630652 
L 501.023511 502.513487 
L 501.460815 501.613605 
L 501.898119 500.155429 
L 502.335423 499.611928 
L 502.772727 498.765407 
L 503.647335 498.439174 
L 504.084639 497.792473 
L 504.521944 497.915314 
L 504.959248 495.842575 
L 505.396552 497.485574 
L 505.833856 496.320319 
L 506.27116 494.661658 
L 506.708464 493.973942 
L 507.145768 491.421573 
L 507.583072 489.828414 
L 508.020376 488.745086 
L 508.45768 485.54826 
L 508.894984 479.538384 
L 509.332288 475.907176 
L 509.769592 473.547383 
L 510.206897 473.876116 
L 510.644201 473.216661 
L 512.393417 465.264336 
L 512.830721 464.708847 
L 513.268025 464.883518 
L 513.705329 467.828745 
L 514.142633 464.241153 
L 514.579937 465.69831 
L 515.017241 465.734427 
L 515.454545 467.091086 
L 515.89185 467.74243 
L 516.329154 468.914113 
L 516.766458 470.797744 
L 517.203762 470.319235 
L 517.641066 466.523814 
L 518.07837 460.713452 
L 518.952978 454.196653 
L 519.390282 452.998136 
L 519.827586 452.716796 
L 520.26489 450.158406 
L 520.702194 446.398848 
L 521.139498 441.081942 
L 521.576803 438.623642 
L 522.014107 434.048017 
L 522.451411 431.574055 
L 523.326019 420.919379 
L 523.763323 417.727604 
L 524.637931 414.098385 
L 525.075235 413.949578 
L 525.512539 413.310835 
L 525.949843 412.926396 
L 526.387147 411.42195 
L 526.824451 412.076558 
L 527.261755 413.282165 
L 527.69906 415.620431 
L 528.136364 419.325251 
L 528.573668 419.215266 
L 529.88558 441.946013 
L 530.322884 446.358598 
L 531.197492 459.849586 
L 531.634796 466.428214 
L 532.0721 470.048607 
L 532.946708 478.402258 
L 533.384013 481.357687 
L 533.821317 482.754647 
L 534.258621 476.54699 
L 534.695925 474.388396 
L 535.133229 473.606202 
L 535.570533 471.013634 
L 536.007837 471.236105 
L 536.445141 470.779838 
L 537.757053 486.766315 
L 538.194357 490.308045 
L 539.068966 507.673321 
L 539.50627 513.827821 
L 539.943574 517.635078 
L 540.380878 519.61844 
L 540.818182 522.62473 
L 541.69279 512.360666 
L 542.567398 494.947539 
L 543.442006 477.05019 
L 543.87931 475.073255 
L 544.316614 475.928041 
L 544.753918 475.351127 
L 545.191223 477.050496 
L 545.628527 476.904546 
L 546.065831 481.592962 
L 546.940439 488.024161 
L 547.377743 489.614156 
L 547.815047 486.723617 
L 548.252351 481.099149 
L 548.689655 478.593763 
L 549.564263 470.210576 
L 550.001567 467.49032 
L 550.438871 463.868702 
L 550.876176 458.322133 
L 551.31348 456.640312 
L 551.750784 456.253067 
L 552.188088 454.401881 
L 552.625392 451.629387 
L 553.062696 451.909299 
L 553.5 452.657416 
L 553.937304 452.367913 
L 554.374608 453.055629 
L 554.811912 452.836525 
L 555.249216 451.317948 
L 555.68652 451.070175 
L 556.123824 453.131843 
L 556.561129 453.454556 
L 556.998433 453.271111 
L 557.435737 455.333953 
L 558.747649 443.980236 
L 559.184953 443.898257 
L 559.622257 444.875221 
L 560.059561 445.240071 
L 560.496865 445.919727 
L 560.934169 445.670423 
L 561.808777 451.366105 
L 562.246082 454.37061 
L 562.683386 455.800933 
L 563.12069 455.853681 
L 563.557994 455.536783 
L 563.995298 454.030756 
L 564.432602 448.97397 
L 565.30721 431.103811 
L 565.744514 425.582748 
L 566.181818 422.862696 
L 566.619122 421.917871 
L 567.49373 416.860727 
L 567.931034 416.833792 
L 568.368339 417.700719 
L 568.805643 421.074767 
L 569.242947 425.847458 
L 570.992163 461.163903 
L 572.304075 473.464129 
L 572.741379 471.927392 
L 573.178683 472.175777 
L 573.615987 468.169618 
L 574.053292 460.220915 
L 575.802508 437.65836 
L 576.239812 435.016206 
L 576.677116 433.872887 
L 577.11442 430.647697 
L 577.551724 429.357764 
L 577.989028 429.102083 
L 578.426332 429.014645 
L 578.863636 429.905294 
L 579.30094 432.693551 
L 579.738245 432.635243 
L 580.175549 430.947402 
L 581.487461 422.822701 
L 581.924765 418.107809 
L 582.362069 411.523212 
L 582.799373 408.914115 
L 583.236677 405.607303 
L 583.673981 401.33572 
L 584.111285 402.245346 
L 584.985893 400.316313 
L 585.423197 401.195126 
L 585.860502 400.717536 
L 586.297806 401.724751 
L 586.73511 404.291455 
L 587.609718 411.495461 
L 588.484326 417.174615 
L 589.796238 423.503174 
L 590.233542 422.880041 
L 590.670846 424.116716 
L 591.10815 424.166301 
L 591.545455 423.530109 
L 591.982759 421.697033 
L 592.420063 416.885418 
L 592.857367 407.976483 
L 593.731975 397.526831 
L 594.606583 390.186109 
L 595.481191 380.381679 
L 595.918495 378.199618 
L 596.355799 377.146134 
L 597.230408 373.89054 
L 597.667712 374.958104 
L 598.105016 371.315979 
L 598.54232 373.834527 
L 598.979624 374.066537 
L 599.416928 376.177128 
L 599.854232 376.614163 
L 600.291536 379.803796 
L 601.166144 384.057779 
L 601.603448 381.824858 
L 602.040752 381.392108 
L 602.478056 382.258474 
L 603.352665 375.723157 
L 603.789969 372.455983 
L 604.227273 375.139764 
L 604.664577 379.353243 
L 605.101881 380.356632 
L 605.976489 371.846522 
L 606.413793 369.090505 
L 606.851097 364.014997 
L 607.288401 356.933934 
L 607.725705 354.422988 
L 608.163009 352.801261 
L 608.600313 348.897997 
L 610.34953 337.524385 
L 611.224138 337.969735 
L 611.661442 336.839373 
L 612.53605 341.030763 
L 612.973354 341.240225 
L 613.410658 339.26079 
L 613.847962 335.061646 
L 614.722571 321.792976 
L 615.159875 313.321025 
L 615.597179 309.369196 
L 616.034483 307.841845 
L 617.783699 293.758894 
L 618.221003 296.334679 
L 619.532915 314.877046 
L 619.970219 316.345629 
L 620.407524 319.48532 
L 620.844828 321.58933 
L 621.282132 321.227642 
L 621.719436 320.381937 
L 622.15674 323.708032 
L 622.594044 320.85616 
L 623.468652 329.028559 
L 624.34326 340.931388 
L 624.780564 341.470297 
L 625.217868 342.868073 
L 625.655172 342.750741 
L 626.092476 345.95624 
L 626.529781 346.013885 
L 626.967085 346.805414 
L 627.841693 349.009309 
L 628.278997 349.057568 
L 629.153605 341.040557 
L 629.590909 339.298745 
L 630.028213 339.760623 
L 630.465517 338.132775 
L 630.902821 333.61908 
L 631.340125 327.515186 
L 631.777429 325.235791 
L 632.652038 315.091201 
L 633.089342 312.120978 
L 633.526646 311.200078 
L 633.96395 309.262577 
L 634.838558 313.158597 
L 635.713166 318.62329 
L 636.15047 323.754454 
L 636.587774 334.058309 
L 637.025078 341.361842 
L 638.774295 360.386747 
L 639.211599 351.702834 
L 639.648903 350.739491 
L 640.523511 346.063981 
L 643.584639 303.474254 
L 644.021944 294.709177 
L 644.459248 289.011046 
L 644.896552 281.20564 
L 646.208464 265.728484 
L 646.645768 263.864136 
L 647.083072 263.134334 
L 647.520376 265.155191 
L 647.95768 269.074474 
L 648.832288 289.503941 
L 649.269592 300.505867 
L 649.706897 307.324362 
L 650.581505 316.486019 
L 651.018809 317.562918 
L 651.456113 317.915321 
L 651.893417 317.49558 
L 652.330721 318.011227 
L 652.768025 319.327891 
L 653.205329 321.794711 
L 653.642633 321.841746 
L 654.079937 317.419876 
L 654.517241 315.997001 
L 654.954545 311.348222 
L 656.703762 284.021802 
L 657.141066 281.900957 
L 657.57837 279.094692 
L 658.015674 277.864751 
L 658.452978 278.662912 
L 658.890282 277.898726 
L 659.76489 275.426907 
L 660.202194 275.204385 
L 660.639498 275.16133 
L 661.076803 274.881366 
L 661.514107 273.651017 
L 661.951411 273.576231 
L 662.388715 273.286575 
L 662.826019 273.534196 
L 663.263323 276.022033 
L 663.700627 277.106687 
L 664.137931 278.706682 
L 664.575235 278.263168 
L 665.449843 273.991381 
L 665.887147 273.145573 
L 666.324451 269.146913 
L 667.19906 264.000445 
L 667.636364 260.684655 
L 668.073668 258.549628 
L 668.510972 255.809783 
L 668.948276 251.992732 
L 669.822884 248.877426 
L 670.260188 247.961627 
L 670.697492 247.927652 
L 671.134796 249.382156 
L 671.5721 248.546347 
L 672.009404 246.663022 
L 672.446708 243.457524 
L 672.884013 241.431156 
L 673.321317 242.116169 
L 673.758621 241.094262 
L 674.195925 242.390622 
L 674.633229 242.773736 
L 675.070533 241.962923 
L 676.382445 229.273973 
L 676.819749 222.692488 
L 677.257053 214.162381 
L 678.568966 196.76415 
L 679.00627 193.368575 
L 679.443574 189.092196 
L 679.880878 186.5964 
L 680.318182 187.732884 
L 680.755486 183.505479 
L 681.19279 181.433097 
L 681.630094 180.535154 
L 682.067398 176.445179 
L 682.504702 176.960316 
L 682.942006 176.160012 
L 683.37931 175.87607 
L 683.816614 173.323751 
L 684.691223 164.385841 
L 685.128527 161.348789 
L 685.565831 160.016209 
L 686.003135 158.230422 
L 686.440439 158.501203 
L 688.189655 147.235944 
L 688.626959 142.303631 
L 689.064263 135.98956 
L 689.501567 134.040632 
L 689.938871 130.879413 
L 690.376176 131.765726 
L 691.250784 138.000521 
L 691.688088 138.252835 
L 692.125392 139.219545 
L 692.562696 142.461876 
L 693 143.472049 
L 693.437304 143.371859 
L 693.874608 141.687895 
L 694.311912 141.376508 
L 696.061129 158.807082 
L 696.498433 160.046511 
L 696.935737 160.318312 
L 697.373041 156.697154 
L 697.810345 157.778339 
L 698.247649 161.47112 
L 699.559561 187.69442 
L 699.996865 193.043209 
L 700.434169 190.060641 
L 700.871473 182.926983 
L 701.308777 173.622998 
L 702.183386 159.61116 
L 702.62069 158.13319 
L 703.495298 157.79905 
L 703.932602 158.860238 
L 704.369906 160.61562 
L 704.80721 165.142884 
L 705.244514 164.586835 
L 705.681818 166.247944 
L 706.119122 169.343967 
L 707.431034 192.180261 
L 707.868339 194.536381 
L 708.305643 195.733673 
L 708.742947 193.91687 
L 709.180251 195.683067 
L 710.054859 197.866659 
L 710.492163 196.822306 
L 710.929467 199.798447 
L 711.366771 207.009849 
L 711.804075 212.209882 
L 712.241379 214.440508 
L 712.678683 211.424577 
L 713.115987 206.902516 
L 713.990596 192.360237 
L 715.302508 177.775923 
L 716.177116 171.769567 
L 716.61442 171.267694 
L 718.80094 155.25724 
L 719.238245 149.194871 
L 719.675549 147.263083 
L 720.112853 148.731156 
L 720.550157 149.375562 
L 720.987461 146.940065 
L 721.424765 146.300148 
L 721.862069 146.037326 
L 722.299373 145.586364 
L 723.611285 158.096256 
L 724.048589 164.365231 
L 724.485893 173.414556 
L 724.923197 179.388671 
L 725.360502 183.429979 
L 725.797806 180.618 
L 726.23511 173.895003 
L 726.672414 170.911108 
L 727.109718 169.204291 
L 727.984326 176.009114 
L 728.42163 177.818877 
L 728.858934 177.085708 
L 729.296238 182.005267 
L 729.733542 182.051588 
L 730.170846 178.59755 
L 730.60815 178.445529 
L 731.045455 182.486531 
L 731.482759 184.976919 
L 731.920063 189.664162 
L 732.357367 191.42536 
L 733.669279 189.73201 
L 734.981191 237.789695 
L 735.418495 239.461312 
L 735.855799 239.126356 
L 736.730408 234.625313 
L 737.167712 230.490753 
L 737.605016 224.76283 
L 738.479624 219.619932 
L 739.354232 206.474103 
L 740.22884 195.86488 
L 741.540752 172.100442 
L 741.978056 162.077163 
L 742.852665 149.224255 
L 743.289969 144.524973 
L 743.727273 142.061622 
L 744.164577 138.935297 
L 744.601881 142.071723 
L 745.476489 149.670523 
L 745.913793 152.351601 
L 746.351097 161.115351 
L 746.788401 162.531288 
L 747.225705 159.13612 
L 747.663009 157.055678 
L 748.100313 159.736756 
L 748.537618 160.130888 
L 749.412226 144.286637 
L 749.84953 140.988089 
L 750.286834 136.774457 
L 750.724138 136.066489 
L 751.161442 136.21249 
L 751.598746 134.386811 
L 752.03605 128.424633 
L 752.473354 124.535959 
L 752.910658 119.434892 
L 753.347962 117.308334 
L 753.785266 113.805936 
L 754.222571 113.732884 
L 754.659875 115.503978 
L 755.097179 120.329775 
L 756.846395 128.725104 
L 757.721003 131.015416 
L 758.595611 133.645684 
L 759.032915 133.664865 
L 759.470219 128.617669 
L 759.907524 127.236319 
L 760.344828 117.537283 
L 760.782132 112.393774 
L 761.219436 113.447717 
L 761.65674 113.863989 
L 762.531348 118.849254 
L 763.405956 128.481666 
L 763.84326 130.612816 
L 764.717868 131.953252 
L 765.155172 131.104588 
L 765.592476 132.783348 
L 766.029781 128.379129 
L 766.467085 121.761526 
L 766.904389 122.999323 
L 767.341693 126.033415 
L 767.778997 126.109222 
L 768.216301 125.688563 
L 769.090909 129.495819 
L 769.528213 131.171518 
L 770.402821 131.511677 
L 770.840125 130.831562 
L 771.277429 129.83353 
L 771.714734 129.772926 
L 772.152038 131.259466 
L 773.026646 139.080482 
L 773.46395 140.958501 
L 773.901254 142.258535 
L 774.338558 143.117912 
L 774.775862 144.591291 
L 775.213166 145.486888 
L 776.525078 155.691571 
L 776.962382 155.758093 
L 777.836991 158.90666 
L 778.274295 159.616567 
L 778.711599 160.067121 
L 779.148903 162.218777 
L 779.586207 163.600943 
L 780.023511 162.645762 
L 780.898119 159.653705 
L 781.335423 159.284876 
L 781.772727 156.451472 
L 782.210031 155.809005 
L 782.647335 157.882713 
L 783.084639 161.758736 
L 783.521944 164.051088 
L 783.959248 165.333063 
L 784.396552 164.712226 
L 784.833856 165.003005 
L 785.27116 164.435936 
L 785.708464 162.528329 
L 786.145768 161.274207 
L 786.583072 164.730285 
L 787.894984 177.974061 
L 788.332288 178.458997 
L 788.769592 178.595816 
L 790.081505 186.750462 
L 790.518809 189.145352 
L 791.393417 196.161168 
L 791.830721 197.082578 
L 792.705329 200.41153 
L 793.142633 201.009206 
L 793.579937 197.963075 
L 794.017241 199.521238 
L 794.454545 197.763611 
L 795.329154 191.026943 
L 795.766458 190.674336 
L 796.203762 191.262626 
L 796.641066 192.096394 
L 797.07837 194.892967 
L 797.952978 205.09714 
L 798.390282 211.557212 
L 798.827586 213.20016 
L 799.702194 201.829201 
L 800.576803 187.188874 
L 801.451411 172.261646 
L 802.763323 153.770394 
L 804.512539 134.987243 
L 804.949843 131.233245 
L 805.824451 127.684424 
L 806.261755 123.5316 
L 806.69906 123.107166 
L 807.136364 123.429879 
L 807.573668 121.423407 
L 808.010972 125.63255 
L 808.448276 127.734315 
L 808.88558 126.357863 
L 810.197492 119.069124 
L 810.634796 118.337587 
L 811.0721 118.750288 
L 811.509404 120.152961 
L 811.946708 122.232179 
L 812.384013 126.121363 
L 813.258621 135.915794 
L 813.695925 137.939815 
L 814.133229 137.406517 
L 814.570533 137.530889 
L 815.445141 140.457955 
L 816.319749 148.60903 
L 816.757053 150.840166 
L 817.631661 152.945706 
L 818.50627 157.859246 
L 818.943574 158.951042 
L 819.380878 160.443092 
L 819.818182 162.830738 
L 821.130094 177.025511 
L 822.004702 191.406179 
L 822.87931 210.285848 
L 823.316614 224.220452 
L 824.191223 239.881767 
L 824.628527 243.852574 
L 825.503135 253.01168 
L 825.940439 253.143908 
L 826.377743 253.700161 
L 826.815047 252.927508 
L 827.252351 249.706603 
L 827.689655 242.665688 
L 828.564263 221.627628 
L 829.876176 201.667283 
L 830.750784 191.681041 
L 831.188088 189.70028 
L 831.625392 185.877209 
L 832.5 183.805338 
L 832.937304 183.380699 
L 833.374608 182.229932 
L 834.249216 184.506776 
L 835.123824 183.38427 
L 835.998433 187.846441 
L 836.435737 188.2822 
L 836.873041 189.834548 
L 837.310345 192.442471 
L 837.747649 193.708734 
L 838.184953 195.902324 
L 838.622257 196.124948 
L 839.059561 191.10836 
L 840.371473 170.185489 
L 841.246082 160.028656 
L 841.683386 157.111895 
L 842.12069 150.245448 
L 843.432602 141.451396 
L 843.869906 140.389392 
L 844.30721 140.040764 
L 845.181818 132.958427 
L 845.619122 131.522696 
L 846.931034 136.780783 
L 847.368339 136.327577 
L 847.805643 136.938211 
L 848.242947 134.226424 
L 848.680251 133.755261 
L 849.554859 132.403499 
L 849.992163 128.395759 
L 850.429467 125.891087 
L 851.304075 119.49366 
L 851.741379 117.583808 
L 852.615987 121.663376 
L 853.053292 119.127585 
L 853.490596 114.559 
L 853.9279 111.838336 
L 854.365204 113.096539 
L 855.239812 117.403219 
L 856.11442 122.632024 
L 856.551724 124.485251 
L 857.426332 125.737638 
L 857.863636 128.436264 
L 858.30094 132.128331 
L 860.050157 141.914804 
L 860.487461 145.037049 
L 860.924765 149.328119 
L 861.799373 165.521508 
L 862.236677 169.95154 
L 863.111285 167.214756 
L 863.548589 167.23914 
L 863.985893 168.411232 
L 864.423197 165.701587 
L 864.860502 166.22009 
L 865.73511 172.884115 
L 866.609718 183.541188 
L 868.358934 205.101017 
L 868.796238 208.798492 
L 869.233542 209.377702 
L 869.670846 210.463478 
L 870.10815 212.155297 
L 870.545455 210.153213 
L 871.420063 200.901057 
L 871.857367 197.255208 
L 872.294671 195.260368 
L 872.731975 190.951748 
L 873.169279 184.458925 
L 874.043887 179.670063 
L 874.481191 177.735112 
L 874.918495 176.586997 
L 875.793103 176.874613 
L 876.667712 180.133778 
L 877.105016 183.431101 
L 877.54232 182.669568 
L 878.416928 181.958131 
L 878.854232 181.192823 
L 879.291536 181.851614 
L 879.72884 182.183509 
L 881.040752 189.062098 
L 881.478056 194.407214 
L 881.915361 198.078978 
L 882.352665 202.701944 
L 882.789969 205.600646 
L 883.227273 206.622655 
L 884.976489 215.549139 
L 885.413793 216.268432 
L 885.851097 218.712908 
L 886.288401 219.600649 
L 886.725705 219.682475 
L 887.163009 224.620195 
L 887.600313 227.613579 
L 888.037618 232.726276 
L 888.912226 223.275269 
L 889.34953 220.375955 
L 889.786834 218.337753 
L 891.098746 223.652669 
L 891.53605 225.838811 
L 891.973354 231.508477 
L 892.847962 238.330746 
L 893.285266 243.190416 
L 894.159875 248.72214 
L 894.597179 251.787147 
L 895.034483 250.585671 
L 895.471787 249.786899 
L 895.909091 250.269692 
L 897.221003 256.150351 
L 897.658307 256.375933 
L 898.095611 259.065071 
L 898.532915 260.634355 
L 898.970219 260.854326 
L 899.407524 260.378572 
L 899.844828 261.124903 
L 901.594044 271.952566 
L 902.905956 277.010679 
L 903.780564 283.997723 
L 904.217868 286.398837 
L 904.655172 287.875685 
L 905.092476 288.759855 
L 905.529781 288.126672 
L 905.967085 285.186649 
L 906.404389 284.090772 
L 906.841693 280.913331 
L 908.153605 273.806711 
L 908.590909 270.074139 
L 909.028213 267.42367 
L 909.902821 260.73526 
L 910.340125 260.487844 
L 911.214734 258.15315 
L 912.089342 256.985547 
L 912.526646 257.628116 
L 912.96395 256.930861 
L 913.401254 255.619298 
L 913.838558 255.823863 
L 914.275862 256.52826 
L 914.713166 256.905048 
L 915.15047 259.551946 
L 915.587774 260.801578 
L 916.025078 264.309588 
L 916.462382 265.287113 
L 916.899687 265.415361 
L 917.336991 266.571945 
L 917.774295 266.565109 
L 919.086207 261.04022 
L 919.523511 257.310199 
L 919.960815 257.082473 
L 920.835423 254.659628 
L 921.272727 254.527298 
L 921.710031 253.167578 
L 922.147335 252.82446 
L 922.584639 254.693705 
L 923.021944 260.540082 
L 923.459248 262.076207 
L 924.333856 267.668128 
L 924.77116 268.206322 
L 925.208464 270.440826 
L 926.083072 272.140093 
L 926.520376 272.523206 
L 926.95768 272.250997 
L 927.832288 271.919714 
L 928.269592 270.697323 
L 928.706897 268.096847 
L 929.144201 262.578182 
L 929.581505 259.498483 
L 930.018809 257.959093 
L 931.330721 246.238282 
L 932.642633 241.644394 
L 933.079937 242.784346 
L 933.954545 248.392897 
L 933.954545 248.392897 
" style="fill:none;stroke:#0000ff;stroke-linecap:square;stroke-width:1.5;"/>
   </g>
   <g id="patch_3">
    <path d="M 135 640.8 
L 135 86.4 
" style="fill:none;stroke:#000000;stroke-linecap:square;stroke-linejoin:miter;stroke-width:0.8;"/>
   </g>
   <g id="patch_4">
    <path d="M 972 640.8 
L 972 86.4 
" style="fill:none;stroke:#000000;stroke-linecap:square;stroke-linejoin:miter;stroke-width:0.8;"/>
   </g>
   <g id="patch_5">
    <path d="M 135 640.8 
L 972 640.8 
" style="fill:none;stroke:#000000;stroke-linecap:square;stroke-linejoin:miter;stroke-width:0.8;"/>
   </g>
   <g id="patch_6">
    <path d="M 135 86.4 
L 972 86.4 
" style="fill:none;stroke:#000000;stroke-linecap:square;stroke-linejoin:miter;stroke-width:0.8;"/>
   </g>
   <g id="text_14">
    <!-- Evaluation Preds N:40 -->
    <defs>
     <path d="M 9.8125 72.90625 
L 55.90625 72.90625 
L 55.90625 64.59375 
L 19.671875 64.59375 
L 19.671875 43.015625 
L 54.390625 43.015625 
L 54.390625 34.71875 
L 19.671875 34.71875 
L 19.671875 8.296875 
L 56.78125 8.296875 
L 56.78125 0 
L 9.8125 0 
z
" id="DejaVuSans-69"/>
     <path d="M 2.984375 54.6875 
L 12.5 54.6875 
L 29.59375 8.796875 
L 46.6875 54.6875 
L 56.203125 54.6875 
L 35.6875 0 
L 23.484375 0 
z
" id="DejaVuSans-118"/>
     <path d="M 34.28125 27.484375 
Q 23.390625 27.484375 19.1875 25 
Q 14.984375 22.515625 14.984375 16.5 
Q 14.984375 11.71875 18.140625 8.90625 
Q 21.296875 6.109375 26.703125 6.109375 
Q 34.1875 6.109375 38.703125 11.40625 
Q 43.21875 16.703125 43.21875 25.484375 
L 43.21875 27.484375 
z
M 52.203125 31.203125 
L 52.203125 0 
L 43.21875 0 
L 43.21875 8.296875 
Q 40.140625 3.328125 35.546875 0.953125 
Q 30.953125 -1.421875 24.3125 -1.421875 
Q 15.921875 -1.421875 10.953125 3.296875 
Q 6 8.015625 6 15.921875 
Q 6 25.140625 12.171875 29.828125 
Q 18.359375 34.515625 30.609375 34.515625 
L 43.21875 34.515625 
L 43.21875 35.40625 
Q 43.21875 41.609375 39.140625 45 
Q 35.0625 48.390625 27.6875 48.390625 
Q 23 48.390625 18.546875 47.265625 
Q 14.109375 46.140625 10.015625 43.890625 
L 10.015625 52.203125 
Q 14.9375 54.109375 19.578125 55.046875 
Q 24.21875 56 28.609375 56 
Q 40.484375 56 46.34375 49.84375 
Q 52.203125 43.703125 52.203125 31.203125 
z
" id="DejaVuSans-97"/>
     <path d="M 9.421875 75.984375 
L 18.40625 75.984375 
L 18.40625 0 
L 9.421875 0 
z
" id="DejaVuSans-108"/>
     <path d="M 8.5 21.578125 
L 8.5 54.6875 
L 17.484375 54.6875 
L 17.484375 21.921875 
Q 17.484375 14.15625 20.5 10.265625 
Q 23.53125 6.390625 29.59375 6.390625 
Q 36.859375 6.390625 41.078125 11.03125 
Q 45.3125 15.671875 45.3125 23.6875 
L 45.3125 54.6875 
L 54.296875 54.6875 
L 54.296875 0 
L 45.3125 0 
L 45.3125 8.40625 
Q 42.046875 3.421875 37.71875 1 
Q 33.40625 -1.421875 27.6875 -1.421875 
Q 18.265625 -1.421875 13.375 4.4375 
Q 8.5 10.296875 8.5 21.578125 
z
M 31.109375 56 
z
" id="DejaVuSans-117"/>
     <path d="M 18.3125 70.21875 
L 18.3125 54.6875 
L 36.8125 54.6875 
L 36.8125 47.703125 
L 18.3125 47.703125 
L 18.3125 18.015625 
Q 18.3125 11.328125 20.140625 9.421875 
Q 21.96875 7.515625 27.59375 7.515625 
L 36.8125 7.515625 
L 36.8125 0 
L 27.59375 0 
Q 17.1875 0 13.234375 3.875 
Q 9.28125 7.765625 9.28125 18.015625 
L 9.28125 47.703125 
L 2.6875 47.703125 
L 2.6875 54.6875 
L 9.28125 54.6875 
L 9.28125 70.21875 
z
" id="DejaVuSans-116"/>
     <path d="M 9.421875 54.6875 
L 18.40625 54.6875 
L 18.40625 0 
L 9.421875 0 
z
M 9.421875 75.984375 
L 18.40625 75.984375 
L 18.40625 64.59375 
L 9.421875 64.59375 
z
" id="DejaVuSans-105"/>
     <path d="M 30.609375 48.390625 
Q 23.390625 48.390625 19.1875 42.75 
Q 14.984375 37.109375 14.984375 27.296875 
Q 14.984375 17.484375 19.15625 11.84375 
Q 23.34375 6.203125 30.609375 6.203125 
Q 37.796875 6.203125 41.984375 11.859375 
Q 46.1875 17.53125 46.1875 27.296875 
Q 46.1875 37.015625 41.984375 42.703125 
Q 37.796875 48.390625 30.609375 48.390625 
z
M 30.609375 56 
Q 42.328125 56 49.015625 48.375 
Q 55.71875 40.765625 55.71875 27.296875 
Q 55.71875 13.875 49.015625 6.21875 
Q 42.328125 -1.421875 30.609375 -1.421875 
Q 18.84375 -1.421875 12.171875 6.21875 
Q 5.515625 13.875 5.515625 27.296875 
Q 5.515625 40.765625 12.171875 48.375 
Q 18.84375 56 30.609375 56 
z
" id="DejaVuSans-111"/>
     <path d="M 54.890625 33.015625 
L 54.890625 0 
L 45.90625 0 
L 45.90625 32.71875 
Q 45.90625 40.484375 42.875 44.328125 
Q 39.84375 48.1875 33.796875 48.1875 
Q 26.515625 48.1875 22.3125 43.546875 
Q 18.109375 38.921875 18.109375 30.90625 
L 18.109375 0 
L 9.078125 0 
L 9.078125 54.6875 
L 18.109375 54.6875 
L 18.109375 46.1875 
Q 21.34375 51.125 25.703125 53.5625 
Q 30.078125 56 35.796875 56 
Q 45.21875 56 50.046875 50.171875 
Q 54.890625 44.34375 54.890625 33.015625 
z
" id="DejaVuSans-110"/>
     <path id="DejaVuSans-32"/>
     <path d="M 19.671875 64.796875 
L 19.671875 37.40625 
L 32.078125 37.40625 
Q 38.96875 37.40625 42.71875 40.96875 
Q 46.484375 44.53125 46.484375 51.125 
Q 46.484375 57.671875 42.71875 61.234375 
Q 38.96875 64.796875 32.078125 64.796875 
z
M 9.8125 72.90625 
L 32.078125 72.90625 
Q 44.34375 72.90625 50.609375 67.359375 
Q 56.890625 61.8125 56.890625 51.125 
Q 56.890625 40.328125 50.609375 34.8125 
Q 44.34375 29.296875 32.078125 29.296875 
L 19.671875 29.296875 
L 19.671875 0 
L 9.8125 0 
z
" id="DejaVuSans-80"/>
     <path d="M 41.109375 46.296875 
Q 39.59375 47.171875 37.8125 47.578125 
Q 36.03125 48 33.890625 48 
Q 26.265625 48 22.1875 43.046875 
Q 18.109375 38.09375 18.109375 28.8125 
L 18.109375 0 
L 9.078125 0 
L 9.078125 54.6875 
L 18.109375 54.6875 
L 18.109375 46.1875 
Q 20.953125 51.171875 25.484375 53.578125 
Q 30.03125 56 36.53125 56 
Q 37.453125 56 38.578125 55.875 
Q 39.703125 55.765625 41.0625 55.515625 
z
" id="DejaVuSans-114"/>
     <path d="M 56.203125 29.59375 
L 56.203125 25.203125 
L 14.890625 25.203125 
Q 15.484375 15.921875 20.484375 11.0625 
Q 25.484375 6.203125 34.421875 6.203125 
Q 39.59375 6.203125 44.453125 7.46875 
Q 49.3125 8.734375 54.109375 11.28125 
L 54.109375 2.78125 
Q 49.265625 0.734375 44.1875 -0.34375 
Q 39.109375 -1.421875 33.890625 -1.421875 
Q 20.796875 -1.421875 13.15625 6.1875 
Q 5.515625 13.8125 5.515625 26.8125 
Q 5.515625 40.234375 12.765625 48.109375 
Q 20.015625 56 32.328125 56 
Q 43.359375 56 49.78125 48.890625 
Q 56.203125 41.796875 56.203125 29.59375 
z
M 47.21875 32.234375 
Q 47.125 39.59375 43.09375 43.984375 
Q 39.0625 48.390625 32.421875 48.390625 
Q 24.90625 48.390625 20.390625 44.140625 
Q 15.875 39.890625 15.1875 32.171875 
z
" id="DejaVuSans-101"/>
     <path d="M 45.40625 46.390625 
L 45.40625 75.984375 
L 54.390625 75.984375 
L 54.390625 0 
L 45.40625 0 
L 45.40625 8.203125 
Q 42.578125 3.328125 38.25 0.953125 
Q 33.9375 -1.421875 27.875 -1.421875 
Q 17.96875 -1.421875 11.734375 6.484375 
Q 5.515625 14.40625 5.515625 27.296875 
Q 5.515625 40.1875 11.734375 48.09375 
Q 17.96875 56 27.875 56 
Q 33.9375 56 38.25 53.625 
Q 42.578125 51.265625 45.40625 46.390625 
z
M 14.796875 27.296875 
Q 14.796875 17.390625 18.875 11.75 
Q 22.953125 6.109375 30.078125 6.109375 
Q 37.203125 6.109375 41.296875 11.75 
Q 45.40625 17.390625 45.40625 27.296875 
Q 45.40625 37.203125 41.296875 42.84375 
Q 37.203125 48.484375 30.078125 48.484375 
Q 22.953125 48.484375 18.875 42.84375 
Q 14.796875 37.203125 14.796875 27.296875 
z
" id="DejaVuSans-100"/>
     <path d="M 44.28125 53.078125 
L 44.28125 44.578125 
Q 40.484375 46.53125 36.375 47.5 
Q 32.28125 48.484375 27.875 48.484375 
Q 21.1875 48.484375 17.84375 46.4375 
Q 14.5 44.390625 14.5 40.28125 
Q 14.5 37.15625 16.890625 35.375 
Q 19.28125 33.59375 26.515625 31.984375 
L 29.59375 31.296875 
Q 39.15625 29.25 43.1875 25.515625 
Q 47.21875 21.78125 47.21875 15.09375 
Q 47.21875 7.46875 41.1875 3.015625 
Q 35.15625 -1.421875 24.609375 -1.421875 
Q 20.21875 -1.421875 15.453125 -0.5625 
Q 10.6875 0.296875 5.421875 2 
L 5.421875 11.28125 
Q 10.40625 8.6875 15.234375 7.390625 
Q 20.0625 6.109375 24.8125 6.109375 
Q 31.15625 6.109375 34.5625 8.28125 
Q 37.984375 10.453125 37.984375 14.40625 
Q 37.984375 18.0625 35.515625 20.015625 
Q 33.0625 21.96875 24.703125 23.78125 
L 21.578125 24.515625 
Q 13.234375 26.265625 9.515625 29.90625 
Q 5.8125 33.546875 5.8125 39.890625 
Q 5.8125 47.609375 11.28125 51.796875 
Q 16.75 56 26.8125 56 
Q 31.78125 56 36.171875 55.265625 
Q 40.578125 54.546875 44.28125 53.078125 
z
" id="DejaVuSans-115"/>
     <path d="M 9.8125 72.90625 
L 23.09375 72.90625 
L 55.421875 11.921875 
L 55.421875 72.90625 
L 64.984375 72.90625 
L 64.984375 0 
L 51.703125 0 
L 19.390625 60.984375 
L 19.390625 0 
L 9.8125 0 
z
" id="DejaVuSans-78"/>
     <path d="M 11.71875 12.40625 
L 22.015625 12.40625 
L 22.015625 0 
L 11.71875 0 
z
M 11.71875 51.703125 
L 22.015625 51.703125 
L 22.015625 39.3125 
L 11.71875 39.3125 
z
" id="DejaVuSans-58"/>
    </defs>
    <g transform="translate(374.421656 80.4)scale(0.324 -0.324)">
     <use xlink:href="#DejaVuSans-69"/>
     <use x="63.183594" xlink:href="#DejaVuSans-118"/>
     <use x="122.363281" xlink:href="#DejaVuSans-97"/>
     <use x="183.642578" xlink:href="#DejaVuSans-108"/>
     <use x="211.425781" xlink:href="#DejaVuSans-117"/>
     <use x="274.804688" xlink:href="#DejaVuSans-97"/>
     <use x="336.083984" xlink:href="#DejaVuSans-116"/>
     <use x="375.292969" xlink:href="#DejaVuSans-105"/>
     <use x="403.076172" xlink:href="#DejaVuSans-111"/>
     <use x="464.257812" xlink:href="#DejaVuSans-110"/>
     <use x="527.636719" xlink:href="#DejaVuSans-32"/>
     <use x="559.423828" xlink:href="#DejaVuSans-80"/>
     <use x="619.710938" xlink:href="#DejaVuSans-114"/>
     <use x="660.792969" xlink:href="#DejaVuSans-101"/>
     <use x="722.316406" xlink:href="#DejaVuSans-100"/>
     <use x="785.792969" xlink:href="#DejaVuSans-115"/>
     <use x="837.892578" xlink:href="#DejaVuSans-32"/>
     <use x="869.679688" xlink:href="#DejaVuSans-78"/>
     <use x="944.484375" xlink:href="#DejaVuSans-58"/>
     <use x="978.175781" xlink:href="#DejaVuSans-52"/>
     <use x="1041.798828" xlink:href="#DejaVuSans-48"/>
    </g>
   </g>
   <g id="legend_1">
    <g id="patch_7">
     <path d="M 153.9 187.261875 
L 301.42125 187.261875 
Q 306.82125 187.261875 306.82125 181.861875 
L 306.82125 105.3 
Q 306.82125 99.9 301.42125 99.9 
L 153.9 99.9 
Q 148.5 99.9 148.5 105.3 
L 148.5 181.861875 
Q 148.5 187.261875 153.9 187.261875 
z
" style="fill:#ffffff;opacity:0.8;stroke:#cccccc;stroke-linejoin:miter;"/>
    </g>
    <g id="line2d_29">
     <path d="M 159.3 121.765781 
L 213.3 121.765781 
" style="fill:none;stroke:#ff0000;stroke-linecap:square;stroke-width:1.5;"/>
    </g>
    <g id="line2d_30"/>
    <g id="text_15">
     <!-- Real -->
     <defs>
      <path d="M 44.390625 34.1875 
Q 47.5625 33.109375 50.5625 29.59375 
Q 53.5625 26.078125 56.59375 19.921875 
L 66.609375 0 
L 56 0 
L 46.6875 18.703125 
Q 43.0625 26.03125 39.671875 28.421875 
Q 36.28125 30.8125 30.421875 30.8125 
L 19.671875 30.8125 
L 19.671875 0 
L 9.8125 0 
L 9.8125 72.90625 
L 32.078125 72.90625 
Q 44.578125 72.90625 50.734375 67.671875 
Q 56.890625 62.453125 56.890625 51.90625 
Q 56.890625 45.015625 53.6875 40.46875 
Q 50.484375 35.9375 44.390625 34.1875 
z
M 19.671875 64.796875 
L 19.671875 38.921875 
L 32.078125 38.921875 
Q 39.203125 38.921875 42.84375 42.21875 
Q 46.484375 45.515625 46.484375 51.90625 
Q 46.484375 58.296875 42.84375 61.546875 
Q 39.203125 64.796875 32.078125 64.796875 
z
" id="DejaVuSans-82"/>
     </defs>
     <g transform="translate(234.9 131.215781)scale(0.27 -0.27)">
      <use xlink:href="#DejaVuSans-82"/>
      <use x="69.419922" xlink:href="#DejaVuSans-101"/>
      <use x="130.943359" xlink:href="#DejaVuSans-97"/>
      <use x="192.222656" xlink:href="#DejaVuSans-108"/>
     </g>
    </g>
    <g id="line2d_31">
     <path d="M 159.3 161.396719 
L 213.3 161.396719 
" style="fill:none;stroke:#0000ff;stroke-linecap:square;stroke-width:1.5;"/>
    </g>
    <g id="line2d_32"/>
    <g id="text_16">
     <!-- Pred -->
     <g transform="translate(234.9 170.846719)scale(0.27 -0.27)">
      <use xlink:href="#DejaVuSans-80"/>
      <use x="60.287109" xlink:href="#DejaVuSans-114"/>
      <use x="101.369141" xlink:href="#DejaVuSans-101"/>
      <use x="162.892578" xlink:href="#DejaVuSans-100"/>
     </g>
    </g>
   </g>
  </g>
 </g>
 <defs>
  <clipPath id="pda2c8ace07">
   <rect height="554.4" width="837" x="135" y="86.4"/>
  </clipPath>
 </defs>
</svg>
