<?xml version="1.0" encoding="utf-8" standalone="no"?>
<!DOCTYPE svg PUBLIC "-//W3C//DTD SVG 1.1//EN"
  "http://www.w3.org/Graphics/SVG/1.1/DTD/svg11.dtd">
<!-- Created with matplotlib (https://matplotlib.org/) -->
<svg height="720pt" version="1.1" viewBox="0 0 1080 720" width="1080pt" xmlns="http://www.w3.org/2000/svg" xmlns:xlink="http://www.w3.org/1999/xlink">
 <defs>
  <style type="text/css">
*{stroke-linecap:butt;stroke-linejoin:round;}
  </style>
 </defs>
 <g id="figure_1">
  <g id="patch_1">
   <path d="M 0 720 
L 1080 720 
L 1080 0 
L 0 0 
z
" style="fill:#ffffff;"/>
  </g>
  <g id="axes_1">
   <g id="patch_2">
    <path d="M 135 640.8 
L 972 640.8 
L 972 86.4 
L 135 86.4 
z
" style="fill:#ffffff;"/>
   </g>
   <g id="matplotlib.axis_1">
    <g id="xtick_1">
     <g id="line2d_1">
      <path clip-path="url(#p85766884f3)" d="M 173.045455 640.8 
L 173.045455 86.4 
" style="fill:none;stroke:#b0b0b0;stroke-linecap:square;stroke-width:0.8;"/>
     </g>
     <g id="line2d_2">
      <defs>
       <path d="M 0 0 
L 0 3.5 
" id="mbfecfbc19b" style="stroke:#000000;stroke-width:0.8;"/>
      </defs>
      <g>
       <use style="stroke:#000000;stroke-width:0.8;" x="173.045455" xlink:href="#mbfecfbc19b" y="640.8"/>
      </g>
     </g>
     <g id="text_1">
      <!-- 0 -->
      <defs>
       <path d="M 31.78125 66.40625 
Q 24.171875 66.40625 20.328125 58.90625 
Q 16.5 51.421875 16.5 36.375 
Q 16.5 21.390625 20.328125 13.890625 
Q 24.171875 6.390625 31.78125 6.390625 
Q 39.453125 6.390625 43.28125 13.890625 
Q 47.125 21.390625 47.125 36.375 
Q 47.125 51.421875 43.28125 58.90625 
Q 39.453125 66.40625 31.78125 66.40625 
z
M 31.78125 74.21875 
Q 44.046875 74.21875 50.515625 64.515625 
Q 56.984375 54.828125 56.984375 36.375 
Q 56.984375 17.96875 50.515625 8.265625 
Q 44.046875 -1.421875 31.78125 -1.421875 
Q 19.53125 -1.421875 13.0625 8.265625 
Q 6.59375 17.96875 6.59375 36.375 
Q 6.59375 54.828125 13.0625 64.515625 
Q 19.53125 74.21875 31.78125 74.21875 
z
" id="DejaVuSans-48"/>
      </defs>
      <g transform="translate(164.45608 668.315781)scale(0.27 -0.27)">
       <use xlink:href="#DejaVuSans-48"/>
      </g>
     </g>
    </g>
    <g id="xtick_2">
     <g id="line2d_3">
      <path clip-path="url(#p85766884f3)" d="M 282.371473 640.8 
L 282.371473 86.4 
" style="fill:none;stroke:#b0b0b0;stroke-linecap:square;stroke-width:0.8;"/>
     </g>
     <g id="line2d_4">
      <g>
       <use style="stroke:#000000;stroke-width:0.8;" x="282.371473" xlink:href="#mbfecfbc19b" y="640.8"/>
      </g>
     </g>
     <g id="text_2">
      <!-- 250 -->
      <defs>
       <path d="M 19.1875 8.296875 
L 53.609375 8.296875 
L 53.609375 0 
L 7.328125 0 
L 7.328125 8.296875 
Q 12.9375 14.109375 22.625 23.890625 
Q 32.328125 33.6875 34.8125 36.53125 
Q 39.546875 41.84375 41.421875 45.53125 
Q 43.3125 49.21875 43.3125 52.78125 
Q 43.3125 58.59375 39.234375 62.25 
Q 35.15625 65.921875 28.609375 65.921875 
Q 23.96875 65.921875 18.8125 64.3125 
Q 13.671875 62.703125 7.8125 59.421875 
L 7.8125 69.390625 
Q 13.765625 71.78125 18.9375 73 
Q 24.125 74.21875 28.421875 74.21875 
Q 39.75 74.21875 46.484375 68.546875 
Q 53.21875 62.890625 53.21875 53.421875 
Q 53.21875 48.921875 51.53125 44.890625 
Q 49.859375 40.875 45.40625 35.40625 
Q 44.1875 33.984375 37.640625 27.21875 
Q 31.109375 20.453125 19.1875 8.296875 
z
" id="DejaVuSans-50"/>
       <path d="M 10.796875 72.90625 
L 49.515625 72.90625 
L 49.515625 64.59375 
L 19.828125 64.59375 
L 19.828125 46.734375 
Q 21.96875 47.46875 24.109375 47.828125 
Q 26.265625 48.1875 28.421875 48.1875 
Q 40.625 48.1875 47.75 41.5 
Q 54.890625 34.8125 54.890625 23.390625 
Q 54.890625 11.625 47.5625 5.09375 
Q 40.234375 -1.421875 26.90625 -1.421875 
Q 22.3125 -1.421875 17.546875 -0.640625 
Q 12.796875 0.140625 7.71875 1.703125 
L 7.71875 11.625 
Q 12.109375 9.234375 16.796875 8.0625 
Q 21.484375 6.890625 26.703125 6.890625 
Q 35.15625 6.890625 40.078125 11.328125 
Q 45.015625 15.765625 45.015625 23.390625 
Q 45.015625 31 40.078125 35.4375 
Q 35.15625 39.890625 26.703125 39.890625 
Q 22.75 39.890625 18.8125 39.015625 
Q 14.890625 38.140625 10.796875 36.28125 
z
" id="DejaVuSans-53"/>
      </defs>
      <g transform="translate(256.603348 668.315781)scale(0.27 -0.27)">
       <use xlink:href="#DejaVuSans-50"/>
       <use x="63.623047" xlink:href="#DejaVuSans-53"/>
       <use x="127.246094" xlink:href="#DejaVuSans-48"/>
      </g>
     </g>
    </g>
    <g id="xtick_3">
     <g id="line2d_5">
      <path clip-path="url(#p85766884f3)" d="M 391.697492 640.8 
L 391.697492 86.4 
" style="fill:none;stroke:#b0b0b0;stroke-linecap:square;stroke-width:0.8;"/>
     </g>
     <g id="line2d_6">
      <g>
       <use style="stroke:#000000;stroke-width:0.8;" x="391.697492" xlink:href="#mbfecfbc19b" y="640.8"/>
      </g>
     </g>
     <g id="text_3">
      <!-- 500 -->
      <g transform="translate(365.929367 668.315781)scale(0.27 -0.27)">
       <use xlink:href="#DejaVuSans-53"/>
       <use x="63.623047" xlink:href="#DejaVuSans-48"/>
       <use x="127.246094" xlink:href="#DejaVuSans-48"/>
      </g>
     </g>
    </g>
    <g id="xtick_4">
     <g id="line2d_7">
      <path clip-path="url(#p85766884f3)" d="M 501.023511 640.8 
L 501.023511 86.4 
" style="fill:none;stroke:#b0b0b0;stroke-linecap:square;stroke-width:0.8;"/>
     </g>
     <g id="line2d_8">
      <g>
       <use style="stroke:#000000;stroke-width:0.8;" x="501.023511" xlink:href="#mbfecfbc19b" y="640.8"/>
      </g>
     </g>
     <g id="text_4">
      <!-- 750 -->
      <defs>
       <path d="M 8.203125 72.90625 
L 55.078125 72.90625 
L 55.078125 68.703125 
L 28.609375 0 
L 18.3125 0 
L 43.21875 64.59375 
L 8.203125 64.59375 
z
" id="DejaVuSans-55"/>
      </defs>
      <g transform="translate(475.255386 668.315781)scale(0.27 -0.27)">
       <use xlink:href="#DejaVuSans-55"/>
       <use x="63.623047" xlink:href="#DejaVuSans-53"/>
       <use x="127.246094" xlink:href="#DejaVuSans-48"/>
      </g>
     </g>
    </g>
    <g id="xtick_5">
     <g id="line2d_9">
      <path clip-path="url(#p85766884f3)" d="M 610.34953 640.8 
L 610.34953 86.4 
" style="fill:none;stroke:#b0b0b0;stroke-linecap:square;stroke-width:0.8;"/>
     </g>
     <g id="line2d_10">
      <g>
       <use style="stroke:#000000;stroke-width:0.8;" x="610.34953" xlink:href="#mbfecfbc19b" y="640.8"/>
      </g>
     </g>
     <g id="text_5">
      <!-- 1000 -->
      <defs>
       <path d="M 12.40625 8.296875 
L 28.515625 8.296875 
L 28.515625 63.921875 
L 10.984375 60.40625 
L 10.984375 69.390625 
L 28.421875 72.90625 
L 38.28125 72.90625 
L 38.28125 8.296875 
L 54.390625 8.296875 
L 54.390625 0 
L 12.40625 0 
z
" id="DejaVuSans-49"/>
      </defs>
      <g transform="translate(575.99203 668.315781)scale(0.27 -0.27)">
       <use xlink:href="#DejaVuSans-49"/>
       <use x="63.623047" xlink:href="#DejaVuSans-48"/>
       <use x="127.246094" xlink:href="#DejaVuSans-48"/>
       <use x="190.869141" xlink:href="#DejaVuSans-48"/>
      </g>
     </g>
    </g>
    <g id="xtick_6">
     <g id="line2d_11">
      <path clip-path="url(#p85766884f3)" d="M 719.675549 640.8 
L 719.675549 86.4 
" style="fill:none;stroke:#b0b0b0;stroke-linecap:square;stroke-width:0.8;"/>
     </g>
     <g id="line2d_12">
      <g>
       <use style="stroke:#000000;stroke-width:0.8;" x="719.675549" xlink:href="#mbfecfbc19b" y="640.8"/>
      </g>
     </g>
     <g id="text_6">
      <!-- 1250 -->
      <g transform="translate(685.318049 668.315781)scale(0.27 -0.27)">
       <use xlink:href="#DejaVuSans-49"/>
       <use x="63.623047" xlink:href="#DejaVuSans-50"/>
       <use x="127.246094" xlink:href="#DejaVuSans-53"/>
       <use x="190.869141" xlink:href="#DejaVuSans-48"/>
      </g>
     </g>
    </g>
    <g id="xtick_7">
     <g id="line2d_13">
      <path clip-path="url(#p85766884f3)" d="M 829.001567 640.8 
L 829.001567 86.4 
" style="fill:none;stroke:#b0b0b0;stroke-linecap:square;stroke-width:0.8;"/>
     </g>
     <g id="line2d_14">
      <g>
       <use style="stroke:#000000;stroke-width:0.8;" x="829.001567" xlink:href="#mbfecfbc19b" y="640.8"/>
      </g>
     </g>
     <g id="text_7">
      <!-- 1500 -->
      <g transform="translate(794.644067 668.315781)scale(0.27 -0.27)">
       <use xlink:href="#DejaVuSans-49"/>
       <use x="63.623047" xlink:href="#DejaVuSans-53"/>
       <use x="127.246094" xlink:href="#DejaVuSans-48"/>
       <use x="190.869141" xlink:href="#DejaVuSans-48"/>
      </g>
     </g>
    </g>
    <g id="xtick_8">
     <g id="line2d_15">
      <path clip-path="url(#p85766884f3)" d="M 938.327586 640.8 
L 938.327586 86.4 
" style="fill:none;stroke:#b0b0b0;stroke-linecap:square;stroke-width:0.8;"/>
     </g>
     <g id="line2d_16">
      <g>
       <use style="stroke:#000000;stroke-width:0.8;" x="938.327586" xlink:href="#mbfecfbc19b" y="640.8"/>
      </g>
     </g>
     <g id="text_8">
      <!-- 1750 -->
      <g transform="translate(903.970086 668.315781)scale(0.27 -0.27)">
       <use xlink:href="#DejaVuSans-49"/>
       <use x="63.623047" xlink:href="#DejaVuSans-55"/>
       <use x="127.246094" xlink:href="#DejaVuSans-53"/>
       <use x="190.869141" xlink:href="#DejaVuSans-48"/>
      </g>
     </g>
    </g>
   </g>
   <g id="matplotlib.axis_2">
    <g id="ytick_1">
     <g id="line2d_17">
      <path clip-path="url(#p85766884f3)" d="M 135 569.058678 
L 972 569.058678 
" style="fill:none;stroke:#b0b0b0;stroke-linecap:square;stroke-width:0.8;"/>
     </g>
     <g id="line2d_18">
      <defs>
       <path d="M 0 0 
L -3.5 0 
" id="ma2f105ecb3" style="stroke:#000000;stroke-width:0.8;"/>
      </defs>
      <g>
       <use style="stroke:#000000;stroke-width:0.8;" x="135" xlink:href="#ma2f105ecb3" y="569.058678"/>
      </g>
     </g>
     <g id="text_9">
      <!-- 3.0 -->
      <defs>
       <path d="M 40.578125 39.3125 
Q 47.65625 37.796875 51.625 33 
Q 55.609375 28.21875 55.609375 21.1875 
Q 55.609375 10.40625 48.1875 4.484375 
Q 40.765625 -1.421875 27.09375 -1.421875 
Q 22.515625 -1.421875 17.65625 -0.515625 
Q 12.796875 0.390625 7.625 2.203125 
L 7.625 11.71875 
Q 11.71875 9.328125 16.59375 8.109375 
Q 21.484375 6.890625 26.8125 6.890625 
Q 36.078125 6.890625 40.9375 10.546875 
Q 45.796875 14.203125 45.796875 21.1875 
Q 45.796875 27.640625 41.28125 31.265625 
Q 36.765625 34.90625 28.71875 34.90625 
L 20.21875 34.90625 
L 20.21875 43.015625 
L 29.109375 43.015625 
Q 36.375 43.015625 40.234375 45.921875 
Q 44.09375 48.828125 44.09375 54.296875 
Q 44.09375 59.90625 40.109375 62.90625 
Q 36.140625 65.921875 28.71875 65.921875 
Q 24.65625 65.921875 20.015625 65.03125 
Q 15.375 64.15625 9.8125 62.3125 
L 9.8125 71.09375 
Q 15.4375 72.65625 20.34375 73.4375 
Q 25.25 74.21875 29.59375 74.21875 
Q 40.828125 74.21875 47.359375 69.109375 
Q 53.90625 64.015625 53.90625 55.328125 
Q 53.90625 49.265625 50.4375 45.09375 
Q 46.96875 40.921875 40.578125 39.3125 
z
" id="DejaVuSans-51"/>
       <path d="M 10.6875 12.40625 
L 21 12.40625 
L 21 0 
L 10.6875 0 
z
" id="DejaVuSans-46"/>
      </defs>
      <g transform="translate(85.061562 579.316569)scale(0.27 -0.27)">
       <use xlink:href="#DejaVuSans-51"/>
       <use x="63.623047" xlink:href="#DejaVuSans-46"/>
       <use x="95.410156" xlink:href="#DejaVuSans-48"/>
      </g>
     </g>
    </g>
    <g id="ytick_2">
     <g id="line2d_19">
      <path clip-path="url(#p85766884f3)" d="M 135 462.309694 
L 972 462.309694 
" style="fill:none;stroke:#b0b0b0;stroke-linecap:square;stroke-width:0.8;"/>
     </g>
     <g id="line2d_20">
      <g>
       <use style="stroke:#000000;stroke-width:0.8;" x="135" xlink:href="#ma2f105ecb3" y="462.309694"/>
      </g>
     </g>
     <g id="text_10">
      <!-- 3.5 -->
      <g transform="translate(85.061562 472.567584)scale(0.27 -0.27)">
       <use xlink:href="#DejaVuSans-51"/>
       <use x="63.623047" xlink:href="#DejaVuSans-46"/>
       <use x="95.410156" xlink:href="#DejaVuSans-53"/>
      </g>
     </g>
    </g>
    <g id="ytick_3">
     <g id="line2d_21">
      <path clip-path="url(#p85766884f3)" d="M 135 355.560709 
L 972 355.560709 
" style="fill:none;stroke:#b0b0b0;stroke-linecap:square;stroke-width:0.8;"/>
     </g>
     <g id="line2d_22">
      <g>
       <use style="stroke:#000000;stroke-width:0.8;" x="135" xlink:href="#ma2f105ecb3" y="355.560709"/>
      </g>
     </g>
     <g id="text_11">
      <!-- 4.0 -->
      <defs>
       <path d="M 37.796875 64.3125 
L 12.890625 25.390625 
L 37.796875 25.390625 
z
M 35.203125 72.90625 
L 47.609375 72.90625 
L 47.609375 25.390625 
L 58.015625 25.390625 
L 58.015625 17.1875 
L 47.609375 17.1875 
L 47.609375 0 
L 37.796875 0 
L 37.796875 17.1875 
L 4.890625 17.1875 
L 4.890625 26.703125 
z
" id="DejaVuSans-52"/>
      </defs>
      <g transform="translate(85.061562 365.8186)scale(0.27 -0.27)">
       <use xlink:href="#DejaVuSans-52"/>
       <use x="63.623047" xlink:href="#DejaVuSans-46"/>
       <use x="95.410156" xlink:href="#DejaVuSans-48"/>
      </g>
     </g>
    </g>
    <g id="ytick_4">
     <g id="line2d_23">
      <path clip-path="url(#p85766884f3)" d="M 135 248.811725 
L 972 248.811725 
" style="fill:none;stroke:#b0b0b0;stroke-linecap:square;stroke-width:0.8;"/>
     </g>
     <g id="line2d_24">
      <g>
       <use style="stroke:#000000;stroke-width:0.8;" x="135" xlink:href="#ma2f105ecb3" y="248.811725"/>
      </g>
     </g>
     <g id="text_12">
      <!-- 4.5 -->
      <g transform="translate(85.061562 259.069616)scale(0.27 -0.27)">
       <use xlink:href="#DejaVuSans-52"/>
       <use x="63.623047" xlink:href="#DejaVuSans-46"/>
       <use x="95.410156" xlink:href="#DejaVuSans-53"/>
      </g>
     </g>
    </g>
    <g id="ytick_5">
     <g id="line2d_25">
      <path clip-path="url(#p85766884f3)" d="M 135 142.062741 
L 972 142.062741 
" style="fill:none;stroke:#b0b0b0;stroke-linecap:square;stroke-width:0.8;"/>
     </g>
     <g id="line2d_26">
      <g>
       <use style="stroke:#000000;stroke-width:0.8;" x="135" xlink:href="#ma2f105ecb3" y="142.062741"/>
      </g>
     </g>
     <g id="text_13">
      <!-- 5.0 -->
      <g transform="translate(85.061562 152.320631)scale(0.27 -0.27)">
       <use xlink:href="#DejaVuSans-53"/>
       <use x="63.623047" xlink:href="#DejaVuSans-46"/>
       <use x="95.410156" xlink:href="#DejaVuSans-48"/>
      </g>
     </g>
    </g>
   </g>
   <g id="line2d_27">
    <path clip-path="url(#p85766884f3)" d="M 173.045455 441.272455 
L 173.482759 441.87381 
L 173.920063 440.321251 
L 174.794671 436.016937 
L 175.231975 440.361515 
L 175.669279 438.475905 
L 176.106583 438.01168 
L 176.543887 436.580116 
L 176.981191 433.97399 
L 177.418495 434.00672 
L 177.855799 434.977521 
L 178.293103 434.064138 
L 179.167712 426.3044 
L 179.605016 427.336894 
L 180.04232 428.697043 
L 180.479624 429.348893 
L 180.916928 427.397925 
L 182.22884 416.460281 
L 182.666144 415.326442 
L 183.103448 410.140202 
L 183.540752 410.819844 
L 183.978056 400.470931 
L 184.415361 405.868211 
L 184.852665 400.983157 
L 185.289969 401.317226 
L 185.727273 398.359521 
L 186.164577 399.402144 
L 186.601881 398.027743 
L 187.039185 397.464666 
L 187.476489 394.804737 
L 187.913793 396.667339 
L 188.351097 397.629639 
L 188.788401 394.432441 
L 189.225705 399.15527 
L 190.100313 398.592041 
L 190.974922 399.038196 
L 191.412226 396.321715 
L 191.84953 396.89314 
L 192.724138 388.458291 
L 193.598746 385.176799 
L 194.03605 386.227363 
L 194.473354 386.67362 
L 194.910658 385.467041 
L 196.222571 383.396353 
L 196.659875 383.136499 
L 197.097179 385.296469 
L 197.534483 383.370953 
L 197.971787 386.443085 
L 198.409091 384.117225 
L 198.846395 390.745109 
L 199.283699 389.274248 
L 199.721003 390.727446 
L 200.158307 390.025661 
L 200.595611 393.226983 
L 201.032915 393.079774 
L 201.470219 393.72745 
L 201.907524 392.812641 
L 202.344828 392.263512 
L 202.782132 391.161588 
L 203.219436 390.870022 
L 203.65674 389.275317 
L 204.094044 384.556661 
L 204.531348 384.709876 
L 205.405956 384.428134 
L 205.84326 384.503316 
L 206.280564 382.066083 
L 206.717868 381.291611 
L 208.029781 389.60455 
L 208.467085 391.114758 
L 208.904389 393.661583 
L 209.341693 397.658195 
L 209.778997 400.379613 
L 210.216301 405.042684 
L 210.653605 403.540264 
L 211.090909 405.135071 
L 211.528213 406.226203 
L 211.965517 401.885291 
L 212.402821 396.057331 
L 212.840125 402.340812 
L 213.277429 402.604687 
L 213.714734 402.263492 
L 214.152038 403.86232 
L 215.026646 401.093461 
L 215.46395 397.602865 
L 215.901254 396.63863 
L 216.338558 398.345523 
L 216.775862 395.272118 
L 217.213166 395.572032 
L 217.65047 393.867175 
L 218.525078 388.702416 
L 218.962382 384.993552 
L 219.836991 380.543404 
L 220.274295 381.013738 
L 221.586207 373.381153 
L 222.023511 373.209868 
L 222.898119 368.622489 
L 223.335423 370.118393 
L 223.772727 369.353796 
L 224.210031 364.52107 
L 224.647335 367.828216 
L 225.084639 366.495859 
L 225.521944 363.367124 
L 225.959248 365.567358 
L 226.396552 370.995178 
L 226.833856 364.775884 
L 227.27116 365.615664 
L 227.708464 364.191938 
L 228.145768 361.956684 
L 228.583072 360.515651 
L 229.020376 357.335454 
L 229.45768 355.537498 
L 229.894984 354.67858 
L 230.332288 354.104101 
L 230.769592 354.253142 
L 231.206897 357.679806 
L 231.644201 358.50518 
L 232.081505 358.503856 
L 232.518809 360.95865 
L 232.956113 360.955393 
L 233.393417 361.45866 
L 233.830721 361.790693 
L 234.268025 361.678199 
L 234.705329 357.964602 
L 235.142633 356.828166 
L 235.579937 357.261952 
L 236.017241 357.160963 
L 236.454545 352.574601 
L 237.329154 349.529753 
L 237.766458 349.932285 
L 238.203762 349.674212 
L 238.641066 347.713472 
L 239.07837 347.01072 
L 239.515674 347.536842 
L 239.952978 343.956098 
L 240.390282 347.079743 
L 240.827586 345.88192 
L 241.26489 348.200501 
L 241.702194 346.697572 
L 242.139498 348.949777 
L 242.576803 349.584625 
L 243.014107 348.520368 
L 243.451411 346.281398 
L 244.326019 351.471456 
L 244.763323 352.197927 
L 245.637931 350.297862 
L 246.075235 351.399277 
L 246.512539 349.807066 
L 246.949843 351.013542 
L 247.387147 350.193615 
L 247.824451 353.089423 
L 248.261755 352.206479 
L 248.69906 352.584782 
L 249.136364 355.562847 
L 249.573668 355.703591 
L 250.010972 356.097317 
L 250.448276 355.367282 
L 250.88558 355.737135 
L 251.322884 357.415829 
L 251.760188 357.192929 
L 252.197492 355.871414 
L 252.634796 357.740532 
L 253.0721 358.96518 
L 253.509404 359.614535 
L 254.384013 358.339901 
L 255.258621 362.105928 
L 255.695925 359.905389 
L 256.133229 359.273442 
L 256.570533 357.762419 
L 257.007837 359.863395 
L 257.445141 359.858406 
L 257.882445 359.031861 
L 258.319749 357.002912 
L 258.757053 356.228491 
L 259.194357 358.219162 
L 259.631661 356.569534 
L 260.068966 357.7867 
L 260.50627 356.427263 
L 260.943574 357.141824 
L 261.380878 356.691546 
L 261.818182 358.801683 
L 262.255486 359.67521 
L 262.69279 359.793914 
L 263.130094 360.855472 
L 263.567398 360.461797 
L 264.004702 360.574748 
L 264.442006 359.956189 
L 264.87931 361.209699 
L 265.316614 362.116872 
L 265.753918 362.600898 
L 266.191223 362.142221 
L 266.628527 362.123896 
L 267.065831 362.317425 
L 267.503135 363.208412 
L 267.940439 359.6464 
L 268.377743 362.230892 
L 268.815047 361.059487 
L 269.252351 361.303002 
L 269.689655 361.162563 
L 270.126959 364.006248 
L 270.564263 362.571629 
L 271.001567 363.631966 
L 271.438871 362.824663 
L 271.876176 362.498127 
L 272.31348 364.045137 
L 272.750784 363.839442 
L 273.188088 364.225686 
L 273.625392 364.855088 
L 274.062696 364.401348 
L 274.5 363.663678 
L 274.937304 362.40009 
L 275.374608 362.77712 
L 275.811912 363.932797 
L 276.249216 366.336078 
L 276.68652 365.713904 
L 277.123824 365.492786 
L 277.561129 365.999464 
L 277.998433 366.881034 
L 278.435737 367.365212 
L 278.873041 366.954943 
L 279.310345 368.709276 
L 279.747649 369.359395 
L 280.184953 366.63248 
L 280.622257 366.555618 
L 281.059561 366.336892 
L 281.496865 364.054401 
L 281.934169 365.309438 
L 282.371473 363.775662 
L 282.808777 365.615867 
L 283.246082 364.336245 
L 283.683386 364.149537 
L 284.12069 362.352649 
L 284.557994 363.243483 
L 285.432602 364.47088 
L 285.869906 364.304584 
L 286.30721 362.348272 
L 286.744514 359.557525 
L 287.181818 361.864704 
L 287.619122 358.99399 
L 288.056426 359.748102 
L 288.49373 357.502514 
L 288.931034 356.889859 
L 289.368339 355.402914 
L 289.805643 355.544726 
L 290.242947 354.91507 
L 290.680251 353.436268 
L 291.117555 353.646799 
L 291.554859 353.437592 
L 291.992163 354.51661 
L 292.429467 353.651482 
L 292.866771 354.741291 
L 293.304075 355.389679 
L 293.741379 358.735307 
L 294.178683 359.581704 
L 295.053292 363.55261 
L 295.490596 366.967312 
L 295.9279 366.001398 
L 296.365204 369.192895 
L 296.802508 369.970625 
L 297.239812 373.263671 
L 297.677116 372.170197 
L 298.551724 373.308516 
L 298.989028 371.885656 
L 299.863636 370.849192 
L 300.30094 373.895364 
L 300.738245 373.643349 
L 301.175549 372.824439 
L 301.612853 372.855438 
L 302.050157 373.574529 
L 303.362069 377.532354 
L 303.799373 380.493877 
L 304.236677 381.20014 
L 304.673981 380.626832 
L 305.111285 382.661177 
L 305.548589 378.952262 
L 305.985893 379.651501 
L 306.423197 382.804415 
L 306.860502 381.256031 
L 307.73511 383.686595 
L 308.172414 381.175147 
L 308.609718 381.557013 
L 309.047022 381.20915 
L 309.484326 379.076157 
L 309.92163 384.018119 
L 310.358934 382.575356 
L 310.796238 383.525542 
L 311.233542 381.384558 
L 311.670846 380.03352 
L 312.10815 373.617083 
L 312.982759 376.15271 
L 314.731975 369.094146 
L 315.169279 371.280687 
L 315.606583 369.644904 
L 316.043887 368.985216 
L 316.481191 369.705324 
L 316.918495 369.511999 
L 317.355799 369.088088 
L 317.793103 370.554775 
L 318.230408 369.919367 
L 318.667712 367.694497 
L 319.105016 369.443892 
L 319.54232 369.949246 
L 319.979624 370.073701 
L 320.416928 370.602216 
L 321.291536 369.060347 
L 321.72884 368.765218 
L 322.166144 370.79264 
L 323.040752 368.954114 
L 323.478056 369.729452 
L 323.915361 369.820566 
L 324.352665 372.000236 
L 324.789969 371.099527 
L 325.227273 370.843185 
L 325.664577 367.394379 
L 326.101881 366.850645 
L 326.539185 366.078056 
L 327.851097 357.321762 
L 328.288401 357.291526 
L 328.725705 354.959049 
L 329.163009 351.684938 
L 329.600313 350.680135 
L 330.037618 348.831379 
L 330.474922 347.786465 
L 330.912226 345.565107 
L 331.34953 344.083557 
L 331.786834 341.263796 
L 332.224138 343.693343 
L 332.661442 342.83758 
L 333.098746 342.585005 
L 333.53605 343.023372 
L 333.973354 346.21492 
L 334.410658 347.243647 
L 334.847962 347.874932 
L 335.285266 348.740977 
L 336.159875 352.230097 
L 336.597179 356.309985 
L 337.034483 357.538807 
L 337.471787 356.91587 
L 337.909091 362.201623 
L 338.346395 362.050903 
L 338.783699 362.018326 
L 339.221003 363.059982 
L 339.658307 366.100911 
L 340.095611 366.811196 
L 340.532915 371.13302 
L 340.970219 373.968866 
L 341.407524 372.742131 
L 341.844828 375.236018 
L 342.282132 379.961647 
L 342.719436 379.488055 
L 343.15674 384.012826 
L 343.594044 384.559003 
L 345.34326 397.251438 
L 345.780564 402.198897 
L 346.217868 405.315874 
L 346.655172 410.377456 
L 347.092476 417.59183 
L 347.529781 419.234536 
L 347.967085 423.413631 
L 348.841693 425.974403 
L 349.278997 432.299166 
L 349.716301 432.829105 
L 350.153605 432.149412 
L 350.590909 432.08833 
L 351.028213 435.311743 
L 352.777429 442.125774 
L 353.214734 448.534626 
L 353.652038 453.193116 
L 354.089342 455.500142 
L 354.526646 456.35509 
L 354.96395 471.233201 
L 355.401254 457.872119 
L 355.838558 457.094389 
L 356.275862 458.313642 
L 356.713166 453.395298 
L 357.15047 453.706054 
L 357.587774 455.251232 
L 358.025078 464.495013 
L 358.462382 470.679796 
L 358.899687 469.932963 
L 359.336991 482.81002 
L 359.774295 485.121474 
L 360.648903 478.362468 
L 361.086207 478.343227 
L 361.523511 479.591596 
L 361.960815 476.116168 
L 362.398119 474.952703 
L 362.835423 474.961662 
L 363.272727 475.533901 
L 363.710031 474.500695 
L 364.147335 476.633993 
L 364.584639 474.867799 
L 365.021944 474.003689 
L 365.459248 469.957091 
L 365.896552 474.247611 
L 366.333856 471.195483 
L 366.77116 469.229601 
L 367.208464 471.925772 
L 367.645768 475.807346 
L 368.083072 476.811538 
L 368.520376 475.908437 
L 368.95768 478.771363 
L 369.394984 479.843458 
L 369.832288 478.775893 
L 370.706897 472.18018 
L 371.144201 475.184969 
L 371.581505 475.081383 
L 372.018809 475.141397 
L 372.456113 478.964942 
L 372.893417 478.304796 
L 373.330721 478.015826 
L 373.768025 479.000167 
L 374.205329 477.161641 
L 374.642633 474.137204 
L 375.079937 476.353014 
L 375.517241 477.119749 
L 376.39185 480.363726 
L 376.829154 480.122197 
L 377.266458 481.220405 
L 378.141066 489.383591 
L 378.57837 491.311143 
L 379.015674 497.291096 
L 379.890282 501.6033 
L 380.327586 495.458985 
L 380.76489 497.957707 
L 381.202194 505.655904 
L 381.639498 509.240568 
L 382.076803 514.041786 
L 382.514107 515.906016 
L 382.951411 519.235814 
L 383.388715 519.532063 
L 384.263323 527.855742 
L 384.700627 517.271561 
L 385.137931 517.64737 
L 385.575235 512.879492 
L 386.012539 514.540166 
L 386.449843 518.685565 
L 386.887147 518.75866 
L 387.324451 523.743481 
L 387.761755 524.111807 
L 388.19906 527.522539 
L 388.636364 523.18356 
L 389.073668 521.106662 
L 389.510972 527.343364 
L 389.948276 522.493229 
L 390.38558 525.440244 
L 390.822884 524.87788 
L 391.260188 529.499975 
L 391.697492 532.293979 
L 392.5721 532.761564 
L 393.009404 534.587873 
L 393.446708 535.077294 
L 393.884013 537.819226 
L 394.321317 537.79632 
L 394.758621 542.259601 
L 395.195925 542.886559 
L 395.633229 542.275431 
L 396.070533 543.977488 
L 396.507837 547.262187 
L 396.945141 547.248342 
L 397.382445 547.479538 
L 397.819749 546.221192 
L 398.257053 545.447637 
L 398.694357 547.484119 
L 399.131661 550.151072 
L 399.568966 549.656611 
L 400.00627 553.107555 
L 400.443574 552.974243 
L 400.880878 553.089587 
L 401.318182 553.400547 
L 401.755486 556.799927 
L 402.19279 556.555751 
L 402.630094 556.077273 
L 403.067398 558.858501 
L 403.504702 557.860977 
L 403.942006 558.004113 
L 404.37931 560.87783 
L 404.816614 558.866289 
L 405.253918 558.809941 
L 406.128527 564.613213 
L 406.565831 563.720649 
L 407.003135 567.635004 
L 407.440439 569.265442 
L 408.315047 571.845353 
L 408.752351 570.561251 
L 409.189655 575.362775 
L 409.626959 576.657006 
L 410.064263 577.018613 
L 410.501567 577.095882 
L 410.938871 577.300558 
L 411.376176 576.43202 
L 411.81348 575.983879 
L 412.250784 578.014457 
L 412.688088 575.76607 
L 413.125392 575.046012 
L 413.562696 574.100001 
L 414.437304 575.169398 
L 414.874608 576.49076 
L 415.311912 577.166279 
L 416.18652 584.215426 
L 416.623824 582.547372 
L 417.061129 584.720373 
L 417.498433 587.892324 
L 417.935737 588.329469 
L 418.373041 590.34666 
L 418.810345 590.375521 
L 419.247649 591.945793 
L 419.684953 595.412721 
L 420.122257 594.681261 
L 420.559561 595.200816 
L 420.996865 597.237655 
L 421.434169 597.426603 
L 421.871473 598.268723 
L 422.308777 597.378246 
L 422.746082 601.537846 
L 423.183386 601.573579 
L 424.057994 601.980285 
L 424.495298 604.325844 
L 424.932602 605.328509 
L 425.369906 607.446027 
L 425.80721 606.85862 
L 426.244514 607.23733 
L 426.681818 608.092787 
L 427.119122 610.808504 
L 427.556426 610.233974 
L 427.99373 611.863904 
L 428.431034 612.625396 
L 428.868339 611.711198 
L 429.305643 611.921372 
L 429.742947 614.16472 
L 430.180251 614.083633 
L 430.617555 612.06629 
L 431.054859 612.717834 
L 431.492163 611.854283 
L 431.929467 613.19509 
L 432.366771 613.111102 
L 433.241379 610.942427 
L 433.678683 611.042449 
L 434.115987 610.822248 
L 434.553292 611.638256 
L 434.990596 612.951728 
L 435.4279 615.6 
L 435.865204 611.85413 
L 436.302508 611.990395 
L 436.739812 608.978581 
L 437.177116 610.246445 
L 437.61442 608.582056 
L 438.051724 608.823636 
L 438.489028 608.784238 
L 438.926332 609.26241 
L 439.363636 607.836852 
L 439.80094 605.378698 
L 440.675549 602.473524 
L 441.112853 601.482261 
L 441.550157 599.831513 
L 441.987461 592.733398 
L 442.424765 592.104353 
L 442.862069 593.896659 
L 443.736677 595.701436 
L 444.611285 594.563066 
L 445.048589 591.774254 
L 445.485893 590.71748 
L 445.923197 592.387011 
L 446.360502 592.832708 
L 446.797806 590.700632 
L 447.23511 590.001851 
L 447.672414 589.909922 
L 448.109718 586.343838 
L 448.547022 587.341769 
L 448.984326 585.334861 
L 449.42163 584.595613 
L 449.858934 584.876286 
L 450.296238 584.142382 
L 450.733542 583.7596 
L 451.170846 582.180166 
L 451.60815 582.330224 
L 452.045455 581.094225 
L 452.482759 581.991727 
L 453.357367 579.179703 
L 454.669279 578.182281 
L 455.106583 580.346171 
L 455.543887 578.820641 
L 455.981191 580.208227 
L 456.418495 580.933273 
L 456.855799 579.620004 
L 457.293103 580.037298 
L 458.167712 572.894644 
L 458.605016 571.049145 
L 459.04232 572.323627 
L 459.479624 575.049423 
L 460.354232 582.110532 
L 460.791536 580.45846 
L 461.22884 578.023212 
L 461.666144 577.796801 
L 462.103448 578.707181 
L 462.540752 578.754876 
L 462.978056 578.40742 
L 463.415361 576.616997 
L 463.852665 572.74937 
L 464.289969 574.784886 
L 465.164577 571.390748 
L 465.601881 567.917305 
L 466.039185 567.054977 
L 466.476489 566.826122 
L 466.913793 565.985121 
L 467.351097 563.592529 
L 467.788401 562.763592 
L 468.225705 562.442553 
L 468.663009 561.80348 
L 469.100313 560.826011 
L 469.537618 562.008309 
L 469.974922 559.330514 
L 470.412226 558.613968 
L 471.286834 554.985835 
L 471.724138 555.01999 
L 472.161442 554.90541 
L 472.598746 555.617629 
L 473.03605 552.924156 
L 473.473354 553.856475 
L 473.910658 552.715204 
L 474.785266 554.570526 
L 475.222571 554.82076 
L 475.659875 556.000615 
L 476.097179 555.600526 
L 476.534483 556.038231 
L 476.971787 554.066038 
L 477.409091 553.640854 
L 477.846395 554.251728 
L 478.283699 553.016339 
L 478.721003 552.28773 
L 479.158307 552.574307 
L 479.595611 550.943309 
L 480.032915 550.720054 
L 480.470219 549.957442 
L 480.907524 548.829761 
L 481.344828 548.575506 
L 481.782132 547.553906 
L 482.219436 547.466049 
L 482.65674 541.981117 
L 483.094044 544.596252 
L 483.531348 543.406675 
L 484.84326 534.188751 
L 485.717868 532.400059 
L 486.155172 528.57239 
L 486.592476 522.785151 
L 487.029781 523.395618 
L 487.467085 521.079938 
L 487.904389 522.121951 
L 488.778997 516.96783 
L 489.216301 515.475794 
L 489.653605 514.397794 
L 490.090909 512.35785 
L 490.528213 512.471514 
L 490.965517 512.924388 
L 491.402821 515.341107 
L 491.840125 511.838447 
L 492.277429 514.514155 
L 492.714734 512.515137 
L 493.152038 512.329141 
L 493.589342 510.70079 
L 494.026646 509.761905 
L 494.46395 509.339674 
L 495.775862 500.095077 
L 496.213166 499.290879 
L 496.65047 497.358796 
L 497.087774 497.126327 
L 497.525078 497.783623 
L 497.962382 496.422201 
L 498.399687 494.256377 
L 498.836991 491.003798 
L 499.274295 490.862392 
L 499.711599 487.870074 
L 500.148903 487.980378 
L 500.586207 484.147161 
L 501.023511 482.285883 
L 501.460815 481.021022 
L 501.898119 480.202316 
L 502.335423 478.303371 
L 502.772727 477.123872 
L 503.647335 473.7165 
L 504.084639 470.280725 
L 504.521944 470.824663 
L 504.959248 469.677741 
L 505.396552 469.132226 
L 505.833856 469.362964 
L 506.27116 466.534957 
L 506.708464 471.041912 
L 507.145768 470.550759 
L 507.583072 468.76446 
L 508.020376 468.148445 
L 508.45768 471.310928 
L 508.894984 472.199522 
L 510.206897 470.27085 
L 510.644201 469.468789 
L 511.081505 470.822117 
L 511.518809 470.94021 
L 511.956113 468.484194 
L 512.393417 471.951121 
L 512.830721 472.943759 
L 513.268025 472.911334 
L 513.705329 476.323746 
L 514.142633 475.243251 
L 514.579937 476.659851 
L 515.017241 477.317503 
L 515.454545 477.527422 
L 515.89185 478.523318 
L 516.329154 481.383036 
L 516.766458 479.503128 
L 517.203762 479.345536 
L 517.641066 480.166889 
L 518.07837 479.23457 
L 518.515674 480.171368 
L 518.952978 479.372412 
L 519.390282 480.024516 
L 519.827586 480.316947 
L 520.26489 477.676412 
L 520.702194 477.619453 
L 521.139498 479.097644 
L 521.576803 481.630929 
L 522.014107 485.990624 
L 522.451411 484.957977 
L 522.888715 487.204786 
L 523.326019 484.94118 
L 523.763323 489.121853 
L 524.200627 490.779524 
L 524.637931 491.299487 
L 525.075235 489.827353 
L 525.949843 483.790237 
L 526.387147 484.559416 
L 527.261755 481.626246 
L 527.69906 482.507154 
L 528.573668 477.044771 
L 529.010972 479.026076 
L 529.448276 479.397456 
L 530.322884 475.075682 
L 530.760188 475.446146 
L 531.197492 476.583651 
L 531.634796 474.341983 
L 532.0721 474.837971 
L 532.509404 473.961796 
L 532.946708 472.616409 
L 533.384013 474.159194 
L 533.821317 476.133831 
L 534.258621 474.362598 
L 534.695925 475.792177 
L 535.133229 478.073803 
L 535.570533 473.203409 
L 536.007837 472.188019 
L 536.445141 472.015614 
L 536.882445 473.037367 
L 537.319749 473.479297 
L 537.757053 472.566423 
L 538.194357 470.074012 
L 538.631661 466.863885 
L 539.068966 471.682359 
L 539.50627 466.298874 
L 539.943574 463.63019 
L 540.380878 465.110214 
L 540.818182 462.888346 
L 541.69279 461.587854 
L 542.567398 455.766562 
L 543.004702 455.681607 
L 543.442006 455.000336 
L 543.87931 455.531752 
L 544.316614 457.068123 
L 544.753918 456.415561 
L 546.940439 465.198885 
L 547.377743 469.716325 
L 548.252351 474.752659 
L 549.126959 475.671031 
L 549.564263 477.976886 
L 550.001567 478.934961 
L 550.438871 478.050897 
L 550.876176 478.950639 
L 551.750784 475.332533 
L 552.188088 477.518667 
L 552.625392 476.302316 
L 553.062696 475.678564 
L 553.5 476.491569 
L 553.937304 477.569009 
L 554.374608 478.11595 
L 554.811912 476.488871 
L 555.249216 476.850733 
L 555.68652 477.023596 
L 556.123824 478.043771 
L 556.561129 477.581022 
L 556.998433 478.958274 
L 557.435737 476.190943 
L 558.747649 471.192683 
L 559.184953 470.790456 
L 560.059561 464.695363 
L 560.496865 465.30812 
L 560.934169 464.433422 
L 561.371473 462.195063 
L 561.808777 464.634892 
L 562.246082 462.056813 
L 562.683386 463.201597 
L 563.12069 463.26726 
L 563.557994 461.726715 
L 563.995298 462.404829 
L 564.869906 465.551431 
L 565.30721 465.483019 
L 565.744514 466.114559 
L 566.181818 465.612615 
L 566.619122 466.045892 
L 567.056426 466.183123 
L 567.49373 465.720476 
L 567.931034 464.66075 
L 568.368339 465.85165 
L 568.805643 465.184683 
L 569.242947 465.046484 
L 569.680251 463.686386 
L 570.117555 460.914473 
L 570.554859 456.847413 
L 570.992163 456.77218 
L 571.866771 455.774961 
L 572.304075 454.203824 
L 573.178683 448.819015 
L 573.615987 449.312356 
L 574.053292 449.271737 
L 574.9279 445.246467 
L 575.365204 446.863823 
L 575.802508 442.360534 
L 576.239812 445.694403 
L 576.677116 442.867109 
L 577.11442 444.850348 
L 577.551724 442.089328 
L 577.989028 443.478237 
L 578.426332 442.327753 
L 578.863636 441.661702 
L 579.30094 438.054132 
L 579.738245 438.489547 
L 580.175549 439.303723 
L 580.612853 434.273751 
L 581.050157 434.030135 
L 581.487461 431.27502 
L 581.924765 436.591721 
L 582.362069 437.159735 
L 582.799373 435.548742 
L 583.236677 430.562546 
L 583.673981 429.587317 
L 584.111285 428.324441 
L 584.548589 425.091306 
L 584.985893 420.887015 
L 585.423197 421.465209 
L 585.860502 419.501058 
L 586.297806 415.285924 
L 587.172414 411.356451 
L 588.047022 406.164154 
L 588.484326 407.978653 
L 588.92163 406.72097 
L 589.358934 404.737222 
L 589.796238 406.372546 
L 590.233542 406.775944 
L 590.670846 404.698231 
L 591.10815 400.231692 
L 591.545455 398.137843 
L 592.420063 392.226761 
L 592.857367 387.275484 
L 593.294671 387.367056 
L 593.731975 386.40949 
L 594.606583 379.581613 
L 595.481191 375.306466 
L 595.918495 377.450453 
L 596.355799 380.28864 
L 596.793103 380.24685 
L 597.230408 379.021438 
L 597.667712 373.512022 
L 598.105016 373.000661 
L 599.416928 363.859498 
L 599.854232 368.631397 
L 600.291536 361.334205 
L 600.72884 362.883556 
L 601.603448 359.244377 
L 602.040752 353.439628 
L 602.915361 349.339787 
L 603.352665 348.774063 
L 603.789969 341.870139 
L 604.227273 346.409773 
L 605.539185 341.698905 
L 606.851097 331.340169 
L 607.288401 331.574623 
L 607.725705 328.260401 
L 608.163009 327.54299 
L 609.037618 319.873094 
L 609.474922 321.138515 
L 609.912226 319.036573 
L 610.34953 318.113518 
L 610.786834 320.29843 
L 611.224138 320.160283 
L 611.661442 322.779286 
L 612.098746 323.751716 
L 612.53605 325.151823 
L 613.847962 330.433708 
L 614.285266 335.484396 
L 614.722571 336.067325 
L 615.159875 337.516298 
L 615.597179 340.925604 
L 616.034483 340.321093 
L 616.471787 342.212607 
L 616.909091 334.224982 
L 617.346395 337.152858 
L 617.783699 336.852537 
L 618.221003 337.979606 
L 618.658307 336.342195 
L 619.095611 331.487988 
L 620.407524 326.955786 
L 620.844828 324.110371 
L 621.282132 323.108927 
L 621.719436 316.557447 
L 622.15674 316.00618 
L 622.594044 309.676022 
L 623.031348 309.500309 
L 623.905956 302.986293 
L 624.780564 302.113529 
L 625.655172 303.853661 
L 626.529781 315.22789 
L 626.967085 318.769643 
L 627.404389 314.678354 
L 627.841693 314.804896 
L 628.278997 316.721555 
L 628.716301 316.385195 
L 629.153605 315.722962 
L 629.590909 315.357181 
L 630.028213 314.357875 
L 630.465517 315.139321 
L 630.902821 316.947152 
L 631.340125 314.255053 
L 631.777429 308.434118 
L 632.214734 308.490517 
L 632.652038 303.488389 
L 633.089342 300.908784 
L 633.526646 296.691563 
L 634.401254 291.169217 
L 634.838558 291.295759 
L 635.275862 288.905814 
L 635.713166 287.188996 
L 636.15047 288.363607 
L 636.587774 287.114577 
L 637.025078 285.237519 
L 637.462382 284.583634 
L 637.899687 284.135697 
L 638.336991 282.977374 
L 638.774295 281.50295 
L 639.211599 279.250949 
L 639.648903 277.944298 
L 640.523511 278.135078 
L 640.960815 279.470234 
L 641.398119 278.601441 
L 641.835423 278.993589 
L 642.710031 273.92763 
L 643.147335 273.819616 
L 643.584639 273.387765 
L 644.021944 269.362342 
L 644.459248 269.894776 
L 644.896552 269.313476 
L 645.333856 267.587393 
L 645.77116 266.90429 
L 646.208464 266.611299 
L 646.645768 266.170692 
L 647.083072 266.64184 
L 647.520376 266.19991 
L 647.95768 266.630336 
L 648.394984 267.27903 
L 648.832288 268.597999 
L 649.269592 268.578555 
L 649.706897 267.850454 
L 650.144201 267.643487 
L 650.581505 266.834758 
L 651.018809 269.44236 
L 651.456113 266.120503 
L 651.893417 266.570781 
L 652.330721 264.39442 
L 652.768025 263.157606 
L 653.205329 260.157246 
L 653.642633 258.858128 
L 654.079937 256.403435 
L 654.517241 250.583823 
L 654.954545 246.522362 
L 655.829154 242.375691 
L 656.266458 238.993159 
L 656.703762 238.424687 
L 657.141066 234.952873 
L 657.57837 234.465742 
L 658.015674 238.066948 
L 658.452978 229.631387 
L 658.890282 228.712709 
L 659.327586 226.975326 
L 659.76489 222.053929 
L 660.202194 224.553924 
L 660.639498 221.456035 
L 661.076803 220.748805 
L 661.951411 212.499035 
L 662.826019 207.671093 
L 663.263323 207.275993 
L 663.700627 205.538508 
L 664.137931 205.733156 
L 664.575235 200.872638 
L 665.012539 197.98701 
L 665.449843 196.328219 
L 665.887147 192.805504 
L 666.761755 182.883301 
L 667.19906 183.894009 
L 667.636364 181.361132 
L 668.073668 183.01249 
L 668.510972 184.171425 
L 668.948276 182.940413 
L 669.38558 179.283113 
L 669.822884 178.267621 
L 670.260188 178.856861 
L 670.697492 175.932446 
L 671.134796 173.878351 
L 671.5721 170.633865 
L 672.009404 169.51209 
L 672.446708 174.036758 
L 673.321317 172.911419 
L 673.758621 174.167067 
L 674.195925 172.228316 
L 674.633229 169.76609 
L 675.070533 165.550193 
L 675.945141 172.23249 
L 676.382445 179.204826 
L 676.819749 181.736177 
L 677.257053 183.538103 
L 677.694357 182.270443 
L 678.131661 174.973353 
L 679.00627 166.259867 
L 679.443574 166.74374 
L 679.880878 164.665925 
L 680.318182 168.2597 
L 680.755486 169.356737 
L 681.19279 168.343484 
L 681.630094 169.510257 
L 682.067398 170.351971 
L 682.504702 173.570599 
L 682.942006 172.014935 
L 683.37931 173.850559 
L 683.816614 176.87352 
L 684.253918 184.06789 
L 684.691223 188.83363 
L 685.128527 187.908946 
L 685.565831 187.766319 
L 686.003135 186.285685 
L 686.440439 185.673844 
L 686.877743 190.134987 
L 687.315047 190.926003 
L 687.752351 193.055432 
L 688.189655 193.38609 
L 689.064263 206.075726 
L 689.501567 208.053977 
L 689.938871 208.536832 
L 690.376176 205.447902 
L 690.81348 203.732102 
L 691.250784 200.401083 
L 691.688088 200.596749 
L 692.125392 201.687577 
L 692.562696 201.215513 
L 693 199.874553 
L 693.437304 200.495556 
L 693.874608 201.711602 
L 694.311912 203.684152 
L 694.749216 201.033589 
L 695.18652 200.73449 
L 695.623824 199.185546 
L 696.061129 196.554631 
L 696.498433 194.991129 
L 696.935737 191.698795 
L 697.373041 194.874054 
L 697.810345 196.412818 
L 698.247649 195.615898 
L 698.684953 192.868215 
L 699.122257 192.186944 
L 699.559561 192.817211 
L 699.996865 192.583062 
L 700.434169 195.896368 
L 700.871473 197.136439 
L 701.308777 197.695647 
L 701.746082 201.137531 
L 702.183386 206.258668 
L 702.62069 207.905649 
L 703.057994 208.478702 
L 703.932602 197.666124 
L 704.369906 201.33951 
L 704.80721 201.810148 
L 705.244514 206.991349 
L 705.681818 207.725558 
L 706.119122 207.354992 
L 706.556426 205.751379 
L 706.99373 210.954468 
L 707.868339 205.312402 
L 708.305643 207.87185 
L 708.742947 211.341017 
L 709.180251 211.536684 
L 709.617555 214.713877 
L 710.054859 213.330161 
L 710.492163 210.179131 
L 710.929467 210.570057 
L 711.366771 210.32074 
L 711.804075 229.945044 
L 712.678683 242.479836 
L 713.115987 235.015075 
L 713.553292 233.571192 
L 713.990596 233.763805 
L 714.4279 235.311528 
L 714.865204 234.748553 
L 715.302508 232.404725 
L 715.739812 235.974983 
L 716.177116 236.171261 
L 716.61442 229.734819 
L 717.051724 228.98819 
L 717.489028 229.888136 
L 717.926332 228.005784 
L 718.363636 223.188532 
L 718.80094 219.811599 
L 719.238245 217.86786 
L 719.675549 211.394769 
L 720.550157 205.907852 
L 720.987461 204.455621 
L 721.862069 198.110294 
L 722.299373 201.215207 
L 722.736677 202.215836 
L 723.173981 199.595713 
L 723.611285 198.580729 
L 724.048589 204.895312 
L 724.923197 191.553521 
L 725.360502 190.991259 
L 725.797806 191.939459 
L 726.23511 188.709226 
L 726.672414 181.92767 
L 727.109718 179.566738 
L 727.547022 179.580686 
L 727.984326 175.675595 
L 728.42163 176.901516 
L 728.858934 176.737815 
L 729.296238 172.247557 
L 729.733542 169.872577 
L 730.170846 168.376163 
L 730.60815 164.018148 
L 731.045455 162.752625 
L 731.482759 159.389029 
L 731.920063 157.3725 
L 732.357367 158.097546 
L 732.794671 160.142886 
L 733.231975 156.442828 
L 733.669279 155.791894 
L 734.543887 153.510777 
L 734.981191 153.662974 
L 735.418495 151.907572 
L 735.855799 148.261572 
L 736.293103 148.320923 
L 736.730408 146.772284 
L 737.167712 140.469003 
L 737.605016 145.635442 
L 738.04232 134.705993 
L 738.479624 132.944585 
L 738.916928 134.682273 
L 739.354232 134.336751 
L 739.791536 136.25341 
L 740.22884 136.315205 
L 740.666144 138.246932 
L 741.103448 138.870683 
L 741.540752 139.851665 
L 741.978056 138.15653 
L 742.852665 136.889786 
L 743.289969 139.035911 
L 743.727273 130.843457 
L 744.164577 128.79883 
L 744.601881 131.668678 
L 745.039185 133.594093 
L 745.476489 130.871758 
L 745.913793 132.174337 
L 746.351097 134.632695 
L 746.788401 135.393678 
L 747.225705 134.873766 
L 747.663009 134.056485 
L 748.100313 134.760356 
L 748.974922 132.921373 
L 749.412226 132.471197 
L 749.84953 134.50035 
L 750.724138 140.025342 
L 751.161442 139.00822 
L 751.598746 139.10076 
L 752.03605 138.451863 
L 752.473354 139.246238 
L 752.910658 138.870378 
L 753.347962 141.053865 
L 753.785266 141.805177 
L 754.222571 141.981603 
L 754.659875 141.09082 
L 755.097179 142.384746 
L 755.534483 142.846222 
L 755.971787 141.706631 
L 756.409091 143.60578 
L 756.846395 144.658126 
L 757.283699 141.284858 
L 757.721003 141.121361 
L 758.158307 140.016078 
L 758.595611 138.409411 
L 759.470219 136.301258 
L 759.907524 137.337417 
L 760.782132 144.565077 
L 761.219436 144.360655 
L 761.65674 143.326125 
L 762.094044 141.142027 
L 762.531348 143.874339 
L 762.968652 144.147173 
L 763.405956 142.362349 
L 763.84326 143.284284 
L 764.280564 150.102795 
L 765.155172 155.907645 
L 765.592476 156.136093 
L 766.029781 156.068801 
L 766.467085 154.949265 
L 766.904389 157.980981 
L 767.778997 160.978694 
L 768.216301 162.275776 
L 769.090909 168.705091 
L 769.528213 169.097036 
L 769.965517 169.905663 
L 770.402821 171.572089 
L 770.840125 171.587461 
L 771.277429 169.366714 
L 771.714734 171.731717 
L 772.152038 170.909754 
L 772.589342 168.749478 
L 773.026646 170.210871 
L 773.901254 176.016536 
L 774.338558 177.326241 
L 776.087774 191.687596 
L 776.525078 189.570384 
L 776.962382 185.830724 
L 777.399687 186.080754 
L 777.836991 185.662748 
L 778.711599 181.651476 
L 779.148903 180.04033 
L 780.023511 178.290934 
L 780.460815 175.164947 
L 780.898119 174.073509 
L 781.335423 170.811716 
L 781.772727 169.713254 
L 782.210031 165.452665 
L 783.084639 160.622585 
L 783.521944 158.294435 
L 783.959248 152.898224 
L 784.396552 153.143571 
L 784.833856 152.036455 
L 785.27116 147.186117 
L 785.708464 151.720456 
L 786.145768 149.118658 
L 787.45768 134.697544 
L 787.894984 131.734749 
L 788.332288 132.57972 
L 788.769592 132.213837 
L 789.206897 130.607068 
L 790.518809 128.421647 
L 790.956113 129.716998 
L 791.830721 119.201891 
L 792.268025 120.187351 
L 792.705329 122.764513 
L 793.142633 122.402906 
L 794.017241 128.934941 
L 794.454545 130.048166 
L 794.89185 130.20362 
L 795.329154 129.575593 
L 795.766458 133.546448 
L 796.203762 135.431956 
L 796.641066 135.469114 
L 797.07837 137.119252 
L 797.515674 140.314159 
L 797.952978 145.949506 
L 798.390282 147.188458 
L 799.702194 157.91888 
L 800.576803 169.623768 
L 801.014107 178.261716 
L 801.451411 180.072296 
L 801.888715 183.170897 
L 802.326019 183.977183 
L 802.763323 188.986437 
L 803.200627 190.259595 
L 803.637931 190.300724 
L 804.075235 195.473475 
L 804.512539 195.735212 
L 804.949843 195.257753 
L 805.824451 189.592882 
L 806.261755 188.289081 
L 806.69906 189.56061 
L 807.136364 187.383639 
L 807.573668 190.614992 
L 808.010972 190.92926 
L 808.448276 188.627681 
L 808.88558 190.778285 
L 809.322884 189.625968 
L 809.760188 190.889862 
L 810.197492 189.025428 
L 810.634796 189.389886 
L 811.0721 187.323065 
L 811.509404 188.158264 
L 811.946708 187.561388 
L 812.384013 186.5405 
L 812.821317 187.268397 
L 813.258621 190.201058 
L 813.695925 190.82542 
L 814.133229 190.521231 
L 814.570533 192.962587 
L 815.007837 193.392402 
L 815.445141 192.56148 
L 815.882445 192.974803 
L 816.319749 191.14712 
L 817.631661 180.620204 
L 818.068966 180.55566 
L 818.50627 178.362807 
L 819.380878 176.45816 
L 819.818182 171.269426 
L 820.255486 171.355858 
L 820.69279 169.125541 
L 821.130094 167.489452 
L 821.567398 166.818158 
L 822.004702 166.475691 
L 822.442006 162.854938 
L 822.87931 161.197573 
L 823.316614 161.114297 
L 823.753918 163.78237 
L 824.191223 162.353249 
L 824.628527 162.10047 
L 825.065831 157.252168 
L 825.503135 157.243311 
L 825.940439 151.579356 
L 826.377743 151.204922 
L 826.815047 148.461718 
L 827.252351 147.987007 
L 827.689655 139.523042 
L 828.126959 139.734081 
L 828.564263 134.65499 
L 829.001567 132.93532 
L 829.438871 132.342415 
L 829.876176 133.604782 
L 830.31348 132.689159 
L 830.750784 123.55278 
L 831.188088 120.592428 
L 831.625392 119.401732 
L 832.062696 123.885882 
L 832.5 122.270256 
L 832.937304 122.297845 
L 833.374608 122.485062 
L 833.811912 120.339446 
L 834.249216 117.601739 
L 834.68652 114.050009 
L 835.123824 113.569597 
L 835.561129 112.704978 
L 835.998433 115.239383 
L 836.435737 113.69675 
L 836.873041 114.497233 
L 837.310345 113.719249 
L 837.747649 114.235089 
L 838.184953 114.312052 
L 838.622257 116.799729 
L 839.059561 122.489236 
L 839.496865 123.853712 
L 839.934169 121.994368 
L 840.371473 119.329654 
L 840.808777 120.083104 
L 841.246082 121.513243 
L 841.683386 123.429496 
L 842.12069 119.791335 
L 842.557994 125.176855 
L 843.432602 132.063778 
L 844.30721 138.6628 
L 844.744514 140.533444 
L 845.181818 144.91966 
L 845.619122 146.88264 
L 846.056426 151.007932 
L 846.49373 150.369521 
L 846.931034 151.324134 
L 847.368339 151.616311 
L 847.805643 154.466918 
L 848.242947 151.533545 
L 848.680251 149.915069 
L 849.117555 150.132216 
L 849.554859 151.575895 
L 849.992163 152.134187 
L 850.866771 144.808693 
L 851.304075 145.615183 
L 851.741379 147.724761 
L 852.178683 146.315186 
L 852.615987 146.279249 
L 853.490596 148.028238 
L 854.365204 151.085405 
L 854.802508 153.910255 
L 855.239812 151.033994 
L 855.677116 151.831321 
L 856.11442 152.117288 
L 856.551724 151.459126 
L 856.989028 153.640475 
L 857.426332 153.476571 
L 857.863636 156.237286 
L 858.738245 158.01651 
L 859.175549 162.453322 
L 859.612853 162.670877 
L 860.050157 165.985302 
L 860.924765 166.738853 
L 861.799373 171.824053 
L 862.236677 173.39346 
L 862.673981 172.7636 
L 863.111285 173.073389 
L 863.548589 173.06158 
L 863.985893 173.55207 
L 864.423197 173.586684 
L 864.860502 181.181041 
L 865.297806 182.409507 
L 865.73511 186.424851 
L 866.172414 178.053731 
L 866.609718 177.078553 
L 867.047022 178.92456 
L 867.484326 179.787856 
L 867.92163 184.88059 
L 868.358934 185.354791 
L 868.796238 188.311987 
L 869.233542 189.856249 
L 869.670846 194.738961 
L 870.10815 195.280048 
L 870.545455 198.469865 
L 870.982759 199.533714 
L 871.420063 200.262833 
L 871.857367 201.56867 
L 872.294671 204.147054 
L 872.731975 201.596564 
L 873.169279 203.338121 
L 874.481191 211.862456 
L 874.918495 213.747963 
L 875.355799 214.114457 
L 875.793103 217.262127 
L 876.230408 217.102601 
L 876.667712 218.030237 
L 877.105016 218.406605 
L 878.854232 231.161192 
L 880.166144 235.554737 
L 880.603448 239.187299 
L 881.478056 244.040895 
L 881.915361 245.87092 
L 882.352665 246.190685 
L 882.789969 248.960867 
L 883.227273 249.210592 
L 883.664577 250.37706 
L 884.101881 252.237218 
L 884.539185 251.418105 
L 884.976489 253.689449 
L 885.413793 253.645062 
L 885.851097 254.776611 
L 886.725705 250.781831 
L 887.163009 251.291257 
L 887.600313 251.524795 
L 888.037618 253.978368 
L 888.474922 252.979469 
L 888.912226 253.659111 
L 889.786834 256.933833 
L 890.224138 258.60596 
L 890.661442 258.647088 
L 891.098746 257.550967 
L 891.53605 259.271451 
L 891.973354 259.669504 
L 892.410658 259.641202 
L 893.285266 263.292496 
L 893.722571 264.865161 
L 894.159875 265.754926 
L 894.597179 265.516501 
L 895.034483 268.340029 
L 895.471787 268.76679 
L 895.909091 268.153626 
L 896.346395 266.913554 
L 896.783699 266.616491 
L 897.221003 263.745319 
L 897.658307 267.183843 
L 898.095611 265.946317 
L 898.532915 268.455169 
L 898.970219 268.28139 
L 899.407524 267.667513 
L 899.844828 268.005196 
L 900.282132 269.807224 
L 900.719436 270.223093 
L 901.15674 270.889093 
L 901.594044 272.468273 
L 902.031348 273.212866 
L 902.468652 272.387543 
L 902.905956 275.201704 
L 903.34326 275.495204 
L 903.780564 277.639701 
L 904.217868 276.735072 
L 904.655172 276.774063 
L 905.092476 277.778968 
L 905.529781 278.104129 
L 905.967085 277.475695 
L 906.404389 276.583588 
L 906.841693 276.133209 
L 907.278997 274.699913 
L 907.716301 274.890795 
L 908.153605 272.244508 
L 909.028213 269.960846 
L 909.465517 269.804781 
L 909.902821 267.175902 
L 910.340125 266.454725 
L 911.214734 266.801265 
L 911.652038 262.614687 
L 912.089342 264.205472 
L 912.526646 263.418326 
L 912.96395 264.514447 
L 913.401254 261.993073 
L 913.838558 261.222113 
L 914.275862 261.206639 
L 914.713166 259.969825 
L 915.15047 258.006437 
L 915.587774 255.283187 
L 916.025078 257.136422 
L 916.462382 254.079459 
L 916.899687 255.162651 
L 917.336991 256.599815 
L 917.774295 256.77787 
L 918.211599 256.70172 
L 919.086207 257.183659 
L 919.523511 254.749633 
L 919.960815 254.75116 
L 920.398119 254.587154 
L 920.835423 253.984781 
L 921.272727 254.745052 
L 921.710031 256.114313 
L 922.147335 258.214524 
L 922.584639 257.154849 
L 923.021944 257.075646 
L 923.459248 255.515503 
L 923.896552 256.083975 
L 924.333856 257.472884 
L 924.77116 257.961949 
L 925.645768 262.176116 
L 926.083072 261.537297 
L 926.520376 264.073636 
L 926.95768 268.850473 
L 927.394984 269.381379 
L 927.832288 266.647439 
L 928.269592 265.57911 
L 928.706897 266.500231 
L 929.144201 268.744088 
L 929.581505 268.464127 
L 930.018809 268.532641 
L 930.456113 267.418501 
L 930.893417 270.029462 
L 931.330721 266.463378 
L 931.768025 267.16389 
L 932.205329 265.66656 
L 932.642633 261.851871 
L 933.079937 261.646635 
L 933.517241 263.209628 
L 933.954545 262.006715 
L 933.954545 262.006715 
" style="fill:none;stroke:#ff0000;stroke-linecap:square;stroke-width:1.5;"/>
   </g>
   <g id="line2d_28">
    <path clip-path="url(#p85766884f3)" d="M 173.045455 433.670717 
L 173.482759 430.122194 
L 173.920063 431.425435 
L 174.794671 436.809123 
L 175.231975 435.166876 
L 175.669279 429.92556 
L 176.106583 429.023273 
L 176.981191 424.272601 
L 177.418495 423.665952 
L 178.293103 427.654267 
L 178.730408 433.36332 
L 179.167712 435.065887 
L 179.605016 439.087542 
L 180.04232 438.770118 
L 180.916928 443.628601 
L 181.354232 444.444049 
L 182.22884 441.717236 
L 183.978056 456.534672 
L 184.415361 458.317561 
L 184.852665 459.329389 
L 185.727273 453.955728 
L 186.164577 453.948907 
L 186.601881 460.209177 
L 187.039185 461.694799 
L 187.476489 462.220361 
L 187.913793 459.525666 
L 188.351097 461.206752 
L 188.788401 457.919712 
L 190.100313 444.469348 
L 190.974922 432.075096 
L 191.412226 427.323099 
L 191.84953 420.819162 
L 192.286834 423.044491 
L 192.724138 421.907546 
L 193.161442 424.265525 
L 194.03605 420.52383 
L 194.473354 412.724745 
L 195.347962 402.839854 
L 197.097179 396.348999 
L 197.971787 405.640934 
L 198.409091 408.895905 
L 198.846395 410.829922 
L 199.283699 409.116514 
L 199.721003 408.640836 
L 200.158307 410.0526 
L 200.595611 410.171507 
L 201.032915 405.746911 
L 201.470219 397.680337 
L 201.907524 395.30439 
L 202.344828 395.83998 
L 202.782132 398.421927 
L 203.219436 398.846296 
L 203.65674 396.270457 
L 204.094044 391.947716 
L 204.531348 383.674379 
L 204.968652 378.657031 
L 205.405956 370.479033 
L 205.84326 367.126228 
L 206.280564 354.564458 
L 206.717868 353.001159 
L 207.155172 348.316048 
L 207.592476 346.934978 
L 208.029781 344.354355 
L 208.467085 346.202806 
L 208.904389 347.204453 
L 209.341693 350.22721 
L 209.778997 351.033496 
L 210.216301 355.391715 
L 210.653605 361.421959 
L 211.090909 363.395273 
L 211.965517 380.836803 
L 212.840125 393.849513 
L 213.277429 398.398308 
L 213.714734 398.571833 
L 214.152038 400.020195 
L 214.589342 393.10548 
L 215.46395 376.435419 
L 215.901254 368.865087 
L 216.338558 366.207856 
L 217.213166 364.223701 
L 218.087774 363.514536 
L 218.525078 363.737537 
L 218.962382 364.785912 
L 219.399687 369.350589 
L 219.836991 371.969237 
L 220.274295 377.940536 
L 220.711599 379.090614 
L 221.148903 386.517707 
L 222.023511 397.105859 
L 222.460815 399.920376 
L 222.898119 405.926391 
L 223.772727 413.874975 
L 224.210031 415.583446 
L 224.647335 416.373443 
L 225.084639 414.561488 
L 225.959248 406.817174 
L 226.833856 391.005421 
L 227.27116 384.761185 
L 227.708464 380.796743 
L 228.145768 378.290538 
L 229.020376 370.341242 
L 229.45768 369.931329 
L 229.894984 372.345605 
L 230.332288 376.830061 
L 230.769592 386.174069 
L 231.206897 389.564897 
L 232.956113 419.30137 
L 233.830721 424.389319 
L 234.268025 412.287243 
L 234.705329 406.193575 
L 235.579937 398.592804 
L 236.017241 395.329943 
L 236.454545 395.775131 
L 236.89185 395.245598 
L 237.329154 394.471635 
L 238.203762 384.651848 
L 238.641066 383.453108 
L 239.07837 380.096842 
L 239.952978 375.590295 
L 240.827586 365.898169 
L 241.702194 351.678016 
L 242.139498 345.837941 
L 243.451411 335.980791 
L 243.888715 332.889622 
L 244.763323 331.782506 
L 245.200627 331.011444 
L 245.637931 333.43753 
L 246.075235 336.778933 
L 246.512539 338.071433 
L 247.387147 344.773582 
L 247.824451 347.364896 
L 248.261755 350.786316 
L 248.69906 361.068293 
L 249.136364 361.095526 
L 249.573668 362.873834 
L 250.010972 362.15739 
L 250.88558 354.588992 
L 251.322884 348.049017 
L 251.760188 339.38684 
L 253.0721 320.304844 
L 253.509404 322.033777 
L 253.946708 321.708005 
L 254.384013 321.031316 
L 255.695925 334.22091 
L 256.570533 341.36 
L 257.007837 340.994016 
L 257.445141 339.46136 
L 257.882445 341.233255 
L 258.319749 343.700164 
L 258.757053 342.210367 
L 259.194357 340.127259 
L 259.631661 337.493086 
L 260.068966 337.300168 
L 260.50627 337.50571 
L 260.943574 335.899348 
L 261.380878 334.831834 
L 261.818182 335.922661 
L 262.255486 332.633178 
L 262.69279 334.990241 
L 263.130094 336.145204 
L 263.567398 340.04663 
L 264.004702 341.785133 
L 264.87931 350.327181 
L 265.316614 353.309726 
L 265.753918 352.382905 
L 266.191223 355.039271 
L 267.065831 365.011662 
L 267.503135 367.859928 
L 267.940439 367.935924 
L 268.377743 369.099948 
L 268.815047 368.529287 
L 269.252351 369.550583 
L 269.689655 368.848239 
L 270.126959 371.453092 
L 270.564263 371.454008 
L 271.001567 371.273713 
L 271.438871 373.614589 
L 272.31348 376.069383 
L 272.750784 376.205902 
L 273.188088 376.692626 
L 273.625392 378.357423 
L 274.062696 379.332194 
L 274.5 378.972318 
L 274.937304 379.694157 
L 275.811912 382.804822 
L 276.249216 382.694823 
L 276.68652 380.352471 
L 277.123824 378.810144 
L 277.561129 379.303485 
L 278.435737 371.946229 
L 278.873041 367.385522 
L 279.310345 365.676848 
L 280.184953 364.306874 
L 281.059561 360.098307 
L 281.496865 360.893649 
L 281.934169 360.333575 
L 282.371473 360.058909 
L 283.683386 356.051811 
L 284.557994 358.060959 
L 284.995298 359.347046 
L 286.30721 365.826856 
L 286.744514 366.892436 
L 288.056426 371.295194 
L 288.49373 369.961768 
L 289.368339 368.24271 
L 289.805643 368.860557 
L 290.242947 364.482181 
L 290.680251 365.414092 
L 291.117555 364.979696 
L 291.554859 365.049737 
L 291.992163 364.356402 
L 292.429467 367.056747 
L 292.866771 366.832524 
L 293.304075 367.312681 
L 293.741379 366.196963 
L 294.178683 363.953361 
L 295.490596 366.935753 
L 295.9279 368.445045 
L 296.365204 368.745722 
L 296.802508 368.596376 
L 297.239812 366.110735 
L 297.677116 364.432093 
L 298.11442 365.046072 
L 298.551724 367.246407 
L 299.863636 369.570587 
L 300.30094 371.254065 
L 300.738245 372.267216 
L 301.175549 372.332981 
L 301.612853 374.069041 
L 302.050157 374.798414 
L 302.487461 372.161798 
L 303.362069 368.618264 
L 303.799373 365.163095 
L 304.236677 364.190818 
L 304.673981 361.865417 
L 305.111285 360.874662 
L 305.985893 359.3614 
L 306.423197 357.74832 
L 306.860502 357.613837 
L 307.297806 358.039987 
L 308.172414 360.888609 
L 308.609718 361.291345 
L 309.047022 359.144202 
L 309.484326 360.434666 
L 309.92163 358.988748 
L 310.358934 358.868772 
L 311.233542 354.867629 
L 311.670846 352.028424 
L 312.10815 350.310384 
L 313.420063 342.953942 
L 313.857367 343.038948 
L 314.294671 344.656814 
L 314.731975 345.730741 
L 315.169279 347.57848 
L 315.606583 348.567911 
L 316.043887 351.599423 
L 316.481191 352.24211 
L 317.355799 355.488632 
L 317.793103 360.343043 
L 318.230408 360.246431 
L 318.667712 364.206241 
L 319.105016 366.850492 
L 319.54232 371.096778 
L 319.979624 371.978399 
L 320.416928 371.369867 
L 320.854232 369.925373 
L 321.291536 367.035012 
L 322.166144 358.769513 
L 322.603448 358.833191 
L 323.040752 357.898124 
L 323.478056 356.567447 
L 323.915361 355.692036 
L 324.352665 354.374696 
L 325.227273 355.494639 
L 325.664577 356.719185 
L 326.101881 357.514578 
L 326.539185 359.536961 
L 326.976489 360.064813 
L 327.413793 361.942278 
L 327.851097 358.369984 
L 328.288401 358.107483 
L 328.725705 360.368799 
L 329.163009 359.938577 
L 329.600313 361.213007 
L 330.037618 362.888697 
L 330.474922 359.385528 
L 330.912226 358.962991 
L 331.34953 357.425042 
L 331.786834 352.237427 
L 332.224138 355.026443 
L 332.661442 355.987013 
L 333.098746 354.486069 
L 333.53605 351.908499 
L 333.973354 348.531058 
L 334.410658 341.6083 
L 334.847962 337.150313 
L 335.285266 334.211238 
L 336.159875 326.253849 
L 337.034483 320.105919 
L 337.471787 321.744655 
L 338.346395 321.289999 
L 339.658307 327.749957 
L 340.095611 331.6298 
L 340.532915 333.821024 
L 340.970219 333.225574 
L 341.407524 333.726245 
L 342.282132 338.198688 
L 342.719436 340.589142 
L 343.15674 341.830537 
L 343.594044 342.35727 
L 344.468652 344.038356 
L 344.905956 346.001845 
L 345.34326 345.093348 
L 345.780564 346.683828 
L 346.217868 343.923317 
L 346.655172 343.822023 
L 347.529781 337.211701 
L 348.404389 324.322937 
L 349.278997 316.616494 
L 349.716301 311.500549 
L 350.153605 304.787812 
L 351.465517 292.728953 
L 352.340125 289.132124 
L 352.777429 288.16397 
L 353.652038 279.684938 
L 354.089342 274.002863 
L 354.96395 269.681802 
L 355.401254 268.72617 
L 355.838558 268.391541 
L 356.713166 275.814359 
L 358.462382 291.460885 
L 358.899687 298.11875 
L 359.336991 302.311538 
L 359.774295 301.252677 
L 360.211599 305.230252 
L 360.648903 307.011512 
L 361.523511 302.336989 
L 361.960815 302.694523 
L 362.398119 302.15588 
L 363.272727 309.065708 
L 363.710031 309.152649 
L 364.147335 310.253453 
L 364.584639 315.704739 
L 365.021944 317.968957 
L 365.459248 323.950233 
L 366.333856 333.124992 
L 367.645768 354.449929 
L 368.520376 372.582706 
L 369.394984 384.841712 
L 370.706897 410.907344 
L 371.581505 419.470161 
L 372.018809 421.605444 
L 372.456113 416.803716 
L 373.330721 411.430768 
L 373.768025 415.531933 
L 374.205329 414.490022 
L 375.079937 418.611497 
L 376.39185 438.238855 
L 376.829154 443.064659 
L 377.266458 460.021654 
L 377.703762 456.582316 
L 379.452978 419.860374 
L 379.890282 416.390088 
L 380.327586 425.926148 
L 380.76489 438.954943 
L 381.202194 444.178138 
L 382.076803 486.116911 
L 382.514107 494.574259 
L 382.951411 495.916033 
L 383.826019 500.895102 
L 384.263323 494.834215 
L 384.700627 491.162968 
L 385.137931 489.799968 
L 385.575235 490.389514 
L 386.012539 490.567721 
L 386.449843 497.048905 
L 387.324451 500.987082 
L 387.761755 498.31341 
L 388.19906 502.949146 
L 388.636364 500.272012 
L 389.073668 495.856987 
L 389.510972 499.108599 
L 390.38558 516.082391 
L 390.822884 520.694764 
L 391.697492 536.98754 
L 392.134796 538.985846 
L 392.5721 536.634994 
L 393.009404 530.215248 
L 393.446708 527.763559 
L 393.884013 527.964011 
L 394.321317 531.256904 
L 394.758621 535.743905 
L 395.195925 535.08722 
L 396.945141 525.884414 
L 397.819749 527.606985 
L 398.257053 527.516838 
L 398.694357 528.397695 
L 399.131661 528.936695 
L 399.568966 530.882266 
L 400.00627 535.657372 
L 400.443574 544.242993 
L 400.880878 548.710956 
L 401.318182 557.0778 
L 401.755486 561.823587 
L 402.19279 567.962761 
L 403.067398 555.043354 
L 403.504702 554.980541 
L 403.942006 555.325961 
L 404.37931 558.724375 
L 404.816614 561.041479 
L 405.253918 564.024635 
L 405.691223 563.23815 
L 406.128527 563.298163 
L 406.565831 564.515533 
L 407.440439 537.143147 
L 408.315047 513.327582 
L 408.752351 509.551425 
L 409.189655 503.273747 
L 409.626959 506.568524 
L 410.064263 508.795736 
L 410.501567 513.499274 
L 410.938871 509.358609 
L 411.376176 503.285047 
L 411.81348 509.377545 
L 412.250784 504.703327 
L 412.688088 504.461899 
L 413.125392 503.094929 
L 414.437304 517.991619 
L 414.874608 520.702755 
L 416.18652 532.053722 
L 416.623824 533.526619 
L 417.498433 541.182619 
L 417.935737 540.261956 
L 418.373041 540.565891 
L 418.810345 543.131295 
L 419.684953 542.447021 
L 420.559561 534.396074 
L 420.996865 534.496402 
L 421.434169 537.110112 
L 421.871473 538.130186 
L 422.308777 542.592754 
L 422.746082 544.217745 
L 423.183386 543.796685 
L 423.62069 541.488997 
L 424.057994 542.736144 
L 424.495298 542.25619 
L 424.932602 540.218588 
L 425.369906 539.650421 
L 425.80721 538.814561 
L 426.244514 537.652726 
L 426.681818 540.147834 
L 427.119122 540.125285 
L 427.556426 539.8891 
L 428.431034 546.230202 
L 428.868339 546.848253 
L 429.742947 555.512059 
L 430.180251 555.665986 
L 430.617555 558.033941 
L 431.054859 556.211705 
L 431.929467 562.575356 
L 432.366771 564.272731 
L 432.804075 563.294091 
L 433.241379 563.113898 
L 433.678683 560.461452 
L 434.115987 556.345271 
L 434.553292 555.51949 
L 435.4279 547.095178 
L 435.865204 541.518622 
L 436.302508 537.938744 
L 436.739812 537.045059 
L 437.177116 537.583347 
L 437.61442 539.555744 
L 438.051724 544.206954 
L 438.489028 552.366119 
L 439.363636 556.874091 
L 439.80094 562.588845 
L 440.238245 566.673721 
L 440.675549 572.37066 
L 441.550157 580.897438 
L 441.987461 589.13265 
L 442.424765 592.565371 
L 442.862069 593.647392 
L 443.299373 595.187429 
L 443.736677 594.635398 
L 444.173981 593.656504 
L 444.611285 589.312995 
L 445.048589 590.062627 
L 445.485893 591.214486 
L 445.923197 590.941448 
L 446.360502 589.384563 
L 446.797806 589.741742 
L 447.23511 589.492272 
L 447.672414 590.654209 
L 448.109718 588.708637 
L 448.547022 587.29326 
L 448.984326 587.137907 
L 449.42163 589.227531 
L 449.858934 590.117449 
L 450.296238 591.848774 
L 450.733542 593.077648 
L 451.60815 588.823676 
L 452.045455 588.453823 
L 452.482759 586.07304 
L 453.357367 576.180564 
L 453.794671 573.804872 
L 454.231975 574.216006 
L 454.669279 573.595359 
L 455.106583 571.926389 
L 456.418495 561.824706 
L 456.855799 560.333383 
L 457.293103 562.714828 
L 457.730408 569.213165 
L 458.167712 571.12275 
L 458.605016 573.872978 
L 459.04232 570.872414 
L 459.479624 569.078479 
L 460.791536 559.880254 
L 461.22884 561.864308 
L 461.666144 561.635809 
L 462.103448 560.165814 
L 462.540752 559.417964 
L 463.415361 555.190969 
L 463.852665 552.126574 
L 464.727273 530.293077 
L 465.164577 524.668674 
L 465.601881 523.435321 
L 466.039185 524.955608 
L 466.913793 531.782517 
L 467.351097 532.451877 
L 467.788401 533.825973 
L 468.663009 543.394458 
L 469.100313 545.44555 
L 469.974922 547.437493 
L 470.412226 543.534337 
L 470.84953 542.258175 
L 471.724138 538.072157 
L 472.161442 537.899498 
L 472.598746 536.767542 
L 473.03605 538.322696 
L 473.473354 539.259495 
L 473.910658 541.11329 
L 474.347962 540.915842 
L 474.785266 541.017849 
L 475.222571 538.745284 
L 476.097179 532.289449 
L 476.971787 527.225272 
L 477.409091 527.427454 
L 477.846395 527.067578 
L 478.721003 528.422382 
L 479.158307 527.301726 
L 479.595611 527.569572 
L 480.032915 522.042646 
L 480.907524 503.16721 
L 481.344828 496.916866 
L 481.782132 501.590524 
L 482.219436 512.429927 
L 482.65674 526.641071 
L 483.094044 536.211235 
L 483.968652 547.872806 
L 485.280564 562.587115 
L 485.717868 565.070516 
L 486.155172 564.352748 
L 486.592476 566.785197 
L 487.029781 566.300305 
L 487.467085 566.207867 
L 487.904389 563.09878 
L 488.341693 562.297432 
L 488.778997 560.579545 
L 489.216301 560.320403 
L 489.653605 557.684449 
L 490.090909 557.40174 
L 490.528213 556.830214 
L 490.965517 554.308585 
L 491.402821 553.288053 
L 491.840125 553.762561 
L 492.277429 553.194699 
L 492.714734 553.233436 
L 493.152038 552.807692 
L 494.901254 538.882414 
L 495.338558 530.828667 
L 496.65047 516.347336 
L 497.525078 512.964142 
L 497.962382 512.598158 
L 498.399687 507.836846 
L 498.836991 509.351534 
L 499.711599 499.632277 
L 500.148903 499.136493 
L 500.586207 498.289486 
L 501.023511 493.490558 
L 501.460815 492.511919 
L 501.898119 490.905506 
L 502.335423 490.358158 
L 502.772727 489.476487 
L 503.647335 489.311564 
L 504.084639 488.650502 
L 504.521944 489.029212 
L 504.959248 486.828113 
L 505.396552 488.894627 
L 505.833856 487.739969 
L 506.27116 486.090697 
L 506.708464 485.673709 
L 507.145768 483.0798 
L 507.583072 481.550911 
L 508.020376 480.658143 
L 508.45768 477.451273 
L 508.894984 470.927688 
L 509.332288 467.109843 
L 509.769592 464.673883 
L 510.206897 465.329092 
L 510.644201 464.872502 
L 512.393417 456.72026 
L 512.830721 456.230584 
L 513.268025 456.460559 
L 513.705329 459.944029 
L 514.142633 455.772823 
L 514.579937 457.491831 
L 515.017241 457.600506 
L 515.454545 459.284086 
L 515.89185 460.177821 
L 516.329154 461.680139 
L 516.766458 464.064282 
L 517.203762 463.798676 
L 517.641066 459.741897 
L 518.07837 453.34236 
L 518.952978 446.425761 
L 519.390282 445.243311 
L 519.827586 445.07564 
L 520.26489 442.29711 
L 520.702194 438.212692 
L 521.139498 432.335051 
L 521.576803 429.80024 
L 522.014107 424.785946 
L 522.451411 422.237238 
L 523.326019 410.618171 
L 523.763323 407.238947 
L 524.637931 403.625117 
L 525.075235 403.744991 
L 525.512539 403.285703 
L 525.949843 403.166644 
L 526.387147 401.735436 
L 526.824451 402.723238 
L 527.261755 404.326291 
L 527.69906 407.201484 
L 528.136364 411.669345 
L 528.573668 411.606125 
L 529.88558 438.03652 
L 530.322884 443.144524 
L 531.197492 458.652241 
L 531.634796 466.321322 
L 532.0721 470.583693 
L 532.946708 480.519842 
L 533.384013 483.999495 
L 533.821317 485.706948 
L 534.258621 478.45231 
L 534.695925 475.854176 
L 535.133229 474.846217 
L 535.570533 471.633952 
L 536.007837 471.72471 
L 536.445141 471.047104 
L 537.757053 489.472669 
L 538.194357 493.456556 
L 539.068966 513.762233 
L 539.50627 520.974826 
L 539.943574 525.443299 
L 540.380878 527.760047 
L 540.818182 531.365834 
L 541.69279 519.215555 
L 542.567398 498.822479 
L 543.442006 477.756684 
L 543.87931 475.203242 
L 544.316614 475.930834 
L 544.753918 475.00951 
L 545.191223 476.816018 
L 545.628527 476.45044 
L 546.065831 481.650271 
L 546.940439 488.725429 
L 547.377743 490.590474 
L 547.815047 487.362735 
L 548.252351 480.95149 
L 548.689655 478.190776 
L 549.564263 468.762322 
L 550.001567 465.748421 
L 550.438871 461.790189 
L 550.876176 455.533737 
L 551.31348 453.662075 
L 551.750784 453.308918 
L 552.188088 451.325831 
L 552.625392 448.259502 
L 553.062696 448.676999 
L 553.5 449.626115 
L 553.937304 449.381227 
L 554.374608 450.251903 
L 554.811912 450.094566 
L 555.249216 448.374947 
L 555.68652 448.021637 
L 556.123824 450.357932 
L 556.561129 450.684518 
L 556.998433 450.299955 
L 557.435737 452.63966 
L 558.747649 439.619314 
L 559.184953 439.52143 
L 559.622257 440.671355 
L 560.059561 441.189943 
L 560.496865 442.218314 
L 560.934169 442.063877 
L 562.246082 452.944155 
L 562.683386 454.82559 
L 563.12069 455.112778 
L 563.557994 454.938389 
L 563.995298 453.430319 
L 564.432602 447.851676 
L 565.30721 427.517188 
L 565.744514 421.267811 
L 566.181818 418.184583 
L 566.619122 417.097624 
L 567.49373 411.044728 
L 567.931034 410.819691 
L 568.368339 411.573192 
L 568.805643 415.196846 
L 569.242947 420.330708 
L 570.117555 442.75767 
L 570.554859 452.76839 
L 570.992163 459.60772 
L 572.304075 473.123951 
L 572.741379 471.174817 
L 573.178683 471.420927 
L 573.615987 466.810947 
L 574.053292 457.595721 
L 575.802508 431.748509 
L 576.239812 428.715062 
L 576.677116 427.464912 
L 577.11442 423.820032 
L 577.551724 422.398139 
L 577.989028 422.137368 
L 578.426332 422.052668 
L 578.863636 423.075286 
L 579.30094 426.347463 
L 579.738245 426.422594 
L 580.175549 424.668719 
L 581.487461 416.016162 
L 581.924765 410.919662 
L 582.362069 403.639013 
L 582.799373 400.891432 
L 583.236677 397.350239 
L 583.673981 392.622065 
L 584.111285 393.833835 
L 584.985893 391.815015 
L 585.423197 392.914343 
L 585.860502 392.440854 
L 586.297806 393.595512 
L 586.73511 396.453347 
L 587.609718 404.514577 
L 588.484326 410.889936 
L 588.92163 413.408561 
L 589.358934 416.602145 
L 589.796238 418.08904 
L 590.233542 417.356867 
L 590.670846 418.779117 
L 591.10815 418.840912 
L 591.545455 418.136735 
L 591.982759 416.148406 
L 592.420063 410.851505 
L 592.857367 400.859211 
L 593.731975 389.266002 
L 594.606583 381.288862 
L 595.481191 370.624918 
L 595.918495 368.313769 
L 596.355799 367.285754 
L 597.230408 363.948474 
L 597.667712 365.350974 
L 598.105016 361.308652 
L 598.54232 364.278268 
L 598.979624 364.596862 
L 599.416928 367.070796 
L 599.854232 367.618449 
L 600.291536 371.297026 
L 601.166144 376.340334 
L 601.603448 373.928348 
L 602.040752 373.508713 
L 602.478056 374.665611 
L 603.352665 367.646954 
L 603.789969 364.005433 
L 604.227273 367.018621 
L 604.664577 371.807012 
L 605.101881 373.059351 
L 605.976489 363.728425 
L 606.413793 360.833788 
L 606.851097 355.404542 
L 607.288401 347.671427 
L 607.725705 345.102714 
L 608.163009 343.630632 
L 608.600313 339.581387 
L 610.34953 328.050583 
L 611.224138 328.901968 
L 611.661442 327.722877 
L 612.53605 332.522925 
L 612.973354 332.888502 
L 613.410658 330.865661 
L 613.847962 326.353413 
L 614.722571 312.003154 
L 615.159875 302.807627 
L 615.597179 298.655052 
L 616.034483 297.251381 
L 617.783699 282.68652 
L 618.221003 285.638422 
L 619.095611 299.542781 
L 619.532915 306.667924 
L 619.970219 308.565037 
L 620.407524 312.387158 
L 620.844828 315.110511 
L 621.282132 315.115194 
L 621.719436 314.422724 
L 622.15674 318.517679 
L 622.594044 315.58064 
L 623.468652 325.414171 
L 624.34326 339.948186 
L 624.780564 341.031989 
L 625.217868 343.069998 
L 625.655172 343.427839 
L 626.092476 347.586828 
L 626.529781 347.899263 
L 626.967085 349.069294 
L 627.841693 352.190598 
L 628.278997 352.651463 
L 629.153605 344.388153 
L 629.590909 342.819357 
L 630.028213 343.712991 
L 630.465517 342.160483 
L 630.902821 337.419788 
L 631.340125 330.792464 
L 631.777429 328.46014 
L 632.652038 317.15697 
L 633.089342 313.724656 
L 633.526646 312.565416 
L 633.96395 310.094435 
L 634.838558 313.952493 
L 635.713166 319.417828 
L 636.15047 324.794899 
L 636.587774 336.04503 
L 637.025078 343.945511 
L 638.774295 364.44492 
L 639.211599 354.517017 
L 639.648903 353.445634 
L 640.523511 348.129951 
L 645.333856 273.277918 
L 646.208464 262.112183 
L 646.645768 260.295597 
L 647.083072 259.637843 
L 647.520376 261.958663 
L 647.95768 266.204898 
L 648.832288 288.282673 
L 649.269592 300.296536 
L 649.706897 307.749997 
L 650.581505 317.665785 
L 651.018809 318.723424 
L 651.456113 319.028123 
L 651.893417 318.529794 
L 652.330721 319.125956 
L 652.768025 320.594272 
L 653.205329 323.409248 
L 653.642633 323.661518 
L 654.079937 318.896491 
L 654.517241 317.608571 
L 654.954545 312.743471 
L 656.703762 283.630547 
L 657.141066 281.594573 
L 657.57837 278.767279 
L 658.015674 277.622903 
L 658.452978 278.69398 
L 658.890282 278.016476 
L 659.327586 276.954358 
L 659.76489 275.532974 
L 660.202194 275.391059 
L 660.639498 275.464561 
L 661.076803 275.303101 
L 661.514107 274.097133 
L 661.951411 274.158826 
L 662.388715 273.919893 
L 662.826019 274.226424 
L 663.263323 277.037735 
L 663.700627 278.262841 
L 664.137931 280.119335 
L 664.575235 279.750602 
L 665.449843 275.187655 
L 665.887147 274.406922 
L 666.324451 270.100419 
L 667.19906 264.606884 
L 667.636364 261.042938 
L 668.073668 258.786152 
L 668.510972 255.825495 
L 668.948276 251.597687 
L 669.822884 248.135341 
L 670.260188 247.065078 
L 670.697492 246.929679 
L 671.134796 248.448998 
L 671.5721 247.42302 
L 672.009404 245.256738 
L 672.446708 241.632422 
L 672.884013 239.302439 
L 673.321317 240.032168 
L 673.758621 238.916297 
L 674.195925 240.422179 
L 674.633229 240.956546 
L 675.070533 240.21399 
L 676.382445 226.859779 
L 676.819749 219.997289 
L 677.257053 210.987249 
L 678.568966 192.958006 
L 679.00627 189.56 
L 679.443574 185.157496 
L 679.880878 182.561602 
L 680.318182 184.018719 
L 680.755486 179.655511 
L 681.19279 177.631754 
L 681.630094 176.942543 
L 682.067398 172.68684 
L 682.504702 173.430517 
L 682.942006 172.731837 
L 683.37931 172.622398 
L 683.816614 170.104995 
L 684.691223 160.953345 
L 685.128527 157.906053 
L 685.565831 156.670766 
L 686.003135 154.88747 
L 686.440439 155.376128 
L 688.189655 144.223933 
L 688.626959 139.269449 
L 689.064263 132.772638 
L 689.501567 130.952183 
L 689.938871 127.728872 
L 690.376176 128.782745 
L 691.250784 135.694508 
L 691.688088 136.087572 
L 692.125392 137.222277 
L 692.562696 140.835191 
L 693 142.064064 
L 693.437304 142.126775 
L 693.874608 140.486615 
L 694.311912 140.221823 
L 696.061129 159.131363 
L 696.498433 160.521697 
L 696.935737 160.946524 
L 697.373041 157.083173 
L 697.810345 158.231011 
L 698.247649 162.062599 
L 699.559561 189.941153 
L 699.996865 195.785809 
L 700.434169 192.637324 
L 700.871473 185.040625 
L 701.308777 175.086355 
L 702.183386 160.143904 
L 702.62069 158.58427 
L 703.495298 158.275906 
L 703.932602 159.416719 
L 704.369906 161.243893 
L 704.80721 166.101867 
L 705.244514 165.411638 
L 705.681818 167.087124 
L 706.119122 170.200283 
L 707.431034 194.219762 
L 707.868339 196.644422 
L 708.305643 197.889685 
L 708.742947 195.761478 
L 709.180251 197.559841 
L 710.054859 199.689372 
L 710.492163 198.33243 
L 710.929467 201.262444 
L 711.366771 208.817098 
L 711.804075 214.212392 
L 712.241379 216.471519 
L 712.678683 213.065165 
L 713.115987 208.137761 
L 713.990596 192.330691 
L 715.302508 176.636419 
L 716.177116 170.092778 
L 716.61442 169.55668 
L 717.489028 163.437255 
L 718.363636 156.730118 
L 718.80094 152.800696 
L 719.238245 146.360285 
L 719.675549 144.316167 
L 720.112853 145.951746 
L 720.550157 146.726066 
L 720.987461 144.167228 
L 721.424765 143.541847 
L 721.862069 143.304136 
L 722.299373 142.801429 
L 723.611285 156.11899 
L 724.048589 162.705083 
L 724.485893 172.307926 
L 724.923197 178.574254 
L 725.360502 182.881673 
L 725.797806 179.876426 
L 726.23511 172.611098 
L 726.672414 169.395728 
L 727.109718 167.478356 
L 727.984326 174.740527 
L 728.42163 176.693836 
L 728.858934 175.793687 
L 729.296238 181.113443 
L 729.733542 181.172286 
L 730.170846 177.36625 
L 730.60815 177.097692 
L 731.045455 181.407656 
L 731.482759 183.96629 
L 731.920063 188.966993 
L 732.357367 190.855758 
L 732.794671 190.268147 
L 733.669279 188.692428 
L 734.981191 239.951845 
L 735.418495 241.543954 
L 735.855799 241.00755 
L 736.730408 235.757021 
L 737.167712 231.156712 
L 737.605016 224.784102 
L 738.479624 219.155983 
L 739.354232 205.010248 
L 740.22884 193.718887 
L 741.540752 168.74907 
L 741.978056 158.250252 
L 742.852665 145.050477 
L 743.289969 140.272521 
L 743.727273 137.930119 
L 744.164577 134.748751 
L 744.601881 138.225248 
L 745.476489 146.602985 
L 745.913793 149.450945 
L 746.351097 158.975909 
L 746.788401 160.696291 
L 747.225705 157.207578 
L 747.663009 155.093521 
L 748.100313 158.198535 
L 748.537618 158.917372 
L 749.412226 142.288439 
L 749.84953 139.013718 
L 750.286834 134.692352 
L 750.724138 134.088859 
L 751.161442 134.421859 
L 751.598746 132.658923 
L 752.03605 126.397177 
L 752.473354 122.435178 
L 752.910658 117.166426 
L 753.347962 115.12689 
L 753.785266 111.6 
L 754.222571 111.733465 
L 754.659875 113.736352 
L 755.097179 119.02689 
L 756.846395 128.432642 
L 757.721003 131.075264 
L 758.595611 134.168775 
L 759.032915 134.3903 
L 759.470219 129.048554 
L 759.907524 127.720524 
L 760.344828 117.527015 
L 760.782132 112.215709 
L 761.219436 113.552494 
L 761.65674 114.101929 
L 762.531348 119.506691 
L 763.405956 129.790093 
L 763.84326 132.020206 
L 764.717868 133.450244 
L 765.155172 132.497462 
L 765.592476 134.414835 
L 766.029781 129.853619 
L 766.467085 122.819793 
L 766.904389 124.200761 
L 767.341693 127.530355 
L 767.778997 127.649771 
L 768.216301 127.150932 
L 769.090909 131.147239 
L 769.528213 132.950082 
L 770.402821 133.312402 
L 770.840125 132.605069 
L 771.277429 131.581839 
L 771.714734 131.544579 
L 772.152038 133.111543 
L 773.026646 141.378517 
L 773.46395 143.353103 
L 773.901254 144.738143 
L 774.338558 145.661707 
L 774.775862 147.261757 
L 775.213166 148.2011 
L 776.525078 159.175852 
L 776.962382 159.196314 
L 777.836991 162.54067 
L 778.274295 163.289029 
L 778.711599 163.706832 
L 779.148903 166.067865 
L 779.586207 167.67219 
L 780.023511 166.71157 
L 780.898119 163.680974 
L 781.335423 163.42229 
L 781.772727 160.409306 
L 782.210031 159.694644 
L 782.647335 161.83069 
L 783.084639 165.916991 
L 783.521944 168.317015 
L 783.959248 169.694624 
L 784.396552 168.965302 
L 784.833856 169.184485 
L 785.27116 168.524593 
L 785.708464 166.413387 
L 786.145768 164.881138 
L 786.583072 168.392859 
L 787.894984 182.136367 
L 788.332288 182.529126 
L 788.769592 182.545618 
L 790.081505 191.027195 
L 790.518809 193.472115 
L 791.393417 200.695397 
L 791.830721 201.48855 
L 792.705329 204.812647 
L 793.142633 205.40036 
L 793.579937 201.966519 
L 794.017241 203.629687 
L 794.454545 201.698673 
L 795.329154 194.212635 
L 795.766458 193.685903 
L 796.203762 194.177513 
L 796.641066 194.901949 
L 797.07837 197.729548 
L 797.952978 208.332308 
L 798.390282 215.215057 
L 798.827586 216.930654 
L 799.702194 204.297723 
L 802.326019 159.948339 
L 802.763323 152.68688 
L 804.512539 133.415427 
L 804.949843 129.694296 
L 805.824451 126.565357 
L 806.261755 122.42683 
L 806.69906 122.265166 
L 807.136364 122.928723 
L 807.573668 120.984678 
L 808.010972 125.697073 
L 808.448276 128.200529 
L 808.88558 127.038032 
L 810.197492 120.274902 
L 810.634796 119.701849 
L 811.0721 120.328553 
L 811.509404 122.018394 
L 811.946708 124.419537 
L 812.384013 128.782643 
L 813.258621 139.680125 
L 813.695925 142.185414 
L 814.133229 141.902909 
L 814.570533 142.198241 
L 815.445141 145.420636 
L 816.319749 153.995567 
L 816.757053 156.214991 
L 817.194357 157.343995 
L 817.631661 158.164838 
L 818.50627 163.072594 
L 818.943574 164.06233 
L 819.380878 165.450221 
L 819.818182 167.727368 
L 821.130094 182.183502 
L 822.004702 197.161687 
L 822.87931 216.859188 
L 823.316614 231.69729 
L 824.191223 248.077007 
L 824.628527 252.053055 
L 825.503135 261.563359 
L 825.940439 261.395281 
L 826.377743 261.714334 
L 826.815047 260.655473 
L 827.252351 256.99634 
L 827.689655 249.204789 
L 828.564263 226.092179 
L 829.876176 204.330504 
L 830.750784 193.476289 
L 831.188088 191.344416 
L 831.625392 187.162826 
L 832.5 184.993897 
L 832.937304 184.600731 
L 833.374608 183.40189 
L 834.249216 186.009695 
L 835.123824 184.763413 
L 835.998433 189.487312 
L 836.435737 189.85014 
L 836.873041 191.417206 
L 837.310345 194.197059 
L 837.747649 195.524988 
L 838.184953 197.924808 
L 838.622257 198.248951 
L 839.059561 192.888575 
L 840.371473 170.64089 
L 841.246082 159.952309 
L 841.683386 157.02596 
L 842.12069 149.788017 
L 843.432602 140.881104 
L 843.869906 139.881798 
L 844.30721 139.669639 
L 845.181818 132.324396 
L 845.619122 130.841319 
L 846.931034 136.712342 
L 847.368339 136.347783 
L 847.805643 137.207108 
L 848.242947 134.491086 
L 848.680251 134.212449 
L 849.117555 133.598063 
L 849.554859 133.238187 
L 849.992163 129.208794 
L 850.429467 126.805003 
L 850.866771 123.151368 
L 851.304075 120.450921 
L 851.741379 118.533142 
L 852.615987 123.259687 
L 853.053292 120.836757 
L 853.490596 116.17669 
L 853.9279 113.395004 
L 854.365204 114.828605 
L 855.239812 119.599842 
L 856.11442 125.421083 
L 856.551724 127.60121 
L 857.426332 129.279751 
L 857.863636 132.289783 
L 858.30094 136.332003 
L 860.487461 150.35649 
L 860.924765 154.868738 
L 861.799373 172.22007 
L 862.236677 177.043125 
L 863.111285 173.937805 
L 863.548589 173.877231 
L 863.985893 175.142041 
L 864.423197 172.115314 
L 864.860502 172.48985 
L 865.73511 179.237709 
L 866.609718 190.275069 
L 867.484326 202.148442 
L 867.92163 206.168062 
L 868.358934 212.603689 
L 868.796238 216.446883 
L 869.233542 216.870997 
L 869.670846 217.891377 
L 870.10815 219.648917 
L 870.545455 217.42369 
L 871.420063 207.20137 
L 871.857367 203.138382 
L 872.294671 200.993173 
L 872.731975 196.40162 
L 873.169279 189.417067 
L 874.043887 184.313441 
L 874.481191 182.270646 
L 874.918495 181.059385 
L 875.793103 181.339651 
L 876.667712 184.7175 
L 877.105016 188.265361 
L 877.54232 187.380788 
L 878.416928 186.554142 
L 878.854232 185.687283 
L 879.291536 186.373644 
L 879.72884 186.670809 
L 881.040752 193.891241 
L 881.478056 199.605079 
L 881.915361 203.459166 
L 882.352665 208.362748 
L 882.789969 211.404746 
L 883.227273 212.365468 
L 884.976489 221.59347 
L 885.413793 222.334907 
L 885.851097 225.026395 
L 886.288401 225.981416 
L 886.725705 225.903333 
L 887.163009 231.119045 
L 887.600313 234.131317 
L 888.037618 239.706498 
L 888.912226 229.279553 
L 889.34953 226.067644 
L 889.786834 223.721882 
L 891.098746 229.132548 
L 891.53605 231.30331 
L 891.973354 237.337219 
L 892.847962 244.372572 
L 893.285266 249.59256 
L 893.722571 252.947808 
L 894.159875 255.398429 
L 894.597179 258.705931 
L 895.034483 257.274367 
L 895.471787 256.236681 
L 895.909091 256.555937 
L 897.221003 262.426044 
L 897.658307 262.454549 
L 898.095611 265.271052 
L 898.532915 266.878839 
L 898.970219 266.995099 
L 899.407524 266.309654 
L 899.844828 266.927196 
L 901.594044 277.921188 
L 902.905956 282.762262 
L 903.780564 290.03268 
L 904.217868 292.487474 
L 904.655172 293.925249 
L 905.092476 294.70588 
L 905.529781 293.801048 
L 905.967085 290.289226 
L 906.404389 288.916809 
L 907.278997 282.450132 
L 907.716301 279.279759 
L 908.153605 276.995385 
L 908.590909 272.875895 
L 909.028213 270.010119 
L 909.902821 262.559102 
L 910.340125 262.267536 
L 911.214734 259.594067 
L 912.089342 258.017432 
L 912.526646 258.589468 
L 912.96395 257.715075 
L 913.401254 256.163993 
L 913.838558 256.288193 
L 914.275862 256.98952 
L 914.713166 257.294015 
L 915.15047 260.09484 
L 915.587774 261.288896 
L 916.025078 265.026825 
L 916.462382 265.936645 
L 916.899687 265.884929 
L 917.336991 266.969139 
L 917.774295 266.815415 
L 919.086207 260.631346 
L 919.523511 256.504221 
L 919.960815 256.253886 
L 920.835423 253.433005 
L 921.272727 253.243548 
L 921.710031 251.693891 
L 922.147335 251.241577 
L 922.584639 253.237135 
L 923.021944 259.6975 
L 923.459248 261.279836 
L 924.333856 267.290839 
L 924.77116 267.765448 
L 925.208464 270.125768 
L 926.083072 271.726225 
L 926.520376 272.078466 
L 926.95768 271.703421 
L 927.832288 271.191552 
L 928.269592 269.806206 
L 928.706897 266.911314 
L 929.144201 260.775805 
L 929.581505 257.411496 
L 930.018809 255.810937 
L 931.330721 243.190528 
L 932.642633 238.673088 
L 933.079937 240.100377 
L 933.954545 246.822072 
L 933.954545 246.822072 
" style="fill:none;stroke:#0000ff;stroke-linecap:square;stroke-width:1.5;"/>
   </g>
   <g id="patch_3">
    <path d="M 135 640.8 
L 135 86.4 
" style="fill:none;stroke:#000000;stroke-linecap:square;stroke-linejoin:miter;stroke-width:0.8;"/>
   </g>
   <g id="patch_4">
    <path d="M 972 640.8 
L 972 86.4 
" style="fill:none;stroke:#000000;stroke-linecap:square;stroke-linejoin:miter;stroke-width:0.8;"/>
   </g>
   <g id="patch_5">
    <path d="M 135 640.8 
L 972 640.8 
" style="fill:none;stroke:#000000;stroke-linecap:square;stroke-linejoin:miter;stroke-width:0.8;"/>
   </g>
   <g id="patch_6">
    <path d="M 135 86.4 
L 972 86.4 
" style="fill:none;stroke:#000000;stroke-linecap:square;stroke-linejoin:miter;stroke-width:0.8;"/>
   </g>
   <g id="text_14">
    <!-- Evaluation Preds N:50 -->
    <defs>
     <path d="M 9.8125 72.90625 
L 55.90625 72.90625 
L 55.90625 64.59375 
L 19.671875 64.59375 
L 19.671875 43.015625 
L 54.390625 43.015625 
L 54.390625 34.71875 
L 19.671875 34.71875 
L 19.671875 8.296875 
L 56.78125 8.296875 
L 56.78125 0 
L 9.8125 0 
z
" id="DejaVuSans-69"/>
     <path d="M 2.984375 54.6875 
L 12.5 54.6875 
L 29.59375 8.796875 
L 46.6875 54.6875 
L 56.203125 54.6875 
L 35.6875 0 
L 23.484375 0 
z
" id="DejaVuSans-118"/>
     <path d="M 34.28125 27.484375 
Q 23.390625 27.484375 19.1875 25 
Q 14.984375 22.515625 14.984375 16.5 
Q 14.984375 11.71875 18.140625 8.90625 
Q 21.296875 6.109375 26.703125 6.109375 
Q 34.1875 6.109375 38.703125 11.40625 
Q 43.21875 16.703125 43.21875 25.484375 
L 43.21875 27.484375 
z
M 52.203125 31.203125 
L 52.203125 0 
L 43.21875 0 
L 43.21875 8.296875 
Q 40.140625 3.328125 35.546875 0.953125 
Q 30.953125 -1.421875 24.3125 -1.421875 
Q 15.921875 -1.421875 10.953125 3.296875 
Q 6 8.015625 6 15.921875 
Q 6 25.140625 12.171875 29.828125 
Q 18.359375 34.515625 30.609375 34.515625 
L 43.21875 34.515625 
L 43.21875 35.40625 
Q 43.21875 41.609375 39.140625 45 
Q 35.0625 48.390625 27.6875 48.390625 
Q 23 48.390625 18.546875 47.265625 
Q 14.109375 46.140625 10.015625 43.890625 
L 10.015625 52.203125 
Q 14.9375 54.109375 19.578125 55.046875 
Q 24.21875 56 28.609375 56 
Q 40.484375 56 46.34375 49.84375 
Q 52.203125 43.703125 52.203125 31.203125 
z
" id="DejaVuSans-97"/>
     <path d="M 9.421875 75.984375 
L 18.40625 75.984375 
L 18.40625 0 
L 9.421875 0 
z
" id="DejaVuSans-108"/>
     <path d="M 8.5 21.578125 
L 8.5 54.6875 
L 17.484375 54.6875 
L 17.484375 21.921875 
Q 17.484375 14.15625 20.5 10.265625 
Q 23.53125 6.390625 29.59375 6.390625 
Q 36.859375 6.390625 41.078125 11.03125 
Q 45.3125 15.671875 45.3125 23.6875 
L 45.3125 54.6875 
L 54.296875 54.6875 
L 54.296875 0 
L 45.3125 0 
L 45.3125 8.40625 
Q 42.046875 3.421875 37.71875 1 
Q 33.40625 -1.421875 27.6875 -1.421875 
Q 18.265625 -1.421875 13.375 4.4375 
Q 8.5 10.296875 8.5 21.578125 
z
M 31.109375 56 
z
" id="DejaVuSans-117"/>
     <path d="M 18.3125 70.21875 
L 18.3125 54.6875 
L 36.8125 54.6875 
L 36.8125 47.703125 
L 18.3125 47.703125 
L 18.3125 18.015625 
Q 18.3125 11.328125 20.140625 9.421875 
Q 21.96875 7.515625 27.59375 7.515625 
L 36.8125 7.515625 
L 36.8125 0 
L 27.59375 0 
Q 17.1875 0 13.234375 3.875 
Q 9.28125 7.765625 9.28125 18.015625 
L 9.28125 47.703125 
L 2.6875 47.703125 
L 2.6875 54.6875 
L 9.28125 54.6875 
L 9.28125 70.21875 
z
" id="DejaVuSans-116"/>
     <path d="M 9.421875 54.6875 
L 18.40625 54.6875 
L 18.40625 0 
L 9.421875 0 
z
M 9.421875 75.984375 
L 18.40625 75.984375 
L 18.40625 64.59375 
L 9.421875 64.59375 
z
" id="DejaVuSans-105"/>
     <path d="M 30.609375 48.390625 
Q 23.390625 48.390625 19.1875 42.75 
Q 14.984375 37.109375 14.984375 27.296875 
Q 14.984375 17.484375 19.15625 11.84375 
Q 23.34375 6.203125 30.609375 6.203125 
Q 37.796875 6.203125 41.984375 11.859375 
Q 46.1875 17.53125 46.1875 27.296875 
Q 46.1875 37.015625 41.984375 42.703125 
Q 37.796875 48.390625 30.609375 48.390625 
z
M 30.609375 56 
Q 42.328125 56 49.015625 48.375 
Q 55.71875 40.765625 55.71875 27.296875 
Q 55.71875 13.875 49.015625 6.21875 
Q 42.328125 -1.421875 30.609375 -1.421875 
Q 18.84375 -1.421875 12.171875 6.21875 
Q 5.515625 13.875 5.515625 27.296875 
Q 5.515625 40.765625 12.171875 48.375 
Q 18.84375 56 30.609375 56 
z
" id="DejaVuSans-111"/>
     <path d="M 54.890625 33.015625 
L 54.890625 0 
L 45.90625 0 
L 45.90625 32.71875 
Q 45.90625 40.484375 42.875 44.328125 
Q 39.84375 48.1875 33.796875 48.1875 
Q 26.515625 48.1875 22.3125 43.546875 
Q 18.109375 38.921875 18.109375 30.90625 
L 18.109375 0 
L 9.078125 0 
L 9.078125 54.6875 
L 18.109375 54.6875 
L 18.109375 46.1875 
Q 21.34375 51.125 25.703125 53.5625 
Q 30.078125 56 35.796875 56 
Q 45.21875 56 50.046875 50.171875 
Q 54.890625 44.34375 54.890625 33.015625 
z
" id="DejaVuSans-110"/>
     <path id="DejaVuSans-32"/>
     <path d="M 19.671875 64.796875 
L 19.671875 37.40625 
L 32.078125 37.40625 
Q 38.96875 37.40625 42.71875 40.96875 
Q 46.484375 44.53125 46.484375 51.125 
Q 46.484375 57.671875 42.71875 61.234375 
Q 38.96875 64.796875 32.078125 64.796875 
z
M 9.8125 72.90625 
L 32.078125 72.90625 
Q 44.34375 72.90625 50.609375 67.359375 
Q 56.890625 61.8125 56.890625 51.125 
Q 56.890625 40.328125 50.609375 34.8125 
Q 44.34375 29.296875 32.078125 29.296875 
L 19.671875 29.296875 
L 19.671875 0 
L 9.8125 0 
z
" id="DejaVuSans-80"/>
     <path d="M 41.109375 46.296875 
Q 39.59375 47.171875 37.8125 47.578125 
Q 36.03125 48 33.890625 48 
Q 26.265625 48 22.1875 43.046875 
Q 18.109375 38.09375 18.109375 28.8125 
L 18.109375 0 
L 9.078125 0 
L 9.078125 54.6875 
L 18.109375 54.6875 
L 18.109375 46.1875 
Q 20.953125 51.171875 25.484375 53.578125 
Q 30.03125 56 36.53125 56 
Q 37.453125 56 38.578125 55.875 
Q 39.703125 55.765625 41.0625 55.515625 
z
" id="DejaVuSans-114"/>
     <path d="M 56.203125 29.59375 
L 56.203125 25.203125 
L 14.890625 25.203125 
Q 15.484375 15.921875 20.484375 11.0625 
Q 25.484375 6.203125 34.421875 6.203125 
Q 39.59375 6.203125 44.453125 7.46875 
Q 49.3125 8.734375 54.109375 11.28125 
L 54.109375 2.78125 
Q 49.265625 0.734375 44.1875 -0.34375 
Q 39.109375 -1.421875 33.890625 -1.421875 
Q 20.796875 -1.421875 13.15625 6.1875 
Q 5.515625 13.8125 5.515625 26.8125 
Q 5.515625 40.234375 12.765625 48.109375 
Q 20.015625 56 32.328125 56 
Q 43.359375 56 49.78125 48.890625 
Q 56.203125 41.796875 56.203125 29.59375 
z
M 47.21875 32.234375 
Q 47.125 39.59375 43.09375 43.984375 
Q 39.0625 48.390625 32.421875 48.390625 
Q 24.90625 48.390625 20.390625 44.140625 
Q 15.875 39.890625 15.1875 32.171875 
z
" id="DejaVuSans-101"/>
     <path d="M 45.40625 46.390625 
L 45.40625 75.984375 
L 54.390625 75.984375 
L 54.390625 0 
L 45.40625 0 
L 45.40625 8.203125 
Q 42.578125 3.328125 38.25 0.953125 
Q 33.9375 -1.421875 27.875 -1.421875 
Q 17.96875 -1.421875 11.734375 6.484375 
Q 5.515625 14.40625 5.515625 27.296875 
Q 5.515625 40.1875 11.734375 48.09375 
Q 17.96875 56 27.875 56 
Q 33.9375 56 38.25 53.625 
Q 42.578125 51.265625 45.40625 46.390625 
z
M 14.796875 27.296875 
Q 14.796875 17.390625 18.875 11.75 
Q 22.953125 6.109375 30.078125 6.109375 
Q 37.203125 6.109375 41.296875 11.75 
Q 45.40625 17.390625 45.40625 27.296875 
Q 45.40625 37.203125 41.296875 42.84375 
Q 37.203125 48.484375 30.078125 48.484375 
Q 22.953125 48.484375 18.875 42.84375 
Q 14.796875 37.203125 14.796875 27.296875 
z
" id="DejaVuSans-100"/>
     <path d="M 44.28125 53.078125 
L 44.28125 44.578125 
Q 40.484375 46.53125 36.375 47.5 
Q 32.28125 48.484375 27.875 48.484375 
Q 21.1875 48.484375 17.84375 46.4375 
Q 14.5 44.390625 14.5 40.28125 
Q 14.5 37.15625 16.890625 35.375 
Q 19.28125 33.59375 26.515625 31.984375 
L 29.59375 31.296875 
Q 39.15625 29.25 43.1875 25.515625 
Q 47.21875 21.78125 47.21875 15.09375 
Q 47.21875 7.46875 41.1875 3.015625 
Q 35.15625 -1.421875 24.609375 -1.421875 
Q 20.21875 -1.421875 15.453125 -0.5625 
Q 10.6875 0.296875 5.421875 2 
L 5.421875 11.28125 
Q 10.40625 8.6875 15.234375 7.390625 
Q 20.0625 6.109375 24.8125 6.109375 
Q 31.15625 6.109375 34.5625 8.28125 
Q 37.984375 10.453125 37.984375 14.40625 
Q 37.984375 18.0625 35.515625 20.015625 
Q 33.0625 21.96875 24.703125 23.78125 
L 21.578125 24.515625 
Q 13.234375 26.265625 9.515625 29.90625 
Q 5.8125 33.546875 5.8125 39.890625 
Q 5.8125 47.609375 11.28125 51.796875 
Q 16.75 56 26.8125 56 
Q 31.78125 56 36.171875 55.265625 
Q 40.578125 54.546875 44.28125 53.078125 
z
" id="DejaVuSans-115"/>
     <path d="M 9.8125 72.90625 
L 23.09375 72.90625 
L 55.421875 11.921875 
L 55.421875 72.90625 
L 64.984375 72.90625 
L 64.984375 0 
L 51.703125 0 
L 19.390625 60.984375 
L 19.390625 0 
L 9.8125 0 
z
" id="DejaVuSans-78"/>
     <path d="M 11.71875 12.40625 
L 22.015625 12.40625 
L 22.015625 0 
L 11.71875 0 
z
M 11.71875 51.703125 
L 22.015625 51.703125 
L 22.015625 39.3125 
L 11.71875 39.3125 
z
" id="DejaVuSans-58"/>
    </defs>
    <g transform="translate(374.421656 80.4)scale(0.324 -0.324)">
     <use xlink:href="#DejaVuSans-69"/>
     <use x="63.183594" xlink:href="#DejaVuSans-118"/>
     <use x="122.363281" xlink:href="#DejaVuSans-97"/>
     <use x="183.642578" xlink:href="#DejaVuSans-108"/>
     <use x="211.425781" xlink:href="#DejaVuSans-117"/>
     <use x="274.804688" xlink:href="#DejaVuSans-97"/>
     <use x="336.083984" xlink:href="#DejaVuSans-116"/>
     <use x="375.292969" xlink:href="#DejaVuSans-105"/>
     <use x="403.076172" xlink:href="#DejaVuSans-111"/>
     <use x="464.257812" xlink:href="#DejaVuSans-110"/>
     <use x="527.636719" xlink:href="#DejaVuSans-32"/>
     <use x="559.423828" xlink:href="#DejaVuSans-80"/>
     <use x="619.710938" xlink:href="#DejaVuSans-114"/>
     <use x="660.792969" xlink:href="#DejaVuSans-101"/>
     <use x="722.316406" xlink:href="#DejaVuSans-100"/>
     <use x="785.792969" xlink:href="#DejaVuSans-115"/>
     <use x="837.892578" xlink:href="#DejaVuSans-32"/>
     <use x="869.679688" xlink:href="#DejaVuSans-78"/>
     <use x="944.484375" xlink:href="#DejaVuSans-58"/>
     <use x="978.175781" xlink:href="#DejaVuSans-53"/>
     <use x="1041.798828" xlink:href="#DejaVuSans-48"/>
    </g>
   </g>
   <g id="legend_1">
    <g id="patch_7">
     <path d="M 153.9 187.261875 
L 301.42125 187.261875 
Q 306.82125 187.261875 306.82125 181.861875 
L 306.82125 105.3 
Q 306.82125 99.9 301.42125 99.9 
L 153.9 99.9 
Q 148.5 99.9 148.5 105.3 
L 148.5 181.861875 
Q 148.5 187.261875 153.9 187.261875 
z
" style="fill:#ffffff;opacity:0.8;stroke:#cccccc;stroke-linejoin:miter;"/>
    </g>
    <g id="line2d_29">
     <path d="M 159.3 121.765781 
L 213.3 121.765781 
" style="fill:none;stroke:#ff0000;stroke-linecap:square;stroke-width:1.5;"/>
    </g>
    <g id="line2d_30"/>
    <g id="text_15">
     <!-- Real -->
     <defs>
      <path d="M 44.390625 34.1875 
Q 47.5625 33.109375 50.5625 29.59375 
Q 53.5625 26.078125 56.59375 19.921875 
L 66.609375 0 
L 56 0 
L 46.6875 18.703125 
Q 43.0625 26.03125 39.671875 28.421875 
Q 36.28125 30.8125 30.421875 30.8125 
L 19.671875 30.8125 
L 19.671875 0 
L 9.8125 0 
L 9.8125 72.90625 
L 32.078125 72.90625 
Q 44.578125 72.90625 50.734375 67.671875 
Q 56.890625 62.453125 56.890625 51.90625 
Q 56.890625 45.015625 53.6875 40.46875 
Q 50.484375 35.9375 44.390625 34.1875 
z
M 19.671875 64.796875 
L 19.671875 38.921875 
L 32.078125 38.921875 
Q 39.203125 38.921875 42.84375 42.21875 
Q 46.484375 45.515625 46.484375 51.90625 
Q 46.484375 58.296875 42.84375 61.546875 
Q 39.203125 64.796875 32.078125 64.796875 
z
" id="DejaVuSans-82"/>
     </defs>
     <g transform="translate(234.9 131.215781)scale(0.27 -0.27)">
      <use xlink:href="#DejaVuSans-82"/>
      <use x="69.419922" xlink:href="#DejaVuSans-101"/>
      <use x="130.943359" xlink:href="#DejaVuSans-97"/>
      <use x="192.222656" xlink:href="#DejaVuSans-108"/>
     </g>
    </g>
    <g id="line2d_31">
     <path d="M 159.3 161.396719 
L 213.3 161.396719 
" style="fill:none;stroke:#0000ff;stroke-linecap:square;stroke-width:1.5;"/>
    </g>
    <g id="line2d_32"/>
    <g id="text_16">
     <!-- Pred -->
     <g transform="translate(234.9 170.846719)scale(0.27 -0.27)">
      <use xlink:href="#DejaVuSans-80"/>
      <use x="60.287109" xlink:href="#DejaVuSans-114"/>
      <use x="101.369141" xlink:href="#DejaVuSans-101"/>
      <use x="162.892578" xlink:href="#DejaVuSans-100"/>
     </g>
    </g>
   </g>
  </g>
 </g>
 <defs>
  <clipPath id="p85766884f3">
   <rect height="554.4" width="837" x="135" y="86.4"/>
  </clipPath>
 </defs>
</svg>
