<?xml version="1.0" encoding="utf-8" standalone="no"?>
<!DOCTYPE svg PUBLIC "-//W3C//DTD SVG 1.1//EN"
  "http://www.w3.org/Graphics/SVG/1.1/DTD/svg11.dtd">
<!-- Created with matplotlib (https://matplotlib.org/) -->
<svg height="720pt" version="1.1" viewBox="0 0 1080 720" width="1080pt" xmlns="http://www.w3.org/2000/svg" xmlns:xlink="http://www.w3.org/1999/xlink">
 <defs>
  <style type="text/css">
*{stroke-linecap:butt;stroke-linejoin:round;}
  </style>
 </defs>
 <g id="figure_1">
  <g id="patch_1">
   <path d="M 0 720 
L 1080 720 
L 1080 0 
L 0 0 
z
" style="fill:#ffffff;"/>
  </g>
  <g id="axes_1">
   <g id="patch_2">
    <path d="M 135 640.8 
L 972 640.8 
L 972 86.4 
L 135 86.4 
z
" style="fill:#ffffff;"/>
   </g>
   <g id="matplotlib.axis_1">
    <g id="xtick_1">
     <g id="line2d_1">
      <path clip-path="url(#pc2f247da22)" d="M 173.045455 640.8 
L 173.045455 86.4 
" style="fill:none;stroke:#b0b0b0;stroke-linecap:square;stroke-width:0.8;"/>
     </g>
     <g id="line2d_2">
      <defs>
       <path d="M 0 0 
L 0 3.5 
" id="m4b5b679b53" style="stroke:#000000;stroke-width:0.8;"/>
      </defs>
      <g>
       <use style="stroke:#000000;stroke-width:0.8;" x="173.045455" xlink:href="#m4b5b679b53" y="640.8"/>
      </g>
     </g>
     <g id="text_1">
      <!-- 0 -->
      <defs>
       <path d="M 31.78125 66.40625 
Q 24.171875 66.40625 20.328125 58.90625 
Q 16.5 51.421875 16.5 36.375 
Q 16.5 21.390625 20.328125 13.890625 
Q 24.171875 6.390625 31.78125 6.390625 
Q 39.453125 6.390625 43.28125 13.890625 
Q 47.125 21.390625 47.125 36.375 
Q 47.125 51.421875 43.28125 58.90625 
Q 39.453125 66.40625 31.78125 66.40625 
z
M 31.78125 74.21875 
Q 44.046875 74.21875 50.515625 64.515625 
Q 56.984375 54.828125 56.984375 36.375 
Q 56.984375 17.96875 50.515625 8.265625 
Q 44.046875 -1.421875 31.78125 -1.421875 
Q 19.53125 -1.421875 13.0625 8.265625 
Q 6.59375 17.96875 6.59375 36.375 
Q 6.59375 54.828125 13.0625 64.515625 
Q 19.53125 74.21875 31.78125 74.21875 
z
" id="DejaVuSans-48"/>
      </defs>
      <g transform="translate(164.45608 668.315781)scale(0.27 -0.27)">
       <use xlink:href="#DejaVuSans-48"/>
      </g>
     </g>
    </g>
    <g id="xtick_2">
     <g id="line2d_3">
      <path clip-path="url(#pc2f247da22)" d="M 282.371473 640.8 
L 282.371473 86.4 
" style="fill:none;stroke:#b0b0b0;stroke-linecap:square;stroke-width:0.8;"/>
     </g>
     <g id="line2d_4">
      <g>
       <use style="stroke:#000000;stroke-width:0.8;" x="282.371473" xlink:href="#m4b5b679b53" y="640.8"/>
      </g>
     </g>
     <g id="text_2">
      <!-- 250 -->
      <defs>
       <path d="M 19.1875 8.296875 
L 53.609375 8.296875 
L 53.609375 0 
L 7.328125 0 
L 7.328125 8.296875 
Q 12.9375 14.109375 22.625 23.890625 
Q 32.328125 33.6875 34.8125 36.53125 
Q 39.546875 41.84375 41.421875 45.53125 
Q 43.3125 49.21875 43.3125 52.78125 
Q 43.3125 58.59375 39.234375 62.25 
Q 35.15625 65.921875 28.609375 65.921875 
Q 23.96875 65.921875 18.8125 64.3125 
Q 13.671875 62.703125 7.8125 59.421875 
L 7.8125 69.390625 
Q 13.765625 71.78125 18.9375 73 
Q 24.125 74.21875 28.421875 74.21875 
Q 39.75 74.21875 46.484375 68.546875 
Q 53.21875 62.890625 53.21875 53.421875 
Q 53.21875 48.921875 51.53125 44.890625 
Q 49.859375 40.875 45.40625 35.40625 
Q 44.1875 33.984375 37.640625 27.21875 
Q 31.109375 20.453125 19.1875 8.296875 
z
" id="DejaVuSans-50"/>
       <path d="M 10.796875 72.90625 
L 49.515625 72.90625 
L 49.515625 64.59375 
L 19.828125 64.59375 
L 19.828125 46.734375 
Q 21.96875 47.46875 24.109375 47.828125 
Q 26.265625 48.1875 28.421875 48.1875 
Q 40.625 48.1875 47.75 41.5 
Q 54.890625 34.8125 54.890625 23.390625 
Q 54.890625 11.625 47.5625 5.09375 
Q 40.234375 -1.421875 26.90625 -1.421875 
Q 22.3125 -1.421875 17.546875 -0.640625 
Q 12.796875 0.140625 7.71875 1.703125 
L 7.71875 11.625 
Q 12.109375 9.234375 16.796875 8.0625 
Q 21.484375 6.890625 26.703125 6.890625 
Q 35.15625 6.890625 40.078125 11.328125 
Q 45.015625 15.765625 45.015625 23.390625 
Q 45.015625 31 40.078125 35.4375 
Q 35.15625 39.890625 26.703125 39.890625 
Q 22.75 39.890625 18.8125 39.015625 
Q 14.890625 38.140625 10.796875 36.28125 
z
" id="DejaVuSans-53"/>
      </defs>
      <g transform="translate(256.603348 668.315781)scale(0.27 -0.27)">
       <use xlink:href="#DejaVuSans-50"/>
       <use x="63.623047" xlink:href="#DejaVuSans-53"/>
       <use x="127.246094" xlink:href="#DejaVuSans-48"/>
      </g>
     </g>
    </g>
    <g id="xtick_3">
     <g id="line2d_5">
      <path clip-path="url(#pc2f247da22)" d="M 391.697492 640.8 
L 391.697492 86.4 
" style="fill:none;stroke:#b0b0b0;stroke-linecap:square;stroke-width:0.8;"/>
     </g>
     <g id="line2d_6">
      <g>
       <use style="stroke:#000000;stroke-width:0.8;" x="391.697492" xlink:href="#m4b5b679b53" y="640.8"/>
      </g>
     </g>
     <g id="text_3">
      <!-- 500 -->
      <g transform="translate(365.929367 668.315781)scale(0.27 -0.27)">
       <use xlink:href="#DejaVuSans-53"/>
       <use x="63.623047" xlink:href="#DejaVuSans-48"/>
       <use x="127.246094" xlink:href="#DejaVuSans-48"/>
      </g>
     </g>
    </g>
    <g id="xtick_4">
     <g id="line2d_7">
      <path clip-path="url(#pc2f247da22)" d="M 501.023511 640.8 
L 501.023511 86.4 
" style="fill:none;stroke:#b0b0b0;stroke-linecap:square;stroke-width:0.8;"/>
     </g>
     <g id="line2d_8">
      <g>
       <use style="stroke:#000000;stroke-width:0.8;" x="501.023511" xlink:href="#m4b5b679b53" y="640.8"/>
      </g>
     </g>
     <g id="text_4">
      <!-- 750 -->
      <defs>
       <path d="M 8.203125 72.90625 
L 55.078125 72.90625 
L 55.078125 68.703125 
L 28.609375 0 
L 18.3125 0 
L 43.21875 64.59375 
L 8.203125 64.59375 
z
" id="DejaVuSans-55"/>
      </defs>
      <g transform="translate(475.255386 668.315781)scale(0.27 -0.27)">
       <use xlink:href="#DejaVuSans-55"/>
       <use x="63.623047" xlink:href="#DejaVuSans-53"/>
       <use x="127.246094" xlink:href="#DejaVuSans-48"/>
      </g>
     </g>
    </g>
    <g id="xtick_5">
     <g id="line2d_9">
      <path clip-path="url(#pc2f247da22)" d="M 610.34953 640.8 
L 610.34953 86.4 
" style="fill:none;stroke:#b0b0b0;stroke-linecap:square;stroke-width:0.8;"/>
     </g>
     <g id="line2d_10">
      <g>
       <use style="stroke:#000000;stroke-width:0.8;" x="610.34953" xlink:href="#m4b5b679b53" y="640.8"/>
      </g>
     </g>
     <g id="text_5">
      <!-- 1000 -->
      <defs>
       <path d="M 12.40625 8.296875 
L 28.515625 8.296875 
L 28.515625 63.921875 
L 10.984375 60.40625 
L 10.984375 69.390625 
L 28.421875 72.90625 
L 38.28125 72.90625 
L 38.28125 8.296875 
L 54.390625 8.296875 
L 54.390625 0 
L 12.40625 0 
z
" id="DejaVuSans-49"/>
      </defs>
      <g transform="translate(575.99203 668.315781)scale(0.27 -0.27)">
       <use xlink:href="#DejaVuSans-49"/>
       <use x="63.623047" xlink:href="#DejaVuSans-48"/>
       <use x="127.246094" xlink:href="#DejaVuSans-48"/>
       <use x="190.869141" xlink:href="#DejaVuSans-48"/>
      </g>
     </g>
    </g>
    <g id="xtick_6">
     <g id="line2d_11">
      <path clip-path="url(#pc2f247da22)" d="M 719.675549 640.8 
L 719.675549 86.4 
" style="fill:none;stroke:#b0b0b0;stroke-linecap:square;stroke-width:0.8;"/>
     </g>
     <g id="line2d_12">
      <g>
       <use style="stroke:#000000;stroke-width:0.8;" x="719.675549" xlink:href="#m4b5b679b53" y="640.8"/>
      </g>
     </g>
     <g id="text_6">
      <!-- 1250 -->
      <g transform="translate(685.318049 668.315781)scale(0.27 -0.27)">
       <use xlink:href="#DejaVuSans-49"/>
       <use x="63.623047" xlink:href="#DejaVuSans-50"/>
       <use x="127.246094" xlink:href="#DejaVuSans-53"/>
       <use x="190.869141" xlink:href="#DejaVuSans-48"/>
      </g>
     </g>
    </g>
    <g id="xtick_7">
     <g id="line2d_13">
      <path clip-path="url(#pc2f247da22)" d="M 829.001567 640.8 
L 829.001567 86.4 
" style="fill:none;stroke:#b0b0b0;stroke-linecap:square;stroke-width:0.8;"/>
     </g>
     <g id="line2d_14">
      <g>
       <use style="stroke:#000000;stroke-width:0.8;" x="829.001567" xlink:href="#m4b5b679b53" y="640.8"/>
      </g>
     </g>
     <g id="text_7">
      <!-- 1500 -->
      <g transform="translate(794.644067 668.315781)scale(0.27 -0.27)">
       <use xlink:href="#DejaVuSans-49"/>
       <use x="63.623047" xlink:href="#DejaVuSans-53"/>
       <use x="127.246094" xlink:href="#DejaVuSans-48"/>
       <use x="190.869141" xlink:href="#DejaVuSans-48"/>
      </g>
     </g>
    </g>
    <g id="xtick_8">
     <g id="line2d_15">
      <path clip-path="url(#pc2f247da22)" d="M 938.327586 640.8 
L 938.327586 86.4 
" style="fill:none;stroke:#b0b0b0;stroke-linecap:square;stroke-width:0.8;"/>
     </g>
     <g id="line2d_16">
      <g>
       <use style="stroke:#000000;stroke-width:0.8;" x="938.327586" xlink:href="#m4b5b679b53" y="640.8"/>
      </g>
     </g>
     <g id="text_8">
      <!-- 1750 -->
      <g transform="translate(903.970086 668.315781)scale(0.27 -0.27)">
       <use xlink:href="#DejaVuSans-49"/>
       <use x="63.623047" xlink:href="#DejaVuSans-55"/>
       <use x="127.246094" xlink:href="#DejaVuSans-53"/>
       <use x="190.869141" xlink:href="#DejaVuSans-48"/>
      </g>
     </g>
    </g>
   </g>
   <g id="matplotlib.axis_2">
    <g id="ytick_1">
     <g id="line2d_17">
      <path clip-path="url(#pc2f247da22)" d="M 135 617.853406 
L 972 617.853406 
" style="fill:none;stroke:#b0b0b0;stroke-linecap:square;stroke-width:0.8;"/>
     </g>
     <g id="line2d_18">
      <defs>
       <path d="M 0 0 
L -3.5 0 
" id="mbff65f9516" style="stroke:#000000;stroke-width:0.8;"/>
      </defs>
      <g>
       <use style="stroke:#000000;stroke-width:0.8;" x="135" xlink:href="#mbff65f9516" y="617.853406"/>
      </g>
     </g>
     <g id="text_9">
      <!-- 67.5 -->
      <defs>
       <path d="M 33.015625 40.375 
Q 26.375 40.375 22.484375 35.828125 
Q 18.609375 31.296875 18.609375 23.390625 
Q 18.609375 15.53125 22.484375 10.953125 
Q 26.375 6.390625 33.015625 6.390625 
Q 39.65625 6.390625 43.53125 10.953125 
Q 47.40625 15.53125 47.40625 23.390625 
Q 47.40625 31.296875 43.53125 35.828125 
Q 39.65625 40.375 33.015625 40.375 
z
M 52.59375 71.296875 
L 52.59375 62.3125 
Q 48.875 64.0625 45.09375 64.984375 
Q 41.3125 65.921875 37.59375 65.921875 
Q 27.828125 65.921875 22.671875 59.328125 
Q 17.53125 52.734375 16.796875 39.40625 
Q 19.671875 43.65625 24.015625 45.921875 
Q 28.375 48.1875 33.59375 48.1875 
Q 44.578125 48.1875 50.953125 41.515625 
Q 57.328125 34.859375 57.328125 23.390625 
Q 57.328125 12.15625 50.6875 5.359375 
Q 44.046875 -1.421875 33.015625 -1.421875 
Q 20.359375 -1.421875 13.671875 8.265625 
Q 6.984375 17.96875 6.984375 36.375 
Q 6.984375 53.65625 15.1875 63.9375 
Q 23.390625 74.21875 37.203125 74.21875 
Q 40.921875 74.21875 44.703125 73.484375 
Q 48.484375 72.75 52.59375 71.296875 
z
" id="DejaVuSans-54"/>
       <path d="M 10.6875 12.40625 
L 21 12.40625 
L 21 0 
L 10.6875 0 
z
" id="DejaVuSans-46"/>
      </defs>
      <g transform="translate(67.882812 628.111297)scale(0.27 -0.27)">
       <use xlink:href="#DejaVuSans-54"/>
       <use x="63.623047" xlink:href="#DejaVuSans-55"/>
       <use x="127.246094" xlink:href="#DejaVuSans-46"/>
       <use x="159.033203" xlink:href="#DejaVuSans-53"/>
      </g>
     </g>
    </g>
    <g id="ytick_2">
     <g id="line2d_19">
      <path clip-path="url(#pc2f247da22)" d="M 135 545.283766 
L 972 545.283766 
" style="fill:none;stroke:#b0b0b0;stroke-linecap:square;stroke-width:0.8;"/>
     </g>
     <g id="line2d_20">
      <g>
       <use style="stroke:#000000;stroke-width:0.8;" x="135" xlink:href="#mbff65f9516" y="545.283766"/>
      </g>
     </g>
     <g id="text_10">
      <!-- 68.0 -->
      <defs>
       <path d="M 31.78125 34.625 
Q 24.75 34.625 20.71875 30.859375 
Q 16.703125 27.09375 16.703125 20.515625 
Q 16.703125 13.921875 20.71875 10.15625 
Q 24.75 6.390625 31.78125 6.390625 
Q 38.8125 6.390625 42.859375 10.171875 
Q 46.921875 13.96875 46.921875 20.515625 
Q 46.921875 27.09375 42.890625 30.859375 
Q 38.875 34.625 31.78125 34.625 
z
M 21.921875 38.8125 
Q 15.578125 40.375 12.03125 44.71875 
Q 8.5 49.078125 8.5 55.328125 
Q 8.5 64.0625 14.71875 69.140625 
Q 20.953125 74.21875 31.78125 74.21875 
Q 42.671875 74.21875 48.875 69.140625 
Q 55.078125 64.0625 55.078125 55.328125 
Q 55.078125 49.078125 51.53125 44.71875 
Q 48 40.375 41.703125 38.8125 
Q 48.828125 37.15625 52.796875 32.3125 
Q 56.78125 27.484375 56.78125 20.515625 
Q 56.78125 9.90625 50.3125 4.234375 
Q 43.84375 -1.421875 31.78125 -1.421875 
Q 19.734375 -1.421875 13.25 4.234375 
Q 6.78125 9.90625 6.78125 20.515625 
Q 6.78125 27.484375 10.78125 32.3125 
Q 14.796875 37.15625 21.921875 38.8125 
z
M 18.3125 54.390625 
Q 18.3125 48.734375 21.84375 45.5625 
Q 25.390625 42.390625 31.78125 42.390625 
Q 38.140625 42.390625 41.71875 45.5625 
Q 45.3125 48.734375 45.3125 54.390625 
Q 45.3125 60.0625 41.71875 63.234375 
Q 38.140625 66.40625 31.78125 66.40625 
Q 25.390625 66.40625 21.84375 63.234375 
Q 18.3125 60.0625 18.3125 54.390625 
z
" id="DejaVuSans-56"/>
      </defs>
      <g transform="translate(67.882812 555.541657)scale(0.27 -0.27)">
       <use xlink:href="#DejaVuSans-54"/>
       <use x="63.623047" xlink:href="#DejaVuSans-56"/>
       <use x="127.246094" xlink:href="#DejaVuSans-46"/>
       <use x="159.033203" xlink:href="#DejaVuSans-48"/>
      </g>
     </g>
    </g>
    <g id="ytick_3">
     <g id="line2d_21">
      <path clip-path="url(#pc2f247da22)" d="M 135 472.714127 
L 972 472.714127 
" style="fill:none;stroke:#b0b0b0;stroke-linecap:square;stroke-width:0.8;"/>
     </g>
     <g id="line2d_22">
      <g>
       <use style="stroke:#000000;stroke-width:0.8;" x="135" xlink:href="#mbff65f9516" y="472.714127"/>
      </g>
     </g>
     <g id="text_11">
      <!-- 68.5 -->
      <g transform="translate(67.882812 482.972018)scale(0.27 -0.27)">
       <use xlink:href="#DejaVuSans-54"/>
       <use x="63.623047" xlink:href="#DejaVuSans-56"/>
       <use x="127.246094" xlink:href="#DejaVuSans-46"/>
       <use x="159.033203" xlink:href="#DejaVuSans-53"/>
      </g>
     </g>
    </g>
    <g id="ytick_4">
     <g id="line2d_23">
      <path clip-path="url(#pc2f247da22)" d="M 135 400.144487 
L 972 400.144487 
" style="fill:none;stroke:#b0b0b0;stroke-linecap:square;stroke-width:0.8;"/>
     </g>
     <g id="line2d_24">
      <g>
       <use style="stroke:#000000;stroke-width:0.8;" x="135" xlink:href="#mbff65f9516" y="400.144487"/>
      </g>
     </g>
     <g id="text_12">
      <!-- 69.0 -->
      <defs>
       <path d="M 10.984375 1.515625 
L 10.984375 10.5 
Q 14.703125 8.734375 18.5 7.8125 
Q 22.3125 6.890625 25.984375 6.890625 
Q 35.75 6.890625 40.890625 13.453125 
Q 46.046875 20.015625 46.78125 33.40625 
Q 43.953125 29.203125 39.59375 26.953125 
Q 35.25 24.703125 29.984375 24.703125 
Q 19.046875 24.703125 12.671875 31.3125 
Q 6.296875 37.9375 6.296875 49.421875 
Q 6.296875 60.640625 12.9375 67.421875 
Q 19.578125 74.21875 30.609375 74.21875 
Q 43.265625 74.21875 49.921875 64.515625 
Q 56.59375 54.828125 56.59375 36.375 
Q 56.59375 19.140625 48.40625 8.859375 
Q 40.234375 -1.421875 26.421875 -1.421875 
Q 22.703125 -1.421875 18.890625 -0.6875 
Q 15.09375 0.046875 10.984375 1.515625 
z
M 30.609375 32.421875 
Q 37.25 32.421875 41.125 36.953125 
Q 45.015625 41.5 45.015625 49.421875 
Q 45.015625 57.28125 41.125 61.84375 
Q 37.25 66.40625 30.609375 66.40625 
Q 23.96875 66.40625 20.09375 61.84375 
Q 16.21875 57.28125 16.21875 49.421875 
Q 16.21875 41.5 20.09375 36.953125 
Q 23.96875 32.421875 30.609375 32.421875 
z
" id="DejaVuSans-57"/>
      </defs>
      <g transform="translate(67.882812 410.402378)scale(0.27 -0.27)">
       <use xlink:href="#DejaVuSans-54"/>
       <use x="63.623047" xlink:href="#DejaVuSans-57"/>
       <use x="127.246094" xlink:href="#DejaVuSans-46"/>
       <use x="159.033203" xlink:href="#DejaVuSans-48"/>
      </g>
     </g>
    </g>
    <g id="ytick_5">
     <g id="line2d_25">
      <path clip-path="url(#pc2f247da22)" d="M 135 327.574848 
L 972 327.574848 
" style="fill:none;stroke:#b0b0b0;stroke-linecap:square;stroke-width:0.8;"/>
     </g>
     <g id="line2d_26">
      <g>
       <use style="stroke:#000000;stroke-width:0.8;" x="135" xlink:href="#mbff65f9516" y="327.574848"/>
      </g>
     </g>
     <g id="text_13">
      <!-- 69.5 -->
      <g transform="translate(67.882812 337.832739)scale(0.27 -0.27)">
       <use xlink:href="#DejaVuSans-54"/>
       <use x="63.623047" xlink:href="#DejaVuSans-57"/>
       <use x="127.246094" xlink:href="#DejaVuSans-46"/>
       <use x="159.033203" xlink:href="#DejaVuSans-53"/>
      </g>
     </g>
    </g>
    <g id="ytick_6">
     <g id="line2d_27">
      <path clip-path="url(#pc2f247da22)" d="M 135 255.005208 
L 972 255.005208 
" style="fill:none;stroke:#b0b0b0;stroke-linecap:square;stroke-width:0.8;"/>
     </g>
     <g id="line2d_28">
      <g>
       <use style="stroke:#000000;stroke-width:0.8;" x="135" xlink:href="#mbff65f9516" y="255.005208"/>
      </g>
     </g>
     <g id="text_14">
      <!-- 70.0 -->
      <g transform="translate(67.882812 265.263099)scale(0.27 -0.27)">
       <use xlink:href="#DejaVuSans-55"/>
       <use x="63.623047" xlink:href="#DejaVuSans-48"/>
       <use x="127.246094" xlink:href="#DejaVuSans-46"/>
       <use x="159.033203" xlink:href="#DejaVuSans-48"/>
      </g>
     </g>
    </g>
    <g id="ytick_7">
     <g id="line2d_29">
      <path clip-path="url(#pc2f247da22)" d="M 135 182.435569 
L 972 182.435569 
" style="fill:none;stroke:#b0b0b0;stroke-linecap:square;stroke-width:0.8;"/>
     </g>
     <g id="line2d_30">
      <g>
       <use style="stroke:#000000;stroke-width:0.8;" x="135" xlink:href="#mbff65f9516" y="182.435569"/>
      </g>
     </g>
     <g id="text_15">
      <!-- 70.5 -->
      <g transform="translate(67.882812 192.693459)scale(0.27 -0.27)">
       <use xlink:href="#DejaVuSans-55"/>
       <use x="63.623047" xlink:href="#DejaVuSans-48"/>
       <use x="127.246094" xlink:href="#DejaVuSans-46"/>
       <use x="159.033203" xlink:href="#DejaVuSans-53"/>
      </g>
     </g>
    </g>
    <g id="ytick_8">
     <g id="line2d_31">
      <path clip-path="url(#pc2f247da22)" d="M 135 109.865929 
L 972 109.865929 
" style="fill:none;stroke:#b0b0b0;stroke-linecap:square;stroke-width:0.8;"/>
     </g>
     <g id="line2d_32">
      <g>
       <use style="stroke:#000000;stroke-width:0.8;" x="135" xlink:href="#mbff65f9516" y="109.865929"/>
      </g>
     </g>
     <g id="text_16">
      <!-- 71.0 -->
      <g transform="translate(67.882812 120.12382)scale(0.27 -0.27)">
       <use xlink:href="#DejaVuSans-55"/>
       <use x="63.623047" xlink:href="#DejaVuSans-49"/>
       <use x="127.246094" xlink:href="#DejaVuSans-46"/>
       <use x="159.033203" xlink:href="#DejaVuSans-48"/>
      </g>
     </g>
    </g>
   </g>
   <g id="line2d_33">
    <path clip-path="url(#pc2f247da22)" d="M 173.045455 464.543177 
L 173.482759 464.606295 
L 173.920063 468.437638 
L 174.357367 469.940278 
L 174.794671 468.672391 
L 175.669279 476.327328 
L 176.106583 476.434738 
L 176.543887 476.152371 
L 176.981191 478.290615 
L 177.418495 476.041638 
L 177.855799 477.998281 
L 178.293103 475.154671 
L 179.167712 478.989337 
L 179.605016 483.273576 
L 180.04232 484.190441 
L 180.916928 491.588479 
L 181.354232 492.040267 
L 181.791536 496.702105 
L 182.22884 494.662412 
L 182.666144 499.058492 
L 183.978056 503.240858 
L 184.415361 506.774331 
L 184.852665 504.768966 
L 185.289969 503.464537 
L 185.727273 509.349969 
L 186.164577 505.241794 
L 186.601881 505.682509 
L 187.039185 501.48464 
L 187.476489 504.256275 
L 187.913793 502.702698 
L 188.351097 503.961726 
L 188.788401 504.699204 
L 189.225705 503.989409 
L 189.663009 504.584043 
L 190.100313 500.73166 
L 190.537618 503.213175 
L 190.974922 496.235921 
L 191.412226 502.609683 
L 191.84953 497.659941 
L 192.286834 498.896822 
L 192.724138 486.242314 
L 193.161442 485.172639 
L 193.598746 481.850664 
L 194.03605 476.337294 
L 194.473354 478.293937 
L 194.910658 483.859351 
L 195.347962 484.163866 
L 195.785266 476.967362 
L 196.222571 477.267447 
L 196.659875 478.073579 
L 197.097179 475.847856 
L 197.534483 472.118386 
L 197.971787 472.894621 
L 198.409091 466.754505 
L 198.846395 467.73338 
L 199.283699 471.728608 
L 199.721003 468.972476 
L 200.158307 467.614896 
L 200.595611 461.676313 
L 201.032915 466.268389 
L 201.470219 465.164386 
L 201.907524 465.603994 
L 202.344828 462.008511 
L 202.782132 459.925633 
L 203.219436 455.00911 
L 203.65674 453.147697 
L 204.094044 461.690708 
L 204.531348 461.904422 
L 204.968652 466.082359 
L 205.405956 461.308681 
L 205.84326 463.038323 
L 206.280564 458.251357 
L 206.717868 457.598036 
L 207.155172 458.096332 
L 207.592476 465.713619 
L 208.467085 485.969912 
L 208.904389 486.431667 
L 209.341693 486.107221 
L 209.778997 484.300067 
L 210.216301 477.126816 
L 210.653605 479.588399 
L 211.090909 477.318384 
L 211.528213 473.4206 
L 211.965517 472.067449 
L 212.402821 471.314468 
L 213.277429 462.260981 
L 213.714734 455.409962 
L 214.152038 450.716012 
L 214.589342 449.245485 
L 215.46395 444.021126 
L 215.901254 446.750682 
L 216.775862 441.534075 
L 217.213166 440.180924 
L 217.65047 442.368998 
L 218.087774 438.698216 
L 218.525078 441.54847 
L 218.962382 441.175301 
L 219.399687 443.280326 
L 219.836991 441.31261 
L 220.274295 451.132366 
L 220.711599 448.101618 
L 221.148903 449.231089 
L 221.586207 451.337221 
L 222.023511 466.335936 
L 222.460815 470.900329 
L 222.898119 471.390874 
L 223.335423 467.188576 
L 223.772727 468.23832 
L 224.210031 468.470858 
L 225.084639 462.721628 
L 225.521944 457.754169 
L 225.959248 457.923589 
L 227.27116 453.700252 
L 228.583072 435.7328 
L 229.020376 439.700345 
L 229.45768 441.819764 
L 229.894984 453.172059 
L 230.332288 437.088165 
L 230.769592 435.147025 
L 231.206897 434.061847 
L 231.644201 435.503584 
L 232.081505 436.020704 
L 232.518809 437.482373 
L 232.956113 438.170022 
L 233.393417 441.586119 
L 233.830721 457.199399 
L 234.268025 437.883225 
L 234.705329 440.268402 
L 235.142633 437.439187 
L 235.579937 436.956394 
L 236.017241 432.668832 
L 236.454545 432.880331 
L 236.89185 428.805376 
L 237.766458 430.598135 
L 238.203762 426.530931 
L 238.641066 425.858784 
L 239.07837 425.668325 
L 239.515674 425.02054 
L 239.952978 422.85129 
L 240.390282 418.854955 
L 240.827586 416.436558 
L 241.26489 407.880259 
L 241.702194 408.057431 
L 242.139498 405.536052 
L 242.576803 401.454453 
L 243.014107 395.59449 
L 243.451411 394.261271 
L 243.888715 388.704715 
L 244.326019 385.655142 
L 244.763323 386.665022 
L 245.637931 378.158553 
L 246.075235 383.070646 
L 246.949843 371.926529 
L 247.387147 371.783684 
L 247.824451 382.015365 
L 248.261755 369.851402 
L 248.69906 371.432662 
L 249.136364 370.103872 
L 249.573668 370.640925 
L 250.448276 362.055836 
L 250.88558 362.91512 
L 251.322884 361.784541 
L 251.760188 359.593145 
L 252.634796 366.929172 
L 253.0721 366.988968 
L 253.509404 364.857367 
L 253.946708 366.993397 
L 254.821317 360.737012 
L 255.258621 360.245359 
L 256.133229 350.590594 
L 256.570533 351.870662 
L 257.007837 350.30269 
L 257.445141 352.032331 
L 257.882445 351.504137 
L 258.319749 348.919641 
L 258.757053 347.017257 
L 259.194357 344.529098 
L 260.068966 337.119988 
L 260.943574 327.429788 
L 261.380878 317.951088 
L 261.818182 323.564117 
L 262.255486 322.88422 
L 262.69279 321.844442 
L 263.130094 317.55688 
L 263.567398 319.372893 
L 264.004702 318.436096 
L 264.442006 318.14044 
L 264.87931 311.143255 
L 265.316614 311.480989 
L 265.753918 310.105692 
L 266.191223 310.207565 
L 266.628527 306.788146 
L 267.065831 306.036273 
L 267.503135 308.710462 
L 267.940439 304.7252 
L 268.377743 309.653903 
L 268.815047 308.09479 
L 269.252351 310.362591 
L 269.689655 305.955438 
L 270.126959 306.752712 
L 270.564263 310.519831 
L 271.001567 310.667105 
L 271.438871 310.475538 
L 271.876176 310.435674 
L 272.31348 313.328007 
L 272.750784 313.790869 
L 273.188088 311.547428 
L 273.625392 305.947687 
L 274.5 307.660718 
L 274.937304 311.021449 
L 275.374608 311.689166 
L 275.811912 310.749047 
L 276.249216 314.27034 
L 276.68652 319.05952 
L 277.123824 316.086353 
L 277.561129 317.059691 
L 277.998433 310.786696 
L 278.435737 316.634479 
L 278.873041 316.152792 
L 279.310345 312.674685 
L 279.747649 310.928434 
L 280.184953 313.587121 
L 280.622257 314.549386 
L 281.059561 311.127752 
L 281.496865 315.198278 
L 281.934169 316.115143 
L 282.371473 318.379623 
L 282.808777 317.631071 
L 283.246082 322.12238 
L 283.683386 322.239757 
L 284.12069 326.438733 
L 284.557994 329.470588 
L 284.995298 331.26224 
L 285.432602 329.731917 
L 285.869906 332.686259 
L 286.30721 333.418201 
L 286.744514 333.817945 
L 287.181818 332.368457 
L 287.619122 336.657126 
L 288.056426 336.526462 
L 288.49373 336.572969 
L 288.931034 338.43106 
L 289.368339 336.715814 
L 289.805643 340.129697 
L 290.242947 339.806358 
L 290.680251 338.949288 
L 291.117555 340.60031 
L 291.554859 343.604482 
L 291.992163 338.032424 
L 292.429467 343.649882 
L 293.304075 341.40755 
L 293.741379 341.268027 
L 294.178683 342.864789 
L 294.615987 340.837277 
L 295.053292 342.564704 
L 295.490596 342.343239 
L 295.9279 342.649968 
L 296.365204 345.186849 
L 296.802508 346.232164 
L 297.239812 342.50823 
L 297.677116 343.573477 
L 298.11442 342.085232 
L 298.551724 339.215046 
L 298.989028 339.344603 
L 299.426332 339.973564 
L 299.863636 339.852866 
L 300.30094 338.456529 
L 300.738245 343.061893 
L 301.175549 346.283101 
L 301.612853 345.581057 
L 302.050157 346.046133 
L 302.487461 347.477904 
L 302.924765 348.317256 
L 303.362069 346.876627 
L 303.799373 347.14017 
L 304.236677 349.399113 
L 304.673981 347.165639 
L 305.548589 350.845279 
L 305.985893 350.830884 
L 306.423197 353.316828 
L 306.860502 359.017336 
L 307.297806 361.993825 
L 307.73511 359.858903 
L 308.172414 359.799108 
L 308.609718 364.714522 
L 309.047022 362.935051 
L 309.484326 366.667843 
L 309.92163 364.14425 
L 310.358934 364.418867 
L 310.796238 361.85098 
L 311.233542 360.74587 
L 311.670846 358.016315 
L 312.10815 360.471254 
L 312.545455 360.914184 
L 313.420063 365.140842 
L 313.857367 363.789906 
L 314.294671 361.016058 
L 314.731975 361.013843 
L 315.169279 361.914098 
L 315.606583 365.74212 
L 317.355799 374.974994 
L 317.793103 373.90864 
L 318.667712 378.386662 
L 319.105016 378.987939 
L 319.54232 379.04995 
L 319.979624 377.945947 
L 320.416928 380.858211 
L 320.854232 380.090835 
L 321.291536 381.59126 
L 321.72884 384.705057 
L 322.166144 384.516812 
L 322.603448 382.511447 
L 323.040752 383.066217 
L 323.478056 382.964343 
L 324.352665 381.490493 
L 324.789969 384.071668 
L 325.227273 382.593389 
L 325.664577 381.770647 
L 326.101881 379.675588 
L 326.539185 382.691941 
L 326.976489 378.457531 
L 327.413793 379.242624 
L 327.851097 380.579165 
L 328.288401 376.424482 
L 328.725705 374.493308 
L 329.163009 371.692883 
L 329.600313 365.391098 
L 330.037618 364.030196 
L 330.912226 355.808309 
L 331.34953 357.89008 
L 332.224138 355.597917 
L 332.661442 347.626286 
L 333.098746 345.97305 
L 333.53605 333.699461 
L 333.973354 330.772802 
L 334.410658 335.57084 
L 334.847962 335.802271 
L 335.285266 334.789069 
L 335.722571 335.184384 
L 336.159875 334.501165 
L 336.597179 337.127739 
L 337.909091 340.410957 
L 338.346395 338.87842 
L 338.783699 336.69256 
L 339.658307 341.809508 
L 340.095611 339.795285 
L 340.532915 339.319135 
L 340.970219 341.590258 
L 341.407524 341.338895 
L 341.844828 339.783104 
L 342.282132 336.693668 
L 343.15674 327.027829 
L 343.594044 328.157301 
L 344.031348 328.215989 
L 344.468652 323.421273 
L 344.905956 320.761478 
L 345.34326 315.957903 
L 345.780564 320.571018 
L 346.217868 321.533284 
L 346.655172 318.023064 
L 347.092476 316.111821 
L 347.529781 315.089761 
L 348.404389 307.191213 
L 349.278997 296.90638 
L 349.716301 294.394967 
L 350.153605 292.883469 
L 350.590909 293.148119 
L 351.028213 296.185511 
L 351.902821 294.171287 
L 352.340125 294.195648 
L 352.777429 296.784574 
L 353.214734 293.933212 
L 354.089342 301.511744 
L 354.526646 302.772987 
L 354.96395 301.941386 
L 355.401254 306.328607 
L 355.838558 305.901179 
L 356.275862 305.66089 
L 356.713166 306.532354 
L 357.15047 304.230226 
L 357.587774 303.345473 
L 358.025078 307.352882 
L 358.462382 305.214638 
L 358.899687 294.316347 
L 359.336991 298.593943 
L 360.211599 300.9005 
L 360.648903 296.569753 
L 361.086207 299.51413 
L 361.523511 297.093518 
L 361.960815 300.26711 
L 362.398119 295.526653 
L 362.835423 288.662346 
L 363.272727 287.872824 
L 363.710031 283.175552 
L 364.147335 286.424443 
L 364.584639 286.195227 
L 365.021944 283.410305 
L 365.459248 283.017204 
L 366.333856 289.072057 
L 366.77116 290.904679 
L 367.645768 296.965068 
L 368.083072 295.475716 
L 368.520376 290.425207 
L 368.95768 295.43696 
L 369.394984 301.800755 
L 369.832288 301.603652 
L 370.269592 300.799734 
L 370.706897 318.859094 
L 371.144201 315.656711 
L 371.581505 309.874261 
L 372.018809 317.406284 
L 372.456113 314.09649 
L 372.893417 289.808428 
L 373.330721 287.736623 
L 373.768025 290.420778 
L 374.205329 294.939771 
L 374.642633 293.957574 
L 375.079937 289.794032 
L 375.517241 293.616518 
L 375.954545 290.909108 
L 376.39185 295.814557 
L 376.829154 308.465743 
L 377.266458 331.254488 
L 378.141066 334.779103 
L 378.57837 335.285151 
L 379.015674 329.764029 
L 379.452978 307.376136 
L 380.327586 321.147935 
L 380.76489 314.33235 
L 381.202194 295.336193 
L 381.639498 302.062084 
L 382.076803 299.924947 
L 382.514107 297.114557 
L 382.951411 299.181932 
L 383.388715 294.821287 
L 383.826019 296.776823 
L 384.700627 309.179968 
L 385.575235 307.606459 
L 386.012539 311.829796 
L 386.449843 313.787547 
L 386.887147 314.441976 
L 387.324451 314.046661 
L 387.761755 319.739417 
L 388.19906 317.239078 
L 388.636364 317.677579 
L 389.073668 333.866668 
L 389.510972 335.043754 
L 389.948276 330.627742 
L 390.38558 334.893158 
L 390.822884 342.438469 
L 391.260188 347.527734 
L 391.697492 346.253203 
L 392.134796 347.741448 
L 392.5721 355.469467 
L 393.009404 360.944081 
L 393.446708 370.934366 
L 393.884013 370.102765 
L 394.321317 371.947568 
L 394.758621 377.478656 
L 395.195925 380.084191 
L 395.633229 384.905483 
L 396.507837 411.518928 
L 396.945141 416.769862 
L 397.382445 418.410918 
L 397.819749 419.297885 
L 398.694357 448.256644 
L 399.131661 453.788838 
L 399.568966 465.802205 
L 400.00627 466.754505 
L 400.443574 477.786782 
L 400.880878 479.085674 
L 401.318182 485.659861 
L 401.755486 481.897172 
L 402.19279 481.373407 
L 402.630094 486.176982 
L 403.067398 488.536691 
L 403.504702 489.072637 
L 403.942006 486.718464 
L 404.37931 487.26659 
L 404.816614 487.462586 
L 405.253918 485.828175 
L 405.691223 493.418886 
L 406.128527 495.949124 
L 406.565831 494.123145 
L 407.003135 496.060964 
L 407.440439 492.771101 
L 407.877743 497.462837 
L 408.315047 497.280128 
L 408.752351 500.346311 
L 409.189655 499.326464 
L 409.626959 505.834212 
L 410.501567 495.615819 
L 410.938871 500.635322 
L 411.376176 501.810194 
L 411.81348 498.842563 
L 412.250784 489.362756 
L 412.688088 489.907559 
L 413.125392 486.843592 
L 414 484.074172 
L 414.437304 481.404412 
L 414.874608 474.808078 
L 415.311912 477.348281 
L 415.749216 478.508758 
L 416.18652 483.043253 
L 416.623824 480.300409 
L 417.061129 482.901515 
L 417.498433 486.273319 
L 417.935737 487.45705 
L 418.810345 483.118551 
L 419.247649 486.429452 
L 419.684953 483.915825 
L 421.871473 505.788812 
L 422.746082 512.220155 
L 423.183386 518.856352 
L 423.62069 518.777732 
L 424.932602 528.615206 
L 425.369906 530.326023 
L 426.244514 542.245267 
L 426.681818 544.328145 
L 427.119122 547.543816 
L 427.556426 551.619879 
L 427.99373 552.330782 
L 428.431034 552.73717 
L 428.868339 556.246282 
L 429.305643 552.35625 
L 429.742947 559.791936 
L 430.180251 563.468255 
L 430.617555 568.842102 
L 431.054859 571.953685 
L 431.929467 576.07404 
L 432.366771 575.656579 
L 432.804075 573.204962 
L 433.241379 573.379919 
L 433.678683 571.268251 
L 434.553292 570.270551 
L 434.990596 566.947469 
L 435.4279 567.120212 
L 435.865204 565.855647 
L 436.302508 566.805732 
L 436.739812 563.767232 
L 437.177116 565.922087 
L 438.051724 563.926687 
L 439.363636 571.865099 
L 439.80094 572.969102 
L 440.238245 569.306071 
L 440.675549 569.304964 
L 441.112853 566.413739 
L 441.987461 554.199946 
L 442.424765 550.88683 
L 442.862069 543.437856 
L 443.299373 541.219884 
L 443.736677 536.429597 
L 444.173981 537.912305 
L 444.611285 533.062222 
L 445.485893 528.205496 
L 445.923197 524.633266 
L 446.797806 513.796985 
L 447.23511 510.874755 
L 447.672414 500.139241 
L 448.109718 492.242908 
L 448.547022 490.512159 
L 449.42163 473.337551 
L 449.858934 472.2867 
L 450.296238 465.736873 
L 451.170846 458.147269 
L 452.045455 438.074792 
L 452.482759 429.774285 
L 452.920063 429.964745 
L 453.357367 428.339192 
L 453.794671 424.37054 
L 454.669279 405.365524 
L 455.106583 397.262121 
L 455.543887 386.624051 
L 455.981191 387.146709 
L 456.418495 381.269029 
L 456.855799 380.934616 
L 457.293103 365.966907 
L 457.730408 372.941946 
L 458.167712 370.078404 
L 459.916928 342.059764 
L 460.791536 331.984215 
L 461.22884 325.245036 
L 461.666144 325.352447 
L 462.103448 323.348189 
L 462.540752 314.002368 
L 462.978056 307.389424 
L 463.415361 298.631592 
L 463.852665 292.524695 
L 465.164577 268.641914 
L 466.039185 273.204092 
L 466.913793 259.915087 
L 467.351097 257.671647 
L 467.788401 252.925652 
L 468.225705 250.510577 
L 468.663009 250.425313 
L 469.100313 247.436643 
L 469.537618 242.104874 
L 469.974922 239.634433 
L 470.84953 229.820213 
L 471.286834 227.327624 
L 471.724138 228.784864 
L 472.161442 225.303435 
L 472.598746 219.192109 
L 473.03605 217.826777 
L 473.473354 218.445772 
L 474.785266 222.23836 
L 475.222571 221.08342 
L 475.659875 220.889638 
L 476.097179 219.567492 
L 476.534483 223.763146 
L 476.971787 219.95727 
L 477.409091 223.706672 
L 477.846395 226.386398 
L 478.283699 226.074133 
L 478.721003 226.157182 
L 479.158307 230.854454 
L 479.595611 231.504454 
L 480.032915 225.920215 
L 480.470219 223.528393 
L 480.907524 213.845945 
L 481.344828 209.550632 
L 482.219436 192.642889 
L 482.65674 188.928922 
L 483.531348 172.286937 
L 484.405956 163.090604 
L 484.84326 157.78984 
L 485.280564 150.789333 
L 485.717868 150.272212 
L 486.155172 150.634307 
L 486.592476 145.025707 
L 487.029781 140.854414 
L 487.467085 141.217617 
L 487.904389 137.563445 
L 488.341693 139.311911 
L 488.778997 137.572304 
L 489.216301 139.155778 
L 489.653605 138.62537 
L 490.090909 144.179711 
L 490.528213 143.60058 
L 490.965517 145.240528 
L 491.402821 147.528261 
L 491.840125 148.768465 
L 492.277429 155.08686 
L 492.714734 155.445634 
L 493.152038 166.735918 
L 493.589342 165.810194 
L 494.901254 187.315549 
L 495.338558 189.079518 
L 495.775862 196.406686 
L 496.213166 196.896124 
L 496.65047 199.260262 
L 497.087774 205.659492 
L 497.525078 208.715709 
L 497.962382 210.239388 
L 498.399687 209.154209 
L 498.836991 210.00685 
L 499.274295 206.172184 
L 499.711599 207.145522 
L 500.148903 205.062644 
L 500.586207 202.253361 
L 501.023511 198.170655 
L 501.460815 199.879257 
L 501.898119 195.373552 
L 502.335423 195.788799 
L 502.772727 195.964864 
L 503.210031 195.649276 
L 503.647335 190.129262 
L 504.084639 182.180884 
L 504.521944 185.802944 
L 504.959248 184.027902 
L 505.396552 180.868704 
L 506.27116 179.357206 
L 506.708464 181.553031 
L 507.145768 183.129862 
L 507.583072 181.582929 
L 508.020376 181.84315 
L 508.45768 189.175855 
L 508.894984 192.250896 
L 509.332288 200.215884 
L 509.769592 204.160175 
L 510.644201 217.723796 
L 511.081505 222.67686 
L 511.518809 233.151046 
L 511.956113 237.505047 
L 512.393417 248.989113 
L 512.830721 256.070455 
L 513.268025 268.179052 
L 513.705329 273.804262 
L 514.142633 283.928533 
L 514.579937 287.969161 
L 515.017241 295.815665 
L 515.454545 301.479631 
L 515.89185 303.157228 
L 516.329154 311.453306 
L 516.766458 315.904752 
L 517.203762 324.286093 
L 517.641066 328.724251 
L 518.07837 337.911725 
L 518.515674 341.130718 
L 519.390282 356.814867 
L 520.702194 373.609663 
L 521.139498 383.96315 
L 521.576803 386.573114 
L 522.451411 399.492273 
L 523.326019 406.406409 
L 523.763323 411.950785 
L 524.200627 413.312794 
L 524.637931 415.845246 
L 525.512539 424.601971 
L 525.949843 422.467049 
L 526.387147 426.522072 
L 526.824451 435.578882 
L 527.261755 431.798475 
L 527.69906 435.701795 
L 528.136364 441.732286 
L 528.573668 442.469764 
L 529.010972 442.299236 
L 529.448276 442.716698 
L 529.88558 442.378963 
L 530.760188 436.721641 
L 531.634796 423.858956 
L 532.0721 415.226252 
L 532.509404 414.286133 
L 532.946708 409.598827 
L 533.384013 402.490909 
L 533.821317 404.399937 
L 534.258621 403.241675 
L 534.695925 400.410245 
L 535.133229 402.216292 
L 535.570533 397.7881 
L 536.007837 396.535716 
L 536.445141 392.087592 
L 536.882445 380.892538 
L 537.319749 377.256083 
L 537.757053 371.32193 
L 538.194357 354.999962 
L 538.631661 349.742384 
L 539.068966 342.788384 
L 539.943574 322.411392 
L 540.380878 324.727916 
L 540.818182 323.638308 
L 541.255486 322.129024 
L 541.69279 326.109857 
L 542.130094 326.511816 
L 542.567398 327.312412 
L 543.004702 322.67715 
L 543.442006 324.505344 
L 543.87931 322.609603 
L 544.316614 322.731409 
L 544.753918 317.030901 
L 545.191223 318.007561 
L 545.628527 319.58107 
L 546.065831 318.818123 
L 546.940439 309.916339 
L 547.377743 303.01992 
L 547.815047 299.059019 
L 549.126959 284.534239 
L 549.564263 282.544377 
L 550.001567 279.927768 
L 550.438871 283.349402 
L 550.876176 282.153491 
L 551.31348 283.189947 
L 551.750784 278.343186 
L 552.188088 274.852898 
L 552.625392 278.460563 
L 553.062696 272.673683 
L 553.5 274.882796 
L 553.937304 275.935862 
L 554.374608 275.767549 
L 554.811912 276.956816 
L 555.249216 280.860136 
L 555.68652 281.532282 
L 556.123824 285.052467 
L 556.561129 287.415499 
L 556.998433 288.115328 
L 557.435737 290.774015 
L 557.873041 287.292586 
L 558.310345 291.834832 
L 558.747649 291.056383 
L 559.184953 295.926397 
L 559.622257 287.098804 
L 560.059561 282.982877 
L 560.496865 291.048631 
L 560.934169 285.872995 
L 561.371473 287.6425 
L 561.808777 290.529296 
L 562.246082 295.584234 
L 562.683386 297.017112 
L 563.557994 309.804499 
L 563.995298 325.829704 
L 564.432602 334.869904 
L 565.30721 347.44247 
L 565.744514 355.305583 
L 566.619122 375.065795 
L 567.056426 380.501652 
L 567.49373 387.54756 
L 567.931034 396.593297 
L 568.368339 402.12217 
L 568.805643 413.001636 
L 569.242947 417.850611 
L 569.680251 426.096859 
L 570.117555 431.452989 
L 570.554859 432.707588 
L 571.429467 444.039951 
L 571.866771 444.367719 
L 572.304075 451.604087 
L 572.741379 454.970354 
L 573.178683 456.567116 
L 574.053292 464.18994 
L 574.490596 466.882954 
L 574.9279 470.866002 
L 575.365204 479.267275 
L 575.802508 485.195892 
L 577.989028 502.26309 
L 578.426332 510.281229 
L 578.863636 509.211553 
L 579.30094 509.472882 
L 580.612853 518.618277 
L 581.050157 519.359078 
L 581.487461 526.263248 
L 581.924765 524.324322 
L 582.362069 529.453451 
L 582.799373 531.847487 
L 583.236677 532.851831 
L 583.673981 531.340332 
L 584.111285 537.025338 
L 584.548589 539.775933 
L 584.985893 539.970822 
L 585.423197 544.676952 
L 586.297806 550.263406 
L 586.73511 552.238874 
L 587.172414 557.19526 
L 587.609718 553.617493 
L 588.047022 553.765875 
L 588.484326 553.761445 
L 588.92163 553.462468 
L 589.358934 550.098415 
L 589.796238 549.6577 
L 590.233542 547.858297 
L 590.670846 548.095264 
L 591.10815 549.158296 
L 591.545455 544.643733 
L 591.982759 543.66818 
L 592.420063 538.723974 
L 592.857367 540.392713 
L 593.294671 535.294589 
L 593.731975 535.219291 
L 594.169279 531.145443 
L 595.043887 517.690339 
L 595.481191 518.634887 
L 595.918495 518.747834 
L 596.355799 507.657976 
L 596.793103 508.043325 
L 597.230408 494.357898 
L 597.667712 498.995374 
L 598.105016 491.689245 
L 598.54232 489.724851 
L 598.979624 478.880819 
L 599.416928 474.196835 
L 600.291536 468.806378 
L 600.72884 459.029807 
L 601.166144 451.844376 
L 601.603448 449.651873 
L 602.040752 439.337142 
L 602.915361 422.415004 
L 603.352665 422.649757 
L 603.789969 418.799589 
L 604.227273 422.281018 
L 604.664577 419.130679 
L 605.101881 420.0863 
L 605.539185 419.677697 
L 606.413793 403.015781 
L 606.851097 400.548661 
L 607.288401 392.830607 
L 608.163009 383.498073 
L 608.600313 383.687426 
L 609.037618 381.307785 
L 609.474922 372.050549 
L 609.912226 380.849352 
L 610.34953 373.126869 
L 610.786834 368.829341 
L 611.224138 367.198252 
L 611.661442 377.484192 
L 612.53605 365.644675 
L 612.973354 364.923807 
L 613.410658 373.189987 
L 613.847962 378.28811 
L 614.285266 375.814346 
L 614.722571 366.426447 
L 615.159875 365.164096 
L 616.034483 346.583186 
L 616.909091 338.123224 
L 617.783699 313.386695 
L 618.658307 299.449905 
L 619.532915 294.805784 
L 620.407524 269.632969 
L 620.844828 259.170964 
L 621.282132 238.409731 
L 621.719436 243.379405 
L 622.15674 241.461518 
L 622.594044 234.916121 
L 623.468652 206.969458 
L 623.905956 205.585302 
L 624.34326 199.524913 
L 624.780564 199.996633 
L 625.217868 189.171426 
L 625.655172 192.173383 
L 626.092476 188.464953 
L 626.529781 188.803794 
L 626.967085 188.823726 
L 627.404389 188.726281 
L 627.841693 188.782755 
L 628.716301 182.578414 
L 629.153605 191.62415 
L 629.590909 193.591866 
L 630.028213 190.0595 
L 630.902821 200.31665 
L 631.340125 210.767582 
L 631.777429 213.474991 
L 632.214734 220.122262 
L 632.652038 219.016044 
L 633.089342 229.45701 
L 633.526646 229.427112 
L 633.96395 229.86672 
L 634.401254 232.637247 
L 634.838558 233.857519 
L 635.275862 233.802153 
L 635.713166 229.23776 
L 636.15047 228.087249 
L 636.587774 225.432992 
L 637.025078 226.674303 
L 637.462382 215.308721 
L 637.899687 217.815704 
L 638.774295 210.308042 
L 639.211599 208.494244 
L 639.648903 209.415538 
L 640.086207 211.448587 
L 640.523511 199.579172 
L 640.960815 195.35805 
L 641.835423 190.470318 
L 642.272727 185.590337 
L 642.710031 183.386761 
L 643.147335 184.196215 
L 643.584639 187.718616 
L 644.021944 180.694854 
L 644.459248 182.355841 
L 644.896552 182.110015 
L 645.333856 181.273985 
L 645.77116 178.733782 
L 646.208464 180.72143 
L 646.645768 178.545537 
L 647.083072 178.971857 
L 647.520376 173.844943 
L 647.95768 174.961126 
L 648.394984 175.187021 
L 648.832288 181.56189 
L 649.269592 184.116488 
L 649.706897 185.039997 
L 650.144201 188.567934 
L 650.581505 186.858224 
L 651.018809 176.972028 
L 651.456113 176.674158 
L 651.893417 172.868282 
L 652.330721 176.343068 
L 652.768025 172.247073 
L 653.205329 169.565132 
L 653.642633 192.987267 
L 654.517241 208.292711 
L 654.954545 207.354807 
L 655.39185 209.947054 
L 655.829154 208.521927 
L 656.266458 212.809489 
L 656.703762 211.021159 
L 657.141066 216.264342 
L 657.57837 214.123883 
L 658.015674 213.946711 
L 658.890282 223.384441 
L 659.327586 228.113825 
L 659.76489 227.570129 
L 660.202194 229.59764 
L 660.639498 228.674131 
L 661.076803 234.164248 
L 661.514107 234.540738 
L 661.951411 237.971231 
L 662.388715 240.182558 
L 662.826019 241.192439 
L 663.263323 244.688263 
L 663.700627 245.35598 
L 664.137931 248.341328 
L 664.575235 250.150696 
L 665.012539 254.91773 
L 665.449843 261.292599 
L 665.887147 263.138509 
L 666.324451 268.214486 
L 666.761755 276.128537 
L 667.19906 274.666868 
L 667.636364 278.773936 
L 668.073668 290.455105 
L 669.822884 314.666762 
L 670.260188 317.103984 
L 671.5721 334.754742 
L 672.009404 337.409 
L 672.446708 344.035231 
L 672.884013 344.370751 
L 673.321317 343.211382 
L 673.758621 340.758657 
L 674.195925 337.38796 
L 674.633229 337.187535 
L 675.070533 338.392304 
L 675.507837 332.643074 
L 675.945141 329.476125 
L 676.382445 332.052869 
L 676.819749 336.151079 
L 677.257053 335.353805 
L 677.694357 330.787197 
L 678.131661 330.89793 
L 678.568966 332.898866 
L 679.00627 332.410535 
L 679.443574 310.021535 
L 679.880878 336.546394 
L 680.318182 340.848351 
L 680.755486 342.091876 
L 681.19279 345.439319 
L 681.630094 346.281993 
L 682.067398 346.295281 
L 682.504702 349.141106 
L 682.942006 350.837528 
L 683.37931 354.252518 
L 683.816614 349.073559 
L 684.253918 350.761122 
L 684.691223 350.610526 
L 685.128527 353.248174 
L 685.565831 354.152858 
L 686.003135 356.081818 
L 686.440439 352.675687 
L 686.877743 353.315721 
L 687.752351 352.763166 
L 688.189655 349.381396 
L 688.626959 348.354906 
L 689.064263 345.003033 
L 689.501567 344.938808 
L 689.938871 344.0153 
L 690.376176 344.454907 
L 690.81348 343.719644 
L 691.250784 345.623135 
L 691.688088 345.154737 
L 692.125392 341.246987 
L 692.562696 340.605846 
L 693 338.453207 
L 693.437304 332.196822 
L 693.874608 336.359256 
L 694.311912 334.480125 
L 695.18652 332.139241 
L 695.623824 337.989238 
L 696.061129 340.213853 
L 696.498433 343.077395 
L 696.935737 344.838042 
L 697.373041 345.597667 
L 697.810345 340.983444 
L 698.247649 341.940173 
L 698.684953 341.554824 
L 699.122257 338.315899 
L 699.996865 342.35542 
L 700.434169 340.114194 
L 700.871473 339.419902 
L 701.308777 333.089326 
L 701.746082 334.871011 
L 702.183386 333.399376 
L 702.62069 333.907639 
L 703.057994 332.144777 
L 703.495298 339.413258 
L 703.932602 340.763087 
L 704.80721 344.364107 
L 705.244514 343.923392 
L 705.681818 344.110529 
L 706.119122 347.315128 
L 706.556426 343.14605 
L 706.99373 341.549287 
L 707.431034 340.643495 
L 707.868339 342.837106 
L 708.305643 347.036082 
L 708.742947 347.11138 
L 709.180251 345.763765 
L 709.617555 349.157716 
L 710.054859 349.117852 
L 710.492163 345.779268 
L 710.929467 347.709335 
L 711.366771 345.469217 
L 711.804075 347.47569 
L 712.241379 343.863596 
L 712.678683 337.682509 
L 713.115987 335.979443 
L 713.553292 337.645967 
L 713.990596 338.761043 
L 714.4279 335.079188 
L 714.865204 339.735489 
L 715.302508 341.078674 
L 715.739812 332.13149 
L 716.177116 333.773652 
L 716.61442 334.032766 
L 717.051724 327.434218 
L 717.489028 323.506537 
L 717.926332 328.592479 
L 718.363636 336.368114 
L 718.80094 328.65006 
L 719.238245 328.04989 
L 719.675549 329.741883 
L 720.112853 332.825782 
L 720.550157 326.872804 
L 720.987461 327.531662 
L 721.424765 324.706877 
L 721.862069 325.000318 
L 722.736677 319.318634 
L 723.173981 318.090611 
L 723.611285 313.106542 
L 724.485893 309.328349 
L 724.923197 313.762078 
L 725.360502 309.030479 
L 725.797806 308.873239 
L 726.23511 304.405183 
L 726.672414 307.352882 
L 727.109718 308.965147 
L 727.547022 315.043253 
L 727.984326 318.709605 
L 728.42163 313.628092 
L 728.858934 316.283457 
L 729.733542 324.871868 
L 730.170846 309.045982 
L 730.60815 315.828346 
L 731.045455 320.225533 
L 731.482759 321.680558 
L 731.920063 312.883969 
L 732.357367 315.140697 
L 732.794671 320.130303 
L 733.231975 320.633029 
L 733.669279 327.064371 
L 734.106583 341.602439 
L 734.543887 338.123224 
L 734.981191 330.622206 
L 735.418495 331.788219 
L 735.855799 336.695882 
L 736.293103 337.658148 
L 736.730408 334.650654 
L 737.167712 337.809851 
L 737.605016 343.752864 
L 738.04232 328.303468 
L 738.479624 328.93575 
L 738.916928 340.316835 
L 739.354232 340.53387 
L 739.791536 324.459943 
L 740.22884 324.839756 
L 740.666144 329.488305 
L 741.103448 318.036352 
L 741.540752 310.659354 
L 741.978056 323.664884 
L 742.415361 333.345118 
L 742.852665 321.507815 
L 743.289969 317.773916 
L 744.164577 318.400662 
L 744.601881 302.644537 
L 745.039185 301.531675 
L 745.476489 309.890871 
L 745.913793 303.029886 
L 746.788401 315.965654 
L 747.663009 309.074772 
L 748.100313 317.194785 
L 748.537618 322.599637 
L 748.974922 317.278942 
L 749.412226 303.470601 
L 749.84953 305.257823 
L 750.286834 310.3338 
L 750.724138 302.233719 
L 751.161442 305.781588 
L 751.598746 313.403305 
L 752.03605 312.016934 
L 752.473354 296.311746 
L 752.910658 295.774694 
L 753.347962 287.42325 
L 753.785266 290.347695 
L 754.222571 288.456384 
L 754.659875 296.622904 
L 755.097179 297.025971 
L 755.534483 295.626312 
L 755.971787 296.891984 
L 756.409091 303.888063 
L 756.846395 305.426137 
L 757.283699 302.035508 
L 757.721003 302.646752 
L 758.158307 300.112085 
L 758.595611 293.875632 
L 759.032915 281.933133 
L 759.470219 281.504599 
L 759.907524 281.707239 
L 760.344828 287.815243 
L 760.782132 290.983299 
L 761.219436 290.341051 
L 761.65674 291.414049 
L 762.094044 284.631684 
L 762.531348 287.508514 
L 762.968652 294.958595 
L 763.84326 284.032621 
L 764.280564 287.147526 
L 764.717868 282.228789 
L 765.155172 280.380664 
L 765.592476 290.871459 
L 766.029781 285.785516 
L 766.467085 282.255365 
L 766.904389 273.263887 
L 767.341693 277.998808 
L 767.778997 277.820529 
L 768.216301 276.476237 
L 768.653605 266.255629 
L 769.090909 264.947878 
L 769.528213 270.095831 
L 770.402821 265.146089 
L 770.840125 265.819343 
L 771.277429 272.391315 
L 771.714734 264.747452 
L 772.152038 266.662017 
L 772.589342 261.522922 
L 773.026646 258.029312 
L 773.46395 255.54669 
L 773.901254 257.002822 
L 774.338558 267.061761 
L 774.775862 266.738422 
L 775.213166 268.120364 
L 775.65047 267.027434 
L 776.087774 267.883396 
L 776.525078 265.159377 
L 776.962382 264.98442 
L 777.399687 264.440723 
L 777.836991 270.05486 
L 778.274295 266.738422 
L 778.711599 265.839274 
L 779.148903 269.865507 
L 779.586207 269.5167 
L 780.023511 272.195319 
L 780.460815 271.190975 
L 780.898119 279.587819 
L 781.335423 278.247956 
L 781.772727 281.252129 
L 782.210031 280.264395 
L 782.647335 281.887733 
L 783.084639 277.869251 
L 783.521944 277.83271 
L 783.959248 287.200678 
L 784.396552 291.494883 
L 784.833856 292.124951 
L 785.27116 288.203914 
L 785.708464 295.031679 
L 786.145768 295.145733 
L 786.583072 291.618904 
L 787.020376 292.037472 
L 787.45768 297.051439 
L 788.332288 291.004338 
L 788.769592 294.185683 
L 789.206897 295.601951 
L 789.644201 296.539855 
L 790.081505 298.915067 
L 790.518809 304.149391 
L 790.956113 302.937978 
L 791.393417 299.342494 
L 791.830721 299.165322 
L 792.268025 301.15297 
L 792.705329 305.454927 
L 793.142633 305.08951 
L 794.017241 310.537548 
L 794.454545 317.330986 
L 794.89185 318.478174 
L 795.329154 324.252873 
L 795.766458 323.83209 
L 796.203762 329.27127 
L 796.641066 330.189242 
L 797.07837 333.553295 
L 797.515674 335.00389 
L 797.952978 339.464195 
L 798.390282 345.960869 
L 798.827586 347.854395 
L 799.26489 346.050563 
L 799.702194 338.310362 
L 800.139498 337.712407 
L 800.576803 337.691367 
L 801.014107 338.723394 
L 801.451411 336.891879 
L 801.888715 338.27382 
L 802.326019 342.137277 
L 802.763323 340.714364 
L 803.200627 338.124331 
L 803.637931 336.230806 
L 804.075235 335.534299 
L 804.512539 336.296138 
L 804.949843 334.880977 
L 805.387147 334.073737 
L 805.824451 337.99256 
L 806.261755 335.027144 
L 806.69906 337.528591 
L 807.136364 333.620841 
L 808.010972 339.175183 
L 808.448276 340.145199 
L 808.88558 339.042304 
L 809.760188 351.794256 
L 810.197492 353.489571 
L 810.634796 356.636588 
L 811.0721 357.171426 
L 811.509404 361.834371 
L 811.946708 361.401407 
L 812.384013 362.929515 
L 812.821317 362.685903 
L 813.258621 368.860347 
L 813.695925 370.804809 
L 814.133229 376.36358 
L 815.007837 383.193559 
L 815.882445 402.960414 
L 816.319749 407.579066 
L 817.194357 414.041414 
L 818.068966 423.207849 
L 818.50627 425.835531 
L 818.943574 425.449074 
L 819.818182 431.616874 
L 820.255486 432.659974 
L 820.69279 431.393194 
L 821.130094 424.696093 
L 821.567398 430.144132 
L 822.442006 424.302993 
L 822.87931 423.598734 
L 823.316614 423.305293 
L 823.753918 420.586811 
L 824.191223 420.779485 
L 824.628527 417.144138 
L 825.065831 416.220629 
L 825.503135 417.140816 
L 825.940439 419.470628 
L 826.377743 413.073612 
L 826.815047 412.070376 
L 827.252351 412.760239 
L 827.689655 413.114583 
L 828.126959 412.445759 
L 828.564263 410.093801 
L 829.001567 409.092779 
L 829.438871 409.192439 
L 829.876176 403.817484 
L 830.31348 404.099852 
L 830.750784 402.173107 
L 831.188088 404.457518 
L 831.625392 401.564078 
L 832.062696 400.836565 
L 832.5 400.959479 
L 832.937304 400.475578 
L 833.374608 398.176771 
L 833.811912 402.620466 
L 834.249216 405.220464 
L 834.68652 403.425491 
L 835.123824 402.176428 
L 835.561129 405.219357 
L 835.998433 404.890482 
L 836.435737 403.081113 
L 836.873041 403.553941 
L 837.310345 404.876086 
L 837.747649 400.485543 
L 838.184953 401.907349 
L 838.622257 401.588439 
L 839.059561 403.850704 
L 839.934169 391.98904 
L 840.371473 392.619108 
L 840.808777 392.98231 
L 841.683386 389.719024 
L 842.12069 388.928394 
L 842.557994 391.129756 
L 842.995298 390.908291 
L 843.432602 391.494066 
L 843.869906 394.938953 
L 844.30721 395.696364 
L 844.744514 396.024132 
L 845.181818 398.704965 
L 845.619122 399.009479 
L 846.056426 402.191931 
L 846.49373 397.753773 
L 846.931034 405.069868 
L 847.368339 417.125314 
L 848.242947 452.065841 
L 848.680251 473.747261 
L 849.554859 502.979529 
L 850.429467 542.247482 
L 850.866771 554.793472 
L 851.304075 559.28146 
L 851.741379 559.114254 
L 852.178683 561.027711 
L 852.615987 558.282653 
L 853.053292 560.039977 
L 853.490596 562.602327 
L 854.365204 555.363744 
L 856.11442 546.327974 
L 856.551724 542.126783 
L 856.989028 543.362558 
L 857.863636 537.148251 
L 858.30094 540.449186 
L 858.738245 539.433769 
L 859.175549 534.075425 
L 859.612853 534.643482 
L 860.050157 532.41333 
L 860.924765 524.782755 
L 861.362069 528.187779 
L 861.799373 521.981223 
L 862.236677 523.971086 
L 862.673981 529.470061 
L 863.111285 521.987867 
L 863.548589 517.399113 
L 863.985893 523.686503 
L 864.423197 525.209075 
L 864.860502 529.189908 
L 865.297806 534.536072 
L 865.73511 537.535815 
L 866.172414 533.207282 
L 866.609718 536.833771 
L 867.047022 539.515711 
L 867.484326 534.613585 
L 868.358934 521.145193 
L 868.796238 506.563939 
L 869.233542 476.001774 
L 869.670846 474.888913 
L 870.982759 445.240291 
L 871.857367 388.419025 
L 872.294671 383.521327 
L 872.731975 369.178149 
L 873.169279 362.763416 
L 873.606583 353.488463 
L 874.043887 348.489999 
L 874.481191 341.863767 
L 874.918495 342.550309 
L 875.355799 338.249459 
L 875.793103 343.906782 
L 876.230408 340.234893 
L 876.667712 344.578928 
L 877.105016 332.199036 
L 877.54232 335.652782 
L 877.979624 327.012327 
L 878.416928 323.81548 
L 878.854232 318.829196 
L 879.291536 315.829454 
L 879.72884 315.857137 
L 880.166144 318.339759 
L 880.603448 314.369999 
L 881.040752 313.457564 
L 881.478056 314.724343 
L 881.915361 317.296659 
L 882.352665 316.17051 
L 882.789969 318.664205 
L 883.227273 324.090097 
L 884.101881 323.648274 
L 884.539185 324.788819 
L 884.976489 321.366078 
L 885.413793 319.393932 
L 885.851097 319.226726 
L 886.288401 324.942737 
L 886.725705 325.565053 
L 887.163009 330.728509 
L 887.600313 325.793162 
L 888.037618 322.650574 
L 888.474922 321.831154 
L 888.912226 320.210031 
L 889.34953 325.653639 
L 889.786834 322.563096 
L 890.224138 322.281835 
L 890.661442 322.358241 
L 891.098746 322.09359 
L 891.53605 324.385752 
L 892.410658 320.948616 
L 892.847962 320.54555 
L 893.285266 324.447763 
L 893.722571 322.368207 
L 894.159875 324.05134 
L 894.597179 324.38686 
L 895.034483 327.851679 
L 895.909091 331.405084 
L 896.346395 350.967085 
L 896.783699 362.208646 
L 897.221003 367.806173 
L 897.658307 364.911626 
L 898.095611 366.159581 
L 898.532915 367.931301 
L 898.970219 372.014008 
L 899.407524 371.953105 
L 899.844828 376.246203 
L 900.282132 378.213919 
L 900.719436 375.670394 
L 901.15674 373.84663 
L 901.594044 374.324995 
L 902.031348 375.98266 
L 902.468652 375.145522 
L 902.905956 374.876442 
L 903.780564 376.899525 
L 904.217868 377.510768 
L 904.655172 376.816475 
L 905.092476 372.707193 
L 905.529781 375.397992 
L 905.967085 372.618607 
L 906.404389 372.594246 
L 906.841693 371.290925 
L 908.153605 364.763245 
L 908.590909 359.559925 
L 909.028213 358.596553 
L 909.465517 358.450386 
L 910.340125 353.265891 
L 910.777429 351.848515 
L 911.214734 354.083097 
L 912.089342 355.179348 
L 912.526646 353.342297 
L 912.96395 353.672279 
L 913.838558 357.842465 
L 914.275862 364.548424 
L 914.713166 366.559326 
L 915.15047 366.81844 
L 915.587774 365.340161 
L 916.025078 361.595188 
L 916.462382 363.197487 
L 916.899687 358.656348 
L 917.336991 348.802265 
L 917.774295 351.842979 
L 918.211599 347.005077 
L 918.648903 339.200651 
L 919.086207 342.222541 
L 919.523511 339.990174 
L 919.960815 336.207552 
L 920.398119 326.667949 
L 920.835423 324.209688 
L 921.272727 325.612668 
L 921.710031 324.083453 
L 922.147335 306.791468 
L 922.584639 322.033794 
L 923.021944 326.614797 
L 923.459248 325.300403 
L 923.896552 320.090439 
L 924.333856 322.456793 
L 924.77116 321.698275 
L 925.208464 321.636265 
L 925.645768 318.731752 
L 926.083072 317.441718 
L 926.520376 322.062585 
L 926.95768 323.064714 
L 927.394984 317.224683 
L 927.832288 314.63465 
L 928.269592 318.451599 
L 928.706897 314.529454 
L 929.144201 315.1108 
L 929.581505 312.930477 
L 930.018809 309.140104 
L 930.456113 308.931927 
L 930.893417 308.253137 
L 931.330721 305.797091 
L 931.768025 300.165237 
L 932.205329 302.682186 
L 932.642633 298.691387 
L 933.079937 285.913966 
L 933.517241 287.322483 
L 933.954545 287.975805 
L 933.954545 287.975805 
" style="fill:none;stroke:#ff0000;stroke-linecap:square;stroke-width:1.5;"/>
   </g>
   <g id="line2d_34">
    <path clip-path="url(#pc2f247da22)" d="M 173.045455 483.428602 
L 174.794671 491.270676 
L 175.669279 494.055598 
L 176.543887 497.989923 
L 177.418495 500.753806 
L 178.293103 502.323993 
L 178.730408 502.409257 
L 179.167712 502.348354 
L 179.605016 502.500057 
L 180.04232 503.135662 
L 180.479624 504.060278 
L 180.916928 505.53302 
L 183.103448 516.346047 
L 184.415361 522.58693 
L 185.289969 526.275429 
L 186.164577 527.722702 
L 186.601881 527.656263 
L 187.039185 526.922106 
L 187.913793 523.233607 
L 188.788401 519.178584 
L 189.663009 516.09247 
L 190.100313 514.984037 
L 190.537618 513.414958 
L 190.974922 512.369643 
L 191.412226 510.645539 
L 192.724138 507.811895 
L 193.161442 505.231828 
L 194.473354 494.651339 
L 194.910658 491.02928 
L 195.347962 488.963011 
L 195.785266 487.849043 
L 196.659875 484.65884 
L 197.097179 483.449641 
L 197.534483 482.674514 
L 198.409091 480.527411 
L 199.283699 477.350496 
L 200.158307 476.408163 
L 200.595611 475.638572 
L 201.470219 472.838147 
L 202.344828 471.297859 
L 202.782132 470.18389 
L 203.219436 468.601523 
L 204.531348 461.302037 
L 204.968652 460.54352 
L 205.405956 460.604423 
L 206.280564 460.095053 
L 206.717868 459.020948 
L 207.592476 455.673505 
L 208.029781 454.9017 
L 208.467085 456.44974 
L 209.341693 464.52546 
L 210.216301 471.66992 
L 210.653605 473.211316 
L 211.090909 474.135932 
L 211.528213 474.522388 
L 211.965517 473.89675 
L 212.840125 470.833889 
L 213.277429 468.487468 
L 213.714734 465.296158 
L 214.589342 455.632534 
L 215.901254 440.450004 
L 216.775862 433.527009 
L 217.65047 428.315938 
L 218.525078 425.638427 
L 218.962382 425.338342 
L 219.399687 425.509977 
L 220.274295 427.432293 
L 222.023511 438.131265 
L 222.460815 443.264823 
L 223.772727 461.26771 
L 224.647335 468.807485 
L 225.084639 471.021027 
L 225.521944 471.991044 
L 225.959248 471.525967 
L 226.396552 470.425287 
L 227.27116 467.022477 
L 227.708464 464.90638 
L 228.145768 462.022906 
L 229.894984 446.43288 
L 230.332288 446.137224 
L 230.769592 444.541569 
L 231.644201 440.167636 
L 232.081505 438.645064 
L 232.518809 437.88101 
L 232.956113 438.072577 
L 233.393417 438.921895 
L 233.830721 440.678113 
L 234.268025 445.360989 
L 234.705329 447.780494 
L 235.579937 450.831174 
L 236.017241 451.692673 
L 236.454545 451.681599 
L 236.89185 451.353831 
L 238.203762 448.320868 
L 239.952978 442.116527 
L 240.827586 438.241998 
L 241.26489 435.664146 
L 243.014107 420.160491 
L 246.075235 388.871921 
L 247.824451 377.257191 
L 248.261755 376.465453 
L 250.010972 370.416138 
L 250.448276 369.327638 
L 251.760188 364.000298 
L 252.634796 361.150044 
L 253.0721 360.96955 
L 253.509404 361.364865 
L 253.946708 361.476705 
L 254.821317 361.879771 
L 255.258621 361.402514 
L 255.695925 360.699363 
L 256.133229 359.319636 
L 257.445141 352.603711 
L 258.319749 349.386932 
L 259.194357 346.558825 
L 260.068966 342.981058 
L 260.943574 337.390175 
L 261.380878 333.714964 
L 262.255486 324.941629 
L 263.130094 319.712842 
L 264.004702 315.889249 
L 264.442006 314.914803 
L 264.87931 314.505093 
L 265.753918 312.816423 
L 266.191223 312.24615 
L 267.065831 311.764464 
L 267.503135 311.383544 
L 267.940439 311.547428 
L 268.377743 311.464379 
L 268.815047 312.106627 
L 270.126959 314.909267 
L 270.564263 315.285757 
L 271.001567 316.045382 
L 271.438871 317.202536 
L 272.750784 319.763779 
L 273.188088 320.989587 
L 273.625392 321.77911 
L 274.062696 321.219911 
L 274.937304 319.410542 
L 275.374608 319.018549 
L 275.811912 319.053983 
L 276.249216 319.224511 
L 276.68652 319.666334 
L 277.998433 324.054662 
L 278.435737 324.514202 
L 278.873041 325.201851 
L 279.310345 326.26599 
L 279.747649 326.752106 
L 280.184953 326.711135 
L 280.622257 326.863945 
L 281.059561 327.310197 
L 281.496865 327.137455 
L 281.934169 327.237114 
L 282.371473 327.646824 
L 283.246082 328.984472 
L 283.683386 330.02868 
L 284.12069 331.384045 
L 284.557994 333.179019 
L 287.181818 347.717086 
L 288.49373 352.135312 
L 289.805643 355.086333 
L 291.992163 360.296296 
L 292.429467 360.652855 
L 292.866771 361.177727 
L 293.304075 361.936244 
L 293.741379 362.266227 
L 294.178683 362.357028 
L 294.615987 362.681474 
L 295.490596 362.86529 
L 296.365204 363.299361 
L 296.802508 363.913927 
L 297.239812 364.811967 
L 297.677116 365.051149 
L 298.11442 365.076618 
L 298.551724 364.783177 
L 299.426332 363.02253 
L 300.30094 361.266313 
L 300.738245 360.434712 
L 301.175549 360.243145 
L 301.612853 360.909754 
L 302.924765 363.673637 
L 303.799373 366.159581 
L 305.111285 369.183685 
L 306.423197 371.391691 
L 306.860502 372.109238 
L 307.297806 373.631809 
L 308.172414 377.407787 
L 308.609718 378.517326 
L 309.484326 381.312214 
L 309.92163 382.58453 
L 310.358934 383.233423 
L 310.796238 383.393985 
L 311.233542 383.009743 
L 311.670846 382.097307 
L 312.545455 378.828485 
L 312.982759 377.501909 
L 313.420063 376.623801 
L 314.294671 376.394585 
L 314.731975 376.072353 
L 315.169279 375.420139 
L 315.606583 375.114517 
L 316.043887 375.464432 
L 316.481191 376.379082 
L 317.355799 379.743135 
L 319.54232 390.476434 
L 319.979624 392.123026 
L 320.854232 394.181543 
L 321.72884 395.637675 
L 322.603448 397.162462 
L 323.040752 397.298663 
L 323.478056 397.261014 
L 323.915361 397.042871 
L 324.352665 396.556755 
L 326.101881 393.338869 
L 326.539185 391.887166 
L 327.413793 389.658121 
L 327.851097 388.393556 
L 328.288401 387.713659 
L 328.725705 386.799009 
L 329.163009 385.55659 
L 329.600313 383.895603 
L 330.474922 378.531722 
L 332.224138 365.888287 
L 332.661442 363.700213 
L 333.53605 357.308734 
L 334.847962 342.885828 
L 335.722571 337.457722 
L 336.159875 335.750227 
L 336.597179 334.746991 
L 337.034483 334.614112 
L 337.471787 335.316156 
L 338.346395 338.51411 
L 338.783699 340.405421 
L 339.658307 343.321007 
L 340.532915 347.047155 
L 341.844828 350.60499 
L 342.282132 351.237272 
L 342.719436 351.037954 
L 343.15674 349.856438 
L 344.468652 342.419644 
L 345.34326 336.280636 
L 346.217868 328.880384 
L 348.404389 315.047682 
L 349.278997 309.073665 
L 350.590909 298.704675 
L 351.028213 296.148969 
L 351.465517 294.802462 
L 352.777429 293.07725 
L 353.652038 292.928869 
L 354.089342 292.984235 
L 354.526646 293.77265 
L 355.838558 297.162172 
L 356.275862 298.362512 
L 357.15047 299.645901 
L 357.587774 299.477588 
L 358.899687 297.003824 
L 359.336991 294.082701 
L 360.211599 287.117628 
L 361.086207 281.864479 
L 361.960815 276.995572 
L 362.835423 273.536289 
L 363.710031 266.967638 
L 364.584639 259.505376 
L 365.896552 252.378634 
L 366.333856 250.682212 
L 366.77116 250.513899 
L 367.208464 251.234767 
L 367.645768 252.886896 
L 368.520376 257.829994 
L 368.95768 258.600692 
L 369.394984 258.865343 
L 369.832288 260.723434 
L 370.706897 265.499326 
L 371.581505 274.593784 
L 372.893417 280.841311 
L 373.330721 279.47598 
L 374.205329 271.391401 
L 374.642633 268.409375 
L 375.517241 263.70103 
L 375.954545 261.257164 
L 376.39185 259.618324 
L 376.829154 259.004866 
L 377.266458 260.759975 
L 377.703762 267.168064 
L 379.015674 290.511579 
L 379.452978 297.514301 
L 379.890282 300.011318 
L 380.327586 299.308167 
L 380.76489 299.51413 
L 381.202194 298.810978 
L 381.639498 295.082616 
L 382.514107 286.331428 
L 382.951411 282.372741 
L 384.263323 275.466356 
L 384.700627 275.795232 
L 385.137931 278.572403 
L 386.012539 285.922825 
L 390.822884 338.618198 
L 393.884013 371.215626 
L 394.758621 382.183679 
L 396.507837 401.516463 
L 399.568966 459.994287 
L 400.880878 488.903216 
L 401.755486 504.683702 
L 402.19279 510.327737 
L 402.630094 513.762658 
L 403.067398 516.169982 
L 403.504702 517.923985 
L 403.942006 518.655926 
L 404.37931 518.178669 
L 405.253918 515.507802 
L 405.691223 513.48029 
L 406.128527 512.299882 
L 406.565831 511.738468 
L 407.003135 510.708656 
L 407.440439 510.013256 
L 407.877743 509.766323 
L 408.315047 510.028759 
L 408.752351 510.424074 
L 409.189655 511.003205 
L 409.626959 511.99426 
L 410.064263 513.717258 
L 410.501567 514.82569 
L 410.938871 514.597581 
L 411.376176 514.626371 
L 411.81348 515.336167 
L 412.250784 515.150136 
L 412.688088 513.316406 
L 413.562696 508.113087 
L 415.311912 494.969141 
L 415.749216 491.515395 
L 416.18652 489.036095 
L 417.061129 487.402791 
L 417.498433 487.434903 
L 417.935737 488.460286 
L 418.810345 491.857558 
L 419.247649 492.880727 
L 420.559561 497.123995 
L 420.996865 499.764965 
L 421.871473 507.11428 
L 424.932602 538.673037 
L 427.99373 564.810332 
L 428.431034 567.830007 
L 429.305643 571.877279 
L 430.180251 574.114076 
L 430.617555 575.770633 
L 431.492163 580.796781 
L 432.804075 588.33877 
L 433.241379 589.616623 
L 433.678683 590.430507 
L 434.115987 590.526844 
L 434.553292 589.977611 
L 434.990596 589.033063 
L 435.865204 585.343457 
L 437.61442 576.179236 
L 438.489028 572.581538 
L 438.926332 571.323617 
L 439.363636 570.901726 
L 439.80094 571.176343 
L 440.238245 572.106496 
L 440.675549 572.564928 
L 441.112853 572.673446 
L 441.550157 572.611436 
L 441.987461 571.453174 
L 442.424765 568.825492 
L 442.862069 565.307521 
L 444.173981 549.700885 
L 446.360502 526.071681 
L 447.672414 511.230206 
L 448.547022 498.366414 
L 452.482759 437.154605 
L 453.357367 421.614408 
L 455.981191 383.927715 
L 456.855799 370.099443 
L 458.167712 353.418702 
L 459.479624 342.537021 
L 460.791536 327.596994 
L 462.103448 311.536355 
L 462.978056 302.600244 
L 463.852665 291.00766 
L 465.164577 268.695065 
L 466.039185 252.81492 
L 467.351097 237.889289 
L 468.225705 229.741593 
L 468.663009 226.331032 
L 469.537618 221.947133 
L 470.84953 215.069539 
L 472.161442 206.693734 
L 473.03605 202.086155 
L 473.473354 199.437434 
L 473.910658 197.483006 
L 474.347962 196.253875 
L 474.785266 195.800979 
L 475.222571 196.016908 
L 475.659875 196.366822 
L 476.534483 197.353449 
L 477.846395 200.63113 
L 479.595611 207.96605 
L 480.032915 210.172948 
L 480.470219 211.106423 
L 480.907524 211.309064 
L 481.344828 209.598247 
L 481.782132 206.507703 
L 482.219436 201.8359 
L 483.094044 188.982073 
L 484.405956 164.344096 
L 486.155172 133.744282 
L 487.029781 123.823759 
L 487.904389 116.326062 
L 488.341693 113.853406 
L 488.778997 112.376235 
L 489.216301 111.6 
L 489.653605 111.929983 
L 490.090909 112.651959 
L 490.528213 114.60528 
L 491.402821 119.981342 
L 492.277429 126.736023 
L 493.152038 135.312254 
L 494.46395 152.425959 
L 497.525078 198.041098 
L 498.399687 207.814346 
L 498.836991 211.166219 
L 499.274295 213.554718 
L 499.711599 214.536915 
L 500.148903 214.845859 
L 500.586207 214.344241 
L 501.023511 212.870392 
L 505.396552 187.584629 
L 506.27116 184.217254 
L 506.708464 183.156437 
L 507.145768 182.91947 
L 507.583072 183.544001 
L 508.45768 185.375516 
L 508.894984 187.913505 
L 509.332288 191.443656 
L 510.206897 201.829256 
L 511.081505 215.475927 
L 512.393417 240.338691 
L 513.705329 270.019426 
L 515.454545 310.092404 
L 516.329154 326.664627 
L 517.641066 347.335059 
L 522.014107 407.446187 
L 523.763323 428.536296 
L 524.637931 436.639699 
L 525.512539 442.318061 
L 525.949843 444.928025 
L 526.387147 446.756218 
L 526.824451 447.979812 
L 527.261755 450.072656 
L 529.448276 457.293521 
L 529.88558 458.049824 
L 530.322884 458.234748 
L 530.760188 457.632363 
L 531.197492 456.027849 
L 531.634796 452.946164 
L 532.0721 448.537904 
L 533.384013 429.49081 
L 534.695925 408.615522 
L 535.570533 398.34287 
L 536.445141 390.473112 
L 536.882445 387.096879 
L 537.757053 378.01903 
L 538.194357 373.090327 
L 539.068966 359.203367 
L 539.943574 343.013171 
L 540.818182 325.584985 
L 541.69279 313.398876 
L 542.130094 309.776816 
L 542.567398 308.002882 
L 543.004702 307.326306 
L 543.442006 307.111485 
L 543.87931 307.289764 
L 544.316614 307.79249 
L 544.753918 308.596408 
L 545.628527 309.811143 
L 546.503135 312.157564 
L 546.940439 312.779881 
L 547.377743 312.724515 
L 547.815047 311.164294 
L 548.252351 308.560973 
L 549.126959 301.370006 
L 550.438871 287.698974 
L 550.876176 284.24855 
L 551.31348 281.800254 
L 552.625392 276.905879 
L 553.937304 274.366783 
L 554.374608 274.666868 
L 554.811912 275.275897 
L 555.249216 276.320104 
L 556.123824 280.608773 
L 556.998433 286.668054 
L 558.310345 295.814557 
L 559.622257 302.842748 
L 560.059561 304.071879 
L 560.496865 303.532611 
L 560.934169 303.679886 
L 561.371473 303.612339 
L 561.808777 303.356547 
L 562.246082 303.44624 
L 562.683386 304.674263 
L 563.12069 306.283206 
L 563.557994 308.867702 
L 563.995298 312.427752 
L 564.432602 318.565653 
L 565.744514 344.877906 
L 567.056426 375.363665 
L 568.805643 414.300528 
L 570.554859 449.356217 
L 571.429467 461.66524 
L 572.304075 471.312254 
L 573.615987 481.185162 
L 574.490596 485.010969 
L 575.365204 487.949809 
L 575.802508 490.299552 
L 577.11442 500.378423 
L 578.863636 515.647325 
L 579.738245 522.982245 
L 581.050157 531.205239 
L 583.236677 542.54646 
L 583.673981 544.423375 
L 584.111285 545.413323 
L 585.860502 550.734019 
L 587.172414 556.049178 
L 587.609718 558.246111 
L 588.047022 559.678989 
L 588.484326 560.538273 
L 588.92163 560.921408 
L 589.358934 561.087506 
L 589.796238 560.341169 
L 590.233542 558.997984 
L 591.545455 553.243217 
L 592.420063 547.577036 
L 594.606583 528.425853 
L 595.481191 517.73574 
L 598.979624 472.69198 
L 602.915361 415.045758 
L 603.789969 399.539888 
L 604.664577 387.67601 
L 605.101881 383.451566 
L 605.539185 380.326695 
L 606.413793 376.018094 
L 607.288401 369.097314 
L 608.163009 360.808988 
L 609.037618 352.240508 
L 610.786834 339.742133 
L 611.661442 334.127996 
L 612.098746 333.438133 
L 612.53605 333.798013 
L 613.410658 332.71062 
L 613.847962 333.594266 
L 614.722571 340.061043 
L 615.159875 341.840514 
L 615.597179 342.378673 
L 616.034483 341.557038 
L 616.471787 338.09997 
L 617.346395 327.663434 
L 617.783699 320.288651 
L 618.658307 299.62154 
L 619.532915 278.033135 
L 620.844828 250.180594 
L 623.031348 199.487264 
L 624.780564 167.21096 
L 625.655172 156.781067 
L 626.529781 150.58337 
L 626.967085 148.783968 
L 627.404389 148.316676 
L 627.841693 148.680986 
L 628.716301 150.928856 
L 629.153605 151.606538 
L 629.590909 153.711563 
L 630.902821 163.690774 
L 631.340125 168.336002 
L 632.214734 181.420152 
L 633.96395 209.674652 
L 634.838558 220.203097 
L 635.275862 224.487336 
L 635.713166 227.500367 
L 636.15047 229.057266 
L 636.587774 229.433756 
L 637.025078 228.420554 
L 637.462382 227.057437 
L 638.336991 219.752415 
L 640.960815 193.425768 
L 642.710031 172.652354 
L 643.584639 163.782682 
L 644.459248 159.216075 
L 644.896552 157.493077 
L 645.333856 156.38686 
L 646.208464 155.236349 
L 646.645768 155.020421 
L 647.520376 155.224169 
L 647.95768 155.072465 
L 648.394984 154.71037 
L 648.832288 154.86761 
L 649.269592 156.050233 
L 650.144201 161.601252 
L 651.018809 168.334895 
L 651.456113 169.939408 
L 651.893417 170.361299 
L 652.330721 170.274928 
L 652.768025 170.582764 
L 653.205329 170.623735 
L 653.642633 169.789919 
L 654.079937 172.228249 
L 654.517241 177.812488 
L 655.829154 198.30907 
L 656.703762 209.081126 
L 657.57837 217.135807 
L 658.015674 220.293897 
L 662.826019 243.628553 
L 665.449843 259.086808 
L 666.761755 270.981691 
L 667.636364 280.781516 
L 668.073668 284.955023 
L 668.948276 296.669412 
L 672.009404 341.605761 
L 673.321317 357.482584 
L 673.758621 361.095785 
L 674.195925 363.375767 
L 674.633229 364.235051 
L 675.070533 364.117674 
L 675.507837 363.523041 
L 675.945141 361.941781 
L 676.819749 356.778325 
L 677.257053 355.084118 
L 677.694357 353.974579 
L 679.00627 348.516575 
L 679.443574 347.575349 
L 679.880878 343.529184 
L 680.318182 340.942473 
L 680.755486 342.492728 
L 681.19279 344.914447 
L 682.942006 358.043998 
L 684.253918 367.452937 
L 685.128527 370.727296 
L 686.003135 373.094757 
L 686.440439 374.16111 
L 686.877743 374.387005 
L 687.315047 374.214262 
L 687.752351 373.841094 
L 688.189655 373.297397 
L 688.626959 372.237687 
L 689.064263 370.843565 
L 691.250784 360.846637 
L 691.688088 359.773639 
L 692.125392 359.399363 
L 693.437304 357.589995 
L 693.874608 356.208053 
L 694.311912 355.298939 
L 695.623824 353.923642 
L 696.061129 354.421938 
L 696.498433 355.960012 
L 697.373041 361.225342 
L 697.810345 364.094421 
L 698.247649 365.979087 
L 698.684953 367.063158 
L 699.122257 367.818354 
L 699.996865 367.86154 
L 700.434169 368.377553 
L 700.871473 368.617842 
L 701.308777 368.685389 
L 701.746082 367.636753 
L 703.057994 363.405664 
L 703.495298 362.225256 
L 703.932602 361.994933 
L 704.369906 362.822104 
L 705.244514 365.822955 
L 706.119122 368.751829 
L 706.556426 370.180278 
L 706.99373 371.066138 
L 707.431034 371.142543 
L 707.868339 370.996376 
L 708.305643 371.061708 
L 708.742947 371.85566 
L 709.617555 373.839986 
L 710.492163 375.726868 
L 710.929467 375.796629 
L 711.366771 375.592881 
L 711.804075 375.177635 
L 712.678683 373.825591 
L 713.115987 372.092628 
L 713.990596 367.379853 
L 714.4279 365.748764 
L 714.865204 363.686925 
L 715.302508 362.54638 
L 715.739812 362.370316 
L 717.051724 358.055071 
L 717.489028 356.342039 
L 717.926332 353.817339 
L 718.363636 352.238294 
L 719.238245 352.95584 
L 719.675549 352.480798 
L 720.112853 352.370065 
L 720.550157 352.930372 
L 720.987461 353.046641 
L 721.424765 352.728839 
L 722.299373 351.221769 
L 722.736677 350.105586 
L 723.611285 345.991874 
L 724.485893 339.879441 
L 724.923197 336.255167 
L 725.797806 331.315391 
L 727.109718 325.548443 
L 727.547022 324.871868 
L 727.984326 325.558409 
L 728.858934 329.049805 
L 729.296238 330.414029 
L 729.733542 332.555595 
L 730.170846 335.470074 
L 730.60815 336.324929 
L 731.045455 336.44452 
L 731.920063 338.955932 
L 732.357367 339.324672 
L 732.794671 339.180719 
L 733.231975 339.825182 
L 733.669279 340.715472 
L 734.106583 341.956783 
L 734.981191 347.646218 
L 735.418495 348.776796 
L 735.855799 349.299454 
L 736.293103 350.294939 
L 736.730408 351.570577 
L 737.605016 353.20831 
L 738.04232 354.972279 
L 738.479624 354.623471 
L 738.916928 352.880542 
L 739.354232 352.870576 
L 739.791536 353.754221 
L 740.22884 352.350133 
L 740.666144 349.644939 
L 741.103448 347.791277 
L 741.540752 344.980887 
L 741.978056 340.67893 
L 742.415361 338.019136 
L 742.852665 338.63813 
L 743.289969 338.446563 
L 744.601881 335.110193 
L 745.039185 332.215646 
L 745.476489 327.992309 
L 746.351097 323.199808 
L 746.788401 321.956282 
L 748.100313 324.267269 
L 748.537618 325.805343 
L 749.412226 331.03856 
L 749.84953 330.978764 
L 750.286834 329.548101 
L 750.724138 328.939072 
L 751.161442 327.884899 
L 751.598746 326.364542 
L 752.03605 325.637029 
L 752.473354 325.716757 
L 752.910658 323.357048 
L 753.785266 314.541635 
L 754.659875 306.503564 
L 755.097179 304.375286 
L 755.534483 304.088488 
L 755.971787 304.116172 
L 756.409091 304.75842 
L 756.846395 306.68295 
L 758.158307 314.864974 
L 758.595611 316.938993 
L 759.032915 317.737374 
L 759.470219 315.688823 
L 760.782132 306.383973 
L 761.219436 306.653053 
L 762.094044 307.578776 
L 762.531348 307.055012 
L 762.968652 306.313104 
L 763.405956 307.089339 
L 763.84326 307.49019 
L 765.155172 304.436188 
L 765.592476 302.301266 
L 766.029781 302.218217 
L 766.467085 302.497263 
L 766.904389 302.358847 
L 767.778997 298.866345 
L 768.653605 296.54207 
L 769.090909 294.040623 
L 769.528213 290.891391 
L 769.965517 288.913709 
L 771.277429 284.410219 
L 771.714734 284.735773 
L 772.152038 284.900764 
L 772.589342 284.871973 
L 773.026646 284.303916 
L 773.46395 282.985092 
L 774.338558 279.69523 
L 774.775862 280.073935 
L 776.087774 285.112263 
L 776.525078 286.847441 
L 776.962382 287.820779 
L 777.399687 288.459706 
L 777.836991 288.83066 
L 778.274295 290.071971 
L 778.711599 290.802805 
L 779.148903 291.002124 
L 780.460815 294.22001 
L 780.898119 295.502292 
L 783.084639 306.851264 
L 783.521944 307.616425 
L 783.959248 307.738231 
L 784.396552 309.148963 
L 785.27116 314.037802 
L 787.020376 320.407134 
L 787.45768 320.603131 
L 788.332288 321.866588 
L 789.206897 321.598616 
L 789.644201 321.96514 
L 790.081505 322.566418 
L 790.518809 323.38916 
L 791.393417 326.769823 
L 791.830721 327.459686 
L 792.705329 327.939158 
L 793.142633 329.021014 
L 793.579937 330.441712 
L 794.454545 334.398183 
L 795.329154 340.907039 
L 797.07837 355.078582 
L 798.827586 368.943396 
L 799.702194 376.008128 
L 800.139498 376.926101 
L 800.576803 376.477634 
L 801.451411 375.139986 
L 802.326019 372.969629 
L 802.763323 372.419289 
L 803.200627 372.087091 
L 803.637931 371.251061 
L 804.512539 369.040841 
L 804.949843 368.336582 
L 805.824451 367.450722 
L 806.261755 367.850466 
L 806.69906 368.422953 
L 807.136364 369.286667 
L 808.010972 370.387347 
L 808.88558 373.421418 
L 809.322884 375.354807 
L 809.760188 377.823034 
L 812.821317 404.53946 
L 813.695925 409.691842 
L 815.007837 418.933575 
L 815.882445 426.288426 
L 818.943574 462.523417 
L 819.818182 468.433209 
L 820.69279 472.436188 
L 821.130094 473.442747 
L 822.004702 472.022049 
L 822.442006 470.823923 
L 823.316614 466.334829 
L 825.940439 450.766949 
L 826.815047 447.536882 
L 827.689655 444.383221 
L 828.564263 442.924875 
L 829.438871 442.083308 
L 829.876176 441.525216 
L 832.062696 435.874537 
L 832.937304 434.190296 
L 833.811912 433.138338 
L 834.249216 433.292256 
L 835.123824 435.098303 
L 835.998433 436.141403 
L 836.435737 436.763719 
L 836.873041 436.969682 
L 837.747649 436.960823 
L 839.496865 434.955458 
L 839.934169 433.738508 
L 842.995298 418.41424 
L 843.432602 417.517307 
L 843.869906 416.991327 
L 844.30721 417.090987 
L 844.744514 417.642434 
L 845.181818 418.392093 
L 846.056426 420.880252 
L 846.49373 422.509127 
L 846.931034 423.437065 
L 847.368339 425.027184 
L 847.805643 428.87403 
L 848.242947 435.808098 
L 848.680251 446.200341 
L 849.554859 476.238742 
L 850.429467 512.91334 
L 851.741379 572.918165 
L 852.615987 599.444131 
L 853.053292 607.633905 
L 853.490596 612.64455 
L 853.9279 615.487053 
L 854.365204 615.6 
L 854.802508 613.295657 
L 855.239812 609.171979 
L 856.11442 597.64805 
L 858.30094 567.58861 
L 858.738245 563.344234 
L 860.050157 554.652842 
L 862.236677 545.624823 
L 862.673981 544.286067 
L 863.111285 544.274994 
L 863.548589 543.844244 
L 863.985893 542.447908 
L 864.423197 542.126783 
L 864.860502 542.54203 
L 865.297806 543.703614 
L 865.73511 545.868434 
L 866.609718 551.151481 
L 867.92163 557.572857 
L 868.358934 557.655907 
L 868.796238 555.930695 
L 869.233542 551.498073 
L 870.10815 531.097828 
L 871.420063 495.468545 
L 871.857367 480.041295 
L 873.606583 404.826257 
L 874.481191 374.573035 
L 875.355799 354.018872 
L 875.793103 347.601925 
L 876.230408 344.143749 
L 876.667712 343.004312 
L 877.105016 344.08949 
L 877.979624 347.657291 
L 878.416928 349.431225 
L 878.854232 350.55516 
L 879.291536 351.050134 
L 880.166144 350.444427 
L 880.603448 350.581736 
L 881.040752 350.462145 
L 881.478056 350.020322 
L 881.915361 349.823218 
L 882.352665 350.085654 
L 883.227273 351.196301 
L 883.664577 352.696726 
L 884.539185 356.200302 
L 884.976489 357.894509 
L 885.413793 358.901067 
L 885.851097 359.437012 
L 886.288401 359.565462 
L 887.163009 361.154473 
L 887.600313 362.083519 
L 888.037618 362.525341 
L 888.474922 362.499873 
L 888.912226 362.04144 
L 889.34953 361.030453 
L 890.224138 360.160095 
L 891.53605 357.934373 
L 892.410658 357.251153 
L 893.285266 356.144936 
L 893.722571 356.412908 
L 894.597179 357.592209 
L 895.034483 358.646382 
L 895.471787 360.015036 
L 896.346395 363.775511 
L 896.783699 368.403021 
L 898.970219 403.490823 
L 899.844828 412.542096 
L 900.719436 418.82395 
L 901.15674 420.319946 
L 901.594044 420.399673 
L 902.468652 418.558192 
L 903.34326 415.497546 
L 904.217868 412.395929 
L 905.092476 409.791501 
L 908.153605 396.905562 
L 909.028213 392.316808 
L 910.777429 381.582401 
L 911.652038 376.662557 
L 912.526646 373.905318 
L 912.96395 372.800208 
L 913.401254 372.152423 
L 913.838558 371.969715 
L 914.275862 372.636324 
L 914.713166 374.455659 
L 915.587774 379.777462 
L 916.025078 381.930101 
L 916.462382 382.90344 
L 916.899687 383.40838 
L 917.336991 382.931123 
L 918.211599 377.680189 
L 918.648903 374.753529 
L 919.960815 363.401235 
L 920.398119 359.87662 
L 921.710031 345.258825 
L 922.147335 341.66002 
L 922.584639 336.359256 
L 923.021944 332.509087 
L 923.459248 332.051762 
L 923.896552 332.645288 
L 924.333856 332.999632 
L 924.77116 333.680637 
L 925.645768 335.721437 
L 926.083072 336.321607 
L 926.520376 336.731317 
L 927.832288 339.707806 
L 928.269592 339.246052 
L 928.706897 338.992474 
L 929.581505 337.369136 
L 930.018809 336.165474 
L 931.330721 329.820503 
L 932.205329 324.742311 
L 933.079937 320.05279 
L 933.954545 312.116593 
L 933.954545 312.116593 
" style="fill:none;stroke:#0000ff;stroke-linecap:square;stroke-width:1.5;"/>
   </g>
   <g id="patch_3">
    <path d="M 135 640.8 
L 135 86.4 
" style="fill:none;stroke:#000000;stroke-linecap:square;stroke-linejoin:miter;stroke-width:0.8;"/>
   </g>
   <g id="patch_4">
    <path d="M 972 640.8 
L 972 86.4 
" style="fill:none;stroke:#000000;stroke-linecap:square;stroke-linejoin:miter;stroke-width:0.8;"/>
   </g>
   <g id="patch_5">
    <path d="M 135 640.8 
L 972 640.8 
" style="fill:none;stroke:#000000;stroke-linecap:square;stroke-linejoin:miter;stroke-width:0.8;"/>
   </g>
   <g id="patch_6">
    <path d="M 135 86.4 
L 972 86.4 
" style="fill:none;stroke:#000000;stroke-linecap:square;stroke-linejoin:miter;stroke-width:0.8;"/>
   </g>
   <g id="text_17">
    <!-- Evaluation Preds N:1 -->
    <defs>
     <path d="M 9.8125 72.90625 
L 55.90625 72.90625 
L 55.90625 64.59375 
L 19.671875 64.59375 
L 19.671875 43.015625 
L 54.390625 43.015625 
L 54.390625 34.71875 
L 19.671875 34.71875 
L 19.671875 8.296875 
L 56.78125 8.296875 
L 56.78125 0 
L 9.8125 0 
z
" id="DejaVuSans-69"/>
     <path d="M 2.984375 54.6875 
L 12.5 54.6875 
L 29.59375 8.796875 
L 46.6875 54.6875 
L 56.203125 54.6875 
L 35.6875 0 
L 23.484375 0 
z
" id="DejaVuSans-118"/>
     <path d="M 34.28125 27.484375 
Q 23.390625 27.484375 19.1875 25 
Q 14.984375 22.515625 14.984375 16.5 
Q 14.984375 11.71875 18.140625 8.90625 
Q 21.296875 6.109375 26.703125 6.109375 
Q 34.1875 6.109375 38.703125 11.40625 
Q 43.21875 16.703125 43.21875 25.484375 
L 43.21875 27.484375 
z
M 52.203125 31.203125 
L 52.203125 0 
L 43.21875 0 
L 43.21875 8.296875 
Q 40.140625 3.328125 35.546875 0.953125 
Q 30.953125 -1.421875 24.3125 -1.421875 
Q 15.921875 -1.421875 10.953125 3.296875 
Q 6 8.015625 6 15.921875 
Q 6 25.140625 12.171875 29.828125 
Q 18.359375 34.515625 30.609375 34.515625 
L 43.21875 34.515625 
L 43.21875 35.40625 
Q 43.21875 41.609375 39.140625 45 
Q 35.0625 48.390625 27.6875 48.390625 
Q 23 48.390625 18.546875 47.265625 
Q 14.109375 46.140625 10.015625 43.890625 
L 10.015625 52.203125 
Q 14.9375 54.109375 19.578125 55.046875 
Q 24.21875 56 28.609375 56 
Q 40.484375 56 46.34375 49.84375 
Q 52.203125 43.703125 52.203125 31.203125 
z
" id="DejaVuSans-97"/>
     <path d="M 9.421875 75.984375 
L 18.40625 75.984375 
L 18.40625 0 
L 9.421875 0 
z
" id="DejaVuSans-108"/>
     <path d="M 8.5 21.578125 
L 8.5 54.6875 
L 17.484375 54.6875 
L 17.484375 21.921875 
Q 17.484375 14.15625 20.5 10.265625 
Q 23.53125 6.390625 29.59375 6.390625 
Q 36.859375 6.390625 41.078125 11.03125 
Q 45.3125 15.671875 45.3125 23.6875 
L 45.3125 54.6875 
L 54.296875 54.6875 
L 54.296875 0 
L 45.3125 0 
L 45.3125 8.40625 
Q 42.046875 3.421875 37.71875 1 
Q 33.40625 -1.421875 27.6875 -1.421875 
Q 18.265625 -1.421875 13.375 4.4375 
Q 8.5 10.296875 8.5 21.578125 
z
M 31.109375 56 
z
" id="DejaVuSans-117"/>
     <path d="M 18.3125 70.21875 
L 18.3125 54.6875 
L 36.8125 54.6875 
L 36.8125 47.703125 
L 18.3125 47.703125 
L 18.3125 18.015625 
Q 18.3125 11.328125 20.140625 9.421875 
Q 21.96875 7.515625 27.59375 7.515625 
L 36.8125 7.515625 
L 36.8125 0 
L 27.59375 0 
Q 17.1875 0 13.234375 3.875 
Q 9.28125 7.765625 9.28125 18.015625 
L 9.28125 47.703125 
L 2.6875 47.703125 
L 2.6875 54.6875 
L 9.28125 54.6875 
L 9.28125 70.21875 
z
" id="DejaVuSans-116"/>
     <path d="M 9.421875 54.6875 
L 18.40625 54.6875 
L 18.40625 0 
L 9.421875 0 
z
M 9.421875 75.984375 
L 18.40625 75.984375 
L 18.40625 64.59375 
L 9.421875 64.59375 
z
" id="DejaVuSans-105"/>
     <path d="M 30.609375 48.390625 
Q 23.390625 48.390625 19.1875 42.75 
Q 14.984375 37.109375 14.984375 27.296875 
Q 14.984375 17.484375 19.15625 11.84375 
Q 23.34375 6.203125 30.609375 6.203125 
Q 37.796875 6.203125 41.984375 11.859375 
Q 46.1875 17.53125 46.1875 27.296875 
Q 46.1875 37.015625 41.984375 42.703125 
Q 37.796875 48.390625 30.609375 48.390625 
z
M 30.609375 56 
Q 42.328125 56 49.015625 48.375 
Q 55.71875 40.765625 55.71875 27.296875 
Q 55.71875 13.875 49.015625 6.21875 
Q 42.328125 -1.421875 30.609375 -1.421875 
Q 18.84375 -1.421875 12.171875 6.21875 
Q 5.515625 13.875 5.515625 27.296875 
Q 5.515625 40.765625 12.171875 48.375 
Q 18.84375 56 30.609375 56 
z
" id="DejaVuSans-111"/>
     <path d="M 54.890625 33.015625 
L 54.890625 0 
L 45.90625 0 
L 45.90625 32.71875 
Q 45.90625 40.484375 42.875 44.328125 
Q 39.84375 48.1875 33.796875 48.1875 
Q 26.515625 48.1875 22.3125 43.546875 
Q 18.109375 38.921875 18.109375 30.90625 
L 18.109375 0 
L 9.078125 0 
L 9.078125 54.6875 
L 18.109375 54.6875 
L 18.109375 46.1875 
Q 21.34375 51.125 25.703125 53.5625 
Q 30.078125 56 35.796875 56 
Q 45.21875 56 50.046875 50.171875 
Q 54.890625 44.34375 54.890625 33.015625 
z
" id="DejaVuSans-110"/>
     <path id="DejaVuSans-32"/>
     <path d="M 19.671875 64.796875 
L 19.671875 37.40625 
L 32.078125 37.40625 
Q 38.96875 37.40625 42.71875 40.96875 
Q 46.484375 44.53125 46.484375 51.125 
Q 46.484375 57.671875 42.71875 61.234375 
Q 38.96875 64.796875 32.078125 64.796875 
z
M 9.8125 72.90625 
L 32.078125 72.90625 
Q 44.34375 72.90625 50.609375 67.359375 
Q 56.890625 61.8125 56.890625 51.125 
Q 56.890625 40.328125 50.609375 34.8125 
Q 44.34375 29.296875 32.078125 29.296875 
L 19.671875 29.296875 
L 19.671875 0 
L 9.8125 0 
z
" id="DejaVuSans-80"/>
     <path d="M 41.109375 46.296875 
Q 39.59375 47.171875 37.8125 47.578125 
Q 36.03125 48 33.890625 48 
Q 26.265625 48 22.1875 43.046875 
Q 18.109375 38.09375 18.109375 28.8125 
L 18.109375 0 
L 9.078125 0 
L 9.078125 54.6875 
L 18.109375 54.6875 
L 18.109375 46.1875 
Q 20.953125 51.171875 25.484375 53.578125 
Q 30.03125 56 36.53125 56 
Q 37.453125 56 38.578125 55.875 
Q 39.703125 55.765625 41.0625 55.515625 
z
" id="DejaVuSans-114"/>
     <path d="M 56.203125 29.59375 
L 56.203125 25.203125 
L 14.890625 25.203125 
Q 15.484375 15.921875 20.484375 11.0625 
Q 25.484375 6.203125 34.421875 6.203125 
Q 39.59375 6.203125 44.453125 7.46875 
Q 49.3125 8.734375 54.109375 11.28125 
L 54.109375 2.78125 
Q 49.265625 0.734375 44.1875 -0.34375 
Q 39.109375 -1.421875 33.890625 -1.421875 
Q 20.796875 -1.421875 13.15625 6.1875 
Q 5.515625 13.8125 5.515625 26.8125 
Q 5.515625 40.234375 12.765625 48.109375 
Q 20.015625 56 32.328125 56 
Q 43.359375 56 49.78125 48.890625 
Q 56.203125 41.796875 56.203125 29.59375 
z
M 47.21875 32.234375 
Q 47.125 39.59375 43.09375 43.984375 
Q 39.0625 48.390625 32.421875 48.390625 
Q 24.90625 48.390625 20.390625 44.140625 
Q 15.875 39.890625 15.1875 32.171875 
z
" id="DejaVuSans-101"/>
     <path d="M 45.40625 46.390625 
L 45.40625 75.984375 
L 54.390625 75.984375 
L 54.390625 0 
L 45.40625 0 
L 45.40625 8.203125 
Q 42.578125 3.328125 38.25 0.953125 
Q 33.9375 -1.421875 27.875 -1.421875 
Q 17.96875 -1.421875 11.734375 6.484375 
Q 5.515625 14.40625 5.515625 27.296875 
Q 5.515625 40.1875 11.734375 48.09375 
Q 17.96875 56 27.875 56 
Q 33.9375 56 38.25 53.625 
Q 42.578125 51.265625 45.40625 46.390625 
z
M 14.796875 27.296875 
Q 14.796875 17.390625 18.875 11.75 
Q 22.953125 6.109375 30.078125 6.109375 
Q 37.203125 6.109375 41.296875 11.75 
Q 45.40625 17.390625 45.40625 27.296875 
Q 45.40625 37.203125 41.296875 42.84375 
Q 37.203125 48.484375 30.078125 48.484375 
Q 22.953125 48.484375 18.875 42.84375 
Q 14.796875 37.203125 14.796875 27.296875 
z
" id="DejaVuSans-100"/>
     <path d="M 44.28125 53.078125 
L 44.28125 44.578125 
Q 40.484375 46.53125 36.375 47.5 
Q 32.28125 48.484375 27.875 48.484375 
Q 21.1875 48.484375 17.84375 46.4375 
Q 14.5 44.390625 14.5 40.28125 
Q 14.5 37.15625 16.890625 35.375 
Q 19.28125 33.59375 26.515625 31.984375 
L 29.59375 31.296875 
Q 39.15625 29.25 43.1875 25.515625 
Q 47.21875 21.78125 47.21875 15.09375 
Q 47.21875 7.46875 41.1875 3.015625 
Q 35.15625 -1.421875 24.609375 -1.421875 
Q 20.21875 -1.421875 15.453125 -0.5625 
Q 10.6875 0.296875 5.421875 2 
L 5.421875 11.28125 
Q 10.40625 8.6875 15.234375 7.390625 
Q 20.0625 6.109375 24.8125 6.109375 
Q 31.15625 6.109375 34.5625 8.28125 
Q 37.984375 10.453125 37.984375 14.40625 
Q 37.984375 18.0625 35.515625 20.015625 
Q 33.0625 21.96875 24.703125 23.78125 
L 21.578125 24.515625 
Q 13.234375 26.265625 9.515625 29.90625 
Q 5.8125 33.546875 5.8125 39.890625 
Q 5.8125 47.609375 11.28125 51.796875 
Q 16.75 56 26.8125 56 
Q 31.78125 56 36.171875 55.265625 
Q 40.578125 54.546875 44.28125 53.078125 
z
" id="DejaVuSans-115"/>
     <path d="M 9.8125 72.90625 
L 23.09375 72.90625 
L 55.421875 11.921875 
L 55.421875 72.90625 
L 64.984375 72.90625 
L 64.984375 0 
L 51.703125 0 
L 19.390625 60.984375 
L 19.390625 0 
L 9.8125 0 
z
" id="DejaVuSans-78"/>
     <path d="M 11.71875 12.40625 
L 22.015625 12.40625 
L 22.015625 0 
L 11.71875 0 
z
M 11.71875 51.703125 
L 22.015625 51.703125 
L 22.015625 39.3125 
L 11.71875 39.3125 
z
" id="DejaVuSans-58"/>
    </defs>
    <g transform="translate(384.728906 80.4)scale(0.324 -0.324)">
     <use xlink:href="#DejaVuSans-69"/>
     <use x="63.183594" xlink:href="#DejaVuSans-118"/>
     <use x="122.363281" xlink:href="#DejaVuSans-97"/>
     <use x="183.642578" xlink:href="#DejaVuSans-108"/>
     <use x="211.425781" xlink:href="#DejaVuSans-117"/>
     <use x="274.804688" xlink:href="#DejaVuSans-97"/>
     <use x="336.083984" xlink:href="#DejaVuSans-116"/>
     <use x="375.292969" xlink:href="#DejaVuSans-105"/>
     <use x="403.076172" xlink:href="#DejaVuSans-111"/>
     <use x="464.257812" xlink:href="#DejaVuSans-110"/>
     <use x="527.636719" xlink:href="#DejaVuSans-32"/>
     <use x="559.423828" xlink:href="#DejaVuSans-80"/>
     <use x="619.710938" xlink:href="#DejaVuSans-114"/>
     <use x="660.792969" xlink:href="#DejaVuSans-101"/>
     <use x="722.316406" xlink:href="#DejaVuSans-100"/>
     <use x="785.792969" xlink:href="#DejaVuSans-115"/>
     <use x="837.892578" xlink:href="#DejaVuSans-32"/>
     <use x="869.679688" xlink:href="#DejaVuSans-78"/>
     <use x="944.484375" xlink:href="#DejaVuSans-58"/>
     <use x="978.175781" xlink:href="#DejaVuSans-49"/>
    </g>
   </g>
   <g id="legend_1">
    <g id="patch_7">
     <path d="M 805.57875 187.261875 
L 953.1 187.261875 
Q 958.5 187.261875 958.5 181.861875 
L 958.5 105.3 
Q 958.5 99.9 953.1 99.9 
L 805.57875 99.9 
Q 800.17875 99.9 800.17875 105.3 
L 800.17875 181.861875 
Q 800.17875 187.261875 805.57875 187.261875 
z
" style="fill:#ffffff;opacity:0.8;stroke:#cccccc;stroke-linejoin:miter;"/>
    </g>
    <g id="line2d_35">
     <path d="M 810.97875 121.765781 
L 864.97875 121.765781 
" style="fill:none;stroke:#ff0000;stroke-linecap:square;stroke-width:1.5;"/>
    </g>
    <g id="line2d_36"/>
    <g id="text_18">
     <!-- Real -->
     <defs>
      <path d="M 44.390625 34.1875 
Q 47.5625 33.109375 50.5625 29.59375 
Q 53.5625 26.078125 56.59375 19.921875 
L 66.609375 0 
L 56 0 
L 46.6875 18.703125 
Q 43.0625 26.03125 39.671875 28.421875 
Q 36.28125 30.8125 30.421875 30.8125 
L 19.671875 30.8125 
L 19.671875 0 
L 9.8125 0 
L 9.8125 72.90625 
L 32.078125 72.90625 
Q 44.578125 72.90625 50.734375 67.671875 
Q 56.890625 62.453125 56.890625 51.90625 
Q 56.890625 45.015625 53.6875 40.46875 
Q 50.484375 35.9375 44.390625 34.1875 
z
M 19.671875 64.796875 
L 19.671875 38.921875 
L 32.078125 38.921875 
Q 39.203125 38.921875 42.84375 42.21875 
Q 46.484375 45.515625 46.484375 51.90625 
Q 46.484375 58.296875 42.84375 61.546875 
Q 39.203125 64.796875 32.078125 64.796875 
z
" id="DejaVuSans-82"/>
     </defs>
     <g transform="translate(886.57875 131.215781)scale(0.27 -0.27)">
      <use xlink:href="#DejaVuSans-82"/>
      <use x="69.419922" xlink:href="#DejaVuSans-101"/>
      <use x="130.943359" xlink:href="#DejaVuSans-97"/>
      <use x="192.222656" xlink:href="#DejaVuSans-108"/>
     </g>
    </g>
    <g id="line2d_37">
     <path d="M 810.97875 161.396719 
L 864.97875 161.396719 
" style="fill:none;stroke:#0000ff;stroke-linecap:square;stroke-width:1.5;"/>
    </g>
    <g id="line2d_38"/>
    <g id="text_19">
     <!-- Pred -->
     <g transform="translate(886.57875 170.846719)scale(0.27 -0.27)">
      <use xlink:href="#DejaVuSans-80"/>
      <use x="60.287109" xlink:href="#DejaVuSans-114"/>
      <use x="101.369141" xlink:href="#DejaVuSans-101"/>
      <use x="162.892578" xlink:href="#DejaVuSans-100"/>
     </g>
    </g>
   </g>
  </g>
 </g>
 <defs>
  <clipPath id="pc2f247da22">
   <rect height="554.4" width="837" x="135" y="86.4"/>
  </clipPath>
 </defs>
</svg>
