<?xml version="1.0" encoding="utf-8" standalone="no"?>
<!DOCTYPE svg PUBLIC "-//W3C//DTD SVG 1.1//EN"
  "http://www.w3.org/Graphics/SVG/1.1/DTD/svg11.dtd">
<!-- Created with matplotlib (https://matplotlib.org/) -->
<svg height="720pt" version="1.1" viewBox="0 0 1080 720" width="1080pt" xmlns="http://www.w3.org/2000/svg" xmlns:xlink="http://www.w3.org/1999/xlink">
 <defs>
  <style type="text/css">
*{stroke-linecap:butt;stroke-linejoin:round;}
  </style>
 </defs>
 <g id="figure_1">
  <g id="patch_1">
   <path d="M 0 720 
L 1080 720 
L 1080 0 
L 0 0 
z
" style="fill:#ffffff;"/>
  </g>
  <g id="axes_1">
   <g id="patch_2">
    <path d="M 135 640.8 
L 972 640.8 
L 972 86.4 
L 135 86.4 
z
" style="fill:#ffffff;"/>
   </g>
   <g id="matplotlib.axis_1">
    <g id="xtick_1">
     <g id="line2d_1">
      <path clip-path="url(#p2b2e229b18)" d="M 173.045455 640.8 
L 173.045455 86.4 
" style="fill:none;stroke:#b0b0b0;stroke-linecap:square;stroke-width:0.8;"/>
     </g>
     <g id="line2d_2">
      <defs>
       <path d="M 0 0 
L 0 3.5 
" id="m88e10f19dd" style="stroke:#000000;stroke-width:0.8;"/>
      </defs>
      <g>
       <use style="stroke:#000000;stroke-width:0.8;" x="173.045455" xlink:href="#m88e10f19dd" y="640.8"/>
      </g>
     </g>
     <g id="text_1">
      <!-- 0 -->
      <defs>
       <path d="M 31.78125 66.40625 
Q 24.171875 66.40625 20.328125 58.90625 
Q 16.5 51.421875 16.5 36.375 
Q 16.5 21.390625 20.328125 13.890625 
Q 24.171875 6.390625 31.78125 6.390625 
Q 39.453125 6.390625 43.28125 13.890625 
Q 47.125 21.390625 47.125 36.375 
Q 47.125 51.421875 43.28125 58.90625 
Q 39.453125 66.40625 31.78125 66.40625 
z
M 31.78125 74.21875 
Q 44.046875 74.21875 50.515625 64.515625 
Q 56.984375 54.828125 56.984375 36.375 
Q 56.984375 17.96875 50.515625 8.265625 
Q 44.046875 -1.421875 31.78125 -1.421875 
Q 19.53125 -1.421875 13.0625 8.265625 
Q 6.59375 17.96875 6.59375 36.375 
Q 6.59375 54.828125 13.0625 64.515625 
Q 19.53125 74.21875 31.78125 74.21875 
z
" id="DejaVuSans-48"/>
      </defs>
      <g transform="translate(164.45608 668.315781)scale(0.27 -0.27)">
       <use xlink:href="#DejaVuSans-48"/>
      </g>
     </g>
    </g>
    <g id="xtick_2">
     <g id="line2d_3">
      <path clip-path="url(#p2b2e229b18)" d="M 282.371473 640.8 
L 282.371473 86.4 
" style="fill:none;stroke:#b0b0b0;stroke-linecap:square;stroke-width:0.8;"/>
     </g>
     <g id="line2d_4">
      <g>
       <use style="stroke:#000000;stroke-width:0.8;" x="282.371473" xlink:href="#m88e10f19dd" y="640.8"/>
      </g>
     </g>
     <g id="text_2">
      <!-- 250 -->
      <defs>
       <path d="M 19.1875 8.296875 
L 53.609375 8.296875 
L 53.609375 0 
L 7.328125 0 
L 7.328125 8.296875 
Q 12.9375 14.109375 22.625 23.890625 
Q 32.328125 33.6875 34.8125 36.53125 
Q 39.546875 41.84375 41.421875 45.53125 
Q 43.3125 49.21875 43.3125 52.78125 
Q 43.3125 58.59375 39.234375 62.25 
Q 35.15625 65.921875 28.609375 65.921875 
Q 23.96875 65.921875 18.8125 64.3125 
Q 13.671875 62.703125 7.8125 59.421875 
L 7.8125 69.390625 
Q 13.765625 71.78125 18.9375 73 
Q 24.125 74.21875 28.421875 74.21875 
Q 39.75 74.21875 46.484375 68.546875 
Q 53.21875 62.890625 53.21875 53.421875 
Q 53.21875 48.921875 51.53125 44.890625 
Q 49.859375 40.875 45.40625 35.40625 
Q 44.1875 33.984375 37.640625 27.21875 
Q 31.109375 20.453125 19.1875 8.296875 
z
" id="DejaVuSans-50"/>
       <path d="M 10.796875 72.90625 
L 49.515625 72.90625 
L 49.515625 64.59375 
L 19.828125 64.59375 
L 19.828125 46.734375 
Q 21.96875 47.46875 24.109375 47.828125 
Q 26.265625 48.1875 28.421875 48.1875 
Q 40.625 48.1875 47.75 41.5 
Q 54.890625 34.8125 54.890625 23.390625 
Q 54.890625 11.625 47.5625 5.09375 
Q 40.234375 -1.421875 26.90625 -1.421875 
Q 22.3125 -1.421875 17.546875 -0.640625 
Q 12.796875 0.140625 7.71875 1.703125 
L 7.71875 11.625 
Q 12.109375 9.234375 16.796875 8.0625 
Q 21.484375 6.890625 26.703125 6.890625 
Q 35.15625 6.890625 40.078125 11.328125 
Q 45.015625 15.765625 45.015625 23.390625 
Q 45.015625 31 40.078125 35.4375 
Q 35.15625 39.890625 26.703125 39.890625 
Q 22.75 39.890625 18.8125 39.015625 
Q 14.890625 38.140625 10.796875 36.28125 
z
" id="DejaVuSans-53"/>
      </defs>
      <g transform="translate(256.603348 668.315781)scale(0.27 -0.27)">
       <use xlink:href="#DejaVuSans-50"/>
       <use x="63.623047" xlink:href="#DejaVuSans-53"/>
       <use x="127.246094" xlink:href="#DejaVuSans-48"/>
      </g>
     </g>
    </g>
    <g id="xtick_3">
     <g id="line2d_5">
      <path clip-path="url(#p2b2e229b18)" d="M 391.697492 640.8 
L 391.697492 86.4 
" style="fill:none;stroke:#b0b0b0;stroke-linecap:square;stroke-width:0.8;"/>
     </g>
     <g id="line2d_6">
      <g>
       <use style="stroke:#000000;stroke-width:0.8;" x="391.697492" xlink:href="#m88e10f19dd" y="640.8"/>
      </g>
     </g>
     <g id="text_3">
      <!-- 500 -->
      <g transform="translate(365.929367 668.315781)scale(0.27 -0.27)">
       <use xlink:href="#DejaVuSans-53"/>
       <use x="63.623047" xlink:href="#DejaVuSans-48"/>
       <use x="127.246094" xlink:href="#DejaVuSans-48"/>
      </g>
     </g>
    </g>
    <g id="xtick_4">
     <g id="line2d_7">
      <path clip-path="url(#p2b2e229b18)" d="M 501.023511 640.8 
L 501.023511 86.4 
" style="fill:none;stroke:#b0b0b0;stroke-linecap:square;stroke-width:0.8;"/>
     </g>
     <g id="line2d_8">
      <g>
       <use style="stroke:#000000;stroke-width:0.8;" x="501.023511" xlink:href="#m88e10f19dd" y="640.8"/>
      </g>
     </g>
     <g id="text_4">
      <!-- 750 -->
      <defs>
       <path d="M 8.203125 72.90625 
L 55.078125 72.90625 
L 55.078125 68.703125 
L 28.609375 0 
L 18.3125 0 
L 43.21875 64.59375 
L 8.203125 64.59375 
z
" id="DejaVuSans-55"/>
      </defs>
      <g transform="translate(475.255386 668.315781)scale(0.27 -0.27)">
       <use xlink:href="#DejaVuSans-55"/>
       <use x="63.623047" xlink:href="#DejaVuSans-53"/>
       <use x="127.246094" xlink:href="#DejaVuSans-48"/>
      </g>
     </g>
    </g>
    <g id="xtick_5">
     <g id="line2d_9">
      <path clip-path="url(#p2b2e229b18)" d="M 610.34953 640.8 
L 610.34953 86.4 
" style="fill:none;stroke:#b0b0b0;stroke-linecap:square;stroke-width:0.8;"/>
     </g>
     <g id="line2d_10">
      <g>
       <use style="stroke:#000000;stroke-width:0.8;" x="610.34953" xlink:href="#m88e10f19dd" y="640.8"/>
      </g>
     </g>
     <g id="text_5">
      <!-- 1000 -->
      <defs>
       <path d="M 12.40625 8.296875 
L 28.515625 8.296875 
L 28.515625 63.921875 
L 10.984375 60.40625 
L 10.984375 69.390625 
L 28.421875 72.90625 
L 38.28125 72.90625 
L 38.28125 8.296875 
L 54.390625 8.296875 
L 54.390625 0 
L 12.40625 0 
z
" id="DejaVuSans-49"/>
      </defs>
      <g transform="translate(575.99203 668.315781)scale(0.27 -0.27)">
       <use xlink:href="#DejaVuSans-49"/>
       <use x="63.623047" xlink:href="#DejaVuSans-48"/>
       <use x="127.246094" xlink:href="#DejaVuSans-48"/>
       <use x="190.869141" xlink:href="#DejaVuSans-48"/>
      </g>
     </g>
    </g>
    <g id="xtick_6">
     <g id="line2d_11">
      <path clip-path="url(#p2b2e229b18)" d="M 719.675549 640.8 
L 719.675549 86.4 
" style="fill:none;stroke:#b0b0b0;stroke-linecap:square;stroke-width:0.8;"/>
     </g>
     <g id="line2d_12">
      <g>
       <use style="stroke:#000000;stroke-width:0.8;" x="719.675549" xlink:href="#m88e10f19dd" y="640.8"/>
      </g>
     </g>
     <g id="text_6">
      <!-- 1250 -->
      <g transform="translate(685.318049 668.315781)scale(0.27 -0.27)">
       <use xlink:href="#DejaVuSans-49"/>
       <use x="63.623047" xlink:href="#DejaVuSans-50"/>
       <use x="127.246094" xlink:href="#DejaVuSans-53"/>
       <use x="190.869141" xlink:href="#DejaVuSans-48"/>
      </g>
     </g>
    </g>
    <g id="xtick_7">
     <g id="line2d_13">
      <path clip-path="url(#p2b2e229b18)" d="M 829.001567 640.8 
L 829.001567 86.4 
" style="fill:none;stroke:#b0b0b0;stroke-linecap:square;stroke-width:0.8;"/>
     </g>
     <g id="line2d_14">
      <g>
       <use style="stroke:#000000;stroke-width:0.8;" x="829.001567" xlink:href="#m88e10f19dd" y="640.8"/>
      </g>
     </g>
     <g id="text_7">
      <!-- 1500 -->
      <g transform="translate(794.644067 668.315781)scale(0.27 -0.27)">
       <use xlink:href="#DejaVuSans-49"/>
       <use x="63.623047" xlink:href="#DejaVuSans-53"/>
       <use x="127.246094" xlink:href="#DejaVuSans-48"/>
       <use x="190.869141" xlink:href="#DejaVuSans-48"/>
      </g>
     </g>
    </g>
    <g id="xtick_8">
     <g id="line2d_15">
      <path clip-path="url(#p2b2e229b18)" d="M 938.327586 640.8 
L 938.327586 86.4 
" style="fill:none;stroke:#b0b0b0;stroke-linecap:square;stroke-width:0.8;"/>
     </g>
     <g id="line2d_16">
      <g>
       <use style="stroke:#000000;stroke-width:0.8;" x="938.327586" xlink:href="#m88e10f19dd" y="640.8"/>
      </g>
     </g>
     <g id="text_8">
      <!-- 1750 -->
      <g transform="translate(903.970086 668.315781)scale(0.27 -0.27)">
       <use xlink:href="#DejaVuSans-49"/>
       <use x="63.623047" xlink:href="#DejaVuSans-55"/>
       <use x="127.246094" xlink:href="#DejaVuSans-53"/>
       <use x="190.869141" xlink:href="#DejaVuSans-48"/>
      </g>
     </g>
    </g>
   </g>
   <g id="matplotlib.axis_2">
    <g id="ytick_1">
     <g id="line2d_17">
      <path clip-path="url(#p2b2e229b18)" d="M 135 592.725972 
L 972 592.725972 
" style="fill:none;stroke:#b0b0b0;stroke-linecap:square;stroke-width:0.8;"/>
     </g>
     <g id="line2d_18">
      <defs>
       <path d="M 0 0 
L -3.5 0 
" id="m0489ae804e" style="stroke:#000000;stroke-width:0.8;"/>
      </defs>
      <g>
       <use style="stroke:#000000;stroke-width:0.8;" x="135" xlink:href="#m0489ae804e" y="592.725972"/>
      </g>
     </g>
     <g id="text_9">
      <!-- 67.5 -->
      <defs>
       <path d="M 33.015625 40.375 
Q 26.375 40.375 22.484375 35.828125 
Q 18.609375 31.296875 18.609375 23.390625 
Q 18.609375 15.53125 22.484375 10.953125 
Q 26.375 6.390625 33.015625 6.390625 
Q 39.65625 6.390625 43.53125 10.953125 
Q 47.40625 15.53125 47.40625 23.390625 
Q 47.40625 31.296875 43.53125 35.828125 
Q 39.65625 40.375 33.015625 40.375 
z
M 52.59375 71.296875 
L 52.59375 62.3125 
Q 48.875 64.0625 45.09375 64.984375 
Q 41.3125 65.921875 37.59375 65.921875 
Q 27.828125 65.921875 22.671875 59.328125 
Q 17.53125 52.734375 16.796875 39.40625 
Q 19.671875 43.65625 24.015625 45.921875 
Q 28.375 48.1875 33.59375 48.1875 
Q 44.578125 48.1875 50.953125 41.515625 
Q 57.328125 34.859375 57.328125 23.390625 
Q 57.328125 12.15625 50.6875 5.359375 
Q 44.046875 -1.421875 33.015625 -1.421875 
Q 20.359375 -1.421875 13.671875 8.265625 
Q 6.984375 17.96875 6.984375 36.375 
Q 6.984375 53.65625 15.1875 63.9375 
Q 23.390625 74.21875 37.203125 74.21875 
Q 40.921875 74.21875 44.703125 73.484375 
Q 48.484375 72.75 52.59375 71.296875 
z
" id="DejaVuSans-54"/>
       <path d="M 10.6875 12.40625 
L 21 12.40625 
L 21 0 
L 10.6875 0 
z
" id="DejaVuSans-46"/>
      </defs>
      <g transform="translate(67.882812 602.983863)scale(0.27 -0.27)">
       <use xlink:href="#DejaVuSans-54"/>
       <use x="63.623047" xlink:href="#DejaVuSans-55"/>
       <use x="127.246094" xlink:href="#DejaVuSans-46"/>
       <use x="159.033203" xlink:href="#DejaVuSans-53"/>
      </g>
     </g>
    </g>
    <g id="ytick_2">
     <g id="line2d_19">
      <path clip-path="url(#p2b2e229b18)" d="M 135 527.241425 
L 972 527.241425 
" style="fill:none;stroke:#b0b0b0;stroke-linecap:square;stroke-width:0.8;"/>
     </g>
     <g id="line2d_20">
      <g>
       <use style="stroke:#000000;stroke-width:0.8;" x="135" xlink:href="#m0489ae804e" y="527.241425"/>
      </g>
     </g>
     <g id="text_10">
      <!-- 68.0 -->
      <defs>
       <path d="M 31.78125 34.625 
Q 24.75 34.625 20.71875 30.859375 
Q 16.703125 27.09375 16.703125 20.515625 
Q 16.703125 13.921875 20.71875 10.15625 
Q 24.75 6.390625 31.78125 6.390625 
Q 38.8125 6.390625 42.859375 10.171875 
Q 46.921875 13.96875 46.921875 20.515625 
Q 46.921875 27.09375 42.890625 30.859375 
Q 38.875 34.625 31.78125 34.625 
z
M 21.921875 38.8125 
Q 15.578125 40.375 12.03125 44.71875 
Q 8.5 49.078125 8.5 55.328125 
Q 8.5 64.0625 14.71875 69.140625 
Q 20.953125 74.21875 31.78125 74.21875 
Q 42.671875 74.21875 48.875 69.140625 
Q 55.078125 64.0625 55.078125 55.328125 
Q 55.078125 49.078125 51.53125 44.71875 
Q 48 40.375 41.703125 38.8125 
Q 48.828125 37.15625 52.796875 32.3125 
Q 56.78125 27.484375 56.78125 20.515625 
Q 56.78125 9.90625 50.3125 4.234375 
Q 43.84375 -1.421875 31.78125 -1.421875 
Q 19.734375 -1.421875 13.25 4.234375 
Q 6.78125 9.90625 6.78125 20.515625 
Q 6.78125 27.484375 10.78125 32.3125 
Q 14.796875 37.15625 21.921875 38.8125 
z
M 18.3125 54.390625 
Q 18.3125 48.734375 21.84375 45.5625 
Q 25.390625 42.390625 31.78125 42.390625 
Q 38.140625 42.390625 41.71875 45.5625 
Q 45.3125 48.734375 45.3125 54.390625 
Q 45.3125 60.0625 41.71875 63.234375 
Q 38.140625 66.40625 31.78125 66.40625 
Q 25.390625 66.40625 21.84375 63.234375 
Q 18.3125 60.0625 18.3125 54.390625 
z
" id="DejaVuSans-56"/>
      </defs>
      <g transform="translate(67.882812 537.499315)scale(0.27 -0.27)">
       <use xlink:href="#DejaVuSans-54"/>
       <use x="63.623047" xlink:href="#DejaVuSans-56"/>
       <use x="127.246094" xlink:href="#DejaVuSans-46"/>
       <use x="159.033203" xlink:href="#DejaVuSans-48"/>
      </g>
     </g>
    </g>
    <g id="ytick_3">
     <g id="line2d_21">
      <path clip-path="url(#p2b2e229b18)" d="M 135 461.756877 
L 972 461.756877 
" style="fill:none;stroke:#b0b0b0;stroke-linecap:square;stroke-width:0.8;"/>
     </g>
     <g id="line2d_22">
      <g>
       <use style="stroke:#000000;stroke-width:0.8;" x="135" xlink:href="#m0489ae804e" y="461.756877"/>
      </g>
     </g>
     <g id="text_11">
      <!-- 68.5 -->
      <g transform="translate(67.882812 472.014767)scale(0.27 -0.27)">
       <use xlink:href="#DejaVuSans-54"/>
       <use x="63.623047" xlink:href="#DejaVuSans-56"/>
       <use x="127.246094" xlink:href="#DejaVuSans-46"/>
       <use x="159.033203" xlink:href="#DejaVuSans-53"/>
      </g>
     </g>
    </g>
    <g id="ytick_4">
     <g id="line2d_23">
      <path clip-path="url(#p2b2e229b18)" d="M 135 396.272329 
L 972 396.272329 
" style="fill:none;stroke:#b0b0b0;stroke-linecap:square;stroke-width:0.8;"/>
     </g>
     <g id="line2d_24">
      <g>
       <use style="stroke:#000000;stroke-width:0.8;" x="135" xlink:href="#m0489ae804e" y="396.272329"/>
      </g>
     </g>
     <g id="text_12">
      <!-- 69.0 -->
      <defs>
       <path d="M 10.984375 1.515625 
L 10.984375 10.5 
Q 14.703125 8.734375 18.5 7.8125 
Q 22.3125 6.890625 25.984375 6.890625 
Q 35.75 6.890625 40.890625 13.453125 
Q 46.046875 20.015625 46.78125 33.40625 
Q 43.953125 29.203125 39.59375 26.953125 
Q 35.25 24.703125 29.984375 24.703125 
Q 19.046875 24.703125 12.671875 31.3125 
Q 6.296875 37.9375 6.296875 49.421875 
Q 6.296875 60.640625 12.9375 67.421875 
Q 19.578125 74.21875 30.609375 74.21875 
Q 43.265625 74.21875 49.921875 64.515625 
Q 56.59375 54.828125 56.59375 36.375 
Q 56.59375 19.140625 48.40625 8.859375 
Q 40.234375 -1.421875 26.421875 -1.421875 
Q 22.703125 -1.421875 18.890625 -0.6875 
Q 15.09375 0.046875 10.984375 1.515625 
z
M 30.609375 32.421875 
Q 37.25 32.421875 41.125 36.953125 
Q 45.015625 41.5 45.015625 49.421875 
Q 45.015625 57.28125 41.125 61.84375 
Q 37.25 66.40625 30.609375 66.40625 
Q 23.96875 66.40625 20.09375 61.84375 
Q 16.21875 57.28125 16.21875 49.421875 
Q 16.21875 41.5 20.09375 36.953125 
Q 23.96875 32.421875 30.609375 32.421875 
z
" id="DejaVuSans-57"/>
      </defs>
      <g transform="translate(67.882812 406.53022)scale(0.27 -0.27)">
       <use xlink:href="#DejaVuSans-54"/>
       <use x="63.623047" xlink:href="#DejaVuSans-57"/>
       <use x="127.246094" xlink:href="#DejaVuSans-46"/>
       <use x="159.033203" xlink:href="#DejaVuSans-48"/>
      </g>
     </g>
    </g>
    <g id="ytick_5">
     <g id="line2d_25">
      <path clip-path="url(#p2b2e229b18)" d="M 135 330.787781 
L 972 330.787781 
" style="fill:none;stroke:#b0b0b0;stroke-linecap:square;stroke-width:0.8;"/>
     </g>
     <g id="line2d_26">
      <g>
       <use style="stroke:#000000;stroke-width:0.8;" x="135" xlink:href="#m0489ae804e" y="330.787781"/>
      </g>
     </g>
     <g id="text_13">
      <!-- 69.5 -->
      <g transform="translate(67.882812 341.045672)scale(0.27 -0.27)">
       <use xlink:href="#DejaVuSans-54"/>
       <use x="63.623047" xlink:href="#DejaVuSans-57"/>
       <use x="127.246094" xlink:href="#DejaVuSans-46"/>
       <use x="159.033203" xlink:href="#DejaVuSans-53"/>
      </g>
     </g>
    </g>
    <g id="ytick_6">
     <g id="line2d_27">
      <path clip-path="url(#p2b2e229b18)" d="M 135 265.303233 
L 972 265.303233 
" style="fill:none;stroke:#b0b0b0;stroke-linecap:square;stroke-width:0.8;"/>
     </g>
     <g id="line2d_28">
      <g>
       <use style="stroke:#000000;stroke-width:0.8;" x="135" xlink:href="#m0489ae804e" y="265.303233"/>
      </g>
     </g>
     <g id="text_14">
      <!-- 70.0 -->
      <g transform="translate(67.882812 275.561124)scale(0.27 -0.27)">
       <use xlink:href="#DejaVuSans-55"/>
       <use x="63.623047" xlink:href="#DejaVuSans-48"/>
       <use x="127.246094" xlink:href="#DejaVuSans-46"/>
       <use x="159.033203" xlink:href="#DejaVuSans-48"/>
      </g>
     </g>
    </g>
    <g id="ytick_7">
     <g id="line2d_29">
      <path clip-path="url(#p2b2e229b18)" d="M 135 199.818685 
L 972 199.818685 
" style="fill:none;stroke:#b0b0b0;stroke-linecap:square;stroke-width:0.8;"/>
     </g>
     <g id="line2d_30">
      <g>
       <use style="stroke:#000000;stroke-width:0.8;" x="135" xlink:href="#m0489ae804e" y="199.818685"/>
      </g>
     </g>
     <g id="text_15">
      <!-- 70.5 -->
      <g transform="translate(67.882812 210.076576)scale(0.27 -0.27)">
       <use xlink:href="#DejaVuSans-55"/>
       <use x="63.623047" xlink:href="#DejaVuSans-48"/>
       <use x="127.246094" xlink:href="#DejaVuSans-46"/>
       <use x="159.033203" xlink:href="#DejaVuSans-53"/>
      </g>
     </g>
    </g>
    <g id="ytick_8">
     <g id="line2d_31">
      <path clip-path="url(#p2b2e229b18)" d="M 135 134.334137 
L 972 134.334137 
" style="fill:none;stroke:#b0b0b0;stroke-linecap:square;stroke-width:0.8;"/>
     </g>
     <g id="line2d_32">
      <g>
       <use style="stroke:#000000;stroke-width:0.8;" x="135" xlink:href="#m0489ae804e" y="134.334137"/>
      </g>
     </g>
     <g id="text_16">
      <!-- 71.0 -->
      <g transform="translate(67.882812 144.592028)scale(0.27 -0.27)">
       <use xlink:href="#DejaVuSans-55"/>
       <use x="63.623047" xlink:href="#DejaVuSans-49"/>
       <use x="127.246094" xlink:href="#DejaVuSans-46"/>
       <use x="159.033203" xlink:href="#DejaVuSans-48"/>
      </g>
     </g>
    </g>
   </g>
   <g id="line2d_33">
    <path clip-path="url(#p2b2e229b18)" d="M 173.045455 466.788923 
L 173.482759 464.759518 
L 173.920063 466.52513 
L 174.357367 463.959146 
L 175.231975 467.419428 
L 175.669279 471.28539 
L 176.106583 472.11274 
L 176.981191 478.788495 
L 177.418495 479.196174 
L 177.855799 483.402869 
L 178.293103 481.562315 
L 178.730408 485.529198 
L 180.04232 489.303233 
L 180.479624 492.491728 
L 180.916928 490.68215 
L 181.354232 489.505075 
L 181.791536 494.815902 
L 182.22884 491.108815 
L 182.666144 491.506502 
L 183.103448 487.718478 
L 183.540752 490.219513 
L 183.978056 488.817615 
L 184.415361 489.953722 
L 184.852665 490.619199 
L 185.289969 489.978702 
L 185.727273 490.515281 
L 186.164577 487.039012 
L 186.601881 489.278253 
L 187.039185 482.9822 
L 187.476489 488.733681 
L 187.913793 484.26719 
L 188.351097 485.383313 
L 188.788401 473.964285 
L 189.225705 472.999044 
L 189.663009 470.001399 
L 190.100313 465.026308 
L 190.537618 466.791921 
L 190.974922 471.813975 
L 191.412226 472.088759 
L 191.84953 465.594861 
L 192.286834 465.865648 
L 192.724138 466.593077 
L 193.161442 464.584655 
L 193.598746 461.219299 
L 194.03605 461.919749 
L 194.473354 456.379102 
L 194.910658 457.262408 
L 195.347962 460.867575 
L 195.785266 458.38053 
L 196.222571 457.155492 
L 196.659875 451.796703 
L 197.097179 455.940447 
L 197.534483 454.94423 
L 197.971787 455.340918 
L 198.409091 452.096467 
L 198.846395 450.216944 
L 199.283699 445.78043 
L 199.721003 444.100749 
L 200.158307 451.809692 
L 200.595611 452.002541 
L 201.032915 455.772579 
L 201.470219 451.464963 
L 201.907524 453.025737 
L 202.344828 448.706131 
L 202.782132 448.116594 
L 203.219436 448.566241 
L 203.65674 455.43984 
L 204.531348 473.718478 
L 204.968652 474.135151 
L 205.405956 473.842381 
L 205.84326 472.211662 
L 206.280564 465.738748 
L 206.717868 467.960003 
L 207.155172 465.911612 
L 207.592476 462.394376 
L 208.029781 461.173335 
L 208.467085 460.493869 
L 209.341693 452.324288 
L 209.778997 446.142145 
L 210.216301 441.906473 
L 210.653605 440.579516 
L 211.528213 435.86522 
L 211.965517 438.328285 
L 212.840125 433.620984 
L 213.277429 432.399943 
L 213.714734 434.374392 
L 214.152038 431.061994 
L 214.589342 433.633973 
L 215.026646 433.297238 
L 215.46395 435.196745 
L 215.901254 433.421141 
L 216.338558 442.282178 
L 216.775862 439.547327 
L 217.213166 440.566526 
L 217.65047 442.467033 
L 218.087774 456.001399 
L 218.525078 460.120163 
L 218.962382 460.562815 
L 219.399687 456.770794 
L 219.836991 457.71805 
L 220.274295 457.927885 
L 221.148903 452.739961 
L 221.586207 448.257483 
L 222.023511 448.410363 
L 223.335423 444.599358 
L 224.647335 428.386097 
L 225.084639 431.966284 
L 225.521944 433.878781 
L 225.959248 444.122732 
L 226.396552 429.609136 
L 226.833856 427.857512 
L 227.27116 426.878281 
L 227.708464 428.179259 
L 228.145768 428.645893 
L 228.583072 429.964856 
L 229.020376 430.585369 
L 229.45768 433.667947 
L 229.894984 447.756877 
L 230.332288 430.326572 
L 230.769592 432.478881 
L 231.206897 429.925887 
L 231.644201 429.490229 
L 232.081505 425.621269 
L 232.518809 425.812119 
L 232.956113 422.135008 
L 233.830721 423.752737 
L 234.268025 420.082621 
L 234.705329 419.476097 
L 235.142633 419.304232 
L 235.579937 418.719692 
L 236.017241 416.76223 
L 236.454545 413.156063 
L 236.89185 410.973778 
L 237.329154 403.252844 
L 237.766458 403.412719 
L 238.203762 401.137506 
L 238.641066 397.4544 
L 239.07837 392.166555 
L 239.515674 390.9635 
L 239.952978 385.94944 
L 240.390282 383.197602 
L 240.827586 384.108886 
L 241.702194 376.432917 
L 242.139498 380.865434 
L 243.014107 370.809336 
L 243.451411 370.680437 
L 243.888715 379.913182 
L 244.326019 368.936807 
L 244.763323 370.363686 
L 245.200627 369.164628 
L 245.637931 369.649247 
L 246.512539 361.902334 
L 246.949843 362.677725 
L 247.387147 361.657526 
L 247.824451 359.68008 
L 248.69906 366.299879 
L 249.136364 366.353836 
L 249.573668 364.430348 
L 250.010972 366.357833 
L 250.88558 360.712269 
L 251.322884 360.268618 
L 252.197492 351.556463 
L 252.634796 352.711555 
L 253.0721 351.296667 
L 253.509404 352.857441 
L 253.946708 352.380815 
L 254.384013 350.048647 
L 254.821317 348.331996 
L 255.258621 346.08676 
L 256.133229 339.401013 
L 257.007837 330.656884 
L 257.445141 322.103604 
L 257.882445 327.168625 
L 258.319749 326.555107 
L 258.757053 325.616844 
L 259.194357 321.747884 
L 259.631661 323.386596 
L 260.068966 322.54126 
L 260.50627 322.27447 
L 260.943574 315.960431 
L 261.380878 316.265192 
L 261.818182 315.024167 
L 262.255486 315.116094 
L 262.69279 312.030519 
L 263.130094 311.352052 
L 263.567398 313.765156 
L 264.004702 310.168982 
L 264.442006 314.616487 
L 264.87931 313.209592 
L 265.316614 315.255985 
L 265.753918 311.279109 
L 266.191223 311.998544 
L 266.628527 315.397873 
L 267.065831 315.530769 
L 267.503135 315.357905 
L 267.940439 315.321933 
L 268.377743 317.931882 
L 268.815047 318.349554 
L 269.252351 316.325145 
L 269.689655 311.272115 
L 270.564263 312.8179 
L 271.001567 315.850517 
L 271.438871 316.453044 
L 271.876176 315.604711 
L 272.31348 318.782214 
L 272.750784 323.103818 
L 273.188088 320.420926 
L 273.625392 321.299236 
L 274.062696 315.638684 
L 274.5 320.915538 
L 274.937304 320.480879 
L 275.374608 317.342345 
L 275.811912 315.766583 
L 276.249216 318.165698 
L 276.68652 319.034016 
L 277.123824 315.946442 
L 277.561129 319.619556 
L 277.998433 320.446906 
L 278.435737 322.4903 
L 278.873041 321.814831 
L 279.310345 325.867647 
L 279.747649 325.973564 
L 280.184953 329.762587 
L 280.622257 332.498437 
L 281.059561 334.115167 
L 281.496865 332.734252 
L 281.934169 335.400157 
L 282.371473 336.060638 
L 282.808777 336.421355 
L 283.246082 335.113382 
L 283.683386 338.983342 
L 284.12069 338.865434 
L 284.557994 338.907401 
L 284.995298 340.584084 
L 285.432602 339.0363 
L 285.869906 342.11688 
L 286.30721 341.825109 
L 286.744514 341.051717 
L 287.181818 342.541546 
L 287.619122 345.252416 
L 288.056426 340.224367 
L 288.49373 345.293384 
L 289.368339 343.269974 
L 289.805643 343.144073 
L 290.242947 344.58494 
L 290.680251 342.755378 
L 291.117555 344.314153 
L 291.554859 344.11431 
L 291.992163 344.391093 
L 292.429467 346.680294 
L 292.866771 347.623553 
L 293.304075 344.263193 
L 293.741379 345.224438 
L 294.178683 343.881493 
L 294.615987 341.291528 
L 295.053292 341.408436 
L 295.490596 341.97599 
L 295.9279 341.867076 
L 296.365204 340.607066 
L 296.802508 344.762801 
L 297.239812 347.669517 
L 297.677116 347.036015 
L 298.11442 347.455685 
L 298.551724 348.74767 
L 298.989028 349.505075 
L 299.426332 348.205096 
L 299.863636 348.442909 
L 300.30094 350.481308 
L 300.738245 348.465891 
L 301.612853 351.786282 
L 302.050157 351.773292 
L 302.487461 354.01653 
L 302.924765 359.160488 
L 303.362069 361.846378 
L 303.799373 359.919892 
L 304.236677 359.865934 
L 304.673981 364.301449 
L 305.111285 362.695711 
L 305.548589 366.064064 
L 305.985893 363.786853 
L 306.423197 364.034658 
L 306.860502 361.717479 
L 307.297806 360.720263 
L 307.73511 358.257198 
L 308.172414 360.472457 
L 308.609718 360.872143 
L 309.484326 364.686147 
L 309.92163 363.467104 
L 310.358934 360.964071 
L 310.796238 360.962073 
L 311.233542 361.774434 
L 311.670846 365.22872 
L 313.420063 373.560174 
L 313.857367 372.59793 
L 314.731975 376.638755 
L 315.169279 377.181329 
L 315.606583 377.237285 
L 316.043887 376.241068 
L 316.481191 378.869003 
L 316.918495 378.176547 
L 317.355799 379.530483 
L 317.793103 382.340275 
L 318.230408 382.170409 
L 318.667712 380.360831 
L 319.105016 380.861437 
L 319.54232 380.76951 
L 320.416928 379.439555 
L 320.854232 381.768725 
L 321.291536 380.434773 
L 321.72884 379.692356 
L 322.166144 377.801841 
L 322.603448 380.523703 
L 323.040752 376.702705 
L 323.478056 377.411148 
L 323.915361 378.617201 
L 324.352665 374.868146 
L 324.789969 373.125516 
L 325.227273 370.598501 
L 325.664577 364.911969 
L 326.101881 363.683934 
L 326.976489 356.264763 
L 327.413793 358.143287 
L 328.288401 356.074913 
L 328.725705 348.881564 
L 329.163009 347.389737 
L 329.600313 336.314439 
L 330.037618 333.673514 
L 330.474922 338.003112 
L 330.912226 338.211948 
L 331.34953 337.297666 
L 331.786834 337.654386 
L 332.224138 337.03787 
L 332.661442 339.408008 
L 333.973354 342.37068 
L 334.410658 340.987767 
L 334.847962 339.015317 
L 335.722571 343.632689 
L 336.159875 341.815117 
L 336.597179 341.385454 
L 337.034483 343.434844 
L 337.471787 343.208022 
L 337.909091 341.804125 
L 338.346395 339.016316 
L 339.221003 330.294169 
L 339.658307 331.313368 
L 340.095611 331.366326 
L 340.532915 327.039726 
L 340.970219 324.639612 
L 341.407524 320.305017 
L 341.844828 324.467747 
L 342.282132 325.336065 
L 342.719436 322.168553 
L 343.15674 320.443908 
L 343.594044 319.521633 
L 344.468652 312.394233 
L 345.34326 303.113525 
L 345.780564 300.847306 
L 346.217868 299.483377 
L 346.655172 299.72219 
L 347.092476 302.463036 
L 347.967085 300.645464 
L 348.404389 300.667447 
L 348.841693 303.003611 
L 349.278997 300.430633 
L 350.153605 307.26926 
L 350.590909 308.407366 
L 351.028213 307.656955 
L 351.465517 311.615845 
L 351.902821 311.230148 
L 352.340125 311.013318 
L 352.777429 311.7997 
L 353.214734 309.722332 
L 353.652038 308.92396 
L 354.089342 312.540118 
L 354.526646 310.610635 
L 354.96395 300.776361 
L 355.401254 304.636329 
L 356.275862 306.717693 
L 356.713166 302.809764 
L 357.15047 305.466676 
L 357.587774 303.282392 
L 358.025078 306.146142 
L 358.462382 301.868503 
L 358.899687 295.67437 
L 359.336991 294.96193 
L 359.774295 290.72326 
L 360.211599 293.654957 
L 360.648903 293.448119 
L 361.086207 290.935094 
L 361.523511 290.580373 
L 362.398119 296.04408 
L 362.835423 297.69778 
L 363.710031 303.166483 
L 364.147335 301.822539 
L 364.584639 297.26512 
L 365.021944 301.787567 
L 365.459248 307.530055 
L 365.896552 307.352195 
L 366.333856 306.626765 
L 366.77116 322.922961 
L 367.208464 320.033231 
L 367.645768 314.815331 
L 368.083072 321.611991 
L 368.520376 318.625337 
L 368.95768 296.708558 
L 369.394984 294.839026 
L 369.832288 297.261123 
L 370.269592 301.338919 
L 370.706897 300.452616 
L 371.144201 296.695568 
L 371.581505 300.144858 
L 372.018809 297.701777 
L 372.456113 302.128299 
L 372.893417 313.544329 
L 373.330721 334.108172 
L 374.205329 337.288673 
L 374.642633 337.745314 
L 375.079937 332.763229 
L 375.517241 312.561102 
L 376.39185 324.988338 
L 376.829154 318.83817 
L 377.266458 301.696638 
L 377.703762 307.76587 
L 378.141066 305.837385 
L 378.57837 303.301377 
L 379.015674 305.166912 
L 379.452978 301.232003 
L 379.890282 302.996617 
L 380.76489 314.188823 
L 381.639498 312.768939 
L 382.076803 316.579944 
L 382.514107 318.346556 
L 382.951411 318.937092 
L 383.388715 318.580373 
L 383.826019 323.717336 
L 384.263323 321.461109 
L 384.700627 321.856798 
L 385.137931 336.46532 
L 385.575235 337.527486 
L 386.012539 333.542617 
L 386.449843 337.391592 
L 386.887147 344.200243 
L 387.324451 348.792634 
L 387.761755 347.642538 
L 388.19906 348.985483 
L 388.636364 355.959004 
L 389.073668 360.899122 
L 389.510972 369.914039 
L 389.948276 369.163629 
L 390.38558 370.828321 
L 390.822884 375.819399 
L 391.260188 378.170552 
L 391.697492 382.521133 
L 392.5721 406.536264 
L 393.009404 411.274541 
L 393.446708 412.755378 
L 393.884013 413.555749 
L 394.758621 439.687217 
L 395.195925 444.679295 
L 395.633229 455.519777 
L 396.070533 456.379102 
L 396.507837 466.33428 
L 396.945141 467.506359 
L 397.382445 473.438698 
L 397.819749 470.043366 
L 398.257053 469.570737 
L 398.694357 473.905332 
L 399.131661 476.034658 
L 399.568966 476.518278 
L 400.00627 474.393948 
L 400.443574 474.888559 
L 400.880878 475.06542 
L 401.318182 473.590579 
L 401.755486 480.440197 
L 402.19279 482.723403 
L 402.630094 481.075698 
L 403.067398 482.824324 
L 403.504702 479.855656 
L 403.942006 484.08933 
L 404.37931 483.924459 
L 404.816614 486.691285 
L 405.253918 485.771008 
L 405.691223 491.643394 
L 406.565831 482.422639 
L 407.003135 486.952081 
L 407.440439 488.012248 
L 407.877743 485.334352 
L 408.315047 476.780073 
L 408.752351 477.271687 
L 409.189655 474.506859 
L 410.064263 472.007822 
L 410.501567 469.598715 
L 410.938871 463.646392 
L 411.376176 465.938591 
L 411.81348 466.985768 
L 412.250784 471.077553 
L 412.688088 468.602498 
L 413.125392 470.949654 
L 413.562696 473.992263 
L 414 475.060424 
L 414.874608 471.1455 
L 415.311912 474.133153 
L 415.749216 471.864935 
L 417.935737 491.602427 
L 418.810345 497.405867 
L 419.247649 503.394162 
L 419.684953 503.323217 
L 420.996865 512.200243 
L 421.434169 513.74403 
L 422.308777 524.499579 
L 422.746082 526.379102 
L 423.183386 529.280822 
L 423.62069 532.958932 
L 424.057994 533.600428 
L 424.495298 533.96714 
L 424.932602 537.133652 
L 425.369906 533.62341 
L 425.80721 540.333138 
L 426.244514 543.650532 
L 426.681818 548.499722 
L 427.119122 551.307516 
L 427.99373 555.025594 
L 428.431034 554.64889 
L 428.868339 552.436628 
L 429.305643 552.594504 
L 429.742947 550.689001 
L 430.617555 549.788709 
L 431.054859 546.790065 
L 431.492163 546.945942 
L 431.929467 545.804839 
L 432.366771 546.662165 
L 432.804075 543.92032 
L 433.241379 545.864792 
L 434.115987 544.064207 
L 435.4279 551.227578 
L 435.865204 552.223796 
L 436.302508 548.918393 
L 436.739812 548.917393 
L 437.177116 546.308443 
L 438.051724 535.287103 
L 438.489028 532.297452 
L 438.926332 525.575733 
L 439.363636 523.574306 
L 439.80094 519.251702 
L 440.238245 520.589651 
L 440.675549 516.21309 
L 441.550157 511.830533 
L 441.987461 508.607066 
L 442.862069 498.828749 
L 443.299373 496.191821 
L 443.736677 486.504432 
L 444.173981 479.379031 
L 444.611285 477.817258 
L 445.485893 462.319435 
L 445.923197 461.37118 
L 446.360502 455.460824 
L 447.23511 448.612205 
L 448.109718 430.499436 
L 448.547022 423.009321 
L 448.984326 423.181186 
L 449.42163 421.714339 
L 449.858934 418.133153 
L 450.733542 400.983627 
L 451.170846 393.671372 
L 451.60815 384.071915 
L 452.045455 384.543544 
L 452.482759 379.239712 
L 452.920063 378.937949 
L 453.357367 365.431561 
L 453.794671 371.725616 
L 454.231975 369.141646 
L 455.981191 343.858511 
L 456.855799 334.766655 
L 457.293103 328.685433 
L 457.730408 328.782357 
L 458.167712 326.973778 
L 458.605016 318.540404 
L 459.04232 312.573093 
L 459.479624 304.670302 
L 459.916928 299.159632 
L 461.22884 277.608565 
L 462.103448 281.72533 
L 462.978056 269.733752 
L 463.415361 267.709343 
L 463.852665 263.426708 
L 464.289969 261.24742 
L 464.727273 261.17048 
L 465.164577 258.473599 
L 465.601881 253.66238 
L 466.039185 251.433131 
L 466.913793 242.577089 
L 467.351097 240.327857 
L 467.788401 241.642823 
L 468.225705 238.501292 
L 468.663009 232.986625 
L 469.100313 231.754593 
L 469.537618 232.313154 
L 470.84953 235.735465 
L 471.286834 234.693284 
L 471.724138 234.518421 
L 472.161442 233.325359 
L 472.598746 237.111384 
L 473.03605 233.677082 
L 473.473354 237.060424 
L 473.910658 239.478524 
L 474.347962 239.196745 
L 474.785266 239.271687 
L 475.222571 243.510356 
L 475.659875 244.096895 
L 476.097179 239.057855 
L 476.534483 236.89955 
L 476.971787 228.162415 
L 477.409091 224.286461 
L 478.283699 209.029448 
L 478.721003 205.678082 
L 479.595611 190.660881 
L 480.470219 182.362401 
L 480.907524 177.579159 
L 481.344828 171.262123 
L 481.782132 170.795489 
L 482.219436 171.122233 
L 482.65674 166.061209 
L 483.094044 162.297167 
L 483.531348 162.624909 
L 483.968652 159.3275 
L 484.405956 160.90526 
L 484.84326 159.335494 
L 485.280564 160.764371 
L 485.717868 160.285747 
L 486.155172 165.297809 
L 486.592476 164.775219 
L 487.029781 166.255057 
L 487.467085 168.319435 
L 487.904389 169.438555 
L 488.341693 175.140076 
L 488.778997 175.463821 
L 489.216301 185.651816 
L 489.653605 184.816473 
L 490.965517 204.222225 
L 491.402821 205.813975 
L 491.840125 212.42578 
L 492.277429 212.867433 
L 492.714734 215.000757 
L 493.152038 220.775219 
L 493.589342 223.533053 
L 494.026646 224.907972 
L 494.46395 223.928742 
L 494.901254 224.698137 
L 495.338558 221.237856 
L 495.775862 222.116166 
L 496.213166 220.236643 
L 496.65047 217.701634 
L 497.087774 214.017529 
L 497.525078 215.559318 
L 497.962382 211.493512 
L 498.399687 211.868218 
L 498.836991 212.027093 
L 499.274295 211.742317 
L 499.711599 206.76123 
L 500.148903 199.588866 
L 500.586207 202.857298 
L 501.023511 201.255556 
L 501.460815 198.404796 
L 502.335423 197.040868 
L 502.772727 199.022311 
L 503.210031 200.445193 
L 503.647335 199.04929 
L 504.084639 199.284105 
L 504.521944 205.900906 
L 504.959248 208.675726 
L 505.396552 215.863079 
L 505.833856 219.422282 
L 506.708464 231.661666 
L 507.145768 236.131154 
L 507.583072 245.582728 
L 508.020376 249.511641 
L 508.45768 259.874499 
L 508.894984 266.264478 
L 509.332288 277.190893 
L 509.769592 282.266905 
L 510.206897 291.402726 
L 510.644201 295.048862 
L 511.081505 302.129298 
L 511.518809 307.240283 
L 511.956113 308.754093 
L 512.393417 316.240211 
L 512.830721 320.257055 
L 513.268025 327.820113 
L 513.705329 331.824966 
L 514.142633 340.115452 
L 514.579937 343.02017 
L 515.454545 357.17305 
L 516.766458 372.328142 
L 517.203762 381.670802 
L 517.641066 384.025951 
L 518.515674 395.683791 
L 519.390282 401.922889 
L 519.827586 406.925958 
L 520.26489 408.154993 
L 520.702194 410.440197 
L 521.576803 418.341988 
L 522.014107 416.415502 
L 522.451411 420.074627 
L 522.888715 428.247206 
L 523.326019 424.835886 
L 523.763323 428.358119 
L 524.200627 433.799843 
L 524.637931 434.46532 
L 525.075235 434.311441 
L 525.512539 434.688145 
L 525.949843 434.383384 
L 526.824451 429.278396 
L 527.69906 417.671515 
L 528.136364 409.881636 
L 528.573668 409.033302 
L 529.010972 404.803626 
L 529.448276 398.389665 
L 529.88558 400.112312 
L 530.322884 399.067133 
L 530.760188 396.51214 
L 531.197492 398.14186 
L 531.634796 394.146 
L 532.0721 393.015888 
L 532.509404 389.002041 
L 532.946708 378.899979 
L 533.384013 375.618557 
L 533.821317 370.263764 
L 534.258621 355.535337 
L 534.695925 350.791064 
L 535.133229 344.515995 
L 536.007837 326.128442 
L 536.445141 328.2188 
L 536.882445 327.235572 
L 537.319749 325.873642 
L 537.757053 329.46582 
L 538.194357 329.828535 
L 538.631661 330.550967 
L 539.068966 326.368254 
L 539.50627 328.017957 
L 539.943574 326.307301 
L 540.380878 326.417215 
L 540.818182 321.273257 
L 541.255486 322.154564 
L 541.69279 323.574449 
L 542.130094 322.88599 
L 543.004702 314.853301 
L 543.442006 308.630191 
L 543.87931 305.055999 
L 545.191223 291.949297 
L 545.628527 290.153708 
L 546.065831 287.792563 
L 546.503135 290.880137 
L 546.940439 289.800985 
L 547.377743 290.73625 
L 547.815047 286.362686 
L 548.252351 283.213161 
L 548.689655 286.468603 
L 549.126959 281.246706 
L 549.564263 283.24014 
L 550.001567 284.190393 
L 550.438871 284.038513 
L 550.876176 285.111669 
L 551.31348 288.633902 
L 551.750784 289.240425 
L 552.188088 292.41693 
L 552.625392 294.549254 
L 553.062696 295.180758 
L 553.5 297.579873 
L 553.937304 294.438341 
L 554.374608 298.537121 
L 554.811912 297.834673 
L 555.249216 302.22922 
L 555.68652 294.263479 
L 556.123824 290.549397 
L 556.561129 297.827678 
L 556.998433 293.157348 
L 557.435737 294.754093 
L 557.873041 297.359046 
L 558.310345 301.920462 
L 558.747649 303.213447 
L 559.622257 314.75238 
L 560.059561 329.213018 
L 560.496865 337.370609 
L 561.371473 348.715695 
L 561.808777 355.81112 
L 562.683386 373.64211 
L 563.12069 378.547256 
L 563.557994 384.90526 
L 563.995298 393.067847 
L 564.432602 398.056927 
L 564.869906 407.874213 
L 565.30721 412.249775 
L 565.744514 419.690929 
L 566.181818 424.524131 
L 566.619122 425.656242 
L 567.49373 435.882207 
L 567.931034 436.177974 
L 568.368339 442.707844 
L 568.805643 445.745457 
L 569.242947 447.186325 
L 570.117555 454.06492 
L 570.554859 456.495011 
L 570.992163 460.089187 
L 571.429467 467.670231 
L 571.866771 473.020027 
L 574.053292 488.420926 
L 574.490596 495.656242 
L 574.9279 494.691 
L 575.365204 494.926815 
L 576.677116 503.179331 
L 577.11442 503.847805 
L 577.551724 510.07791 
L 577.989028 508.328285 
L 578.426332 512.956648 
L 578.863636 515.116951 
L 579.30094 516.023239 
L 579.738245 514.659311 
L 580.175549 519.78928 
L 580.612853 522.27133 
L 581.050157 522.447191 
L 581.487461 526.693855 
L 582.362069 531.734894 
L 582.799373 533.517493 
L 583.236677 537.989979 
L 583.673981 534.761516 
L 584.111285 534.895411 
L 584.548589 534.891414 
L 584.985893 534.621626 
L 585.423197 531.586011 
L 585.860502 531.188323 
L 586.297806 529.564599 
L 586.73511 529.778431 
L 587.172414 530.737678 
L 587.609718 526.663878 
L 588.047022 525.78357 
L 588.484326 521.322076 
L 588.92163 522.827892 
L 589.358934 518.227507 
L 589.796238 518.15956 
L 590.233542 514.483449 
L 591.10815 502.341988 
L 591.545455 503.194319 
L 591.982759 503.296239 
L 592.420063 493.289101 
L 592.857367 493.636828 
L 593.294671 481.287531 
L 593.731975 485.472243 
L 594.169279 478.879423 
L 594.606583 477.106816 
L 595.043887 467.321505 
L 595.481191 463.094825 
L 596.355799 458.230647 
L 596.793103 449.408579 
L 597.230408 442.924673 
L 597.667712 440.946228 
L 598.105016 431.638541 
L 598.979624 416.368539 
L 599.416928 416.580373 
L 599.854232 413.106102 
L 600.291536 416.247634 
L 600.72884 413.404868 
L 601.166144 414.26719 
L 601.603448 413.89848 
L 602.478056 398.863293 
L 602.915361 396.637042 
L 603.352665 389.672514 
L 604.227273 381.251131 
L 604.664577 381.421997 
L 605.101881 379.274684 
L 605.539185 370.921248 
L 605.976489 378.861009 
L 606.413793 371.892484 
L 606.851097 368.014531 
L 607.288401 366.542688 
L 607.725705 375.824395 
L 608.600313 365.140789 
L 609.037618 364.4903 
L 609.474922 371.94944 
L 609.912226 376.549825 
L 610.34953 374.317579 
L 610.786834 365.846235 
L 611.224138 364.70713 
L 612.098746 347.940304 
L 612.973354 340.306302 
L 613.847962 317.98484 
L 614.722571 305.408722 
L 615.597179 301.218014 
L 616.471787 278.502862 
L 616.909091 269.06228 
L 617.346395 250.327999 
L 617.783699 254.812476 
L 618.221003 253.081836 
L 618.658307 247.175476 
L 619.532915 221.957291 
L 619.970219 220.708272 
L 620.407524 215.239569 
L 620.844828 215.665234 
L 621.282132 205.89691 
L 621.719436 208.605781 
L 622.15674 205.25941 
L 622.594044 205.56517 
L 623.905956 205.546185 
L 624.780564 199.947584 
L 625.217868 208.110171 
L 625.655172 209.885775 
L 626.092476 206.69828 
L 626.967085 215.954008 
L 627.404389 225.384598 
L 627.841693 227.827678 
L 628.278997 233.825965 
L 628.716301 232.82775 
L 629.153605 242.249347 
L 629.590909 242.222368 
L 630.028213 242.619056 
L 630.465517 245.119092 
L 630.902821 246.220227 
L 631.340125 246.170266 
L 631.777429 242.051502 
L 632.214734 241.013318 
L 632.652038 238.6182 
L 633.089342 239.73832 
L 633.526646 229.482378 
L 633.96395 231.744601 
L 634.838558 224.969924 
L 635.275862 223.33321 
L 635.713166 224.164556 
L 636.15047 225.999115 
L 636.587774 215.28853 
L 637.025078 211.479523 
L 637.899687 207.068989 
L 638.336991 202.665449 
L 638.774295 200.677011 
L 639.211599 201.407437 
L 639.648903 204.58594 
L 640.086207 198.247919 
L 640.523511 199.746742 
L 640.960815 199.524916 
L 641.398119 198.770509 
L 641.835423 196.47831 
L 642.272727 198.271901 
L 642.710031 196.308443 
L 643.147335 196.693141 
L 643.584639 192.066776 
L 644.021944 193.073985 
L 644.459248 193.277825 
L 644.896552 199.030305 
L 645.333856 201.335494 
L 645.77116 202.168839 
L 646.208464 205.352337 
L 646.645768 203.80955 
L 647.083072 194.888559 
L 647.520376 194.61977 
L 647.95768 191.185469 
L 648.394984 194.321005 
L 648.832288 190.624909 
L 649.269592 188.204811 
L 649.706897 209.340204 
L 650.581505 223.151353 
L 651.018809 222.305017 
L 651.456113 224.64418 
L 651.893417 223.35819 
L 652.330721 227.22715 
L 652.768025 225.613418 
L 653.205329 230.344701 
L 653.642633 228.413218 
L 654.079937 228.253344 
L 654.954545 236.769652 
L 655.39185 241.037299 
L 655.829154 240.546685 
L 656.266458 242.376247 
L 656.703762 241.542902 
L 657.141066 246.497009 
L 657.57837 246.836743 
L 658.015674 249.93231 
L 658.452978 251.927742 
L 658.890282 252.839026 
L 659.327586 255.993548 
L 659.76489 256.596075 
L 660.202194 259.289958 
L 660.639498 260.922675 
L 661.076803 265.224295 
L 661.514107 270.976775 
L 661.951411 272.642467 
L 662.388715 277.222868 
L 662.826019 284.364257 
L 663.263323 283.045293 
L 663.700627 286.751381 
L 664.137931 297.292099 
L 665.887147 319.139933 
L 666.324451 321.339205 
L 667.636364 337.26669 
L 668.073668 339.661809 
L 668.510972 345.641111 
L 668.948276 345.943873 
L 669.38558 344.897695 
L 669.822884 342.684434 
L 670.260188 339.642823 
L 670.697492 339.461966 
L 671.134796 340.549111 
L 671.5721 335.361188 
L 672.009404 332.503433 
L 672.446708 334.828606 
L 672.884013 338.5267 
L 673.321317 337.807266 
L 673.758621 333.686503 
L 674.195925 333.786425 
L 674.633229 335.592006 
L 675.070533 335.151353 
L 675.507837 314.948226 
L 675.945141 338.88342 
L 676.382445 342.76537 
L 676.819749 343.887488 
L 677.257053 346.908115 
L 677.694357 347.668518 
L 678.131661 347.680508 
L 678.568966 350.24849 
L 679.00627 351.779288 
L 679.443574 354.860866 
L 679.880878 350.187538 
L 680.318182 351.710342 
L 680.755486 351.574449 
L 681.19279 353.954579 
L 681.630094 354.770937 
L 682.067398 356.511569 
L 682.504702 353.437984 
L 682.942006 354.015531 
L 683.816614 353.516922 
L 684.253918 350.46532 
L 684.691223 349.539048 
L 685.128527 346.514424 
L 685.565831 346.45647 
L 686.003135 345.623125 
L 686.440439 346.019813 
L 686.877743 345.356334 
L 687.315047 347.073985 
L 687.752351 346.651317 
L 688.189655 343.125087 
L 688.626959 342.546542 
L 689.064263 340.604068 
L 689.501567 334.958504 
L 689.938871 338.714553 
L 690.376176 337.018885 
L 691.250784 334.906545 
L 691.688088 340.185397 
L 692.125392 342.19282 
L 692.562696 344.77679 
L 693 346.365541 
L 693.437304 347.051003 
L 693.874608 342.887274 
L 694.311912 343.750596 
L 694.749216 343.402869 
L 695.18652 340.480166 
L 696.061129 344.125302 
L 696.498433 342.102891 
L 696.935737 341.476383 
L 697.373041 335.763871 
L 697.810345 337.371608 
L 698.247649 336.043651 
L 698.684953 336.502291 
L 699.122257 334.911541 
L 699.559561 341.470388 
L 699.996865 342.688431 
L 700.871473 345.937877 
L 701.308777 345.54019 
L 701.746082 345.709057 
L 702.183386 348.600785 
L 702.62069 344.838741 
L 703.057994 343.397873 
L 703.495298 342.580515 
L 703.932602 344.55996 
L 704.369906 348.348983 
L 704.80721 348.41693 
L 705.244514 347.200885 
L 705.681818 350.263479 
L 706.119122 350.227507 
L 706.556426 347.214874 
L 706.99373 348.956506 
L 707.431034 346.935094 
L 707.868339 348.745671 
L 708.305643 345.486232 
L 708.742947 339.908615 
L 709.180251 338.371822 
L 709.617555 339.875641 
L 710.054859 340.88185 
L 710.492163 337.55946 
L 710.929467 341.761159 
L 711.366771 342.973207 
L 711.804075 334.89955 
L 712.241379 336.381386 
L 712.678683 336.615202 
L 713.115987 330.660881 
L 713.553292 327.116665 
L 713.990596 331.70606 
L 714.4279 338.722547 
L 714.865204 331.758019 
L 715.302508 331.216444 
L 715.739812 332.743245 
L 716.177116 335.526058 
L 716.61442 330.154279 
L 717.051724 330.748812 
L 717.489028 328.199814 
L 717.926332 328.464606 
L 718.80094 323.337635 
L 719.238245 322.229505 
L 719.675549 317.732039 
L 720.550157 314.322718 
L 720.987461 318.323574 
L 721.424765 314.053929 
L 721.862069 313.912041 
L 722.299373 309.880208 
L 722.736677 312.540118 
L 723.173981 313.994975 
L 723.611285 319.479666 
L 724.048589 322.788067 
L 724.485893 318.202669 
L 724.923197 320.598787 
L 725.797806 328.348697 
L 726.23511 314.067918 
L 726.672414 320.188109 
L 727.109718 324.155992 
L 727.547022 325.46896 
L 727.984326 317.531197 
L 728.42163 319.567597 
L 728.858934 324.070059 
L 729.296238 324.523703 
L 729.733542 330.327143 
L 730.170846 343.445835 
L 730.60815 340.306302 
L 731.045455 333.53762 
L 731.482759 334.589794 
L 731.920063 339.018314 
L 732.357367 339.886632 
L 732.794671 337.172764 
L 733.231975 340.023524 
L 733.669279 345.386311 
L 734.106583 331.445264 
L 734.543887 332.015816 
L 734.981191 342.285747 
L 735.418495 342.481593 
L 735.855799 327.97699 
L 736.293103 328.31972 
L 736.730408 332.514424 
L 737.167712 322.180544 
L 737.605016 315.523774 
L 738.04232 327.259553 
L 738.479624 335.99469 
L 738.916928 325.313083 
L 739.354232 321.94373 
L 740.22884 322.509286 
L 740.666144 308.291457 
L 741.103448 307.287246 
L 741.540752 314.830319 
L 741.978056 308.639183 
L 742.852665 320.312012 
L 743.727273 314.093898 
L 744.164577 321.421141 
L 744.601881 326.298308 
L 745.039185 321.497081 
L 745.476489 309.036871 
L 745.913793 310.649604 
L 746.351097 315.230005 
L 746.788401 307.920748 
L 747.225705 311.122233 
L 747.663009 317.999829 
L 748.100313 316.748812 
L 748.537618 302.576947 
L 748.974922 302.092327 
L 749.412226 294.556249 
L 749.84953 297.195175 
L 750.286834 295.488516 
L 750.724138 302.857726 
L 751.161442 303.22144 
L 751.598746 301.958433 
L 752.03605 303.100535 
L 752.473354 309.413575 
L 752.910658 310.801485 
L 753.347962 307.741889 
L 753.785266 308.293455 
L 754.222571 306.006252 
L 754.659875 300.378674 
L 755.097179 289.602141 
L 755.534483 289.215445 
L 755.971787 289.398301 
L 756.409091 294.909971 
L 756.846395 297.768725 
L 757.283699 297.18918 
L 757.721003 298.157419 
L 758.158307 292.037228 
L 758.595611 294.633188 
L 759.032915 301.355906 
L 759.907524 291.496653 
L 760.344828 294.307444 
L 760.782132 289.868932 
L 761.219436 288.201242 
L 761.65674 297.667804 
L 762.094044 293.07841 
L 762.531348 289.892913 
L 762.968652 281.779288 
L 763.405956 286.051931 
L 763.84326 285.891057 
L 764.280564 284.67801 
L 764.717868 275.455257 
L 765.155172 274.275184 
L 765.592476 278.920534 
L 766.467085 274.454043 
L 766.904389 275.061566 
L 767.341693 280.991906 
L 767.778997 274.094326 
L 768.216301 275.821968 
L 768.653605 271.184612 
L 769.090909 268.032089 
L 769.528213 265.791849 
L 769.965517 267.105817 
L 770.402821 276.182685 
L 770.840125 275.890914 
L 771.277429 277.137934 
L 771.714734 276.151709 
L 772.152038 276.924102 
L 772.589342 274.466034 
L 773.026646 274.308158 
L 773.46395 273.817543 
L 773.901254 278.883563 
L 774.338558 275.890914 
L 774.775862 275.079552 
L 775.213166 278.712697 
L 775.65047 278.397944 
L 776.087774 280.815045 
L 776.525078 279.908757 
L 776.962382 287.485804 
L 777.399687 286.276754 
L 777.836991 288.987624 
L 778.274295 288.096324 
L 778.711599 289.561173 
L 779.148903 285.935022 
L 779.586207 285.902048 
L 780.023511 294.355406 
L 780.460815 298.230362 
L 780.898119 298.798915 
L 781.335423 295.260695 
L 781.772727 301.421854 
L 782.210031 301.524773 
L 782.647335 298.342274 
L 783.084639 298.719977 
L 783.521944 303.244422 
L 784.396552 297.78771 
L 784.833856 300.658454 
L 785.27116 301.93645 
L 785.708464 302.782785 
L 786.145768 304.926101 
L 786.583072 309.64939 
L 787.020376 308.556249 
L 787.45768 305.311798 
L 787.894984 305.151923 
L 788.332288 306.945514 
L 788.769592 310.827464 
L 789.206897 310.497723 
L 790.081505 315.413861 
L 790.518809 321.544044 
L 790.956113 322.579231 
L 791.393417 327.790136 
L 791.830721 327.410435 
L 792.268025 332.318578 
L 792.705329 333.146927 
L 793.142633 336.182542 
L 793.579937 337.491514 
L 794.017241 341.516351 
L 794.454545 347.378745 
L 794.89185 349.087403 
L 795.329154 347.459682 
L 795.766458 340.47517 
L 796.203762 339.935593 
L 796.641066 339.916608 
L 797.07837 340.847877 
L 797.515674 339.195175 
L 797.952978 340.442195 
L 798.390282 343.928456 
L 798.827586 342.644465 
L 799.26489 340.307301 
L 799.702194 338.598644 
L 800.139498 337.970138 
L 800.576803 338.657598 
L 801.014107 337.380601 
L 801.451411 336.652173 
L 801.888715 340.188395 
L 802.326019 337.512497 
L 802.763323 339.769724 
L 803.200627 336.243494 
L 804.075235 341.255556 
L 804.512539 342.130869 
L 804.949843 341.135651 
L 805.824451 352.642609 
L 806.261755 354.172407 
L 806.69906 357.012176 
L 807.136364 357.494797 
L 807.573668 361.702491 
L 808.010972 361.311798 
L 808.448276 362.690714 
L 808.88558 362.470887 
L 809.322884 368.042509 
L 809.760188 369.797131 
L 810.197492 374.81319 
L 811.0721 380.976347 
L 811.946708 398.813332 
L 812.384013 402.981058 
L 813.258621 408.812476 
L 814.133229 417.083977 
L 814.570533 419.455114 
L 815.007837 419.106388 
L 815.882445 424.672015 
L 816.319749 425.613275 
L 816.757053 424.470173 
L 817.194357 418.426922 
L 817.631661 423.343059 
L 818.50627 418.0722 
L 818.943574 417.4367 
L 819.380878 417.171908 
L 819.818182 414.718835 
L 820.255486 414.892699 
L 820.69279 411.612276 
L 821.130094 410.778931 
L 821.567398 411.609278 
L 822.004702 413.711627 
L 822.442006 407.939162 
L 822.87931 407.033873 
L 823.316614 407.656384 
L 823.753918 407.976133 
L 824.191223 407.372607 
L 824.628527 405.250275 
L 825.065831 404.346985 
L 825.503135 404.436914 
L 825.940439 399.586725 
L 826.377743 399.841525 
L 826.815047 398.102891 
L 827.252351 400.164271 
L 827.689655 397.553322 
L 828.126959 396.896838 
L 828.564263 397.007751 
L 829.001567 396.571094 
L 829.438871 394.496724 
L 829.876176 398.506573 
L 830.31348 400.85273 
L 830.750784 399.233003 
L 831.188088 398.105888 
L 831.625392 400.851731 
L 832.062696 400.554964 
L 832.5 398.922247 
L 832.937304 399.348912 
L 833.374608 400.541974 
L 833.811912 396.580087 
L 834.249216 397.863079 
L 834.68652 397.575305 
L 835.123824 399.616701 
L 835.998433 388.913111 
L 836.435737 389.481664 
L 836.873041 389.809407 
L 837.747649 386.864721 
L 838.184953 386.151281 
L 838.622257 388.13772 
L 839.059561 387.937877 
L 839.496865 388.466462 
L 839.934169 391.57502 
L 840.371473 392.258483 
L 840.808777 392.55425 
L 841.246082 394.97335 
L 841.683386 395.248134 
L 842.12069 398.119877 
L 842.557994 394.115024 
L 842.995298 400.716837 
L 843.432602 411.595289 
L 844.30721 443.124516 
L 844.744514 462.689144 
L 845.619122 489.067418 
L 846.49373 524.501577 
L 846.931034 535.822682 
L 847.368339 539.8725 
L 847.805643 539.721619 
L 848.242947 541.448262 
L 848.680251 538.971208 
L 849.117555 540.556962 
L 849.554859 542.869146 
L 850.429467 536.337278 
L 852.178683 528.183684 
L 852.615987 524.392663 
L 853.053292 525.507787 
L 853.9279 519.900193 
L 854.365204 522.878852 
L 854.802508 521.962572 
L 855.239812 517.127371 
L 855.677116 517.639969 
L 856.11442 515.62755 
L 856.989028 508.74196 
L 857.426332 511.814546 
L 857.863636 506.213946 
L 858.30094 508.009535 
L 858.738245 512.971637 
L 859.175549 506.219941 
L 859.612853 502.079195 
L 860.050157 507.752737 
L 860.487461 509.126658 
L 860.924765 512.718835 
L 861.362069 517.543045 
L 861.799373 520.249918 
L 862.236677 516.343987 
L 862.673981 519.616416 
L 863.111285 522.036514 
L 863.548589 517.61299 
L 864.423197 505.459539 
L 864.860502 492.301877 
L 865.297806 464.723546 
L 865.73511 463.719335 
L 867.047022 436.965356 
L 867.92163 385.691642 
L 868.358934 381.272115 
L 868.796238 368.329284 
L 869.233542 362.540832 
L 869.670846 354.171408 
L 870.10815 349.660952 
L 870.545455 343.68165 
L 870.982759 344.301163 
L 871.420063 340.420213 
L 871.857367 345.525202 
L 872.294671 342.211805 
L 872.731975 346.131725 
L 873.169279 334.960502 
L 873.606583 338.077054 
L 874.043887 330.28018 
L 874.481191 327.395446 
L 874.918495 322.895982 
L 875.355799 320.189109 
L 875.793103 320.214089 
L 876.230408 322.454329 
L 876.667712 318.872143 
L 877.105016 318.04879 
L 877.54232 319.191892 
L 877.979624 321.513068 
L 878.416928 320.496867 
L 878.854232 322.747099 
L 879.291536 327.643252 
L 880.166144 327.244565 
L 880.603448 328.273756 
L 881.040752 325.185183 
L 881.478056 323.405581 
L 881.915361 323.2547 
L 882.352665 328.412647 
L 882.789969 328.974206 
L 883.227273 333.633545 
L 883.664577 329.180044 
L 884.101881 326.344272 
L 884.539185 325.604853 
L 884.976489 324.142003 
L 885.413793 329.054143 
L 885.851097 326.265334 
L 886.288401 326.011534 
L 886.725705 326.08048 
L 887.163009 325.841667 
L 887.600313 327.910042 
L 888.474922 324.808479 
L 888.912226 324.444765 
L 889.34953 327.965998 
L 889.786834 326.089473 
L 890.224138 327.608279 
L 890.661442 327.911041 
L 891.098746 331.037585 
L 891.973354 334.244065 
L 892.410658 351.896196 
L 892.847962 362.040226 
L 893.285266 367.091257 
L 893.722571 364.479309 
L 894.159875 365.605424 
L 894.597179 367.204168 
L 895.034483 370.888273 
L 895.471787 370.833317 
L 895.909091 374.707273 
L 896.346395 376.482878 
L 896.783699 374.187681 
L 897.221003 372.541974 
L 897.658307 372.973635 
L 898.095611 374.46946 
L 898.532915 373.714053 
L 898.970219 373.471244 
L 899.844828 375.29681 
L 900.282132 375.848376 
L 900.719436 375.221869 
L 901.15674 371.513782 
L 901.594044 373.941874 
L 902.031348 371.433845 
L 902.468652 371.411862 
L 902.905956 370.235786 
L 904.217868 364.345414 
L 904.655172 359.650103 
L 905.092476 358.780787 
L 905.529781 358.64889 
L 906.404389 353.970566 
L 906.841693 352.691571 
L 907.278997 354.707987 
L 908.153605 355.697209 
L 908.590909 354.039512 
L 909.028213 354.337278 
L 909.902821 358.100321 
L 910.340125 364.151567 
L 910.777429 365.966141 
L 911.214734 366.199957 
L 911.652038 364.866005 
L 912.089342 361.48666 
L 912.526646 362.932524 
L 912.96395 358.834744 
L 913.401254 349.942731 
L 913.838558 352.686575 
L 914.275862 348.321005 
L 914.713166 341.278538 
L 915.15047 344.005396 
L 915.587774 341.990979 
L 916.025078 338.57766 
L 916.462382 329.969424 
L 916.899687 327.751167 
L 917.336991 329.017172 
L 917.774295 327.637256 
L 918.211599 312.033517 
L 918.648903 325.78771 
L 919.086207 329.921462 
L 919.523511 328.735394 
L 919.960815 324.034088 
L 920.398119 326.16941 
L 920.835423 325.484948 
L 921.272727 325.428992 
L 921.710031 322.808051 
L 922.147335 321.643965 
L 922.584639 325.813689 
L 923.021944 326.717979 
L 923.459248 321.448119 
L 923.896552 319.110956 
L 924.333856 322.555249 
L 924.77116 319.01603 
L 925.208464 319.540618 
L 925.645768 317.573164 
L 926.083072 314.152851 
L 926.520376 313.964999 
L 926.95768 313.35248 
L 927.394984 311.136222 
L 927.832288 306.054215 
L 928.269592 308.32543 
L 928.706897 304.72426 
L 929.144201 293.194319 
L 929.581505 294.46532 
L 930.018809 295.054857 
L 930.456113 294.292456 
L 930.893417 288.911684 
L 931.768025 282.331854 
L 932.205329 282.023096 
L 932.642633 277.470673 
L 933.079937 269.344058 
L 933.517241 265.904761 
L 933.954545 261.564171 
L 933.954545 261.564171 
" style="fill:none;stroke:#ff0000;stroke-linecap:square;stroke-width:1.5;"/>
   </g>
   <g id="line2d_34">
    <path clip-path="url(#p2b2e229b18)" d="M 173.045455 474.520848 
L 174.794671 480.845878 
L 175.231975 481.833103 
L 175.669279 482.402655 
L 176.543887 486.084762 
L 177.418495 487.861366 
L 177.855799 488.040226 
L 178.293103 488.010249 
L 178.730408 487.229862 
L 179.167712 486.059782 
L 179.605016 485.332353 
L 180.04232 485.375319 
L 180.479624 486.20167 
L 180.916928 487.806409 
L 183.978056 506.352837 
L 185.289969 511.895482 
L 185.727273 511.865506 
L 186.164577 511.607708 
L 186.601881 510.849304 
L 187.039185 508.910827 
L 189.225705 494.187396 
L 189.663009 492.508715 
L 190.100313 491.565456 
L 190.537618 490.276468 
L 190.974922 489.3452 
L 191.84953 486.729256 
L 192.724138 485.660096 
L 193.161442 482.9822 
L 194.910658 463.43256 
L 195.347962 460.893555 
L 195.785266 460.542831 
L 197.097179 457.687074 
L 197.534483 457.85794 
L 197.971787 457.491228 
L 198.409091 456.864721 
L 198.846395 455.658668 
L 199.283699 453.831104 
L 199.721003 453.597288 
L 200.158307 453.806124 
L 200.595611 453.277539 
L 201.470219 449.858226 
L 202.344828 448.349411 
L 202.782132 447.158347 
L 203.219436 444.973064 
L 203.65674 441.415859 
L 204.094044 436.848448 
L 204.531348 433.747884 
L 204.968652 433.036443 
L 205.84326 433.476097 
L 206.280564 432.889558 
L 206.717868 431.392734 
L 208.029781 423.988552 
L 208.467085 425.987981 
L 208.904389 431.560602 
L 209.778997 444.994048 
L 210.216301 449.341632 
L 210.653605 451.096253 
L 211.090909 451.08726 
L 211.528213 450.613632 
L 211.965517 448.6182 
L 213.277429 437.867647 
L 213.714734 432.845593 
L 214.589342 418.776647 
L 215.46395 405.19332 
L 215.901254 399.348912 
L 216.338558 395.236143 
L 217.213166 390.545828 
L 217.65047 388.929099 
L 218.087774 388.366541 
L 218.525078 388.603355 
L 218.962382 389.638541 
L 219.399687 391.459111 
L 220.274295 396.603069 
L 222.023511 414.058354 
L 222.460815 420.965927 
L 223.335423 440.156848 
L 223.772727 447.239283 
L 224.647335 455.545757 
L 225.084639 457.55318 
L 225.521944 457.48923 
L 225.959248 455.476811 
L 227.708464 442.107316 
L 228.145768 438.053501 
L 229.45768 419.844808 
L 229.894984 416.689287 
L 230.332288 417.235858 
L 230.769592 417.485661 
L 231.206897 415.483235 
L 231.644201 414.055357 
L 232.081505 413.199029 
L 232.518809 413.661666 
L 232.956113 415.551181 
L 233.393417 418.398944 
L 233.830721 422.23393 
L 234.268025 430.094754 
L 234.705329 435.793277 
L 235.579937 440.807337 
L 236.017241 442.097324 
L 236.454545 442.157276 
L 236.89185 441.321933 
L 237.766458 437.742745 
L 238.641066 434.156563 
L 239.515674 429.354336 
L 240.390282 425.081693 
L 240.827586 422.556677 
L 241.26489 419.146356 
L 242.139498 408.884419 
L 243.451411 393.174763 
L 244.763323 375.23286 
L 245.637931 366.383813 
L 246.075235 362.192106 
L 246.512539 359.430276 
L 246.949843 357.695639 
L 247.824451 351.919178 
L 248.69906 351.681365 
L 249.136364 349.890772 
L 249.573668 348.620769 
L 250.010972 347.777432 
L 250.448276 347.274827 
L 252.634796 338.084048 
L 253.0721 338.324859 
L 253.509404 339.73675 
L 254.384013 341.427421 
L 254.821317 342.233788 
L 255.258621 341.899051 
L 255.695925 340.962786 
L 256.133229 339.272115 
L 257.445141 329.627693 
L 257.882445 327.069702 
L 258.757053 324.141003 
L 259.631661 320.923532 
L 260.068966 318.874142 
L 260.943574 312.518136 
L 261.380878 308.150567 
L 262.255486 297.194176 
L 262.69279 294.513282 
L 263.130094 292.631761 
L 264.004702 290.351552 
L 264.442006 290.564385 
L 264.87931 291.497652 
L 265.316614 291.934309 
L 265.753918 291.731468 
L 266.191223 292.003255 
L 267.065831 293.30723 
L 267.503135 293.387167 
L 268.377743 294.30045 
L 268.815047 295.010891 
L 269.689655 298.318293 
L 270.126959 299.463393 
L 270.564263 299.612276 
L 271.001567 300.132867 
L 271.438871 301.486803 
L 272.750784 303.554179 
L 273.188088 304.797202 
L 273.625392 305.504646 
L 274.062696 304.272614 
L 274.937304 299.932025 
L 275.374608 298.77993 
L 275.811912 298.719977 
L 276.249216 299.061709 
L 276.68652 299.597288 
L 277.998433 306.725687 
L 278.435737 307.767868 
L 278.873041 308.041653 
L 279.310345 309.466533 
L 279.747649 310.040083 
L 280.622257 309.098822 
L 281.059561 309.232717 
L 281.934169 307.987695 
L 282.371473 308.110599 
L 282.808777 308.535265 
L 283.683386 310.274898 
L 284.557994 314.312726 
L 286.744514 330.527985 
L 287.181818 333.043009 
L 288.056426 335.373178 
L 288.49373 336.502291 
L 290.242947 339.233145 
L 290.680251 340.519135 
L 291.992163 343.454828 
L 292.429467 343.759589 
L 292.866771 343.456827 
L 293.304075 344.075341 
L 293.741379 344.094326 
L 294.178683 343.717622 
L 295.053292 343.488802 
L 295.490596 343.279966 
L 295.9279 343.506788 
L 296.365204 343.556748 
L 296.802508 344.177261 
L 297.239812 345.392306 
L 297.677116 345.791992 
L 298.11442 345.442267 
L 298.551724 344.832746 
L 298.989028 343.552751 
L 299.863636 340.235358 
L 300.738245 338.014103 
L 301.175549 337.618414 
L 301.612853 338.711555 
L 304.236677 348.455899 
L 304.673981 349.837813 
L 305.111285 350.412362 
L 305.548589 350.574235 
L 305.985893 350.941946 
L 306.860502 351.280679 
L 307.297806 352.5277 
L 308.172414 356.971208 
L 308.609718 357.916466 
L 309.484326 360.503433 
L 309.92163 361.352766 
L 310.358934 361.613561 
L 310.796238 360.783213 
L 311.233542 359.419285 
L 311.670846 357.250989 
L 312.545455 351.078838 
L 312.982759 348.961502 
L 313.420063 347.688502 
L 313.857367 347.787424 
L 314.294671 348.282036 
L 314.731975 348.446906 
L 315.169279 347.896339 
L 315.606583 347.852373 
L 316.043887 348.704703 
L 316.481191 350.594219 
L 317.355799 356.45961 
L 318.667712 365.986125 
L 319.54232 371.721619 
L 319.979624 373.538191 
L 320.416928 374.369538 
L 321.291536 375.122946 
L 321.72884 375.074984 
L 322.166144 375.230861 
L 322.603448 375.653529 
L 323.040752 375.343773 
L 323.915361 373.992834 
L 324.352665 373.007608 
L 325.227273 370.533552 
L 325.664577 369.5823 
L 326.101881 368.060495 
L 326.539185 366.125016 
L 327.851097 362.139148 
L 328.725705 361.277825 
L 329.163009 360.213661 
L 329.600313 358.549968 
L 330.037618 355.928028 
L 330.912226 348.503861 
L 331.786834 340.260338 
L 332.224138 337.689358 
L 332.661442 335.926743 
L 333.098746 333.193891 
L 333.53605 329.658668 
L 333.973354 324.648605 
L 334.410658 317.491228 
L 334.847962 312.297309 
L 335.285266 309.515495 
L 335.722571 307.856798 
L 336.159875 307.144358 
L 336.597179 307.518064 
L 337.034483 308.874998 
L 337.471787 311.463964 
L 339.221003 324.966355 
L 339.658307 327.281536 
L 340.532915 332.744244 
L 341.844828 336.738106 
L 342.282132 337.146785 
L 342.719436 336.413361 
L 343.15674 334.146142 
L 344.905956 317.740033 
L 346.655172 300.993191 
L 349.278997 286.857298 
L 351.028213 274.33114 
L 351.465517 273.678652 
L 351.902821 274.319149 
L 352.777429 274.859725 
L 353.214734 275.672086 
L 353.652038 276.725259 
L 354.089342 277.453686 
L 354.526646 279.302234 
L 355.401254 284.13044 
L 356.713166 289.76901 
L 357.15047 290.868146 
L 357.587774 290.91511 
L 358.025078 289.813975 
L 358.462382 288.321148 
L 358.899687 287.585726 
L 359.336991 284.227364 
L 359.774295 278.488873 
L 360.211599 274.569952 
L 361.523511 267.576447 
L 361.960815 266.517279 
L 362.398119 265.771865 
L 362.835423 265.967711 
L 363.272727 263.6905 
L 364.584639 253.106816 
L 365.021944 251.686932 
L 365.459248 250.748669 
L 365.896552 249.519635 
L 366.333856 248.792206 
L 366.77116 250.523846 
L 367.208464 253.582442 
L 367.645768 257.792135 
L 368.520376 268.177974 
L 368.95768 270.422211 
L 369.394984 270.927814 
L 369.832288 273.995404 
L 371.144201 289.118521 
L 371.581505 296.773507 
L 372.018809 300.222796 
L 372.456113 301.865506 
L 372.893417 304.505431 
L 373.330721 303.33635 
L 374.205329 289.534195 
L 374.642633 284.915823 
L 375.517241 280.027664 
L 375.954545 277.054 
L 376.39185 276.182685 
L 376.829154 276.280608 
L 377.266458 279.974706 
L 377.703762 290.009821 
L 378.57837 315.572736 
L 379.452978 335.664949 
L 379.890282 338.967354 
L 380.327586 333.739462 
L 381.202194 328.16784 
L 381.639498 322.182542 
L 382.076803 313.150639 
L 382.951411 300.879281 
L 383.826019 295.033873 
L 384.263323 292.845593 
L 384.700627 293.94373 
L 385.137931 299.011748 
L 387.761755 336.438341 
L 388.636364 344.414075 
L 389.073668 345.348341 
L 389.510972 348.513853 
L 389.948276 354.664021 
L 390.38558 358.564956 
L 390.822884 360.654314 
L 391.260188 363.427136 
L 392.134796 370.871287 
L 393.009404 374.870145 
L 393.446708 378.262479 
L 394.758621 393.034873 
L 396.070533 402.12573 
L 396.507837 406.979916 
L 398.257053 440.555535 
L 398.694357 446.523846 
L 399.568966 465.804696 
L 400.880878 495.091685 
L 401.755486 508.966783 
L 402.19279 512.765798 
L 402.630094 513.072557 
L 403.504702 509.873071 
L 403.942006 507.080266 
L 405.253918 494.189394 
L 405.691223 489.845807 
L 406.128527 486.815188 
L 407.440439 483.329926 
L 407.877743 483.767583 
L 408.315047 484.416073 
L 409.189655 486.720263 
L 409.626959 488.766655 
L 410.501567 493.516922 
L 410.938871 493.078267 
L 411.376176 492.129013 
L 411.81348 492.907401 
L 412.250784 492.402798 
L 412.688088 489.703918 
L 415.749216 459.594576 
L 416.18652 457.200457 
L 416.623824 457.377318 
L 417.061129 458.330569 
L 417.498433 459.885347 
L 417.935737 462.778074 
L 418.810345 470.438056 
L 420.559561 479.082264 
L 420.996865 482.827321 
L 421.871473 493.38003 
L 423.62069 517.920748 
L 424.495298 527.689073 
L 425.369906 535.174192 
L 426.681818 544.177118 
L 427.556426 551.5823 
L 428.431034 557.391735 
L 429.305643 559.234287 
L 430.180251 559.019456 
L 430.617555 559.922746 
L 431.054859 562.059068 
L 432.804075 574.028663 
L 433.241379 575.083834 
L 433.678683 575.171765 
L 434.115987 574.208522 
L 434.553292 572.081193 
L 434.990596 569.399301 
L 435.865204 561.550467 
L 436.739812 553.231004 
L 437.61442 546.396374 
L 438.489028 542.46846 
L 438.926332 541.322361 
L 439.363636 541.648105 
L 439.80094 543.013033 
L 440.238245 545.48609 
L 440.675549 547.307658 
L 441.550157 548.533695 
L 441.987461 547.355621 
L 442.424765 543.61456 
L 442.862069 538.237785 
L 445.485893 498.115309 
L 447.672414 473.931311 
L 448.109718 467.833103 
L 450.296238 430.102748 
L 451.60815 411.892056 
L 452.045455 406.025666 
L 453.794671 376.711698 
L 454.669279 369.183613 
L 455.543887 357.072129 
L 456.418495 341.281536 
L 457.293103 330.647891 
L 458.167712 321.512069 
L 459.04232 319.1819 
L 459.479624 316.402084 
L 460.354232 307.792848 
L 462.103448 286.406652 
L 462.978056 279.132367 
L 463.852665 267.716337 
L 465.164577 243.195603 
L 466.039185 225.876212 
L 466.476489 221.203883 
L 468.225705 210.202527 
L 468.663009 208.394947 
L 469.100313 207.608565 
L 469.537618 207.725473 
L 469.974922 207.271829 
L 470.412226 206.147713 
L 470.84953 204.53398 
L 472.161442 197.180758 
L 472.598746 196.008679 
L 473.03605 194.152138 
L 473.473354 191.784998 
L 473.910658 190.370109 
L 474.347962 190.019385 
L 474.785266 190.711841 
L 476.971787 198.788495 
L 477.846395 202.542545 
L 480.032915 215.817115 
L 480.470219 217.038156 
L 480.907524 216.805339 
L 481.344828 214.351267 
L 481.782132 209.479095 
L 482.219436 202.889273 
L 483.531348 176.213232 
L 484.84326 147.019171 
L 486.155172 124.295025 
L 486.592476 120.007394 
L 487.467085 114.23393 
L 487.904389 112.259482 
L 488.341693 111.6 
L 488.778997 111.722903 
L 489.216301 112.882992 
L 490.090909 117.559318 
L 490.528213 121.095539 
L 492.714734 144.325287 
L 493.589342 156.017101 
L 497.087774 212.895411 
L 498.399687 226.313868 
L 498.836991 228.51214 
L 499.274295 229.292527 
L 499.711599 228.48716 
L 500.148903 226.635615 
L 500.586207 224.117593 
L 501.023511 220.649318 
L 502.772727 202.865292 
L 503.210031 199.508929 
L 504.084639 194.979488 
L 504.959248 188.098894 
L 505.396552 186.286318 
L 506.27116 183.676369 
L 506.708464 183.094825 
L 507.145768 183.436557 
L 508.020376 186.705988 
L 508.45768 188.365684 
L 508.894984 191.739034 
L 509.769592 202.855299 
L 510.644201 217.980415 
L 511.956113 245.506788 
L 513.705329 288.898694 
L 515.017241 322.016673 
L 515.89185 339.625837 
L 516.766458 352.091043 
L 518.515674 372.326144 
L 523.326019 426.679438 
L 524.200627 432.857583 
L 524.637931 435.151781 
L 525.075235 436.417786 
L 525.512539 437.091257 
L 525.949843 437.980558 
L 526.387147 438.235358 
L 526.824451 437.358047 
L 527.69906 438.359261 
L 528.136364 437.955578 
L 528.573668 438.585083 
L 529.010972 439.723189 
L 529.448276 440.176832 
L 529.88558 440.024952 
L 530.322884 439.096681 
L 530.760188 437.267119 
L 531.197492 434.009678 
L 531.634796 428.786782 
L 532.0721 421.803269 
L 533.821317 384.54954 
L 534.258621 374.691285 
L 535.133229 362.016244 
L 535.570533 357.144073 
L 536.445141 351.257698 
L 536.882445 349.302234 
L 537.319749 346.22765 
L 538.194357 337.361616 
L 538.631661 331.277396 
L 539.943574 305.10596 
L 540.818182 285.699208 
L 541.255486 279.516066 
L 541.69279 275.187467 
L 542.130094 273.333923 
L 542.567398 274.438056 
L 543.004702 276.766227 
L 544.753918 287.960431 
L 546.503135 297.520919 
L 546.940439 299.354479 
L 547.377743 299.999971 
L 547.815047 298.176404 
L 548.689655 290.062779 
L 549.564263 278.815616 
L 550.438871 267.664378 
L 550.876176 263.733467 
L 551.31348 261.910899 
L 551.750784 261.287388 
L 552.188088 261.152494 
L 552.625392 260.29217 
L 553.062696 260.201242 
L 553.5 260.310156 
L 553.937304 260.130298 
L 554.374608 261.590151 
L 555.249216 265.715909 
L 556.123824 272.890272 
L 556.998433 281.655385 
L 557.873041 290.397516 
L 558.310345 293.517065 
L 559.622257 300.086903 
L 560.059561 301.320934 
L 560.934169 298.051502 
L 561.371473 297.548897 
L 561.808777 296.328856 
L 562.246082 295.72533 
L 562.683386 296.907401 
L 563.12069 298.939804 
L 563.557994 302.057355 
L 563.995298 306.625765 
L 564.432602 314.390664 
L 566.181818 361.429705 
L 567.931034 409.649818 
L 569.242947 438.984769 
L 570.554859 465.230148 
L 570.992163 471.019599 
L 571.866771 478.873428 
L 572.304075 481.400443 
L 572.741379 482.398658 
L 573.178683 484.222225 
L 573.615987 484.897695 
L 574.053292 484.703847 
L 574.9279 483.866505 
L 575.365204 483.64368 
L 575.802508 484.951652 
L 576.239812 487.993262 
L 578.426332 507.78671 
L 579.30094 517.720905 
L 579.738245 521.105246 
L 581.050157 527.884919 
L 582.362069 533.22972 
L 583.673981 536.733966 
L 584.111285 536.654029 
L 584.548589 536.829891 
L 585.860502 538.741389 
L 586.73511 541.899907 
L 587.172414 543.597573 
L 587.609718 545.801841 
L 588.047022 547.289672 
L 588.484326 547.57245 
L 588.92163 547.07584 
L 589.358934 546.38938 
L 589.796238 544.482878 
L 590.670846 537.954008 
L 591.982759 527.013604 
L 594.169279 500.193676 
L 595.043887 488.771651 
L 595.918495 474.081193 
L 597.230408 456.411077 
L 598.54232 436.206952 
L 599.416928 424.401228 
L 600.291536 410.971779 
L 601.166144 400.902691 
L 602.915361 374.08676 
L 603.789969 357.509785 
L 604.227273 351.161773 
L 604.664577 346.722261 
L 605.101881 344.300164 
L 605.539185 343.164057 
L 606.413793 344.180258 
L 606.851097 342.591507 
L 607.725705 337.062851 
L 609.037618 325.309086 
L 609.474922 323.006895 
L 610.34953 317.384312 
L 610.786834 317.235429 
L 611.661442 313.87407 
L 612.098746 314.654457 
L 612.53605 318.30359 
L 612.973354 320.100178 
L 613.410658 321.367183 
L 613.847962 323.981129 
L 614.722571 337.227721 
L 615.159875 341.476383 
L 615.597179 342.608493 
L 616.034483 341.964999 
L 616.471787 336.599215 
L 617.346395 320.324003 
L 617.783699 310.424781 
L 619.970219 246.91668 
L 620.844828 229.924031 
L 621.719436 208.417929 
L 622.15674 196.314439 
L 622.594044 187.778146 
L 623.468652 175.800557 
L 624.34326 161.278967 
L 624.780564 156.621626 
L 625.655172 151.078981 
L 626.092476 149.597145 
L 626.529781 149.657098 
L 626.967085 150.27861 
L 627.404389 152.382956 
L 628.278997 158.841881 
L 628.716301 162.094326 
L 629.153605 164.221654 
L 629.590909 167.318221 
L 630.465517 177.511213 
L 630.902821 181.525059 
L 631.340125 187.407437 
L 632.214734 204.217229 
L 633.526646 229.644251 
L 634.401254 242.901834 
L 635.275862 250.014246 
L 635.713166 251.551038 
L 636.15047 251.309228 
L 636.587774 249.324788 
L 637.462382 241.779716 
L 638.336991 229.032731 
L 640.086207 202.921248 
L 640.960815 193.777432 
L 642.272727 175.749597 
L 643.147335 165.281821 
L 643.584639 161.206024 
L 644.021944 159.488373 
L 644.459248 158.828892 
L 644.896552 157.909614 
L 645.333856 157.856655 
L 646.645768 158.993762 
L 647.520376 160.783356 
L 647.95768 161.505788 
L 648.394984 161.444836 
L 648.832288 162.478024 
L 649.269592 164.619342 
L 650.144201 174.048933 
L 651.018809 183.926172 
L 651.456113 186.455185 
L 651.893417 186.14343 
L 652.768025 184.914396 
L 653.205329 184.706559 
L 653.642633 183.069845 
L 654.079937 184.594647 
L 654.954545 201.634259 
L 655.829154 217.889487 
L 656.703762 228.265334 
L 657.141066 231.654671 
L 658.015674 235.760445 
L 658.452978 236.019242 
L 658.890282 235.577589 
L 659.327586 236.125159 
L 659.76489 237.448119 
L 660.202194 239.306659 
L 660.639498 240.41279 
L 661.514107 242.115452 
L 662.388715 245.752594 
L 665.449843 261.427279 
L 666.324451 269.255128 
L 666.761755 273.361901 
L 667.636364 284.051502 
L 668.073668 287.832532 
L 668.510972 293.067418 
L 671.5721 340.689001 
L 672.884013 357.006181 
L 673.321317 361.273828 
L 673.758621 363.823824 
L 674.195925 364.489301 
L 674.633229 363.223296 
L 675.507837 357.473813 
L 675.945141 353.758732 
L 676.819749 343.777575 
L 677.257053 340.560103 
L 677.694357 338.751524 
L 679.00627 330.383099 
L 679.443574 329.180044 
L 680.318182 319.107958 
L 680.755486 322.131582 
L 681.630094 331.232432 
L 682.504702 341.114667 
L 683.816614 353.30409 
L 684.253918 356.16784 
L 684.691223 357.32593 
L 685.128527 357.767583 
L 686.440439 358.031375 
L 686.877743 357.331925 
L 688.189655 352.747527 
L 689.064263 348.232075 
L 690.81348 335.947727 
L 691.250784 334.22508 
L 691.688088 333.184898 
L 692.125392 333.454686 
L 692.562696 333.483663 
L 693 333.112954 
L 693.437304 332.905117 
L 694.311912 330.340133 
L 694.749216 330.20424 
L 695.623824 329.524773 
L 696.061129 330.173264 
L 696.498433 332.66031 
L 698.247649 347.032018 
L 698.684953 347.57659 
L 699.122257 347.618557 
L 699.559561 346.71127 
L 699.996865 345.517208 
L 700.871473 345.29838 
L 701.308777 344.867718 
L 701.746082 343.161059 
L 702.62069 338.152994 
L 703.057994 335.949725 
L 703.495298 334.320006 
L 703.932602 333.584584 
L 704.369906 335.030448 
L 705.244514 340.035515 
L 705.681818 342.710413 
L 706.556426 345.98484 
L 706.99373 347.011034 
L 707.431034 346.593362 
L 708.305643 345.415288 
L 708.742947 346.090757 
L 709.180251 347.637542 
L 710.492163 350.93695 
L 710.929467 350.801056 
L 712.678683 346.696281 
L 713.115987 344.493013 
L 713.990596 337.607423 
L 714.865204 333.369752 
L 715.302508 332.182685 
L 715.739812 332.86315 
L 716.177116 332.257626 
L 716.61442 330.373107 
L 717.051724 329.307944 
L 717.489028 327.896053 
L 717.926332 325.04929 
L 718.363636 323.240711 
L 718.80094 324.347841 
L 719.238245 326.443195 
L 719.675549 326.51214 
L 720.112853 326.831889 
L 720.987461 328.82932 
L 721.424765 328.371679 
L 722.299373 326.358261 
L 722.736677 325.005324 
L 723.611285 319.240854 
L 724.048589 315.734609 
L 725.360502 303.338348 
L 725.797806 301.471815 
L 726.23511 300.144858 
L 726.672414 298.407223 
L 727.109718 297.211163 
L 727.547022 297.5449 
L 727.984326 299.665234 
L 728.858934 307.181329 
L 729.296238 309.325644 
L 729.733542 312.572093 
L 730.170846 316.757805 
L 730.60815 318.973064 
L 731.045455 318.042795 
L 731.482759 319.060995 
L 731.920063 320.601784 
L 732.357367 321.392163 
L 732.794671 320.615773 
L 733.231975 320.975491 
L 734.106583 323.102819 
L 734.543887 326.288316 
L 734.981191 330.36911 
L 735.418495 332.001827 
L 735.855799 331.996831 
L 736.293103 332.675298 
L 737.167712 335.32022 
L 737.605016 336.328428 
L 738.04232 338.698565 
L 738.479624 339.021312 
L 738.916928 335.834816 
L 739.354232 334.835601 
L 739.791536 336.2365 
L 740.22884 335.118378 
L 740.666144 330.666876 
L 741.540752 324.34884 
L 742.415361 314.442624 
L 743.289969 317.533195 
L 743.727273 316.58594 
L 744.164577 315.310941 
L 744.601881 314.391664 
L 745.039185 311.43099 
L 745.476489 305.418714 
L 745.913793 301.611705 
L 746.351097 299.567311 
L 746.788401 298.388238 
L 747.225705 300.57452 
L 747.663009 303.36133 
L 748.100313 304.979059 
L 748.537618 307.204311 
L 749.412226 316.142288 
L 749.84953 316.730826 
L 750.286834 313.711198 
L 751.161442 310.265905 
L 751.598746 307.260267 
L 752.03605 305.434701 
L 752.473354 305.756449 
L 752.910658 303.253415 
L 754.659875 279.848805 
L 755.097179 277.46168 
L 755.534483 278.739676 
L 755.971787 280.444337 
L 756.409091 282.709557 
L 756.846395 286.204811 
L 757.721003 296.085047 
L 758.158307 299.699208 
L 758.595611 302.376104 
L 759.032915 303.127514 
L 759.470219 299.723189 
L 760.344828 288.359118 
L 760.782132 284.91982 
L 761.219436 285.544329 
L 762.094044 287.702634 
L 762.531348 287.456827 
L 762.968652 285.955007 
L 763.405956 286.666448 
L 763.84326 287.730612 
L 764.280564 286.558533 
L 765.155172 283.372036 
L 765.592476 280.124588 
L 766.029781 279.474099 
L 766.467085 280.748098 
L 766.904389 281.180758 
L 767.341693 279.417144 
L 767.778997 276.764228 
L 768.653605 274.744815 
L 769.090909 272.223796 
L 769.528213 268.035087 
L 769.965517 265.56203 
L 770.402821 264.622768 
L 771.277429 262.162701 
L 771.714734 263.29581 
L 772.152038 265.020455 
L 772.589342 265.40915 
L 773.026646 265.393163 
L 773.46395 264.058211 
L 774.338558 259.849518 
L 774.775862 260.286175 
L 776.087774 268.79449 
L 776.525078 271.158633 
L 776.962382 272.341703 
L 777.399687 272.648462 
L 777.836991 272.616487 
L 778.711599 274.390093 
L 779.148903 274.190251 
L 779.586207 275.048576 
L 780.460815 277.566598 
L 780.898119 279.128371 
L 781.335423 281.667376 
L 782.210031 287.989408 
L 782.647335 290.260624 
L 783.084639 291.632546 
L 783.521944 291.794419 
L 783.959248 290.617344 
L 784.396552 290.921105 
L 785.708464 298.42421 
L 786.583072 302.074342 
L 787.020376 302.765798 
L 787.45768 302.056356 
L 787.894984 301.96143 
L 788.332288 302.427064 
L 789.206897 301.053144 
L 789.644201 301.180044 
L 790.081505 301.75859 
L 790.518809 302.609921 
L 791.393417 306.937521 
L 791.830721 307.835815 
L 792.705329 307.404154 
L 793.142633 308.288459 
L 794.017241 312.241353 
L 794.454545 314.859296 
L 795.329154 323.117807 
L 796.641066 335.811834 
L 797.952978 346.539405 
L 798.390282 349.894768 
L 799.702194 362.427921 
L 800.139498 362.596788 
L 802.326019 350.278467 
L 802.763323 348.803626 
L 803.200627 348.26305 
L 803.637931 347.167911 
L 804.512539 344.195247 
L 804.949843 343.408864 
L 805.824451 342.961216 
L 806.261755 343.699636 
L 807.136364 346.561387 
L 807.573668 347.784427 
L 808.010972 348.298023 
L 808.448276 350.12159 
L 809.322884 355.382457 
L 809.760188 358.183256 
L 811.946708 382.051502 
L 812.384013 385.983413 
L 812.821317 388.726258 
L 813.695925 392.139576 
L 815.007837 400.342131 
L 815.445141 403.332781 
L 815.882445 407.283677 
L 816.757053 420.003683 
L 817.631661 432.655742 
L 818.50627 442.387096 
L 818.943574 446.016244 
L 819.380878 448.392377 
L 819.818182 449.367611 
L 820.69279 450.521704 
L 821.130094 450.322861 
L 822.004702 445.121947 
L 822.442006 442.558961 
L 823.316614 435.197745 
L 824.191223 427.571736 
L 825.503135 418.066205 
L 825.940439 415.828963 
L 826.377743 414.543973 
L 826.815047 413.614703 
L 827.252351 412.169838 
L 827.689655 411.33949 
L 828.126959 411.363472 
L 828.564263 411.775148 
L 829.001567 412.518564 
L 829.438871 412.959218 
L 829.876176 413.050146 
L 830.31348 412.455613 
L 831.625392 408.926386 
L 832.937304 406.740104 
L 833.811912 406.380387 
L 834.249216 406.785069 
L 835.123824 410.467176 
L 835.561129 411.449404 
L 835.998433 412.075912 
L 836.435737 412.973207 
L 836.873041 413.202027 
L 837.747649 412.289744 
L 838.184953 411.44141 
L 839.059561 409.089258 
L 839.496865 408.364828 
L 839.934169 406.908972 
L 840.808777 399.93645 
L 841.246082 396.359261 
L 842.995298 386.642895 
L 843.432602 386.201242 
L 843.869906 386.145286 
L 844.30721 386.793776 
L 845.181818 390.020241 
L 846.056426 394.134009 
L 846.49373 396.431204 
L 847.368339 399.457826 
L 847.805643 404.293027 
L 848.242947 413.655671 
L 848.680251 427.943444 
L 849.554859 469.117094 
L 850.866771 542.235643 
L 851.741379 588.659168 
L 852.178683 603.448548 
L 852.615987 612.017815 
L 853.053292 615.6 
L 853.490596 614.23807 
L 853.9279 610.053358 
L 854.365204 602.972921 
L 855.239812 581.517779 
L 856.989028 535.5449 
L 857.863636 519.43256 
L 858.30094 513.003611 
L 858.738245 508.515138 
L 859.612853 504.615202 
L 860.050157 503.241282 
L 860.487461 502.926529 
L 860.924765 502.420926 
L 861.362069 501.215873 
L 861.799373 500.701278 
L 862.673981 499.237428 
L 863.548589 501.132938 
L 863.985893 500.076768 
L 864.423197 500.106745 
L 864.860502 501.554607 
L 865.297806 503.857797 
L 865.73511 507.50693 
L 866.609718 516.329998 
L 867.92163 524.983199 
L 868.358934 524.627478 
L 868.796238 521.492941 
L 869.233542 514.6733 
L 869.670846 501.643537 
L 870.982759 453.771151 
L 871.857367 420.692142 
L 873.169279 352.339847 
L 874.043887 316.87871 
L 874.481191 304.325573 
L 874.918495 295.460538 
L 875.355799 290.076768 
L 875.793103 288.451046 
L 876.230408 290.029805 
L 876.667712 294.969924 
L 878.416928 320.942517 
L 878.854232 324.172978 
L 879.291536 325.956577 
L 879.72884 326.007537 
L 880.166144 325.577875 
L 881.040752 325.708772 
L 881.915361 324.732539 
L 882.352665 324.957362 
L 882.789969 325.845664 
L 883.227273 326.463179 
L 883.664577 328.241781 
L 884.101881 330.896695 
L 884.976489 334.551824 
L 885.413793 335.451117 
L 885.851097 335.436129 
L 886.288401 334.574806 
L 886.725705 334.33999 
L 887.163009 334.77265 
L 888.037618 335.29424 
L 888.474922 334.780644 
L 888.912226 333.51264 
L 889.34953 331.512212 
L 889.786834 330.197245 
L 890.224138 329.683649 
L 891.53605 326.600071 
L 891.973354 326.062494 
L 892.410658 325.904618 
L 892.847962 325.315081 
L 893.285266 324.984341 
L 893.722571 325.554893 
L 895.034483 330.206238 
L 895.471787 332.17669 
L 896.346395 337.39459 
L 896.783699 342.93124 
L 898.532915 382.379245 
L 899.407524 392.747099 
L 899.844828 396.192392 
L 900.719436 400.079338 
L 901.15674 400.086332 
L 901.594044 397.970994 
L 903.34326 384.964214 
L 903.780564 382.075484 
L 904.217868 379.94216 
L 905.092476 376.803626 
L 907.716301 364.855014 
L 909.028213 357.56674 
L 909.902821 350.982913 
L 911.652038 340.111455 
L 912.089342 338.968353 
L 912.526646 338.426779 
L 912.96395 338.090044 
L 913.401254 338.271901 
L 913.838558 338.987339 
L 914.275862 340.874855 
L 914.713166 344.130298 
L 915.587774 353.102248 
L 916.025078 356.433631 
L 916.462382 357.832532 
L 916.899687 358.02538 
L 917.336991 357.066134 
L 917.774295 353.574877 
L 919.523511 334.385954 
L 920.398119 327.015745 
L 921.710031 310.395803 
L 922.147335 307.075412 
L 923.021944 297.228149 
L 923.459248 298.66602 
L 924.333856 304.713268 
L 926.083072 313.700207 
L 926.520376 314.626479 
L 926.95768 316.019385 
L 927.394984 318.008822 
L 927.832288 319.033017 
L 929.144201 315.997402 
L 930.018809 312.495154 
L 930.893417 305.897338 
L 932.642633 293.563029 
L 933.079937 291.523631 
L 933.954545 282.38681 
L 933.954545 282.38681 
" style="fill:none;stroke:#0000ff;stroke-linecap:square;stroke-width:1.5;"/>
   </g>
   <g id="patch_3">
    <path d="M 135 640.8 
L 135 86.4 
" style="fill:none;stroke:#000000;stroke-linecap:square;stroke-linejoin:miter;stroke-width:0.8;"/>
   </g>
   <g id="patch_4">
    <path d="M 972 640.8 
L 972 86.4 
" style="fill:none;stroke:#000000;stroke-linecap:square;stroke-linejoin:miter;stroke-width:0.8;"/>
   </g>
   <g id="patch_5">
    <path d="M 135 640.8 
L 972 640.8 
" style="fill:none;stroke:#000000;stroke-linecap:square;stroke-linejoin:miter;stroke-width:0.8;"/>
   </g>
   <g id="patch_6">
    <path d="M 135 86.4 
L 972 86.4 
" style="fill:none;stroke:#000000;stroke-linecap:square;stroke-linejoin:miter;stroke-width:0.8;"/>
   </g>
   <g id="text_17">
    <!-- Evaluation Preds N:10 -->
    <defs>
     <path d="M 9.8125 72.90625 
L 55.90625 72.90625 
L 55.90625 64.59375 
L 19.671875 64.59375 
L 19.671875 43.015625 
L 54.390625 43.015625 
L 54.390625 34.71875 
L 19.671875 34.71875 
L 19.671875 8.296875 
L 56.78125 8.296875 
L 56.78125 0 
L 9.8125 0 
z
" id="DejaVuSans-69"/>
     <path d="M 2.984375 54.6875 
L 12.5 54.6875 
L 29.59375 8.796875 
L 46.6875 54.6875 
L 56.203125 54.6875 
L 35.6875 0 
L 23.484375 0 
z
" id="DejaVuSans-118"/>
     <path d="M 34.28125 27.484375 
Q 23.390625 27.484375 19.1875 25 
Q 14.984375 22.515625 14.984375 16.5 
Q 14.984375 11.71875 18.140625 8.90625 
Q 21.296875 6.109375 26.703125 6.109375 
Q 34.1875 6.109375 38.703125 11.40625 
Q 43.21875 16.703125 43.21875 25.484375 
L 43.21875 27.484375 
z
M 52.203125 31.203125 
L 52.203125 0 
L 43.21875 0 
L 43.21875 8.296875 
Q 40.140625 3.328125 35.546875 0.953125 
Q 30.953125 -1.421875 24.3125 -1.421875 
Q 15.921875 -1.421875 10.953125 3.296875 
Q 6 8.015625 6 15.921875 
Q 6 25.140625 12.171875 29.828125 
Q 18.359375 34.515625 30.609375 34.515625 
L 43.21875 34.515625 
L 43.21875 35.40625 
Q 43.21875 41.609375 39.140625 45 
Q 35.0625 48.390625 27.6875 48.390625 
Q 23 48.390625 18.546875 47.265625 
Q 14.109375 46.140625 10.015625 43.890625 
L 10.015625 52.203125 
Q 14.9375 54.109375 19.578125 55.046875 
Q 24.21875 56 28.609375 56 
Q 40.484375 56 46.34375 49.84375 
Q 52.203125 43.703125 52.203125 31.203125 
z
" id="DejaVuSans-97"/>
     <path d="M 9.421875 75.984375 
L 18.40625 75.984375 
L 18.40625 0 
L 9.421875 0 
z
" id="DejaVuSans-108"/>
     <path d="M 8.5 21.578125 
L 8.5 54.6875 
L 17.484375 54.6875 
L 17.484375 21.921875 
Q 17.484375 14.15625 20.5 10.265625 
Q 23.53125 6.390625 29.59375 6.390625 
Q 36.859375 6.390625 41.078125 11.03125 
Q 45.3125 15.671875 45.3125 23.6875 
L 45.3125 54.6875 
L 54.296875 54.6875 
L 54.296875 0 
L 45.3125 0 
L 45.3125 8.40625 
Q 42.046875 3.421875 37.71875 1 
Q 33.40625 -1.421875 27.6875 -1.421875 
Q 18.265625 -1.421875 13.375 4.4375 
Q 8.5 10.296875 8.5 21.578125 
z
M 31.109375 56 
z
" id="DejaVuSans-117"/>
     <path d="M 18.3125 70.21875 
L 18.3125 54.6875 
L 36.8125 54.6875 
L 36.8125 47.703125 
L 18.3125 47.703125 
L 18.3125 18.015625 
Q 18.3125 11.328125 20.140625 9.421875 
Q 21.96875 7.515625 27.59375 7.515625 
L 36.8125 7.515625 
L 36.8125 0 
L 27.59375 0 
Q 17.1875 0 13.234375 3.875 
Q 9.28125 7.765625 9.28125 18.015625 
L 9.28125 47.703125 
L 2.6875 47.703125 
L 2.6875 54.6875 
L 9.28125 54.6875 
L 9.28125 70.21875 
z
" id="DejaVuSans-116"/>
     <path d="M 9.421875 54.6875 
L 18.40625 54.6875 
L 18.40625 0 
L 9.421875 0 
z
M 9.421875 75.984375 
L 18.40625 75.984375 
L 18.40625 64.59375 
L 9.421875 64.59375 
z
" id="DejaVuSans-105"/>
     <path d="M 30.609375 48.390625 
Q 23.390625 48.390625 19.1875 42.75 
Q 14.984375 37.109375 14.984375 27.296875 
Q 14.984375 17.484375 19.15625 11.84375 
Q 23.34375 6.203125 30.609375 6.203125 
Q 37.796875 6.203125 41.984375 11.859375 
Q 46.1875 17.53125 46.1875 27.296875 
Q 46.1875 37.015625 41.984375 42.703125 
Q 37.796875 48.390625 30.609375 48.390625 
z
M 30.609375 56 
Q 42.328125 56 49.015625 48.375 
Q 55.71875 40.765625 55.71875 27.296875 
Q 55.71875 13.875 49.015625 6.21875 
Q 42.328125 -1.421875 30.609375 -1.421875 
Q 18.84375 -1.421875 12.171875 6.21875 
Q 5.515625 13.875 5.515625 27.296875 
Q 5.515625 40.765625 12.171875 48.375 
Q 18.84375 56 30.609375 56 
z
" id="DejaVuSans-111"/>
     <path d="M 54.890625 33.015625 
L 54.890625 0 
L 45.90625 0 
L 45.90625 32.71875 
Q 45.90625 40.484375 42.875 44.328125 
Q 39.84375 48.1875 33.796875 48.1875 
Q 26.515625 48.1875 22.3125 43.546875 
Q 18.109375 38.921875 18.109375 30.90625 
L 18.109375 0 
L 9.078125 0 
L 9.078125 54.6875 
L 18.109375 54.6875 
L 18.109375 46.1875 
Q 21.34375 51.125 25.703125 53.5625 
Q 30.078125 56 35.796875 56 
Q 45.21875 56 50.046875 50.171875 
Q 54.890625 44.34375 54.890625 33.015625 
z
" id="DejaVuSans-110"/>
     <path id="DejaVuSans-32"/>
     <path d="M 19.671875 64.796875 
L 19.671875 37.40625 
L 32.078125 37.40625 
Q 38.96875 37.40625 42.71875 40.96875 
Q 46.484375 44.53125 46.484375 51.125 
Q 46.484375 57.671875 42.71875 61.234375 
Q 38.96875 64.796875 32.078125 64.796875 
z
M 9.8125 72.90625 
L 32.078125 72.90625 
Q 44.34375 72.90625 50.609375 67.359375 
Q 56.890625 61.8125 56.890625 51.125 
Q 56.890625 40.328125 50.609375 34.8125 
Q 44.34375 29.296875 32.078125 29.296875 
L 19.671875 29.296875 
L 19.671875 0 
L 9.8125 0 
z
" id="DejaVuSans-80"/>
     <path d="M 41.109375 46.296875 
Q 39.59375 47.171875 37.8125 47.578125 
Q 36.03125 48 33.890625 48 
Q 26.265625 48 22.1875 43.046875 
Q 18.109375 38.09375 18.109375 28.8125 
L 18.109375 0 
L 9.078125 0 
L 9.078125 54.6875 
L 18.109375 54.6875 
L 18.109375 46.1875 
Q 20.953125 51.171875 25.484375 53.578125 
Q 30.03125 56 36.53125 56 
Q 37.453125 56 38.578125 55.875 
Q 39.703125 55.765625 41.0625 55.515625 
z
" id="DejaVuSans-114"/>
     <path d="M 56.203125 29.59375 
L 56.203125 25.203125 
L 14.890625 25.203125 
Q 15.484375 15.921875 20.484375 11.0625 
Q 25.484375 6.203125 34.421875 6.203125 
Q 39.59375 6.203125 44.453125 7.46875 
Q 49.3125 8.734375 54.109375 11.28125 
L 54.109375 2.78125 
Q 49.265625 0.734375 44.1875 -0.34375 
Q 39.109375 -1.421875 33.890625 -1.421875 
Q 20.796875 -1.421875 13.15625 6.1875 
Q 5.515625 13.8125 5.515625 26.8125 
Q 5.515625 40.234375 12.765625 48.109375 
Q 20.015625 56 32.328125 56 
Q 43.359375 56 49.78125 48.890625 
Q 56.203125 41.796875 56.203125 29.59375 
z
M 47.21875 32.234375 
Q 47.125 39.59375 43.09375 43.984375 
Q 39.0625 48.390625 32.421875 48.390625 
Q 24.90625 48.390625 20.390625 44.140625 
Q 15.875 39.890625 15.1875 32.171875 
z
" id="DejaVuSans-101"/>
     <path d="M 45.40625 46.390625 
L 45.40625 75.984375 
L 54.390625 75.984375 
L 54.390625 0 
L 45.40625 0 
L 45.40625 8.203125 
Q 42.578125 3.328125 38.25 0.953125 
Q 33.9375 -1.421875 27.875 -1.421875 
Q 17.96875 -1.421875 11.734375 6.484375 
Q 5.515625 14.40625 5.515625 27.296875 
Q 5.515625 40.1875 11.734375 48.09375 
Q 17.96875 56 27.875 56 
Q 33.9375 56 38.25 53.625 
Q 42.578125 51.265625 45.40625 46.390625 
z
M 14.796875 27.296875 
Q 14.796875 17.390625 18.875 11.75 
Q 22.953125 6.109375 30.078125 6.109375 
Q 37.203125 6.109375 41.296875 11.75 
Q 45.40625 17.390625 45.40625 27.296875 
Q 45.40625 37.203125 41.296875 42.84375 
Q 37.203125 48.484375 30.078125 48.484375 
Q 22.953125 48.484375 18.875 42.84375 
Q 14.796875 37.203125 14.796875 27.296875 
z
" id="DejaVuSans-100"/>
     <path d="M 44.28125 53.078125 
L 44.28125 44.578125 
Q 40.484375 46.53125 36.375 47.5 
Q 32.28125 48.484375 27.875 48.484375 
Q 21.1875 48.484375 17.84375 46.4375 
Q 14.5 44.390625 14.5 40.28125 
Q 14.5 37.15625 16.890625 35.375 
Q 19.28125 33.59375 26.515625 31.984375 
L 29.59375 31.296875 
Q 39.15625 29.25 43.1875 25.515625 
Q 47.21875 21.78125 47.21875 15.09375 
Q 47.21875 7.46875 41.1875 3.015625 
Q 35.15625 -1.421875 24.609375 -1.421875 
Q 20.21875 -1.421875 15.453125 -0.5625 
Q 10.6875 0.296875 5.421875 2 
L 5.421875 11.28125 
Q 10.40625 8.6875 15.234375 7.390625 
Q 20.0625 6.109375 24.8125 6.109375 
Q 31.15625 6.109375 34.5625 8.28125 
Q 37.984375 10.453125 37.984375 14.40625 
Q 37.984375 18.0625 35.515625 20.015625 
Q 33.0625 21.96875 24.703125 23.78125 
L 21.578125 24.515625 
Q 13.234375 26.265625 9.515625 29.90625 
Q 5.8125 33.546875 5.8125 39.890625 
Q 5.8125 47.609375 11.28125 51.796875 
Q 16.75 56 26.8125 56 
Q 31.78125 56 36.171875 55.265625 
Q 40.578125 54.546875 44.28125 53.078125 
z
" id="DejaVuSans-115"/>
     <path d="M 9.8125 72.90625 
L 23.09375 72.90625 
L 55.421875 11.921875 
L 55.421875 72.90625 
L 64.984375 72.90625 
L 64.984375 0 
L 51.703125 0 
L 19.390625 60.984375 
L 19.390625 0 
L 9.8125 0 
z
" id="DejaVuSans-78"/>
     <path d="M 11.71875 12.40625 
L 22.015625 12.40625 
L 22.015625 0 
L 11.71875 0 
z
M 11.71875 51.703125 
L 22.015625 51.703125 
L 22.015625 39.3125 
L 11.71875 39.3125 
z
" id="DejaVuSans-58"/>
    </defs>
    <g transform="translate(374.421656 80.4)scale(0.324 -0.324)">
     <use xlink:href="#DejaVuSans-69"/>
     <use x="63.183594" xlink:href="#DejaVuSans-118"/>
     <use x="122.363281" xlink:href="#DejaVuSans-97"/>
     <use x="183.642578" xlink:href="#DejaVuSans-108"/>
     <use x="211.425781" xlink:href="#DejaVuSans-117"/>
     <use x="274.804688" xlink:href="#DejaVuSans-97"/>
     <use x="336.083984" xlink:href="#DejaVuSans-116"/>
     <use x="375.292969" xlink:href="#DejaVuSans-105"/>
     <use x="403.076172" xlink:href="#DejaVuSans-111"/>
     <use x="464.257812" xlink:href="#DejaVuSans-110"/>
     <use x="527.636719" xlink:href="#DejaVuSans-32"/>
     <use x="559.423828" xlink:href="#DejaVuSans-80"/>
     <use x="619.710938" xlink:href="#DejaVuSans-114"/>
     <use x="660.792969" xlink:href="#DejaVuSans-101"/>
     <use x="722.316406" xlink:href="#DejaVuSans-100"/>
     <use x="785.792969" xlink:href="#DejaVuSans-115"/>
     <use x="837.892578" xlink:href="#DejaVuSans-32"/>
     <use x="869.679688" xlink:href="#DejaVuSans-78"/>
     <use x="944.484375" xlink:href="#DejaVuSans-58"/>
     <use x="978.175781" xlink:href="#DejaVuSans-49"/>
     <use x="1041.798828" xlink:href="#DejaVuSans-48"/>
    </g>
   </g>
   <g id="legend_1">
    <g id="patch_7">
     <path d="M 805.57875 187.261875 
L 953.1 187.261875 
Q 958.5 187.261875 958.5 181.861875 
L 958.5 105.3 
Q 958.5 99.9 953.1 99.9 
L 805.57875 99.9 
Q 800.17875 99.9 800.17875 105.3 
L 800.17875 181.861875 
Q 800.17875 187.261875 805.57875 187.261875 
z
" style="fill:#ffffff;opacity:0.8;stroke:#cccccc;stroke-linejoin:miter;"/>
    </g>
    <g id="line2d_35">
     <path d="M 810.97875 121.765781 
L 864.97875 121.765781 
" style="fill:none;stroke:#ff0000;stroke-linecap:square;stroke-width:1.5;"/>
    </g>
    <g id="line2d_36"/>
    <g id="text_18">
     <!-- Real -->
     <defs>
      <path d="M 44.390625 34.1875 
Q 47.5625 33.109375 50.5625 29.59375 
Q 53.5625 26.078125 56.59375 19.921875 
L 66.609375 0 
L 56 0 
L 46.6875 18.703125 
Q 43.0625 26.03125 39.671875 28.421875 
Q 36.28125 30.8125 30.421875 30.8125 
L 19.671875 30.8125 
L 19.671875 0 
L 9.8125 0 
L 9.8125 72.90625 
L 32.078125 72.90625 
Q 44.578125 72.90625 50.734375 67.671875 
Q 56.890625 62.453125 56.890625 51.90625 
Q 56.890625 45.015625 53.6875 40.46875 
Q 50.484375 35.9375 44.390625 34.1875 
z
M 19.671875 64.796875 
L 19.671875 38.921875 
L 32.078125 38.921875 
Q 39.203125 38.921875 42.84375 42.21875 
Q 46.484375 45.515625 46.484375 51.90625 
Q 46.484375 58.296875 42.84375 61.546875 
Q 39.203125 64.796875 32.078125 64.796875 
z
" id="DejaVuSans-82"/>
     </defs>
     <g transform="translate(886.57875 131.215781)scale(0.27 -0.27)">
      <use xlink:href="#DejaVuSans-82"/>
      <use x="69.419922" xlink:href="#DejaVuSans-101"/>
      <use x="130.943359" xlink:href="#DejaVuSans-97"/>
      <use x="192.222656" xlink:href="#DejaVuSans-108"/>
     </g>
    </g>
    <g id="line2d_37">
     <path d="M 810.97875 161.396719 
L 864.97875 161.396719 
" style="fill:none;stroke:#0000ff;stroke-linecap:square;stroke-width:1.5;"/>
    </g>
    <g id="line2d_38"/>
    <g id="text_19">
     <!-- Pred -->
     <g transform="translate(886.57875 170.846719)scale(0.27 -0.27)">
      <use xlink:href="#DejaVuSans-80"/>
      <use x="60.287109" xlink:href="#DejaVuSans-114"/>
      <use x="101.369141" xlink:href="#DejaVuSans-101"/>
      <use x="162.892578" xlink:href="#DejaVuSans-100"/>
     </g>
    </g>
   </g>
  </g>
 </g>
 <defs>
  <clipPath id="p2b2e229b18">
   <rect height="554.4" width="837" x="135" y="86.4"/>
  </clipPath>
 </defs>
</svg>
