<?xml version="1.0" encoding="utf-8" standalone="no"?>
<!DOCTYPE svg PUBLIC "-//W3C//DTD SVG 1.1//EN"
  "http://www.w3.org/Graphics/SVG/1.1/DTD/svg11.dtd">
<!-- Created with matplotlib (https://matplotlib.org/) -->
<svg height="720pt" version="1.1" viewBox="0 0 1080 720" width="1080pt" xmlns="http://www.w3.org/2000/svg" xmlns:xlink="http://www.w3.org/1999/xlink">
 <defs>
  <style type="text/css">
*{stroke-linecap:butt;stroke-linejoin:round;}
  </style>
 </defs>
 <g id="figure_1">
  <g id="patch_1">
   <path d="M 0 720 
L 1080 720 
L 1080 0 
L 0 0 
z
" style="fill:#ffffff;"/>
  </g>
  <g id="axes_1">
   <g id="patch_2">
    <path d="M 135 640.8 
L 972 640.8 
L 972 86.4 
L 135 86.4 
z
" style="fill:#ffffff;"/>
   </g>
   <g id="matplotlib.axis_1">
    <g id="xtick_1">
     <g id="line2d_1">
      <path clip-path="url(#p7ed5b74d8e)" d="M 173.045455 640.8 
L 173.045455 86.4 
" style="fill:none;stroke:#b0b0b0;stroke-linecap:square;stroke-width:0.8;"/>
     </g>
     <g id="line2d_2">
      <defs>
       <path d="M 0 0 
L 0 3.5 
" id="m44be0a4b77" style="stroke:#000000;stroke-width:0.8;"/>
      </defs>
      <g>
       <use style="stroke:#000000;stroke-width:0.8;" x="173.045455" xlink:href="#m44be0a4b77" y="640.8"/>
      </g>
     </g>
     <g id="text_1">
      <!-- 0 -->
      <defs>
       <path d="M 31.78125 66.40625 
Q 24.171875 66.40625 20.328125 58.90625 
Q 16.5 51.421875 16.5 36.375 
Q 16.5 21.390625 20.328125 13.890625 
Q 24.171875 6.390625 31.78125 6.390625 
Q 39.453125 6.390625 43.28125 13.890625 
Q 47.125 21.390625 47.125 36.375 
Q 47.125 51.421875 43.28125 58.90625 
Q 39.453125 66.40625 31.78125 66.40625 
z
M 31.78125 74.21875 
Q 44.046875 74.21875 50.515625 64.515625 
Q 56.984375 54.828125 56.984375 36.375 
Q 56.984375 17.96875 50.515625 8.265625 
Q 44.046875 -1.421875 31.78125 -1.421875 
Q 19.53125 -1.421875 13.0625 8.265625 
Q 6.59375 17.96875 6.59375 36.375 
Q 6.59375 54.828125 13.0625 64.515625 
Q 19.53125 74.21875 31.78125 74.21875 
z
" id="DejaVuSans-48"/>
      </defs>
      <g transform="translate(164.45608 668.315781)scale(0.27 -0.27)">
       <use xlink:href="#DejaVuSans-48"/>
      </g>
     </g>
    </g>
    <g id="xtick_2">
     <g id="line2d_3">
      <path clip-path="url(#p7ed5b74d8e)" d="M 282.371473 640.8 
L 282.371473 86.4 
" style="fill:none;stroke:#b0b0b0;stroke-linecap:square;stroke-width:0.8;"/>
     </g>
     <g id="line2d_4">
      <g>
       <use style="stroke:#000000;stroke-width:0.8;" x="282.371473" xlink:href="#m44be0a4b77" y="640.8"/>
      </g>
     </g>
     <g id="text_2">
      <!-- 250 -->
      <defs>
       <path d="M 19.1875 8.296875 
L 53.609375 8.296875 
L 53.609375 0 
L 7.328125 0 
L 7.328125 8.296875 
Q 12.9375 14.109375 22.625 23.890625 
Q 32.328125 33.6875 34.8125 36.53125 
Q 39.546875 41.84375 41.421875 45.53125 
Q 43.3125 49.21875 43.3125 52.78125 
Q 43.3125 58.59375 39.234375 62.25 
Q 35.15625 65.921875 28.609375 65.921875 
Q 23.96875 65.921875 18.8125 64.3125 
Q 13.671875 62.703125 7.8125 59.421875 
L 7.8125 69.390625 
Q 13.765625 71.78125 18.9375 73 
Q 24.125 74.21875 28.421875 74.21875 
Q 39.75 74.21875 46.484375 68.546875 
Q 53.21875 62.890625 53.21875 53.421875 
Q 53.21875 48.921875 51.53125 44.890625 
Q 49.859375 40.875 45.40625 35.40625 
Q 44.1875 33.984375 37.640625 27.21875 
Q 31.109375 20.453125 19.1875 8.296875 
z
" id="DejaVuSans-50"/>
       <path d="M 10.796875 72.90625 
L 49.515625 72.90625 
L 49.515625 64.59375 
L 19.828125 64.59375 
L 19.828125 46.734375 
Q 21.96875 47.46875 24.109375 47.828125 
Q 26.265625 48.1875 28.421875 48.1875 
Q 40.625 48.1875 47.75 41.5 
Q 54.890625 34.8125 54.890625 23.390625 
Q 54.890625 11.625 47.5625 5.09375 
Q 40.234375 -1.421875 26.90625 -1.421875 
Q 22.3125 -1.421875 17.546875 -0.640625 
Q 12.796875 0.140625 7.71875 1.703125 
L 7.71875 11.625 
Q 12.109375 9.234375 16.796875 8.0625 
Q 21.484375 6.890625 26.703125 6.890625 
Q 35.15625 6.890625 40.078125 11.328125 
Q 45.015625 15.765625 45.015625 23.390625 
Q 45.015625 31 40.078125 35.4375 
Q 35.15625 39.890625 26.703125 39.890625 
Q 22.75 39.890625 18.8125 39.015625 
Q 14.890625 38.140625 10.796875 36.28125 
z
" id="DejaVuSans-53"/>
      </defs>
      <g transform="translate(256.603348 668.315781)scale(0.27 -0.27)">
       <use xlink:href="#DejaVuSans-50"/>
       <use x="63.623047" xlink:href="#DejaVuSans-53"/>
       <use x="127.246094" xlink:href="#DejaVuSans-48"/>
      </g>
     </g>
    </g>
    <g id="xtick_3">
     <g id="line2d_5">
      <path clip-path="url(#p7ed5b74d8e)" d="M 391.697492 640.8 
L 391.697492 86.4 
" style="fill:none;stroke:#b0b0b0;stroke-linecap:square;stroke-width:0.8;"/>
     </g>
     <g id="line2d_6">
      <g>
       <use style="stroke:#000000;stroke-width:0.8;" x="391.697492" xlink:href="#m44be0a4b77" y="640.8"/>
      </g>
     </g>
     <g id="text_3">
      <!-- 500 -->
      <g transform="translate(365.929367 668.315781)scale(0.27 -0.27)">
       <use xlink:href="#DejaVuSans-53"/>
       <use x="63.623047" xlink:href="#DejaVuSans-48"/>
       <use x="127.246094" xlink:href="#DejaVuSans-48"/>
      </g>
     </g>
    </g>
    <g id="xtick_4">
     <g id="line2d_7">
      <path clip-path="url(#p7ed5b74d8e)" d="M 501.023511 640.8 
L 501.023511 86.4 
" style="fill:none;stroke:#b0b0b0;stroke-linecap:square;stroke-width:0.8;"/>
     </g>
     <g id="line2d_8">
      <g>
       <use style="stroke:#000000;stroke-width:0.8;" x="501.023511" xlink:href="#m44be0a4b77" y="640.8"/>
      </g>
     </g>
     <g id="text_4">
      <!-- 750 -->
      <defs>
       <path d="M 8.203125 72.90625 
L 55.078125 72.90625 
L 55.078125 68.703125 
L 28.609375 0 
L 18.3125 0 
L 43.21875 64.59375 
L 8.203125 64.59375 
z
" id="DejaVuSans-55"/>
      </defs>
      <g transform="translate(475.255386 668.315781)scale(0.27 -0.27)">
       <use xlink:href="#DejaVuSans-55"/>
       <use x="63.623047" xlink:href="#DejaVuSans-53"/>
       <use x="127.246094" xlink:href="#DejaVuSans-48"/>
      </g>
     </g>
    </g>
    <g id="xtick_5">
     <g id="line2d_9">
      <path clip-path="url(#p7ed5b74d8e)" d="M 610.34953 640.8 
L 610.34953 86.4 
" style="fill:none;stroke:#b0b0b0;stroke-linecap:square;stroke-width:0.8;"/>
     </g>
     <g id="line2d_10">
      <g>
       <use style="stroke:#000000;stroke-width:0.8;" x="610.34953" xlink:href="#m44be0a4b77" y="640.8"/>
      </g>
     </g>
     <g id="text_5">
      <!-- 1000 -->
      <defs>
       <path d="M 12.40625 8.296875 
L 28.515625 8.296875 
L 28.515625 63.921875 
L 10.984375 60.40625 
L 10.984375 69.390625 
L 28.421875 72.90625 
L 38.28125 72.90625 
L 38.28125 8.296875 
L 54.390625 8.296875 
L 54.390625 0 
L 12.40625 0 
z
" id="DejaVuSans-49"/>
      </defs>
      <g transform="translate(575.99203 668.315781)scale(0.27 -0.27)">
       <use xlink:href="#DejaVuSans-49"/>
       <use x="63.623047" xlink:href="#DejaVuSans-48"/>
       <use x="127.246094" xlink:href="#DejaVuSans-48"/>
       <use x="190.869141" xlink:href="#DejaVuSans-48"/>
      </g>
     </g>
    </g>
    <g id="xtick_6">
     <g id="line2d_11">
      <path clip-path="url(#p7ed5b74d8e)" d="M 719.675549 640.8 
L 719.675549 86.4 
" style="fill:none;stroke:#b0b0b0;stroke-linecap:square;stroke-width:0.8;"/>
     </g>
     <g id="line2d_12">
      <g>
       <use style="stroke:#000000;stroke-width:0.8;" x="719.675549" xlink:href="#m44be0a4b77" y="640.8"/>
      </g>
     </g>
     <g id="text_6">
      <!-- 1250 -->
      <g transform="translate(685.318049 668.315781)scale(0.27 -0.27)">
       <use xlink:href="#DejaVuSans-49"/>
       <use x="63.623047" xlink:href="#DejaVuSans-50"/>
       <use x="127.246094" xlink:href="#DejaVuSans-53"/>
       <use x="190.869141" xlink:href="#DejaVuSans-48"/>
      </g>
     </g>
    </g>
    <g id="xtick_7">
     <g id="line2d_13">
      <path clip-path="url(#p7ed5b74d8e)" d="M 829.001567 640.8 
L 829.001567 86.4 
" style="fill:none;stroke:#b0b0b0;stroke-linecap:square;stroke-width:0.8;"/>
     </g>
     <g id="line2d_14">
      <g>
       <use style="stroke:#000000;stroke-width:0.8;" x="829.001567" xlink:href="#m44be0a4b77" y="640.8"/>
      </g>
     </g>
     <g id="text_7">
      <!-- 1500 -->
      <g transform="translate(794.644067 668.315781)scale(0.27 -0.27)">
       <use xlink:href="#DejaVuSans-49"/>
       <use x="63.623047" xlink:href="#DejaVuSans-53"/>
       <use x="127.246094" xlink:href="#DejaVuSans-48"/>
       <use x="190.869141" xlink:href="#DejaVuSans-48"/>
      </g>
     </g>
    </g>
    <g id="xtick_8">
     <g id="line2d_15">
      <path clip-path="url(#p7ed5b74d8e)" d="M 938.327586 640.8 
L 938.327586 86.4 
" style="fill:none;stroke:#b0b0b0;stroke-linecap:square;stroke-width:0.8;"/>
     </g>
     <g id="line2d_16">
      <g>
       <use style="stroke:#000000;stroke-width:0.8;" x="938.327586" xlink:href="#m44be0a4b77" y="640.8"/>
      </g>
     </g>
     <g id="text_8">
      <!-- 1750 -->
      <g transform="translate(903.970086 668.315781)scale(0.27 -0.27)">
       <use xlink:href="#DejaVuSans-49"/>
       <use x="63.623047" xlink:href="#DejaVuSans-55"/>
       <use x="127.246094" xlink:href="#DejaVuSans-53"/>
       <use x="190.869141" xlink:href="#DejaVuSans-48"/>
      </g>
     </g>
    </g>
   </g>
   <g id="matplotlib.axis_2">
    <g id="ytick_1">
     <g id="line2d_17">
      <path clip-path="url(#p7ed5b74d8e)" d="M 135 582.548488 
L 972 582.548488 
" style="fill:none;stroke:#b0b0b0;stroke-linecap:square;stroke-width:0.8;"/>
     </g>
     <g id="line2d_18">
      <defs>
       <path d="M 0 0 
L -3.5 0 
" id="m1075185245" style="stroke:#000000;stroke-width:0.8;"/>
      </defs>
      <g>
       <use style="stroke:#000000;stroke-width:0.8;" x="135" xlink:href="#m1075185245" y="582.548488"/>
      </g>
     </g>
     <g id="text_9">
      <!-- 67.5 -->
      <defs>
       <path d="M 33.015625 40.375 
Q 26.375 40.375 22.484375 35.828125 
Q 18.609375 31.296875 18.609375 23.390625 
Q 18.609375 15.53125 22.484375 10.953125 
Q 26.375 6.390625 33.015625 6.390625 
Q 39.65625 6.390625 43.53125 10.953125 
Q 47.40625 15.53125 47.40625 23.390625 
Q 47.40625 31.296875 43.53125 35.828125 
Q 39.65625 40.375 33.015625 40.375 
z
M 52.59375 71.296875 
L 52.59375 62.3125 
Q 48.875 64.0625 45.09375 64.984375 
Q 41.3125 65.921875 37.59375 65.921875 
Q 27.828125 65.921875 22.671875 59.328125 
Q 17.53125 52.734375 16.796875 39.40625 
Q 19.671875 43.65625 24.015625 45.921875 
Q 28.375 48.1875 33.59375 48.1875 
Q 44.578125 48.1875 50.953125 41.515625 
Q 57.328125 34.859375 57.328125 23.390625 
Q 57.328125 12.15625 50.6875 5.359375 
Q 44.046875 -1.421875 33.015625 -1.421875 
Q 20.359375 -1.421875 13.671875 8.265625 
Q 6.984375 17.96875 6.984375 36.375 
Q 6.984375 53.65625 15.1875 63.9375 
Q 23.390625 74.21875 37.203125 74.21875 
Q 40.921875 74.21875 44.703125 73.484375 
Q 48.484375 72.75 52.59375 71.296875 
z
" id="DejaVuSans-54"/>
       <path d="M 10.6875 12.40625 
L 21 12.40625 
L 21 0 
L 10.6875 0 
z
" id="DejaVuSans-46"/>
      </defs>
      <g transform="translate(67.882812 592.806378)scale(0.27 -0.27)">
       <use xlink:href="#DejaVuSans-54"/>
       <use x="63.623047" xlink:href="#DejaVuSans-55"/>
       <use x="127.246094" xlink:href="#DejaVuSans-46"/>
       <use x="159.033203" xlink:href="#DejaVuSans-53"/>
      </g>
     </g>
    </g>
    <g id="ytick_2">
     <g id="line2d_19">
      <path clip-path="url(#p7ed5b74d8e)" d="M 135 517.350765 
L 972 517.350765 
" style="fill:none;stroke:#b0b0b0;stroke-linecap:square;stroke-width:0.8;"/>
     </g>
     <g id="line2d_20">
      <g>
       <use style="stroke:#000000;stroke-width:0.8;" x="135" xlink:href="#m1075185245" y="517.350765"/>
      </g>
     </g>
     <g id="text_10">
      <!-- 68.0 -->
      <defs>
       <path d="M 31.78125 34.625 
Q 24.75 34.625 20.71875 30.859375 
Q 16.703125 27.09375 16.703125 20.515625 
Q 16.703125 13.921875 20.71875 10.15625 
Q 24.75 6.390625 31.78125 6.390625 
Q 38.8125 6.390625 42.859375 10.171875 
Q 46.921875 13.96875 46.921875 20.515625 
Q 46.921875 27.09375 42.890625 30.859375 
Q 38.875 34.625 31.78125 34.625 
z
M 21.921875 38.8125 
Q 15.578125 40.375 12.03125 44.71875 
Q 8.5 49.078125 8.5 55.328125 
Q 8.5 64.0625 14.71875 69.140625 
Q 20.953125 74.21875 31.78125 74.21875 
Q 42.671875 74.21875 48.875 69.140625 
Q 55.078125 64.0625 55.078125 55.328125 
Q 55.078125 49.078125 51.53125 44.71875 
Q 48 40.375 41.703125 38.8125 
Q 48.828125 37.15625 52.796875 32.3125 
Q 56.78125 27.484375 56.78125 20.515625 
Q 56.78125 9.90625 50.3125 4.234375 
Q 43.84375 -1.421875 31.78125 -1.421875 
Q 19.734375 -1.421875 13.25 4.234375 
Q 6.78125 9.90625 6.78125 20.515625 
Q 6.78125 27.484375 10.78125 32.3125 
Q 14.796875 37.15625 21.921875 38.8125 
z
M 18.3125 54.390625 
Q 18.3125 48.734375 21.84375 45.5625 
Q 25.390625 42.390625 31.78125 42.390625 
Q 38.140625 42.390625 41.71875 45.5625 
Q 45.3125 48.734375 45.3125 54.390625 
Q 45.3125 60.0625 41.71875 63.234375 
Q 38.140625 66.40625 31.78125 66.40625 
Q 25.390625 66.40625 21.84375 63.234375 
Q 18.3125 60.0625 18.3125 54.390625 
z
" id="DejaVuSans-56"/>
      </defs>
      <g transform="translate(67.882812 527.608656)scale(0.27 -0.27)">
       <use xlink:href="#DejaVuSans-54"/>
       <use x="63.623047" xlink:href="#DejaVuSans-56"/>
       <use x="127.246094" xlink:href="#DejaVuSans-46"/>
       <use x="159.033203" xlink:href="#DejaVuSans-48"/>
      </g>
     </g>
    </g>
    <g id="ytick_3">
     <g id="line2d_21">
      <path clip-path="url(#p7ed5b74d8e)" d="M 135 452.153043 
L 972 452.153043 
" style="fill:none;stroke:#b0b0b0;stroke-linecap:square;stroke-width:0.8;"/>
     </g>
     <g id="line2d_22">
      <g>
       <use style="stroke:#000000;stroke-width:0.8;" x="135" xlink:href="#m1075185245" y="452.153043"/>
      </g>
     </g>
     <g id="text_11">
      <!-- 68.5 -->
      <g transform="translate(67.882812 462.410934)scale(0.27 -0.27)">
       <use xlink:href="#DejaVuSans-54"/>
       <use x="63.623047" xlink:href="#DejaVuSans-56"/>
       <use x="127.246094" xlink:href="#DejaVuSans-46"/>
       <use x="159.033203" xlink:href="#DejaVuSans-53"/>
      </g>
     </g>
    </g>
    <g id="ytick_4">
     <g id="line2d_23">
      <path clip-path="url(#p7ed5b74d8e)" d="M 135 386.955321 
L 972 386.955321 
" style="fill:none;stroke:#b0b0b0;stroke-linecap:square;stroke-width:0.8;"/>
     </g>
     <g id="line2d_24">
      <g>
       <use style="stroke:#000000;stroke-width:0.8;" x="135" xlink:href="#m1075185245" y="386.955321"/>
      </g>
     </g>
     <g id="text_12">
      <!-- 69.0 -->
      <defs>
       <path d="M 10.984375 1.515625 
L 10.984375 10.5 
Q 14.703125 8.734375 18.5 7.8125 
Q 22.3125 6.890625 25.984375 6.890625 
Q 35.75 6.890625 40.890625 13.453125 
Q 46.046875 20.015625 46.78125 33.40625 
Q 43.953125 29.203125 39.59375 26.953125 
Q 35.25 24.703125 29.984375 24.703125 
Q 19.046875 24.703125 12.671875 31.3125 
Q 6.296875 37.9375 6.296875 49.421875 
Q 6.296875 60.640625 12.9375 67.421875 
Q 19.578125 74.21875 30.609375 74.21875 
Q 43.265625 74.21875 49.921875 64.515625 
Q 56.59375 54.828125 56.59375 36.375 
Q 56.59375 19.140625 48.40625 8.859375 
Q 40.234375 -1.421875 26.421875 -1.421875 
Q 22.703125 -1.421875 18.890625 -0.6875 
Q 15.09375 0.046875 10.984375 1.515625 
z
M 30.609375 32.421875 
Q 37.25 32.421875 41.125 36.953125 
Q 45.015625 41.5 45.015625 49.421875 
Q 45.015625 57.28125 41.125 61.84375 
Q 37.25 66.40625 30.609375 66.40625 
Q 23.96875 66.40625 20.09375 61.84375 
Q 16.21875 57.28125 16.21875 49.421875 
Q 16.21875 41.5 20.09375 36.953125 
Q 23.96875 32.421875 30.609375 32.421875 
z
" id="DejaVuSans-57"/>
      </defs>
      <g transform="translate(67.882812 397.213212)scale(0.27 -0.27)">
       <use xlink:href="#DejaVuSans-54"/>
       <use x="63.623047" xlink:href="#DejaVuSans-57"/>
       <use x="127.246094" xlink:href="#DejaVuSans-46"/>
       <use x="159.033203" xlink:href="#DejaVuSans-48"/>
      </g>
     </g>
    </g>
    <g id="ytick_5">
     <g id="line2d_25">
      <path clip-path="url(#p7ed5b74d8e)" d="M 135 321.757599 
L 972 321.757599 
" style="fill:none;stroke:#b0b0b0;stroke-linecap:square;stroke-width:0.8;"/>
     </g>
     <g id="line2d_26">
      <g>
       <use style="stroke:#000000;stroke-width:0.8;" x="135" xlink:href="#m1075185245" y="321.757599"/>
      </g>
     </g>
     <g id="text_13">
      <!-- 69.5 -->
      <g transform="translate(67.882812 332.01549)scale(0.27 -0.27)">
       <use xlink:href="#DejaVuSans-54"/>
       <use x="63.623047" xlink:href="#DejaVuSans-57"/>
       <use x="127.246094" xlink:href="#DejaVuSans-46"/>
       <use x="159.033203" xlink:href="#DejaVuSans-53"/>
      </g>
     </g>
    </g>
    <g id="ytick_6">
     <g id="line2d_27">
      <path clip-path="url(#p7ed5b74d8e)" d="M 135 256.559877 
L 972 256.559877 
" style="fill:none;stroke:#b0b0b0;stroke-linecap:square;stroke-width:0.8;"/>
     </g>
     <g id="line2d_28">
      <g>
       <use style="stroke:#000000;stroke-width:0.8;" x="135" xlink:href="#m1075185245" y="256.559877"/>
      </g>
     </g>
     <g id="text_14">
      <!-- 70.0 -->
      <g transform="translate(67.882812 266.817767)scale(0.27 -0.27)">
       <use xlink:href="#DejaVuSans-55"/>
       <use x="63.623047" xlink:href="#DejaVuSans-48"/>
       <use x="127.246094" xlink:href="#DejaVuSans-46"/>
       <use x="159.033203" xlink:href="#DejaVuSans-48"/>
      </g>
     </g>
    </g>
    <g id="ytick_7">
     <g id="line2d_29">
      <path clip-path="url(#p7ed5b74d8e)" d="M 135 191.362155 
L 972 191.362155 
" style="fill:none;stroke:#b0b0b0;stroke-linecap:square;stroke-width:0.8;"/>
     </g>
     <g id="line2d_30">
      <g>
       <use style="stroke:#000000;stroke-width:0.8;" x="135" xlink:href="#m1075185245" y="191.362155"/>
      </g>
     </g>
     <g id="text_15">
      <!-- 70.5 -->
      <g transform="translate(67.882812 201.620045)scale(0.27 -0.27)">
       <use xlink:href="#DejaVuSans-55"/>
       <use x="63.623047" xlink:href="#DejaVuSans-48"/>
       <use x="127.246094" xlink:href="#DejaVuSans-46"/>
       <use x="159.033203" xlink:href="#DejaVuSans-53"/>
      </g>
     </g>
    </g>
    <g id="ytick_8">
     <g id="line2d_31">
      <path clip-path="url(#p7ed5b74d8e)" d="M 135 126.164433 
L 972 126.164433 
" style="fill:none;stroke:#b0b0b0;stroke-linecap:square;stroke-width:0.8;"/>
     </g>
     <g id="line2d_32">
      <g>
       <use style="stroke:#000000;stroke-width:0.8;" x="135" xlink:href="#m1075185245" y="126.164433"/>
      </g>
     </g>
     <g id="text_16">
      <!-- 71.0 -->
      <g transform="translate(67.882812 136.422323)scale(0.27 -0.27)">
       <use xlink:href="#DejaVuSans-55"/>
       <use x="63.623047" xlink:href="#DejaVuSans-49"/>
       <use x="127.246094" xlink:href="#DejaVuSans-46"/>
       <use x="159.033203" xlink:href="#DejaVuSans-48"/>
      </g>
     </g>
    </g>
   </g>
   <g id="line2d_33">
    <path clip-path="url(#p7ed5b74d8e)" d="M 173.045455 469.515956 
L 173.482759 473.704225 
L 173.920063 471.871733 
L 174.357367 475.821241 
L 175.669279 479.578745 
L 176.106583 482.753274 
L 176.543887 480.951622 
L 176.981191 479.779703 
L 177.418495 485.067268 
L 177.855799 481.376418 
L 178.293103 481.772364 
L 178.730408 478.000932 
L 179.167712 480.491012 
L 179.605016 479.095254 
L 180.04232 480.226385 
L 180.479624 480.888947 
L 180.916928 480.251256 
L 181.354232 480.785484 
L 181.791536 477.324442 
L 182.22884 479.553874 
L 182.666144 473.285398 
L 183.103448 479.011687 
L 183.540752 474.56476 
L 183.978056 475.675995 
L 184.415361 464.306983 
L 184.852665 463.345969 
L 185.289969 460.361454 
L 185.727273 455.408154 
L 186.164577 457.166033 
L 186.601881 462.166091 
L 187.039185 462.439671 
L 187.476489 455.974217 
L 187.913793 456.243818 
L 188.351097 456.968061 
L 188.788401 454.968436 
L 189.225705 451.61782 
L 189.663009 452.315202 
L 190.100313 446.798824 
L 190.537618 447.678261 
L 190.974922 451.267637 
L 191.412226 448.791485 
L 191.84953 447.571813 
L 192.286834 442.236495 
L 192.724138 446.36209 
L 193.161442 445.370236 
L 193.598746 445.765187 
L 194.03605 442.534947 
L 194.473354 440.663656 
L 194.910658 436.246574 
L 195.347962 434.574251 
L 195.785266 442.249428 
L 196.222571 442.441432 
L 196.659875 446.194957 
L 197.097179 441.906209 
L 197.534483 443.460146 
L 197.971787 439.15946 
L 198.409091 438.572506 
L 198.846395 439.020183 
L 199.283699 445.863676 
L 200.158307 464.062252 
L 200.595611 464.4771 
L 201.032915 464.185612 
L 201.470219 462.562036 
L 201.907524 456.117474 
L 202.344828 458.328999 
L 202.782132 456.289581 
L 203.219436 452.78775 
L 203.65674 451.572058 
L 204.094044 450.895568 
L 204.968652 442.76177 
L 205.405956 436.606705 
L 205.84326 432.389586 
L 206.280564 431.068441 
L 207.155172 426.374793 
L 207.592476 428.82707 
L 208.467085 424.140387 
L 208.904389 422.924694 
L 209.341693 424.890495 
L 209.778997 421.592606 
L 210.216301 424.15332 
L 210.653605 423.818059 
L 211.090909 425.709247 
L 211.528213 423.941419 
L 211.965517 432.763645 
L 212.402821 430.040773 
L 212.840125 431.055508 
L 213.277429 432.94769 
L 213.714734 446.422775 
L 214.152038 450.523498 
L 214.589342 450.964211 
L 215.026646 447.1888 
L 215.46395 448.131907 
L 215.901254 448.340823 
L 216.775862 443.175623 
L 217.213166 438.712778 
L 217.65047 438.864988 
L 218.962382 435.070675 
L 220.274295 418.928429 
L 220.711599 422.492934 
L 221.148903 424.397055 
L 221.586207 434.596137 
L 222.023511 420.146111 
L 222.460815 418.402159 
L 222.898119 417.427218 
L 223.335423 418.722497 
L 223.772727 419.187087 
L 224.210031 420.500273 
L 224.647335 421.118068 
L 225.084639 424.187144 
L 225.521944 438.214364 
L 225.959248 420.860405 
L 226.396552 423.003287 
L 226.833856 420.461475 
L 227.27116 420.027725 
L 227.708464 416.175711 
L 228.145768 416.365725 
L 228.583072 412.704721 
L 229.45768 414.315364 
L 229.894984 410.661323 
L 230.332288 410.057456 
L 230.769592 409.886344 
L 231.206897 409.304363 
L 231.644201 407.355475 
L 232.081505 403.765104 
L 232.518809 401.592377 
L 232.956113 393.905261 
L 233.393417 394.064436 
L 233.830721 391.799189 
L 234.268025 388.132215 
L 234.705329 382.867531 
L 235.142633 381.669745 
L 235.579937 376.677647 
L 236.017241 373.937862 
L 236.454545 374.845155 
L 237.329154 367.202807 
L 237.766458 371.61591 
L 238.641066 361.603857 
L 239.07837 361.475523 
L 239.515674 370.667829 
L 239.952978 359.73953 
L 240.390282 361.160159 
L 240.827586 359.966353 
L 241.26489 360.44885 
L 242.139498 352.735868 
L 242.576803 353.507863 
L 243.014107 352.492133 
L 243.451411 350.523348 
L 244.326019 357.114152 
L 244.763323 357.167873 
L 245.200627 355.252809 
L 245.637931 357.171852 
L 246.512539 351.551016 
L 246.949843 351.109308 
L 247.824451 342.435313 
L 248.261755 343.585346 
L 248.69906 342.176655 
L 249.136364 343.730592 
L 249.573668 343.256054 
L 250.010972 340.934102 
L 250.448276 339.22497 
L 250.88558 336.989568 
L 251.760188 330.333105 
L 252.634796 321.627275 
L 253.0721 313.111459 
L 253.509404 318.154295 
L 253.946708 317.543464 
L 254.384013 316.609311 
L 254.821317 312.757297 
L 255.258621 314.388832 
L 255.695925 313.547199 
L 256.133229 313.281577 
L 256.570533 306.995194 
L 257.007837 307.298619 
L 257.445141 306.06303 
L 257.882445 306.154555 
L 258.319749 303.082495 
L 258.757053 302.406999 
L 259.194357 304.809534 
L 259.631661 301.229111 
L 260.068966 305.657136 
L 260.50627 304.256404 
L 260.943574 306.293833 
L 261.380878 302.334376 
L 261.818182 303.05066 
L 262.255486 306.4351 
L 262.69279 306.567413 
L 263.130094 306.395306 
L 263.567398 306.359492 
L 264.004702 308.95801 
L 264.442006 309.373852 
L 264.87931 307.35831 
L 265.316614 302.327412 
L 266.191223 303.866427 
L 266.628527 306.885761 
L 267.065831 307.485649 
L 267.503135 306.641031 
L 267.940439 309.804617 
L 268.377743 314.107293 
L 268.815047 311.436152 
L 269.252351 312.310615 
L 269.689655 306.674856 
L 270.126959 311.928597 
L 270.564263 311.495842 
L 271.001567 308.371055 
L 271.438871 306.802195 
L 271.876176 309.190802 
L 272.31348 310.055316 
L 272.750784 306.981266 
L 273.188088 310.638291 
L 273.625392 311.462018 
L 274.062696 313.496462 
L 274.5 312.823951 
L 274.937304 316.859015 
L 275.374608 316.964468 
L 275.811912 320.736895 
L 276.249216 323.460762 
L 276.68652 325.07041 
L 277.123824 323.695544 
L 277.561129 326.349773 
L 277.998433 327.007361 
L 278.435737 327.366497 
L 278.873041 326.064254 
L 279.310345 329.917263 
L 279.747649 329.799872 
L 280.184953 329.841655 
L 280.622257 331.510994 
L 281.059561 329.969989 
L 281.496865 333.037075 
L 281.934169 332.746583 
L 282.371473 331.976578 
L 282.808777 333.459882 
L 283.246082 336.158878 
L 283.683386 331.152852 
L 284.12069 336.199666 
L 284.995298 334.185119 
L 285.432602 334.059769 
L 285.869906 335.494326 
L 286.30721 333.672777 
L 286.744514 335.224725 
L 287.181818 335.025757 
L 287.619122 335.301327 
L 288.056426 337.580502 
L 288.49373 338.519629 
L 288.931034 335.173988 
L 289.368339 336.131023 
L 289.805643 334.79396 
L 290.242947 332.215339 
L 290.680251 332.331735 
L 291.117555 332.896803 
L 291.554859 332.788366 
L 291.992163 331.533875 
L 292.429467 335.671407 
L 292.866771 338.565392 
L 293.304075 337.934664 
L 293.741379 338.352496 
L 294.178683 339.638822 
L 294.615987 340.39291 
L 295.053292 339.098625 
L 295.490596 339.335397 
L 295.9279 341.364867 
L 296.365204 339.358278 
L 297.239812 342.664126 
L 297.677116 342.651193 
L 298.11442 344.884605 
L 298.551724 350.006032 
L 298.989028 352.680158 
L 299.426332 350.762109 
L 299.863636 350.708388 
L 300.30094 355.124475 
L 300.738245 353.52577 
L 301.175549 356.87937 
L 301.612853 354.612133 
L 302.050157 354.858853 
L 302.487461 352.551823 
L 302.924765 351.558975 
L 303.362069 349.106698 
L 303.799373 351.312255 
L 304.236677 351.71019 
L 305.111285 355.507488 
L 305.548589 354.293785 
L 305.985893 351.801715 
L 306.423197 351.799726 
L 306.860502 352.608529 
L 307.297806 356.047685 
L 309.047022 364.342647 
L 309.484326 363.384618 
L 310.358934 367.407744 
L 310.796238 367.947941 
L 311.233542 368.003652 
L 311.670846 367.011798 
L 312.10815 369.628223 
L 312.545455 368.9388 
L 312.982759 370.286806 
L 313.420063 373.084291 
L 313.857367 372.915168 
L 314.294671 371.113516 
L 314.731975 371.61193 
L 315.169279 371.520405 
L 316.043887 370.196275 
L 316.481191 372.515243 
L 316.918495 371.187134 
L 317.355799 370.447969 
L 317.793103 368.565735 
L 318.230408 371.275675 
L 318.667712 367.471413 
L 319.105016 368.176754 
L 319.54232 369.377523 
L 319.979624 365.64489 
L 320.416928 363.909892 
L 320.854232 361.393946 
L 321.291536 355.732321 
L 321.72884 354.509665 
L 322.603448 347.122991 
L 323.040752 348.993287 
L 323.915361 346.933972 
L 324.352665 339.772131 
L 324.789969 338.286837 
L 325.227273 327.26005 
L 325.664577 324.630692 
L 326.101881 328.941326 
L 326.539185 329.149247 
L 326.976489 328.23897 
L 327.413793 328.594128 
L 327.851097 327.980312 
L 328.288401 330.340069 
L 329.600313 333.289764 
L 330.037618 331.912908 
L 330.474922 329.949097 
L 331.34953 334.546245 
L 331.786834 332.736634 
L 332.224138 332.308854 
L 332.661442 334.349267 
L 333.098746 334.123439 
L 333.53605 332.725691 
L 333.973354 329.950092 
L 334.847962 321.266149 
L 335.285266 322.280884 
L 335.722571 322.33361 
L 336.159875 318.025961 
L 336.597179 315.636359 
L 337.034483 311.32075 
L 337.471787 315.465247 
L 337.909091 316.329761 
L 338.346395 313.176124 
L 338.783699 311.459033 
L 339.221003 310.540797 
L 340.095611 303.444616 
L 340.970219 294.204558 
L 341.407524 291.948264 
L 341.844828 290.59031 
L 342.282132 290.828077 
L 342.719436 293.556918 
L 343.594044 291.747307 
L 344.031348 291.769194 
L 344.468652 294.095125 
L 344.905956 291.533417 
L 345.780564 298.34209 
L 346.217868 299.475211 
L 346.655172 298.728087 
L 347.092476 302.669637 
L 347.529781 302.285629 
L 347.967085 302.069749 
L 348.404389 302.852687 
L 348.841693 300.784418 
L 349.278997 299.989542 
L 349.716301 303.589862 
L 350.153605 301.668829 
L 350.590909 291.877631 
L 351.028213 295.720691 
L 351.902821 297.792939 
L 352.340125 293.902127 
L 352.777429 296.547402 
L 353.214734 294.372685 
L 353.652038 297.223892 
L 354.089342 292.964989 
L 354.526646 286.797987 
L 354.96395 286.088667 
L 355.401254 281.868563 
L 355.838558 284.787418 
L 356.275862 284.581487 
L 356.713166 282.079469 
L 357.15047 281.726301 
L 358.025078 287.166077 
L 358.462382 288.812534 
L 359.336991 294.257284 
L 359.774295 292.919227 
L 360.211599 288.381769 
L 360.648903 292.884407 
L 361.086207 298.601743 
L 361.523511 298.424662 
L 361.960815 297.702409 
L 362.398119 313.927227 
L 362.835423 311.050154 
L 363.272727 305.855109 
L 363.710031 312.621999 
L 364.147335 309.648427 
L 364.584639 287.827644 
L 365.021944 285.966302 
L 365.459248 288.37779 
L 365.896552 292.437725 
L 366.333856 291.555303 
L 366.77116 287.814711 
L 367.208464 291.248893 
L 367.645768 288.816514 
L 368.083072 293.223647 
L 368.520376 304.589675 
L 368.95768 325.063447 
L 369.832288 328.230017 
L 370.269592 328.684658 
L 370.706897 323.724394 
L 371.144201 303.610754 
L 372.018809 315.983558 
L 372.456113 309.860328 
L 372.893417 292.793877 
L 373.330721 298.836525 
L 373.768025 296.916487 
L 374.205329 294.391587 
L 374.642633 296.24895 
L 375.079937 292.331277 
L 375.517241 294.088162 
L 376.39185 305.231345 
L 377.266458 303.81768 
L 377.703762 307.611993 
L 378.141066 309.370867 
L 378.57837 309.958817 
L 379.015674 309.60366 
L 379.452978 314.718123 
L 379.890282 312.471778 
L 380.327586 312.865734 
L 380.76489 327.41027 
L 381.202194 328.467783 
L 381.639498 324.500368 
L 382.076803 328.332485 
L 382.514107 335.111313 
L 382.951411 339.68359 
L 383.388715 338.538531 
L 383.826019 339.875594 
L 384.263323 346.81857 
L 384.700627 351.737051 
L 385.137931 360.712482 
L 385.575235 359.965358 
L 386.012539 361.622759 
L 386.449843 366.591976 
L 386.887147 368.932831 
L 387.324451 373.264357 
L 388.19906 397.1743 
L 388.636364 401.891823 
L 389.073668 403.366174 
L 389.510972 404.163039 
L 390.38558 430.18005 
L 390.822884 435.150262 
L 391.260188 445.943263 
L 391.697492 446.798824 
L 392.134796 456.710397 
L 392.5721 457.877343 
L 393.009404 463.783698 
L 393.446708 460.403237 
L 393.884013 459.932679 
L 394.321317 464.248287 
L 394.758621 466.368288 
L 395.195925 466.849789 
L 395.633229 464.734763 
L 396.070533 465.227208 
L 396.507837 465.403294 
L 396.945141 463.934913 
L 397.382445 470.75453 
L 397.819749 473.027735 
L 398.257053 471.387247 
L 398.694357 473.128214 
L 399.131661 470.172549 
L 399.568966 474.387679 
L 400.00627 474.223531 
L 400.443574 476.978238 
L 400.880878 476.061992 
L 401.318182 481.908656 
L 402.19279 472.728289 
L 402.630094 477.237891 
L 403.067398 478.293414 
L 403.504702 475.627248 
L 403.942006 467.110437 
L 404.37931 467.599897 
L 404.816614 464.84718 
L 405.691223 462.359089 
L 406.128527 459.960534 
L 406.565831 454.034282 
L 407.003135 456.316441 
L 407.440439 457.359032 
L 407.877743 461.432895 
L 408.315047 458.96868 
L 408.752351 461.305556 
L 409.189655 464.334838 
L 409.626959 465.39832 
L 410.501567 461.500544 
L 410.938871 464.47511 
L 411.376176 462.216827 
L 413.562696 481.867868 
L 414.437304 487.645889 
L 414.874608 493.607955 
L 415.311912 493.537321 
L 416.623824 502.375465 
L 417.061129 503.91249 
L 417.935737 514.620929 
L 418.373041 516.49222 
L 418.810345 519.38123 
L 419.247649 523.04323 
L 419.684953 523.681916 
L 420.122257 524.047022 
L 420.559561 527.199664 
L 420.996865 523.704798 
L 421.434169 530.385137 
L 421.871473 533.688 
L 422.308777 538.51595 
L 422.746082 541.311446 
L 423.62069 545.013239 
L 424.057994 544.638185 
L 424.495298 542.435613 
L 424.932602 542.592797 
L 425.369906 540.695641 
L 426.244514 539.799291 
L 426.681818 536.813782 
L 427.119122 536.968976 
L 427.556426 535.832871 
L 427.99373 536.686442 
L 428.431034 533.956606 
L 428.868339 535.892561 
L 429.742947 534.099863 
L 431.054859 541.231859 
L 431.492163 542.223712 
L 431.929467 538.932787 
L 432.366771 538.931792 
L 432.804075 536.33427 
L 433.678683 525.361203 
L 434.115987 522.384647 
L 434.553292 515.69237 
L 434.990596 513.699709 
L 435.4279 509.396038 
L 435.865204 510.728127 
L 436.302508 506.370735 
L 437.177116 502.007374 
L 437.61442 498.798026 
L 438.489028 489.062539 
L 438.926332 486.43716 
L 439.363636 476.792203 
L 439.80094 469.698011 
L 440.238245 468.143079 
L 441.112853 452.713137 
L 441.550157 451.769036 
L 441.987461 445.884567 
L 442.862069 439.065946 
L 443.736677 421.032512 
L 444.173981 413.575204 
L 444.611285 413.746316 
L 445.048589 412.285894 
L 445.485893 408.720393 
L 446.360502 391.645984 
L 446.797806 384.365757 
L 447.23511 374.808346 
L 447.672414 375.277909 
L 448.109718 369.997308 
L 448.547022 369.696866 
L 448.984326 356.249637 
L 449.42163 362.516124 
L 449.858934 359.943472 
L 451.60815 334.771079 
L 452.482759 325.719045 
L 452.920063 319.664459 
L 453.357367 319.760959 
L 453.794671 317.960301 
L 454.231975 309.563866 
L 454.669279 303.622692 
L 455.106583 295.754516 
L 455.543887 290.267983 
L 456.855799 268.81131 
L 457.730408 272.910044 
L 458.605016 260.97099 
L 459.04232 258.955447 
L 459.479624 254.691571 
L 459.916928 252.521828 
L 460.354232 252.445226 
L 460.791536 249.760157 
L 461.22884 244.970011 
L 461.666144 242.750527 
L 462.540752 233.933275 
L 462.978056 231.693894 
L 463.415361 233.003101 
L 463.852665 229.875329 
L 464.289969 224.384817 
L 464.727273 223.158181 
L 465.164577 223.714296 
L 466.476489 227.121617 
L 466.913793 226.084001 
L 467.351097 225.909904 
L 467.788401 224.722067 
L 468.225705 228.491509 
L 468.663009 225.07225 
L 469.100313 228.440773 
L 469.537618 230.848281 
L 469.974922 230.567737 
L 470.412226 230.64235 
L 470.84953 234.862454 
L 471.286834 235.446424 
L 471.724138 230.429454 
L 472.161442 228.280604 
L 472.598746 219.581738 
L 473.03605 215.72276 
L 473.910658 200.532574 
L 474.347962 197.195886 
L 475.222571 182.244462 
L 476.097179 173.98233 
L 476.534483 169.220039 
L 476.971787 162.930671 
L 477.409091 162.466082 
L 477.846395 162.791394 
L 478.283699 157.752538 
L 478.721003 154.004982 
L 479.158307 154.331289 
L 479.595611 151.048323 
L 480.032915 152.619172 
L 480.470219 151.056281 
L 480.907524 152.4789 
L 481.344828 152.002373 
L 481.782132 156.992481 
L 482.219436 156.472181 
L 482.65674 157.945537 
L 483.094044 160.000872 
L 483.531348 161.115091 
L 483.968652 166.791639 
L 484.405956 167.113966 
L 484.84326 177.257337 
L 485.280564 176.425653 
L 486.592476 195.746407 
L 487.029781 197.331184 
L 487.467085 203.914029 
L 487.904389 204.353748 
L 488.341693 206.477728 
L 488.778997 212.226898 
L 489.216301 214.972652 
L 489.653605 216.341549 
L 490.090909 215.366608 
L 490.528213 216.132633 
L 490.965517 212.687508 
L 491.402821 213.561971 
L 491.840125 211.69068 
L 492.277429 209.166776 
L 492.714734 205.498807 
L 493.152038 207.033842 
L 493.589342 202.985845 
L 494.026646 203.35891 
L 494.46395 203.517089 
L 494.901254 203.23356 
L 495.338558 198.274291 
L 495.775862 191.133342 
L 496.213166 194.387458 
L 496.65047 192.792732 
L 497.087774 189.954459 
L 497.962382 188.596504 
L 498.399687 190.569269 
L 498.836991 191.985918 
L 499.274295 190.596129 
L 499.711599 190.829916 
L 500.148903 197.417735 
L 500.586207 200.180401 
L 501.023511 207.336273 
L 501.460815 210.879887 
L 502.335423 223.065661 
L 502.772727 227.515573 
L 503.210031 236.925748 
L 503.647335 240.837453 
L 504.084639 251.15492 
L 504.521944 257.516911 
L 504.959248 268.395468 
L 505.396552 273.449246 
L 505.833856 282.545053 
L 506.27116 286.175218 
L 506.708464 293.224642 
L 507.145768 298.31324 
L 507.583072 299.82042 
L 508.020376 307.273748 
L 508.45768 311.272998 
L 508.894984 318.802929 
L 509.332288 322.790241 
L 509.769592 331.044414 
L 510.206897 333.936409 
L 511.081505 348.027299 
L 512.393417 363.116011 
L 512.830721 372.417749 
L 513.268025 374.762583 
L 514.142633 386.369361 
L 515.017241 392.581132 
L 515.454545 397.562287 
L 515.89185 398.785938 
L 516.329154 401.061133 
L 517.203762 408.928314 
L 517.641066 407.010266 
L 518.07837 410.653364 
L 518.515674 418.790146 
L 518.952978 415.393768 
L 519.390282 418.900573 
L 519.827586 424.318463 
L 520.26489 424.981025 
L 520.702194 424.82782 
L 521.139498 425.202874 
L 521.576803 424.899448 
L 522.451411 419.816819 
L 523.326019 408.260778 
L 523.763323 400.505019 
L 524.200627 399.660401 
L 524.637931 395.44925 
L 525.075235 389.063383 
L 525.512539 390.778485 
L 525.949843 389.737884 
L 526.387147 387.194082 
L 526.824451 388.816664 
L 527.261755 384.838305 
L 527.69906 383.713143 
L 528.136364 379.716878 
L 528.573668 369.659063 
L 529.010972 366.392014 
L 529.448276 361.060675 
L 529.88558 346.396759 
L 530.322884 341.673267 
L 530.760188 335.425682 
L 531.634796 317.118668 
L 532.0721 319.19987 
L 532.509404 318.220949 
L 532.946708 316.864984 
L 533.384013 320.441428 
L 533.821317 320.802554 
L 534.258621 321.521822 
L 534.695925 317.357429 
L 535.133229 318.999907 
L 535.570533 317.296744 
L 536.007837 317.406176 
L 536.445141 312.284749 
L 536.882445 313.162196 
L 537.319749 314.575861 
L 537.757053 313.890418 
L 538.631661 305.892913 
L 539.068966 299.69706 
L 539.50627 296.138523 
L 540.818182 283.089229 
L 541.255486 281.301505 
L 541.69279 278.950702 
L 542.130094 282.024753 
L 542.567398 280.950327 
L 543.004702 281.881496 
L 543.442006 277.527089 
L 543.87931 274.391358 
L 544.316614 277.632541 
L 544.753918 272.433517 
L 545.191223 274.418219 
L 545.628527 275.36431 
L 546.065831 275.213095 
L 546.503135 276.281551 
L 546.940439 279.788356 
L 547.377743 280.392223 
L 547.815047 283.554814 
L 548.252351 285.677799 
L 548.689655 286.306537 
L 549.126959 288.695143 
L 549.564263 285.567372 
L 550.001567 289.648198 
L 550.438871 288.948827 
L 550.876176 293.324126 
L 551.31348 285.393275 
L 551.750784 281.695461 
L 552.188088 288.941863 
L 552.625392 284.291989 
L 553.062696 285.881741 
L 553.5 288.475284 
L 553.937304 293.016721 
L 554.374608 294.304042 
L 555.249216 305.792434 
L 555.68652 320.189734 
L 556.123824 328.311594 
L 556.998433 339.606988 
L 557.435737 346.671334 
L 558.310345 364.424224 
L 558.747649 369.307885 
L 559.184953 375.638041 
L 559.622257 383.764875 
L 560.059561 388.732102 
L 560.496865 398.506388 
L 560.934169 402.862785 
L 561.371473 410.271346 
L 561.808777 415.083379 
L 562.246082 416.210531 
L 563.12069 426.391706 
L 563.557994 426.686178 
L 563.995298 433.187446 
L 564.432602 436.211754 
L 564.869906 437.646311 
L 565.744514 444.494778 
L 566.181818 446.914225 
L 566.619122 450.492658 
L 567.056426 458.040496 
L 567.49373 463.36686 
L 569.680251 478.700303 
L 570.117555 485.903927 
L 570.554859 484.942913 
L 570.992163 485.177695 
L 572.304075 493.394065 
L 572.741379 494.059611 
L 573.178683 500.262428 
L 573.615987 498.520466 
L 574.053292 503.128557 
L 574.490596 505.279398 
L 574.9279 506.181716 
L 575.365204 504.823762 
L 575.802508 509.931261 
L 576.239812 512.40244 
L 576.677116 512.577531 
L 577.11442 516.805594 
L 577.989028 521.824553 
L 578.426332 523.599345 
L 578.863636 528.052241 
L 579.30094 524.837918 
L 579.738245 524.971227 
L 580.175549 524.967247 
L 580.612853 524.698641 
L 581.050157 521.676322 
L 581.487461 521.280377 
L 581.924765 519.663764 
L 582.362069 519.87666 
L 582.799373 520.831705 
L 583.236677 516.775749 
L 583.673981 515.899296 
L 584.111285 511.457343 
L 584.548589 512.956565 
L 584.985893 508.376329 
L 585.423197 508.30868 
L 585.860502 504.64867 
L 586.73511 492.56039 
L 587.172414 493.408987 
L 587.609718 493.510461 
L 588.047022 483.547155 
L 588.484326 483.893359 
L 588.92163 471.598152 
L 589.358934 475.764535 
L 589.796238 469.200592 
L 590.233542 467.435749 
L 590.670846 457.693298 
L 591.10815 453.485132 
L 591.982759 448.642259 
L 592.420063 439.858832 
L 592.857367 433.403326 
L 593.294671 431.433546 
L 593.731975 422.166628 
L 594.606583 406.963509 
L 595.043887 407.174414 
L 595.481191 403.715362 
L 595.918495 406.843133 
L 596.355799 404.012818 
L 596.793103 404.871364 
L 597.230408 404.504269 
L 598.105016 389.534937 
L 598.54232 387.318437 
L 598.979624 380.384414 
L 599.854232 371.999917 
L 600.291536 372.170034 
L 600.72884 370.032127 
L 601.166144 361.715279 
L 601.603448 369.620264 
L 602.040752 362.682262 
L 602.478056 358.821294 
L 602.915361 357.355897 
L 603.352665 366.59695 
L 604.227273 355.960139 
L 604.664577 355.3125 
L 605.101881 362.738967 
L 605.539185 367.319203 
L 605.976489 365.096734 
L 606.413793 356.662495 
L 606.851097 355.52838 
L 607.725705 338.834993 
L 608.600313 331.234429 
L 609.474922 309.010736 
L 610.34953 296.489701 
L 611.224138 292.317349 
L 612.098746 269.701691 
L 612.53605 260.302458 
L 612.973354 241.650235 
L 613.410658 246.11507 
L 613.847962 244.39201 
L 614.285266 238.511521 
L 615.159875 213.403792 
L 615.597179 212.160244 
L 616.034483 206.715494 
L 616.471787 207.139295 
L 616.909091 197.413756 
L 617.346395 200.110763 
L 617.783699 196.779049 
L 618.221003 197.08347 
L 619.532915 197.064568 
L 620.407524 191.490489 
L 620.844828 199.617323 
L 621.282132 201.38515 
L 621.719436 198.211616 
L 622.594044 207.426803 
L 623.031348 216.816087 
L 623.468652 219.248467 
L 623.905956 225.220481 
L 624.34326 224.226638 
L 624.780564 233.606968 
L 625.217868 233.580107 
L 625.655172 233.975058 
L 626.092476 236.464143 
L 626.529781 237.560455 
L 626.967085 237.510713 
L 627.404389 233.40999 
L 627.841693 232.376353 
L 628.278997 229.991725 
L 628.716301 231.106939 
L 629.153605 220.895919 
L 629.590909 223.148233 
L 630.465517 216.403229 
L 630.902821 214.773684 
L 631.340125 215.60139 
L 631.777429 217.427913 
L 632.214734 206.764241 
L 632.652038 202.971918 
L 633.526646 198.580701 
L 633.96395 194.196449 
L 634.401254 192.216721 
L 634.838558 192.943948 
L 635.275862 196.108528 
L 635.713166 189.798269 
L 636.15047 191.290526 
L 636.587774 191.069672 
L 637.025078 190.318569 
L 637.462382 188.03641 
L 637.899687 189.822145 
L 638.336991 187.867288 
L 638.774295 188.250301 
L 639.211599 183.644199 
L 639.648903 184.646996 
L 640.086207 184.849943 
L 640.523511 190.577227 
L 640.960815 192.872319 
L 641.398119 193.702014 
L 641.835423 196.871569 
L 642.272727 195.335539 
L 642.710031 186.453623 
L 643.147335 186.186011 
L 643.584639 182.766752 
L 644.021944 185.888554 
L 644.459248 182.208648 
L 644.896552 179.799149 
L 645.333856 200.841969 
L 646.208464 214.592624 
L 646.645768 213.749996 
L 647.083072 216.078912 
L 647.520376 214.798555 
L 647.95768 218.650569 
L 648.394984 217.043905 
L 648.832288 221.754464 
L 649.269592 219.831442 
L 649.706897 219.672268 
L 650.581505 228.151275 
L 651.018809 232.400229 
L 651.456113 231.911763 
L 651.893417 233.733312 
L 652.330721 232.903617 
L 652.768025 237.836025 
L 653.205329 238.17427 
L 653.642633 241.256279 
L 654.079937 243.242971 
L 654.517241 244.150264 
L 654.954545 247.290968 
L 655.39185 247.890856 
L 655.829154 250.57294 
L 656.266458 252.198506 
L 656.703762 256.481285 
L 657.141066 262.208569 
L 657.57837 263.866964 
L 658.015674 268.427303 
L 658.452978 275.537412 
L 658.890282 274.224225 
L 659.327586 277.914081 
L 659.76489 288.40863 
L 661.514107 310.160769 
L 661.951411 312.350408 
L 663.263323 328.20813 
L 663.700627 330.592758 
L 664.137931 336.54587 
L 664.575235 336.847306 
L 665.012539 335.80571 
L 665.449843 333.602144 
L 665.887147 330.573856 
L 666.324451 330.39379 
L 666.761755 331.476174 
L 667.19906 326.310974 
L 667.636364 323.465736 
L 668.073668 325.780725 
L 668.510972 329.462622 
L 668.948276 328.746338 
L 669.38558 324.643625 
L 669.822884 324.743109 
L 670.260188 326.540781 
L 670.697492 326.102058 
L 671.134796 305.987422 
L 671.5721 329.817779 
L 672.009404 333.682726 
L 672.446708 334.799929 
L 672.884013 337.807325 
L 673.321317 338.564397 
L 673.758621 338.576335 
L 674.195925 341.133069 
L 674.633229 342.657162 
L 675.070533 345.725243 
L 675.507837 341.072384 
L 675.945141 342.588518 
L 676.382445 342.45322 
L 676.819749 344.822925 
L 677.257053 345.635708 
L 677.694357 347.368716 
L 678.131661 344.308593 
L 678.568966 344.88361 
L 679.443574 344.387186 
L 679.880878 341.348949 
L 680.318182 340.426734 
L 680.755486 337.415359 
L 681.19279 337.357658 
L 681.630094 336.527963 
L 682.067398 336.922914 
L 682.504702 336.262341 
L 682.942006 337.972468 
L 683.37931 337.551652 
L 683.816614 334.040867 
L 684.253918 333.464856 
L 684.691223 331.53089 
L 685.128527 325.910054 
L 685.565831 329.649651 
L 686.003135 327.961411 
L 686.877743 325.858322 
L 687.315047 331.114053 
L 687.752351 333.112683 
L 688.189655 335.685335 
L 688.626959 337.267128 
L 689.064263 337.949587 
L 689.501567 333.804096 
L 689.938871 334.663636 
L 690.376176 334.317432 
L 690.81348 331.40753 
L 691.688088 335.0367 
L 692.125392 333.023148 
L 692.562696 332.399384 
L 693 326.711894 
L 693.437304 328.312588 
L 693.874608 326.990448 
L 694.311912 327.447079 
L 694.749216 325.863297 
L 695.18652 332.393415 
L 695.623824 333.606123 
L 696.498433 336.841337 
L 696.935737 336.445391 
L 697.373041 336.613519 
L 697.810345 339.492581 
L 698.247649 335.747015 
L 698.684953 334.312458 
L 699.122257 333.49868 
L 699.559561 335.469455 
L 699.996865 339.241882 
L 700.434169 339.309531 
L 700.871473 338.098813 
L 701.308777 341.147992 
L 701.746082 341.112178 
L 702.183386 338.11274 
L 702.62069 339.846744 
L 703.057994 337.834186 
L 703.495298 339.636833 
L 703.932602 336.39167 
L 704.369906 330.838483 
L 704.80721 329.308422 
L 705.244514 330.805653 
L 705.681818 331.807455 
L 706.119122 328.499618 
L 706.556426 332.682913 
L 706.99373 333.889652 
L 707.431034 325.851359 
L 707.868339 327.326704 
L 708.305643 327.559496 
L 708.742947 321.631255 
L 709.180251 318.102563 
L 709.617555 322.671855 
L 710.054859 329.65761 
L 710.492163 322.723587 
L 710.929467 322.184385 
L 711.366771 323.704497 
L 711.804075 326.475122 
L 712.241379 321.126871 
L 712.678683 321.7188 
L 713.115987 319.180968 
L 713.553292 319.4446 
L 714.4279 314.340085 
L 714.865204 313.236809 
L 715.302508 308.759042 
L 716.177116 305.364654 
L 716.61442 309.347986 
L 717.051724 305.097042 
L 717.489028 304.955775 
L 717.926332 300.941603 
L 718.363636 303.589862 
L 718.80094 305.038347 
L 719.238245 310.499014 
L 719.675549 313.792924 
L 720.112853 309.227611 
L 720.550157 311.613233 
L 721.424765 319.329199 
L 721.862069 305.11097 
L 722.299373 311.204354 
L 722.736677 315.154857 
L 723.173981 316.462075 
L 723.611285 308.559079 
L 724.048589 310.58656 
L 724.485893 315.069301 
L 724.923197 315.520958 
L 725.360502 321.298979 
L 725.797806 334.36021 
L 726.23511 331.234429 
L 726.672414 324.495394 
L 727.109718 325.542959 
L 727.547022 329.952082 
L 727.984326 330.816596 
L 728.42163 328.114616 
L 728.858934 330.952889 
L 729.296238 336.292186 
L 729.733542 322.412203 
L 730.170846 322.980255 
L 730.60815 333.205203 
L 731.045455 333.400191 
L 731.482759 318.959119 
L 731.920063 319.300348 
L 732.357367 323.47668 
L 732.794671 313.188062 
L 733.231975 306.560449 
L 733.669279 318.244825 
L 734.106583 326.941701 
L 734.543887 316.30688 
L 734.981191 312.952285 
L 735.855799 313.515364 
L 736.293103 299.35981 
L 736.730408 298.359997 
L 737.167712 305.870031 
L 737.605016 299.706013 
L 738.479624 311.327714 
L 739.354232 305.136836 
L 739.791536 312.431985 
L 740.22884 317.287791 
L 740.666144 312.507593 
L 741.103448 300.101959 
L 741.540752 301.707628 
L 741.978056 306.267967 
L 742.415361 298.990725 
L 742.852665 302.178187 
L 743.289969 309.025659 
L 743.727273 307.780121 
L 744.164577 293.67033 
L 744.601881 293.187833 
L 745.039185 285.684763 
L 745.476489 288.312131 
L 745.913793 286.612947 
L 746.351097 293.949879 
L 746.788401 294.312 
L 747.225705 293.054525 
L 747.663009 294.191625 
L 748.100313 300.477013 
L 748.537618 301.858844 
L 748.974922 298.812649 
L 749.412226 299.361799 
L 749.84953 297.084615 
L 750.286834 291.481685 
L 750.724138 280.752354 
L 751.161442 280.367352 
L 751.598746 280.549407 
L 752.03605 286.036935 
L 752.473354 288.883168 
L 752.910658 288.306161 
L 753.347962 289.27016 
L 753.785266 283.176775 
L 754.222571 285.761365 
L 754.659875 292.454637 
L 755.534483 282.638568 
L 755.971787 285.437048 
L 756.409091 281.017976 
L 756.846395 279.357591 
L 757.283699 288.782689 
L 757.721003 284.213397 
L 758.158307 281.041852 
L 758.595611 272.963765 
L 759.032915 277.217694 
L 759.470219 277.057525 
L 759.907524 275.849791 
L 760.344828 266.667434 
L 760.782132 265.49253 
L 761.219436 270.117533 
L 762.094044 265.670606 
L 762.531348 266.275468 
L 762.968652 272.179833 
L 763.405956 265.312464 
L 763.84326 267.03254 
L 764.280564 262.415495 
L 764.717868 259.27678 
L 765.155172 257.046353 
L 765.592476 258.354565 
L 766.029781 267.391676 
L 766.467085 267.101183 
L 766.904389 268.342742 
L 767.341693 267.360836 
L 767.778997 268.129846 
L 768.216301 265.682544 
L 768.653605 265.525359 
L 769.090909 265.036894 
L 769.528213 270.080724 
L 769.965517 267.101183 
L 770.402821 266.293375 
L 770.840125 269.910607 
L 771.277429 269.597233 
L 771.714734 272.003746 
L 772.152038 271.101428 
L 772.589342 278.645287 
L 773.026646 277.441533 
L 773.46395 280.140529 
L 773.901254 279.253133 
L 774.338558 280.711566 
L 774.775862 277.101298 
L 775.213166 277.068468 
L 775.65047 285.4848 
L 776.087774 289.342783 
L 776.525078 289.908846 
L 776.962382 286.386124 
L 777.399687 292.520296 
L 777.836991 292.622765 
L 778.274295 289.454205 
L 778.711599 289.830254 
L 779.148903 294.334882 
L 780.023511 288.90207 
L 780.460815 291.76024 
L 780.898119 293.032638 
L 781.335423 293.875266 
L 781.772727 296.009194 
L 782.210031 300.711795 
L 782.647335 299.623442 
L 783.084639 296.393202 
L 783.521944 296.234028 
L 783.959248 298.019763 
L 784.396552 301.884709 
L 784.833856 301.556413 
L 785.708464 306.451017 
L 786.145768 312.55435 
L 786.583072 313.585002 
L 787.020376 318.773084 
L 787.45768 318.395046 
L 787.894984 323.281691 
L 788.332288 324.106412 
L 788.769592 327.128731 
L 789.206897 328.431969 
L 789.644201 332.439178 
L 790.081505 338.275894 
L 790.518809 339.977067 
L 790.956113 338.356476 
L 791.393417 331.402556 
L 791.830721 330.865344 
L 792.268025 330.846442 
L 792.705329 331.773631 
L 793.142633 330.128168 
L 793.579937 331.369727 
L 794.017241 334.840717 
L 794.454545 333.56235 
L 794.89185 331.235423 
L 795.329154 329.53425 
L 795.766458 328.908497 
L 796.203762 329.592945 
L 796.641066 328.321542 
L 797.07837 327.596305 
L 797.515674 331.117038 
L 797.952978 328.452861 
L 798.390282 330.7002 
L 798.827586 327.189416 
L 799.702194 332.179525 
L 800.139498 333.051003 
L 800.576803 332.060144 
L 801.451411 343.516702 
L 801.888715 345.039799 
L 802.326019 347.86713 
L 802.763323 348.347637 
L 803.200627 352.536901 
L 803.637931 352.147919 
L 804.075235 353.520796 
L 804.512539 353.301931 
L 804.949843 358.84915 
L 805.387147 360.596086 
L 805.824451 365.590174 
L 806.69906 371.726337 
L 807.573668 389.485195 
L 808.010972 393.634665 
L 808.88558 399.440542 
L 809.760188 407.675813 
L 810.197492 410.036564 
L 810.634796 409.689366 
L 811.509404 415.230615 
L 811.946708 416.167753 
L 812.384013 415.029658 
L 812.821317 409.012876 
L 813.258621 413.90748 
L 814.133229 408.659708 
L 814.570533 408.026991 
L 815.007837 407.763359 
L 815.445141 405.321031 
L 815.882445 405.494133 
L 816.319749 402.228079 
L 816.757053 401.398383 
L 817.194357 402.225094 
L 817.631661 404.318234 
L 818.068966 398.571053 
L 818.50627 397.669729 
L 818.943574 398.289514 
L 819.380878 398.607862 
L 819.818182 398.00698 
L 820.255486 395.893943 
L 820.69279 394.994609 
L 821.130094 395.084145 
L 821.567398 390.2552 
L 822.004702 390.508883 
L 822.442006 388.777865 
L 822.87931 390.830216 
L 823.316614 388.230704 
L 823.753918 387.577095 
L 824.191223 387.687522 
L 824.628527 387.252778 
L 825.065831 385.187493 
L 825.503135 389.17978 
L 825.940439 391.51566 
L 826.377743 389.903027 
L 826.815047 388.780849 
L 827.252351 391.514665 
L 827.689655 391.219198 
L 828.126959 389.593632 
L 828.564263 390.018428 
L 829.001567 391.206265 
L 829.438871 387.261731 
L 829.876176 388.539104 
L 830.31348 388.25259 
L 830.750784 390.285045 
L 831.625392 379.628337 
L 832.062696 380.1944 
L 832.5 380.520707 
L 833.374608 377.588919 
L 833.811912 376.878604 
L 834.249216 378.856343 
L 834.68652 378.657375 
L 835.123824 379.183644 
L 835.561129 382.278586 
L 835.998433 382.959056 
L 836.435737 383.253528 
L 836.873041 385.662031 
L 837.310345 385.935612 
L 837.747649 388.794777 
L 838.184953 384.807465 
L 838.622257 391.380362 
L 839.059561 402.211166 
L 839.934169 433.602294 
L 840.371473 453.081227 
L 841.246082 479.343963 
L 842.12069 514.622919 
L 842.557994 525.894437 
L 842.995298 529.926516 
L 843.432602 529.776296 
L 843.869906 531.495376 
L 844.30721 529.029172 
L 844.744514 530.60798 
L 845.181818 532.910036 
L 846.056426 526.406778 
L 847.805643 518.288898 
L 848.242947 514.514481 
L 848.680251 515.624721 
L 849.554859 510.041688 
L 849.992163 513.007301 
L 850.429467 512.095035 
L 850.866771 507.281012 
L 851.304075 507.791364 
L 851.741379 505.78776 
L 852.615987 498.932329 
L 853.053292 501.991457 
L 853.490596 496.415388 
L 853.9279 498.203113 
L 854.365204 503.14348 
L 854.802508 496.421357 
L 855.239812 492.298748 
L 855.677116 497.947439 
L 856.11442 499.315342 
L 856.551724 502.891786 
L 856.989028 507.694865 
L 857.426332 510.389882 
L 857.863636 506.501059 
L 858.30094 509.759154 
L 858.738245 512.168653 
L 859.175549 507.764504 
L 860.050157 495.664286 
L 860.487461 482.564255 
L 860.924765 455.106718 
L 861.362069 454.106906 
L 862.673981 427.47011 
L 863.548589 376.420978 
L 863.985893 372.020809 
L 864.423197 359.134668 
L 864.860502 353.37157 
L 865.297806 345.038805 
L 865.73511 340.548105 
L 866.172414 334.594992 
L 866.609718 335.211792 
L 867.047022 331.34784 
L 867.484326 336.430469 
L 867.92163 333.131585 
L 868.358934 337.034336 
L 868.796238 325.912044 
L 869.233542 329.014944 
L 869.670846 321.252221 
L 870.10815 318.380123 
L 870.545455 313.900366 
L 870.982759 311.205349 
L 871.420063 311.23022 
L 871.857367 313.460648 
L 872.294671 309.894152 
L 872.731975 309.074406 
L 873.169279 310.212501 
L 873.606583 312.52351 
L 874.043887 311.511759 
L 874.481191 313.752135 
L 874.918495 318.626843 
L 875.793103 318.229902 
L 876.230408 319.254586 
L 876.667712 316.179541 
L 877.105016 314.407734 
L 877.54232 314.257513 
L 877.979624 319.392868 
L 878.416928 319.951967 
L 878.854232 324.590898 
L 879.291536 320.156904 
L 879.72884 317.333553 
L 880.166144 316.597373 
L 880.603448 315.14093 
L 881.040752 320.031555 
L 881.478056 317.254961 
L 881.915361 317.002272 
L 882.352665 317.070916 
L 882.789969 316.833149 
L 883.227273 318.892465 
L 884.101881 315.804487 
L 884.539185 315.442366 
L 884.976489 318.948176 
L 885.413793 317.079869 
L 885.851097 318.592024 
L 886.288401 318.89346 
L 886.725705 322.006309 
L 887.600313 325.198745 
L 888.037618 342.773558 
L 888.474922 352.873156 
L 888.912226 357.902064 
L 889.34953 355.301556 
L 889.786834 356.422739 
L 890.224138 358.01448 
L 890.661442 361.682449 
L 891.098746 361.627733 
L 891.53605 365.484721 
L 891.973354 367.252549 
L 892.410658 364.967405 
L 892.847962 363.328907 
L 893.285266 363.758677 
L 893.722571 365.24795 
L 894.159875 364.495852 
L 894.597179 364.254106 
L 895.471787 366.071676 
L 895.909091 366.620826 
L 896.346395 365.997063 
L 896.783699 362.305218 
L 897.221003 364.722675 
L 897.658307 362.225631 
L 898.095611 362.203744 
L 898.532915 361.03282 
L 899.844828 355.168248 
L 900.282132 350.493503 
L 900.719436 349.627994 
L 901.15674 349.496675 
L 902.031348 344.838842 
L 902.468652 343.565449 
L 902.905956 345.573033 
L 903.780564 346.557923 
L 904.217868 344.907486 
L 904.655172 345.203948 
L 905.529781 348.950509 
L 905.967085 354.975249 
L 906.404389 356.781876 
L 906.841693 357.014668 
L 907.278997 355.686559 
L 907.716301 352.322016 
L 908.153605 353.761547 
L 908.590909 349.681715 
L 909.028213 340.828649 
L 909.465517 343.560475 
L 909.902821 339.214026 
L 910.340125 332.202406 
L 910.777429 334.91732 
L 911.214734 332.911726 
L 911.652038 329.513358 
L 912.089342 320.942826 
L 912.526646 318.734285 
L 912.96395 319.994746 
L 913.401254 318.620874 
L 913.838558 303.085479 
L 914.275862 316.779428 
L 914.713166 320.895074 
L 915.15047 319.714201 
L 915.587774 315.033487 
L 916.025078 317.159456 
L 916.462382 316.477992 
L 916.899687 316.422281 
L 917.336991 313.81282 
L 917.774295 312.653834 
L 918.211599 316.805294 
L 918.648903 317.705623 
L 919.086207 312.458845 
L 919.523511 310.131919 
L 919.960815 313.561126 
L 920.398119 310.037409 
L 920.835423 310.559699 
L 921.272727 308.600863 
L 921.710031 305.195531 
L 922.147335 305.008502 
L 922.584639 304.398666 
L 923.021944 302.192114 
L 923.459248 297.132367 
L 923.896552 299.393634 
L 924.333856 295.808237 
L 924.77116 284.328798 
L 925.208464 285.594232 
L 925.645768 286.181187 
L 926.083072 285.422125 
L 926.520376 280.064921 
L 927.394984 273.513911 
L 927.832288 273.206506 
L 928.269592 268.674023 
L 928.706897 260.583003 
L 929.144201 257.158769 
L 929.581505 252.837192 
L 930.018809 253.425141 
L 930.456113 251.054442 
L 930.893417 243.03704 
L 931.330721 240.36192 
L 931.768025 240.880231 
L 932.205329 240.501197 
L 932.642633 241.698982 
L 933.079937 237.557471 
L 933.517241 238.214064 
L 933.954545 241.233398 
L 933.954545 241.233398 
" style="fill:none;stroke:#ff0000;stroke-linecap:square;stroke-width:1.5;"/>
   </g>
   <g id="line2d_34">
    <path clip-path="url(#p7ed5b74d8e)" d="M 173.045455 467.946101 
L 174.794671 472.990926 
L 175.231975 473.630607 
L 175.669279 473.70323 
L 176.543887 477.038923 
L 177.418495 478.110364 
L 177.855799 477.838773 
L 178.293103 477.3324 
L 178.730408 476.016229 
L 179.167712 474.232484 
L 179.605016 473.02674 
L 180.04232 472.763108 
L 180.479624 473.497299 
L 180.916928 475.138782 
L 183.978056 494.769926 
L 185.289969 500.019688 
L 185.727273 499.508341 
L 186.164577 498.65278 
L 186.601881 497.395304 
L 187.039185 494.759977 
L 188.788401 479.30019 
L 189.663009 475.51881 
L 190.100313 474.714981 
L 190.537618 473.580865 
L 190.974922 472.789969 
L 191.84953 470.365548 
L 192.286834 470.181503 
L 192.724138 469.810428 
L 193.161442 467.041793 
L 194.910658 445.144407 
L 195.347962 442.530967 
L 195.785266 442.676214 
L 196.222571 442.137011 
L 196.659875 441.271502 
L 197.097179 440.860634 
L 197.534483 441.595819 
L 197.971787 441.668443 
L 198.409091 441.325223 
L 198.846395 440.334364 
L 199.283699 438.481975 
L 199.721003 438.491924 
L 200.158307 439.073904 
L 200.595611 438.692881 
L 201.470219 435.026902 
L 201.907524 434.425025 
L 202.344828 433.630149 
L 202.782132 432.409483 
L 203.219436 429.937309 
L 203.65674 425.847529 
L 204.094044 420.516191 
L 204.531348 416.856181 
L 204.968652 416.239381 
L 205.84326 417.109864 
L 206.280564 416.410493 
L 206.717868 414.675495 
L 208.029781 405.741847 
L 208.467085 408.114537 
L 208.904389 414.777964 
L 209.778997 430.706319 
L 210.216301 435.621815 
L 210.653605 437.364772 
L 211.090909 436.843477 
L 211.528213 435.906339 
L 211.965517 433.170534 
L 213.277429 419.72231 
L 213.714734 413.779146 
L 215.901254 376.250861 
L 216.338558 372.184957 
L 216.775862 370.04307 
L 217.213166 368.494107 
L 217.65047 367.456491 
L 218.087774 367.602732 
L 218.525078 368.686111 
L 218.962382 370.586252 
L 219.836991 376.802002 
L 220.274295 380.425203 
L 222.023511 401.635155 
L 222.460815 409.584908 
L 223.335423 431.952852 
L 223.772727 439.896636 
L 224.647335 448.288096 
L 225.084639 449.999218 
L 225.521944 449.245131 
L 225.959248 446.280513 
L 228.145768 424.570157 
L 229.45768 403.807882 
L 229.894984 400.595549 
L 230.769592 402.92546 
L 231.206897 401.201405 
L 231.644201 400.215521 
L 232.081505 399.863348 
L 232.518809 401.087994 
L 232.956113 403.980984 
L 233.393417 407.97327 
L 233.830721 413.000188 
L 234.268025 422.672005 
L 234.705329 429.832851 
L 235.579937 435.826752 
L 236.017241 437.295133 
L 236.454545 437.305082 
L 236.89185 436.164997 
L 237.329154 434.184274 
L 238.203762 429.652786 
L 238.641066 427.396492 
L 239.515674 421.765708 
L 240.390282 416.966608 
L 240.827586 414.170117 
L 241.26489 410.319098 
L 242.139498 398.676506 
L 243.451411 381.36632 
L 244.763323 361.833665 
L 245.637931 352.796554 
L 246.075235 348.599331 
L 246.512539 346.000813 
L 246.949843 344.812976 
L 247.824451 339.381159 
L 248.261755 339.757208 
L 248.69906 340.451605 
L 249.136364 338.770329 
L 249.573668 337.71381 
L 250.010972 337.089052 
L 250.448276 336.901027 
L 252.634796 327.387389 
L 253.0721 327.955442 
L 253.509404 329.969989 
L 254.384013 332.473997 
L 254.821317 333.650891 
L 255.258621 333.387259 
L 255.695925 332.354616 
L 256.133229 330.478351 
L 257.445141 319.297364 
L 257.882445 316.389452 
L 258.319749 314.617645 
L 258.757053 313.390014 
L 259.631661 310.145846 
L 260.068966 308.052707 
L 260.943574 301.291786 
L 261.380878 296.55735 
L 262.255486 284.494936 
L 262.69279 281.983964 
L 263.130094 280.451913 
L 263.567398 279.650074 
L 264.004702 279.155639 
L 264.442006 280.097751 
L 264.87931 281.841702 
L 265.316614 282.985766 
L 265.753918 283.184734 
L 266.191223 283.962698 
L 267.065831 286.322454 
L 267.503135 286.688554 
L 268.815047 288.940868 
L 269.689655 292.92818 
L 270.126959 294.301057 
L 270.564263 294.331897 
L 271.001567 294.759677 
L 271.438871 296.226069 
L 271.876176 296.943348 
L 272.31348 297.384061 
L 272.750784 298.023742 
L 273.188088 299.264305 
L 273.625392 299.884089 
L 274.062696 298.195849 
L 274.937304 292.426782 
L 275.374608 290.887767 
L 275.811912 290.778335 
L 276.249216 291.20711 
L 276.68652 291.839827 
L 277.123824 294.672132 
L 277.561129 298.287374 
L 277.998433 300.532724 
L 278.435737 301.829993 
L 278.873041 301.94042 
L 279.310345 303.553053 
L 279.747649 304.12807 
L 280.184953 303.486399 
L 280.622257 302.601988 
L 281.059561 302.556225 
L 281.934169 300.64912 
L 282.371473 300.612311 
L 282.808777 300.933644 
L 283.683386 302.683564 
L 284.557994 307.235944 
L 286.30721 322.206271 
L 287.181818 328.170327 
L 287.619122 329.353189 
L 288.056426 330.035648 
L 288.49373 330.959853 
L 289.805643 332.175546 
L 290.242947 332.863974 
L 290.680251 334.198052 
L 291.992163 337.026377 
L 292.429467 337.213407 
L 292.866771 336.492149 
L 293.304075 336.989568 
L 293.741379 336.79458 
L 294.178683 336.134007 
L 295.053292 335.533125 
L 295.490596 335.147128 
L 295.9279 335.337142 
L 296.365204 335.31625 
L 296.802508 335.946977 
L 297.239812 337.325823 
L 297.677116 337.753604 
L 298.11442 337.173613 
L 298.551724 336.357846 
L 298.989028 334.767099 
L 299.863636 330.675329 
L 300.738245 328.128543 
L 301.175549 327.677882 
L 301.612853 329.044789 
L 302.487461 333.052993 
L 302.924765 334.751182 
L 303.799373 339.016054 
L 304.673981 342.028424 
L 305.111285 342.509926 
L 305.548589 342.379602 
L 305.985893 342.474112 
L 306.423197 342.384576 
L 306.860502 342.166706 
L 307.297806 343.275951 
L 308.172414 347.984521 
L 308.609718 348.773428 
L 309.484326 351.148107 
L 309.92163 351.749984 
L 310.358934 351.716159 
L 310.796238 350.299509 
L 311.233542 348.330725 
L 311.670846 345.433755 
L 312.545455 337.657105 
L 312.982759 335.121262 
L 313.420063 333.673772 
L 313.857367 333.938399 
L 314.294671 334.760135 
L 314.731975 335.186921 
L 315.169279 334.726311 
L 315.606583 334.871557 
L 316.043887 336.073322 
L 316.481191 338.54848 
L 317.355799 345.881433 
L 318.230408 353.927685 
L 319.54232 363.631337 
L 319.979624 365.506608 
L 320.416928 366.165191 
L 320.854232 366.164196 
L 321.291536 366.302478 
L 321.72884 365.876687 
L 322.166144 365.700601 
L 322.603448 365.929414 
L 323.040752 365.337485 
L 323.915361 363.389592 
L 324.352665 362.138085 
L 325.227273 359.136658 
L 325.664577 358.070191 
L 326.101881 356.352106 
L 326.539185 354.170425 
L 326.976489 352.634395 
L 327.413793 351.558975 
L 327.851097 350.036872 
L 328.288401 349.741405 
L 328.725705 349.661818 
L 329.163009 348.72667 
L 329.600313 347.093146 
L 330.037618 344.374253 
L 330.912226 336.324021 
L 331.786834 327.454043 
L 332.224138 325.003756 
L 332.661442 323.548308 
L 333.098746 321.020424 
L 333.53605 317.428063 
L 333.973354 312.197203 
L 334.410658 304.208652 
L 334.847962 298.606717 
L 335.285266 296.057941 
L 335.722571 294.890996 
L 336.159875 294.827326 
L 336.597179 296.03506 
L 337.034483 298.31125 
L 337.909091 306.685799 
L 338.783699 316.269076 
L 340.532915 328.764245 
L 341.844828 332.931623 
L 342.282132 333.169389 
L 342.719436 332.08601 
L 343.15674 329.153227 
L 345.34326 304.2186 
L 346.217868 293.29826 
L 347.529781 286.035941 
L 349.278997 278.285155 
L 350.590909 268.149743 
L 351.028213 266.106345 
L 351.465517 265.944186 
L 351.902821 267.302141 
L 352.777429 268.823248 
L 354.089342 272.923972 
L 354.526646 275.400124 
L 355.401254 281.671585 
L 356.713166 288.723994 
L 357.15047 290.067025 
L 357.587774 290.173473 
L 358.025078 288.832431 
L 358.462382 286.988996 
L 358.899687 286.269728 
L 359.336991 282.504265 
L 359.774295 275.656793 
L 360.211599 271.322282 
L 361.523511 264.84688 
L 361.960815 264.446955 
L 362.398119 264.363388 
L 362.835423 265.587039 
L 363.272727 263.706795 
L 364.584639 253.258009 
L 365.021944 252.473081 
L 365.459248 252.299979 
L 365.896552 251.697107 
L 366.333856 251.569768 
L 366.77116 254.467732 
L 367.208464 258.938535 
L 368.083072 271.746083 
L 368.520376 278.353799 
L 368.95768 281.382087 
L 369.394984 282.062556 
L 369.832288 285.932477 
L 371.144201 304.762776 
L 371.581505 314.162009 
L 372.018809 318.192099 
L 372.456113 319.685351 
L 372.893417 322.626093 
L 373.330721 321.245257 
L 374.205329 304.078328 
L 374.642633 298.570903 
L 375.517241 293.57383 
L 375.954545 290.359508 
L 376.39185 289.953614 
L 376.829154 290.574393 
L 377.266458 295.632151 
L 377.703762 308.15617 
L 378.57837 339.420953 
L 379.452978 362.796668 
L 379.890282 366.233834 
L 380.327586 358.346756 
L 381.202194 349.7424 
L 381.639498 342.196552 
L 382.076803 330.703185 
L 382.951411 315.955702 
L 383.388715 312.198198 
L 384.263323 307.455804 
L 384.700627 309.174884 
L 385.575235 323.837806 
L 386.449843 338.726556 
L 387.324451 353.962504 
L 388.19906 363.396556 
L 388.636364 366.216922 
L 389.073668 365.80108 
L 389.510972 367.936003 
L 389.948276 374.057243 
L 390.38558 377.402884 
L 390.822884 378.373846 
L 391.260188 380.128741 
L 391.697492 383.651463 
L 392.134796 386.147512 
L 393.009404 387.750197 
L 393.446708 390.318869 
L 394.758621 403.621847 
L 396.070533 409.895297 
L 396.507837 414.114406 
L 398.257053 447.612601 
L 398.694357 452.647478 
L 399.568966 471.664807 
L 400.443574 492.117687 
L 401.318182 507.29494 
L 401.755486 512.201482 
L 402.19279 514.581136 
L 402.630094 512.812313 
L 403.504702 505.274423 
L 404.37931 494.457547 
L 405.253918 482.16632 
L 405.691223 476.561401 
L 406.128527 472.65865 
L 407.440439 468.6017 
L 408.315047 470.235224 
L 409.189655 473.259532 
L 410.501567 481.528628 
L 410.938871 480.939684 
L 411.376176 479.534972 
L 411.81348 480.309951 
L 412.250784 479.592673 
L 412.688088 476.341541 
L 414.437304 455.934424 
L 415.311912 446.982869 
L 415.749216 442.298175 
L 416.18652 440.08665 
L 416.623824 440.995932 
L 417.061129 442.866228 
L 417.498433 445.316515 
L 417.935737 449.278955 
L 418.810345 459.18854 
L 419.684953 464.531816 
L 420.559561 469.595543 
L 420.996865 473.89026 
L 421.871473 485.983514 
L 423.183386 506.913917 
L 424.057994 518.663952 
L 424.932602 526.537102 
L 425.80721 532.194747 
L 426.244514 534.156569 
L 427.99373 546.989983 
L 428.431034 549.06621 
L 428.868339 549.390527 
L 429.305643 549.478073 
L 430.180251 547.763967 
L 430.617555 548.212639 
L 431.054859 550.195351 
L 432.804075 562.583078 
L 433.241379 563.387902 
L 433.678683 563.016827 
L 434.115987 561.43404 
L 434.990596 554.898947 
L 435.865204 544.966481 
L 436.739812 534.851961 
L 437.177116 530.315498 
L 437.61442 526.977816 
L 438.489028 522.95071 
L 438.926332 521.950898 
L 439.363636 522.733835 
L 439.80094 524.711574 
L 440.675549 530.472682 
L 441.550157 532.275329 
L 441.987461 531.036756 
L 442.424765 526.715178 
L 442.862069 520.445707 
L 445.048589 481.67089 
L 445.923197 471.319598 
L 446.797806 462.622721 
L 448.109718 446.427749 
L 450.296238 408.217005 
L 451.60815 391.246059 
L 452.045455 385.896813 
L 453.357367 362.031637 
L 453.794671 357.435485 
L 454.669279 351.932039 
L 455.543887 340.696335 
L 456.418495 324.925164 
L 456.855799 319.460517 
L 458.167712 307.737343 
L 458.605016 308.079567 
L 459.04232 308.090511 
L 459.479624 306.127695 
L 460.354232 298.232658 
L 462.103448 277.088365 
L 462.978056 270.796013 
L 463.415361 265.848682 
L 463.852665 259.443913 
L 465.164577 233.581102 
L 466.039185 215.473055 
L 466.476489 211.299709 
L 466.913793 209.524917 
L 467.788401 204.986465 
L 468.663009 203.053494 
L 469.100313 203.267385 
L 469.537618 204.49601 
L 469.974922 204.945677 
L 470.412226 204.43234 
L 470.84953 203.238534 
L 472.161442 196.324408 
L 472.598746 195.602155 
L 473.03605 194.043244 
L 473.473354 191.786951 
L 473.910658 190.671737 
L 474.347962 190.830911 
L 474.785266 192.198814 
L 478.283699 211.345471 
L 479.158307 217.696519 
L 480.032915 223.886403 
L 480.470219 225.194615 
L 480.907524 224.670335 
L 481.344828 221.635084 
L 481.782132 215.624271 
L 482.65674 197.951964 
L 485.280564 136.077001 
L 486.155172 121.247942 
L 486.592476 117.376031 
L 487.467085 112.923135 
L 487.904389 111.6 
L 488.341693 111.819859 
L 488.778997 112.79679 
L 489.216301 114.975486 
L 490.090909 121.697609 
L 490.965517 131.887737 
L 492.714734 154.040796 
L 493.589342 167.237326 
L 496.65047 223.694399 
L 497.525078 233.676606 
L 498.399687 241.738776 
L 498.836991 243.292713 
L 499.274295 243.168359 
L 499.711599 241.266228 
L 500.586207 234.422735 
L 501.023511 229.731078 
L 502.335423 212.874538 
L 503.210031 203.810566 
L 504.084639 198.965704 
L 504.959248 191.397969 
L 505.396552 189.653023 
L 506.27116 187.430554 
L 506.708464 187.118175 
L 507.145768 187.832468 
L 508.45768 194.286979 
L 508.894984 198.297172 
L 509.769592 211.367358 
L 511.081505 238.473717 
L 512.830721 281.896418 
L 515.017241 340.654552 
L 515.89185 357.697127 
L 516.766458 368.435412 
L 518.07837 380.865916 
L 520.26489 401.312827 
L 523.326019 431.393753 
L 524.200627 435.634748 
L 524.637931 436.905157 
L 525.075235 436.998672 
L 525.512539 436.437583 
L 525.949843 436.23961 
L 526.387147 435.435781 
L 526.824451 433.298868 
L 527.261755 432.912871 
L 527.69906 432.70495 
L 528.136364 431.379825 
L 528.573668 431.369877 
L 529.010972 432.087155 
L 529.448276 432.038408 
L 529.88558 431.305212 
L 530.322884 429.700538 
L 530.760188 427.123907 
L 531.197492 422.915741 
L 531.634796 416.479137 
L 532.509404 397.599096 
L 534.258621 354.218178 
L 534.695925 346.827524 
L 535.570533 336.648338 
L 536.445141 332.153659 
L 536.882445 331.075254 
L 537.319749 328.704555 
L 538.194357 320.499129 
L 538.631661 314.595758 
L 539.943574 287.211839 
L 540.818182 266.965885 
L 541.255486 261.218705 
L 541.69279 257.698967 
L 542.130094 257.028446 
L 542.567398 259.888606 
L 545.191223 284.691914 
L 546.065831 290.678851 
L 546.503135 294.177697 
L 546.940439 296.674741 
L 547.377743 297.671569 
L 547.815047 295.619218 
L 548.689655 286.156316 
L 550.876176 256.851364 
L 551.31348 255.424766 
L 551.750784 255.416808 
L 552.188088 256.049525 
L 552.625392 255.710285 
L 553.062696 256.13906 
L 553.5 256.842411 
L 553.937304 257.017502 
L 554.811912 261.851422 
L 555.249216 264.799128 
L 556.123824 273.736755 
L 556.998433 284.156691 
L 557.873041 294.168744 
L 558.310345 297.54423 
L 559.622257 303.849515 
L 560.059561 304.936873 
L 560.934169 299.962682 
L 561.371473 299.133981 
L 561.808777 297.347252 
L 562.246082 296.34545 
L 562.683386 297.547214 
L 563.12069 299.817435 
L 563.557994 303.296385 
L 563.995298 308.483472 
L 564.432602 317.329574 
L 568.368339 432.742753 
L 570.117555 469.267246 
L 570.554859 476.702668 
L 570.992163 481.632091 
L 571.866771 487.0848 
L 572.304075 488.321384 
L 572.741379 487.719507 
L 573.178683 488.31641 
L 573.615987 487.651858 
L 575.365204 481.54753 
L 575.802508 482.239938 
L 576.239812 485.146855 
L 578.426332 505.329139 
L 579.30094 515.670484 
L 579.738245 518.917636 
L 581.050157 524.504648 
L 582.362069 528.454156 
L 583.673981 530.33241 
L 584.111285 529.584292 
L 584.548589 529.114728 
L 584.985893 529.250026 
L 585.423197 529.590261 
L 585.860502 529.77729 
L 586.297806 530.998952 
L 587.172414 534.191388 
L 587.609718 536.347203 
L 588.047022 537.745945 
L 588.484326 537.658399 
L 589.358934 535.477714 
L 589.796238 532.928938 
L 590.670846 524.713564 
L 591.982759 511.6006 
L 595.043887 468.44551 
L 595.918495 452.377877 
L 597.230408 434.228047 
L 598.54232 413.671703 
L 599.416928 402.274836 
L 600.291536 389.036523 
L 601.166144 380.075019 
L 602.915361 354.085864 
L 603.789969 337.339751 
L 604.227273 331.369727 
L 604.664577 327.600284 
L 605.101881 326.319927 
L 605.539185 326.467163 
L 606.413793 330.600717 
L 606.851097 330.004808 
L 607.725705 325.670298 
L 609.037618 314.787762 
L 609.474922 313.127377 
L 610.34953 308.411843 
L 610.786834 309.404692 
L 611.661442 307.364279 
L 612.098746 309.165931 
L 612.53605 314.680319 
L 613.847962 323.826863 
L 614.722571 341.039555 
L 615.159875 346.580804 
L 615.597179 348.032273 
L 616.034483 347.359762 
L 616.471787 340.778907 
L 617.783699 309.536011 
L 619.532915 247.954526 
L 621.719436 200.92653 
L 622.15674 188.22543 
L 622.594044 179.984189 
L 623.468652 169.837833 
L 624.34326 156.313007 
L 624.780564 152.637079 
L 625.217868 150.551898 
L 625.655172 149.447628 
L 626.092476 149.044718 
L 626.529781 150.5131 
L 626.967085 152.440101 
L 627.841693 160.35603 
L 628.716301 169.691592 
L 629.153605 172.602489 
L 629.590909 176.44157 
L 630.465517 188.860136 
L 630.902821 193.424454 
L 631.340125 200.235117 
L 632.214734 219.802592 
L 633.089342 239.819733 
L 633.96395 256.615588 
L 634.401254 262.411516 
L 635.275862 268.643183 
L 635.713166 269.370409 
L 636.15047 268.04429 
L 636.587774 264.667809 
L 637.462382 254.034977 
L 638.336991 237.877809 
L 640.086207 206.763246 
L 640.960815 196.767111 
L 642.272727 176.918098 
L 643.147335 165.806749 
L 643.584639 161.632407 
L 644.021944 160.282412 
L 644.459248 160.320216 
L 644.896552 159.815833 
L 645.333856 160.315241 
L 646.208464 162.155692 
L 646.645768 162.785425 
L 647.520376 165.452586 
L 647.95768 166.609583 
L 648.394984 166.735928 
L 648.832288 168.306777 
L 649.269592 171.126149 
L 651.456113 197.911175 
L 651.893417 197.190912 
L 652.768025 195.174375 
L 653.205329 194.80529 
L 653.642633 192.665393 
L 654.079937 194.03827 
L 654.954545 214.117091 
L 655.829154 232.442012 
L 656.266458 238.643834 
L 656.703762 242.861948 
L 657.141066 245.814628 
L 658.015674 248.388275 
L 658.452978 247.604343 
L 658.890282 245.973803 
L 659.327586 245.693258 
L 659.76489 246.447346 
L 660.202194 247.997304 
L 660.639498 248.608134 
L 661.514107 249.31049 
L 662.388715 252.545704 
L 664.575235 263.36656 
L 665.449843 267.269311 
L 665.887147 270.807951 
L 667.19906 285.202266 
L 667.636364 290.724613 
L 668.073668 294.31399 
L 668.510972 299.543855 
L 671.134796 343.019283 
L 672.884013 364.178498 
L 673.321317 368.016585 
L 673.758621 369.804309 
L 674.195925 369.396425 
L 674.633229 366.780001 
L 675.945141 352.999501 
L 676.819749 340.248658 
L 677.257053 336.20663 
L 677.694357 334.004058 
L 678.131661 330.853405 
L 678.568966 326.891959 
L 679.00627 324.010908 
L 679.443574 322.670861 
L 679.880878 317.557392 
L 680.318182 310.763641 
L 680.755486 314.70917 
L 683.37931 346.651437 
L 683.816614 350.857614 
L 684.253918 353.775474 
L 684.691223 354.48181 
L 685.128527 354.32363 
L 685.565831 353.672011 
L 686.440439 352.700054 
L 686.877743 351.396816 
L 688.626959 342.183619 
L 689.501567 335.157076 
L 690.376176 327.627145 
L 690.81348 324.629697 
L 691.250784 322.847942 
L 691.688088 321.882949 
L 692.125392 322.554464 
L 692.562696 322.942451 
L 693 322.772334 
L 693.437304 322.764375 
L 694.311912 320.106167 
L 694.749216 320.155909 
L 695.623824 319.669433 
L 696.061129 320.512061 
L 696.498433 323.577158 
L 697.810345 337.721769 
L 698.247649 340.393905 
L 698.684953 340.644604 
L 699.122257 340.268555 
L 699.996865 336.923909 
L 700.434169 336.399629 
L 700.871473 336.105157 
L 701.308777 335.372956 
L 701.746082 333.216146 
L 702.62069 327.030242 
L 703.057994 324.383972 
L 703.495298 322.513676 
L 703.932602 321.616332 
L 704.369906 323.458772 
L 705.244514 329.672532 
L 705.681818 332.938587 
L 706.556426 336.585664 
L 706.99373 337.658099 
L 707.431034 336.950769 
L 708.305643 335.193885 
L 708.742947 335.857442 
L 709.180251 337.65412 
L 710.492163 341.335022 
L 710.929467 341.054477 
L 712.678683 335.77885 
L 713.115987 333.265888 
L 713.990596 325.242517 
L 714.865204 320.76475 
L 715.302508 319.657495 
L 715.739812 320.874183 
L 716.177116 320.622488 
L 716.61442 318.693497 
L 717.051724 317.788194 
L 717.489028 316.510822 
L 717.926332 313.483529 
L 718.363636 311.646063 
L 718.80094 313.295504 
L 719.238245 316.324787 
L 719.675549 316.709789 
L 720.112853 317.325594 
L 720.987461 320.058415 
L 721.424765 319.540104 
L 722.299373 317.238049 
L 722.736677 315.732858 
L 723.611285 309.060478 
L 724.048589 305.130867 
L 724.923197 294.720879 
L 725.360502 291.26879 
L 725.797806 289.627307 
L 726.23511 288.629484 
L 726.672414 287.183984 
L 727.109718 286.325438 
L 727.547022 287.305354 
L 727.984326 290.371446 
L 728.858934 300.25218 
L 729.296238 302.914367 
L 729.733542 306.857906 
L 730.170846 311.829113 
L 730.60815 314.623614 
L 731.045455 313.16916 
L 731.482759 314.183895 
L 731.920063 315.827368 
L 732.357367 316.735655 
L 732.794671 315.613478 
L 733.231975 315.870146 
L 734.106583 318.099579 
L 734.543887 321.608373 
L 734.981191 326.406478 
L 735.418495 328.182265 
L 735.855799 327.838051 
L 736.293103 328.351387 
L 737.167712 331.252336 
L 737.605016 332.346658 
L 738.04232 335.114298 
L 738.479624 335.62465 
L 738.916928 331.616446 
L 739.354232 330.192833 
L 739.791536 331.893011 
L 740.22884 330.734025 
L 740.666144 325.289275 
L 741.540752 317.941399 
L 742.415361 306.417193 
L 743.289969 311.01832 
L 743.727273 310.176686 
L 744.164577 308.886381 
L 744.601881 307.957202 
L 745.039185 304.758797 
L 745.476489 297.711363 
L 745.913793 293.312188 
L 746.351097 291.279733 
L 746.788401 290.207297 
L 748.537618 301.972255 
L 749.412226 313.01695 
L 749.84953 313.78596 
L 750.286834 309.851374 
L 750.724138 307.196151 
L 751.161442 305.306953 
L 751.598746 301.447975 
L 752.03605 299.064343 
L 752.473354 299.497097 
L 752.910658 296.679715 
L 754.222571 274.031227 
L 754.659875 269.348523 
L 755.097179 266.928081 
L 755.971787 271.809753 
L 756.409091 275.043972 
L 756.846395 279.545616 
L 757.721003 291.876636 
L 758.158307 296.09475 
L 758.595611 299.086229 
L 759.032915 299.713972 
L 759.470219 295.353596 
L 760.344828 281.463664 
L 760.782132 277.380847 
L 761.219436 278.248346 
L 762.094044 281.128403 
L 762.531348 280.955301 
L 762.968652 279.05715 
L 763.405956 279.831134 
L 763.84326 281.206995 
L 764.280564 279.846057 
L 765.155172 275.990063 
L 765.592476 272.080349 
L 766.029781 271.233742 
L 766.467085 273.027435 
L 766.904389 273.727801 
L 767.341693 271.828655 
L 767.778997 268.699888 
L 768.216301 267.618499 
L 768.653605 266.84352 
L 769.090909 264.184317 
L 769.528213 259.384223 
L 769.965517 256.69617 
L 770.402821 256.032613 
L 771.277429 253.913607 
L 771.714734 255.61876 
L 772.152038 258.167536 
L 772.589342 258.839051 
L 773.026646 259.084776 
L 773.46395 257.700956 
L 774.338558 252.955578 
L 774.775862 253.572377 
L 776.087774 264.133581 
L 776.525078 266.880329 
L 776.962382 268.140789 
L 777.399687 268.250222 
L 777.836991 267.970672 
L 778.711599 269.636031 
L 779.148903 269.182385 
L 779.586207 269.973281 
L 780.460815 272.692175 
L 780.898119 274.382405 
L 781.335423 277.107267 
L 782.210031 284.108939 
L 782.647335 286.437855 
L 783.084639 287.598831 
L 783.521944 287.338184 
L 783.959248 285.39029 
L 784.396552 285.162472 
L 785.708464 293.128143 
L 786.583072 296.723488 
L 787.020376 297.221902 
L 787.45768 295.976365 
L 787.894984 295.468002 
L 788.332288 295.822165 
L 789.206897 293.773793 
L 789.644201 293.774788 
L 790.081505 294.345825 
L 790.518809 295.2372 
L 791.393417 300.137773 
L 791.830721 301.089834 
L 792.705329 300.12683 
L 793.142633 300.945582 
L 794.017241 305.302974 
L 794.454545 308.204917 
L 795.329154 317.493722 
L 796.641066 331.276212 
L 797.515674 338.889709 
L 798.390282 345.674506 
L 799.702194 358.831243 
L 800.139498 358.414405 
L 801.888715 344.458814 
L 802.326019 341.235538 
L 802.763323 339.276701 
L 803.200627 338.602201 
L 803.637931 337.310901 
L 804.512539 333.905569 
L 804.949843 333.086817 
L 805.387147 333.071895 
L 805.824451 332.878896 
L 806.261755 333.842895 
L 807.136364 337.492956 
L 807.573668 339.042914 
L 808.010972 339.555256 
L 808.448276 341.652375 
L 809.760188 350.747187 
L 811.509404 372.451574 
L 812.384013 380.476934 
L 812.821317 382.864546 
L 813.258621 383.840482 
L 813.695925 385.123824 
L 814.570533 389.696101 
L 815.445141 395.185618 
L 815.882445 399.025694 
L 816.757053 412.470934 
L 817.631661 425.654531 
L 818.50627 435.028892 
L 818.943574 438.188498 
L 819.380878 439.846894 
L 819.818182 439.830976 
L 820.255486 439.389268 
L 820.69279 439.19428 
L 821.130094 438.200436 
L 822.442006 427.466131 
L 823.316614 418.506617 
L 824.191223 409.768953 
L 825.503135 399.598721 
L 825.940439 397.398139 
L 826.377743 396.365496 
L 826.815047 395.851165 
L 827.252351 394.640447 
L 827.689655 394.167899 
L 828.126959 394.727993 
L 828.564263 395.738748 
L 829.001567 397.102672 
L 829.438871 398.063685 
L 829.876176 398.534244 
L 830.31348 398.233803 
L 831.625392 394.786688 
L 832.937304 392.96315 
L 833.811912 393.009907 
L 834.249216 393.60681 
L 835.123824 398.318364 
L 835.561129 399.531072 
L 835.998433 400.21751 
L 836.435737 401.241199 
L 836.873041 401.433203 
L 837.747649 400.018543 
L 838.184953 398.923226 
L 839.059561 395.923788 
L 839.496865 395.027439 
L 839.934169 393.393915 
L 840.371473 389.773698 
L 841.246082 381.068863 
L 842.557994 372.274492 
L 842.995298 370.656885 
L 843.432602 370.519598 
L 843.869906 370.782235 
L 844.30721 371.800949 
L 845.181818 376.111584 
L 846.931034 385.493904 
L 847.368339 387.078681 
L 847.805643 392.510498 
L 848.242947 403.287581 
L 848.680251 419.75116 
L 849.554859 466.716481 
L 851.741379 595.199846 
L 852.178683 608.899764 
L 852.615987 615.125462 
L 853.053292 615.6 
L 853.490596 610.444748 
L 853.9279 602.296028 
L 854.365204 591.2384 
L 855.677116 546.138401 
L 856.551724 517.653196 
L 857.426332 494.80773 
L 858.30094 480.158736 
L 858.738245 475.727726 
L 859.612853 473.188899 
L 860.050157 472.548223 
L 860.487461 473.124234 
L 860.924765 473.418707 
L 861.362069 472.772062 
L 861.799373 472.806881 
L 862.236677 472.592991 
L 862.673981 472.249772 
L 863.548589 475.42629 
L 863.985893 474.552822 
L 864.423197 474.87117 
L 864.860502 476.892682 
L 865.297806 479.839393 
L 865.73511 484.298258 
L 866.609718 494.842549 
L 867.92163 504.462635 
L 868.358934 503.777192 
L 868.796238 499.848575 
L 869.233542 491.724726 
L 869.670846 476.613132 
L 870.545455 439.211192 
L 871.857367 386.817039 
L 873.169279 313.562121 
L 874.043887 278.057337 
L 874.481191 266.60078 
L 874.918495 259.532454 
L 875.355799 256.405677 
L 875.793103 257.639276 
L 876.230408 262.285171 
L 877.105016 280.913518 
L 877.979624 300.296947 
L 878.416928 307.967151 
L 878.854232 312.399155 
L 879.291536 314.881277 
L 879.72884 315.11009 
L 880.166144 314.630577 
L 881.040752 314.805669 
L 881.915361 313.638724 
L 882.352665 313.880469 
L 882.789969 314.960864 
L 883.227273 315.626411 
L 883.664577 317.620067 
L 884.101881 320.67621 
L 884.976489 324.506337 
L 885.413793 325.276342 
L 885.851097 324.9182 
L 886.288401 323.490607 
L 886.725705 322.764375 
L 887.163009 322.975281 
L 887.600313 322.79621 
L 888.037618 322.945436 
L 888.474922 322.069978 
L 888.912226 320.30812 
L 889.34953 317.726514 
L 889.786834 315.975599 
L 890.224138 315.366758 
L 891.53605 311.828118 
L 891.973354 311.2342 
L 892.410658 311.16854 
L 892.847962 310.585565 
L 893.285266 310.354762 
L 893.722571 311.159587 
L 895.034483 317.160451 
L 895.471787 319.498321 
L 896.346395 325.525052 
L 896.783699 331.733837 
L 898.532915 376.291649 
L 899.407524 386.247991 
L 899.844828 389.160878 
L 900.719436 391.397274 
L 901.15674 390.388508 
L 901.594044 386.918512 
L 902.468652 377.604836 
L 903.780564 365.685678 
L 904.217868 363.165753 
L 905.092476 359.773355 
L 908.153605 344.809992 
L 909.028213 339.861666 
L 909.902821 332.79334 
L 911.652038 321.794408 
L 912.089342 320.960733 
L 912.526646 320.836379 
L 912.96395 320.957749 
L 913.401254 321.651151 
L 913.838558 322.925539 
L 914.275862 325.547933 
L 914.713166 329.691434 
L 915.587774 340.656542 
L 916.025078 344.600081 
L 916.462382 346.155013 
L 916.899687 346.149044 
L 917.336991 344.847796 
L 917.774295 340.609785 
L 919.086207 324.331246 
L 919.523511 318.528354 
L 920.398119 311.011356 
L 921.710031 293.455444 
L 922.147335 290.380399 
L 923.021944 280.330543 
L 923.459248 283.000689 
L 924.333856 292.00696 
L 925.645768 302.138393 
L 926.083072 304.298187 
L 926.520376 305.51189 
L 926.95768 307.145414 
L 927.394984 309.500196 
L 927.832288 310.726832 
L 929.144201 306.778319 
L 930.018809 302.471664 
L 932.642633 280.746385 
L 933.079937 278.80844 
L 933.517241 274.50477 
L 933.954545 268.940639 
L 933.954545 268.940639 
" style="fill:none;stroke:#0000ff;stroke-linecap:square;stroke-width:1.5;"/>
   </g>
   <g id="patch_3">
    <path d="M 135 640.8 
L 135 86.4 
" style="fill:none;stroke:#000000;stroke-linecap:square;stroke-linejoin:miter;stroke-width:0.8;"/>
   </g>
   <g id="patch_4">
    <path d="M 972 640.8 
L 972 86.4 
" style="fill:none;stroke:#000000;stroke-linecap:square;stroke-linejoin:miter;stroke-width:0.8;"/>
   </g>
   <g id="patch_5">
    <path d="M 135 640.8 
L 972 640.8 
" style="fill:none;stroke:#000000;stroke-linecap:square;stroke-linejoin:miter;stroke-width:0.8;"/>
   </g>
   <g id="patch_6">
    <path d="M 135 86.4 
L 972 86.4 
" style="fill:none;stroke:#000000;stroke-linecap:square;stroke-linejoin:miter;stroke-width:0.8;"/>
   </g>
   <g id="text_17">
    <!-- Evaluation Preds N:20 -->
    <defs>
     <path d="M 9.8125 72.90625 
L 55.90625 72.90625 
L 55.90625 64.59375 
L 19.671875 64.59375 
L 19.671875 43.015625 
L 54.390625 43.015625 
L 54.390625 34.71875 
L 19.671875 34.71875 
L 19.671875 8.296875 
L 56.78125 8.296875 
L 56.78125 0 
L 9.8125 0 
z
" id="DejaVuSans-69"/>
     <path d="M 2.984375 54.6875 
L 12.5 54.6875 
L 29.59375 8.796875 
L 46.6875 54.6875 
L 56.203125 54.6875 
L 35.6875 0 
L 23.484375 0 
z
" id="DejaVuSans-118"/>
     <path d="M 34.28125 27.484375 
Q 23.390625 27.484375 19.1875 25 
Q 14.984375 22.515625 14.984375 16.5 
Q 14.984375 11.71875 18.140625 8.90625 
Q 21.296875 6.109375 26.703125 6.109375 
Q 34.1875 6.109375 38.703125 11.40625 
Q 43.21875 16.703125 43.21875 25.484375 
L 43.21875 27.484375 
z
M 52.203125 31.203125 
L 52.203125 0 
L 43.21875 0 
L 43.21875 8.296875 
Q 40.140625 3.328125 35.546875 0.953125 
Q 30.953125 -1.421875 24.3125 -1.421875 
Q 15.921875 -1.421875 10.953125 3.296875 
Q 6 8.015625 6 15.921875 
Q 6 25.140625 12.171875 29.828125 
Q 18.359375 34.515625 30.609375 34.515625 
L 43.21875 34.515625 
L 43.21875 35.40625 
Q 43.21875 41.609375 39.140625 45 
Q 35.0625 48.390625 27.6875 48.390625 
Q 23 48.390625 18.546875 47.265625 
Q 14.109375 46.140625 10.015625 43.890625 
L 10.015625 52.203125 
Q 14.9375 54.109375 19.578125 55.046875 
Q 24.21875 56 28.609375 56 
Q 40.484375 56 46.34375 49.84375 
Q 52.203125 43.703125 52.203125 31.203125 
z
" id="DejaVuSans-97"/>
     <path d="M 9.421875 75.984375 
L 18.40625 75.984375 
L 18.40625 0 
L 9.421875 0 
z
" id="DejaVuSans-108"/>
     <path d="M 8.5 21.578125 
L 8.5 54.6875 
L 17.484375 54.6875 
L 17.484375 21.921875 
Q 17.484375 14.15625 20.5 10.265625 
Q 23.53125 6.390625 29.59375 6.390625 
Q 36.859375 6.390625 41.078125 11.03125 
Q 45.3125 15.671875 45.3125 23.6875 
L 45.3125 54.6875 
L 54.296875 54.6875 
L 54.296875 0 
L 45.3125 0 
L 45.3125 8.40625 
Q 42.046875 3.421875 37.71875 1 
Q 33.40625 -1.421875 27.6875 -1.421875 
Q 18.265625 -1.421875 13.375 4.4375 
Q 8.5 10.296875 8.5 21.578125 
z
M 31.109375 56 
z
" id="DejaVuSans-117"/>
     <path d="M 18.3125 70.21875 
L 18.3125 54.6875 
L 36.8125 54.6875 
L 36.8125 47.703125 
L 18.3125 47.703125 
L 18.3125 18.015625 
Q 18.3125 11.328125 20.140625 9.421875 
Q 21.96875 7.515625 27.59375 7.515625 
L 36.8125 7.515625 
L 36.8125 0 
L 27.59375 0 
Q 17.1875 0 13.234375 3.875 
Q 9.28125 7.765625 9.28125 18.015625 
L 9.28125 47.703125 
L 2.6875 47.703125 
L 2.6875 54.6875 
L 9.28125 54.6875 
L 9.28125 70.21875 
z
" id="DejaVuSans-116"/>
     <path d="M 9.421875 54.6875 
L 18.40625 54.6875 
L 18.40625 0 
L 9.421875 0 
z
M 9.421875 75.984375 
L 18.40625 75.984375 
L 18.40625 64.59375 
L 9.421875 64.59375 
z
" id="DejaVuSans-105"/>
     <path d="M 30.609375 48.390625 
Q 23.390625 48.390625 19.1875 42.75 
Q 14.984375 37.109375 14.984375 27.296875 
Q 14.984375 17.484375 19.15625 11.84375 
Q 23.34375 6.203125 30.609375 6.203125 
Q 37.796875 6.203125 41.984375 11.859375 
Q 46.1875 17.53125 46.1875 27.296875 
Q 46.1875 37.015625 41.984375 42.703125 
Q 37.796875 48.390625 30.609375 48.390625 
z
M 30.609375 56 
Q 42.328125 56 49.015625 48.375 
Q 55.71875 40.765625 55.71875 27.296875 
Q 55.71875 13.875 49.015625 6.21875 
Q 42.328125 -1.421875 30.609375 -1.421875 
Q 18.84375 -1.421875 12.171875 6.21875 
Q 5.515625 13.875 5.515625 27.296875 
Q 5.515625 40.765625 12.171875 48.375 
Q 18.84375 56 30.609375 56 
z
" id="DejaVuSans-111"/>
     <path d="M 54.890625 33.015625 
L 54.890625 0 
L 45.90625 0 
L 45.90625 32.71875 
Q 45.90625 40.484375 42.875 44.328125 
Q 39.84375 48.1875 33.796875 48.1875 
Q 26.515625 48.1875 22.3125 43.546875 
Q 18.109375 38.921875 18.109375 30.90625 
L 18.109375 0 
L 9.078125 0 
L 9.078125 54.6875 
L 18.109375 54.6875 
L 18.109375 46.1875 
Q 21.34375 51.125 25.703125 53.5625 
Q 30.078125 56 35.796875 56 
Q 45.21875 56 50.046875 50.171875 
Q 54.890625 44.34375 54.890625 33.015625 
z
" id="DejaVuSans-110"/>
     <path id="DejaVuSans-32"/>
     <path d="M 19.671875 64.796875 
L 19.671875 37.40625 
L 32.078125 37.40625 
Q 38.96875 37.40625 42.71875 40.96875 
Q 46.484375 44.53125 46.484375 51.125 
Q 46.484375 57.671875 42.71875 61.234375 
Q 38.96875 64.796875 32.078125 64.796875 
z
M 9.8125 72.90625 
L 32.078125 72.90625 
Q 44.34375 72.90625 50.609375 67.359375 
Q 56.890625 61.8125 56.890625 51.125 
Q 56.890625 40.328125 50.609375 34.8125 
Q 44.34375 29.296875 32.078125 29.296875 
L 19.671875 29.296875 
L 19.671875 0 
L 9.8125 0 
z
" id="DejaVuSans-80"/>
     <path d="M 41.109375 46.296875 
Q 39.59375 47.171875 37.8125 47.578125 
Q 36.03125 48 33.890625 48 
Q 26.265625 48 22.1875 43.046875 
Q 18.109375 38.09375 18.109375 28.8125 
L 18.109375 0 
L 9.078125 0 
L 9.078125 54.6875 
L 18.109375 54.6875 
L 18.109375 46.1875 
Q 20.953125 51.171875 25.484375 53.578125 
Q 30.03125 56 36.53125 56 
Q 37.453125 56 38.578125 55.875 
Q 39.703125 55.765625 41.0625 55.515625 
z
" id="DejaVuSans-114"/>
     <path d="M 56.203125 29.59375 
L 56.203125 25.203125 
L 14.890625 25.203125 
Q 15.484375 15.921875 20.484375 11.0625 
Q 25.484375 6.203125 34.421875 6.203125 
Q 39.59375 6.203125 44.453125 7.46875 
Q 49.3125 8.734375 54.109375 11.28125 
L 54.109375 2.78125 
Q 49.265625 0.734375 44.1875 -0.34375 
Q 39.109375 -1.421875 33.890625 -1.421875 
Q 20.796875 -1.421875 13.15625 6.1875 
Q 5.515625 13.8125 5.515625 26.8125 
Q 5.515625 40.234375 12.765625 48.109375 
Q 20.015625 56 32.328125 56 
Q 43.359375 56 49.78125 48.890625 
Q 56.203125 41.796875 56.203125 29.59375 
z
M 47.21875 32.234375 
Q 47.125 39.59375 43.09375 43.984375 
Q 39.0625 48.390625 32.421875 48.390625 
Q 24.90625 48.390625 20.390625 44.140625 
Q 15.875 39.890625 15.1875 32.171875 
z
" id="DejaVuSans-101"/>
     <path d="M 45.40625 46.390625 
L 45.40625 75.984375 
L 54.390625 75.984375 
L 54.390625 0 
L 45.40625 0 
L 45.40625 8.203125 
Q 42.578125 3.328125 38.25 0.953125 
Q 33.9375 -1.421875 27.875 -1.421875 
Q 17.96875 -1.421875 11.734375 6.484375 
Q 5.515625 14.40625 5.515625 27.296875 
Q 5.515625 40.1875 11.734375 48.09375 
Q 17.96875 56 27.875 56 
Q 33.9375 56 38.25 53.625 
Q 42.578125 51.265625 45.40625 46.390625 
z
M 14.796875 27.296875 
Q 14.796875 17.390625 18.875 11.75 
Q 22.953125 6.109375 30.078125 6.109375 
Q 37.203125 6.109375 41.296875 11.75 
Q 45.40625 17.390625 45.40625 27.296875 
Q 45.40625 37.203125 41.296875 42.84375 
Q 37.203125 48.484375 30.078125 48.484375 
Q 22.953125 48.484375 18.875 42.84375 
Q 14.796875 37.203125 14.796875 27.296875 
z
" id="DejaVuSans-100"/>
     <path d="M 44.28125 53.078125 
L 44.28125 44.578125 
Q 40.484375 46.53125 36.375 47.5 
Q 32.28125 48.484375 27.875 48.484375 
Q 21.1875 48.484375 17.84375 46.4375 
Q 14.5 44.390625 14.5 40.28125 
Q 14.5 37.15625 16.890625 35.375 
Q 19.28125 33.59375 26.515625 31.984375 
L 29.59375 31.296875 
Q 39.15625 29.25 43.1875 25.515625 
Q 47.21875 21.78125 47.21875 15.09375 
Q 47.21875 7.46875 41.1875 3.015625 
Q 35.15625 -1.421875 24.609375 -1.421875 
Q 20.21875 -1.421875 15.453125 -0.5625 
Q 10.6875 0.296875 5.421875 2 
L 5.421875 11.28125 
Q 10.40625 8.6875 15.234375 7.390625 
Q 20.0625 6.109375 24.8125 6.109375 
Q 31.15625 6.109375 34.5625 8.28125 
Q 37.984375 10.453125 37.984375 14.40625 
Q 37.984375 18.0625 35.515625 20.015625 
Q 33.0625 21.96875 24.703125 23.78125 
L 21.578125 24.515625 
Q 13.234375 26.265625 9.515625 29.90625 
Q 5.8125 33.546875 5.8125 39.890625 
Q 5.8125 47.609375 11.28125 51.796875 
Q 16.75 56 26.8125 56 
Q 31.78125 56 36.171875 55.265625 
Q 40.578125 54.546875 44.28125 53.078125 
z
" id="DejaVuSans-115"/>
     <path d="M 9.8125 72.90625 
L 23.09375 72.90625 
L 55.421875 11.921875 
L 55.421875 72.90625 
L 64.984375 72.90625 
L 64.984375 0 
L 51.703125 0 
L 19.390625 60.984375 
L 19.390625 0 
L 9.8125 0 
z
" id="DejaVuSans-78"/>
     <path d="M 11.71875 12.40625 
L 22.015625 12.40625 
L 22.015625 0 
L 11.71875 0 
z
M 11.71875 51.703125 
L 22.015625 51.703125 
L 22.015625 39.3125 
L 11.71875 39.3125 
z
" id="DejaVuSans-58"/>
    </defs>
    <g transform="translate(374.421656 80.4)scale(0.324 -0.324)">
     <use xlink:href="#DejaVuSans-69"/>
     <use x="63.183594" xlink:href="#DejaVuSans-118"/>
     <use x="122.363281" xlink:href="#DejaVuSans-97"/>
     <use x="183.642578" xlink:href="#DejaVuSans-108"/>
     <use x="211.425781" xlink:href="#DejaVuSans-117"/>
     <use x="274.804688" xlink:href="#DejaVuSans-97"/>
     <use x="336.083984" xlink:href="#DejaVuSans-116"/>
     <use x="375.292969" xlink:href="#DejaVuSans-105"/>
     <use x="403.076172" xlink:href="#DejaVuSans-111"/>
     <use x="464.257812" xlink:href="#DejaVuSans-110"/>
     <use x="527.636719" xlink:href="#DejaVuSans-32"/>
     <use x="559.423828" xlink:href="#DejaVuSans-80"/>
     <use x="619.710938" xlink:href="#DejaVuSans-114"/>
     <use x="660.792969" xlink:href="#DejaVuSans-101"/>
     <use x="722.316406" xlink:href="#DejaVuSans-100"/>
     <use x="785.792969" xlink:href="#DejaVuSans-115"/>
     <use x="837.892578" xlink:href="#DejaVuSans-32"/>
     <use x="869.679688" xlink:href="#DejaVuSans-78"/>
     <use x="944.484375" xlink:href="#DejaVuSans-58"/>
     <use x="978.175781" xlink:href="#DejaVuSans-50"/>
     <use x="1041.798828" xlink:href="#DejaVuSans-48"/>
    </g>
   </g>
   <g id="legend_1">
    <g id="patch_7">
     <path d="M 805.57875 187.261875 
L 953.1 187.261875 
Q 958.5 187.261875 958.5 181.861875 
L 958.5 105.3 
Q 958.5 99.9 953.1 99.9 
L 805.57875 99.9 
Q 800.17875 99.9 800.17875 105.3 
L 800.17875 181.861875 
Q 800.17875 187.261875 805.57875 187.261875 
z
" style="fill:#ffffff;opacity:0.8;stroke:#cccccc;stroke-linejoin:miter;"/>
    </g>
    <g id="line2d_35">
     <path d="M 810.97875 121.765781 
L 864.97875 121.765781 
" style="fill:none;stroke:#ff0000;stroke-linecap:square;stroke-width:1.5;"/>
    </g>
    <g id="line2d_36"/>
    <g id="text_18">
     <!-- Real -->
     <defs>
      <path d="M 44.390625 34.1875 
Q 47.5625 33.109375 50.5625 29.59375 
Q 53.5625 26.078125 56.59375 19.921875 
L 66.609375 0 
L 56 0 
L 46.6875 18.703125 
Q 43.0625 26.03125 39.671875 28.421875 
Q 36.28125 30.8125 30.421875 30.8125 
L 19.671875 30.8125 
L 19.671875 0 
L 9.8125 0 
L 9.8125 72.90625 
L 32.078125 72.90625 
Q 44.578125 72.90625 50.734375 67.671875 
Q 56.890625 62.453125 56.890625 51.90625 
Q 56.890625 45.015625 53.6875 40.46875 
Q 50.484375 35.9375 44.390625 34.1875 
z
M 19.671875 64.796875 
L 19.671875 38.921875 
L 32.078125 38.921875 
Q 39.203125 38.921875 42.84375 42.21875 
Q 46.484375 45.515625 46.484375 51.90625 
Q 46.484375 58.296875 42.84375 61.546875 
Q 39.203125 64.796875 32.078125 64.796875 
z
" id="DejaVuSans-82"/>
     </defs>
     <g transform="translate(886.57875 131.215781)scale(0.27 -0.27)">
      <use xlink:href="#DejaVuSans-82"/>
      <use x="69.419922" xlink:href="#DejaVuSans-101"/>
      <use x="130.943359" xlink:href="#DejaVuSans-97"/>
      <use x="192.222656" xlink:href="#DejaVuSans-108"/>
     </g>
    </g>
    <g id="line2d_37">
     <path d="M 810.97875 161.396719 
L 864.97875 161.396719 
" style="fill:none;stroke:#0000ff;stroke-linecap:square;stroke-width:1.5;"/>
    </g>
    <g id="line2d_38"/>
    <g id="text_19">
     <!-- Pred -->
     <g transform="translate(886.57875 170.846719)scale(0.27 -0.27)">
      <use xlink:href="#DejaVuSans-80"/>
      <use x="60.287109" xlink:href="#DejaVuSans-114"/>
      <use x="101.369141" xlink:href="#DejaVuSans-101"/>
      <use x="162.892578" xlink:href="#DejaVuSans-100"/>
     </g>
    </g>
   </g>
  </g>
 </g>
 <defs>
  <clipPath id="p7ed5b74d8e">
   <rect height="554.4" width="837" x="135" y="86.4"/>
  </clipPath>
 </defs>
</svg>
