<?xml version="1.0" encoding="utf-8" standalone="no"?>
<!DOCTYPE svg PUBLIC "-//W3C//DTD SVG 1.1//EN"
  "http://www.w3.org/Graphics/SVG/1.1/DTD/svg11.dtd">
<!-- Created with matplotlib (https://matplotlib.org/) -->
<svg height="720pt" version="1.1" viewBox="0 0 1080 720" width="1080pt" xmlns="http://www.w3.org/2000/svg" xmlns:xlink="http://www.w3.org/1999/xlink">
 <defs>
  <style type="text/css">
*{stroke-linecap:butt;stroke-linejoin:round;}
  </style>
 </defs>
 <g id="figure_1">
  <g id="patch_1">
   <path d="M 0 720 
L 1080 720 
L 1080 0 
L 0 0 
z
" style="fill:#ffffff;"/>
  </g>
  <g id="axes_1">
   <g id="patch_2">
    <path d="M 135 640.8 
L 972 640.8 
L 972 86.4 
L 135 86.4 
z
" style="fill:#ffffff;"/>
   </g>
   <g id="matplotlib.axis_1">
    <g id="xtick_1">
     <g id="line2d_1">
      <path clip-path="url(#pbeef1bce69)" d="M 173.045455 640.8 
L 173.045455 86.4 
" style="fill:none;stroke:#b0b0b0;stroke-linecap:square;stroke-width:0.8;"/>
     </g>
     <g id="line2d_2">
      <defs>
       <path d="M 0 0 
L 0 3.5 
" id="m41f9e35b06" style="stroke:#000000;stroke-width:0.8;"/>
      </defs>
      <g>
       <use style="stroke:#000000;stroke-width:0.8;" x="173.045455" xlink:href="#m41f9e35b06" y="640.8"/>
      </g>
     </g>
     <g id="text_1">
      <!-- 0 -->
      <defs>
       <path d="M 31.78125 66.40625 
Q 24.171875 66.40625 20.328125 58.90625 
Q 16.5 51.421875 16.5 36.375 
Q 16.5 21.390625 20.328125 13.890625 
Q 24.171875 6.390625 31.78125 6.390625 
Q 39.453125 6.390625 43.28125 13.890625 
Q 47.125 21.390625 47.125 36.375 
Q 47.125 51.421875 43.28125 58.90625 
Q 39.453125 66.40625 31.78125 66.40625 
z
M 31.78125 74.21875 
Q 44.046875 74.21875 50.515625 64.515625 
Q 56.984375 54.828125 56.984375 36.375 
Q 56.984375 17.96875 50.515625 8.265625 
Q 44.046875 -1.421875 31.78125 -1.421875 
Q 19.53125 -1.421875 13.0625 8.265625 
Q 6.59375 17.96875 6.59375 36.375 
Q 6.59375 54.828125 13.0625 64.515625 
Q 19.53125 74.21875 31.78125 74.21875 
z
" id="DejaVuSans-48"/>
      </defs>
      <g transform="translate(164.45608 668.315781)scale(0.27 -0.27)">
       <use xlink:href="#DejaVuSans-48"/>
      </g>
     </g>
    </g>
    <g id="xtick_2">
     <g id="line2d_3">
      <path clip-path="url(#pbeef1bce69)" d="M 282.371473 640.8 
L 282.371473 86.4 
" style="fill:none;stroke:#b0b0b0;stroke-linecap:square;stroke-width:0.8;"/>
     </g>
     <g id="line2d_4">
      <g>
       <use style="stroke:#000000;stroke-width:0.8;" x="282.371473" xlink:href="#m41f9e35b06" y="640.8"/>
      </g>
     </g>
     <g id="text_2">
      <!-- 250 -->
      <defs>
       <path d="M 19.1875 8.296875 
L 53.609375 8.296875 
L 53.609375 0 
L 7.328125 0 
L 7.328125 8.296875 
Q 12.9375 14.109375 22.625 23.890625 
Q 32.328125 33.6875 34.8125 36.53125 
Q 39.546875 41.84375 41.421875 45.53125 
Q 43.3125 49.21875 43.3125 52.78125 
Q 43.3125 58.59375 39.234375 62.25 
Q 35.15625 65.921875 28.609375 65.921875 
Q 23.96875 65.921875 18.8125 64.3125 
Q 13.671875 62.703125 7.8125 59.421875 
L 7.8125 69.390625 
Q 13.765625 71.78125 18.9375 73 
Q 24.125 74.21875 28.421875 74.21875 
Q 39.75 74.21875 46.484375 68.546875 
Q 53.21875 62.890625 53.21875 53.421875 
Q 53.21875 48.921875 51.53125 44.890625 
Q 49.859375 40.875 45.40625 35.40625 
Q 44.1875 33.984375 37.640625 27.21875 
Q 31.109375 20.453125 19.1875 8.296875 
z
" id="DejaVuSans-50"/>
       <path d="M 10.796875 72.90625 
L 49.515625 72.90625 
L 49.515625 64.59375 
L 19.828125 64.59375 
L 19.828125 46.734375 
Q 21.96875 47.46875 24.109375 47.828125 
Q 26.265625 48.1875 28.421875 48.1875 
Q 40.625 48.1875 47.75 41.5 
Q 54.890625 34.8125 54.890625 23.390625 
Q 54.890625 11.625 47.5625 5.09375 
Q 40.234375 -1.421875 26.90625 -1.421875 
Q 22.3125 -1.421875 17.546875 -0.640625 
Q 12.796875 0.140625 7.71875 1.703125 
L 7.71875 11.625 
Q 12.109375 9.234375 16.796875 8.0625 
Q 21.484375 6.890625 26.703125 6.890625 
Q 35.15625 6.890625 40.078125 11.328125 
Q 45.015625 15.765625 45.015625 23.390625 
Q 45.015625 31 40.078125 35.4375 
Q 35.15625 39.890625 26.703125 39.890625 
Q 22.75 39.890625 18.8125 39.015625 
Q 14.890625 38.140625 10.796875 36.28125 
z
" id="DejaVuSans-53"/>
      </defs>
      <g transform="translate(256.603348 668.315781)scale(0.27 -0.27)">
       <use xlink:href="#DejaVuSans-50"/>
       <use x="63.623047" xlink:href="#DejaVuSans-53"/>
       <use x="127.246094" xlink:href="#DejaVuSans-48"/>
      </g>
     </g>
    </g>
    <g id="xtick_3">
     <g id="line2d_5">
      <path clip-path="url(#pbeef1bce69)" d="M 391.697492 640.8 
L 391.697492 86.4 
" style="fill:none;stroke:#b0b0b0;stroke-linecap:square;stroke-width:0.8;"/>
     </g>
     <g id="line2d_6">
      <g>
       <use style="stroke:#000000;stroke-width:0.8;" x="391.697492" xlink:href="#m41f9e35b06" y="640.8"/>
      </g>
     </g>
     <g id="text_3">
      <!-- 500 -->
      <g transform="translate(365.929367 668.315781)scale(0.27 -0.27)">
       <use xlink:href="#DejaVuSans-53"/>
       <use x="63.623047" xlink:href="#DejaVuSans-48"/>
       <use x="127.246094" xlink:href="#DejaVuSans-48"/>
      </g>
     </g>
    </g>
    <g id="xtick_4">
     <g id="line2d_7">
      <path clip-path="url(#pbeef1bce69)" d="M 501.023511 640.8 
L 501.023511 86.4 
" style="fill:none;stroke:#b0b0b0;stroke-linecap:square;stroke-width:0.8;"/>
     </g>
     <g id="line2d_8">
      <g>
       <use style="stroke:#000000;stroke-width:0.8;" x="501.023511" xlink:href="#m41f9e35b06" y="640.8"/>
      </g>
     </g>
     <g id="text_4">
      <!-- 750 -->
      <defs>
       <path d="M 8.203125 72.90625 
L 55.078125 72.90625 
L 55.078125 68.703125 
L 28.609375 0 
L 18.3125 0 
L 43.21875 64.59375 
L 8.203125 64.59375 
z
" id="DejaVuSans-55"/>
      </defs>
      <g transform="translate(475.255386 668.315781)scale(0.27 -0.27)">
       <use xlink:href="#DejaVuSans-55"/>
       <use x="63.623047" xlink:href="#DejaVuSans-53"/>
       <use x="127.246094" xlink:href="#DejaVuSans-48"/>
      </g>
     </g>
    </g>
    <g id="xtick_5">
     <g id="line2d_9">
      <path clip-path="url(#pbeef1bce69)" d="M 610.34953 640.8 
L 610.34953 86.4 
" style="fill:none;stroke:#b0b0b0;stroke-linecap:square;stroke-width:0.8;"/>
     </g>
     <g id="line2d_10">
      <g>
       <use style="stroke:#000000;stroke-width:0.8;" x="610.34953" xlink:href="#m41f9e35b06" y="640.8"/>
      </g>
     </g>
     <g id="text_5">
      <!-- 1000 -->
      <defs>
       <path d="M 12.40625 8.296875 
L 28.515625 8.296875 
L 28.515625 63.921875 
L 10.984375 60.40625 
L 10.984375 69.390625 
L 28.421875 72.90625 
L 38.28125 72.90625 
L 38.28125 8.296875 
L 54.390625 8.296875 
L 54.390625 0 
L 12.40625 0 
z
" id="DejaVuSans-49"/>
      </defs>
      <g transform="translate(575.99203 668.315781)scale(0.27 -0.27)">
       <use xlink:href="#DejaVuSans-49"/>
       <use x="63.623047" xlink:href="#DejaVuSans-48"/>
       <use x="127.246094" xlink:href="#DejaVuSans-48"/>
       <use x="190.869141" xlink:href="#DejaVuSans-48"/>
      </g>
     </g>
    </g>
    <g id="xtick_6">
     <g id="line2d_11">
      <path clip-path="url(#pbeef1bce69)" d="M 719.675549 640.8 
L 719.675549 86.4 
" style="fill:none;stroke:#b0b0b0;stroke-linecap:square;stroke-width:0.8;"/>
     </g>
     <g id="line2d_12">
      <g>
       <use style="stroke:#000000;stroke-width:0.8;" x="719.675549" xlink:href="#m41f9e35b06" y="640.8"/>
      </g>
     </g>
     <g id="text_6">
      <!-- 1250 -->
      <g transform="translate(685.318049 668.315781)scale(0.27 -0.27)">
       <use xlink:href="#DejaVuSans-49"/>
       <use x="63.623047" xlink:href="#DejaVuSans-50"/>
       <use x="127.246094" xlink:href="#DejaVuSans-53"/>
       <use x="190.869141" xlink:href="#DejaVuSans-48"/>
      </g>
     </g>
    </g>
    <g id="xtick_7">
     <g id="line2d_13">
      <path clip-path="url(#pbeef1bce69)" d="M 829.001567 640.8 
L 829.001567 86.4 
" style="fill:none;stroke:#b0b0b0;stroke-linecap:square;stroke-width:0.8;"/>
     </g>
     <g id="line2d_14">
      <g>
       <use style="stroke:#000000;stroke-width:0.8;" x="829.001567" xlink:href="#m41f9e35b06" y="640.8"/>
      </g>
     </g>
     <g id="text_7">
      <!-- 1500 -->
      <g transform="translate(794.644067 668.315781)scale(0.27 -0.27)">
       <use xlink:href="#DejaVuSans-49"/>
       <use x="63.623047" xlink:href="#DejaVuSans-53"/>
       <use x="127.246094" xlink:href="#DejaVuSans-48"/>
       <use x="190.869141" xlink:href="#DejaVuSans-48"/>
      </g>
     </g>
    </g>
    <g id="xtick_8">
     <g id="line2d_15">
      <path clip-path="url(#pbeef1bce69)" d="M 938.327586 640.8 
L 938.327586 86.4 
" style="fill:none;stroke:#b0b0b0;stroke-linecap:square;stroke-width:0.8;"/>
     </g>
     <g id="line2d_16">
      <g>
       <use style="stroke:#000000;stroke-width:0.8;" x="938.327586" xlink:href="#m41f9e35b06" y="640.8"/>
      </g>
     </g>
     <g id="text_8">
      <!-- 1750 -->
      <g transform="translate(903.970086 668.315781)scale(0.27 -0.27)">
       <use xlink:href="#DejaVuSans-49"/>
       <use x="63.623047" xlink:href="#DejaVuSans-55"/>
       <use x="127.246094" xlink:href="#DejaVuSans-53"/>
       <use x="190.869141" xlink:href="#DejaVuSans-48"/>
      </g>
     </g>
    </g>
   </g>
   <g id="matplotlib.axis_2">
    <g id="ytick_1">
     <g id="line2d_17">
      <path clip-path="url(#pbeef1bce69)" d="M 135 584.367999 
L 972 584.367999 
" style="fill:none;stroke:#b0b0b0;stroke-linecap:square;stroke-width:0.8;"/>
     </g>
     <g id="line2d_18">
      <defs>
       <path d="M 0 0 
L -3.5 0 
" id="mc4b5d0ef24" style="stroke:#000000;stroke-width:0.8;"/>
      </defs>
      <g>
       <use style="stroke:#000000;stroke-width:0.8;" x="135" xlink:href="#mc4b5d0ef24" y="584.367999"/>
      </g>
     </g>
     <g id="text_9">
      <!-- 67.5 -->
      <defs>
       <path d="M 33.015625 40.375 
Q 26.375 40.375 22.484375 35.828125 
Q 18.609375 31.296875 18.609375 23.390625 
Q 18.609375 15.53125 22.484375 10.953125 
Q 26.375 6.390625 33.015625 6.390625 
Q 39.65625 6.390625 43.53125 10.953125 
Q 47.40625 15.53125 47.40625 23.390625 
Q 47.40625 31.296875 43.53125 35.828125 
Q 39.65625 40.375 33.015625 40.375 
z
M 52.59375 71.296875 
L 52.59375 62.3125 
Q 48.875 64.0625 45.09375 64.984375 
Q 41.3125 65.921875 37.59375 65.921875 
Q 27.828125 65.921875 22.671875 59.328125 
Q 17.53125 52.734375 16.796875 39.40625 
Q 19.671875 43.65625 24.015625 45.921875 
Q 28.375 48.1875 33.59375 48.1875 
Q 44.578125 48.1875 50.953125 41.515625 
Q 57.328125 34.859375 57.328125 23.390625 
Q 57.328125 12.15625 50.6875 5.359375 
Q 44.046875 -1.421875 33.015625 -1.421875 
Q 20.359375 -1.421875 13.671875 8.265625 
Q 6.984375 17.96875 6.984375 36.375 
Q 6.984375 53.65625 15.1875 63.9375 
Q 23.390625 74.21875 37.203125 74.21875 
Q 40.921875 74.21875 44.703125 73.484375 
Q 48.484375 72.75 52.59375 71.296875 
z
" id="DejaVuSans-54"/>
       <path d="M 10.6875 12.40625 
L 21 12.40625 
L 21 0 
L 10.6875 0 
z
" id="DejaVuSans-46"/>
      </defs>
      <g transform="translate(67.882812 594.625889)scale(0.27 -0.27)">
       <use xlink:href="#DejaVuSans-54"/>
       <use x="63.623047" xlink:href="#DejaVuSans-55"/>
       <use x="127.246094" xlink:href="#DejaVuSans-46"/>
       <use x="159.033203" xlink:href="#DejaVuSans-53"/>
      </g>
     </g>
    </g>
    <g id="ytick_2">
     <g id="line2d_19">
      <path clip-path="url(#pbeef1bce69)" d="M 135 517.949449 
L 972 517.949449 
" style="fill:none;stroke:#b0b0b0;stroke-linecap:square;stroke-width:0.8;"/>
     </g>
     <g id="line2d_20">
      <g>
       <use style="stroke:#000000;stroke-width:0.8;" x="135" xlink:href="#mc4b5d0ef24" y="517.949449"/>
      </g>
     </g>
     <g id="text_10">
      <!-- 68.0 -->
      <defs>
       <path d="M 31.78125 34.625 
Q 24.75 34.625 20.71875 30.859375 
Q 16.703125 27.09375 16.703125 20.515625 
Q 16.703125 13.921875 20.71875 10.15625 
Q 24.75 6.390625 31.78125 6.390625 
Q 38.8125 6.390625 42.859375 10.171875 
Q 46.921875 13.96875 46.921875 20.515625 
Q 46.921875 27.09375 42.890625 30.859375 
Q 38.875 34.625 31.78125 34.625 
z
M 21.921875 38.8125 
Q 15.578125 40.375 12.03125 44.71875 
Q 8.5 49.078125 8.5 55.328125 
Q 8.5 64.0625 14.71875 69.140625 
Q 20.953125 74.21875 31.78125 74.21875 
Q 42.671875 74.21875 48.875 69.140625 
Q 55.078125 64.0625 55.078125 55.328125 
Q 55.078125 49.078125 51.53125 44.71875 
Q 48 40.375 41.703125 38.8125 
Q 48.828125 37.15625 52.796875 32.3125 
Q 56.78125 27.484375 56.78125 20.515625 
Q 56.78125 9.90625 50.3125 4.234375 
Q 43.84375 -1.421875 31.78125 -1.421875 
Q 19.734375 -1.421875 13.25 4.234375 
Q 6.78125 9.90625 6.78125 20.515625 
Q 6.78125 27.484375 10.78125 32.3125 
Q 14.796875 37.15625 21.921875 38.8125 
z
M 18.3125 54.390625 
Q 18.3125 48.734375 21.84375 45.5625 
Q 25.390625 42.390625 31.78125 42.390625 
Q 38.140625 42.390625 41.71875 45.5625 
Q 45.3125 48.734375 45.3125 54.390625 
Q 45.3125 60.0625 41.71875 63.234375 
Q 38.140625 66.40625 31.78125 66.40625 
Q 25.390625 66.40625 21.84375 63.234375 
Q 18.3125 60.0625 18.3125 54.390625 
z
" id="DejaVuSans-56"/>
      </defs>
      <g transform="translate(67.882812 528.20734)scale(0.27 -0.27)">
       <use xlink:href="#DejaVuSans-54"/>
       <use x="63.623047" xlink:href="#DejaVuSans-56"/>
       <use x="127.246094" xlink:href="#DejaVuSans-46"/>
       <use x="159.033203" xlink:href="#DejaVuSans-48"/>
      </g>
     </g>
    </g>
    <g id="ytick_3">
     <g id="line2d_21">
      <path clip-path="url(#pbeef1bce69)" d="M 135 451.530899 
L 972 451.530899 
" style="fill:none;stroke:#b0b0b0;stroke-linecap:square;stroke-width:0.8;"/>
     </g>
     <g id="line2d_22">
      <g>
       <use style="stroke:#000000;stroke-width:0.8;" x="135" xlink:href="#mc4b5d0ef24" y="451.530899"/>
      </g>
     </g>
     <g id="text_11">
      <!-- 68.5 -->
      <g transform="translate(67.882812 461.78879)scale(0.27 -0.27)">
       <use xlink:href="#DejaVuSans-54"/>
       <use x="63.623047" xlink:href="#DejaVuSans-56"/>
       <use x="127.246094" xlink:href="#DejaVuSans-46"/>
       <use x="159.033203" xlink:href="#DejaVuSans-53"/>
      </g>
     </g>
    </g>
    <g id="ytick_4">
     <g id="line2d_23">
      <path clip-path="url(#pbeef1bce69)" d="M 135 385.11235 
L 972 385.11235 
" style="fill:none;stroke:#b0b0b0;stroke-linecap:square;stroke-width:0.8;"/>
     </g>
     <g id="line2d_24">
      <g>
       <use style="stroke:#000000;stroke-width:0.8;" x="135" xlink:href="#mc4b5d0ef24" y="385.11235"/>
      </g>
     </g>
     <g id="text_12">
      <!-- 69.0 -->
      <defs>
       <path d="M 10.984375 1.515625 
L 10.984375 10.5 
Q 14.703125 8.734375 18.5 7.8125 
Q 22.3125 6.890625 25.984375 6.890625 
Q 35.75 6.890625 40.890625 13.453125 
Q 46.046875 20.015625 46.78125 33.40625 
Q 43.953125 29.203125 39.59375 26.953125 
Q 35.25 24.703125 29.984375 24.703125 
Q 19.046875 24.703125 12.671875 31.3125 
Q 6.296875 37.9375 6.296875 49.421875 
Q 6.296875 60.640625 12.9375 67.421875 
Q 19.578125 74.21875 30.609375 74.21875 
Q 43.265625 74.21875 49.921875 64.515625 
Q 56.59375 54.828125 56.59375 36.375 
Q 56.59375 19.140625 48.40625 8.859375 
Q 40.234375 -1.421875 26.421875 -1.421875 
Q 22.703125 -1.421875 18.890625 -0.6875 
Q 15.09375 0.046875 10.984375 1.515625 
z
M 30.609375 32.421875 
Q 37.25 32.421875 41.125 36.953125 
Q 45.015625 41.5 45.015625 49.421875 
Q 45.015625 57.28125 41.125 61.84375 
Q 37.25 66.40625 30.609375 66.40625 
Q 23.96875 66.40625 20.09375 61.84375 
Q 16.21875 57.28125 16.21875 49.421875 
Q 16.21875 41.5 20.09375 36.953125 
Q 23.96875 32.421875 30.609375 32.421875 
z
" id="DejaVuSans-57"/>
      </defs>
      <g transform="translate(67.882812 395.37024)scale(0.27 -0.27)">
       <use xlink:href="#DejaVuSans-54"/>
       <use x="63.623047" xlink:href="#DejaVuSans-57"/>
       <use x="127.246094" xlink:href="#DejaVuSans-46"/>
       <use x="159.033203" xlink:href="#DejaVuSans-48"/>
      </g>
     </g>
    </g>
    <g id="ytick_5">
     <g id="line2d_25">
      <path clip-path="url(#pbeef1bce69)" d="M 135 318.6938 
L 972 318.6938 
" style="fill:none;stroke:#b0b0b0;stroke-linecap:square;stroke-width:0.8;"/>
     </g>
     <g id="line2d_26">
      <g>
       <use style="stroke:#000000;stroke-width:0.8;" x="135" xlink:href="#mc4b5d0ef24" y="318.6938"/>
      </g>
     </g>
     <g id="text_13">
      <!-- 69.5 -->
      <g transform="translate(67.882812 328.951691)scale(0.27 -0.27)">
       <use xlink:href="#DejaVuSans-54"/>
       <use x="63.623047" xlink:href="#DejaVuSans-57"/>
       <use x="127.246094" xlink:href="#DejaVuSans-46"/>
       <use x="159.033203" xlink:href="#DejaVuSans-53"/>
      </g>
     </g>
    </g>
    <g id="ytick_6">
     <g id="line2d_27">
      <path clip-path="url(#pbeef1bce69)" d="M 135 252.27525 
L 972 252.27525 
" style="fill:none;stroke:#b0b0b0;stroke-linecap:square;stroke-width:0.8;"/>
     </g>
     <g id="line2d_28">
      <g>
       <use style="stroke:#000000;stroke-width:0.8;" x="135" xlink:href="#mc4b5d0ef24" y="252.27525"/>
      </g>
     </g>
     <g id="text_14">
      <!-- 70.0 -->
      <g transform="translate(67.882812 262.533141)scale(0.27 -0.27)">
       <use xlink:href="#DejaVuSans-55"/>
       <use x="63.623047" xlink:href="#DejaVuSans-48"/>
       <use x="127.246094" xlink:href="#DejaVuSans-46"/>
       <use x="159.033203" xlink:href="#DejaVuSans-48"/>
      </g>
     </g>
    </g>
    <g id="ytick_7">
     <g id="line2d_29">
      <path clip-path="url(#pbeef1bce69)" d="M 135 185.856701 
L 972 185.856701 
" style="fill:none;stroke:#b0b0b0;stroke-linecap:square;stroke-width:0.8;"/>
     </g>
     <g id="line2d_30">
      <g>
       <use style="stroke:#000000;stroke-width:0.8;" x="135" xlink:href="#mc4b5d0ef24" y="185.856701"/>
      </g>
     </g>
     <g id="text_15">
      <!-- 70.5 -->
      <g transform="translate(67.882812 196.114591)scale(0.27 -0.27)">
       <use xlink:href="#DejaVuSans-55"/>
       <use x="63.623047" xlink:href="#DejaVuSans-48"/>
       <use x="127.246094" xlink:href="#DejaVuSans-46"/>
       <use x="159.033203" xlink:href="#DejaVuSans-53"/>
      </g>
     </g>
    </g>
    <g id="ytick_8">
     <g id="line2d_31">
      <path clip-path="url(#pbeef1bce69)" d="M 135 119.438151 
L 972 119.438151 
" style="fill:none;stroke:#b0b0b0;stroke-linecap:square;stroke-width:0.8;"/>
     </g>
     <g id="line2d_32">
      <g>
       <use style="stroke:#000000;stroke-width:0.8;" x="135" xlink:href="#mc4b5d0ef24" y="119.438151"/>
      </g>
     </g>
     <g id="text_16">
      <!-- 71.0 -->
      <g transform="translate(67.882812 129.696042)scale(0.27 -0.27)">
       <use xlink:href="#DejaVuSans-55"/>
       <use x="63.623047" xlink:href="#DejaVuSans-49"/>
       <use x="127.246094" xlink:href="#DejaVuSans-46"/>
       <use x="159.033203" xlink:href="#DejaVuSans-48"/>
      </g>
     </g>
    </g>
   </g>
   <g id="line2d_33">
    <path clip-path="url(#pbeef1bce69)" d="M 173.045455 485.061443 
L 173.482759 481.301482 
L 173.920063 481.704842 
L 174.357367 477.862789 
L 174.794671 480.399496 
L 175.231975 478.977603 
L 175.669279 480.129914 
L 176.106583 480.804883 
L 176.543887 480.155251 
L 176.981191 480.699483 
L 177.418495 477.173632 
L 177.855799 479.444811 
L 178.293103 473.058958 
L 178.730408 478.892472 
L 179.167712 474.362276 
L 179.605016 475.494318 
L 180.04232 463.912421 
L 180.479624 462.933412 
L 180.916928 459.893013 
L 181.354232 454.846962 
L 181.791536 456.637758 
L 182.22884 461.731441 
L 182.666144 462.010144 
L 183.103448 455.423625 
L 183.540752 455.698274 
L 183.978056 456.436078 
L 184.415361 454.39901 
L 184.852665 450.985654 
L 185.289969 451.696094 
L 185.727273 446.076422 
L 186.164577 446.972326 
L 186.601881 450.628914 
L 187.039185 448.106395 
L 187.476489 446.863885 
L 187.913793 441.428664 
L 188.351097 445.63151 
L 188.788401 444.621084 
L 189.225705 445.02343 
L 189.663009 441.732704 
L 190.100313 439.826373 
L 190.537618 435.326581 
L 190.974922 433.622944 
L 191.412226 441.441839 
L 191.84953 441.637438 
L 192.286834 445.461248 
L 192.724138 441.092193 
L 193.161442 442.675228 
L 193.598746 438.294011 
L 194.03605 437.696066 
L 194.473354 438.152126 
L 194.910658 445.123763 
L 195.785266 463.663108 
L 196.222571 464.085724 
L 196.659875 463.788778 
L 197.097179 462.134801 
L 197.534483 455.569564 
L 197.971787 457.8225 
L 198.409091 455.744894 
L 198.846395 452.177491 
L 199.283699 450.939035 
L 199.721003 450.249877 
L 200.595611 441.963774 
L 201.032915 435.693456 
L 201.470219 431.397371 
L 201.907524 430.051487 
L 202.782132 425.269952 
L 203.219436 427.768147 
L 204.094044 422.993706 
L 204.531348 421.755249 
L 204.968652 423.757859 
L 205.405956 420.398218 
L 205.84326 423.006881 
L 206.280564 422.665342 
L 206.717868 424.591943 
L 207.155172 422.791012 
L 207.592476 431.778434 
L 208.029781 429.004576 
L 208.467085 430.038312 
L 208.904389 431.965926 
L 209.341693 445.693331 
L 209.778997 449.870841 
L 210.216301 450.319807 
L 210.653605 446.473701 
L 211.090909 447.434467 
L 211.528213 447.647295 
L 212.402821 442.385376 
L 212.840125 437.838965 
L 213.277429 437.994025 
L 214.589342 434.128664 
L 215.901254 417.684154 
L 216.338558 421.315405 
L 216.775862 423.25518 
L 217.213166 433.64524 
L 217.65047 418.924637 
L 218.087774 417.14803 
L 218.525078 416.154833 
L 218.962382 417.474366 
L 219.399687 417.947655 
L 219.836991 419.285431 
L 220.274295 419.914794 
L 220.711599 423.041339 
L 221.148903 437.331218 
L 221.586207 419.652306 
L 222.023511 421.835313 
L 222.460815 419.245906 
L 222.898119 418.804035 
L 223.335423 414.879892 
L 223.772727 415.073464 
L 224.210031 411.343907 
L 225.084639 412.984709 
L 225.521944 409.262246 
L 225.959248 408.647072 
L 226.396552 408.472756 
L 226.833856 407.879878 
L 227.27116 405.894497 
L 227.708464 402.236895 
L 228.145768 400.023484 
L 228.583072 392.192428 
L 229.020376 392.354582 
L 229.45768 390.046919 
L 229.894984 386.311281 
L 230.332288 380.948015 
L 230.769592 379.727801 
L 231.206897 374.642226 
L 231.644201 371.851139 
L 232.081505 372.77542 
L 232.956113 364.989969 
L 233.393417 369.485708 
L 234.268025 359.286179 
L 234.705329 359.155442 
L 235.142633 368.519874 
L 235.579937 357.386943 
L 236.017241 358.834173 
L 236.454545 357.618013 
L 236.89185 358.109544 
L 237.766458 350.252138 
L 238.203762 351.038588 
L 238.641066 350.003838 
L 239.07837 347.998188 
L 239.952978 354.712404 
L 240.390282 354.767132 
L 240.827586 352.816208 
L 241.26489 354.771185 
L 242.139498 349.045099 
L 242.576803 348.59512 
L 243.451411 339.758704 
L 243.888715 340.930271 
L 244.326019 339.495203 
L 244.763323 341.078238 
L 245.200627 340.594814 
L 245.637931 338.229383 
L 246.075235 336.488247 
L 246.512539 334.210988 
L 247.387147 327.429882 
L 248.261755 318.561036 
L 248.69906 309.885761 
L 249.136364 315.023024 
L 249.573668 314.400755 
L 250.010972 313.44911 
L 250.448276 309.524967 
L 250.88558 311.187053 
L 251.322884 310.32966 
L 251.760188 310.059064 
L 252.197492 303.654969 
L 252.634796 303.964076 
L 253.0721 302.70535 
L 253.509404 302.798589 
L 253.946708 299.669004 
L 254.384013 298.98086 
L 254.821317 301.428382 
L 255.258621 297.780916 
L 255.695925 302.291856 
L 256.133229 300.864895 
L 256.570533 302.940475 
L 257.007837 298.906877 
L 257.445141 299.636573 
L 257.882445 303.084387 
L 258.319749 303.219178 
L 258.757053 303.043848 
L 259.194357 303.007363 
L 259.631661 305.654538 
L 260.068966 306.078167 
L 260.50627 304.024884 
L 260.943574 298.899783 
L 261.818182 300.467616 
L 262.255486 303.543487 
L 262.69279 304.154608 
L 263.130094 303.294174 
L 263.567398 306.516998 
L 264.004702 310.900242 
L 264.442006 308.179084 
L 264.87931 309.069921 
L 265.316614 303.328632 
L 265.753918 308.68075 
L 266.191223 308.239892 
L 266.628527 305.056593 
L 267.065831 303.458356 
L 267.503135 305.891689 
L 267.940439 306.772392 
L 268.377743 303.64078 
L 268.815047 307.366283 
L 269.252351 308.205434 
L 269.689655 310.277973 
L 270.126959 309.59287 
L 270.564263 313.70349 
L 271.001567 313.810918 
L 271.438871 317.653983 
L 271.876176 320.428855 
L 272.31348 322.068644 
L 272.750784 320.668033 
L 273.188088 323.371962 
L 273.625392 324.041863 
L 274.062696 324.407725 
L 274.5 323.081097 
L 274.937304 327.006253 
L 275.374608 326.886664 
L 275.811912 326.92923 
L 276.249216 328.629827 
L 276.68652 327.059967 
L 277.123824 330.184485 
L 277.561129 329.888552 
L 277.998433 329.104129 
L 278.435737 330.615208 
L 278.873041 333.364743 
L 279.310345 328.264979 
L 279.747649 333.406295 
L 280.622257 331.354025 
L 281.059561 331.226328 
L 281.496865 332.687747 
L 281.934169 330.83209 
L 282.371473 332.413098 
L 282.808777 332.210405 
L 283.246082 332.491135 
L 283.683386 334.812987 
L 284.12069 335.769699 
L 284.557994 332.361411 
L 284.995298 333.336366 
L 285.432602 331.974267 
L 285.869906 329.347361 
L 286.30721 329.465937 
L 286.744514 330.041586 
L 287.181818 329.931118 
L 287.619122 328.653137 
L 288.056426 332.868144 
L 288.49373 335.816319 
L 288.931034 335.173781 
L 289.368339 335.599437 
L 289.805643 336.909849 
L 290.242947 337.678057 
L 290.680251 336.359537 
L 291.117555 336.600742 
L 291.554859 338.668214 
L 291.992163 336.624052 
L 292.866771 339.991801 
L 293.304075 339.978626 
L 293.741379 342.253859 
L 294.178683 347.471185 
L 294.615987 350.195383 
L 295.053292 348.24142 
L 295.490596 348.186693 
L 295.9279 352.685471 
L 296.365204 351.05683 
L 296.802508 354.473226 
L 297.239812 352.163536 
L 297.677116 352.414875 
L 298.11442 350.064646 
L 298.551724 349.053207 
L 298.989028 346.555011 
L 299.426332 348.801867 
L 299.863636 349.207254 
L 300.738245 353.075656 
L 301.175549 351.839226 
L 301.612853 349.300492 
L 302.050157 349.298466 
L 302.487461 350.122414 
L 302.924765 353.625968 
L 304.673981 362.076253 
L 305.111285 361.100285 
L 305.985893 365.198744 
L 306.423197 365.749056 
L 306.860502 365.80581 
L 307.297806 364.795384 
L 307.73511 367.460801 
L 308.172414 366.758469 
L 308.609718 368.131716 
L 309.047022 370.981584 
L 309.484326 370.809295 
L 309.92163 368.973907 
L 310.358934 369.481654 
L 310.796238 369.388415 
L 311.670846 368.039491 
L 312.10815 370.401881 
L 312.545455 369.048903 
L 312.982759 368.295898 
L 313.420063 366.378419 
L 313.857367 369.139102 
L 314.294671 365.263605 
L 314.731975 365.982153 
L 315.169279 367.205408 
L 315.606583 363.402881 
L 316.043887 361.635395 
L 316.481191 359.072338 
L 316.918495 353.304699 
L 317.355799 352.059149 
L 318.230408 344.534159 
L 318.667712 346.439476 
L 319.54232 344.3416 
L 319.979624 337.045654 
L 320.416928 335.532548 
L 320.854232 324.299284 
L 321.291536 321.620692 
L 321.72884 326.012043 
L 322.166144 326.223857 
L 322.603448 325.296535 
L 323.040752 325.658343 
L 323.478056 325.033034 
L 323.915361 327.436977 
L 325.227273 330.441905 
L 325.664577 329.039267 
L 326.101881 327.038684 
L 326.976489 331.721914 
L 327.413793 329.878418 
L 327.851097 329.442627 
L 328.288401 331.521247 
L 328.725705 331.29119 
L 329.163009 329.86727 
L 329.600313 327.039698 
L 330.474922 318.193147 
L 330.912226 319.226883 
L 331.34953 319.280597 
L 331.786834 314.892287 
L 332.224138 312.45794 
L 332.661442 308.061521 
L 333.098746 312.283623 
L 333.53605 313.164326 
L 333.973354 309.951637 
L 334.410658 308.202393 
L 334.847962 307.266964 
L 335.722571 300.037906 
L 336.597179 290.624828 
L 337.034483 288.326286 
L 337.471787 286.942904 
L 337.909091 287.185122 
L 338.346395 289.965061 
L 339.221003 288.121565 
L 339.658307 288.143862 
L 340.095611 290.513347 
L 340.532915 287.90367 
L 341.407524 294.839836 
L 341.844828 295.994174 
L 342.282132 295.233061 
L 342.719436 299.248416 
L 343.15674 298.857217 
L 343.594044 298.637295 
L 344.031348 299.434893 
L 344.468652 297.327896 
L 344.905956 296.518136 
L 345.34326 300.185872 
L 345.780564 298.228868 
L 346.217868 288.254329 
L 346.655172 292.169351 
L 347.529781 294.280402 
L 347.967085 290.316734 
L 348.404389 293.011542 
L 348.841693 290.796104 
L 349.278997 293.700699 
L 349.716301 289.362048 
L 350.153605 283.079569 
L 350.590909 282.356967 
L 351.028213 278.057842 
L 351.465517 281.031353 
L 351.902821 280.821565 
L 352.340125 278.272697 
L 352.777429 277.912916 
L 353.652038 283.454551 
L 354.089342 285.131839 
L 354.96395 290.678542 
L 355.401254 289.315429 
L 355.838558 284.693008 
L 356.275862 289.279958 
L 356.713166 295.10435 
L 357.15047 294.923953 
L 357.587774 294.188177 
L 358.025078 310.716804 
L 358.462382 307.785859 
L 358.899687 302.493536 
L 359.336991 309.387136 
L 359.774295 306.357884 
L 360.211599 284.128507 
L 360.648903 282.232311 
L 361.086207 284.688954 
L 361.523511 288.824911 
L 361.960815 287.925966 
L 362.398119 284.115332 
L 362.835423 287.613819 
L 363.272727 285.135893 
L 363.710031 289.62555 
L 364.147335 301.204406 
L 364.584639 322.06155 
L 365.459248 325.287414 
L 365.896552 325.750568 
L 366.333856 320.697424 
L 366.77116 300.207155 
L 367.645768 312.81164 
L 368.083072 306.573752 
L 368.520376 289.187732 
L 368.95768 295.343529 
L 369.394984 293.387538 
L 369.832288 290.81536 
L 370.269592 292.707502 
L 370.706897 288.71647 
L 371.144201 290.506252 
L 372.018809 301.858092 
L 372.893417 300.417956 
L 373.330721 304.283318 
L 373.768025 306.075127 
L 374.205329 306.674086 
L 374.642633 306.312278 
L 375.079937 311.52251 
L 375.517241 309.234102 
L 375.954545 309.635435 
L 376.39185 324.452317 
L 376.829154 325.529632 
L 377.266458 321.487927 
L 377.703762 325.391801 
L 378.141066 332.297563 
L 378.57837 336.955455 
L 379.015674 335.788955 
L 379.452978 337.151054 
L 379.890282 344.224038 
L 380.327586 349.234617 
L 380.76489 358.378113 
L 381.202194 357.617 
L 381.639498 359.305435 
L 382.076803 364.367701 
L 382.514107 366.752388 
L 382.951411 371.165022 
L 383.826019 395.522679 
L 384.263323 400.328538 
L 384.700627 401.830495 
L 385.137931 402.642282 
L 386.012539 429.146462 
L 386.449843 434.209741 
L 386.887147 445.204841 
L 387.324451 446.076422 
L 387.761755 456.17359 
L 388.19906 457.362386 
L 388.636364 463.379338 
L 389.073668 459.935578 
L 389.510972 459.456208 
L 389.948276 463.852627 
L 390.38558 466.012324 
L 390.822884 466.502842 
L 391.260188 464.348212 
L 391.697492 464.849878 
L 392.134796 465.029261 
L 392.5721 463.533385 
L 393.009404 470.480698 
L 393.446708 472.79647 
L 393.884013 471.125263 
L 394.321317 472.89883 
L 394.758621 469.887821 
L 395.195925 474.181879 
L 395.633229 474.014657 
L 396.070533 476.820946 
L 396.507837 475.887543 
L 396.945141 481.843686 
L 397.819749 472.491416 
L 398.257053 477.085461 
L 398.694357 478.160749 
L 399.131661 475.444658 
L 399.568966 466.76837 
L 400.00627 467.266996 
L 400.443574 464.462734 
L 401.318182 461.928054 
L 401.755486 459.484585 
L 402.19279 453.447365 
L 402.630094 455.772257 
L 403.067398 456.83437 
L 403.504702 460.984516 
L 403.942006 458.474159 
L 404.37931 460.854792 
L 404.816614 463.940798 
L 405.253918 465.024194 
L 406.128527 461.053432 
L 406.565831 464.083697 
L 407.003135 461.783128 
L 409.189655 481.802134 
L 410.064263 487.688349 
L 410.501567 493.762054 
L 410.938871 493.690098 
L 412.250784 502.693736 
L 412.688088 504.259542 
L 413.562696 515.168496 
L 414 517.074827 
L 414.437304 520.017934 
L 414.874608 523.748505 
L 415.311912 524.399151 
L 415.749216 524.771093 
L 416.18652 527.982769 
L 416.623824 524.42246 
L 417.061129 531.227889 
L 417.498433 534.592598 
L 417.935737 539.510952 
L 418.373041 542.358793 
L 419.247649 546.129902 
L 419.684953 545.747825 
L 420.122257 543.50401 
L 420.559561 543.664138 
L 420.996865 541.731457 
L 421.871473 540.818324 
L 422.308777 537.77691 
L 422.746082 537.935011 
L 423.183386 536.777632 
L 423.62069 537.647187 
L 424.057994 534.866234 
L 424.495298 536.83844 
L 425.369906 535.012173 
L 426.681818 542.277716 
L 427.119122 543.288142 
L 427.556426 539.935594 
L 427.99373 539.934581 
L 428.431034 537.288419 
L 429.305643 526.109882 
L 429.742947 523.07759 
L 430.180251 516.26 
L 430.617555 514.230026 
L 431.054859 509.84577 
L 431.492163 511.202802 
L 431.929467 506.763818 
L 432.804075 502.318753 
L 433.241379 499.04931 
L 434.115987 489.131525 
L 434.553292 486.456987 
L 434.990596 476.631428 
L 435.4279 469.404397 
L 435.865204 467.820349 
L 436.739812 452.101481 
L 437.177116 451.139701 
L 437.61442 445.145046 
L 438.489028 438.198746 
L 439.363636 419.827636 
L 439.80094 412.23069 
L 440.238245 412.405006 
L 440.675549 410.917237 
L 441.112853 407.284973 
L 441.987461 389.890845 
L 442.424765 382.474296 
L 442.862069 372.737922 
L 443.299373 373.216278 
L 443.736677 367.836797 
L 444.173981 367.53073 
L 444.611285 353.831702 
L 445.048589 360.215528 
L 445.485893 357.594703 
L 447.23511 331.950957 
L 448.109718 322.729424 
L 448.547022 316.561466 
L 448.984326 316.659772 
L 449.42163 314.825398 
L 449.858934 306.271739 
L 450.296238 300.219317 
L 450.733542 292.203809 
L 451.170846 286.61454 
L 452.482759 264.756092 
L 453.357367 268.931575 
L 454.231975 256.768961 
L 454.669279 254.715678 
L 455.106583 250.37196 
L 455.543887 248.161589 
L 455.981191 248.083552 
L 456.418495 245.348206 
L 456.855799 240.468364 
L 457.293103 238.20732 
L 458.167712 229.224965 
L 458.605016 226.943652 
L 459.04232 228.277374 
L 459.479624 225.091035 
L 459.916928 219.497712 
L 460.354232 218.248108 
L 460.791536 218.814636 
L 462.103448 222.285759 
L 462.540752 221.228713 
L 462.978056 221.051357 
L 463.415361 219.841277 
L 463.852665 223.681303 
L 464.289969 220.198018 
L 464.727273 223.629616 
L 465.164577 226.082205 
L 465.601881 225.796407 
L 466.039185 225.872417 
L 466.476489 230.171543 
L 466.913793 230.766448 
L 467.351097 225.655536 
L 467.788401 223.466448 
L 468.225705 214.604695 
L 468.663009 210.673458 
L 469.537618 195.198836 
L 469.974922 191.799669 
L 470.84953 176.568279 
L 471.724138 168.151438 
L 472.161442 163.299974 
L 472.598746 156.892838 
L 473.03605 156.419549 
L 473.473354 156.750952 
L 473.910658 151.617744 
L 474.347962 147.800015 
L 474.785266 148.132432 
L 475.222571 144.787992 
L 475.659875 146.388256 
L 476.097179 144.7961 
L 476.534483 146.245357 
L 476.971787 145.759907 
L 477.409091 150.843455 
L 477.846395 150.313412 
L 478.283699 151.814356 
L 478.721003 153.908178 
L 479.158307 155.043261 
L 479.595611 160.826102 
L 480.032915 161.154465 
L 480.470219 171.487771 
L 480.907524 170.640513 
L 482.219436 190.323048 
L 482.65674 191.9375 
L 483.094044 198.643609 
L 483.531348 199.091561 
L 483.968652 201.255313 
L 484.405956 207.112136 
L 484.84326 209.909304 
L 485.280564 211.303834 
L 485.717868 210.310637 
L 486.155172 211.091006 
L 486.592476 207.581372 
L 487.029781 208.472209 
L 487.467085 206.565878 
L 487.904389 203.994713 
L 488.341693 200.258062 
L 488.778997 201.821841 
L 489.216301 197.698045 
L 489.653605 198.078095 
L 490.090909 198.239236 
L 490.528213 197.950398 
L 490.965517 192.898267 
L 491.402821 185.623603 
L 491.840125 188.938653 
L 492.277429 187.314066 
L 492.714734 184.422645 
L 493.589342 183.039263 
L 494.026646 185.048968 
L 494.46395 186.492144 
L 494.901254 185.076331 
L 495.338558 185.314496 
L 495.775862 192.025672 
L 496.213166 194.840069 
L 496.65047 202.129934 
L 497.087774 205.739903 
L 497.962382 218.153855 
L 498.399687 222.687092 
L 498.836991 232.273473 
L 499.274295 236.258424 
L 499.711599 246.769086 
L 500.148903 253.250205 
L 500.586207 264.332463 
L 501.023511 269.480873 
L 501.460815 278.746999 
L 501.898119 282.445139 
L 502.335423 289.626563 
L 502.772727 294.810445 
L 503.210031 296.345847 
L 503.647335 303.938739 
L 504.084639 308.012875 
L 504.521944 315.683804 
L 504.959248 319.745778 
L 505.396552 328.154511 
L 505.833856 331.100659 
L 506.708464 345.4554 
L 508.020376 360.826649 
L 508.45768 370.302562 
L 508.894984 372.691302 
L 509.769592 384.515418 
L 510.644201 390.843503 
L 511.081505 395.917931 
L 511.518809 397.164495 
L 511.956113 399.482293 
L 512.830721 407.496787 
L 513.268025 405.542824 
L 513.705329 409.254138 
L 514.142633 417.543282 
L 514.579937 414.083307 
L 515.017241 417.655777 
L 515.454545 423.175116 
L 515.89185 423.850085 
L 516.329154 423.694011 
L 516.766458 424.076088 
L 517.203762 423.766981 
L 518.07837 418.58918 
L 518.952978 406.816751 
L 519.390282 398.915765 
L 519.827586 398.055332 
L 520.26489 393.765328 
L 520.702194 387.259885 
L 521.139498 389.007102 
L 521.576803 387.947016 
L 522.014107 385.355582 
L 522.451411 387.008546 
L 522.888715 382.955693 
L 523.326019 381.809462 
L 523.763323 377.738366 
L 524.200627 367.492219 
L 524.637931 364.163994 
L 525.075235 358.732826 
L 525.512539 343.794328 
L 525.949843 338.982389 
L 526.387147 332.617818 
L 527.261755 313.968005 
L 527.69906 316.088177 
L 528.136364 315.090926 
L 528.573668 313.709571 
L 529.010972 317.352984 
L 529.448276 317.720872 
L 529.88558 318.453608 
L 530.322884 314.211237 
L 530.760188 315.88447 
L 531.197492 314.149416 
L 531.634796 314.260897 
L 532.0721 309.043571 
L 532.509404 309.937448 
L 532.946708 311.377584 
L 533.384013 310.679306 
L 534.258621 302.532047 
L 534.695925 296.220177 
L 535.133229 292.595007 
L 536.445141 279.301365 
L 536.882445 277.480166 
L 537.319749 275.085344 
L 537.757053 278.216956 
L 538.194357 277.122412 
L 538.631661 278.071017 
L 539.068966 273.635073 
L 539.50627 270.440626 
L 539.943574 273.742501 
L 540.380878 268.446124 
L 540.818182 270.46799 
L 541.255486 271.431797 
L 541.69279 271.27775 
L 542.130094 272.366213 
L 542.567398 275.938683 
L 543.004702 276.553857 
L 543.442006 279.775668 
L 543.87931 281.938405 
L 544.316614 282.578916 
L 544.753918 285.01225 
L 545.191223 281.825911 
L 545.628527 285.983151 
L 546.065831 285.270684 
L 546.503135 289.72791 
L 546.940439 281.648554 
L 547.377743 277.881498 
L 547.815047 285.263589 
L 548.252351 280.526646 
L 548.689655 282.146166 
L 549.126959 284.788274 
L 549.564263 289.414749 
L 550.001567 290.726175 
L 550.876176 302.429687 
L 551.31348 317.096577 
L 551.750784 325.370518 
L 552.625392 336.877418 
L 553.062696 344.074045 
L 553.937304 362.159357 
L 554.374608 367.134465 
L 554.811912 373.583153 
L 555.249216 381.862162 
L 555.68652 386.922401 
L 556.123824 396.879711 
L 556.561129 401.317681 
L 556.998433 408.864967 
L 557.435737 413.767105 
L 557.873041 414.915363 
L 558.747649 425.287181 
L 559.184953 425.587167 
L 559.622257 432.210171 
L 560.059561 435.29111 
L 560.496865 436.752529 
L 561.371473 443.729233 
L 561.808777 446.193984 
L 562.246082 449.839423 
L 562.683386 457.528595 
L 563.12069 462.954695 
L 565.30721 478.575257 
L 565.744514 485.913768 
L 566.181818 484.93476 
L 566.619122 485.173938 
L 567.931034 493.544159 
L 568.368339 494.222168 
L 568.805643 500.541132 
L 569.242947 498.766552 
L 569.680251 503.46093 
L 570.117555 505.652045 
L 570.554859 506.571259 
L 570.992163 505.187877 
L 571.429467 510.391015 
L 571.866771 512.908466 
L 572.304075 513.086836 
L 572.741379 517.394069 
L 573.615987 522.507008 
L 574.053292 524.315033 
L 574.490596 528.85131 
L 574.9279 525.576799 
L 575.365204 525.712603 
L 575.802508 525.70855 
L 576.239812 525.434914 
L 576.677116 522.356002 
L 577.11442 521.952642 
L 577.551724 520.305759 
L 577.989028 520.522641 
L 578.426332 521.495569 
L 578.863636 517.363665 
L 579.30094 516.470801 
L 579.738245 511.945673 
L 580.175549 513.472967 
L 580.612853 508.806966 
L 581.050157 508.738051 
L 581.487461 505.009507 
L 582.362069 492.694874 
L 582.799373 493.559361 
L 583.236677 493.662734 
L 583.673981 483.512866 
L 584.111285 483.865552 
L 584.548589 471.340118 
L 584.985893 475.584516 
L 585.423197 468.897664 
L 585.860502 467.099774 
L 586.297806 457.174895 
L 586.73511 452.887931 
L 587.609718 447.954376 
L 588.047022 439.006479 
L 588.484326 432.430094 
L 588.92163 430.42343 
L 589.358934 420.982988 
L 590.233542 405.495191 
L 590.670846 405.710046 
L 591.10815 402.186222 
L 591.545455 405.372561 
L 591.982759 402.489249 
L 592.420063 403.36387 
L 592.857367 402.989901 
L 593.731975 387.740269 
L 594.169279 385.482265 
L 594.606583 378.418402 
L 595.481191 369.876906 
L 595.918495 370.050208 
L 596.355799 367.872269 
L 596.793103 359.399688 
L 597.230408 367.452693 
L 597.667712 360.384777 
L 598.105016 356.451513 
L 598.54232 354.958677 
L 598.979624 364.372768 
L 599.854232 353.536783 
L 600.291536 352.877016 
L 600.72884 360.442545 
L 601.166144 365.108545 
L 601.603448 362.844461 
L 602.040752 354.25229 
L 602.478056 353.096938 
L 603.352665 336.090968 
L 604.227273 328.348083 
L 605.101881 305.708252 
L 605.976489 292.952761 
L 606.851097 288.702282 
L 607.725705 265.663145 
L 608.163009 256.087912 
L 608.600313 237.086426 
L 609.037618 241.634864 
L 609.474922 239.87954 
L 609.912226 233.888939 
L 610.786834 208.311067 
L 611.224138 207.044234 
L 611.661442 201.497531 
L 612.098746 201.929268 
L 612.53605 192.021618 
L 612.973354 194.769126 
L 613.410658 191.375026 
L 613.847962 191.685147 
L 615.159875 191.665891 
L 616.034483 185.987438 
L 616.471787 194.266447 
L 616.909091 196.067377 
L 617.346395 192.834418 
L 618.221003 202.22216 
L 618.658307 211.787258 
L 619.095611 214.265184 
L 619.532915 220.349024 
L 619.970219 219.336571 
L 620.407524 228.892548 
L 620.844828 228.865184 
L 621.282132 229.267531 
L 621.719436 231.803224 
L 622.15674 232.920064 
L 622.594044 232.869391 
L 623.031348 228.691882 
L 623.468652 227.63889 
L 623.905956 225.20961 
L 624.34326 226.345706 
L 624.780564 215.943485 
L 625.217868 218.237973 
L 626.092476 211.366669 
L 626.529781 209.706611 
L 626.967085 210.549815 
L 627.404389 212.41054 
L 627.841693 201.547191 
L 628.278997 197.683856 
L 629.153605 193.210415 
L 629.590909 188.744067 
L 630.028213 186.727268 
L 630.465517 187.468113 
L 630.902821 190.69195 
L 631.340125 184.263531 
L 631.777429 185.783731 
L 632.214734 185.558741 
L 632.652038 184.793574 
L 633.089342 182.468682 
L 633.526646 184.287854 
L 633.96395 182.296392 
L 634.401254 182.686577 
L 634.838558 177.994226 
L 635.275862 179.015801 
L 635.713166 179.222548 
L 636.15047 185.057075 
L 636.587774 187.395143 
L 637.025078 188.240374 
L 637.462382 191.469279 
L 637.899687 189.904486 
L 638.336991 180.856256 
L 638.774295 180.583634 
L 639.211599 177.100349 
L 639.648903 180.280607 
L 640.086207 176.531794 
L 640.523511 174.077178 
L 640.960815 195.514024 
L 641.835423 209.52216 
L 642.272727 208.663754 
L 642.710031 211.036279 
L 643.147335 209.731948 
L 643.584639 213.656091 
L 644.021944 212.019342 
L 644.459248 216.818106 
L 644.896552 214.859075 
L 645.333856 214.696921 
L 646.208464 223.334697 
L 646.645768 227.663213 
L 647.083072 227.165601 
L 647.520376 229.021258 
L 647.95768 228.176027 
L 648.394984 233.200795 
L 648.832288 233.545373 
L 649.269592 236.685093 
L 649.706897 238.708986 
L 650.144201 239.633267 
L 650.581505 242.832782 
L 651.018809 243.443902 
L 651.456113 246.176208 
L 651.893417 247.832213 
L 652.330721 252.195186 
L 652.768025 258.029714 
L 653.205329 259.719163 
L 653.642633 264.364894 
L 654.079937 271.60814 
L 654.517241 270.270364 
L 654.954545 274.029312 
L 655.39185 284.720371 
L 657.141066 306.879819 
L 657.57837 309.110459 
L 658.890282 325.265118 
L 659.327586 327.694397 
L 659.76489 333.758982 
L 660.202194 334.066062 
L 660.639498 333.004962 
L 661.076803 330.760134 
L 661.514107 327.675141 
L 661.951411 327.491704 
L 662.388715 328.594356 
L 662.826019 323.332437 
L 663.263323 320.433922 
L 663.700627 322.792259 
L 664.137931 326.543099 
L 664.575235 325.813403 
L 665.012539 321.633867 
L 665.449843 321.735213 
L 665.887147 323.566548 
L 666.324451 323.119609 
L 666.761755 302.628327 
L 667.19906 326.904907 
L 667.636364 330.842225 
L 668.073668 331.980348 
L 668.510972 335.044057 
L 668.948276 335.815305 
L 669.38558 335.827467 
L 669.822884 338.432076 
L 670.260188 339.984707 
L 670.697492 343.110238 
L 671.134796 338.370255 
L 671.5721 339.914778 
L 672.009404 339.776946 
L 672.446708 342.191024 
L 672.884013 343.019026 
L 673.321317 344.784485 
L 673.758621 341.667062 
L 674.195925 342.252845 
L 675.070533 341.747126 
L 675.507837 338.651998 
L 675.945141 337.712515 
L 676.382445 334.644751 
L 676.819749 334.58597 
L 677.257053 333.740739 
L 677.694357 334.143085 
L 678.131661 333.470144 
L 678.568966 335.212293 
L 679.00627 334.783596 
L 679.443574 331.207073 
L 679.880878 330.620275 
L 680.318182 328.650096 
L 680.755486 322.92401 
L 681.19279 326.733631 
L 681.630094 325.013778 
L 682.504702 322.871309 
L 682.942006 328.225454 
L 683.37931 330.261508 
L 683.816614 332.882333 
L 684.253918 334.493745 
L 684.691223 335.188983 
L 685.128527 330.965867 
L 685.565831 331.841503 
L 686.003135 331.488816 
L 686.440439 328.524426 
L 687.315047 332.221553 
L 687.752351 330.170296 
L 688.189655 329.534853 
L 688.626959 323.740864 
L 689.064263 325.371532 
L 689.501567 324.024634 
L 689.938871 324.489816 
L 690.376176 322.876377 
L 690.81348 329.528772 
L 691.250784 330.764188 
L 692.125392 334.059981 
L 692.562696 333.656621 
L 693 333.827897 
L 693.437304 336.76087 
L 693.874608 332.945168 
L 694.311912 331.483749 
L 694.749216 330.654733 
L 695.18652 332.662411 
L 695.623824 336.505476 
L 696.061129 336.574392 
L 696.498433 335.341003 
L 696.935737 338.447278 
L 697.373041 338.410793 
L 697.810345 335.355192 
L 698.247649 337.121664 
L 698.684953 335.071421 
L 699.122257 336.907822 
L 699.559561 333.601894 
L 699.996865 327.944723 
L 700.434169 326.386012 
L 700.871473 327.911279 
L 701.308777 328.93184 
L 701.746082 325.562063 
L 702.183386 329.823691 
L 702.62069 331.053026 
L 703.057994 322.864215 
L 703.495298 324.367186 
L 703.932602 324.604337 
L 704.369906 318.56509 
L 704.80721 314.970324 
L 705.244514 319.625176 
L 705.681818 326.741739 
L 706.119122 319.677876 
L 706.556426 319.128577 
L 706.99373 320.677154 
L 707.431034 323.499659 
L 707.868339 318.051262 
L 708.305643 318.654275 
L 708.742947 316.068921 
L 709.180251 316.33749 
L 710.054859 311.137393 
L 710.492163 310.013458 
L 710.929467 305.451845 
L 711.804075 301.993897 
L 712.241379 306.051817 
L 712.678683 301.721274 
L 713.115987 301.577362 
L 713.553292 297.488024 
L 713.990596 300.185872 
L 714.4279 301.66148 
L 714.865204 307.224398 
L 715.302508 310.579986 
L 715.739812 305.929188 
L 716.177116 308.359481 
L 717.051724 316.219928 
L 717.489028 301.735463 
L 717.926332 307.942946 
L 718.363636 311.967422 
L 718.80094 313.299117 
L 719.238245 305.248138 
L 719.675549 307.313583 
L 720.112853 311.880264 
L 720.550157 312.340378 
L 720.987461 318.226592 
L 721.424765 331.532395 
L 721.862069 328.348083 
L 722.299373 321.48286 
L 722.736677 322.550041 
L 723.173981 327.041725 
L 723.611285 327.922427 
L 724.048589 325.169852 
L 724.485893 328.061272 
L 724.923197 333.500548 
L 725.360502 319.360661 
L 725.797806 319.93935 
L 726.23511 330.355761 
L 726.672414 330.5544 
L 727.109718 315.842918 
L 727.547022 316.190537 
L 727.984326 320.44507 
L 728.42163 309.963798 
L 728.858934 303.212084 
L 729.296238 315.115249 
L 729.733542 323.974975 
L 730.170846 313.141016 
L 730.60815 309.723607 
L 731.482759 310.297229 
L 731.920063 295.876612 
L 732.357367 294.858078 
L 732.794671 302.508738 
L 733.231975 296.229298 
L 734.106583 308.068616 
L 734.981191 301.761813 
L 735.418495 309.193564 
L 735.855799 314.140294 
L 736.293103 309.270587 
L 736.730408 296.632658 
L 737.167712 298.268393 
L 737.605016 302.914124 
L 738.04232 295.500616 
L 738.479624 298.747763 
L 738.916928 305.723454 
L 739.354232 304.454594 
L 739.791536 290.080596 
L 740.22884 289.589065 
L 740.666144 281.9455 
L 741.103448 284.622065 
L 741.540752 282.891064 
L 741.978056 290.36538 
L 742.415361 290.734282 
L 742.852665 289.45326 
L 743.289969 290.611653 
L 743.727273 297.014735 
L 744.164577 298.42244 
L 744.601881 295.319205 
L 745.039185 295.878639 
L 745.476489 293.558814 
L 745.913793 287.85097 
L 746.351097 276.920732 
L 746.788401 276.52852 
L 747.225705 276.713985 
L 747.663009 282.304267 
L 748.100313 285.203795 
L 748.537618 284.615984 
L 748.974922 285.598033 
L 749.412226 279.39055 
L 749.84953 282.023537 
L 750.286834 288.84214 
L 751.161442 278.842265 
L 751.598746 281.693146 
L 752.03605 277.191328 
L 752.473354 275.499852 
L 752.910658 285.101435 
L 753.347962 280.446582 
L 753.785266 277.215651 
L 754.222571 268.986302 
L 754.659875 273.319885 
L 755.097179 273.156717 
L 755.534483 271.926368 
L 755.971787 262.572071 
L 756.409091 261.375167 
L 756.846395 266.086774 
L 757.721003 261.556578 
L 758.158307 262.172765 
L 758.595611 268.18769 
L 759.032915 261.19173 
L 759.470219 262.944014 
L 759.907524 258.240515 
L 760.344828 255.043028 
L 760.782132 252.770835 
L 761.219436 254.103544 
L 761.65674 263.309875 
L 762.094044 263.013943 
L 762.531348 264.278749 
L 762.968652 263.278458 
L 763.405956 264.061867 
L 763.84326 261.568739 
L 764.280564 261.408612 
L 764.717868 260.911 
L 765.155172 266.049275 
L 765.592476 263.013943 
L 766.029781 262.191008 
L 766.467085 265.875973 
L 766.904389 265.556731 
L 767.341693 268.008306 
L 767.778997 267.089092 
L 768.216301 274.77421 
L 768.653605 273.547915 
L 769.090909 276.29745 
L 769.528213 275.393438 
L 769.965517 276.87918 
L 770.402821 273.201309 
L 770.840125 273.167865 
L 771.277429 281.741793 
L 771.714734 285.672016 
L 772.152038 286.248679 
L 772.589342 282.659994 
L 773.026646 288.909029 
L 773.46395 289.013416 
L 773.901254 285.785525 
L 774.338558 286.168615 
L 774.775862 290.757592 
L 775.65047 285.223051 
L 776.087774 288.13474 
L 776.525078 289.430964 
L 776.962382 290.28937 
L 777.399687 292.463256 
L 777.836991 297.253913 
L 778.274295 296.145181 
L 778.711599 292.854455 
L 779.148903 292.6923 
L 779.586207 294.511472 
L 780.023511 298.44879 
L 780.460815 298.114346 
L 781.335423 303.100602 
L 781.772727 309.31822 
L 782.210031 310.368172 
L 782.647335 315.6534 
L 783.084639 315.268283 
L 783.521944 320.246431 
L 783.959248 321.086595 
L 784.396552 324.165506 
L 784.833856 325.493148 
L 785.27116 329.575391 
L 785.708464 335.5214 
L 786.145768 337.254428 
L 786.583072 335.603491 
L 787.020376 328.519359 
L 787.45768 327.972087 
L 787.894984 327.952831 
L 788.332288 328.897382 
L 788.769592 327.221108 
L 789.206897 328.485915 
L 789.644201 332.0219 
L 790.081505 330.719595 
L 790.518809 328.349097 
L 790.956113 326.616069 
L 791.393417 325.978598 
L 791.830721 326.675863 
L 792.268025 325.380653 
L 792.705329 324.641836 
L 793.142633 328.228494 
L 793.579937 325.51443 
L 794.017241 327.803852 
L 794.454545 324.227328 
L 795.329154 329.310876 
L 795.766458 330.198673 
L 796.203762 329.18926 
L 797.07837 340.860342 
L 797.515674 342.41196 
L 797.952978 345.292232 
L 798.390282 345.781736 
L 798.827586 350.049444 
L 799.26489 349.653179 
L 799.702194 351.051763 
L 800.139498 350.8288 
L 800.576803 356.47989 
L 801.014107 358.259538 
L 801.451411 363.34714 
L 802.326019 369.598202 
L 803.200627 387.689595 
L 803.637931 391.916765 
L 804.512539 397.831356 
L 805.387147 406.220833 
L 805.824451 408.625789 
L 806.261755 408.272089 
L 807.136364 413.917098 
L 807.573668 414.871784 
L 808.010972 413.712378 
L 808.448276 407.582932 
L 808.88558 412.569188 
L 809.760188 407.223151 
L 810.197492 406.578586 
L 810.634796 406.310018 
L 811.0721 403.821957 
L 811.509404 403.9983 
L 811.946708 400.671089 
L 812.384013 399.825858 
L 812.821317 400.668049 
L 813.258621 402.800383 
L 813.695925 396.945586 
L 814.133229 396.027385 
L 814.570533 396.658775 
L 815.007837 396.983084 
L 815.445141 396.370951 
L 815.882445 394.218347 
L 816.319749 393.302174 
L 816.757053 393.393386 
L 817.194357 388.474018 
L 817.631661 388.732452 
L 818.068966 386.96902 
L 818.50627 389.059802 
L 818.943574 386.411614 
L 819.380878 385.745766 
L 819.818182 385.858261 
L 820.255486 385.415376 
L 820.69279 383.311419 
L 821.130094 387.378461 
L 821.567398 389.758081 
L 822.004702 388.115251 
L 822.442006 386.972061 
L 822.87931 389.757067 
L 823.316614 389.456068 
L 823.753918 387.800063 
L 824.191223 388.232813 
L 824.628527 389.442893 
L 825.065831 385.424497 
L 825.503135 386.725789 
L 825.940439 386.43391 
L 826.377743 388.504422 
L 827.252351 377.648168 
L 827.689655 378.22483 
L 828.126959 378.557247 
L 829.001567 375.570561 
L 829.438871 374.846946 
L 829.876176 376.861718 
L 830.31348 376.659024 
L 830.750784 377.195148 
L 831.188088 380.348043 
L 831.625392 381.041254 
L 832.062696 381.34124 
L 832.5 383.794843 
L 832.937304 384.073546 
L 833.374608 386.986249 
L 833.811912 382.924275 
L 834.249216 389.620249 
L 834.68652 400.653861 
L 835.561129 432.632787 
L 835.998433 452.476464 
L 836.873041 479.230969 
L 837.747649 515.170523 
L 838.184953 526.6531 
L 838.622257 530.760681 
L 839.059561 530.607647 
L 839.496865 532.358918 
L 839.934169 529.846534 
L 840.371473 531.454905 
L 840.808777 533.800067 
L 841.683386 527.175036 
L 843.432602 518.905148 
L 843.869906 515.060056 
L 844.30721 516.191084 
L 845.181818 510.50351 
L 845.619122 513.524654 
L 846.056426 512.595305 
L 846.49373 507.69114 
L 846.931034 508.211048 
L 847.368339 506.169926 
L 848.242947 499.186128 
L 848.680251 502.302537 
L 849.117555 496.622057 
L 849.554859 498.443257 
L 849.992163 503.476132 
L 850.429467 496.628138 
L 850.866771 492.428332 
L 851.304075 498.182796 
L 851.741379 499.576312 
L 852.178683 503.219725 
L 852.615987 508.112742 
L 853.053292 510.858223 
L 853.490596 506.896582 
L 853.9279 510.215685 
L 854.365204 512.670301 
L 854.802508 508.183684 
L 855.677116 495.85689 
L 856.11442 482.511561 
L 856.551724 454.539882 
L 856.989028 453.521348 
L 858.30094 426.385778 
L 859.175549 374.380751 
L 859.612853 369.898188 
L 860.050157 356.770755 
L 860.487461 350.899743 
L 860.924765 342.410946 
L 861.362069 337.836158 
L 861.799373 331.771573 
L 862.236677 332.399923 
L 862.673981 328.463618 
L 863.111285 333.641419 
L 863.548589 330.280764 
L 863.985893 334.256594 
L 864.423197 322.926037 
L 864.860502 326.087039 
L 865.297806 318.178959 
L 865.73511 315.253081 
L 866.172414 310.68944 
L 866.609718 307.943959 
L 867.047022 307.969296 
L 867.484326 310.241488 
L 867.92163 306.60821 
L 868.358934 305.773114 
L 868.796238 306.93252 
L 869.233542 309.286803 
L 869.670846 308.256107 
L 870.10815 310.538434 
L 870.545455 315.50442 
L 871.420063 315.100047 
L 871.857367 316.143918 
L 872.294671 313.011293 
L 872.731975 311.206308 
L 873.169279 311.053275 
L 873.606583 316.28479 
L 874.043887 316.854358 
L 874.481191 321.580153 
L 874.918495 317.063132 
L 875.355799 314.186914 
L 875.793103 313.436949 
L 876.230408 311.953233 
L 876.667712 316.935435 
L 877.105016 314.10685 
L 877.54232 313.849429 
L 877.979624 313.919359 
L 878.416928 313.67714 
L 878.854232 315.775016 
L 879.72884 312.629216 
L 880.166144 312.260314 
L 880.603448 315.83177 
L 881.040752 313.92848 
L 881.478056 315.468949 
L 881.915361 315.77603 
L 882.352665 318.947167 
L 883.227273 322.199381 
L 883.664577 340.103283 
L 884.101881 350.391996 
L 884.539185 355.51507 
L 884.976489 352.865868 
L 885.413793 354.008045 
L 885.851097 355.629592 
L 886.288401 359.366243 
L 886.725705 359.310502 
L 887.163009 363.239713 
L 887.600313 365.040643 
L 888.037618 362.71271 
L 888.474922 361.04353 
L 888.912226 361.481348 
L 889.34953 362.998508 
L 889.786834 362.232327 
L 890.224138 361.986054 
L 891.098746 363.837658 
L 891.53605 364.397092 
L 891.973354 363.761648 
L 892.410658 360.000673 
L 892.847962 362.463397 
L 893.285266 359.919596 
L 893.722571 359.8973 
L 894.159875 358.704449 
L 895.471787 352.730064 
L 895.909091 347.967784 
L 896.346395 347.086068 
L 896.783699 346.95229 
L 897.658307 342.207239 
L 898.095611 340.910002 
L 898.532915 342.955178 
L 899.407524 343.95851 
L 899.844828 342.277169 
L 900.282132 342.579182 
L 901.15674 346.395897 
L 901.594044 352.533451 
L 902.031348 354.373906 
L 902.468652 354.611058 
L 902.905956 353.25808 
L 903.34326 349.830536 
L 903.780564 351.297022 
L 904.217868 347.140795 
L 904.655172 338.121955 
L 905.092476 340.904935 
L 905.529781 336.477099 
L 905.967085 329.334186 
L 906.404389 332.099937 
L 906.841693 330.056788 
L 907.278997 326.594786 
L 907.716301 317.863771 
L 908.153605 315.613875 
L 908.590909 316.897937 
L 909.028213 315.49834 
L 909.465517 299.672045 
L 909.902821 313.622413 
L 910.340125 317.815124 
L 910.777429 316.612139 
L 911.214734 311.843779 
L 911.652038 314.009557 
L 912.089342 313.315333 
L 912.526646 313.258578 
L 912.96395 310.600255 
L 913.401254 309.419567 
L 913.838558 313.648763 
L 914.275862 314.56595 
L 914.713166 309.220927 
L 915.15047 306.850429 
L 915.587774 310.343848 
L 916.025078 306.754149 
L 916.462382 307.286219 
L 916.899687 305.290704 
L 917.336991 301.821607 
L 917.774295 301.631076 
L 918.211599 301.009821 
L 918.648903 298.761952 
L 919.086207 293.60746 
L 919.523511 295.91107 
L 919.960815 292.258536 
L 920.398119 280.564145 
L 920.835423 281.853274 
L 921.272727 282.451219 
L 921.710031 281.677944 
L 922.147335 276.220427 
L 923.021944 269.546749 
L 923.459248 269.233588 
L 923.896552 264.616234 
L 924.333856 256.373709 
L 924.77116 252.885357 
L 925.208464 248.482858 
L 925.645768 249.081817 
L 926.083072 246.666726 
L 926.520376 238.499198 
L 926.95768 235.773986 
L 927.394984 236.302003 
L 927.832288 235.915872 
L 928.269592 237.136086 
L 928.706897 232.917024 
L 929.144201 233.585912 
L 929.581505 236.661783 
L 930.456113 244.233393 
L 930.893417 251.820204 
L 931.330721 256.185205 
L 931.768025 256.298713 
L 932.205329 256.954426 
L 932.642633 263.742625 
L 933.079937 265.681387 
L 933.517241 269.846735 
L 933.954545 276.232588 
L 933.954545 276.232588 
" style="fill:none;stroke:#ff0000;stroke-linecap:square;stroke-width:1.5;"/>
   </g>
   <g id="line2d_34">
    <path clip-path="url(#pbeef1bce69)" d="M 173.045455 467.412935 
L 174.794671 471.731316 
L 175.231975 472.189403 
L 175.669279 472.0161 
L 176.106583 473.355903 
L 176.543887 475.118322 
L 177.418495 475.823695 
L 177.855799 475.336217 
L 178.293103 474.607535 
L 178.730408 473.054904 
L 179.167712 471.005674 
L 179.605016 469.588848 
L 180.04232 469.180421 
L 180.479624 469.856403 
L 180.916928 471.486057 
L 183.978056 491.261832 
L 185.289969 496.262276 
L 185.727273 495.528526 
L 186.164577 494.401552 
L 186.601881 492.926958 
L 187.039185 490.00716 
L 188.788401 473.552516 
L 189.663009 469.749989 
L 190.100313 469.029414 
L 190.537618 467.989597 
L 190.974922 467.281184 
L 191.84953 464.992777 
L 192.286834 464.962373 
L 192.724138 464.697858 
L 193.161442 461.932107 
L 194.910658 439.248697 
L 195.347962 436.638007 
L 195.785266 437.024138 
L 196.222571 436.699828 
L 196.659875 435.986348 
L 197.097179 435.745143 
L 197.534483 436.746448 
L 197.971787 437.033259 
L 198.409091 436.83462 
L 198.846395 435.965065 
L 199.283699 434.128664 
L 199.721003 434.258387 
L 200.158307 435.015447 
L 200.595611 434.711407 
L 201.470219 430.978809 
L 201.907524 430.42951 
L 202.344828 429.659276 
L 202.782132 428.441089 
L 203.219436 425.863843 
L 203.65674 421.569785 
L 204.094044 415.933897 
L 204.531348 412.046239 
L 204.968652 411.483765 
L 205.84326 412.556013 
L 206.280564 411.810101 
L 206.717868 409.979781 
L 208.029781 400.402521 
L 208.467085 402.93112 
L 208.904389 410.051737 
L 209.778997 426.993858 
L 210.216301 432.117946 
L 210.653605 433.828677 
L 211.090909 433.062497 
L 211.528213 431.912212 
L 211.965517 428.85357 
L 213.277429 414.263704 
L 213.714734 407.941699 
L 215.901254 368.81682 
L 216.338558 364.807546 
L 216.775862 362.911349 
L 217.213166 361.638435 
L 217.65047 360.894551 
L 218.087774 361.390136 
L 218.525078 362.883986 
L 218.962382 365.195703 
L 219.836991 372.311252 
L 220.274295 376.375254 
L 222.023511 399.231967 
L 222.460815 407.604215 
L 223.335423 431.241297 
L 223.772727 439.487875 
L 224.210031 444.276505 
L 224.647335 447.782086 
L 225.084639 449.316475 
L 225.521944 448.234092 
L 225.959248 444.8481 
L 228.145768 421.348849 
L 229.45768 399.588707 
L 229.894984 396.385139 
L 230.769592 399.447835 
L 231.206897 397.881016 
L 231.644201 397.125983 
L 232.081505 397.02869 
L 232.518809 398.616793 
L 232.956113 401.974408 
L 233.830721 412.043199 
L 234.268025 422.484945 
L 234.705329 430.266342 
L 235.579937 436.654222 
L 236.017241 438.188611 
L 236.454545 438.172396 
L 236.89185 436.897454 
L 237.329154 434.752959 
L 238.203762 429.842713 
L 238.641066 427.466134 
L 239.515674 421.504923 
L 240.390282 416.509546 
L 240.827586 413.615085 
L 241.26489 409.594663 
L 242.139498 397.404686 
L 243.451411 379.474435 
L 244.763323 359.307462 
L 245.637931 350.232882 
L 246.075235 346.055372 
L 246.512539 343.550083 
L 246.949843 342.638976 
L 247.824451 337.401381 
L 248.261755 338.044932 
L 248.69906 339.118193 
L 249.136364 337.496647 
L 249.573668 336.549055 
L 250.010972 336.035228 
L 250.448276 336.00381 
L 252.634796 326.353581 
L 253.0721 327.08429 
L 253.509404 329.393981 
L 254.384013 332.295536 
L 254.821317 333.653581 
L 255.258621 333.425551 
L 255.695925 332.347223 
L 256.133229 330.384138 
L 257.445141 318.454622 
L 257.882445 315.37571 
L 258.319749 313.547416 
L 258.757053 312.341391 
L 259.631661 309.082082 
L 260.068966 306.965964 
L 260.943574 299.994327 
L 261.380878 295.068879 
L 262.255486 282.419802 
L 262.69279 279.982415 
L 263.130094 278.614235 
L 263.567398 278.053788 
L 264.004702 277.793327 
L 264.442006 279.095631 
L 264.87931 281.247221 
L 265.316614 282.743098 
L 265.753918 283.140377 
L 266.191223 284.172086 
L 267.065831 287.062493 
L 267.503135 287.571253 
L 268.815047 290.143431 
L 269.689655 294.484109 
L 270.126959 295.974918 
L 270.564263 295.947555 
L 271.001567 296.330645 
L 271.438871 297.857939 
L 271.876176 298.558245 
L 272.31348 298.950456 
L 272.750784 299.529146 
L 273.188088 300.772669 
L 273.625392 301.351359 
L 274.062696 299.431853 
L 274.937304 292.937559 
L 275.374608 291.20149 
L 275.811912 291.067713 
L 276.249216 291.542015 
L 276.68652 292.225092 
L 277.123824 295.313125 
L 277.561129 299.286927 
L 277.998433 301.721274 
L 278.435737 303.148235 
L 278.873041 303.176612 
L 279.310345 304.887344 
L 279.747649 305.464006 
L 280.184953 304.706947 
L 280.622257 303.644834 
L 281.059561 303.509029 
L 281.934169 301.271295 
L 282.371473 301.15576 
L 282.808777 301.426355 
L 283.683386 303.185733 
L 284.557994 308.001727 
L 286.30721 323.866534 
L 287.181818 330.032465 
L 287.619122 331.13613 
L 288.056426 331.664146 
L 288.49373 332.484041 
L 289.368339 332.992801 
L 289.805643 333.346501 
L 290.242947 333.972823 
L 290.680251 335.326814 
L 291.992163 338.094592 
L 292.429467 338.223302 
L 292.866771 337.29598 
L 293.304075 337.730757 
L 293.741379 337.428744 
L 294.178683 336.629119 
L 295.490596 335.37242 
L 295.9279 335.543696 
L 296.365204 335.487956 
L 296.802508 336.122386 
L 297.239812 337.577724 
L 297.677116 338.018582 
L 298.11442 337.325371 
L 298.551724 336.409197 
L 298.989028 334.668061 
L 299.863636 330.202727 
L 300.738245 327.499812 
L 301.175549 327.022469 
L 301.612853 328.522399 
L 302.487461 332.908683 
L 302.924765 334.730896 
L 303.799373 339.282375 
L 304.673981 342.392704 
L 305.111285 342.825454 
L 305.548589 342.549791 
L 305.985893 342.507226 
L 306.423197 342.265007 
L 306.860502 341.87989 
L 307.297806 342.916666 
L 308.172414 347.7357 
L 308.609718 348.4431 
L 309.484326 350.70009 
L 309.92163 351.174392 
L 310.358934 350.993995 
L 310.796238 349.293398 
L 311.233542 347.032354 
L 311.670846 343.787234 
L 312.545455 335.245737 
L 312.982759 332.511404 
L 313.420063 330.981069 
L 313.857367 331.328689 
L 314.294671 332.309724 
L 314.731975 332.864091 
L 315.169279 332.450596 
L 315.606583 332.688761 
L 316.043887 334.059981 
L 316.481191 336.817624 
L 317.355799 344.85036 
L 318.230408 353.525635 
L 319.54232 363.739352 
L 319.979624 365.63048 
L 320.416928 366.198022 
L 320.854232 366.024719 
L 321.291536 366.026746 
L 321.72884 365.415625 
L 322.166144 365.076114 
L 322.603448 365.205838 
L 323.040752 364.478169 
L 324.352665 360.871241 
L 325.227273 357.627134 
L 325.664577 356.509281 
L 326.101881 354.704297 
L 326.539185 352.412849 
L 326.976489 350.813598 
L 327.413793 349.770741 
L 327.851097 348.228245 
L 328.288401 348.026565 
L 328.725705 348.097508 
L 329.163009 347.230994 
L 329.600313 345.621609 
L 330.037618 342.864979 
L 330.912226 334.534284 
L 331.786834 325.377612 
L 332.224138 322.991912 
L 332.661442 321.690621 
L 333.098746 319.267422 
L 333.53605 315.649346 
L 333.973354 310.311417 
L 334.410658 301.905725 
L 334.847962 296.093494 
L 335.285266 293.65408 
L 335.722571 292.725744 
L 336.159875 292.981138 
L 336.597179 294.602684 
L 337.034483 297.337017 
L 337.909091 306.878806 
L 338.783699 317.538448 
L 340.095611 327.916346 
L 340.532915 331.070255 
L 341.844828 335.31668 
L 342.282132 335.4687 
L 342.719436 334.213015 
L 343.15674 330.953706 
L 346.217868 292.422718 
L 347.529781 285.347707 
L 347.967085 283.61772 
L 348.404389 282.343792 
L 348.841693 280.55705 
L 349.278997 278.20074 
L 350.590909 268.053912 
L 351.028213 266.102989 
L 351.465517 266.177986 
L 351.902821 267.896825 
L 353.214734 271.518955 
L 353.652038 273.460757 
L 354.089342 274.77725 
L 354.526646 277.580499 
L 355.401254 284.603823 
L 356.713166 292.396368 
L 357.15047 293.868935 
L 357.587774 294.005753 
L 358.025078 292.536226 
L 358.462382 290.509293 
L 358.899687 289.793785 
L 359.336991 285.804781 
L 359.774295 278.361882 
L 360.211599 273.78912 
L 361.523511 267.508667 
L 361.960815 267.42759 
L 362.398119 267.665755 
L 362.835423 269.40385 
L 363.272727 267.697172 
L 364.584639 257.19259 
L 365.021944 256.706126 
L 365.459248 256.902739 
L 365.896552 256.596672 
L 366.333856 256.757813 
L 366.77116 260.262381 
L 367.208464 265.479707 
L 368.083072 280.035115 
L 368.520376 287.483081 
L 368.95768 290.927854 
L 369.394984 291.702143 
L 369.832288 296.005322 
L 371.144201 316.823954 
L 371.581505 327.145098 
L 372.018809 331.480709 
L 372.456113 332.903616 
L 372.893417 336.004824 
L 373.330721 334.513001 
L 374.205329 315.585498 
L 374.642633 309.600977 
L 375.517241 304.515402 
L 375.954545 301.156773 
L 376.39185 300.979417 
L 376.829154 301.8662 
L 377.266458 307.647014 
L 377.703762 321.500089 
L 378.57837 355.727898 
L 379.452978 380.724039 
L 379.890282 384.212391 
L 380.327586 375.000993 
L 381.639498 356.556914 
L 382.076803 343.820678 
L 382.951411 327.796757 
L 383.388715 323.822955 
L 384.263323 319.031284 
L 384.700627 321.071393 
L 385.575235 337.390233 
L 387.761755 374.834784 
L 388.19906 378.918042 
L 388.636364 381.410156 
L 389.073668 380.306491 
L 389.510972 381.902701 
L 389.948276 387.968299 
L 390.38558 391.003631 
L 390.822884 391.395843 
L 391.260188 392.618084 
L 391.697492 395.782126 
L 392.134796 397.853652 
L 393.009404 398.221541 
L 393.446708 400.345767 
L 393.884013 404.52429 
L 394.321317 409.972686 
L 394.758621 412.748571 
L 396.070533 417.512878 
L 396.507837 421.353917 
L 398.257053 454.268273 
L 398.694357 458.740701 
L 399.568966 477.247615 
L 400.443574 497.154127 
L 401.318182 511.325431 
L 401.755486 515.563748 
L 402.19279 517.191376 
L 402.630094 514.451976 
L 403.942006 499.284434 
L 405.691223 472.616073 
L 406.128527 468.360526 
L 407.440439 464.095859 
L 408.315047 465.965705 
L 409.189655 469.287848 
L 410.501567 478.121223 
L 410.938871 477.469564 
L 411.376176 475.870314 
L 411.81348 476.628387 
L 412.250784 475.821668 
L 412.688088 472.361693 
L 414.437304 450.844782 
L 415.311912 441.733717 
L 415.749216 436.961303 
L 416.18652 434.872548 
L 416.623824 436.126206 
L 417.498433 441.270563 
L 417.935737 445.694345 
L 418.810345 456.543505 
L 419.684953 462.305063 
L 420.559561 467.629817 
L 420.996865 472.114407 
L 421.871473 484.723959 
L 423.183386 506.241882 
L 424.057994 518.002149 
L 424.932602 525.511937 
L 425.369906 528.501664 
L 426.681818 535.184463 
L 427.556426 541.537885 
L 427.99373 544.148575 
L 428.431034 545.956599 
L 428.868339 545.934303 
L 429.305643 545.680937 
L 430.180251 543.29929 
L 430.617555 543.523266 
L 431.054859 545.389058 
L 432.804075 557.680382 
L 433.241379 558.34927 
L 433.678683 557.771594 
L 434.115987 555.937219 
L 434.990596 548.746673 
L 435.865204 538.059667 
L 436.739812 527.315908 
L 437.177116 522.570857 
L 437.61442 519.111895 
L 438.489028 515.117823 
L 438.926332 514.205703 
L 439.363636 515.188766 
L 439.80094 517.417379 
L 440.675549 523.752559 
L 441.550157 525.7876 
L 441.987461 524.546103 
L 442.424765 520.039217 
L 442.862069 513.47398 
L 445.048589 473.464344 
L 445.923197 463.221237 
L 446.797806 454.834801 
L 448.109718 439.016613 
L 449.42163 416.720347 
L 450.733542 395.126413 
L 452.482759 372.341656 
L 453.357367 356.270103 
L 453.794671 352.036852 
L 454.231975 350.135589 
L 454.669279 347.567465 
L 455.543887 336.818637 
L 456.418495 321.106864 
L 456.855799 315.891565 
L 458.167712 305.207599 
L 458.605016 306.24843 
L 459.04232 306.8859 
L 459.479624 305.324148 
L 460.354232 297.7647 
L 462.103448 276.649123 
L 462.978056 270.794326 
L 463.415361 265.888134 
L 463.852665 259.378638 
L 465.164577 232.575486 
L 466.039185 213.82838 
L 466.476489 209.822146 
L 466.913793 208.505653 
L 467.788401 204.663601 
L 468.663009 203.575138 
L 469.100313 204.263282 
L 469.537618 206.039889 
L 469.974922 206.923632 
L 470.412226 206.68648 
L 470.84953 205.661866 
L 472.161442 198.80171 
L 472.598746 198.27268 
L 473.03605 196.815315 
L 473.473354 194.558325 
L 473.910658 193.556007 
L 474.347962 193.956326 
L 474.785266 195.671112 
L 476.534483 206.031781 
L 477.846395 213.999656 
L 480.032915 231.172848 
L 480.470219 232.547109 
L 480.907524 231.873153 
L 481.344828 228.496283 
L 481.782132 221.818551 
L 482.65674 202.443096 
L 485.280564 136.039748 
L 486.155172 120.559045 
L 486.592476 116.734222 
L 487.467085 112.691504 
L 487.904389 111.6 
L 488.341693 112.207067 
L 488.778997 113.590448 
L 489.216301 116.292351 
L 490.090909 124.157865 
L 490.965517 135.681994 
L 492.714734 160.150119 
L 493.589342 174.478511 
L 496.65047 234.823355 
L 497.525078 244.924577 
L 498.399687 252.919815 
L 498.836991 254.190702 
L 499.274295 253.627215 
L 499.711599 251.15841 
L 500.586207 242.993923 
L 501.023511 237.626603 
L 502.335423 218.797407 
L 502.772727 213.115913 
L 503.210031 208.88469 
L 504.084639 203.779858 
L 504.959248 195.706583 
L 505.396552 193.950245 
L 506.27116 191.854396 
L 506.708464 191.658797 
L 507.145768 192.566863 
L 508.45768 199.899294 
L 508.894984 204.309901 
L 509.769592 218.615996 
L 511.081505 247.831199 
L 512.830721 293.757453 
L 515.017241 354.330327 
L 515.89185 371.035298 
L 516.329154 376.694496 
L 517.641066 388.238894 
L 519.827586 405.838756 
L 523.326019 437.150821 
L 524.200627 440.349322 
L 524.637931 441.086112 
L 525.075235 440.589513 
L 525.512539 439.422 
L 525.949843 438.683183 
L 526.387147 437.363649 
L 526.824451 434.63337 
L 527.261755 433.803341 
L 527.69906 433.255055 
L 528.136364 431.491623 
L 528.573668 431.164274 
L 529.010972 431.662899 
L 529.448276 431.36494 
L 529.88558 430.355527 
L 530.322884 428.438048 
L 530.760188 425.529399 
L 531.197492 420.909005 
L 531.634796 413.956624 
L 532.509404 393.816001 
L 534.258621 348.243447 
L 534.695925 340.740753 
L 535.570533 330.747972 
L 536.445141 326.95558 
L 536.882445 326.314056 
L 537.319749 324.296244 
L 538.194357 316.433769 
L 538.631661 310.625592 
L 539.943574 282.613374 
L 540.818182 261.868726 
L 541.255486 256.296686 
L 541.69279 253.143791 
L 542.130094 253.041431 
L 542.567398 256.775042 
L 545.191223 286.035851 
L 546.065831 292.832158 
L 546.503135 296.757315 
L 546.940439 299.592994 
L 547.377743 300.767602 
L 547.815047 298.592703 
L 548.689655 288.417498 
L 550.876176 257.427715 
L 551.31348 256.180137 
L 551.750784 256.473029 
L 552.188088 257.484469 
L 552.625392 257.395284 
L 553.062696 258.080387 
L 553.5 259.079665 
L 553.937304 259.429311 
L 554.811912 265.034795 
L 555.249216 268.36302 
L 556.123824 278.248373 
L 556.998433 289.566769 
L 557.873041 300.26999 
L 558.310345 303.790773 
L 559.622257 309.991162 
L 560.059561 311.011723 
L 560.934169 305.170101 
L 561.371473 304.17589 
L 561.808777 302.100311 
L 562.246082 300.897326 
L 562.683386 302.114499 
L 563.12069 304.511348 
L 563.557994 308.184151 
L 563.995298 313.695382 
L 564.432602 323.097313 
L 567.931034 432.012545 
L 568.805643 451.675825 
L 570.117555 477.937786 
L 570.554859 484.975298 
L 570.992163 489.362595 
L 571.866771 493.490445 
L 572.304075 494.056973 
L 572.741379 492.675618 
L 573.178683 492.651295 
L 573.615987 491.336828 
L 574.9279 484.66011 
L 575.365204 482.972688 
L 575.802508 483.348684 
L 576.239812 486.128623 
L 578.426332 506.060472 
L 579.30094 516.361347 
L 579.738245 519.464582 
L 580.612853 522.831318 
L 581.050157 524.342396 
L 582.362069 527.525695 
L 583.236677 528.113506 
L 583.673981 528.580714 
L 584.548589 526.762555 
L 584.985893 526.67641 
L 585.423197 526.834511 
L 585.860502 526.814242 
L 586.297806 527.914866 
L 587.172414 530.917768 
L 587.609718 533.000442 
L 588.047022 534.325043 
L 588.484326 534.062555 
L 589.358934 531.456932 
L 589.796238 528.661791 
L 590.670846 519.823349 
L 592.420063 499.593541 
L 593.731975 480.504897 
L 595.481191 452.784558 
L 595.918495 444.741686 
L 597.230408 426.619889 
L 598.54232 406.151917 
L 599.416928 395.084861 
L 600.291536 382.07499 
L 601.166144 373.74024 
L 602.915361 348.347834 
L 603.789969 331.598271 
L 604.227273 325.834686 
L 604.664577 322.406128 
L 605.101881 321.691634 
L 605.539185 322.47099 
L 606.413793 328.136269 
L 606.851097 328.031882 
L 607.725705 324.297257 
L 609.037618 313.85247 
L 609.474922 312.508613 
L 610.34953 308.235838 
L 610.786834 309.794549 
L 611.661442 308.404073 
L 612.098746 310.714777 
L 612.53605 317.162452 
L 613.847962 328.038976 
L 614.722571 347.214778 
L 615.159875 353.388817 
L 615.597179 354.995162 
L 616.034483 354.309045 
L 616.471787 347.135728 
L 617.783699 313.359925 
L 619.532915 247.807889 
L 620.407524 231.071501 
L 621.282132 212.657826 
L 622.594044 178.787771 
L 623.468652 169.226727 
L 624.34326 155.782078 
L 624.780564 152.438652 
L 625.217868 150.775553 
L 625.655172 150.203958 
L 626.092476 150.269833 
L 626.967085 154.985493 
L 627.841693 164.449245 
L 628.716301 175.239624 
L 629.153605 178.598253 
L 629.590909 182.895351 
L 630.465517 196.713969 
L 630.902821 201.664753 
L 631.340125 209.103598 
L 632.214734 230.487744 
L 633.089342 252.145527 
L 633.96395 269.917678 
L 634.401254 275.868754 
L 635.275862 281.767129 
L 635.713166 282.108668 
L 636.15047 280.230714 
L 636.587774 276.125161 
L 637.462382 263.824716 
L 638.336991 245.739404 
L 639.648903 218.815649 
L 640.086207 211.601794 
L 640.960815 200.968502 
L 642.272727 179.755631 
L 643.147335 168.031849 
L 643.584639 163.687118 
L 644.021944 162.46285 
L 644.459248 162.81655 
L 644.896552 162.482106 
L 645.333856 163.244233 
L 646.208464 165.599529 
L 646.645768 166.390033 
L 647.520376 169.536847 
L 647.95768 170.929351 
L 648.394984 171.145219 
L 648.832288 173.011011 
L 649.269592 176.229781 
L 651.018809 202.793755 
L 651.456113 206.086508 
L 651.893417 205.154119 
L 652.768025 202.717745 
L 653.205329 202.265739 
L 653.642633 199.832406 
L 654.079937 201.176262 
L 654.954545 223.210041 
L 655.39185 234.562894 
L 656.266458 249.406126 
L 656.703762 253.592757 
L 657.141066 256.388911 
L 658.015674 258.269905 
L 658.452978 256.968614 
L 658.890282 254.734934 
L 659.327586 254.048817 
L 659.76489 254.542375 
L 660.202194 255.97035 
L 660.639498 256.352427 
L 661.514107 256.58147 
L 662.388715 259.672543 
L 664.575235 270.414276 
L 665.449843 274.128631 
L 665.887147 277.703128 
L 667.19906 292.500755 
L 667.636364 298.212653 
L 668.073668 301.732422 
L 668.510972 306.990287 
L 671.134796 351.315264 
L 672.884013 371.941337 
L 673.321317 375.53813 
L 673.758621 376.928607 
L 674.195925 375.981015 
L 674.633229 372.703464 
L 675.945141 356.834603 
L 676.819749 342.748431 
L 677.257053 338.30742 
L 677.694357 335.913612 
L 678.131661 332.516471 
L 678.568966 328.229508 
L 679.00627 325.125259 
L 679.443574 323.719581 
L 679.880878 318.3401 
L 680.318182 310.899228 
L 680.755486 315.304768 
L 682.942006 344.936505 
L 683.816614 353.858052 
L 684.253918 356.787984 
L 684.691223 357.264313 
L 685.128527 356.80724 
L 685.565831 355.805935 
L 686.440439 354.24925 
L 686.877743 352.65 
L 689.064263 338.701658 
L 690.376176 326.437699 
L 690.81348 323.287844 
L 691.250784 321.47982 
L 691.688088 320.553511 
L 692.125392 321.422052 
L 692.562696 321.989593 
L 693 321.917637 
L 693.437304 322.008849 
L 693.874608 320.829174 
L 694.311912 319.305934 
L 694.749216 319.447819 
L 695.623824 319.056621 
L 696.061129 319.995091 
L 696.498433 323.344598 
L 697.810345 338.557746 
L 698.247649 341.341739 
L 698.684953 341.444099 
L 699.122257 340.861356 
L 699.996865 336.908836 
L 700.434169 336.201436 
L 700.871473 335.794023 
L 701.308777 334.914334 
L 701.746082 332.539781 
L 702.183386 328.664285 
L 703.057994 322.919956 
L 703.495298 320.932548 
L 703.932602 319.956579 
L 704.369906 321.993647 
L 705.244514 328.797049 
L 705.681818 332.349249 
L 706.556426 336.172046 
L 706.99373 337.264563 
L 707.431034 336.415278 
L 708.305643 334.375169 
L 708.742947 335.031896 
L 709.180251 336.946334 
L 710.492163 340.805615 
L 710.929467 340.453942 
L 712.241379 335.793009 
L 712.678683 334.614347 
L 713.115987 331.953997 
L 713.990596 323.38311 
L 714.865204 318.791093 
L 715.302508 317.724926 
L 715.739812 319.205601 
L 716.177116 319.128577 
L 716.61442 317.179681 
L 717.051724 316.352692 
L 717.489028 315.142613 
L 717.926332 312.025189 
L 718.363636 310.172572 
L 718.80094 312.092078 
L 719.238245 315.582457 
L 719.675549 316.124662 
L 720.112853 316.886789 
L 720.987461 319.98293 
L 721.424765 319.434644 
L 721.862069 318.36645 
L 722.736677 315.409155 
L 723.611285 308.282457 
L 724.048589 304.138392 
L 724.923197 293.097687 
L 725.360502 289.518122 
L 725.797806 287.97968 
L 726.23511 287.139516 
L 726.672414 285.832144 
L 727.109718 285.133866 
L 727.547022 286.437184 
L 727.984326 289.980263 
L 728.858934 301.061507 
L 729.296238 303.985359 
L 730.60815 316.736796 
L 731.045455 315.019983 
L 731.482759 316.035477 
L 731.920063 317.73202 
L 732.357367 318.698867 
L 732.794671 317.403657 
L 733.231975 317.610404 
L 734.106583 319.892731 
L 734.543887 323.562494 
L 734.981191 328.714958 
L 735.418495 330.559467 
L 735.855799 330.047667 
L 736.293103 330.477377 
L 737.167712 333.502574 
L 737.605016 334.638671 
L 738.04232 337.60002 
L 738.479624 338.201006 
L 738.916928 333.791412 
L 739.354232 332.158718 
L 739.791536 334.006267 
L 740.22884 332.827606 
L 740.666144 326.893759 
L 741.540752 319.036352 
L 742.415361 306.698409 
L 743.289969 312.05458 
L 743.727273 311.264076 
L 744.164577 309.964812 
L 744.601881 309.028369 
L 745.039185 305.705212 
L 745.476489 298.124481 
L 745.913793 293.418955 
L 746.351097 291.383914 
L 746.788401 290.360313 
L 748.537618 303.622538 
L 749.412226 315.735491 
L 749.84953 316.594911 
L 750.286834 312.198492 
L 750.724138 309.184442 
L 751.161442 307.099742 
L 751.598746 302.808724 
L 752.03605 300.142293 
L 752.473354 300.630784 
L 752.910658 297.646125 
L 754.222571 273.143542 
L 754.659875 268.23735 
L 755.097179 265.783747 
L 755.971787 271.628409 
L 756.409091 275.359993 
L 756.846395 280.383748 
L 757.721003 293.989537 
L 758.158307 298.5248 
L 758.595611 301.682762 
L 759.032915 302.252331 
L 759.470219 297.398839 
L 760.344828 282.194812 
L 760.782132 277.770017 
L 761.219436 278.764228 
L 762.094044 282.015429 
L 762.531348 281.877597 
L 762.968652 279.771614 
L 763.405956 280.582387 
L 763.84326 282.119816 
L 764.280564 280.65637 
L 765.155172 276.447443 
L 765.592476 272.183789 
L 766.029781 271.237211 
L 766.467085 273.296575 
L 766.904389 274.133699 
L 767.341693 272.155412 
L 767.778997 268.76942 
L 768.216301 267.696159 
L 768.653605 266.976597 
L 769.090909 264.227062 
L 769.528213 259.085746 
L 769.965517 256.268309 
L 770.402821 255.732185 
L 771.277429 253.756939 
L 771.714734 255.756508 
L 772.152038 258.731033 
L 772.589342 259.546873 
L 773.026646 259.920843 
L 773.46395 258.499962 
L 774.338558 253.442764 
L 774.775862 254.154217 
L 776.087774 265.822259 
L 776.525078 268.780568 
L 776.962382 270.09098 
L 777.399687 270.104155 
L 777.836991 269.700796 
L 778.711599 271.33045 
L 779.148903 270.747707 
L 779.586207 271.513888 
L 780.460815 274.353621 
L 780.898119 276.120093 
L 781.335423 278.9578 
L 782.210031 286.340904 
L 782.647335 288.711403 
L 783.084639 289.775543 
L 783.521944 289.306308 
L 783.959248 286.967227 
L 784.396552 286.477722 
L 785.708464 294.713152 
L 786.583072 298.297784 
L 787.020376 298.701144 
L 787.45768 297.187024 
L 787.894984 296.47253 
L 788.332288 296.774543 
L 789.206897 294.385803 
L 789.644201 294.326008 
L 790.081505 294.894563 
L 790.518809 295.810737 
L 791.393417 301.011848 
L 791.830721 301.99187 
L 792.705329 300.763548 
L 793.142633 301.553039 
L 794.017241 306.120733 
L 794.454545 309.170254 
L 795.329154 318.979598 
L 796.641066 333.2938 
L 797.515674 341.013376 
L 798.390282 347.809683 
L 799.702194 361.213793 
L 800.139498 360.50538 
L 801.451411 348.206962 
L 802.326019 340.982972 
L 802.763323 338.790843 
L 803.200627 338.051013 
L 803.637931 336.667631 
L 804.512539 333.056649 
L 804.949843 332.22358 
L 805.387147 332.285401 
L 805.824451 332.134395 
L 806.261755 333.208669 
L 807.136364 337.240239 
L 807.573668 338.947931 
L 808.010972 339.457704 
L 808.448276 341.683277 
L 809.760188 351.25547 
L 811.509404 373.777739 
L 812.384013 381.742573 
L 812.821317 383.930648 
L 813.258621 384.610684 
L 813.695925 385.591719 
L 814.570533 389.786458 
L 815.445141 394.986555 
L 815.882445 398.730301 
L 816.757053 412.375616 
L 817.631661 425.643921 
L 818.50627 434.700259 
L 818.943574 437.580531 
L 819.380878 438.856485 
L 819.818182 438.350766 
L 820.255486 437.430538 
L 820.69279 436.839687 
L 821.130094 435.468467 
L 822.442006 423.424429 
L 825.065831 397.486777 
L 825.503135 394.233549 
L 825.940439 392.074865 
L 826.377743 391.178961 
L 826.815047 390.873907 
L 827.252351 389.790512 
L 827.689655 389.499647 
L 828.126959 390.320555 
L 828.564263 391.615765 
L 829.001567 393.272783 
L 829.438871 394.481849 
L 829.876176 395.134521 
L 830.31348 394.981488 
L 831.625392 391.612725 
L 832.937304 389.988138 
L 833.811912 390.236437 
L 834.249216 390.922554 
L 835.123824 396.093261 
L 835.561129 397.406713 
L 835.998433 398.11614 
L 836.435737 399.190415 
L 836.873041 399.361691 
L 837.747649 397.714807 
L 838.184953 396.507769 
L 839.059561 393.219069 
L 839.496865 392.248168 
L 839.934169 390.543517 
L 840.371473 386.701465 
L 841.246082 377.456623 
L 842.557994 368.388123 
L 842.995298 366.786846 
L 843.432602 366.801034 
L 843.869906 367.218583 
L 844.30721 368.414473 
L 845.619122 375.840143 
L 846.49373 381.495287 
L 847.368339 384.855943 
L 847.805643 390.530342 
L 848.242947 401.892317 
L 848.680251 419.229691 
L 849.554859 468.298705 
L 851.741379 597.874468 
L 852.178683 610.649215 
L 852.615987 615.6 
L 853.053292 614.633153 
L 853.490596 607.884478 
L 853.9279 598.14101 
L 854.802508 570.101429 
L 856.551724 505.718934 
L 857.426332 481.71599 
L 858.30094 466.766343 
L 858.738245 462.427693 
L 859.175549 461.304772 
L 859.612853 460.570008 
L 860.050157 460.288264 
L 860.487461 461.280448 
L 860.924765 461.951363 
L 861.362069 461.580434 
L 861.799373 461.87738 
L 862.236677 461.912852 
L 862.673981 461.760832 
L 863.548589 465.501537 
L 863.985893 464.728262 
L 864.423197 465.180268 
L 864.860502 467.444352 
L 865.297806 470.651974 
L 865.73511 475.425402 
L 866.609718 486.609007 
L 867.92163 496.51463 
L 868.358934 495.6846 
L 868.796238 491.449323 
L 869.233542 482.844991 
L 869.670846 466.989306 
L 870.545455 427.808686 
L 871.857367 374.028065 
L 873.169279 298.785261 
L 874.043887 263.27339 
L 874.481191 252.320856 
L 874.918495 246.091077 
L 875.355799 244.034753 
L 875.793103 246.646457 
L 876.230408 252.791105 
L 877.105016 274.845152 
L 877.979624 297.092772 
L 878.416928 305.813652 
L 878.854232 310.840447 
L 879.291536 313.667005 
L 879.72884 313.983207 
L 880.166144 313.478501 
L 880.603448 313.512958 
L 881.040752 313.676127 
L 881.915361 312.415374 
L 882.352665 312.6657 
L 882.789969 313.841322 
L 883.227273 314.530479 
L 883.664577 316.630382 
L 884.101881 319.88361 
L 884.976489 323.796604 
L 885.413793 324.500964 
L 885.851097 323.973961 
L 886.288401 322.268297 
L 886.725705 321.298409 
L 887.163009 321.399756 
L 887.600313 321.027814 
L 888.037618 321.097743 
L 888.474922 320.043738 
L 888.912226 318.039101 
L 889.34953 315.173017 
L 889.786834 313.206892 
L 890.224138 312.552192 
L 891.53605 308.791217 
L 891.973354 308.169962 
L 892.410658 308.14868 
L 892.847962 307.568977 
L 893.285266 307.387566 
L 893.722571 308.308807 
L 895.471787 317.492842 
L 896.346395 323.91214 
L 896.783699 330.441905 
L 898.532915 377.301562 
L 899.407524 386.960913 
L 899.844828 389.578697 
L 900.719436 390.96816 
L 901.15674 389.464175 
L 901.594044 385.354568 
L 902.468652 374.762828 
L 903.780564 361.649583 
L 904.217868 358.956803 
L 905.092476 355.461356 
L 908.153605 340.284693 
L 909.028213 335.31972 
L 909.902821 328.037962 
L 911.652038 317.004351 
L 912.089342 316.324315 
L 912.526646 316.405392 
L 912.96395 316.751998 
L 913.401254 317.697562 
L 913.838558 319.246139 
L 914.275862 322.225731 
L 914.713166 326.80052 
L 915.587774 338.717874 
L 916.025078 342.948084 
L 916.462382 344.573684 
L 916.899687 344.469297 
L 917.336991 343.002811 
L 917.774295 338.411807 
L 918.211599 331.984401 
L 918.648903 327.300159 
L 919.523511 314.954108 
L 920.398119 307.369324 
L 921.710031 289.333671 
L 922.147335 286.370295 
L 923.021944 276.186982 
L 923.459248 279.470614 
L 924.333856 289.95898 
L 925.645768 301.471961 
L 926.083072 303.907322 
L 926.520376 305.265367 
L 926.95768 307.020691 
L 927.394984 309.558412 
L 927.832288 310.886053 
L 929.144201 306.480513 
L 930.018809 301.769921 
L 932.642633 278.597006 
L 933.079937 276.698783 
L 933.517241 272.275001 
L 933.954545 266.415137 
L 933.954545 266.415137 
" style="fill:none;stroke:#0000ff;stroke-linecap:square;stroke-width:1.5;"/>
   </g>
   <g id="patch_3">
    <path d="M 135 640.8 
L 135 86.4 
" style="fill:none;stroke:#000000;stroke-linecap:square;stroke-linejoin:miter;stroke-width:0.8;"/>
   </g>
   <g id="patch_4">
    <path d="M 972 640.8 
L 972 86.4 
" style="fill:none;stroke:#000000;stroke-linecap:square;stroke-linejoin:miter;stroke-width:0.8;"/>
   </g>
   <g id="patch_5">
    <path d="M 135 640.8 
L 972 640.8 
" style="fill:none;stroke:#000000;stroke-linecap:square;stroke-linejoin:miter;stroke-width:0.8;"/>
   </g>
   <g id="patch_6">
    <path d="M 135 86.4 
L 972 86.4 
" style="fill:none;stroke:#000000;stroke-linecap:square;stroke-linejoin:miter;stroke-width:0.8;"/>
   </g>
   <g id="text_17">
    <!-- Evaluation Preds N:30 -->
    <defs>
     <path d="M 9.8125 72.90625 
L 55.90625 72.90625 
L 55.90625 64.59375 
L 19.671875 64.59375 
L 19.671875 43.015625 
L 54.390625 43.015625 
L 54.390625 34.71875 
L 19.671875 34.71875 
L 19.671875 8.296875 
L 56.78125 8.296875 
L 56.78125 0 
L 9.8125 0 
z
" id="DejaVuSans-69"/>
     <path d="M 2.984375 54.6875 
L 12.5 54.6875 
L 29.59375 8.796875 
L 46.6875 54.6875 
L 56.203125 54.6875 
L 35.6875 0 
L 23.484375 0 
z
" id="DejaVuSans-118"/>
     <path d="M 34.28125 27.484375 
Q 23.390625 27.484375 19.1875 25 
Q 14.984375 22.515625 14.984375 16.5 
Q 14.984375 11.71875 18.140625 8.90625 
Q 21.296875 6.109375 26.703125 6.109375 
Q 34.1875 6.109375 38.703125 11.40625 
Q 43.21875 16.703125 43.21875 25.484375 
L 43.21875 27.484375 
z
M 52.203125 31.203125 
L 52.203125 0 
L 43.21875 0 
L 43.21875 8.296875 
Q 40.140625 3.328125 35.546875 0.953125 
Q 30.953125 -1.421875 24.3125 -1.421875 
Q 15.921875 -1.421875 10.953125 3.296875 
Q 6 8.015625 6 15.921875 
Q 6 25.140625 12.171875 29.828125 
Q 18.359375 34.515625 30.609375 34.515625 
L 43.21875 34.515625 
L 43.21875 35.40625 
Q 43.21875 41.609375 39.140625 45 
Q 35.0625 48.390625 27.6875 48.390625 
Q 23 48.390625 18.546875 47.265625 
Q 14.109375 46.140625 10.015625 43.890625 
L 10.015625 52.203125 
Q 14.9375 54.109375 19.578125 55.046875 
Q 24.21875 56 28.609375 56 
Q 40.484375 56 46.34375 49.84375 
Q 52.203125 43.703125 52.203125 31.203125 
z
" id="DejaVuSans-97"/>
     <path d="M 9.421875 75.984375 
L 18.40625 75.984375 
L 18.40625 0 
L 9.421875 0 
z
" id="DejaVuSans-108"/>
     <path d="M 8.5 21.578125 
L 8.5 54.6875 
L 17.484375 54.6875 
L 17.484375 21.921875 
Q 17.484375 14.15625 20.5 10.265625 
Q 23.53125 6.390625 29.59375 6.390625 
Q 36.859375 6.390625 41.078125 11.03125 
Q 45.3125 15.671875 45.3125 23.6875 
L 45.3125 54.6875 
L 54.296875 54.6875 
L 54.296875 0 
L 45.3125 0 
L 45.3125 8.40625 
Q 42.046875 3.421875 37.71875 1 
Q 33.40625 -1.421875 27.6875 -1.421875 
Q 18.265625 -1.421875 13.375 4.4375 
Q 8.5 10.296875 8.5 21.578125 
z
M 31.109375 56 
z
" id="DejaVuSans-117"/>
     <path d="M 18.3125 70.21875 
L 18.3125 54.6875 
L 36.8125 54.6875 
L 36.8125 47.703125 
L 18.3125 47.703125 
L 18.3125 18.015625 
Q 18.3125 11.328125 20.140625 9.421875 
Q 21.96875 7.515625 27.59375 7.515625 
L 36.8125 7.515625 
L 36.8125 0 
L 27.59375 0 
Q 17.1875 0 13.234375 3.875 
Q 9.28125 7.765625 9.28125 18.015625 
L 9.28125 47.703125 
L 2.6875 47.703125 
L 2.6875 54.6875 
L 9.28125 54.6875 
L 9.28125 70.21875 
z
" id="DejaVuSans-116"/>
     <path d="M 9.421875 54.6875 
L 18.40625 54.6875 
L 18.40625 0 
L 9.421875 0 
z
M 9.421875 75.984375 
L 18.40625 75.984375 
L 18.40625 64.59375 
L 9.421875 64.59375 
z
" id="DejaVuSans-105"/>
     <path d="M 30.609375 48.390625 
Q 23.390625 48.390625 19.1875 42.75 
Q 14.984375 37.109375 14.984375 27.296875 
Q 14.984375 17.484375 19.15625 11.84375 
Q 23.34375 6.203125 30.609375 6.203125 
Q 37.796875 6.203125 41.984375 11.859375 
Q 46.1875 17.53125 46.1875 27.296875 
Q 46.1875 37.015625 41.984375 42.703125 
Q 37.796875 48.390625 30.609375 48.390625 
z
M 30.609375 56 
Q 42.328125 56 49.015625 48.375 
Q 55.71875 40.765625 55.71875 27.296875 
Q 55.71875 13.875 49.015625 6.21875 
Q 42.328125 -1.421875 30.609375 -1.421875 
Q 18.84375 -1.421875 12.171875 6.21875 
Q 5.515625 13.875 5.515625 27.296875 
Q 5.515625 40.765625 12.171875 48.375 
Q 18.84375 56 30.609375 56 
z
" id="DejaVuSans-111"/>
     <path d="M 54.890625 33.015625 
L 54.890625 0 
L 45.90625 0 
L 45.90625 32.71875 
Q 45.90625 40.484375 42.875 44.328125 
Q 39.84375 48.1875 33.796875 48.1875 
Q 26.515625 48.1875 22.3125 43.546875 
Q 18.109375 38.921875 18.109375 30.90625 
L 18.109375 0 
L 9.078125 0 
L 9.078125 54.6875 
L 18.109375 54.6875 
L 18.109375 46.1875 
Q 21.34375 51.125 25.703125 53.5625 
Q 30.078125 56 35.796875 56 
Q 45.21875 56 50.046875 50.171875 
Q 54.890625 44.34375 54.890625 33.015625 
z
" id="DejaVuSans-110"/>
     <path id="DejaVuSans-32"/>
     <path d="M 19.671875 64.796875 
L 19.671875 37.40625 
L 32.078125 37.40625 
Q 38.96875 37.40625 42.71875 40.96875 
Q 46.484375 44.53125 46.484375 51.125 
Q 46.484375 57.671875 42.71875 61.234375 
Q 38.96875 64.796875 32.078125 64.796875 
z
M 9.8125 72.90625 
L 32.078125 72.90625 
Q 44.34375 72.90625 50.609375 67.359375 
Q 56.890625 61.8125 56.890625 51.125 
Q 56.890625 40.328125 50.609375 34.8125 
Q 44.34375 29.296875 32.078125 29.296875 
L 19.671875 29.296875 
L 19.671875 0 
L 9.8125 0 
z
" id="DejaVuSans-80"/>
     <path d="M 41.109375 46.296875 
Q 39.59375 47.171875 37.8125 47.578125 
Q 36.03125 48 33.890625 48 
Q 26.265625 48 22.1875 43.046875 
Q 18.109375 38.09375 18.109375 28.8125 
L 18.109375 0 
L 9.078125 0 
L 9.078125 54.6875 
L 18.109375 54.6875 
L 18.109375 46.1875 
Q 20.953125 51.171875 25.484375 53.578125 
Q 30.03125 56 36.53125 56 
Q 37.453125 56 38.578125 55.875 
Q 39.703125 55.765625 41.0625 55.515625 
z
" id="DejaVuSans-114"/>
     <path d="M 56.203125 29.59375 
L 56.203125 25.203125 
L 14.890625 25.203125 
Q 15.484375 15.921875 20.484375 11.0625 
Q 25.484375 6.203125 34.421875 6.203125 
Q 39.59375 6.203125 44.453125 7.46875 
Q 49.3125 8.734375 54.109375 11.28125 
L 54.109375 2.78125 
Q 49.265625 0.734375 44.1875 -0.34375 
Q 39.109375 -1.421875 33.890625 -1.421875 
Q 20.796875 -1.421875 13.15625 6.1875 
Q 5.515625 13.8125 5.515625 26.8125 
Q 5.515625 40.234375 12.765625 48.109375 
Q 20.015625 56 32.328125 56 
Q 43.359375 56 49.78125 48.890625 
Q 56.203125 41.796875 56.203125 29.59375 
z
M 47.21875 32.234375 
Q 47.125 39.59375 43.09375 43.984375 
Q 39.0625 48.390625 32.421875 48.390625 
Q 24.90625 48.390625 20.390625 44.140625 
Q 15.875 39.890625 15.1875 32.171875 
z
" id="DejaVuSans-101"/>
     <path d="M 45.40625 46.390625 
L 45.40625 75.984375 
L 54.390625 75.984375 
L 54.390625 0 
L 45.40625 0 
L 45.40625 8.203125 
Q 42.578125 3.328125 38.25 0.953125 
Q 33.9375 -1.421875 27.875 -1.421875 
Q 17.96875 -1.421875 11.734375 6.484375 
Q 5.515625 14.40625 5.515625 27.296875 
Q 5.515625 40.1875 11.734375 48.09375 
Q 17.96875 56 27.875 56 
Q 33.9375 56 38.25 53.625 
Q 42.578125 51.265625 45.40625 46.390625 
z
M 14.796875 27.296875 
Q 14.796875 17.390625 18.875 11.75 
Q 22.953125 6.109375 30.078125 6.109375 
Q 37.203125 6.109375 41.296875 11.75 
Q 45.40625 17.390625 45.40625 27.296875 
Q 45.40625 37.203125 41.296875 42.84375 
Q 37.203125 48.484375 30.078125 48.484375 
Q 22.953125 48.484375 18.875 42.84375 
Q 14.796875 37.203125 14.796875 27.296875 
z
" id="DejaVuSans-100"/>
     <path d="M 44.28125 53.078125 
L 44.28125 44.578125 
Q 40.484375 46.53125 36.375 47.5 
Q 32.28125 48.484375 27.875 48.484375 
Q 21.1875 48.484375 17.84375 46.4375 
Q 14.5 44.390625 14.5 40.28125 
Q 14.5 37.15625 16.890625 35.375 
Q 19.28125 33.59375 26.515625 31.984375 
L 29.59375 31.296875 
Q 39.15625 29.25 43.1875 25.515625 
Q 47.21875 21.78125 47.21875 15.09375 
Q 47.21875 7.46875 41.1875 3.015625 
Q 35.15625 -1.421875 24.609375 -1.421875 
Q 20.21875 -1.421875 15.453125 -0.5625 
Q 10.6875 0.296875 5.421875 2 
L 5.421875 11.28125 
Q 10.40625 8.6875 15.234375 7.390625 
Q 20.0625 6.109375 24.8125 6.109375 
Q 31.15625 6.109375 34.5625 8.28125 
Q 37.984375 10.453125 37.984375 14.40625 
Q 37.984375 18.0625 35.515625 20.015625 
Q 33.0625 21.96875 24.703125 23.78125 
L 21.578125 24.515625 
Q 13.234375 26.265625 9.515625 29.90625 
Q 5.8125 33.546875 5.8125 39.890625 
Q 5.8125 47.609375 11.28125 51.796875 
Q 16.75 56 26.8125 56 
Q 31.78125 56 36.171875 55.265625 
Q 40.578125 54.546875 44.28125 53.078125 
z
" id="DejaVuSans-115"/>
     <path d="M 9.8125 72.90625 
L 23.09375 72.90625 
L 55.421875 11.921875 
L 55.421875 72.90625 
L 64.984375 72.90625 
L 64.984375 0 
L 51.703125 0 
L 19.390625 60.984375 
L 19.390625 0 
L 9.8125 0 
z
" id="DejaVuSans-78"/>
     <path d="M 11.71875 12.40625 
L 22.015625 12.40625 
L 22.015625 0 
L 11.71875 0 
z
M 11.71875 51.703125 
L 22.015625 51.703125 
L 22.015625 39.3125 
L 11.71875 39.3125 
z
" id="DejaVuSans-58"/>
     <path d="M 40.578125 39.3125 
Q 47.65625 37.796875 51.625 33 
Q 55.609375 28.21875 55.609375 21.1875 
Q 55.609375 10.40625 48.1875 4.484375 
Q 40.765625 -1.421875 27.09375 -1.421875 
Q 22.515625 -1.421875 17.65625 -0.515625 
Q 12.796875 0.390625 7.625 2.203125 
L 7.625 11.71875 
Q 11.71875 9.328125 16.59375 8.109375 
Q 21.484375 6.890625 26.8125 6.890625 
Q 36.078125 6.890625 40.9375 10.546875 
Q 45.796875 14.203125 45.796875 21.1875 
Q 45.796875 27.640625 41.28125 31.265625 
Q 36.765625 34.90625 28.71875 34.90625 
L 20.21875 34.90625 
L 20.21875 43.015625 
L 29.109375 43.015625 
Q 36.375 43.015625 40.234375 45.921875 
Q 44.09375 48.828125 44.09375 54.296875 
Q 44.09375 59.90625 40.109375 62.90625 
Q 36.140625 65.921875 28.71875 65.921875 
Q 24.65625 65.921875 20.015625 65.03125 
Q 15.375 64.15625 9.8125 62.3125 
L 9.8125 71.09375 
Q 15.4375 72.65625 20.34375 73.4375 
Q 25.25 74.21875 29.59375 74.21875 
Q 40.828125 74.21875 47.359375 69.109375 
Q 53.90625 64.015625 53.90625 55.328125 
Q 53.90625 49.265625 50.4375 45.09375 
Q 46.96875 40.921875 40.578125 39.3125 
z
" id="DejaVuSans-51"/>
    </defs>
    <g transform="translate(374.421656 80.4)scale(0.324 -0.324)">
     <use xlink:href="#DejaVuSans-69"/>
     <use x="63.183594" xlink:href="#DejaVuSans-118"/>
     <use x="122.363281" xlink:href="#DejaVuSans-97"/>
     <use x="183.642578" xlink:href="#DejaVuSans-108"/>
     <use x="211.425781" xlink:href="#DejaVuSans-117"/>
     <use x="274.804688" xlink:href="#DejaVuSans-97"/>
     <use x="336.083984" xlink:href="#DejaVuSans-116"/>
     <use x="375.292969" xlink:href="#DejaVuSans-105"/>
     <use x="403.076172" xlink:href="#DejaVuSans-111"/>
     <use x="464.257812" xlink:href="#DejaVuSans-110"/>
     <use x="527.636719" xlink:href="#DejaVuSans-32"/>
     <use x="559.423828" xlink:href="#DejaVuSans-80"/>
     <use x="619.710938" xlink:href="#DejaVuSans-114"/>
     <use x="660.792969" xlink:href="#DejaVuSans-101"/>
     <use x="722.316406" xlink:href="#DejaVuSans-100"/>
     <use x="785.792969" xlink:href="#DejaVuSans-115"/>
     <use x="837.892578" xlink:href="#DejaVuSans-32"/>
     <use x="869.679688" xlink:href="#DejaVuSans-78"/>
     <use x="944.484375" xlink:href="#DejaVuSans-58"/>
     <use x="978.175781" xlink:href="#DejaVuSans-51"/>
     <use x="1041.798828" xlink:href="#DejaVuSans-48"/>
    </g>
   </g>
   <g id="legend_1">
    <g id="patch_7">
     <path d="M 805.57875 187.261875 
L 953.1 187.261875 
Q 958.5 187.261875 958.5 181.861875 
L 958.5 105.3 
Q 958.5 99.9 953.1 99.9 
L 805.57875 99.9 
Q 800.17875 99.9 800.17875 105.3 
L 800.17875 181.861875 
Q 800.17875 187.261875 805.57875 187.261875 
z
" style="fill:#ffffff;opacity:0.8;stroke:#cccccc;stroke-linejoin:miter;"/>
    </g>
    <g id="line2d_35">
     <path d="M 810.97875 121.765781 
L 864.97875 121.765781 
" style="fill:none;stroke:#ff0000;stroke-linecap:square;stroke-width:1.5;"/>
    </g>
    <g id="line2d_36"/>
    <g id="text_18">
     <!-- Real -->
     <defs>
      <path d="M 44.390625 34.1875 
Q 47.5625 33.109375 50.5625 29.59375 
Q 53.5625 26.078125 56.59375 19.921875 
L 66.609375 0 
L 56 0 
L 46.6875 18.703125 
Q 43.0625 26.03125 39.671875 28.421875 
Q 36.28125 30.8125 30.421875 30.8125 
L 19.671875 30.8125 
L 19.671875 0 
L 9.8125 0 
L 9.8125 72.90625 
L 32.078125 72.90625 
Q 44.578125 72.90625 50.734375 67.671875 
Q 56.890625 62.453125 56.890625 51.90625 
Q 56.890625 45.015625 53.6875 40.46875 
Q 50.484375 35.9375 44.390625 34.1875 
z
M 19.671875 64.796875 
L 19.671875 38.921875 
L 32.078125 38.921875 
Q 39.203125 38.921875 42.84375 42.21875 
Q 46.484375 45.515625 46.484375 51.90625 
Q 46.484375 58.296875 42.84375 61.546875 
Q 39.203125 64.796875 32.078125 64.796875 
z
" id="DejaVuSans-82"/>
     </defs>
     <g transform="translate(886.57875 131.215781)scale(0.27 -0.27)">
      <use xlink:href="#DejaVuSans-82"/>
      <use x="69.419922" xlink:href="#DejaVuSans-101"/>
      <use x="130.943359" xlink:href="#DejaVuSans-97"/>
      <use x="192.222656" xlink:href="#DejaVuSans-108"/>
     </g>
    </g>
    <g id="line2d_37">
     <path d="M 810.97875 161.396719 
L 864.97875 161.396719 
" style="fill:none;stroke:#0000ff;stroke-linecap:square;stroke-width:1.5;"/>
    </g>
    <g id="line2d_38"/>
    <g id="text_19">
     <!-- Pred -->
     <g transform="translate(886.57875 170.846719)scale(0.27 -0.27)">
      <use xlink:href="#DejaVuSans-80"/>
      <use x="60.287109" xlink:href="#DejaVuSans-114"/>
      <use x="101.369141" xlink:href="#DejaVuSans-101"/>
      <use x="162.892578" xlink:href="#DejaVuSans-100"/>
     </g>
    </g>
   </g>
  </g>
 </g>
 <defs>
  <clipPath id="pbeef1bce69">
   <rect height="554.4" width="837" x="135" y="86.4"/>
  </clipPath>
 </defs>
</svg>
