<?xml version="1.0" encoding="utf-8" standalone="no"?>
<!DOCTYPE svg PUBLIC "-//W3C//DTD SVG 1.1//EN"
  "http://www.w3.org/Graphics/SVG/1.1/DTD/svg11.dtd">
<!-- Created with matplotlib (https://matplotlib.org/) -->
<svg height="720pt" version="1.1" viewBox="0 0 1080 720" width="1080pt" xmlns="http://www.w3.org/2000/svg" xmlns:xlink="http://www.w3.org/1999/xlink">
 <defs>
  <style type="text/css">
*{stroke-linecap:butt;stroke-linejoin:round;}
  </style>
 </defs>
 <g id="figure_1">
  <g id="patch_1">
   <path d="M 0 720 
L 1080 720 
L 1080 0 
L 0 0 
z
" style="fill:#ffffff;"/>
  </g>
  <g id="axes_1">
   <g id="patch_2">
    <path d="M 135 640.8 
L 972 640.8 
L 972 86.4 
L 135 86.4 
z
" style="fill:#ffffff;"/>
   </g>
   <g id="matplotlib.axis_1">
    <g id="xtick_1">
     <g id="line2d_1">
      <path clip-path="url(#p2b94fdc5ae)" d="M 173.045455 640.8 
L 173.045455 86.4 
" style="fill:none;stroke:#b0b0b0;stroke-linecap:square;stroke-width:0.8;"/>
     </g>
     <g id="line2d_2">
      <defs>
       <path d="M 0 0 
L 0 3.5 
" id="m88867f68b5" style="stroke:#000000;stroke-width:0.8;"/>
      </defs>
      <g>
       <use style="stroke:#000000;stroke-width:0.8;" x="173.045455" xlink:href="#m88867f68b5" y="640.8"/>
      </g>
     </g>
     <g id="text_1">
      <!-- 0 -->
      <defs>
       <path d="M 31.78125 66.40625 
Q 24.171875 66.40625 20.328125 58.90625 
Q 16.5 51.421875 16.5 36.375 
Q 16.5 21.390625 20.328125 13.890625 
Q 24.171875 6.390625 31.78125 6.390625 
Q 39.453125 6.390625 43.28125 13.890625 
Q 47.125 21.390625 47.125 36.375 
Q 47.125 51.421875 43.28125 58.90625 
Q 39.453125 66.40625 31.78125 66.40625 
z
M 31.78125 74.21875 
Q 44.046875 74.21875 50.515625 64.515625 
Q 56.984375 54.828125 56.984375 36.375 
Q 56.984375 17.96875 50.515625 8.265625 
Q 44.046875 -1.421875 31.78125 -1.421875 
Q 19.53125 -1.421875 13.0625 8.265625 
Q 6.59375 17.96875 6.59375 36.375 
Q 6.59375 54.828125 13.0625 64.515625 
Q 19.53125 74.21875 31.78125 74.21875 
z
" id="DejaVuSans-48"/>
      </defs>
      <g transform="translate(164.45608 668.315781)scale(0.27 -0.27)">
       <use xlink:href="#DejaVuSans-48"/>
      </g>
     </g>
    </g>
    <g id="xtick_2">
     <g id="line2d_3">
      <path clip-path="url(#p2b94fdc5ae)" d="M 282.371473 640.8 
L 282.371473 86.4 
" style="fill:none;stroke:#b0b0b0;stroke-linecap:square;stroke-width:0.8;"/>
     </g>
     <g id="line2d_4">
      <g>
       <use style="stroke:#000000;stroke-width:0.8;" x="282.371473" xlink:href="#m88867f68b5" y="640.8"/>
      </g>
     </g>
     <g id="text_2">
      <!-- 250 -->
      <defs>
       <path d="M 19.1875 8.296875 
L 53.609375 8.296875 
L 53.609375 0 
L 7.328125 0 
L 7.328125 8.296875 
Q 12.9375 14.109375 22.625 23.890625 
Q 32.328125 33.6875 34.8125 36.53125 
Q 39.546875 41.84375 41.421875 45.53125 
Q 43.3125 49.21875 43.3125 52.78125 
Q 43.3125 58.59375 39.234375 62.25 
Q 35.15625 65.921875 28.609375 65.921875 
Q 23.96875 65.921875 18.8125 64.3125 
Q 13.671875 62.703125 7.8125 59.421875 
L 7.8125 69.390625 
Q 13.765625 71.78125 18.9375 73 
Q 24.125 74.21875 28.421875 74.21875 
Q 39.75 74.21875 46.484375 68.546875 
Q 53.21875 62.890625 53.21875 53.421875 
Q 53.21875 48.921875 51.53125 44.890625 
Q 49.859375 40.875 45.40625 35.40625 
Q 44.1875 33.984375 37.640625 27.21875 
Q 31.109375 20.453125 19.1875 8.296875 
z
" id="DejaVuSans-50"/>
       <path d="M 10.796875 72.90625 
L 49.515625 72.90625 
L 49.515625 64.59375 
L 19.828125 64.59375 
L 19.828125 46.734375 
Q 21.96875 47.46875 24.109375 47.828125 
Q 26.265625 48.1875 28.421875 48.1875 
Q 40.625 48.1875 47.75 41.5 
Q 54.890625 34.8125 54.890625 23.390625 
Q 54.890625 11.625 47.5625 5.09375 
Q 40.234375 -1.421875 26.90625 -1.421875 
Q 22.3125 -1.421875 17.546875 -0.640625 
Q 12.796875 0.140625 7.71875 1.703125 
L 7.71875 11.625 
Q 12.109375 9.234375 16.796875 8.0625 
Q 21.484375 6.890625 26.703125 6.890625 
Q 35.15625 6.890625 40.078125 11.328125 
Q 45.015625 15.765625 45.015625 23.390625 
Q 45.015625 31 40.078125 35.4375 
Q 35.15625 39.890625 26.703125 39.890625 
Q 22.75 39.890625 18.8125 39.015625 
Q 14.890625 38.140625 10.796875 36.28125 
z
" id="DejaVuSans-53"/>
      </defs>
      <g transform="translate(256.603348 668.315781)scale(0.27 -0.27)">
       <use xlink:href="#DejaVuSans-50"/>
       <use x="63.623047" xlink:href="#DejaVuSans-53"/>
       <use x="127.246094" xlink:href="#DejaVuSans-48"/>
      </g>
     </g>
    </g>
    <g id="xtick_3">
     <g id="line2d_5">
      <path clip-path="url(#p2b94fdc5ae)" d="M 391.697492 640.8 
L 391.697492 86.4 
" style="fill:none;stroke:#b0b0b0;stroke-linecap:square;stroke-width:0.8;"/>
     </g>
     <g id="line2d_6">
      <g>
       <use style="stroke:#000000;stroke-width:0.8;" x="391.697492" xlink:href="#m88867f68b5" y="640.8"/>
      </g>
     </g>
     <g id="text_3">
      <!-- 500 -->
      <g transform="translate(365.929367 668.315781)scale(0.27 -0.27)">
       <use xlink:href="#DejaVuSans-53"/>
       <use x="63.623047" xlink:href="#DejaVuSans-48"/>
       <use x="127.246094" xlink:href="#DejaVuSans-48"/>
      </g>
     </g>
    </g>
    <g id="xtick_4">
     <g id="line2d_7">
      <path clip-path="url(#p2b94fdc5ae)" d="M 501.023511 640.8 
L 501.023511 86.4 
" style="fill:none;stroke:#b0b0b0;stroke-linecap:square;stroke-width:0.8;"/>
     </g>
     <g id="line2d_8">
      <g>
       <use style="stroke:#000000;stroke-width:0.8;" x="501.023511" xlink:href="#m88867f68b5" y="640.8"/>
      </g>
     </g>
     <g id="text_4">
      <!-- 750 -->
      <defs>
       <path d="M 8.203125 72.90625 
L 55.078125 72.90625 
L 55.078125 68.703125 
L 28.609375 0 
L 18.3125 0 
L 43.21875 64.59375 
L 8.203125 64.59375 
z
" id="DejaVuSans-55"/>
      </defs>
      <g transform="translate(475.255386 668.315781)scale(0.27 -0.27)">
       <use xlink:href="#DejaVuSans-55"/>
       <use x="63.623047" xlink:href="#DejaVuSans-53"/>
       <use x="127.246094" xlink:href="#DejaVuSans-48"/>
      </g>
     </g>
    </g>
    <g id="xtick_5">
     <g id="line2d_9">
      <path clip-path="url(#p2b94fdc5ae)" d="M 610.34953 640.8 
L 610.34953 86.4 
" style="fill:none;stroke:#b0b0b0;stroke-linecap:square;stroke-width:0.8;"/>
     </g>
     <g id="line2d_10">
      <g>
       <use style="stroke:#000000;stroke-width:0.8;" x="610.34953" xlink:href="#m88867f68b5" y="640.8"/>
      </g>
     </g>
     <g id="text_5">
      <!-- 1000 -->
      <defs>
       <path d="M 12.40625 8.296875 
L 28.515625 8.296875 
L 28.515625 63.921875 
L 10.984375 60.40625 
L 10.984375 69.390625 
L 28.421875 72.90625 
L 38.28125 72.90625 
L 38.28125 8.296875 
L 54.390625 8.296875 
L 54.390625 0 
L 12.40625 0 
z
" id="DejaVuSans-49"/>
      </defs>
      <g transform="translate(575.99203 668.315781)scale(0.27 -0.27)">
       <use xlink:href="#DejaVuSans-49"/>
       <use x="63.623047" xlink:href="#DejaVuSans-48"/>
       <use x="127.246094" xlink:href="#DejaVuSans-48"/>
       <use x="190.869141" xlink:href="#DejaVuSans-48"/>
      </g>
     </g>
    </g>
    <g id="xtick_6">
     <g id="line2d_11">
      <path clip-path="url(#p2b94fdc5ae)" d="M 719.675549 640.8 
L 719.675549 86.4 
" style="fill:none;stroke:#b0b0b0;stroke-linecap:square;stroke-width:0.8;"/>
     </g>
     <g id="line2d_12">
      <g>
       <use style="stroke:#000000;stroke-width:0.8;" x="719.675549" xlink:href="#m88867f68b5" y="640.8"/>
      </g>
     </g>
     <g id="text_6">
      <!-- 1250 -->
      <g transform="translate(685.318049 668.315781)scale(0.27 -0.27)">
       <use xlink:href="#DejaVuSans-49"/>
       <use x="63.623047" xlink:href="#DejaVuSans-50"/>
       <use x="127.246094" xlink:href="#DejaVuSans-53"/>
       <use x="190.869141" xlink:href="#DejaVuSans-48"/>
      </g>
     </g>
    </g>
    <g id="xtick_7">
     <g id="line2d_13">
      <path clip-path="url(#p2b94fdc5ae)" d="M 829.001567 640.8 
L 829.001567 86.4 
" style="fill:none;stroke:#b0b0b0;stroke-linecap:square;stroke-width:0.8;"/>
     </g>
     <g id="line2d_14">
      <g>
       <use style="stroke:#000000;stroke-width:0.8;" x="829.001567" xlink:href="#m88867f68b5" y="640.8"/>
      </g>
     </g>
     <g id="text_7">
      <!-- 1500 -->
      <g transform="translate(794.644067 668.315781)scale(0.27 -0.27)">
       <use xlink:href="#DejaVuSans-49"/>
       <use x="63.623047" xlink:href="#DejaVuSans-53"/>
       <use x="127.246094" xlink:href="#DejaVuSans-48"/>
       <use x="190.869141" xlink:href="#DejaVuSans-48"/>
      </g>
     </g>
    </g>
    <g id="xtick_8">
     <g id="line2d_15">
      <path clip-path="url(#p2b94fdc5ae)" d="M 938.327586 640.8 
L 938.327586 86.4 
" style="fill:none;stroke:#b0b0b0;stroke-linecap:square;stroke-width:0.8;"/>
     </g>
     <g id="line2d_16">
      <g>
       <use style="stroke:#000000;stroke-width:0.8;" x="938.327586" xlink:href="#m88867f68b5" y="640.8"/>
      </g>
     </g>
     <g id="text_8">
      <!-- 1750 -->
      <g transform="translate(903.970086 668.315781)scale(0.27 -0.27)">
       <use xlink:href="#DejaVuSans-49"/>
       <use x="63.623047" xlink:href="#DejaVuSans-55"/>
       <use x="127.246094" xlink:href="#DejaVuSans-53"/>
       <use x="190.869141" xlink:href="#DejaVuSans-48"/>
      </g>
     </g>
    </g>
   </g>
   <g id="matplotlib.axis_2">
    <g id="ytick_1">
     <g id="line2d_17">
      <path clip-path="url(#p2b94fdc5ae)" d="M 135 592.269338 
L 972 592.269338 
" style="fill:none;stroke:#b0b0b0;stroke-linecap:square;stroke-width:0.8;"/>
     </g>
     <g id="line2d_18">
      <defs>
       <path d="M 0 0 
L -3.5 0 
" id="mf838c606e1" style="stroke:#000000;stroke-width:0.8;"/>
      </defs>
      <g>
       <use style="stroke:#000000;stroke-width:0.8;" x="135" xlink:href="#mf838c606e1" y="592.269338"/>
      </g>
     </g>
     <g id="text_9">
      <!-- 67.5 -->
      <defs>
       <path d="M 33.015625 40.375 
Q 26.375 40.375 22.484375 35.828125 
Q 18.609375 31.296875 18.609375 23.390625 
Q 18.609375 15.53125 22.484375 10.953125 
Q 26.375 6.390625 33.015625 6.390625 
Q 39.65625 6.390625 43.53125 10.953125 
Q 47.40625 15.53125 47.40625 23.390625 
Q 47.40625 31.296875 43.53125 35.828125 
Q 39.65625 40.375 33.015625 40.375 
z
M 52.59375 71.296875 
L 52.59375 62.3125 
Q 48.875 64.0625 45.09375 64.984375 
Q 41.3125 65.921875 37.59375 65.921875 
Q 27.828125 65.921875 22.671875 59.328125 
Q 17.53125 52.734375 16.796875 39.40625 
Q 19.671875 43.65625 24.015625 45.921875 
Q 28.375 48.1875 33.59375 48.1875 
Q 44.578125 48.1875 50.953125 41.515625 
Q 57.328125 34.859375 57.328125 23.390625 
Q 57.328125 12.15625 50.6875 5.359375 
Q 44.046875 -1.421875 33.015625 -1.421875 
Q 20.359375 -1.421875 13.671875 8.265625 
Q 6.984375 17.96875 6.984375 36.375 
Q 6.984375 53.65625 15.1875 63.9375 
Q 23.390625 74.21875 37.203125 74.21875 
Q 40.921875 74.21875 44.703125 73.484375 
Q 48.484375 72.75 52.59375 71.296875 
z
" id="DejaVuSans-54"/>
       <path d="M 10.6875 12.40625 
L 21 12.40625 
L 21 0 
L 10.6875 0 
z
" id="DejaVuSans-46"/>
      </defs>
      <g transform="translate(67.882812 602.527228)scale(0.27 -0.27)">
       <use xlink:href="#DejaVuSans-54"/>
       <use x="63.623047" xlink:href="#DejaVuSans-55"/>
       <use x="127.246094" xlink:href="#DejaVuSans-46"/>
       <use x="159.033203" xlink:href="#DejaVuSans-53"/>
      </g>
     </g>
    </g>
    <g id="ytick_2">
     <g id="line2d_19">
      <path clip-path="url(#p2b94fdc5ae)" d="M 135 523.775036 
L 972 523.775036 
" style="fill:none;stroke:#b0b0b0;stroke-linecap:square;stroke-width:0.8;"/>
     </g>
     <g id="line2d_20">
      <g>
       <use style="stroke:#000000;stroke-width:0.8;" x="135" xlink:href="#mf838c606e1" y="523.775036"/>
      </g>
     </g>
     <g id="text_10">
      <!-- 68.0 -->
      <defs>
       <path d="M 31.78125 34.625 
Q 24.75 34.625 20.71875 30.859375 
Q 16.703125 27.09375 16.703125 20.515625 
Q 16.703125 13.921875 20.71875 10.15625 
Q 24.75 6.390625 31.78125 6.390625 
Q 38.8125 6.390625 42.859375 10.171875 
Q 46.921875 13.96875 46.921875 20.515625 
Q 46.921875 27.09375 42.890625 30.859375 
Q 38.875 34.625 31.78125 34.625 
z
M 21.921875 38.8125 
Q 15.578125 40.375 12.03125 44.71875 
Q 8.5 49.078125 8.5 55.328125 
Q 8.5 64.0625 14.71875 69.140625 
Q 20.953125 74.21875 31.78125 74.21875 
Q 42.671875 74.21875 48.875 69.140625 
Q 55.078125 64.0625 55.078125 55.328125 
Q 55.078125 49.078125 51.53125 44.71875 
Q 48 40.375 41.703125 38.8125 
Q 48.828125 37.15625 52.796875 32.3125 
Q 56.78125 27.484375 56.78125 20.515625 
Q 56.78125 9.90625 50.3125 4.234375 
Q 43.84375 -1.421875 31.78125 -1.421875 
Q 19.734375 -1.421875 13.25 4.234375 
Q 6.78125 9.90625 6.78125 20.515625 
Q 6.78125 27.484375 10.78125 32.3125 
Q 14.796875 37.15625 21.921875 38.8125 
z
M 18.3125 54.390625 
Q 18.3125 48.734375 21.84375 45.5625 
Q 25.390625 42.390625 31.78125 42.390625 
Q 38.140625 42.390625 41.71875 45.5625 
Q 45.3125 48.734375 45.3125 54.390625 
Q 45.3125 60.0625 41.71875 63.234375 
Q 38.140625 66.40625 31.78125 66.40625 
Q 25.390625 66.40625 21.84375 63.234375 
Q 18.3125 60.0625 18.3125 54.390625 
z
" id="DejaVuSans-56"/>
      </defs>
      <g transform="translate(67.882812 534.032927)scale(0.27 -0.27)">
       <use xlink:href="#DejaVuSans-54"/>
       <use x="63.623047" xlink:href="#DejaVuSans-56"/>
       <use x="127.246094" xlink:href="#DejaVuSans-46"/>
       <use x="159.033203" xlink:href="#DejaVuSans-48"/>
      </g>
     </g>
    </g>
    <g id="ytick_3">
     <g id="line2d_21">
      <path clip-path="url(#p2b94fdc5ae)" d="M 135 455.280735 
L 972 455.280735 
" style="fill:none;stroke:#b0b0b0;stroke-linecap:square;stroke-width:0.8;"/>
     </g>
     <g id="line2d_22">
      <g>
       <use style="stroke:#000000;stroke-width:0.8;" x="135" xlink:href="#mf838c606e1" y="455.280735"/>
      </g>
     </g>
     <g id="text_11">
      <!-- 68.5 -->
      <g transform="translate(67.882812 465.538625)scale(0.27 -0.27)">
       <use xlink:href="#DejaVuSans-54"/>
       <use x="63.623047" xlink:href="#DejaVuSans-56"/>
       <use x="127.246094" xlink:href="#DejaVuSans-46"/>
       <use x="159.033203" xlink:href="#DejaVuSans-53"/>
      </g>
     </g>
    </g>
    <g id="ytick_4">
     <g id="line2d_23">
      <path clip-path="url(#p2b94fdc5ae)" d="M 135 386.786433 
L 972 386.786433 
" style="fill:none;stroke:#b0b0b0;stroke-linecap:square;stroke-width:0.8;"/>
     </g>
     <g id="line2d_24">
      <g>
       <use style="stroke:#000000;stroke-width:0.8;" x="135" xlink:href="#mf838c606e1" y="386.786433"/>
      </g>
     </g>
     <g id="text_12">
      <!-- 69.0 -->
      <defs>
       <path d="M 10.984375 1.515625 
L 10.984375 10.5 
Q 14.703125 8.734375 18.5 7.8125 
Q 22.3125 6.890625 25.984375 6.890625 
Q 35.75 6.890625 40.890625 13.453125 
Q 46.046875 20.015625 46.78125 33.40625 
Q 43.953125 29.203125 39.59375 26.953125 
Q 35.25 24.703125 29.984375 24.703125 
Q 19.046875 24.703125 12.671875 31.3125 
Q 6.296875 37.9375 6.296875 49.421875 
Q 6.296875 60.640625 12.9375 67.421875 
Q 19.578125 74.21875 30.609375 74.21875 
Q 43.265625 74.21875 49.921875 64.515625 
Q 56.59375 54.828125 56.59375 36.375 
Q 56.59375 19.140625 48.40625 8.859375 
Q 40.234375 -1.421875 26.421875 -1.421875 
Q 22.703125 -1.421875 18.890625 -0.6875 
Q 15.09375 0.046875 10.984375 1.515625 
z
M 30.609375 32.421875 
Q 37.25 32.421875 41.125 36.953125 
Q 45.015625 41.5 45.015625 49.421875 
Q 45.015625 57.28125 41.125 61.84375 
Q 37.25 66.40625 30.609375 66.40625 
Q 23.96875 66.40625 20.09375 61.84375 
Q 16.21875 57.28125 16.21875 49.421875 
Q 16.21875 41.5 20.09375 36.953125 
Q 23.96875 32.421875 30.609375 32.421875 
z
" id="DejaVuSans-57"/>
      </defs>
      <g transform="translate(67.882812 397.044324)scale(0.27 -0.27)">
       <use xlink:href="#DejaVuSans-54"/>
       <use x="63.623047" xlink:href="#DejaVuSans-57"/>
       <use x="127.246094" xlink:href="#DejaVuSans-46"/>
       <use x="159.033203" xlink:href="#DejaVuSans-48"/>
      </g>
     </g>
    </g>
    <g id="ytick_5">
     <g id="line2d_25">
      <path clip-path="url(#p2b94fdc5ae)" d="M 135 318.292132 
L 972 318.292132 
" style="fill:none;stroke:#b0b0b0;stroke-linecap:square;stroke-width:0.8;"/>
     </g>
     <g id="line2d_26">
      <g>
       <use style="stroke:#000000;stroke-width:0.8;" x="135" xlink:href="#mf838c606e1" y="318.292132"/>
      </g>
     </g>
     <g id="text_13">
      <!-- 69.5 -->
      <g transform="translate(67.882812 328.550022)scale(0.27 -0.27)">
       <use xlink:href="#DejaVuSans-54"/>
       <use x="63.623047" xlink:href="#DejaVuSans-57"/>
       <use x="127.246094" xlink:href="#DejaVuSans-46"/>
       <use x="159.033203" xlink:href="#DejaVuSans-53"/>
      </g>
     </g>
    </g>
    <g id="ytick_6">
     <g id="line2d_27">
      <path clip-path="url(#p2b94fdc5ae)" d="M 135 249.79783 
L 972 249.79783 
" style="fill:none;stroke:#b0b0b0;stroke-linecap:square;stroke-width:0.8;"/>
     </g>
     <g id="line2d_28">
      <g>
       <use style="stroke:#000000;stroke-width:0.8;" x="135" xlink:href="#mf838c606e1" y="249.79783"/>
      </g>
     </g>
     <g id="text_14">
      <!-- 70.0 -->
      <g transform="translate(67.882812 260.055721)scale(0.27 -0.27)">
       <use xlink:href="#DejaVuSans-55"/>
       <use x="63.623047" xlink:href="#DejaVuSans-48"/>
       <use x="127.246094" xlink:href="#DejaVuSans-46"/>
       <use x="159.033203" xlink:href="#DejaVuSans-48"/>
      </g>
     </g>
    </g>
    <g id="ytick_7">
     <g id="line2d_29">
      <path clip-path="url(#p2b94fdc5ae)" d="M 135 181.303529 
L 972 181.303529 
" style="fill:none;stroke:#b0b0b0;stroke-linecap:square;stroke-width:0.8;"/>
     </g>
     <g id="line2d_30">
      <g>
       <use style="stroke:#000000;stroke-width:0.8;" x="135" xlink:href="#mf838c606e1" y="181.303529"/>
      </g>
     </g>
     <g id="text_15">
      <!-- 70.5 -->
      <g transform="translate(67.882812 191.561419)scale(0.27 -0.27)">
       <use xlink:href="#DejaVuSans-55"/>
       <use x="63.623047" xlink:href="#DejaVuSans-48"/>
       <use x="127.246094" xlink:href="#DejaVuSans-46"/>
       <use x="159.033203" xlink:href="#DejaVuSans-53"/>
      </g>
     </g>
    </g>
    <g id="ytick_8">
     <g id="line2d_31">
      <path clip-path="url(#p2b94fdc5ae)" d="M 135 112.809227 
L 972 112.809227 
" style="fill:none;stroke:#b0b0b0;stroke-linecap:square;stroke-width:0.8;"/>
     </g>
     <g id="line2d_32">
      <g>
       <use style="stroke:#000000;stroke-width:0.8;" x="135" xlink:href="#mf838c606e1" y="112.809227"/>
      </g>
     </g>
     <g id="text_16">
      <!-- 71.0 -->
      <g transform="translate(67.882812 123.067118)scale(0.27 -0.27)">
       <use xlink:href="#DejaVuSans-55"/>
       <use x="63.623047" xlink:href="#DejaVuSans-49"/>
       <use x="127.246094" xlink:href="#DejaVuSans-46"/>
       <use x="159.033203" xlink:href="#DejaVuSans-48"/>
      </g>
     </g>
    </g>
   </g>
   <g id="line2d_33">
    <path clip-path="url(#p2b94fdc5ae)" d="M 173.045455 481.724869 
L 173.482759 484.067028 
L 173.920063 477.481601 
L 174.357367 483.497427 
L 174.794671 478.825651 
L 175.231975 479.993072 
L 175.669279 468.049211 
L 176.106583 467.039606 
L 176.543887 463.904186 
L 176.981191 458.700433 
L 177.418495 460.547196 
L 177.855799 465.80007 
L 178.293103 466.087483 
L 178.730408 459.295118 
L 179.167712 459.578351 
L 179.605016 460.339213 
L 180.04232 458.238481 
L 180.479624 454.718449 
L 180.916928 455.451092 
L 181.354232 449.655791 
L 181.791536 450.579694 
L 182.22884 454.35056 
L 182.666144 451.749206 
L 183.103448 450.467864 
L 183.540752 444.862778 
L 183.978056 449.196974 
L 184.415361 448.154969 
L 184.852665 448.56989 
L 185.289969 445.17632 
L 185.727273 443.210412 
L 186.164577 438.56999 
L 186.601881 436.813109 
L 187.039185 444.876365 
L 187.476489 445.078077 
L 187.913793 449.021391 
L 188.351097 444.515792 
L 188.788401 446.1483 
L 189.225705 441.63016 
L 189.663009 441.013527 
L 190.100313 441.48384 
L 190.537618 448.673359 
L 191.412226 467.792107 
L 191.84953 468.22793 
L 192.286834 467.921704 
L 192.724138 466.216035 
L 193.161442 459.445618 
L 193.598746 461.768964 
L 194.03605 459.626427 
L 194.473354 455.947534 
L 194.910658 454.670373 
L 195.347962 453.959677 
L 196.222571 445.414612 
L 196.659875 438.94833 
L 197.097179 434.517981 
L 197.534483 433.130035 
L 198.409091 428.199064 
L 198.846395 430.775335 
L 199.721003 425.85168 
L 200.158307 424.574518 
L 200.595611 426.639715 
L 201.032915 423.175076 
L 201.470219 425.865267 
L 201.907524 425.513054 
L 202.344828 427.499866 
L 202.782132 425.642652 
L 203.219436 434.910954 
L 203.65674 432.050406 
L 204.094044 433.116449 
L 204.531348 435.104305 
L 204.968652 449.260728 
L 205.405956 453.568795 
L 205.84326 454.031792 
L 206.280564 450.065485 
L 206.717868 451.056278 
L 207.155172 451.275758 
L 208.029781 445.84939 
L 208.467085 441.160892 
L 208.904389 441.320798 
L 210.216301 437.334634 
L 211.528213 420.376191 
L 211.965517 424.120928 
L 212.402821 426.121326 
L 212.840125 436.836102 
L 213.277429 421.655442 
L 213.714734 419.823312 
L 214.152038 418.799074 
L 214.589342 420.159847 
L 215.026646 420.647927 
L 215.46395 422.027512 
L 215.901254 422.676544 
L 216.338558 425.900801 
L 216.775862 440.637277 
L 217.213166 422.405853 
L 217.65047 424.657085 
L 218.087774 421.986752 
L 218.525078 421.531071 
L 218.962382 417.484288 
L 219.399687 417.68391 
L 219.836991 413.837794 
L 220.711599 415.529876 
L 221.148903 411.691076 
L 221.586207 411.056676 
L 222.023511 410.876912 
L 222.460815 410.265505 
L 222.898119 408.218076 
L 223.335423 404.446165 
L 223.772727 402.163579 
L 224.210031 394.087782 
L 224.647335 394.255004 
L 225.084639 391.87522 
L 225.521944 388.022834 
L 225.959248 382.491952 
L 226.396552 381.233604 
L 226.833856 375.989091 
L 227.27116 373.110775 
L 227.708464 374.063943 
L 228.583072 366.035176 
L 229.020376 370.671418 
L 229.894984 360.153128 
L 230.332288 360.018305 
L 230.769592 369.675399 
L 231.206897 358.194535 
L 231.644201 359.686995 
L 232.081505 358.432827 
L 232.518809 358.93972 
L 233.393417 350.836749 
L 233.830721 351.647778 
L 234.268025 350.58069 
L 234.705329 348.512358 
L 235.579937 355.436411 
L 236.017241 355.492848 
L 236.454545 353.480954 
L 236.89185 355.497029 
L 237.766458 349.591987 
L 238.203762 349.127945 
L 239.07837 340.015369 
L 239.515674 341.22355 
L 239.952978 339.743632 
L 240.390282 341.376141 
L 240.827586 340.877609 
L 241.26489 338.438252 
L 241.702194 336.642701 
L 242.139498 334.294272 
L 243.014107 327.301239 
L 243.888715 318.155218 
L 244.326019 309.208819 
L 244.763323 314.506634 
L 245.200627 313.864918 
L 245.637931 312.883532 
L 246.075235 308.836749 
L 246.512539 310.550779 
L 246.949843 309.66659 
L 247.387147 309.387538 
L 247.824451 302.783298 
L 248.261755 303.102065 
L 248.69906 301.804001 
L 249.136364 301.900154 
L 249.573668 298.672762 
L 250.010972 297.963112 
L 250.448276 300.487125 
L 250.88558 296.725666 
L 251.322884 301.377584 
L 251.760188 299.906027 
L 252.197492 302.046474 
L 252.634796 297.886816 
L 253.0721 298.639317 
L 253.509404 302.194884 
L 253.946708 302.333887 
L 254.384013 302.153078 
L 254.821317 302.115453 
L 255.258621 304.845359 
L 255.695925 305.282228 
L 256.133229 303.164774 
L 256.570533 297.8795 
L 257.445141 299.496332 
L 257.882445 302.668332 
L 258.319749 303.298552 
L 258.757053 302.411228 
L 259.194357 305.734773 
L 259.631661 310.255004 
L 260.068966 307.448803 
L 260.50627 308.367481 
L 260.943574 302.446763 
L 261.380878 307.966147 
L 261.818182 307.511511 
L 262.255486 304.228726 
L 262.69279 302.58054 
L 263.130094 305.089922 
L 263.567398 305.998149 
L 264.004702 302.768666 
L 264.442006 306.610601 
L 264.87931 307.475977 
L 265.316614 309.613288 
L 265.753918 308.906774 
L 266.191223 313.145862 
L 266.628527 313.256647 
L 267.065831 317.219818 
L 267.503135 320.081411 
L 267.940439 321.772448 
L 268.377743 320.328065 
L 268.815047 323.116498 
L 269.252351 323.807336 
L 269.689655 324.184631 
L 270.126959 322.816543 
L 270.564263 326.864371 
L 271.001567 326.741044 
L 271.438871 326.78494 
L 271.876176 328.538685 
L 272.31348 326.919763 
L 272.750784 330.14193 
L 273.188088 329.836749 
L 273.625392 329.027811 
L 274.062696 330.586115 
L 274.5 333.42158 
L 274.937304 328.162435 
L 275.374608 333.46443 
L 276.249216 331.348022 
L 276.68652 331.216334 
L 277.123824 332.723426 
L 277.561129 330.809775 
L 277.998433 332.440193 
L 278.435737 332.231165 
L 278.873041 332.520669 
L 279.310345 334.915085 
L 279.747649 335.901697 
L 280.184953 332.386891 
L 280.622257 333.392316 
L 281.059561 331.987647 
L 281.496865 329.278644 
L 281.934169 329.400926 
L 282.371473 329.994565 
L 282.808777 329.880645 
L 283.246082 328.562723 
L 283.683386 332.909461 
L 284.12069 335.949774 
L 284.557994 335.287155 
L 284.995298 335.726114 
L 285.432602 337.07748 
L 285.869906 337.869696 
L 286.30721 336.509969 
L 286.744514 336.758712 
L 287.181818 338.890798 
L 287.619122 336.78275 
L 288.49373 340.255751 
L 288.931034 340.242164 
L 289.368339 342.588503 
L 289.805643 347.968885 
L 290.242947 350.778221 
L 290.680251 348.763191 
L 291.117555 348.706754 
L 291.554859 353.34613 
L 291.992163 351.66659 
L 292.429467 355.189758 
L 292.866771 352.807883 
L 293.304075 353.067078 
L 293.741379 350.643398 
L 294.178683 349.600348 
L 294.615987 347.024078 
L 295.053292 349.341154 
L 295.490596 349.75921 
L 296.365204 353.748509 
L 296.802508 352.473439 
L 297.239812 349.855363 
L 297.677116 349.853272 
L 298.11442 350.702971 
L 298.551724 354.316021 
L 300.30094 363.030399 
L 300.738245 362.023929 
L 301.612853 366.250475 
L 302.050157 366.817986 
L 302.487461 366.876514 
L 302.924765 365.83451 
L 303.362069 368.583228 
L 303.799373 367.858946 
L 304.236677 369.275111 
L 304.673981 372.214045 
L 305.111285 372.036371 
L 305.548589 370.143622 
L 305.985893 370.667237 
L 306.423197 370.571084 
L 307.297806 369.180003 
L 307.73511 371.616225 
L 308.172414 370.220963 
L 308.609718 369.444423 
L 309.047022 367.467018 
L 309.484326 370.31398 
L 309.92163 366.317364 
L 310.358934 367.058369 
L 310.796238 368.319853 
L 311.233542 364.398487 
L 311.670846 362.575763 
L 312.10815 359.932603 
L 312.545455 353.984711 
L 312.982759 352.700234 
L 313.857367 344.940069 
L 314.294671 346.904932 
L 315.169279 344.741492 
L 315.606583 337.217528 
L 316.043887 335.657134 
L 316.481191 324.072801 
L 316.918495 321.310496 
L 317.355799 325.839088 
L 317.793103 326.057523 
L 318.230408 325.101219 
L 318.667712 325.474334 
L 319.105016 324.829483 
L 319.54232 327.308555 
L 320.854232 330.407396 
L 321.291536 328.960922 
L 321.72884 326.897815 
L 322.603448 331.727408 
L 323.040752 329.826298 
L 323.478056 329.376887 
L 323.915361 331.52047 
L 324.352665 331.283223 
L 324.789969 329.814801 
L 325.227273 326.89886 
L 326.101881 317.775832 
L 326.539185 318.841875 
L 326.976489 318.897268 
L 327.413793 314.371811 
L 327.851097 311.861385 
L 328.288401 307.327567 
L 328.725705 311.68162 
L 329.163009 312.589847 
L 329.600313 309.276753 
L 330.037618 307.472841 
L 330.474922 306.508177 
L 331.34953 299.053193 
L 332.224138 289.345931 
L 332.661442 286.975554 
L 333.098746 285.548937 
L 333.53605 285.798726 
L 333.973354 288.665545 
L 334.847962 286.764435 
L 335.285266 286.787428 
L 335.722571 289.230966 
L 336.159875 286.53973 
L 337.034483 293.692669 
L 337.471787 294.883084 
L 337.909091 294.098183 
L 338.346395 298.239029 
L 338.783699 297.835604 
L 339.221003 297.608809 
L 339.658307 298.431334 
L 340.095611 296.258488 
L 340.532915 295.423421 
L 340.970219 299.205783 
L 341.407524 297.187618 
L 341.844828 286.901349 
L 342.282132 290.938725 
L 343.15674 293.115752 
L 343.594044 289.028209 
L 344.031348 291.807236 
L 344.468652 289.52256 
L 344.905956 292.517932 
L 345.34326 288.043687 
L 345.780564 281.564863 
L 346.217868 280.819678 
L 346.655172 276.386194 
L 347.092476 279.452635 
L 347.529781 279.236291 
L 347.967085 276.607764 
L 348.404389 276.236739 
L 349.278997 281.951565 
L 349.716301 283.681272 
L 350.590909 289.401324 
L 351.028213 287.99561 
L 351.465517 283.228726 
L 351.902821 287.959031 
L 352.340125 293.965451 
L 352.777429 293.779416 
L 353.214734 293.020644 
L 353.652038 310.065834 
L 354.089342 307.043289 
L 354.526646 301.585567 
L 354.96395 308.69461 
L 355.401254 305.570686 
L 355.838558 282.646583 
L 356.275862 280.691126 
L 356.713166 283.224546 
L 357.15047 287.489763 
L 357.587774 286.562723 
L 358.025078 282.632997 
L 358.462382 286.24082 
L 358.899687 283.685453 
L 359.336991 288.315423 
L 359.774295 300.256149 
L 360.211599 321.765132 
L 361.086207 325.091813 
L 361.523511 325.569442 
L 361.960815 320.358374 
L 362.398119 299.227731 
L 363.272727 312.226138 
L 363.710031 305.793301 
L 364.147335 287.863923 
L 364.584639 294.212104 
L 365.021944 292.194983 
L 365.459248 289.542418 
L 365.896552 291.493694 
L 366.333856 287.377933 
L 366.77116 289.22365 
L 367.645768 300.930264 
L 368.520376 299.44512 
L 368.95768 303.431285 
L 369.394984 305.279092 
L 369.832288 305.89677 
L 370.269592 305.523655 
L 370.706897 310.89672 
L 371.144201 308.536794 
L 371.581505 308.950669 
L 372.018809 324.230618 
L 372.456113 325.341602 
L 372.893417 321.173583 
L 373.330721 325.199462 
L 373.768025 332.321047 
L 374.205329 337.124511 
L 374.642633 335.921555 
L 375.079937 337.326223 
L 375.517241 344.620256 
L 375.954545 349.787428 
L 376.39185 359.216682 
L 376.829154 358.431782 
L 377.266458 360.172986 
L 377.703762 365.39346 
L 378.141066 367.852675 
L 378.57837 372.403215 
L 379.452978 397.522112 
L 379.890282 402.478167 
L 380.327586 404.027064 
L 380.76489 404.864221 
L 381.639498 432.196725 
L 382.076803 437.418245 
L 382.514107 448.75697 
L 382.951411 449.655791 
L 383.388715 460.068521 
L 383.826019 461.294471 
L 384.263323 467.499467 
L 384.700627 463.948081 
L 385.137931 463.45373 
L 385.575235 467.987548 
L 386.012539 470.214741 
L 386.449843 470.720589 
L 386.887147 468.498621 
L 387.324451 469.015966 
L 387.761755 469.200956 
L 388.19906 467.658329 
L 388.636364 474.822764 
L 389.073668 477.210909 
L 389.510972 475.487473 
L 389.948276 477.316468 
L 390.38558 474.211357 
L 390.822884 478.639616 
L 391.260188 478.467168 
L 391.697492 481.361161 
L 392.134796 480.398587 
L 392.5721 486.540875 
L 393.446708 476.896322 
L 393.884013 481.633942 
L 394.321317 482.742836 
L 394.758621 479.94186 
L 395.195925 470.994416 
L 395.633229 471.508625 
L 396.070533 468.616722 
L 396.945141 466.002827 
L 397.382445 463.482994 
L 397.819749 457.257095 
L 398.257053 459.654646 
L 398.694357 460.749953 
L 399.131661 465.029801 
L 399.568966 462.440989 
L 400.00627 464.896023 
L 400.443574 468.078475 
L 400.880878 469.19573 
L 401.755486 465.100871 
L 402.19279 468.22584 
L 402.630094 465.853372 
L 404.816614 486.498024 
L 405.691223 492.568198 
L 406.128527 498.831722 
L 406.565831 498.757518 
L 407.877743 508.042542 
L 408.315047 509.657284 
L 409.189655 520.907172 
L 409.626959 522.87308 
L 410.064263 525.908167 
L 410.501567 529.755328 
L 410.938871 530.426308 
L 411.376176 530.809874 
L 411.81348 534.121923 
L 412.250784 530.450346 
L 412.688088 537.468462 
L 413.125392 540.938327 
L 413.562696 546.010392 
L 414 548.947235 
L 414.874608 552.836202 
L 415.311912 552.442184 
L 415.749216 550.128244 
L 416.18652 550.293376 
L 416.623824 548.300294 
L 417.498433 547.358622 
L 417.935737 544.222157 
L 418.373041 544.385199 
L 418.810345 543.191649 
L 419.247649 544.088379 
L 419.684953 541.220515 
L 420.122257 543.254357 
L 420.996865 541.371015 
L 422.308777 548.863624 
L 422.746082 549.905629 
L 423.183386 546.448305 
L 423.62069 546.44726 
L 424.057994 543.718399 
L 424.932602 532.190504 
L 425.369906 529.063445 
L 425.80721 522.032788 
L 426.244514 519.939372 
L 426.681818 515.418096 
L 427.119122 516.817538 
L 427.556426 512.239825 
L 428.431034 507.65584 
L 428.868339 504.284218 
L 429.742947 494.056477 
L 430.180251 491.298353 
L 430.617555 481.165719 
L 431.054859 473.712825 
L 431.492163 472.079271 
L 432.366771 455.869148 
L 432.804075 454.877311 
L 433.241379 448.695307 
L 434.115987 441.531917 
L 434.990596 422.586662 
L 435.4279 414.752292 
L 435.865204 414.932056 
L 436.302508 413.39779 
L 436.739812 409.652008 
L 437.61442 391.714269 
L 438.051724 384.065933 
L 438.489028 374.025272 
L 438.926332 374.518579 
L 439.363636 368.970975 
L 439.80094 368.655343 
L 440.238245 354.528184 
L 440.675549 361.111521 
L 441.112853 358.408789 
L 442.862069 331.963609 
L 443.736677 322.453879 
L 444.173981 316.093157 
L 444.611285 316.194535 
L 445.048589 314.302832 
L 445.485893 305.481849 
L 445.923197 299.240273 
L 446.360502 290.97426 
L 446.797806 285.210312 
L 448.109718 262.66873 
L 448.984326 266.974708 
L 449.858934 254.431981 
L 450.296238 252.314527 
L 450.733542 247.835057 
L 451.170846 245.555606 
L 451.60815 245.475131 
L 452.045455 242.654298 
L 452.482759 237.621948 
L 452.920063 235.29024 
L 453.794671 226.027164 
L 454.231975 223.674553 
L 454.669279 225.049958 
L 455.106583 221.764037 
L 455.543887 215.995909 
L 455.981191 214.707251 
L 456.418495 215.291485 
L 457.730408 218.871089 
L 458.167712 217.781008 
L 458.605016 217.598109 
L 459.04232 216.350212 
L 459.479624 220.310247 
L 459.916928 216.718101 
L 460.354232 220.256945 
L 460.791536 222.786184 
L 461.22884 222.491455 
L 461.666144 222.56984 
L 462.103448 227.003325 
L 462.540752 227.616822 
L 462.978056 222.34618 
L 463.415361 220.088678 
L 463.852665 210.949973 
L 464.289969 206.895874 
L 465.164577 190.93763 
L 465.601881 187.43223 
L 466.476489 171.72482 
L 467.351097 163.044931 
L 467.788401 158.041845 
L 468.225705 151.43447 
L 468.663009 150.946389 
L 469.100313 151.28815 
L 469.537618 145.994516 
L 469.974922 142.057473 
L 470.412226 142.400279 
L 470.84953 138.951316 
L 471.286834 140.601593 
L 471.724138 138.959677 
L 472.161442 140.454228 
L 472.598746 139.953606 
L 473.03605 145.196028 
L 473.473354 144.64942 
L 473.910658 146.197273 
L 474.347962 148.356532 
L 474.785266 149.527089 
L 475.222571 155.490658 
L 475.659875 155.829284 
L 476.097179 166.485532 
L 476.534483 165.611795 
L 477.846395 185.909461 
L 478.283699 187.574369 
L 478.721003 194.490061 
L 479.158307 194.952013 
L 479.595611 197.183387 
L 480.032915 203.223252 
L 480.470219 206.107839 
L 480.907524 207.545951 
L 481.344828 206.521714 
L 481.782132 207.326472 
L 482.219436 203.707152 
L 482.65674 204.62583 
L 483.094044 202.659921 
L 483.531348 200.008401 
L 483.968652 196.154969 
L 484.405956 197.767621 
L 484.84326 193.514946 
L 485.280564 193.906873 
L 485.717868 194.07305 
L 486.155172 193.775185 
L 486.592476 188.565162 
L 487.029781 181.063146 
L 487.467085 184.4818 
L 487.904389 182.80644 
L 488.341693 179.824655 
L 489.216301 178.398039 
L 489.653605 180.470552 
L 490.090909 181.958831 
L 490.528213 180.498771 
L 490.965517 180.744379 
L 491.402821 187.665296 
L 491.840125 190.56765 
L 492.277429 198.085343 
L 492.714734 201.808132 
L 493.589342 214.610053 
L 494.026646 219.284965 
L 494.46395 229.170945 
L 494.901254 233.280436 
L 495.338558 244.119584 
L 495.775862 250.803255 
L 496.213166 262.231862 
L 496.65047 267.541174 
L 497.087774 277.096889 
L 497.525078 280.910606 
L 497.962382 288.316468 
L 498.399687 293.66236 
L 498.836991 295.245747 
L 499.274295 303.075937 
L 499.711599 307.2774 
L 500.148903 315.188065 
L 500.586207 319.376987 
L 501.023511 328.048514 
L 501.460815 331.086737 
L 502.335423 345.890101 
L 503.647335 361.741741 
L 504.084639 371.513801 
L 504.521944 373.977196 
L 505.396552 386.170846 
L 506.27116 392.6967 
L 506.708464 397.929717 
L 507.145768 399.215239 
L 507.583072 401.605475 
L 508.45768 409.870442 
L 508.894984 407.855412 
L 509.332288 411.682715 
L 509.769592 420.230916 
L 510.206897 416.662808 
L 510.644201 420.346927 
L 511.081505 426.03876 
L 511.518809 426.734823 
L 511.956113 426.573871 
L 512.393417 426.967889 
L 512.830721 426.649122 
L 513.705329 421.309501 
L 514.579937 409.169153 
L 515.017241 401.021241 
L 515.454545 400.133917 
L 515.89185 395.709839 
L 516.329154 389.001085 
L 516.766458 390.802906 
L 517.203762 389.70969 
L 517.641066 387.037267 
L 518.07837 388.74189 
L 518.515674 384.562375 
L 518.952978 383.380322 
L 519.390282 379.181994 
L 519.827586 368.615627 
L 520.26489 365.183387 
L 520.702194 359.582481 
L 521.139498 344.177116 
L 521.576803 339.214791 
L 522.014107 332.651311 
L 522.888715 313.418643 
L 523.326019 315.605076 
L 523.763323 314.576659 
L 524.200627 313.152133 
L 524.637931 316.909411 
L 525.075235 317.288797 
L 525.512539 318.044433 
L 525.949843 313.669477 
L 526.387147 315.395003 
L 526.824451 313.605723 
L 527.261755 313.720689 
L 527.69906 308.340308 
L 528.136364 309.262121 
L 528.573668 310.747265 
L 529.010972 310.027164 
L 529.88558 301.625282 
L 530.322884 295.11615 
L 530.760188 291.377684 
L 532.0721 277.668581 
L 532.509404 275.790464 
L 532.946708 273.320798 
L 533.384013 276.550281 
L 533.821317 275.42153 
L 534.258621 276.399781 
L 534.695925 271.825203 
L 535.133229 268.530921 
L 535.570533 271.935988 
L 536.007837 266.474086 
L 536.445141 268.55914 
L 536.882445 269.553068 
L 537.319749 269.394207 
L 537.757053 270.516687 
L 538.194357 274.200806 
L 538.631661 274.835206 
L 539.068966 278.157707 
L 539.50627 280.388036 
L 539.943574 281.048564 
L 540.380878 283.557946 
L 540.818182 280.272025 
L 541.255486 284.55919 
L 541.69279 283.824456 
L 542.130094 288.420982 
L 542.567398 280.089126 
L 543.004702 276.20434 
L 543.442006 283.81714 
L 543.87931 278.932155 
L 544.316614 280.602289 
L 544.753918 283.32697 
L 545.191223 288.098034 
L 545.628527 289.450445 
L 546.503135 301.519723 
L 546.940439 316.644991 
L 547.377743 325.177515 
L 548.252351 337.044035 
L 548.689655 344.465575 
L 549.564263 363.1161 
L 550.001567 368.246693 
L 550.438871 374.896919 
L 550.876176 383.434669 
L 551.31348 388.653053 
L 551.750784 398.921555 
L 552.188088 403.498223 
L 552.625392 411.281382 
L 553.062696 416.336724 
L 553.5 417.520868 
L 554.374608 428.216832 
L 554.811912 428.526193 
L 555.249216 435.356184 
L 555.68652 438.53341 
L 556.123824 440.040502 
L 556.998433 447.235246 
L 557.435737 449.777027 
L 557.873041 453.536396 
L 558.310345 461.465874 
L 558.747649 467.061554 
L 560.934169 483.170298 
L 561.371473 490.738158 
L 561.808777 489.728552 
L 562.246082 489.975205 
L 563.557994 498.607017 
L 563.995298 499.306216 
L 564.432602 505.822665 
L 564.869906 503.992624 
L 565.30721 508.833713 
L 565.744514 511.093306 
L 566.181818 512.041248 
L 566.619122 510.614632 
L 567.056426 515.980381 
L 567.49373 518.576509 
L 567.931034 518.760454 
L 568.368339 523.202299 
L 569.242947 528.475031 
L 569.680251 530.339561 
L 570.117555 535.017608 
L 570.554859 531.64076 
L 570.992163 531.780809 
L 571.429467 531.776629 
L 571.866771 531.494441 
L 572.304075 528.319305 
L 572.741379 527.903339 
L 573.178683 526.204987 
L 573.615987 526.428647 
L 574.053292 527.431981 
L 574.490596 523.170945 
L 574.9279 522.250177 
L 575.365204 517.583626 
L 575.802508 519.158652 
L 576.239812 514.346827 
L 576.677116 514.275758 
L 577.11442 510.430687 
L 577.989028 497.73119 
L 578.426332 498.622694 
L 578.863636 498.729299 
L 579.30094 488.262221 
L 579.738245 488.625929 
L 580.175549 475.709043 
L 580.612853 480.08609 
L 581.050157 473.190255 
L 581.487461 471.336177 
L 581.924765 461.10112 
L 582.362069 456.680177 
L 583.236677 451.592435 
L 583.673981 442.364893 
L 584.111285 435.582979 
L 584.548589 433.513602 
L 584.985893 423.778122 
L 585.860502 407.806291 
L 586.297806 408.02786 
L 586.73511 404.393908 
L 587.172414 407.679829 
L 587.609718 404.706405 
L 588.047022 405.608361 
L 588.484326 405.222704 
L 589.358934 389.496481 
L 589.796238 387.167909 
L 590.233542 379.883283 
L 591.10815 371.074842 
L 591.545455 371.253561 
L 591.982759 369.007555 
L 592.420063 360.270184 
L 592.857367 368.574867 
L 593.294671 361.28606 
L 593.731975 357.229871 
L 594.169279 355.69038 
L 594.606583 365.398686 
L 595.481191 354.224048 
L 595.918495 353.543662 
L 596.355799 361.345633 
L 596.793103 366.157458 
L 597.230408 363.822615 
L 597.667712 354.961917 
L 598.105016 353.770457 
L 598.979624 336.233007 
L 599.854232 328.248136 
L 600.72884 304.900752 
L 601.603448 291.746618 
L 602.478056 287.363301 
L 603.352665 263.604131 
L 603.789969 253.729647 
L 604.227273 234.134315 
L 604.664577 238.824904 
L 605.101881 237.014722 
L 605.539185 230.836898 
L 606.413793 204.459653 
L 606.851097 203.153227 
L 607.288401 197.433176 
L 607.725705 197.878405 
L 608.163009 187.661116 
L 608.600313 190.494491 
L 609.037618 186.994316 
L 609.474922 187.314129 
L 610.786834 187.294272 
L 611.661442 181.438352 
L 612.098746 189.976101 
L 612.53605 191.833315 
L 612.973354 188.499318 
L 613.847962 198.180451 
L 614.285266 208.044483 
L 614.722571 210.599851 
L 615.159875 216.873827 
L 615.597179 215.829732 
L 616.034483 225.684358 
L 616.471787 225.656139 
L 616.909091 226.07106 
L 617.346395 228.686 
L 617.783699 229.837744 
L 618.221003 229.785487 
L 618.658307 225.47742 
L 619.095611 224.391519 
L 619.532915 221.886319 
L 619.970219 223.057921 
L 620.407524 212.330603 
L 620.844828 214.6968 
L 621.719436 207.61075 
L 622.15674 205.898811 
L 622.594044 206.768367 
L 623.031348 208.687244 
L 623.468652 197.484388 
L 623.905956 193.500314 
L 624.780564 188.887065 
L 625.217868 184.281133 
L 625.655172 182.201304 
L 626.092476 182.965301 
L 626.529781 186.289892 
L 626.967085 179.660568 
L 627.404389 181.228279 
L 627.841693 180.996257 
L 628.278997 180.207177 
L 628.716301 177.809625 
L 629.153605 179.685652 
L 629.590909 177.631951 
L 630.028213 178.03433 
L 630.465517 173.195332 
L 630.902821 174.248833 
L 631.340125 174.462042 
L 631.777429 180.478913 
L 632.214734 182.890051 
L 632.652038 183.761698 
L 633.089342 187.091514 
L 633.526646 185.477818 
L 633.96395 176.146807 
L 634.401254 175.865665 
L 634.838558 172.273518 
L 635.275862 175.553168 
L 635.713166 171.687195 
L 636.15047 169.155865 
L 636.587774 191.262669 
L 637.462382 205.708595 
L 637.899687 204.823361 
L 638.336991 207.270034 
L 638.774295 205.924939 
L 639.211599 209.971721 
L 639.648903 208.28382 
L 640.086207 213.232559 
L 640.523511 211.212303 
L 640.960815 211.04508 
L 641.835423 219.952809 
L 642.272727 224.416603 
L 642.710031 223.903439 
L 643.147335 225.817091 
L 643.584639 224.945444 
L 644.021944 230.127248 
L 644.459248 230.482596 
L 644.896552 233.72044 
L 645.333856 235.807585 
L 645.77116 236.760753 
L 646.208464 240.06026 
L 646.645768 240.690479 
L 647.083072 243.508177 
L 647.520376 245.215936 
L 647.95768 249.715264 
L 648.394984 255.732136 
L 648.832288 257.474384 
L 649.269592 262.265306 
L 649.706897 269.734923 
L 650.144201 268.355338 
L 650.581505 272.231762 
L 651.018809 283.256945 
L 652.768025 306.108933 
L 653.205329 308.409287 
L 654.517241 325.06882 
L 654.954545 327.574021 
L 655.39185 333.828139 
L 655.829154 334.144817 
L 656.266458 333.050555 
L 656.703762 330.73557 
L 657.141066 327.554163 
L 657.57837 327.364993 
L 658.015674 328.502105 
L 658.452978 323.075738 
L 658.890282 320.086637 
L 659.327586 322.518678 
L 659.76489 326.386742 
L 660.202194 325.634241 
L 660.639498 321.324083 
L 661.076803 321.428597 
L 661.514107 323.317165 
L 661.951411 322.856258 
L 662.388715 301.724571 
L 662.826019 326.759857 
L 663.263323 330.820226 
L 663.700627 331.993918 
L 664.137931 335.153377 
L 664.575235 335.948728 
L 665.012539 335.96127 
L 665.449843 338.64728 
L 665.887147 340.248435 
L 666.324451 343.471647 
L 666.761755 338.583527 
L 667.19906 340.17632 
L 667.636364 340.034181 
L 668.073668 342.523705 
L 668.510972 343.377584 
L 668.948276 345.198218 
L 669.38558 341.983367 
L 669.822884 342.587458 
L 670.697492 342.065933 
L 671.134796 338.874076 
L 671.5721 337.905231 
L 672.009404 334.741592 
L 672.446708 334.680973 
L 672.884013 333.809327 
L 673.321317 334.224247 
L 673.758621 333.530274 
L 674.195925 335.32687 
L 674.633229 334.884776 
L 675.070533 331.196476 
L 675.507837 330.59134 
L 675.945141 328.559588 
L 676.382445 322.654546 
L 676.819749 326.583228 
L 677.257053 324.809625 
L 678.131661 322.600199 
L 678.568966 328.121674 
L 679.00627 330.221361 
L 679.443574 332.924093 
L 679.880878 334.585866 
L 680.318182 335.302832 
L 680.755486 330.947733 
L 681.19279 331.850734 
L 681.630094 331.487025 
L 682.067398 328.429991 
L 682.942006 332.242662 
L 683.37931 330.127298 
L 683.816614 329.471995 
L 684.253918 323.496929 
L 684.691223 325.17856 
L 685.128527 323.789569 
L 685.565831 324.269288 
L 686.003135 322.605425 
L 686.440439 329.465724 
L 686.877743 330.73975 
L 687.752351 334.138546 
L 688.189655 333.72258 
L 688.626959 333.899209 
L 689.064263 336.923844 
L 689.501567 332.988892 
L 689.938871 331.4818 
L 690.376176 330.626875 
L 690.81348 332.697298 
L 691.250784 336.660469 
L 691.688088 336.731538 
L 692.125392 335.459603 
L 692.562696 338.662957 
L 693 338.625332 
L 693.437304 335.474235 
L 693.874608 337.295914 
L 694.311912 335.181596 
L 694.749216 337.075389 
L 695.18652 333.666142 
L 695.623824 327.83217 
L 696.061129 326.224745 
L 696.498433 327.797681 
L 696.935737 328.850137 
L 697.373041 325.375046 
L 697.810345 329.76986 
L 698.247649 331.037615 
L 698.684953 322.592883 
L 699.122257 324.142826 
L 699.559561 324.387389 
L 699.996865 318.159399 
L 700.434169 314.452287 
L 700.871473 319.252615 
L 701.308777 326.591589 
L 701.746082 319.306963 
L 702.183386 318.740497 
L 702.62069 320.337471 
L 703.057994 323.248186 
L 703.495298 317.629513 
L 703.932602 318.251371 
L 704.369906 315.585219 
L 704.80721 315.862181 
L 705.681818 310.499567 
L 706.119122 309.340507 
L 706.556426 304.636331 
L 707.431034 301.070313 
L 707.868339 305.255054 
L 708.305643 300.78917 
L 708.742947 300.64076 
L 709.180251 296.42362 
L 709.617555 299.205783 
L 710.054859 300.727507 
L 710.492163 306.464281 
L 710.929467 309.92474 
L 711.366771 305.128592 
L 711.804075 307.634838 
L 712.678683 315.740945 
L 713.115987 300.803802 
L 713.553292 307.205285 
L 713.990596 311.355537 
L 714.4279 312.728851 
L 714.865204 304.426258 
L 715.302508 306.556253 
L 715.739812 311.265655 
L 716.177116 311.740148 
L 716.61442 317.810322 
L 717.051724 331.531966 
L 717.489028 328.248136 
L 717.926332 321.168357 
L 718.363636 322.26889 
L 718.80094 326.900951 
L 719.238245 327.809177 
L 719.675549 324.970577 
L 720.112853 327.952362 
L 720.550157 333.561628 
L 720.987461 318.979834 
L 721.424765 319.576609 
L 721.862069 330.318559 
L 722.299373 330.523406 
L 722.736677 315.352152 
L 723.173981 315.710636 
L 723.611285 320.098134 
L 724.048589 309.289295 
L 724.485893 302.326571 
L 724.923197 314.601742 
L 725.360502 323.738357 
L 725.797806 312.565809 
L 726.23511 309.041597 
L 727.109718 309.633146 
L 727.547022 294.761847 
L 727.984326 293.711482 
L 728.42163 301.601244 
L 728.858934 295.125556 
L 729.733542 307.334883 
L 730.60815 300.830976 
L 731.045455 308.494988 
L 731.482759 313.596317 
L 731.920063 308.574419 
L 732.357367 295.541522 
L 732.794671 297.228378 
L 733.231975 302.0193 
L 733.669279 294.3741 
L 734.106583 297.722729 
L 734.543887 304.916429 
L 734.981191 303.607913 
L 735.418495 288.784691 
L 735.855799 288.277798 
L 736.293103 280.395352 
L 736.730408 283.155567 
L 737.167712 281.370467 
L 737.605016 289.078376 
L 738.04232 289.458807 
L 738.479624 288.137749 
L 738.916928 289.332345 
L 739.354232 295.93554 
L 739.791536 297.387239 
L 740.22884 294.18702 
L 740.666144 294.763938 
L 741.103448 292.371612 
L 741.540752 286.485383 
L 741.978056 275.213547 
L 742.415361 274.809078 
L 742.852665 275.000338 
L 743.289969 280.765331 
L 743.727273 283.755477 
L 744.164577 283.149296 
L 744.601881 284.162037 
L 745.039185 277.760553 
L 745.476489 280.475827 
L 745.913793 287.50753 
L 746.788401 277.195133 
L 747.225705 280.135112 
L 747.663009 275.492599 
L 748.100313 273.748261 
L 748.537618 283.649918 
L 748.974922 278.849589 
L 749.412226 275.517683 
L 749.84953 267.031145 
L 750.286834 271.500164 
L 750.724138 271.331897 
L 751.161442 270.063097 
L 751.598746 260.416453 
L 752.03605 259.182143 
L 752.473354 264.040999 
L 753.347962 259.369223 
L 753.785266 260.004668 
L 754.222571 266.207575 
L 754.659875 258.992973 
L 755.097179 260.80002 
L 755.534483 255.949525 
L 755.971787 252.652108 
L 756.409091 250.308904 
L 756.846395 251.683263 
L 757.283699 261.177315 
L 757.721003 260.872135 
L 758.158307 262.176469 
L 758.595611 261.144916 
L 759.032915 261.952809 
L 759.470219 259.381765 
L 759.907524 259.216633 
L 760.344828 258.703469 
L 760.782132 264.002329 
L 761.219436 260.872135 
L 761.65674 260.023481 
L 762.094044 263.82361 
L 762.531348 263.494391 
L 762.968652 266.022585 
L 763.405956 265.074643 
L 763.84326 272.99994 
L 764.280564 271.735321 
L 764.717868 274.570786 
L 765.155172 273.638521 
L 765.592476 275.170696 
L 766.029781 271.377883 
L 766.467085 271.343393 
L 766.904389 280.185278 
L 767.341693 284.238332 
L 767.778997 284.833016 
L 768.216301 281.132175 
L 768.653605 287.576509 
L 769.090909 287.684159 
L 769.528213 284.355387 
L 769.965517 284.75045 
L 770.402821 289.482845 
L 771.277429 283.775335 
L 771.714734 286.778022 
L 772.152038 288.114756 
L 772.589342 288.99999 
L 773.026646 291.241816 
L 773.46395 296.182193 
L 773.901254 295.03881 
L 774.338558 291.64524 
L 774.775862 291.478017 
L 775.213166 293.354044 
L 775.65047 297.414413 
L 776.087774 297.069517 
L 776.962382 302.211606 
L 777.399687 308.623541 
L 777.836991 309.706306 
L 778.274295 315.156711 
L 778.711599 314.759558 
L 779.148903 319.893286 
L 779.586207 320.759707 
L 780.023511 323.934843 
L 780.460815 325.303977 
L 780.898119 329.513801 
L 781.335423 335.645638 
L 781.772727 337.432827 
L 782.210031 335.730294 
L 782.647335 328.424765 
L 783.084639 327.860389 
L 783.521944 327.840532 
L 783.959248 328.814602 
L 784.396552 327.08594 
L 784.833856 328.390275 
L 785.27116 332.036769 
L 785.708464 330.693764 
L 786.145768 328.249181 
L 786.583072 326.461992 
L 787.020376 325.804599 
L 787.45768 326.523655 
L 787.894984 325.187966 
L 788.332288 324.426059 
L 788.769592 328.12481 
L 789.206897 325.325924 
L 789.644201 327.686896 
L 790.081505 323.998597 
L 790.956113 329.241019 
L 791.393417 330.156562 
L 791.830721 329.115602 
L 792.705329 341.151436 
L 793.142633 342.751545 
L 793.579937 345.721833 
L 794.017241 346.226636 
L 794.454545 350.627721 
L 794.89185 350.219071 
L 795.329154 351.661365 
L 795.766458 351.431434 
L 796.203762 357.259135 
L 796.641066 359.094401 
L 797.07837 364.341004 
L 797.952978 370.787428 
L 798.827586 389.444224 
L 799.26489 393.803504 
L 800.139498 399.902941 
L 801.014107 408.554611 
L 801.451411 411.034729 
L 801.888715 410.669975 
L 802.763323 416.491405 
L 803.200627 417.475927 
L 803.637931 416.280287 
L 804.075235 409.959279 
L 804.512539 415.101369 
L 805.387147 409.588255 
L 805.824451 408.923546 
L 806.261755 408.646583 
L 806.69906 406.080764 
L 807.136364 406.262619 
L 807.573668 402.831424 
L 808.010972 401.959777 
L 808.448276 402.828288 
L 808.88558 405.027263 
L 809.322884 398.989489 
L 809.760188 398.042592 
L 810.197492 398.693714 
L 810.634796 399.028159 
L 811.0721 398.396894 
L 811.509404 396.177017 
L 811.946708 395.23221 
L 812.384013 395.326273 
L 812.821317 390.253163 
L 813.258621 390.519674 
L 813.695925 388.70113 
L 814.133229 390.857254 
L 814.570533 388.126303 
L 815.007837 387.439646 
L 815.445141 387.555656 
L 815.882445 387.09893 
L 816.319749 384.929219 
L 816.757053 389.123366 
L 817.194357 391.577355 
L 817.631661 389.883183 
L 818.068966 388.704265 
L 818.50627 391.57631 
L 818.943574 391.265904 
L 819.380878 389.558145 
L 819.818182 390.004419 
L 820.255486 391.252317 
L 820.69279 387.108336 
L 821.130094 388.450296 
L 821.567398 388.149296 
L 822.004702 390.284517 
L 822.87931 379.088976 
L 823.316614 379.683661 
L 823.753918 380.026467 
L 824.628527 376.946439 
L 825.065831 376.200209 
L 825.503135 378.277948 
L 825.940439 378.06892 
L 826.377743 378.621799 
L 826.815047 381.873229 
L 827.252351 382.588105 
L 827.689655 382.897467 
L 828.126959 385.427751 
L 828.564263 385.715164 
L 829.001567 388.718897 
L 829.438871 384.529976 
L 829.876176 391.435216 
L 830.31348 402.813656 
L 831.188088 435.792007 
L 831.625392 456.25585 
L 832.5 483.846504 
L 833.374608 520.909262 
L 833.811912 532.750699 
L 834.249216 536.986652 
L 834.68652 536.828836 
L 835.123824 538.634838 
L 835.561129 536.043936 
L 835.998433 537.702573 
L 836.435737 540.121027 
L 837.310345 533.288946 
L 839.059561 524.760603 
L 839.496865 520.795342 
L 839.934169 521.961718 
L 840.808777 516.096392 
L 841.246082 519.211954 
L 841.683386 518.253561 
L 842.12069 513.196128 
L 842.557994 513.732285 
L 842.995298 511.627373 
L 843.869906 504.425312 
L 844.30721 507.639118 
L 844.744514 501.781108 
L 845.181818 503.659225 
L 845.619122 508.84939 
L 846.056426 501.787379 
L 846.49373 497.456318 
L 846.931034 503.390624 
L 847.368339 504.827691 
L 847.805643 508.58497 
L 848.242947 513.630906 
L 848.680251 516.462191 
L 849.117555 512.376738 
L 849.554859 515.799572 
L 849.992163 518.330901 
L 850.429467 513.704066 
L 851.304075 500.992027 
L 851.741379 487.229622 
L 852.178683 458.383756 
L 852.615987 457.33339 
L 853.9279 429.349764 
L 854.802508 375.719445 
L 855.239812 371.09679 
L 855.677116 357.55909 
L 856.11442 351.504594 
L 856.551724 342.7505 
L 856.989028 338.032738 
L 857.426332 331.778619 
L 857.863636 332.426606 
L 858.30094 328.367282 
L 858.738245 333.706903 
L 859.175549 330.241218 
L 859.612853 334.341303 
L 860.050157 322.656637 
L 860.487461 325.916429 
L 860.924765 317.7612 
L 861.362069 314.743881 
L 861.799373 310.037615 
L 862.236677 307.206331 
L 862.673981 307.232459 
L 863.111285 309.575663 
L 863.548589 305.828836 
L 863.985893 304.96764 
L 864.423197 306.163281 
L 864.860502 308.591141 
L 865.297806 307.528234 
L 865.73511 309.881889 
L 866.172414 315.003076 
L 867.047022 314.586065 
L 867.484326 315.662559 
L 867.92163 312.432031 
L 868.358934 310.570637 
L 868.796238 310.41282 
L 869.233542 315.807834 
L 869.670846 316.395202 
L 870.10815 321.268691 
L 870.545455 316.610501 
L 870.982759 313.644394 
L 871.420063 312.87099 
L 871.857367 311.340905 
L 872.294671 316.478814 
L 872.731975 313.561828 
L 873.169279 313.296362 
L 873.606583 313.368477 
L 874.043887 313.118688 
L 874.481191 315.282128 
L 875.355799 312.038013 
L 875.793103 311.657582 
L 876.230408 315.340656 
L 876.667712 313.377883 
L 877.105016 314.966496 
L 877.54232 315.283173 
L 877.979624 318.553417 
L 878.854232 321.907271 
L 879.291536 340.370716 
L 879.72884 350.980978 
L 880.166144 356.264162 
L 880.603448 353.532165 
L 881.040752 354.710038 
L 881.478056 356.382262 
L 881.915361 360.235694 
L 882.352665 360.178211 
L 882.789969 364.230219 
L 883.227273 366.087433 
L 883.664577 363.686747 
L 884.101881 361.965401 
L 884.539185 362.416901 
L 884.976489 363.981476 
L 885.413793 363.19135 
L 885.851097 362.937381 
L 886.725705 364.846852 
L 887.163009 365.423769 
L 887.600313 364.768467 
L 888.037618 360.889952 
L 888.474922 363.429642 
L 888.912226 360.806341 
L 889.34953 360.783347 
L 889.786834 359.553218 
L 891.098746 353.392117 
L 891.53605 348.481003 
L 891.973354 347.571731 
L 892.410658 347.433773 
L 893.285266 342.540427 
L 893.722571 341.202648 
L 894.159875 343.31174 
L 895.034483 344.346429 
L 895.471787 342.612542 
L 895.909091 342.923993 
L 896.783699 346.859991 
L 897.221003 353.189359 
L 897.658307 355.087334 
L 898.095611 355.331897 
L 898.532915 353.936635 
L 898.970219 350.401971 
L 899.407524 351.914289 
L 899.844828 347.628169 
L 900.282132 338.327467 
L 900.719436 341.197422 
L 901.15674 336.631205 
L 901.594044 329.265057 
L 902.031348 332.117245 
L 902.468652 330.010242 
L 902.905956 326.440044 
L 903.34326 317.436162 
L 903.780564 315.115951 
L 904.217868 316.440143 
L 904.655172 314.996805 
L 905.092476 298.675897 
L 905.529781 313.062251 
L 905.967085 317.385995 
L 906.404389 316.145414 
L 906.841693 311.22803 
L 907.278997 313.461494 
L 907.716301 312.745573 
L 908.153605 312.687045 
L 908.590909 309.945643 
L 909.028213 308.728055 
L 909.465517 313.089424 
L 909.902821 314.035276 
L 910.340125 308.523207 
L 910.777429 306.078624 
L 911.214734 309.681222 
L 911.652038 305.979336 
L 912.089342 306.528035 
L 912.526646 304.470154 
L 912.96395 300.892639 
L 913.401254 300.696153 
L 913.838558 300.055482 
L 914.275862 297.737361 
L 914.713166 292.421779 
L 915.15047 294.797382 
L 915.587774 291.030697 
L 916.025078 278.970826 
L 916.462382 280.300244 
L 916.899687 280.916877 
L 917.336991 280.119435 
L 917.774295 274.491355 
L 918.648903 267.609108 
L 919.086207 267.286159 
L 919.523511 262.524501 
L 919.960815 254.024377 
L 920.398119 250.427004 
L 920.835423 245.886916 
L 921.272727 246.504594 
L 921.710031 244.014025 
L 922.147335 235.591241 
L 922.584639 232.780859 
L 923.021944 233.325377 
L 923.459248 232.927179 
L 923.896552 234.185527 
L 924.333856 229.834609 
L 924.77116 230.524402 
L 925.208464 233.696402 
L 926.083072 241.504643 
L 926.520376 249.328562 
L 926.95768 253.829981 
L 927.394984 253.947036 
L 927.832288 254.623242 
L 928.269592 261.62359 
L 928.706897 263.622943 
L 929.144201 267.918469 
L 929.581505 274.503897 
L 930.018809 273.958334 
L 930.456113 274.162136 
L 931.330721 277.404161 
L 931.768025 273.891445 
L 932.642633 263.780759 
L 933.079937 262.013428 
L 933.517241 261.825302 
L 933.954545 260.87527 
L 933.954545 260.87527 
" style="fill:none;stroke:#ff0000;stroke-linecap:square;stroke-width:1.5;"/>
   </g>
   <g id="line2d_34">
    <path clip-path="url(#p2b94fdc5ae)" d="M 173.045455 469.845807 
L 174.794671 473.727457 
L 175.231975 474.08594 
L 175.669279 473.792256 
L 176.106583 475.037018 
L 176.543887 476.725964 
L 177.418495 477.235993 
L 177.855799 476.648624 
L 178.293103 475.819828 
L 178.730408 474.173732 
L 179.167712 472.022834 
L 179.605016 470.523058 
L 180.04232 470.048564 
L 180.479624 470.685054 
L 180.916928 472.282029 
L 183.540752 489.236291 
L 183.978056 491.803155 
L 185.289969 496.594078 
L 185.727273 495.761101 
L 186.601881 492.962216 
L 187.039185 489.950122 
L 188.788401 473.266551 
L 189.663009 469.513452 
L 190.100313 468.845608 
L 190.537618 467.868402 
L 190.974922 467.211009 
L 191.84953 465.026666 
L 192.286834 465.074742 
L 192.724138 464.86676 
L 193.161442 462.145215 
L 194.910658 439.386244 
L 195.347962 436.812064 
L 195.785266 437.314776 
L 196.222571 437.104703 
L 196.659875 436.477619 
L 197.097179 436.325029 
L 197.534483 437.447509 
L 197.971787 437.840482 
L 198.409091 437.717155 
L 198.846395 436.919713 
L 199.283699 435.116847 
L 199.721003 435.304972 
L 200.158307 436.141084 
L 200.595611 435.880844 
L 201.470219 432.163281 
L 201.907524 431.648027 
L 202.344828 430.899706 
L 202.782132 429.697795 
L 203.219436 427.100622 
L 203.65674 422.753884 
L 204.094044 417.029652 
L 204.531348 413.069616 
L 204.968652 412.541821 
L 205.84326 413.705061 
L 206.280564 412.944199 
L 206.717868 411.084895 
L 208.029781 401.278346 
L 208.467085 403.860887 
L 208.904389 411.140288 
L 209.778997 428.399731 
L 210.216301 433.563768 
L 210.653605 435.235993 
L 211.090909 434.355985 
L 211.528213 433.111223 
L 211.965517 429.927726 
L 213.277429 414.931011 
L 213.714734 408.485632 
L 215.901254 368.882138 
L 216.338558 364.925238 
L 216.775862 363.166267 
L 217.213166 362.041696 
L 217.65047 361.453282 
L 218.087774 362.124262 
L 218.525078 363.819479 
L 218.962382 366.328861 
L 219.836991 373.859095 
L 220.274295 378.121177 
L 222.460815 410.123366 
L 223.335423 434.121873 
L 223.772727 442.409834 
L 224.210031 447.126552 
L 224.647335 450.534753 
L 225.084639 451.956144 
L 225.521944 450.722879 
L 225.959248 447.172538 
L 228.145768 423.074742 
L 229.45768 401.045279 
L 229.894984 397.878505 
L 230.769592 401.286707 
L 231.206897 399.81515 
L 231.644201 399.185975 
L 232.081505 399.21942 
L 232.518809 400.979436 
L 232.956113 404.540228 
L 233.830721 415.037615 
L 234.705329 433.744578 
L 235.579937 440.246394 
L 236.017241 441.792156 
L 236.454545 441.762893 
L 236.89185 440.4387 
L 237.329154 438.23868 
L 238.203762 433.203195 
L 238.641066 430.795192 
L 239.515674 424.740696 
L 240.390282 419.707301 
L 240.827586 416.796586 
L 241.26489 412.735171 
L 242.139498 400.394157 
L 243.451411 382.304872 
L 244.763323 361.943453 
L 245.200627 356.740746 
L 246.075235 348.741243 
L 246.512539 346.29248 
L 246.949843 345.527437 
L 247.824451 340.403116 
L 248.261755 341.181745 
L 248.69906 342.446364 
L 249.136364 340.859842 
L 249.573668 339.970428 
L 250.010972 339.513701 
L 250.448276 339.563868 
L 251.322884 335.234898 
L 252.197492 331.552869 
L 252.634796 329.856607 
L 253.0721 330.669726 
L 253.509404 333.12894 
L 254.384013 336.230916 
L 254.821317 337.67948 
L 255.258621 337.470452 
L 255.695925 336.36992 
L 256.133229 334.365341 
L 257.445141 322.055681 
L 257.882445 318.885771 
L 258.319749 317.026467 
L 258.757053 315.829782 
L 259.631661 312.556403 
L 260.068966 310.423272 
L 260.943574 303.323635 
L 261.380878 298.280834 
L 262.255486 285.267795 
L 262.69279 282.851431 
L 263.130094 281.555457 
L 263.567398 281.114408 
L 264.004702 280.969134 
L 264.442006 282.464729 
L 264.87931 284.837197 
L 265.316614 286.521963 
L 265.753918 287.022585 
L 266.191223 288.188961 
L 267.065831 291.367232 
L 267.503135 291.951466 
L 268.815047 294.701229 
L 269.689655 299.244453 
L 270.126959 300.802757 
L 270.564263 300.745274 
L 271.001567 301.107938 
L 271.438871 302.673558 
L 271.876176 303.367531 
L 272.31348 303.736465 
L 272.750784 304.286209 
L 273.188088 305.537242 
L 273.625392 306.096392 
L 274.062696 304.051053 
L 274.937304 297.158354 
L 275.374608 295.312636 
L 275.811912 295.166317 
L 276.249216 295.665894 
L 276.68652 296.377634 
L 277.123824 299.612343 
L 277.561129 303.785587 
L 277.998433 306.324232 
L 278.435737 307.822963 
L 278.873041 307.810422 
L 279.310345 309.575663 
L 279.747649 310.155716 
L 280.184953 309.337371 
L 280.622257 308.181446 
L 281.059561 307.999592 
L 281.934169 305.584273 
L 282.371473 305.428547 
L 282.808777 305.674155 
L 283.683386 307.443577 
L 284.557994 312.409038 
L 286.30721 328.751894 
L 287.181818 335.018554 
L 287.619122 336.081461 
L 288.056426 336.528781 
L 288.49373 337.293824 
L 289.368339 337.662758 
L 289.805643 337.973165 
L 290.242947 338.566804 
L 290.680251 339.929667 
L 291.992163 342.660618 
L 292.429467 342.757816 
L 292.866771 341.726263 
L 293.304075 342.128642 
L 293.741379 341.772249 
L 294.178683 340.903738 
L 295.490596 339.510566 
L 295.9279 339.671517 
L 296.365204 339.597312 
L 296.802508 340.232758 
L 297.239812 341.724173 
L 297.677116 342.171493 
L 298.551724 340.456418 
L 298.989028 338.641009 
L 299.863636 333.990136 
L 300.738245 331.209018 
L 301.175549 330.718847 
L 301.612853 332.285512 
L 302.487461 336.860091 
L 302.924765 338.742388 
L 303.799373 343.431932 
L 304.673981 346.585119 
L 305.111285 346.991679 
L 305.548589 346.641557 
L 305.985893 346.528682 
L 306.423197 346.208869 
L 306.860502 345.739601 
L 307.297806 346.734574 
L 308.172414 351.595521 
L 308.609718 352.25814 
L 309.484326 354.445618 
L 309.92163 354.853223 
L 310.358934 354.597163 
L 310.796238 352.757717 
L 311.233542 350.35494 
L 311.670846 346.942557 
L 312.545455 338.030647 
L 312.982759 335.198318 
L 313.420063 333.628517 
L 313.857367 334.01731 
L 314.294671 335.079172 
L 314.731975 335.697895 
L 315.169279 335.309103 
L 315.606583 335.595471 
L 316.043887 337.050306 
L 316.481191 339.947434 
L 317.355799 348.317961 
L 318.230408 357.283173 
L 319.54232 367.70531 
L 319.979624 369.593878 
L 320.416928 370.111223 
L 320.854232 369.850983 
L 321.291536 369.782004 
L 321.72884 369.07967 
L 322.166144 368.657433 
L 322.603448 368.735818 
L 323.040752 367.942557 
L 324.352665 364.146608 
L 325.227273 360.794844 
L 325.664577 359.656686 
L 326.101881 357.81515 
L 326.539185 355.478216 
L 326.976489 353.853023 
L 327.413793 352.831922 
L 327.851097 351.285114 
L 328.288401 351.130433 
L 328.725705 351.279889 
L 329.163009 350.452138 
L 329.600313 348.859344 
L 330.037618 346.093903 
L 330.912226 337.639765 
L 331.786834 328.346379 
L 332.224138 325.994814 
L 332.661442 324.772 
L 333.098746 322.401622 
L 333.53605 318.768715 
L 333.973354 313.367431 
L 334.410658 304.728303 
L 334.847962 298.789817 
L 335.285266 296.395401 
L 335.722571 295.583328 
L 336.159875 296.002429 
L 336.597179 297.84083 
L 337.034483 300.82157 
L 337.909091 310.990783 
L 338.783699 322.220813 
L 340.095611 333.024426 
L 340.532915 336.284218 
L 341.844828 340.565112 
L 342.282132 340.672762 
L 342.719436 339.330802 
L 343.15674 335.906923 
L 346.217868 295.93554 
L 347.092476 291.392316 
L 347.529781 288.917424 
L 347.967085 287.251471 
L 348.404389 286.071507 
L 348.841693 284.348071 
L 349.278997 282.026815 
L 350.590909 271.790713 
L 351.028213 269.867655 
L 351.465517 270.062051 
L 351.902821 271.979884 
L 353.214734 276.01935 
L 353.652038 278.129488 
L 354.089342 279.557149 
L 354.526646 282.549385 
L 355.401254 290.007505 
L 356.713166 298.225442 
L 357.15047 299.771204 
L 357.587774 299.923794 
L 358.025078 298.382213 
L 358.462382 296.249082 
L 358.899687 295.532116 
L 359.336991 291.401722 
L 359.774295 283.602887 
L 360.211599 278.870492 
L 361.523511 272.631006 
L 361.960815 272.709391 
L 362.398119 273.112815 
L 362.835423 275.127846 
L 363.272727 273.491156 
L 364.584639 262.841179 
L 365.021944 262.498373 
L 365.459248 262.884029 
L 365.896552 262.722033 
L 366.333856 263.030349 
L 366.77116 266.882735 
L 367.208464 272.536943 
L 368.083072 288.124163 
L 368.520376 296.062002 
L 368.95768 299.74403 
L 369.394984 300.570736 
L 369.832288 305.123366 
L 371.144201 327.053541 
L 371.581505 337.86656 
L 372.018809 342.361708 
L 372.456113 343.747564 
L 372.893417 346.930015 
L 373.330721 345.383208 
L 374.205329 325.525546 
L 374.642633 319.276654 
L 375.517241 314.125158 
L 375.954545 310.676196 
L 376.39185 310.615578 
L 376.829154 311.64295 
L 377.266458 317.822864 
L 377.703762 332.401523 
L 378.57837 368.127547 
L 379.452978 393.816045 
L 379.890282 397.301588 
L 380.327586 387.471 
L 381.639498 367.938377 
L 382.076803 354.598208 
L 382.951411 337.929269 
L 383.388715 333.839636 
L 384.263323 329.015269 
L 384.700627 331.224695 
L 386.012539 356.372856 
L 387.324451 381.603583 
L 388.19906 390.768417 
L 388.636364 393.06877 
L 389.073668 391.616025 
L 389.510972 392.91827 
L 389.948276 398.900652 
L 390.38558 401.746568 
L 390.822884 401.833315 
L 391.260188 402.76558 
L 391.697492 405.71183 
L 392.134796 407.54187 
L 393.009404 407.263863 
L 393.446708 409.134664 
L 393.884013 413.107241 
L 394.321317 418.400876 
L 394.758621 420.925934 
L 396.070533 424.850435 
L 396.507837 428.446763 
L 398.257053 460.569143 
L 398.694357 464.68177 
L 399.568966 482.603832 
L 400.443574 501.861584 
L 401.318182 515.250873 
L 401.755486 519.072951 
L 402.19279 520.293674 
L 402.630094 517.1269 
L 403.942006 500.846753 
L 405.691223 473.248783 
L 406.128527 468.882188 
L 407.440439 464.580391 
L 408.315047 466.541074 
L 409.189655 469.959727 
L 410.501567 478.9333 
L 410.938871 478.261275 
L 411.376176 476.591141 
L 411.81348 477.327965 
L 412.250784 476.489763 
L 412.688088 472.981227 
L 414.437304 451.230817 
L 415.311912 442.165271 
L 415.749216 437.413019 
L 416.18652 435.413666 
L 416.623824 436.826696 
L 417.498433 442.318907 
L 417.935737 446.915433 
L 418.810345 458.080665 
L 419.684953 463.964804 
L 420.559561 469.336824 
L 420.996865 473.844513 
L 421.871473 486.50116 
L 423.183386 507.927577 
L 424.057994 519.471149 
L 424.932602 526.656487 
L 425.369906 529.474185 
L 425.80721 531.438003 
L 426.244514 532.883432 
L 427.99373 544.047619 
L 428.431034 545.689534 
L 428.868339 545.500363 
L 429.305643 545.088578 
L 430.180251 542.428697 
L 430.617555 542.539481 
L 431.054859 544.313084 
L 432.804075 556.325924 
L 433.241379 556.916429 
L 433.678683 556.25172 
L 434.115987 554.330752 
L 434.990596 546.960424 
L 435.865204 536.104554 
L 436.739812 525.246593 
L 437.177116 520.48389 
L 437.61442 517.025521 
L 438.489028 513.115652 
L 438.926332 512.261773 
L 439.363636 513.326771 
L 439.80094 515.639666 
L 440.675549 522.143572 
L 441.550157 524.256846 
L 441.987461 523.036122 
L 442.424765 518.517981 
L 442.862069 511.922102 
L 444.611285 477.938327 
L 445.485893 466.417747 
L 448.109718 438.392316 
L 449.42163 416.432877 
L 450.733542 395.249978 
L 452.482759 373.156761 
L 453.357367 357.26227 
L 453.794671 353.234301 
L 454.231975 351.616424 
L 454.669279 349.315025 
L 455.543887 338.848992 
L 456.418495 323.185478 
L 456.855799 318.095645 
L 458.167712 307.924342 
L 458.605016 309.32483 
L 459.04232 310.283223 
L 459.479624 308.922451 
L 459.916928 305.644891 
L 460.354232 301.509272 
L 462.103448 280.284567 
L 462.978056 274.603185 
L 463.415361 269.672214 
L 463.852665 263.043936 
L 465.164577 235.417747 
L 466.039185 216.031444 
L 466.476489 212.029602 
L 466.913793 210.910257 
L 467.788401 207.328562 
L 468.663009 206.627273 
L 469.100313 207.561628 
L 469.537618 209.642502 
L 469.974922 210.756622 
L 470.412226 210.647927 
L 470.84953 209.684308 
L 471.286834 207.393361 
L 471.724138 204.484736 
L 472.161442 202.694411 
L 472.598746 202.247091 
L 473.03605 200.805843 
L 473.473354 198.491903 
L 473.910658 197.520968 
L 474.347962 198.046673 
L 474.785266 199.971821 
L 476.534483 211.287553 
L 477.846395 219.852476 
L 480.032915 238.097487 
L 480.470219 239.530374 
L 480.907524 238.769512 
L 481.344828 235.161688 
L 481.782132 228.024426 
L 482.65674 207.397541 
L 485.280564 136.92479 
L 486.155172 120.592385 
L 486.592476 116.644891 
L 487.467085 112.631553 
L 487.904389 111.6 
L 488.341693 112.404758 
L 488.778997 114.022635 
L 489.216301 117.065038 
L 490.090909 125.747016 
L 490.965517 138.30751 
L 493.152038 172.115702 
L 494.46395 197.596218 
L 496.65047 243.722431 
L 497.525078 254.062002 
L 498.399687 262.150341 
L 498.836991 263.297905 
L 499.274295 262.505689 
L 499.711599 259.715164 
L 500.586207 250.76354 
L 501.460815 237.704514 
L 502.335423 224.809575 
L 502.772727 218.760305 
L 503.210031 214.269338 
L 504.084639 208.923446 
L 504.959248 200.41287 
L 505.396552 198.607913 
L 506.27116 196.519723 
L 506.708464 196.375494 
L 507.145768 197.398686 
L 508.45768 205.338615 
L 508.894984 210.048017 
L 509.769592 225.276753 
L 511.081505 256.070761 
L 512.830721 303.778271 
L 515.017241 365.365242 
L 515.89185 381.805295 
L 516.329154 387.220166 
L 517.641066 397.817887 
L 519.827586 413.976798 
L 523.326019 443.259533 
L 524.200627 445.876564 
L 524.637931 446.328065 
L 525.075235 445.537939 
L 525.512539 444.075788 
L 525.949843 443.072453 
L 526.387147 441.508924 
L 526.824451 438.512507 
L 527.261755 437.467367 
L 527.69906 436.752491 
L 528.136364 434.789718 
L 528.573668 434.305818 
L 529.010972 434.684159 
L 529.448276 434.262967 
L 529.88558 433.125855 
L 530.322884 431.074245 
L 530.760188 428.032887 
L 531.197492 423.259732 
L 531.634796 416.127696 
L 532.509404 395.552023 
L 534.258621 349.162435 
L 534.695925 341.629065 
L 535.570533 331.753536 
L 536.007837 329.756273 
L 536.445141 328.325477 
L 536.882445 327.90742 
L 537.319749 326.072154 
L 538.194357 318.385149 
L 538.631661 312.619111 
L 539.943574 284.183984 
L 540.818182 263.031394 
L 541.255486 257.493197 
L 541.69279 254.490509 
L 542.130094 254.671318 
L 542.567398 258.883233 
L 544.753918 286.192744 
L 545.191223 290.64086 
L 546.065831 297.887861 
L 546.503135 302.0517 
L 546.940439 305.072154 
L 547.377743 306.343045 
L 547.815047 304.095994 
L 548.689655 293.503499 
L 550.876176 261.393659 
L 551.31348 260.221012 
L 551.750784 260.667287 
L 552.188088 261.880695 
L 552.625392 261.91623 
L 553.062696 262.738755 
L 553.5 263.89886 
L 553.937304 264.338864 
L 554.811912 270.394406 
L 555.249216 273.949973 
L 556.123824 284.405554 
L 556.998433 296.263714 
L 557.873041 307.379824 
L 558.310345 310.988693 
L 559.622257 317.158155 
L 560.059561 318.145812 
L 560.934169 311.841527 
L 561.371473 310.759807 
L 561.808777 308.528433 
L 562.246082 307.216782 
L 562.683386 308.446912 
L 563.12069 310.918668 
L 563.557994 314.70103 
L 563.995298 320.393908 
L 564.432602 330.093854 
L 567.49373 429.39784 
L 568.805643 459.494739 
L 570.117555 484.849838 
L 570.554859 491.551277 
L 570.992163 495.578201 
L 571.866771 498.958184 
L 572.304075 499.175574 
L 572.741379 497.428099 
L 573.178683 497.092609 
L 573.615987 495.476823 
L 574.9279 488.019748 
L 575.365204 486.12909 
L 575.802508 486.338118 
L 576.239812 489.00427 
L 578.426332 508.447011 
L 579.30094 518.529478 
L 579.738245 521.500811 
L 580.612853 524.572478 
L 581.050157 525.935341 
L 582.362069 528.679879 
L 583.236677 528.973563 
L 583.673981 529.310098 
L 584.548589 527.233405 
L 584.985893 527.040054 
L 585.423197 527.105898 
L 585.860502 526.984661 
L 586.297806 528.005763 
L 587.172414 530.858996 
L 587.609718 532.86671 
L 588.047022 534.131329 
L 588.484326 533.787478 
L 589.358934 531.025173 
L 589.796238 528.160444 
L 590.670846 519.1806 
L 592.420063 498.77215 
L 593.731975 479.625183 
L 595.481191 451.956144 
L 595.918495 443.927378 
L 597.230408 426.050256 
L 598.54232 405.857104 
L 599.416928 395.067078 
L 600.291536 382.285015 
L 601.166144 374.334634 
L 602.915361 349.38714 
L 603.789969 332.682666 
L 604.227273 327.032638 
L 604.664577 323.780162 
L 605.101881 323.355835 
L 605.539185 324.457413 
L 606.413793 330.903837 
L 606.851097 331.052247 
L 607.725705 327.626278 
L 609.037618 317.400627 
L 609.474922 316.216483 
L 610.34953 312.16134 
L 610.786834 314.013328 
L 611.661442 312.951466 
L 612.098746 315.528781 
L 612.53605 322.464331 
L 613.847962 334.235744 
L 614.722571 354.388135 
L 615.159875 360.865914 
L 615.597179 362.545454 
L 616.034483 361.854616 
L 616.471787 354.402767 
L 617.783699 319.344588 
L 619.532915 251.29238 
L 620.407524 234.287951 
L 621.282132 215.501558 
L 622.594044 180.41934 
L 623.468652 170.878256 
L 624.34326 157.076136 
L 624.780564 153.783945 
L 625.217868 152.264311 
L 625.655172 151.92255 
L 626.092476 152.207873 
L 626.967085 157.690678 
L 627.841693 168.177614 
L 628.716301 179.980381 
L 629.153605 183.648823 
L 629.590909 188.2882 
L 630.465517 203.152182 
L 630.902821 208.416553 
L 631.340125 216.340805 
L 632.214734 239.079918 
L 633.089342 261.936087 
L 633.96395 280.446563 
L 634.401254 286.543911 
L 635.275862 292.331897 
L 635.713166 292.480307 
L 636.15047 290.304325 
L 636.587774 285.787229 
L 637.462382 272.501408 
L 638.336991 253.195581 
L 639.648903 224.577554 
L 640.086207 216.929219 
L 640.960815 205.74413 
L 642.272727 183.336326 
L 643.147335 170.987996 
L 643.584639 166.43432 
L 644.021944 165.231364 
L 644.459248 165.744528 
L 644.896552 165.479062 
L 645.333856 166.388334 
L 646.208464 169.058667 
L 646.645768 169.948081 
L 647.520376 173.416901 
L 647.95768 174.960573 
L 648.394984 175.224994 
L 648.832288 177.287055 
L 649.269592 180.78932 
L 651.018809 209.395849 
L 651.456113 212.913791 
L 651.893417 211.857154 
L 652.768025 209.157557 
L 653.205329 208.654845 
L 653.642633 206.019002 
L 654.079937 207.381864 
L 654.954545 230.870343 
L 655.39185 242.89677 
L 656.266458 258.371114 
L 656.703762 262.604977 
L 657.141066 265.364147 
L 658.015674 266.921405 
L 658.452978 265.342199 
L 658.890282 262.77429 
L 659.327586 261.876514 
L 659.76489 262.244404 
L 660.202194 263.631304 
L 660.639498 263.903041 
L 661.514107 263.897815 
L 662.388715 266.95694 
L 664.575235 277.781456 
L 665.449843 281.437356 
L 665.887147 285.063992 
L 667.19906 300.179854 
L 667.636364 306.021142 
L 668.073668 309.521316 
L 668.510972 314.815996 
L 670.697492 353.882287 
L 672.446708 375.57208 
L 673.321317 383.25595 
L 673.758621 384.429642 
L 674.195925 383.211009 
L 674.633229 379.613637 
L 675.945141 362.759707 
L 676.819749 348.038909 
L 677.257053 343.403713 
L 677.694357 340.916279 
L 678.131661 337.398338 
L 678.568966 332.948131 
L 679.00627 329.73119 
L 679.443574 328.290987 
L 679.880878 322.772647 
L 680.318182 314.990534 
L 680.755486 319.639317 
L 682.942006 350.338217 
L 683.816614 359.367183 
L 684.253918 362.289394 
L 684.691223 362.644742 
L 685.128527 362.035425 
L 686.003135 360.001583 
L 686.440439 359.007654 
L 686.877743 357.26227 
L 689.064263 342.548788 
L 690.376176 329.859742 
L 690.81348 326.633395 
L 691.250784 324.811716 
L 691.688088 323.904534 
L 692.125392 324.875469 
L 692.562696 325.533907 
L 693 325.511959 
L 693.437304 325.654098 
L 693.874608 324.486677 
L 694.311912 322.928373 
L 694.749216 323.117543 
L 695.623824 322.774737 
L 696.061129 323.76344 
L 696.498433 327.259434 
L 697.810345 343.001334 
L 698.247649 345.836799 
L 698.684953 345.862927 
L 699.122257 345.175225 
L 699.996865 340.919415 
L 700.434169 340.119883 
L 700.871473 339.65584 
L 701.308777 338.700582 
L 701.746082 336.218375 
L 702.183386 332.168457 
L 703.057994 326.202797 
L 703.495298 324.155368 
L 703.932602 323.139491 
L 704.369906 325.275758 
L 705.244514 332.379575 
L 705.681818 336.074145 
L 706.556426 339.979834 
L 706.99373 341.079321 
L 707.431034 340.159598 
L 708.305643 337.97839 
L 708.742947 338.630558 
L 709.180251 340.601692 
L 710.492163 344.542915 
L 710.929467 344.155168 
L 711.366771 342.45368 
L 711.804075 341.207873 
L 712.241379 339.252416 
L 712.678683 338.039009 
L 713.115987 335.308058 
L 713.990596 326.464082 
L 714.865204 321.813209 
L 715.302508 320.767023 
L 715.739812 322.383855 
L 716.177116 322.395352 
L 716.61442 320.434669 
L 717.051724 319.648723 
L 717.489028 318.470851 
L 717.926332 315.303031 
L 718.363636 313.439546 
L 718.80094 315.499517 
L 719.238245 319.231713 
L 719.675549 319.853571 
L 720.112853 320.691773 
L 720.987461 323.976649 
L 721.424765 323.413318 
L 721.862069 322.318011 
L 722.736677 319.271428 
L 723.611285 311.9011 
L 724.048589 307.635883 
L 724.923197 296.23236 
L 725.360502 292.570189 
L 725.797806 291.076683 
L 726.23511 290.311641 
L 726.672414 289.065834 
L 727.109718 288.446066 
L 727.547022 289.919713 
L 727.984326 293.726114 
L 728.858934 305.468263 
L 729.296238 308.536794 
L 730.60815 321.849788 
L 731.045455 319.996755 
L 731.482759 321.012631 
L 731.920063 322.739203 
L 732.357367 323.736266 
L 732.794671 322.352501 
L 733.231975 322.53331 
L 734.106583 324.844115 
L 734.543887 328.598258 
L 734.981191 333.931608 
L 735.418495 335.809725 
L 735.855799 335.211905 
L 736.293103 335.598606 
L 737.167712 338.684905 
L 737.605016 339.839785 
L 738.04232 342.895775 
L 738.479624 343.542716 
L 738.916928 338.933649 
L 739.354232 337.195581 
L 739.791536 339.116548 
L 740.22884 337.929269 
L 740.666144 331.749355 
L 741.540752 323.628617 
L 742.415361 310.85387 
L 743.289969 316.608411 
L 743.727273 315.842323 
L 744.164577 314.534853 
L 744.601881 313.593182 
L 745.039185 310.197522 
L 745.476489 302.319255 
L 745.913793 297.435316 
L 746.351097 295.389977 
L 746.788401 294.385597 
L 748.537618 308.46886 
L 749.412226 321.157906 
L 749.84953 322.064042 
L 750.286834 317.42362 
L 750.724138 314.219221 
L 751.161442 312.029652 
L 751.598746 307.504195 
L 752.03605 304.682317 
L 752.473354 305.201752 
L 752.910658 302.120679 
L 754.222571 276.523108 
L 754.659875 271.462539 
L 755.097179 268.968835 
L 755.971787 275.352551 
L 756.409091 279.365889 
L 756.846395 284.692968 
L 757.721003 299.031245 
L 758.158307 303.749007 
L 758.595611 307.004619 
L 759.032915 307.546001 
L 759.470219 302.422724 
L 760.344828 286.46239 
L 760.782132 281.832419 
L 761.219436 282.897417 
L 762.094044 286.362056 
L 762.531348 286.239775 
L 762.968652 284.014672 
L 763.405956 284.848694 
L 763.84326 286.480157 
L 764.280564 284.954253 
L 765.155172 280.53331 
L 765.592476 276.056975 
L 766.029781 275.05155 
L 766.467085 277.263067 
L 766.904389 278.176519 
L 767.341693 276.140586 
L 767.778997 272.594426 
L 768.216301 271.515841 
L 768.653605 270.817688 
L 769.090909 267.995809 
L 769.528213 262.629015 
L 769.965517 259.715164 
L 770.402821 259.237535 
L 771.277429 257.310297 
L 771.714734 259.481053 
L 772.152038 262.70322 
L 772.589342 263.59995 
L 773.026646 264.044135 
L 773.46395 262.587209 
L 774.338558 257.315523 
L 774.775862 258.083701 
L 776.087774 270.436212 
L 776.525078 273.529826 
L 776.962382 274.877012 
L 777.399687 274.842522 
L 777.836991 274.373254 
L 778.711599 275.998447 
L 779.148903 275.34628 
L 779.586207 276.107142 
L 780.460815 279.033534 
L 780.898119 280.852078 
L 781.335423 283.770109 
L 782.210031 291.398587 
L 782.647335 293.805544 
L 783.084639 294.826646 
L 783.521944 294.247638 
L 783.959248 291.696452 
L 784.396552 291.070413 
L 785.708464 299.489016 
L 786.583072 303.084298 
L 787.020376 303.441736 
L 787.45768 301.784144 
L 787.894984 300.961618 
L 788.332288 301.237535 
L 789.206897 298.665446 
L 789.644201 298.572428 
L 790.081505 299.14412 
L 790.518809 300.076385 
L 791.393417 305.45154 
L 791.830721 306.449649 
L 792.705329 305.082606 
L 793.142633 305.859145 
L 794.017241 310.549734 
L 794.454545 313.680973 
L 794.89185 318.152083 
L 796.203762 334.219022 
L 797.515674 346.113761 
L 798.390282 352.895675 
L 799.26489 363.082656 
L 799.702194 366.367531 
L 800.139498 365.512606 
L 801.451411 352.451491 
L 802.326019 344.861683 
L 802.763323 342.555059 
L 803.200627 341.783746 
L 803.637931 340.355039 
L 804.512539 336.645837 
L 804.949843 335.806589 
L 805.387147 335.907968 
L 805.824451 335.779416 
L 806.261755 336.908167 
L 807.136364 341.128443 
L 807.573668 342.912497 
L 808.010972 343.420435 
L 808.448276 345.707202 
L 809.760188 355.490758 
L 811.509404 378.307211 
L 812.384013 386.179207 
L 812.821317 388.245449 
L 813.258621 388.768019 
L 813.695925 389.585318 
L 814.570533 393.547444 
L 815.445141 398.551575 
L 815.882445 402.207475 
L 816.757053 415.806838 
L 817.631661 428.955746 
L 818.50627 437.730742 
L 818.943574 440.427204 
L 819.380878 441.490111 
L 819.818182 440.742836 
L 820.255486 439.592137 
L 820.69279 438.808281 
L 821.130094 437.263564 
L 822.87931 420.081461 
L 824.191223 405.546698 
L 825.503135 395.15696 
L 825.940439 393.039506 
L 826.377743 392.220116 
L 826.815047 392.02572 
L 827.252351 391.01716 
L 827.689655 390.821719 
L 828.126959 391.767571 
L 829.438871 396.31393 
L 829.876176 397.054935 
L 830.31348 396.979684 
L 831.625392 393.682267 
L 832.937304 392.17413 
L 833.811912 392.522162 
L 834.249216 393.247489 
L 835.123824 398.606968 
L 835.561129 399.959379 
L 835.998433 400.672164 
L 836.435737 401.762246 
L 836.873041 401.921107 
L 837.747649 400.170497 
L 838.184953 398.919464 
L 839.059561 395.514398 
L 839.496865 394.513154 
L 839.934169 392.787628 
L 840.371473 388.866262 
L 841.246082 379.418195 
L 842.557994 370.272174 
L 842.995298 368.689832 
L 843.432602 368.781805 
L 843.869906 369.277201 
L 844.30721 370.556452 
L 845.619122 378.293625 
L 846.49373 384.093107 
L 847.368339 387.472045 
L 847.805643 393.221361 
L 848.242947 404.773294 
L 848.680251 422.361957 
L 849.554859 471.786632 
L 851.741379 599.290589 
L 852.178683 611.34837 
L 852.615987 615.6 
L 853.053292 613.986304 
L 853.490596 606.640014 
L 853.9279 596.35061 
L 854.802508 567.409635 
L 856.551724 501.866809 
L 857.426332 477.656139 
L 858.30094 462.770209 
L 858.738245 458.535301 
L 859.175549 457.586314 
L 859.612853 457.041796 
L 860.050157 456.943552 
L 860.487461 458.129786 
L 860.924765 458.979485 
L 861.362069 458.7506 
L 861.799373 459.174927 
L 862.236677 459.334833 
L 862.673981 459.280486 
L 863.548589 463.248883 
L 863.985893 462.537142 
L 864.423197 463.049261 
L 864.860502 465.401871 
L 865.297806 468.691972 
L 865.73511 473.550829 
L 866.609718 484.879102 
L 867.92163 494.767173 
L 868.358934 493.878804 
L 868.796238 489.560285 
L 869.233542 480.854268 
L 869.670846 464.865714 
L 870.545455 425.306117 
L 871.857367 371.325676 
L 873.169279 295.269785 
L 874.043887 259.593928 
L 874.481191 248.803902 
L 874.918495 242.93335 
L 875.355799 241.386543 
L 875.793103 244.711133 
L 876.230408 251.665495 
L 877.105016 275.624287 
L 877.979624 299.44094 
L 878.416928 308.722829 
L 878.854232 314.06454 
L 879.291536 317.071408 
L 879.72884 317.433026 
L 880.166144 316.914637 
L 880.603448 316.947036 
L 881.040752 317.123665 
L 881.915361 315.814104 
L 882.352665 316.069119 
L 882.789969 317.295068 
L 883.227273 317.997402 
L 883.664577 320.153526 
L 884.101881 323.510516 
L 884.976489 327.466371 
L 885.413793 328.137351 
L 885.851097 327.522809 
L 886.288401 325.675001 
L 886.725705 324.58074 
L 887.163009 324.626726 
L 887.600313 324.155368 
L 888.037618 324.183586 
L 888.474922 323.039158 
L 888.912226 320.909162 
L 889.34953 317.894978 
L 889.786834 315.818285 
L 890.224138 315.138944 
L 891.53605 311.257294 
L 891.973354 310.620803 
L 892.410658 310.622894 
L 892.847962 310.043886 
L 893.285266 309.88607 
L 893.722571 310.868501 
L 895.471787 320.497377 
L 896.346395 327.11834 
L 896.783699 333.808281 
L 898.532915 381.642254 
L 899.407524 391.068372 
L 899.844828 393.510864 
L 900.719436 394.451491 
L 901.15674 392.707152 
L 901.594044 388.303977 
L 902.468652 377.13979 
L 903.780564 363.498621 
L 904.217868 360.73109 
L 905.092476 357.200607 
L 908.590909 339.535649 
L 909.028213 337.012681 
L 909.902821 329.632947 
L 911.652038 318.584771 
L 912.089342 317.98277 
L 912.526646 318.168805 
L 912.96395 318.630757 
L 913.401254 319.706206 
L 913.838558 321.394107 
L 914.275862 324.557746 
L 914.713166 329.350759 
L 915.587774 341.736714 
L 916.025078 346.10331 
L 916.462382 347.759857 
L 916.899687 347.605176 
L 917.336991 346.058369 
L 917.774295 341.298801 
L 918.211599 334.626626 
L 918.648903 329.816891 
L 919.523511 317.153974 
L 920.398119 309.524451 
L 921.710031 291.182243 
L 922.147335 288.260031 
L 923.021944 277.945543 
L 923.459248 281.561728 
L 924.333856 292.863873 
L 925.645768 305.128592 
L 926.083072 307.712178 
L 926.520376 309.148201 
L 926.95768 310.968835 
L 927.394984 313.606769 
L 927.832288 314.989489 
L 929.144201 310.340706 
L 930.018809 305.409735 
L 932.642633 281.380919 
L 933.079937 279.489215 
L 933.517241 274.971075 
L 933.954545 268.912397 
L 933.954545 268.912397 
" style="fill:none;stroke:#0000ff;stroke-linecap:square;stroke-width:1.5;"/>
   </g>
   <g id="patch_3">
    <path d="M 135 640.8 
L 135 86.4 
" style="fill:none;stroke:#000000;stroke-linecap:square;stroke-linejoin:miter;stroke-width:0.8;"/>
   </g>
   <g id="patch_4">
    <path d="M 972 640.8 
L 972 86.4 
" style="fill:none;stroke:#000000;stroke-linecap:square;stroke-linejoin:miter;stroke-width:0.8;"/>
   </g>
   <g id="patch_5">
    <path d="M 135 640.8 
L 972 640.8 
" style="fill:none;stroke:#000000;stroke-linecap:square;stroke-linejoin:miter;stroke-width:0.8;"/>
   </g>
   <g id="patch_6">
    <path d="M 135 86.4 
L 972 86.4 
" style="fill:none;stroke:#000000;stroke-linecap:square;stroke-linejoin:miter;stroke-width:0.8;"/>
   </g>
   <g id="text_17">
    <!-- Evaluation Preds N:40 -->
    <defs>
     <path d="M 9.8125 72.90625 
L 55.90625 72.90625 
L 55.90625 64.59375 
L 19.671875 64.59375 
L 19.671875 43.015625 
L 54.390625 43.015625 
L 54.390625 34.71875 
L 19.671875 34.71875 
L 19.671875 8.296875 
L 56.78125 8.296875 
L 56.78125 0 
L 9.8125 0 
z
" id="DejaVuSans-69"/>
     <path d="M 2.984375 54.6875 
L 12.5 54.6875 
L 29.59375 8.796875 
L 46.6875 54.6875 
L 56.203125 54.6875 
L 35.6875 0 
L 23.484375 0 
z
" id="DejaVuSans-118"/>
     <path d="M 34.28125 27.484375 
Q 23.390625 27.484375 19.1875 25 
Q 14.984375 22.515625 14.984375 16.5 
Q 14.984375 11.71875 18.140625 8.90625 
Q 21.296875 6.109375 26.703125 6.109375 
Q 34.1875 6.109375 38.703125 11.40625 
Q 43.21875 16.703125 43.21875 25.484375 
L 43.21875 27.484375 
z
M 52.203125 31.203125 
L 52.203125 0 
L 43.21875 0 
L 43.21875 8.296875 
Q 40.140625 3.328125 35.546875 0.953125 
Q 30.953125 -1.421875 24.3125 -1.421875 
Q 15.921875 -1.421875 10.953125 3.296875 
Q 6 8.015625 6 15.921875 
Q 6 25.140625 12.171875 29.828125 
Q 18.359375 34.515625 30.609375 34.515625 
L 43.21875 34.515625 
L 43.21875 35.40625 
Q 43.21875 41.609375 39.140625 45 
Q 35.0625 48.390625 27.6875 48.390625 
Q 23 48.390625 18.546875 47.265625 
Q 14.109375 46.140625 10.015625 43.890625 
L 10.015625 52.203125 
Q 14.9375 54.109375 19.578125 55.046875 
Q 24.21875 56 28.609375 56 
Q 40.484375 56 46.34375 49.84375 
Q 52.203125 43.703125 52.203125 31.203125 
z
" id="DejaVuSans-97"/>
     <path d="M 9.421875 75.984375 
L 18.40625 75.984375 
L 18.40625 0 
L 9.421875 0 
z
" id="DejaVuSans-108"/>
     <path d="M 8.5 21.578125 
L 8.5 54.6875 
L 17.484375 54.6875 
L 17.484375 21.921875 
Q 17.484375 14.15625 20.5 10.265625 
Q 23.53125 6.390625 29.59375 6.390625 
Q 36.859375 6.390625 41.078125 11.03125 
Q 45.3125 15.671875 45.3125 23.6875 
L 45.3125 54.6875 
L 54.296875 54.6875 
L 54.296875 0 
L 45.3125 0 
L 45.3125 8.40625 
Q 42.046875 3.421875 37.71875 1 
Q 33.40625 -1.421875 27.6875 -1.421875 
Q 18.265625 -1.421875 13.375 4.4375 
Q 8.5 10.296875 8.5 21.578125 
z
M 31.109375 56 
z
" id="DejaVuSans-117"/>
     <path d="M 18.3125 70.21875 
L 18.3125 54.6875 
L 36.8125 54.6875 
L 36.8125 47.703125 
L 18.3125 47.703125 
L 18.3125 18.015625 
Q 18.3125 11.328125 20.140625 9.421875 
Q 21.96875 7.515625 27.59375 7.515625 
L 36.8125 7.515625 
L 36.8125 0 
L 27.59375 0 
Q 17.1875 0 13.234375 3.875 
Q 9.28125 7.765625 9.28125 18.015625 
L 9.28125 47.703125 
L 2.6875 47.703125 
L 2.6875 54.6875 
L 9.28125 54.6875 
L 9.28125 70.21875 
z
" id="DejaVuSans-116"/>
     <path d="M 9.421875 54.6875 
L 18.40625 54.6875 
L 18.40625 0 
L 9.421875 0 
z
M 9.421875 75.984375 
L 18.40625 75.984375 
L 18.40625 64.59375 
L 9.421875 64.59375 
z
" id="DejaVuSans-105"/>
     <path d="M 30.609375 48.390625 
Q 23.390625 48.390625 19.1875 42.75 
Q 14.984375 37.109375 14.984375 27.296875 
Q 14.984375 17.484375 19.15625 11.84375 
Q 23.34375 6.203125 30.609375 6.203125 
Q 37.796875 6.203125 41.984375 11.859375 
Q 46.1875 17.53125 46.1875 27.296875 
Q 46.1875 37.015625 41.984375 42.703125 
Q 37.796875 48.390625 30.609375 48.390625 
z
M 30.609375 56 
Q 42.328125 56 49.015625 48.375 
Q 55.71875 40.765625 55.71875 27.296875 
Q 55.71875 13.875 49.015625 6.21875 
Q 42.328125 -1.421875 30.609375 -1.421875 
Q 18.84375 -1.421875 12.171875 6.21875 
Q 5.515625 13.875 5.515625 27.296875 
Q 5.515625 40.765625 12.171875 48.375 
Q 18.84375 56 30.609375 56 
z
" id="DejaVuSans-111"/>
     <path d="M 54.890625 33.015625 
L 54.890625 0 
L 45.90625 0 
L 45.90625 32.71875 
Q 45.90625 40.484375 42.875 44.328125 
Q 39.84375 48.1875 33.796875 48.1875 
Q 26.515625 48.1875 22.3125 43.546875 
Q 18.109375 38.921875 18.109375 30.90625 
L 18.109375 0 
L 9.078125 0 
L 9.078125 54.6875 
L 18.109375 54.6875 
L 18.109375 46.1875 
Q 21.34375 51.125 25.703125 53.5625 
Q 30.078125 56 35.796875 56 
Q 45.21875 56 50.046875 50.171875 
Q 54.890625 44.34375 54.890625 33.015625 
z
" id="DejaVuSans-110"/>
     <path id="DejaVuSans-32"/>
     <path d="M 19.671875 64.796875 
L 19.671875 37.40625 
L 32.078125 37.40625 
Q 38.96875 37.40625 42.71875 40.96875 
Q 46.484375 44.53125 46.484375 51.125 
Q 46.484375 57.671875 42.71875 61.234375 
Q 38.96875 64.796875 32.078125 64.796875 
z
M 9.8125 72.90625 
L 32.078125 72.90625 
Q 44.34375 72.90625 50.609375 67.359375 
Q 56.890625 61.8125 56.890625 51.125 
Q 56.890625 40.328125 50.609375 34.8125 
Q 44.34375 29.296875 32.078125 29.296875 
L 19.671875 29.296875 
L 19.671875 0 
L 9.8125 0 
z
" id="DejaVuSans-80"/>
     <path d="M 41.109375 46.296875 
Q 39.59375 47.171875 37.8125 47.578125 
Q 36.03125 48 33.890625 48 
Q 26.265625 48 22.1875 43.046875 
Q 18.109375 38.09375 18.109375 28.8125 
L 18.109375 0 
L 9.078125 0 
L 9.078125 54.6875 
L 18.109375 54.6875 
L 18.109375 46.1875 
Q 20.953125 51.171875 25.484375 53.578125 
Q 30.03125 56 36.53125 56 
Q 37.453125 56 38.578125 55.875 
Q 39.703125 55.765625 41.0625 55.515625 
z
" id="DejaVuSans-114"/>
     <path d="M 56.203125 29.59375 
L 56.203125 25.203125 
L 14.890625 25.203125 
Q 15.484375 15.921875 20.484375 11.0625 
Q 25.484375 6.203125 34.421875 6.203125 
Q 39.59375 6.203125 44.453125 7.46875 
Q 49.3125 8.734375 54.109375 11.28125 
L 54.109375 2.78125 
Q 49.265625 0.734375 44.1875 -0.34375 
Q 39.109375 -1.421875 33.890625 -1.421875 
Q 20.796875 -1.421875 13.15625 6.1875 
Q 5.515625 13.8125 5.515625 26.8125 
Q 5.515625 40.234375 12.765625 48.109375 
Q 20.015625 56 32.328125 56 
Q 43.359375 56 49.78125 48.890625 
Q 56.203125 41.796875 56.203125 29.59375 
z
M 47.21875 32.234375 
Q 47.125 39.59375 43.09375 43.984375 
Q 39.0625 48.390625 32.421875 48.390625 
Q 24.90625 48.390625 20.390625 44.140625 
Q 15.875 39.890625 15.1875 32.171875 
z
" id="DejaVuSans-101"/>
     <path d="M 45.40625 46.390625 
L 45.40625 75.984375 
L 54.390625 75.984375 
L 54.390625 0 
L 45.40625 0 
L 45.40625 8.203125 
Q 42.578125 3.328125 38.25 0.953125 
Q 33.9375 -1.421875 27.875 -1.421875 
Q 17.96875 -1.421875 11.734375 6.484375 
Q 5.515625 14.40625 5.515625 27.296875 
Q 5.515625 40.1875 11.734375 48.09375 
Q 17.96875 56 27.875 56 
Q 33.9375 56 38.25 53.625 
Q 42.578125 51.265625 45.40625 46.390625 
z
M 14.796875 27.296875 
Q 14.796875 17.390625 18.875 11.75 
Q 22.953125 6.109375 30.078125 6.109375 
Q 37.203125 6.109375 41.296875 11.75 
Q 45.40625 17.390625 45.40625 27.296875 
Q 45.40625 37.203125 41.296875 42.84375 
Q 37.203125 48.484375 30.078125 48.484375 
Q 22.953125 48.484375 18.875 42.84375 
Q 14.796875 37.203125 14.796875 27.296875 
z
" id="DejaVuSans-100"/>
     <path d="M 44.28125 53.078125 
L 44.28125 44.578125 
Q 40.484375 46.53125 36.375 47.5 
Q 32.28125 48.484375 27.875 48.484375 
Q 21.1875 48.484375 17.84375 46.4375 
Q 14.5 44.390625 14.5 40.28125 
Q 14.5 37.15625 16.890625 35.375 
Q 19.28125 33.59375 26.515625 31.984375 
L 29.59375 31.296875 
Q 39.15625 29.25 43.1875 25.515625 
Q 47.21875 21.78125 47.21875 15.09375 
Q 47.21875 7.46875 41.1875 3.015625 
Q 35.15625 -1.421875 24.609375 -1.421875 
Q 20.21875 -1.421875 15.453125 -0.5625 
Q 10.6875 0.296875 5.421875 2 
L 5.421875 11.28125 
Q 10.40625 8.6875 15.234375 7.390625 
Q 20.0625 6.109375 24.8125 6.109375 
Q 31.15625 6.109375 34.5625 8.28125 
Q 37.984375 10.453125 37.984375 14.40625 
Q 37.984375 18.0625 35.515625 20.015625 
Q 33.0625 21.96875 24.703125 23.78125 
L 21.578125 24.515625 
Q 13.234375 26.265625 9.515625 29.90625 
Q 5.8125 33.546875 5.8125 39.890625 
Q 5.8125 47.609375 11.28125 51.796875 
Q 16.75 56 26.8125 56 
Q 31.78125 56 36.171875 55.265625 
Q 40.578125 54.546875 44.28125 53.078125 
z
" id="DejaVuSans-115"/>
     <path d="M 9.8125 72.90625 
L 23.09375 72.90625 
L 55.421875 11.921875 
L 55.421875 72.90625 
L 64.984375 72.90625 
L 64.984375 0 
L 51.703125 0 
L 19.390625 60.984375 
L 19.390625 0 
L 9.8125 0 
z
" id="DejaVuSans-78"/>
     <path d="M 11.71875 12.40625 
L 22.015625 12.40625 
L 22.015625 0 
L 11.71875 0 
z
M 11.71875 51.703125 
L 22.015625 51.703125 
L 22.015625 39.3125 
L 11.71875 39.3125 
z
" id="DejaVuSans-58"/>
     <path d="M 37.796875 64.3125 
L 12.890625 25.390625 
L 37.796875 25.390625 
z
M 35.203125 72.90625 
L 47.609375 72.90625 
L 47.609375 25.390625 
L 58.015625 25.390625 
L 58.015625 17.1875 
L 47.609375 17.1875 
L 47.609375 0 
L 37.796875 0 
L 37.796875 17.1875 
L 4.890625 17.1875 
L 4.890625 26.703125 
z
" id="DejaVuSans-52"/>
    </defs>
    <g transform="translate(374.421656 80.4)scale(0.324 -0.324)">
     <use xlink:href="#DejaVuSans-69"/>
     <use x="63.183594" xlink:href="#DejaVuSans-118"/>
     <use x="122.363281" xlink:href="#DejaVuSans-97"/>
     <use x="183.642578" xlink:href="#DejaVuSans-108"/>
     <use x="211.425781" xlink:href="#DejaVuSans-117"/>
     <use x="274.804688" xlink:href="#DejaVuSans-97"/>
     <use x="336.083984" xlink:href="#DejaVuSans-116"/>
     <use x="375.292969" xlink:href="#DejaVuSans-105"/>
     <use x="403.076172" xlink:href="#DejaVuSans-111"/>
     <use x="464.257812" xlink:href="#DejaVuSans-110"/>
     <use x="527.636719" xlink:href="#DejaVuSans-32"/>
     <use x="559.423828" xlink:href="#DejaVuSans-80"/>
     <use x="619.710938" xlink:href="#DejaVuSans-114"/>
     <use x="660.792969" xlink:href="#DejaVuSans-101"/>
     <use x="722.316406" xlink:href="#DejaVuSans-100"/>
     <use x="785.792969" xlink:href="#DejaVuSans-115"/>
     <use x="837.892578" xlink:href="#DejaVuSans-32"/>
     <use x="869.679688" xlink:href="#DejaVuSans-78"/>
     <use x="944.484375" xlink:href="#DejaVuSans-58"/>
     <use x="978.175781" xlink:href="#DejaVuSans-52"/>
     <use x="1041.798828" xlink:href="#DejaVuSans-48"/>
    </g>
   </g>
   <g id="legend_1">
    <g id="patch_7">
     <path d="M 805.57875 187.261875 
L 953.1 187.261875 
Q 958.5 187.261875 958.5 181.861875 
L 958.5 105.3 
Q 958.5 99.9 953.1 99.9 
L 805.57875 99.9 
Q 800.17875 99.9 800.17875 105.3 
L 800.17875 181.861875 
Q 800.17875 187.261875 805.57875 187.261875 
z
" style="fill:#ffffff;opacity:0.8;stroke:#cccccc;stroke-linejoin:miter;"/>
    </g>
    <g id="line2d_35">
     <path d="M 810.97875 121.765781 
L 864.97875 121.765781 
" style="fill:none;stroke:#ff0000;stroke-linecap:square;stroke-width:1.5;"/>
    </g>
    <g id="line2d_36"/>
    <g id="text_18">
     <!-- Real -->
     <defs>
      <path d="M 44.390625 34.1875 
Q 47.5625 33.109375 50.5625 29.59375 
Q 53.5625 26.078125 56.59375 19.921875 
L 66.609375 0 
L 56 0 
L 46.6875 18.703125 
Q 43.0625 26.03125 39.671875 28.421875 
Q 36.28125 30.8125 30.421875 30.8125 
L 19.671875 30.8125 
L 19.671875 0 
L 9.8125 0 
L 9.8125 72.90625 
L 32.078125 72.90625 
Q 44.578125 72.90625 50.734375 67.671875 
Q 56.890625 62.453125 56.890625 51.90625 
Q 56.890625 45.015625 53.6875 40.46875 
Q 50.484375 35.9375 44.390625 34.1875 
z
M 19.671875 64.796875 
L 19.671875 38.921875 
L 32.078125 38.921875 
Q 39.203125 38.921875 42.84375 42.21875 
Q 46.484375 45.515625 46.484375 51.90625 
Q 46.484375 58.296875 42.84375 61.546875 
Q 39.203125 64.796875 32.078125 64.796875 
z
" id="DejaVuSans-82"/>
     </defs>
     <g transform="translate(886.57875 131.215781)scale(0.27 -0.27)">
      <use xlink:href="#DejaVuSans-82"/>
      <use x="69.419922" xlink:href="#DejaVuSans-101"/>
      <use x="130.943359" xlink:href="#DejaVuSans-97"/>
      <use x="192.222656" xlink:href="#DejaVuSans-108"/>
     </g>
    </g>
    <g id="line2d_37">
     <path d="M 810.97875 161.396719 
L 864.97875 161.396719 
" style="fill:none;stroke:#0000ff;stroke-linecap:square;stroke-width:1.5;"/>
    </g>
    <g id="line2d_38"/>
    <g id="text_19">
     <!-- Pred -->
     <g transform="translate(886.57875 170.846719)scale(0.27 -0.27)">
      <use xlink:href="#DejaVuSans-80"/>
      <use x="60.287109" xlink:href="#DejaVuSans-114"/>
      <use x="101.369141" xlink:href="#DejaVuSans-101"/>
      <use x="162.892578" xlink:href="#DejaVuSans-100"/>
     </g>
    </g>
   </g>
  </g>
 </g>
 <defs>
  <clipPath id="p2b94fdc5ae">
   <rect height="554.4" width="837" x="135" y="86.4"/>
  </clipPath>
 </defs>
</svg>
