<?xml version="1.0" encoding="utf-8" standalone="no"?>
<!DOCTYPE svg PUBLIC "-//W3C//DTD SVG 1.1//EN"
  "http://www.w3.org/Graphics/SVG/1.1/DTD/svg11.dtd">
<!-- Created with matplotlib (https://matplotlib.org/) -->
<svg height="720pt" version="1.1" viewBox="0 0 1080 720" width="1080pt" xmlns="http://www.w3.org/2000/svg" xmlns:xlink="http://www.w3.org/1999/xlink">
 <defs>
  <style type="text/css">
*{stroke-linecap:butt;stroke-linejoin:round;}
  </style>
 </defs>
 <g id="figure_1">
  <g id="patch_1">
   <path d="M 0 720 
L 1080 720 
L 1080 0 
L 0 0 
z
" style="fill:#ffffff;"/>
  </g>
  <g id="axes_1">
   <g id="patch_2">
    <path d="M 135 640.8 
L 972 640.8 
L 972 86.4 
L 135 86.4 
z
" style="fill:#ffffff;"/>
   </g>
   <g id="matplotlib.axis_1">
    <g id="xtick_1">
     <g id="line2d_1">
      <path clip-path="url(#p5ca1172df4)" d="M 173.045455 640.8 
L 173.045455 86.4 
" style="fill:none;stroke:#b0b0b0;stroke-linecap:square;stroke-width:0.8;"/>
     </g>
     <g id="line2d_2">
      <defs>
       <path d="M 0 0 
L 0 3.5 
" id="m69040cd8b0" style="stroke:#000000;stroke-width:0.8;"/>
      </defs>
      <g>
       <use style="stroke:#000000;stroke-width:0.8;" x="173.045455" xlink:href="#m69040cd8b0" y="640.8"/>
      </g>
     </g>
     <g id="text_1">
      <!-- 0 -->
      <defs>
       <path d="M 31.78125 66.40625 
Q 24.171875 66.40625 20.328125 58.90625 
Q 16.5 51.421875 16.5 36.375 
Q 16.5 21.390625 20.328125 13.890625 
Q 24.171875 6.390625 31.78125 6.390625 
Q 39.453125 6.390625 43.28125 13.890625 
Q 47.125 21.390625 47.125 36.375 
Q 47.125 51.421875 43.28125 58.90625 
Q 39.453125 66.40625 31.78125 66.40625 
z
M 31.78125 74.21875 
Q 44.046875 74.21875 50.515625 64.515625 
Q 56.984375 54.828125 56.984375 36.375 
Q 56.984375 17.96875 50.515625 8.265625 
Q 44.046875 -1.421875 31.78125 -1.421875 
Q 19.53125 -1.421875 13.0625 8.265625 
Q 6.59375 17.96875 6.59375 36.375 
Q 6.59375 54.828125 13.0625 64.515625 
Q 19.53125 74.21875 31.78125 74.21875 
z
" id="DejaVuSans-48"/>
      </defs>
      <g transform="translate(164.45608 668.315781)scale(0.27 -0.27)">
       <use xlink:href="#DejaVuSans-48"/>
      </g>
     </g>
    </g>
    <g id="xtick_2">
     <g id="line2d_3">
      <path clip-path="url(#p5ca1172df4)" d="M 282.371473 640.8 
L 282.371473 86.4 
" style="fill:none;stroke:#b0b0b0;stroke-linecap:square;stroke-width:0.8;"/>
     </g>
     <g id="line2d_4">
      <g>
       <use style="stroke:#000000;stroke-width:0.8;" x="282.371473" xlink:href="#m69040cd8b0" y="640.8"/>
      </g>
     </g>
     <g id="text_2">
      <!-- 250 -->
      <defs>
       <path d="M 19.1875 8.296875 
L 53.609375 8.296875 
L 53.609375 0 
L 7.328125 0 
L 7.328125 8.296875 
Q 12.9375 14.109375 22.625 23.890625 
Q 32.328125 33.6875 34.8125 36.53125 
Q 39.546875 41.84375 41.421875 45.53125 
Q 43.3125 49.21875 43.3125 52.78125 
Q 43.3125 58.59375 39.234375 62.25 
Q 35.15625 65.921875 28.609375 65.921875 
Q 23.96875 65.921875 18.8125 64.3125 
Q 13.671875 62.703125 7.8125 59.421875 
L 7.8125 69.390625 
Q 13.765625 71.78125 18.9375 73 
Q 24.125 74.21875 28.421875 74.21875 
Q 39.75 74.21875 46.484375 68.546875 
Q 53.21875 62.890625 53.21875 53.421875 
Q 53.21875 48.921875 51.53125 44.890625 
Q 49.859375 40.875 45.40625 35.40625 
Q 44.1875 33.984375 37.640625 27.21875 
Q 31.109375 20.453125 19.1875 8.296875 
z
" id="DejaVuSans-50"/>
       <path d="M 10.796875 72.90625 
L 49.515625 72.90625 
L 49.515625 64.59375 
L 19.828125 64.59375 
L 19.828125 46.734375 
Q 21.96875 47.46875 24.109375 47.828125 
Q 26.265625 48.1875 28.421875 48.1875 
Q 40.625 48.1875 47.75 41.5 
Q 54.890625 34.8125 54.890625 23.390625 
Q 54.890625 11.625 47.5625 5.09375 
Q 40.234375 -1.421875 26.90625 -1.421875 
Q 22.3125 -1.421875 17.546875 -0.640625 
Q 12.796875 0.140625 7.71875 1.703125 
L 7.71875 11.625 
Q 12.109375 9.234375 16.796875 8.0625 
Q 21.484375 6.890625 26.703125 6.890625 
Q 35.15625 6.890625 40.078125 11.328125 
Q 45.015625 15.765625 45.015625 23.390625 
Q 45.015625 31 40.078125 35.4375 
Q 35.15625 39.890625 26.703125 39.890625 
Q 22.75 39.890625 18.8125 39.015625 
Q 14.890625 38.140625 10.796875 36.28125 
z
" id="DejaVuSans-53"/>
      </defs>
      <g transform="translate(256.603348 668.315781)scale(0.27 -0.27)">
       <use xlink:href="#DejaVuSans-50"/>
       <use x="63.623047" xlink:href="#DejaVuSans-53"/>
       <use x="127.246094" xlink:href="#DejaVuSans-48"/>
      </g>
     </g>
    </g>
    <g id="xtick_3">
     <g id="line2d_5">
      <path clip-path="url(#p5ca1172df4)" d="M 391.697492 640.8 
L 391.697492 86.4 
" style="fill:none;stroke:#b0b0b0;stroke-linecap:square;stroke-width:0.8;"/>
     </g>
     <g id="line2d_6">
      <g>
       <use style="stroke:#000000;stroke-width:0.8;" x="391.697492" xlink:href="#m69040cd8b0" y="640.8"/>
      </g>
     </g>
     <g id="text_3">
      <!-- 500 -->
      <g transform="translate(365.929367 668.315781)scale(0.27 -0.27)">
       <use xlink:href="#DejaVuSans-53"/>
       <use x="63.623047" xlink:href="#DejaVuSans-48"/>
       <use x="127.246094" xlink:href="#DejaVuSans-48"/>
      </g>
     </g>
    </g>
    <g id="xtick_4">
     <g id="line2d_7">
      <path clip-path="url(#p5ca1172df4)" d="M 501.023511 640.8 
L 501.023511 86.4 
" style="fill:none;stroke:#b0b0b0;stroke-linecap:square;stroke-width:0.8;"/>
     </g>
     <g id="line2d_8">
      <g>
       <use style="stroke:#000000;stroke-width:0.8;" x="501.023511" xlink:href="#m69040cd8b0" y="640.8"/>
      </g>
     </g>
     <g id="text_4">
      <!-- 750 -->
      <defs>
       <path d="M 8.203125 72.90625 
L 55.078125 72.90625 
L 55.078125 68.703125 
L 28.609375 0 
L 18.3125 0 
L 43.21875 64.59375 
L 8.203125 64.59375 
z
" id="DejaVuSans-55"/>
      </defs>
      <g transform="translate(475.255386 668.315781)scale(0.27 -0.27)">
       <use xlink:href="#DejaVuSans-55"/>
       <use x="63.623047" xlink:href="#DejaVuSans-53"/>
       <use x="127.246094" xlink:href="#DejaVuSans-48"/>
      </g>
     </g>
    </g>
    <g id="xtick_5">
     <g id="line2d_9">
      <path clip-path="url(#p5ca1172df4)" d="M 610.34953 640.8 
L 610.34953 86.4 
" style="fill:none;stroke:#b0b0b0;stroke-linecap:square;stroke-width:0.8;"/>
     </g>
     <g id="line2d_10">
      <g>
       <use style="stroke:#000000;stroke-width:0.8;" x="610.34953" xlink:href="#m69040cd8b0" y="640.8"/>
      </g>
     </g>
     <g id="text_5">
      <!-- 1000 -->
      <defs>
       <path d="M 12.40625 8.296875 
L 28.515625 8.296875 
L 28.515625 63.921875 
L 10.984375 60.40625 
L 10.984375 69.390625 
L 28.421875 72.90625 
L 38.28125 72.90625 
L 38.28125 8.296875 
L 54.390625 8.296875 
L 54.390625 0 
L 12.40625 0 
z
" id="DejaVuSans-49"/>
      </defs>
      <g transform="translate(575.99203 668.315781)scale(0.27 -0.27)">
       <use xlink:href="#DejaVuSans-49"/>
       <use x="63.623047" xlink:href="#DejaVuSans-48"/>
       <use x="127.246094" xlink:href="#DejaVuSans-48"/>
       <use x="190.869141" xlink:href="#DejaVuSans-48"/>
      </g>
     </g>
    </g>
    <g id="xtick_6">
     <g id="line2d_11">
      <path clip-path="url(#p5ca1172df4)" d="M 719.675549 640.8 
L 719.675549 86.4 
" style="fill:none;stroke:#b0b0b0;stroke-linecap:square;stroke-width:0.8;"/>
     </g>
     <g id="line2d_12">
      <g>
       <use style="stroke:#000000;stroke-width:0.8;" x="719.675549" xlink:href="#m69040cd8b0" y="640.8"/>
      </g>
     </g>
     <g id="text_6">
      <!-- 1250 -->
      <g transform="translate(685.318049 668.315781)scale(0.27 -0.27)">
       <use xlink:href="#DejaVuSans-49"/>
       <use x="63.623047" xlink:href="#DejaVuSans-50"/>
       <use x="127.246094" xlink:href="#DejaVuSans-53"/>
       <use x="190.869141" xlink:href="#DejaVuSans-48"/>
      </g>
     </g>
    </g>
    <g id="xtick_7">
     <g id="line2d_13">
      <path clip-path="url(#p5ca1172df4)" d="M 829.001567 640.8 
L 829.001567 86.4 
" style="fill:none;stroke:#b0b0b0;stroke-linecap:square;stroke-width:0.8;"/>
     </g>
     <g id="line2d_14">
      <g>
       <use style="stroke:#000000;stroke-width:0.8;" x="829.001567" xlink:href="#m69040cd8b0" y="640.8"/>
      </g>
     </g>
     <g id="text_7">
      <!-- 1500 -->
      <g transform="translate(794.644067 668.315781)scale(0.27 -0.27)">
       <use xlink:href="#DejaVuSans-49"/>
       <use x="63.623047" xlink:href="#DejaVuSans-53"/>
       <use x="127.246094" xlink:href="#DejaVuSans-48"/>
       <use x="190.869141" xlink:href="#DejaVuSans-48"/>
      </g>
     </g>
    </g>
    <g id="xtick_8">
     <g id="line2d_15">
      <path clip-path="url(#p5ca1172df4)" d="M 938.327586 640.8 
L 938.327586 86.4 
" style="fill:none;stroke:#b0b0b0;stroke-linecap:square;stroke-width:0.8;"/>
     </g>
     <g id="line2d_16">
      <g>
       <use style="stroke:#000000;stroke-width:0.8;" x="938.327586" xlink:href="#m69040cd8b0" y="640.8"/>
      </g>
     </g>
     <g id="text_8">
      <!-- 1750 -->
      <g transform="translate(903.970086 668.315781)scale(0.27 -0.27)">
       <use xlink:href="#DejaVuSans-49"/>
       <use x="63.623047" xlink:href="#DejaVuSans-55"/>
       <use x="127.246094" xlink:href="#DejaVuSans-53"/>
       <use x="190.869141" xlink:href="#DejaVuSans-48"/>
      </g>
     </g>
    </g>
   </g>
   <g id="matplotlib.axis_2">
    <g id="ytick_1">
     <g id="line2d_17">
      <path clip-path="url(#p5ca1172df4)" d="M 135 603.337369 
L 972 603.337369 
" style="fill:none;stroke:#b0b0b0;stroke-linecap:square;stroke-width:0.8;"/>
     </g>
     <g id="line2d_18">
      <defs>
       <path d="M 0 0 
L -3.5 0 
" id="m62fad988df" style="stroke:#000000;stroke-width:0.8;"/>
      </defs>
      <g>
       <use style="stroke:#000000;stroke-width:0.8;" x="135" xlink:href="#m62fad988df" y="603.337369"/>
      </g>
     </g>
     <g id="text_9">
      <!-- 67.5 -->
      <defs>
       <path d="M 33.015625 40.375 
Q 26.375 40.375 22.484375 35.828125 
Q 18.609375 31.296875 18.609375 23.390625 
Q 18.609375 15.53125 22.484375 10.953125 
Q 26.375 6.390625 33.015625 6.390625 
Q 39.65625 6.390625 43.53125 10.953125 
Q 47.40625 15.53125 47.40625 23.390625 
Q 47.40625 31.296875 43.53125 35.828125 
Q 39.65625 40.375 33.015625 40.375 
z
M 52.59375 71.296875 
L 52.59375 62.3125 
Q 48.875 64.0625 45.09375 64.984375 
Q 41.3125 65.921875 37.59375 65.921875 
Q 27.828125 65.921875 22.671875 59.328125 
Q 17.53125 52.734375 16.796875 39.40625 
Q 19.671875 43.65625 24.015625 45.921875 
Q 28.375 48.1875 33.59375 48.1875 
Q 44.578125 48.1875 50.953125 41.515625 
Q 57.328125 34.859375 57.328125 23.390625 
Q 57.328125 12.15625 50.6875 5.359375 
Q 44.046875 -1.421875 33.015625 -1.421875 
Q 20.359375 -1.421875 13.671875 8.265625 
Q 6.984375 17.96875 6.984375 36.375 
Q 6.984375 53.65625 15.1875 63.9375 
Q 23.390625 74.21875 37.203125 74.21875 
Q 40.921875 74.21875 44.703125 73.484375 
Q 48.484375 72.75 52.59375 71.296875 
z
" id="DejaVuSans-54"/>
       <path d="M 10.6875 12.40625 
L 21 12.40625 
L 21 0 
L 10.6875 0 
z
" id="DejaVuSans-46"/>
      </defs>
      <g transform="translate(67.882812 613.595259)scale(0.27 -0.27)">
       <use xlink:href="#DejaVuSans-54"/>
       <use x="63.623047" xlink:href="#DejaVuSans-55"/>
       <use x="127.246094" xlink:href="#DejaVuSans-46"/>
       <use x="159.033203" xlink:href="#DejaVuSans-53"/>
      </g>
     </g>
    </g>
    <g id="ytick_2">
     <g id="line2d_19">
      <path clip-path="url(#p5ca1172df4)" d="M 135 532.256191 
L 972 532.256191 
" style="fill:none;stroke:#b0b0b0;stroke-linecap:square;stroke-width:0.8;"/>
     </g>
     <g id="line2d_20">
      <g>
       <use style="stroke:#000000;stroke-width:0.8;" x="135" xlink:href="#m62fad988df" y="532.256191"/>
      </g>
     </g>
     <g id="text_10">
      <!-- 68.0 -->
      <defs>
       <path d="M 31.78125 34.625 
Q 24.75 34.625 20.71875 30.859375 
Q 16.703125 27.09375 16.703125 20.515625 
Q 16.703125 13.921875 20.71875 10.15625 
Q 24.75 6.390625 31.78125 6.390625 
Q 38.8125 6.390625 42.859375 10.171875 
Q 46.921875 13.96875 46.921875 20.515625 
Q 46.921875 27.09375 42.890625 30.859375 
Q 38.875 34.625 31.78125 34.625 
z
M 21.921875 38.8125 
Q 15.578125 40.375 12.03125 44.71875 
Q 8.5 49.078125 8.5 55.328125 
Q 8.5 64.0625 14.71875 69.140625 
Q 20.953125 74.21875 31.78125 74.21875 
Q 42.671875 74.21875 48.875 69.140625 
Q 55.078125 64.0625 55.078125 55.328125 
Q 55.078125 49.078125 51.53125 44.71875 
Q 48 40.375 41.703125 38.8125 
Q 48.828125 37.15625 52.796875 32.3125 
Q 56.78125 27.484375 56.78125 20.515625 
Q 56.78125 9.90625 50.3125 4.234375 
Q 43.84375 -1.421875 31.78125 -1.421875 
Q 19.734375 -1.421875 13.25 4.234375 
Q 6.78125 9.90625 6.78125 20.515625 
Q 6.78125 27.484375 10.78125 32.3125 
Q 14.796875 37.15625 21.921875 38.8125 
z
M 18.3125 54.390625 
Q 18.3125 48.734375 21.84375 45.5625 
Q 25.390625 42.390625 31.78125 42.390625 
Q 38.140625 42.390625 41.71875 45.5625 
Q 45.3125 48.734375 45.3125 54.390625 
Q 45.3125 60.0625 41.71875 63.234375 
Q 38.140625 66.40625 31.78125 66.40625 
Q 25.390625 66.40625 21.84375 63.234375 
Q 18.3125 60.0625 18.3125 54.390625 
z
" id="DejaVuSans-56"/>
      </defs>
      <g transform="translate(67.882812 542.514081)scale(0.27 -0.27)">
       <use xlink:href="#DejaVuSans-54"/>
       <use x="63.623047" xlink:href="#DejaVuSans-56"/>
       <use x="127.246094" xlink:href="#DejaVuSans-46"/>
       <use x="159.033203" xlink:href="#DejaVuSans-48"/>
      </g>
     </g>
    </g>
    <g id="ytick_3">
     <g id="line2d_21">
      <path clip-path="url(#p5ca1172df4)" d="M 135 461.175013 
L 972 461.175013 
" style="fill:none;stroke:#b0b0b0;stroke-linecap:square;stroke-width:0.8;"/>
     </g>
     <g id="line2d_22">
      <g>
       <use style="stroke:#000000;stroke-width:0.8;" x="135" xlink:href="#m62fad988df" y="461.175013"/>
      </g>
     </g>
     <g id="text_11">
      <!-- 68.5 -->
      <g transform="translate(67.882812 471.432903)scale(0.27 -0.27)">
       <use xlink:href="#DejaVuSans-54"/>
       <use x="63.623047" xlink:href="#DejaVuSans-56"/>
       <use x="127.246094" xlink:href="#DejaVuSans-46"/>
       <use x="159.033203" xlink:href="#DejaVuSans-53"/>
      </g>
     </g>
    </g>
    <g id="ytick_4">
     <g id="line2d_23">
      <path clip-path="url(#p5ca1172df4)" d="M 135 390.093834 
L 972 390.093834 
" style="fill:none;stroke:#b0b0b0;stroke-linecap:square;stroke-width:0.8;"/>
     </g>
     <g id="line2d_24">
      <g>
       <use style="stroke:#000000;stroke-width:0.8;" x="135" xlink:href="#m62fad988df" y="390.093834"/>
      </g>
     </g>
     <g id="text_12">
      <!-- 69.0 -->
      <defs>
       <path d="M 10.984375 1.515625 
L 10.984375 10.5 
Q 14.703125 8.734375 18.5 7.8125 
Q 22.3125 6.890625 25.984375 6.890625 
Q 35.75 6.890625 40.890625 13.453125 
Q 46.046875 20.015625 46.78125 33.40625 
Q 43.953125 29.203125 39.59375 26.953125 
Q 35.25 24.703125 29.984375 24.703125 
Q 19.046875 24.703125 12.671875 31.3125 
Q 6.296875 37.9375 6.296875 49.421875 
Q 6.296875 60.640625 12.9375 67.421875 
Q 19.578125 74.21875 30.609375 74.21875 
Q 43.265625 74.21875 49.921875 64.515625 
Q 56.59375 54.828125 56.59375 36.375 
Q 56.59375 19.140625 48.40625 8.859375 
Q 40.234375 -1.421875 26.421875 -1.421875 
Q 22.703125 -1.421875 18.890625 -0.6875 
Q 15.09375 0.046875 10.984375 1.515625 
z
M 30.609375 32.421875 
Q 37.25 32.421875 41.125 36.953125 
Q 45.015625 41.5 45.015625 49.421875 
Q 45.015625 57.28125 41.125 61.84375 
Q 37.25 66.40625 30.609375 66.40625 
Q 23.96875 66.40625 20.09375 61.84375 
Q 16.21875 57.28125 16.21875 49.421875 
Q 16.21875 41.5 20.09375 36.953125 
Q 23.96875 32.421875 30.609375 32.421875 
z
" id="DejaVuSans-57"/>
      </defs>
      <g transform="translate(67.882812 400.351725)scale(0.27 -0.27)">
       <use xlink:href="#DejaVuSans-54"/>
       <use x="63.623047" xlink:href="#DejaVuSans-57"/>
       <use x="127.246094" xlink:href="#DejaVuSans-46"/>
       <use x="159.033203" xlink:href="#DejaVuSans-48"/>
      </g>
     </g>
    </g>
    <g id="ytick_5">
     <g id="line2d_25">
      <path clip-path="url(#p5ca1172df4)" d="M 135 319.012656 
L 972 319.012656 
" style="fill:none;stroke:#b0b0b0;stroke-linecap:square;stroke-width:0.8;"/>
     </g>
     <g id="line2d_26">
      <g>
       <use style="stroke:#000000;stroke-width:0.8;" x="135" xlink:href="#m62fad988df" y="319.012656"/>
      </g>
     </g>
     <g id="text_13">
      <!-- 69.5 -->
      <g transform="translate(67.882812 329.270547)scale(0.27 -0.27)">
       <use xlink:href="#DejaVuSans-54"/>
       <use x="63.623047" xlink:href="#DejaVuSans-57"/>
       <use x="127.246094" xlink:href="#DejaVuSans-46"/>
       <use x="159.033203" xlink:href="#DejaVuSans-53"/>
      </g>
     </g>
    </g>
    <g id="ytick_6">
     <g id="line2d_27">
      <path clip-path="url(#p5ca1172df4)" d="M 135 247.931478 
L 972 247.931478 
" style="fill:none;stroke:#b0b0b0;stroke-linecap:square;stroke-width:0.8;"/>
     </g>
     <g id="line2d_28">
      <g>
       <use style="stroke:#000000;stroke-width:0.8;" x="135" xlink:href="#m62fad988df" y="247.931478"/>
      </g>
     </g>
     <g id="text_14">
      <!-- 70.0 -->
      <g transform="translate(67.882812 258.189369)scale(0.27 -0.27)">
       <use xlink:href="#DejaVuSans-55"/>
       <use x="63.623047" xlink:href="#DejaVuSans-48"/>
       <use x="127.246094" xlink:href="#DejaVuSans-46"/>
       <use x="159.033203" xlink:href="#DejaVuSans-48"/>
      </g>
     </g>
    </g>
    <g id="ytick_7">
     <g id="line2d_29">
      <path clip-path="url(#p5ca1172df4)" d="M 135 176.8503 
L 972 176.8503 
" style="fill:none;stroke:#b0b0b0;stroke-linecap:square;stroke-width:0.8;"/>
     </g>
     <g id="line2d_30">
      <g>
       <use style="stroke:#000000;stroke-width:0.8;" x="135" xlink:href="#m62fad988df" y="176.8503"/>
      </g>
     </g>
     <g id="text_15">
      <!-- 70.5 -->
      <g transform="translate(67.882812 187.108191)scale(0.27 -0.27)">
       <use xlink:href="#DejaVuSans-55"/>
       <use x="63.623047" xlink:href="#DejaVuSans-48"/>
       <use x="127.246094" xlink:href="#DejaVuSans-46"/>
       <use x="159.033203" xlink:href="#DejaVuSans-53"/>
      </g>
     </g>
    </g>
    <g id="ytick_8">
     <g id="line2d_31">
      <path clip-path="url(#p5ca1172df4)" d="M 135 105.769122 
L 972 105.769122 
" style="fill:none;stroke:#b0b0b0;stroke-linecap:square;stroke-width:0.8;"/>
     </g>
     <g id="line2d_32">
      <g>
       <use style="stroke:#000000;stroke-width:0.8;" x="135" xlink:href="#m62fad988df" y="105.769122"/>
      </g>
     </g>
     <g id="text_16">
      <!-- 71.0 -->
      <g transform="translate(67.882812 116.027013)scale(0.27 -0.27)">
       <use xlink:href="#DejaVuSans-55"/>
       <use x="63.623047" xlink:href="#DejaVuSans-49"/>
       <use x="127.246094" xlink:href="#DejaVuSans-46"/>
       <use x="159.033203" xlink:href="#DejaVuSans-48"/>
      </g>
     </g>
    </g>
   </g>
   <g id="line2d_33">
    <path clip-path="url(#p5ca1172df4)" d="M 173.045455 466.640376 
L 173.482759 472.091639 
L 173.920063 472.389908 
L 174.357367 465.34101 
L 174.794671 465.63494 
L 175.231975 466.424538 
L 175.669279 464.244467 
L 176.106583 460.591491 
L 176.543887 461.351804 
L 176.981191 455.337627 
L 177.418495 456.296425 
L 177.855799 460.209707 
L 178.293103 457.510106 
L 178.730408 456.180371 
L 179.167712 450.363593 
L 179.605016 454.861482 
L 180.04232 453.780123 
L 180.479624 454.210714 
L 180.916928 450.688977 
L 181.354232 448.64882 
L 181.791536 443.83314 
L 182.22884 442.009906 
L 182.666144 450.377693 
L 183.103448 450.587023 
L 183.540752 454.679267 
L 183.978056 450.003502 
L 184.415361 451.697667 
L 184.852665 447.008886 
L 185.289969 446.368965 
L 185.727273 446.85704 
L 186.164577 454.318091 
L 187.039185 474.158911 
L 187.476489 474.611195 
L 187.913793 474.293403 
L 188.351097 472.523315 
L 188.788401 465.497194 
L 189.225705 467.908288 
L 189.663009 465.684832 
L 190.100313 461.866995 
L 190.537618 460.541599 
L 190.974922 459.804062 
L 191.84953 450.936269 
L 192.286834 444.22577 
L 192.724138 439.628097 
L 193.161442 438.187731 
L 194.03605 433.070528 
L 194.473354 435.744099 
L 195.347962 430.634488 
L 195.785266 429.309091 
L 196.222571 431.452286 
L 196.659875 427.856795 
L 197.097179 430.648588 
L 197.534483 430.283074 
L 197.971787 432.344922 
L 198.409091 430.417566 
L 198.846395 440.035911 
L 199.283699 437.067326 
L 199.721003 438.173631 
L 200.158307 440.236564 
L 200.595611 454.927643 
L 201.032915 459.398417 
L 201.470219 459.8789 
L 201.907524 455.762795 
L 202.344828 456.791008 
L 202.782132 457.018777 
L 203.65674 451.387468 
L 204.094044 446.521895 
L 204.531348 446.687841 
L 205.84326 442.551128 
L 207.155172 424.952202 
L 207.592476 428.838369 
L 208.029781 430.914318 
L 208.467085 442.033768 
L 208.904389 426.279768 
L 209.341693 424.378442 
L 209.778997 423.315522 
L 210.216301 424.727687 
L 210.653605 425.234201 
L 211.090909 426.66589 
L 211.528213 427.339435 
L 211.965517 430.685465 
L 212.402821 445.978504 
L 212.840125 427.05852 
L 213.277429 429.394776 
L 213.714734 426.62359 
L 214.152038 426.150699 
L 214.589342 421.951079 
L 215.026646 422.15824 
L 215.46395 418.166865 
L 216.338558 419.922853 
L 216.775862 415.939071 
L 217.213166 415.280711 
L 217.65047 415.094157 
L 218.087774 414.459659 
L 218.525078 412.334903 
L 218.962382 408.420535 
L 219.399687 406.051741 
L 219.836991 397.670939 
L 220.274295 397.844477 
L 220.711599 395.374814 
L 221.148903 391.376931 
L 221.586207 385.637161 
L 222.023511 384.331287 
L 222.460815 378.888701 
L 222.898119 375.901677 
L 223.335423 376.890844 
L 224.210031 368.558849 
L 224.647335 373.370191 
L 225.521944 362.454649 
L 225.959248 362.314734 
L 226.396552 372.336555 
L 226.833856 360.422085 
L 227.27116 361.970912 
L 227.708464 360.669376 
L 228.145768 361.195414 
L 229.020376 352.786411 
L 229.45768 353.628071 
L 229.894984 352.520681 
L 230.332288 350.374233 
L 231.206897 357.559792 
L 231.644201 357.618361 
L 232.081505 355.530481 
L 232.518809 357.622699 
L 233.393417 351.494638 
L 233.830721 351.01307 
L 234.705329 341.556331 
L 235.142633 342.810144 
L 235.579937 341.274332 
L 236.017241 342.968497 
L 236.454545 342.451137 
L 236.89185 339.919651 
L 237.329154 338.056286 
L 237.766458 335.619161 
L 238.641066 328.362018 
L 239.515674 318.870572 
L 239.952978 309.586287 
L 240.390282 315.084189 
L 240.827586 314.418237 
L 241.26489 313.399786 
L 241.702194 309.200165 
L 242.139498 310.97893 
L 242.576803 310.061348 
L 243.014107 309.771756 
L 243.451411 302.918088 
L 243.888715 303.248895 
L 244.326019 301.901806 
L 244.763323 302.001591 
L 245.200627 298.652307 
L 245.637931 297.915855 
L 246.075235 300.535194 
L 246.512539 296.631673 
L 246.949843 301.459284 
L 247.387147 299.93215 
L 247.824451 302.153437 
L 248.261755 297.836678 
L 248.69906 298.617599 
L 249.136364 302.307452 
L 249.573668 302.451705 
L 250.010972 302.264067 
L 250.448276 302.225021 
L 250.88558 305.058029 
L 251.322884 305.511397 
L 251.760188 303.313972 
L 252.197492 297.829086 
L 253.0721 299.506982 
L 253.509404 302.798781 
L 253.946708 303.452803 
L 254.384013 302.531966 
L 254.821317 305.981035 
L 255.258621 310.671985 
L 255.695925 307.7598 
L 256.133229 308.713174 
L 256.570533 302.568843 
L 257.007837 308.296683 
L 257.445141 307.824876 
L 257.882445 304.418108 
L 258.319749 302.707674 
L 258.757053 305.311829 
L 259.194357 306.254357 
L 259.631661 302.902904 
L 260.068966 306.88994 
L 260.50627 307.788 
L 260.943574 310.006033 
L 261.380878 309.272834 
L 261.818182 313.672023 
L 262.255486 313.786992 
L 262.69279 317.899844 
L 263.130094 320.869513 
L 263.567398 322.624417 
L 264.004702 321.125482 
L 264.442006 324.019229 
L 264.87931 324.736158 
L 265.316614 325.127703 
L 265.753918 323.707945 
L 266.191223 327.90865 
L 266.628527 327.780665 
L 267.065831 327.826219 
L 267.503135 329.646199 
L 267.940439 327.966134 
L 268.377743 331.309995 
L 268.815047 330.993288 
L 269.252351 330.153798 
L 269.689655 331.770956 
L 270.126959 334.71351 
L 270.564263 329.255739 
L 271.001567 334.757979 
L 271.876176 332.561638 
L 272.31348 332.424977 
L 272.750784 333.988989 
L 273.188088 332.003063 
L 273.625392 333.695059 
L 274.062696 333.478136 
L 274.5 333.778574 
L 274.937304 336.263421 
L 275.374608 337.287296 
L 275.811912 333.639743 
L 276.249216 334.683141 
L 276.68652 333.225421 
L 277.123824 330.414105 
L 277.561129 330.541005 
L 277.998433 331.157065 
L 278.435737 331.038842 
L 278.873041 329.671145 
L 279.310345 334.18205 
L 279.747649 337.337188 
L 280.184953 336.649544 
L 280.622257 337.105081 
L 281.059561 338.507485 
L 281.496865 339.329622 
L 281.934169 337.91854 
L 282.371473 338.176678 
L 282.808777 340.389288 
L 283.246082 338.201624 
L 284.12069 341.805792 
L 284.557994 341.791692 
L 284.995298 344.226648 
L 285.432602 349.810234 
L 285.869906 352.725673 
L 286.30721 350.63454 
L 286.744514 350.575971 
L 287.181818 355.390566 
L 287.619122 353.647594 
L 288.056426 357.303823 
L 288.49373 354.831991 
L 288.931034 355.100975 
L 289.368339 352.585758 
L 289.805643 351.503315 
L 290.242947 348.829744 
L 290.680251 351.234331 
L 291.117555 351.668176 
L 291.992163 355.808142 
L 292.429467 354.484915 
L 292.866771 351.76796 
L 293.304075 351.765791 
L 293.741379 352.647581 
L 294.178683 356.397087 
L 295.9279 365.440588 
L 296.365204 364.396106 
L 297.239812 368.782279 
L 297.677116 369.371224 
L 298.11442 369.431963 
L 298.551724 368.350604 
L 298.989028 371.203135 
L 299.426332 370.451498 
L 299.863636 371.921149 
L 300.30094 374.97108 
L 300.738245 374.786695 
L 301.175549 372.822462 
L 301.612853 373.365853 
L 302.050157 373.266068 
L 302.924765 371.822449 
L 303.362069 374.350681 
L 303.799373 372.902723 
L 304.236677 372.096856 
L 304.673981 370.044769 
L 305.111285 372.999254 
L 305.548589 368.851695 
L 305.985893 369.620685 
L 306.423197 370.929813 
L 306.860502 366.860346 
L 307.297806 364.968781 
L 307.73511 362.225796 
L 308.172414 356.053265 
L 308.609718 354.720276 
L 309.484326 346.667026 
L 309.92163 348.706098 
L 310.796238 346.46095 
L 311.233542 338.652823 
L 311.670846 337.033496 
L 312.10815 325.011649 
L 312.545455 322.145018 
L 312.982759 326.844645 
L 313.420063 327.071329 
L 313.857367 326.078908 
L 314.294671 326.466115 
L 314.731975 325.796909 
L 315.169279 328.36961 
L 316.481191 331.585487 
L 316.918495 330.084383 
L 317.355799 327.943357 
L 318.230408 332.955353 
L 318.667712 330.982442 
L 319.105016 330.516059 
L 319.54232 332.740599 
L 319.979624 332.494392 
L 320.416928 330.970511 
L 320.854232 327.944442 
L 321.72884 318.476858 
L 322.166144 319.583163 
L 322.603448 319.640647 
L 323.040752 314.944274 
L 323.478056 312.339034 
L 323.915361 307.633985 
L 324.352665 312.152481 
L 324.789969 313.095009 
L 325.227273 309.656787 
L 325.664577 307.784746 
L 326.101881 306.783648 
L 326.976489 299.047106 
L 327.851097 288.973223 
L 328.288401 286.513321 
L 328.725705 285.032825 
L 329.163009 285.292047 
L 329.600313 288.26714 
L 330.474922 286.29423 
L 330.912226 286.318091 
L 331.34953 288.853916 
L 331.786834 286.061038 
L 332.661442 293.484127 
L 333.098746 294.719501 
L 333.53605 293.904957 
L 333.973354 298.202192 
L 334.410658 297.783532 
L 334.847962 297.548171 
L 335.285266 298.401761 
L 335.722571 296.146851 
L 336.159875 295.280246 
L 336.597179 299.205459 
L 337.034483 297.111072 
L 337.471787 286.436314 
L 337.909091 290.626173 
L 338.783699 292.885421 
L 339.221003 288.643501 
L 339.658307 291.527486 
L 340.095611 289.156523 
L 340.532915 292.265023 
L 340.970219 287.621796 
L 341.407524 280.898281 
L 341.844828 280.124953 
L 342.282132 275.524025 
L 342.719436 278.706279 
L 343.15674 278.481764 
L 343.594044 275.753963 
L 344.031348 275.368926 
L 344.905956 281.299588 
L 345.34326 283.094622 
L 346.217868 289.030707 
L 346.655172 287.571903 
L 347.092476 282.624985 
L 347.529781 287.533942 
L 347.967085 293.767211 
L 348.404389 293.57415 
L 348.841693 292.786721 
L 349.278997 310.47567 
L 349.716301 307.33897 
L 350.153605 301.675122 
L 350.590909 309.052658 
L 351.028213 305.810751 
L 351.465517 282.020856 
L 351.902821 279.991545 
L 352.340125 282.620646 
L 352.777429 287.046951 
L 353.214734 286.084899 
L 353.652038 282.006756 
L 354.089342 285.750839 
L 354.526646 283.098961 
L 354.96395 287.903795 
L 355.401254 300.295495 
L 355.838558 322.616824 
L 356.713166 326.069147 
L 357.15047 326.564815 
L 357.587774 321.156936 
L 358.025078 299.228236 
L 358.899687 312.717564 
L 359.336991 306.041773 
L 359.774295 287.435242 
L 360.211599 294.02318 
L 360.648903 291.929877 
L 361.086207 289.17713 
L 361.523511 291.202102 
L 361.960815 286.930897 
L 362.398119 288.846323 
L 363.272727 300.99507 
L 364.147335 299.453836 
L 364.584639 303.590548 
L 365.021944 305.508144 
L 365.459248 306.14915 
L 365.896552 305.761943 
L 366.333856 311.337937 
L 366.77116 308.888881 
L 367.208464 309.318388 
L 367.645768 325.175426 
L 368.083072 326.328369 
L 368.520376 322.002934 
L 368.95768 326.180862 
L 369.394984 333.571413 
L 369.832288 338.556293 
L 370.269592 337.307903 
L 370.706897 338.765623 
L 371.144201 346.335135 
L 371.581505 351.69746 
L 372.018809 361.482836 
L 372.456113 360.668292 
L 372.893417 362.475257 
L 373.330721 367.892897 
L 373.768025 370.444991 
L 374.205329 375.167394 
L 375.079937 401.234976 
L 375.517241 406.37821 
L 375.954545 407.985606 
L 376.39185 408.85438 
L 377.266458 437.219172 
L 377.703762 442.637897 
L 378.141066 454.40486 
L 378.57837 455.337627 
L 379.015674 466.143623 
L 379.452978 467.415874 
L 379.890282 473.85522 
L 380.327586 470.169706 
L 380.76489 469.656684 
L 381.202194 474.361734 
L 381.639498 476.673044 
L 382.076803 477.197996 
L 382.514107 474.892109 
L 382.951411 475.428993 
L 383.388715 475.620969 
L 383.826019 474.020081 
L 384.263323 481.455101 
L 384.700627 483.933441 
L 385.137931 482.144915 
L 385.575235 484.042987 
L 386.012539 480.820602 
L 386.449843 485.416106 
L 386.887147 485.237145 
L 387.324451 488.240438 
L 387.761755 487.24151 
L 388.19906 493.615779 
L 389.073668 483.606973 
L 389.510972 488.523522 
L 389.948276 489.674296 
L 390.38558 486.767534 
L 390.822884 477.482165 
L 391.260188 478.015794 
L 391.697492 475.014671 
L 392.5721 472.302054 
L 393.009404 469.687053 
L 393.446708 463.226015 
L 393.884013 465.714117 
L 394.321317 466.850791 
L 394.758621 471.29228 
L 395.195925 468.605694 
L 395.633229 471.153449 
L 396.070533 474.456095 
L 396.507837 475.615546 
L 397.382445 471.366034 
L 397.819749 474.609026 
L 398.257053 472.146955 
L 400.443574 493.571309 
L 401.318182 499.87074 
L 401.755486 506.370824 
L 402.19279 506.293816 
L 403.504702 515.929516 
L 403.942006 517.605242 
L 404.816614 529.280013 
L 405.253918 531.32017 
L 405.691223 534.469885 
L 406.128527 538.462345 
L 406.565831 539.158666 
L 407.003135 539.556719 
L 407.440439 542.993856 
L 407.877743 539.183612 
L 408.315047 546.466786 
L 408.752351 550.0677 
L 409.189655 555.331326 
L 409.626959 558.379088 
L 410.501567 562.414932 
L 410.938871 562.006033 
L 411.376176 559.6047 
L 411.81348 559.776069 
L 412.250784 557.707712 
L 413.125392 556.730476 
L 413.562696 553.475554 
L 414 553.644753 
L 414.437304 552.406125 
L 414.874608 553.336723 
L 415.311912 550.360546 
L 415.749216 552.471202 
L 416.623824 550.51673 
L 417.935737 558.292319 
L 418.373041 559.373677 
L 418.810345 555.785779 
L 419.247649 555.784694 
L 419.684953 552.95277 
L 420.559561 540.989492 
L 420.996865 537.744331 
L 421.434169 530.448141 
L 421.871473 528.275662 
L 422.308777 523.583628 
L 422.746082 525.035924 
L 423.183386 520.28532 
L 424.057994 515.528209 
L 424.495298 512.029248 
L 425.369906 501.415228 
L 425.80721 498.552936 
L 426.244514 488.037615 
L 426.681818 480.303242 
L 427.119122 478.607993 
L 427.99373 461.78565 
L 428.431034 460.756352 
L 428.868339 454.340868 
L 429.742947 446.906932 
L 430.617555 427.246158 
L 431.054859 419.115901 
L 431.492163 419.302455 
L 431.929467 417.710243 
L 432.366771 413.822991 
L 433.241379 395.207783 
L 433.678683 387.270588 
L 434.115987 376.850713 
L 434.553292 377.362651 
L 434.990596 371.605526 
L 435.4279 371.277973 
L 435.865204 356.617263 
L 436.302508 363.449239 
L 436.739812 360.64443 
L 438.489028 333.200475 
L 439.363636 323.331584 
L 439.80094 316.730631 
L 440.238245 316.835839 
L 440.675549 314.87269 
L 441.112853 305.718558 
L 441.550157 299.241251 
L 441.987461 290.66305 
L 442.424765 284.681411 
L 443.736677 261.288484 
L 444.611285 265.757088 
L 445.485893 252.740651 
L 445.923197 250.543226 
L 446.360502 245.894576 
L 446.797806 243.529035 
L 447.23511 243.44552 
L 447.672414 240.51815 
L 448.109718 235.29574 
L 448.547022 232.875969 
L 449.42163 223.263047 
L 449.858934 220.821584 
L 450.296238 222.248934 
L 450.733542 218.838912 
L 451.170846 212.852934 
L 451.60815 211.515607 
L 452.045455 212.121905 
L 453.357367 215.836704 
L 453.794671 214.705453 
L 454.231975 214.515646 
L 454.669279 213.220618 
L 455.106583 217.330216 
L 455.543887 213.602402 
L 455.981191 217.2749 
L 456.418495 219.899663 
L 456.855799 219.593802 
L 457.293103 219.675148 
L 457.730408 224.276075 
L 458.167712 224.912743 
L 458.605016 219.443041 
L 459.04232 217.100278 
L 459.479624 207.616424 
L 459.916928 203.409211 
L 460.791536 186.84826 
L 461.22884 183.210469 
L 462.103448 166.909825 
L 462.978056 157.902116 
L 463.415361 152.710075 
L 463.852665 145.853154 
L 464.289969 145.34664 
L 464.727273 145.701308 
L 465.164577 140.207745 
L 465.601881 136.122009 
L 466.039185 136.477762 
L 466.476489 132.89854 
L 466.913793 134.611143 
L 467.351097 132.907217 
L 467.788401 134.458213 
L 468.225705 133.938683 
L 468.663009 139.379101 
L 469.100313 138.811848 
L 469.537618 140.41816 
L 469.974922 142.658969 
L 470.412226 143.873736 
L 470.84953 150.062536 
L 471.286834 150.41395 
L 471.724138 161.472661 
L 472.161442 160.565925 
L 473.473354 181.630188 
L 473.910658 183.357976 
L 474.347962 190.534859 
L 474.785266 191.014257 
L 475.222571 193.329906 
L 475.659875 199.597882 
L 476.097179 202.591413 
L 476.534483 204.083841 
L 476.971787 203.02092 
L 477.409091 203.856072 
L 477.846395 200.100058 
L 478.283699 201.053433 
L 478.721003 199.013276 
L 479.158307 196.261614 
L 479.595611 192.262647 
L 480.032915 193.936204 
L 480.470219 189.522915 
L 480.907524 189.929645 
L 481.344828 190.102098 
L 481.782132 189.792984 
L 482.219436 184.386189 
L 482.65674 176.600839 
L 483.094044 180.148607 
L 483.531348 178.409973 
L 483.968652 175.315573 
L 484.84326 173.835077 
L 485.280564 175.985864 
L 485.717868 177.530352 
L 486.155172 176.015148 
L 486.592476 176.270032 
L 487.029781 183.452338 
L 487.467085 186.464307 
L 487.904389 194.265926 
L 488.341693 198.129317 
L 489.216301 211.414738 
L 489.653605 216.26621 
L 490.090909 226.525562 
L 490.528213 230.790259 
L 490.965517 242.038777 
L 491.402821 248.974876 
L 491.840125 260.835116 
L 492.277429 266.344948 
L 492.714734 276.261562 
L 493.152038 280.219314 
L 493.589342 287.904879 
L 494.026646 293.452673 
L 494.46395 295.095862 
L 494.901254 303.22178 
L 495.338558 307.581923 
L 495.775862 315.791357 
L 496.213166 320.138484 
L 496.65047 329.137516 
L 497.087774 332.290485 
L 497.962382 347.652939 
L 499.274295 364.10326 
L 499.711599 374.244389 
L 500.148903 376.800821 
L 501.023511 389.454998 
L 501.898119 396.227319 
L 502.335423 401.657975 
L 502.772727 402.992049 
L 503.210031 405.472558 
L 504.084639 414.049675 
L 504.521944 411.958542 
L 504.959248 415.930394 
L 505.396552 424.801441 
L 505.833856 421.098573 
L 506.27116 424.921833 
L 506.708464 430.828634 
L 507.145768 431.550986 
L 507.583072 431.383955 
L 508.020376 431.792854 
L 508.45768 431.462048 
L 509.332288 425.920761 
L 510.206897 413.3219 
L 510.644201 404.86626 
L 511.081505 403.945423 
L 511.518809 399.354258 
L 511.956113 392.392129 
L 512.393417 394.262001 
L 512.830721 393.127496 
L 513.268025 390.354142 
L 513.705329 392.123145 
L 514.142633 387.785779 
L 514.579937 386.559082 
L 515.017241 382.202192 
L 515.454545 371.236758 
L 515.89185 367.67489 
L 516.329154 361.86245 
L 516.766458 345.875259 
L 517.203762 340.725518 
L 517.641066 333.91415 
L 518.515674 313.955107 
L 518.952978 316.224117 
L 519.390282 315.156858 
L 519.827586 313.678531 
L 520.26489 317.577714 
L 520.702194 317.971428 
L 521.139498 318.755603 
L 521.576803 314.215414 
L 522.014107 316.00611 
L 522.451411 314.149253 
L 522.888715 314.26856 
L 523.326019 308.684974 
L 523.763323 309.641603 
L 524.200627 311.182837 
L 524.637931 310.435539 
L 525.512539 301.716338 
L 525.949843 294.96137 
L 526.387147 291.08171 
L 527.69906 276.854845 
L 528.136364 274.905796 
L 528.573668 272.342856 
L 529.010972 275.69431 
L 529.448276 274.522928 
L 529.88558 275.538125 
L 530.322884 270.790776 
L 530.760188 267.372076 
L 531.197492 270.905745 
L 531.634796 265.237559 
L 532.0721 267.401361 
L 532.509404 268.432828 
L 532.946708 268.267966 
L 533.384013 269.432841 
L 533.821317 273.2561 
L 534.258621 273.91446 
L 534.695925 277.362444 
L 535.133229 279.677008 
L 535.570533 280.362483 
L 536.007837 282.966638 
L 536.445141 279.556615 
L 536.882445 284.005697 
L 537.319749 283.243214 
L 537.757053 288.013341 
L 538.194357 279.366808 
L 538.631661 275.335303 
L 539.068966 283.235622 
L 539.50627 278.166142 
L 539.943574 279.899353 
L 540.380878 282.726938 
L 540.818182 287.678195 
L 541.255486 289.081684 
L 542.130094 301.606792 
L 542.567398 317.303307 
L 543.004702 326.158085 
L 543.87931 338.472778 
L 544.316614 346.174612 
L 545.191223 365.529526 
L 545.628527 370.85389 
L 546.065831 377.75528 
L 546.503135 386.615482 
L 546.940439 392.030953 
L 547.377743 402.687273 
L 547.815047 407.436792 
L 548.252351 415.513902 
L 548.689655 420.760174 
L 549.126959 421.98904 
L 550.001567 433.088967 
L 550.438871 433.410012 
L 550.876176 440.497956 
L 551.31348 443.795179 
L 551.750784 445.35919 
L 552.625392 452.825664 
L 553.062696 455.463442 
L 553.5 459.364794 
L 553.937304 467.593751 
L 554.374608 473.400767 
L 556.561129 490.117903 
L 556.998433 497.971583 
L 557.435737 496.923847 
L 557.873041 497.179816 
L 559.184953 506.137632 
L 559.622257 506.863238 
L 560.059561 513.625798 
L 560.496865 511.726641 
L 560.934169 516.750567 
L 561.371473 519.0955 
L 561.808777 520.079244 
L 562.246082 518.598748 
L 562.683386 524.167149 
L 563.12069 526.861327 
L 563.557994 527.052219 
L 563.995298 531.661823 
L 564.869906 537.133694 
L 565.30721 539.068643 
L 565.744514 543.92337 
L 566.181818 540.418986 
L 566.619122 540.564324 
L 567.056426 540.559986 
L 567.49373 540.26714 
L 567.931034 536.972087 
L 568.368339 536.540411 
L 568.805643 534.777915 
L 569.242947 535.010022 
L 569.680251 536.051251 
L 570.117555 531.629285 
L 570.554859 530.673741 
L 570.992163 525.830945 
L 571.429467 527.465456 
L 571.866771 522.471899 
L 572.304075 522.398146 
L 572.741379 518.407856 
L 573.615987 505.228727 
L 574.053292 506.153901 
L 574.490596 506.264532 
L 574.9279 495.402136 
L 575.365204 495.779581 
L 575.802508 482.374852 
L 576.239812 486.91721 
L 576.677116 479.760936 
L 577.11442 477.836833 
L 577.551724 467.215221 
L 577.989028 462.627309 
L 578.863636 457.347414 
L 579.30094 447.771369 
L 579.738245 440.733317 
L 580.175549 438.585784 
L 580.612853 428.482616 
L 581.487461 411.907565 
L 581.924765 412.137503 
L 582.362069 408.366305 
L 582.799373 411.776327 
L 583.236677 408.690604 
L 583.673981 409.626625 
L 584.111285 409.226403 
L 584.985893 392.906235 
L 585.423197 390.489718 
L 585.860502 382.929968 
L 586.73511 373.788852 
L 587.172414 373.974321 
L 587.609718 371.643488 
L 588.047022 362.576126 
L 588.484326 371.194458 
L 588.92163 363.630369 
L 589.358934 359.420987 
L 589.796238 357.823353 
L 590.233542 367.89832 
L 591.10815 356.301641 
L 591.545455 355.595558 
L 591.982759 363.692192 
L 592.420063 368.685749 
L 592.857367 366.262724 
L 593.294671 357.067378 
L 593.731975 355.830919 
L 594.606583 337.631118 
L 595.481191 329.344677 
L 596.355799 305.115514 
L 597.230408 291.464578 
L 598.105016 286.915713 
L 598.979624 262.259212 
L 599.416928 252.011791 
L 599.854232 231.676388 
L 600.291536 236.54413 
L 600.72884 234.66558 
L 601.166144 228.254435 
L 602.040752 200.880979 
L 602.478056 199.525213 
L 602.915361 193.589128 
L 603.352665 194.051173 
L 603.789969 183.447999 
L 604.227273 186.388384 
L 604.664577 182.756016 
L 605.101881 183.087908 
L 605.539185 183.107431 
L 605.976489 183.011985 
L 606.413793 183.0673 
L 607.288401 176.990215 
L 607.725705 185.850416 
L 608.163009 187.777773 
L 608.600313 184.317859 
L 609.474922 194.364626 
L 609.912226 204.601201 
L 610.34953 207.253079 
L 610.786834 213.764009 
L 611.224138 212.680481 
L 611.661442 222.907294 
L 612.098746 222.878009 
L 612.53605 223.308601 
L 612.973354 226.022302 
L 613.410658 227.217545 
L 613.847962 227.163314 
L 614.285266 222.692541 
L 614.722571 221.565628 
L 615.159875 218.965811 
L 615.597179 220.181662 
L 616.034483 209.049198 
L 616.471787 211.504761 
L 617.346395 204.151087 
L 617.783699 202.374491 
L 618.221003 203.276889 
L 618.658307 205.268238 
L 619.095611 193.642274 
L 619.532915 189.50773 
L 620.407524 184.72025 
L 620.844828 179.940362 
L 621.282132 177.781983 
L 621.719436 178.574834 
L 622.15674 182.024987 
L 622.594044 175.145289 
L 623.031348 176.772208 
L 623.468652 176.531424 
L 623.905956 175.712541 
L 624.34326 173.22444 
L 624.780564 175.17132 
L 625.217868 173.040056 
L 625.655172 173.457632 
L 626.092476 168.435875 
L 626.529781 169.529164 
L 626.967085 169.750425 
L 627.404389 175.994541 
L 627.841693 178.496742 
L 628.278997 179.401309 
L 628.716301 182.856885 
L 629.153605 181.182243 
L 629.590909 171.498821 
L 630.028213 171.20706 
L 630.465517 167.479246 
L 630.902821 170.882761 
L 631.340125 166.870779 
L 631.777429 164.243847 
L 632.214734 187.185575 
L 633.089342 202.177091 
L 633.526646 201.258424 
L 633.96395 203.797503 
L 634.401254 202.401606 
L 634.838558 206.601227 
L 635.275862 204.849577 
L 635.713166 209.985218 
L 636.15047 207.888662 
L 636.587774 207.715124 
L 637.462382 216.959278 
L 637.899687 221.591659 
L 638.336991 221.059114 
L 638.774295 223.04504 
L 639.211599 222.140473 
L 639.648903 227.517983 
L 640.086207 227.886751 
L 640.523511 231.246881 
L 640.960815 233.412853 
L 641.398119 234.402019 
L 641.835423 237.826142 
L 642.272727 238.480163 
L 642.710031 241.404279 
L 643.147335 243.176536 
L 643.584639 247.845794 
L 644.021944 254.089909 
L 644.459248 255.897959 
L 644.896552 260.869823 
L 645.333856 268.62155 
L 645.77116 267.189861 
L 646.208464 271.21269 
L 646.645768 282.654269 
L 648.394984 306.369326 
L 648.832288 308.756559 
L 650.144201 326.045285 
L 650.581505 328.645102 
L 651.018809 335.135424 
L 651.456113 335.464062 
L 651.893417 334.328472 
L 652.330721 331.926055 
L 652.768025 328.624494 
L 653.205329 328.428179 
L 653.642633 329.608238 
L 654.079937 323.976929 
L 654.517241 320.874936 
L 654.954545 323.39883 
L 655.39185 327.412982 
L 655.829154 326.632061 
L 656.266458 322.159118 
L 656.703762 322.267579 
L 657.141066 324.227474 
L 657.57837 323.74916 
L 658.015674 301.819376 
L 658.452978 327.800189 
L 658.890282 332.013909 
L 659.327586 333.231929 
L 659.76489 336.510713 
L 660.202194 337.336103 
L 660.639498 337.349119 
L 661.076803 340.136573 
L 661.514107 341.7982 
L 661.951411 345.143146 
L 662.388715 340.070412 
L 662.826019 341.723362 
L 663.263323 341.575854 
L 663.700627 344.159402 
L 664.137931 345.04553 
L 664.575235 346.934926 
L 665.012539 343.598657 
L 665.449843 344.225563 
L 666.324451 343.684342 
L 666.761755 340.371934 
L 667.19906 339.366498 
L 667.636364 336.083376 
L 668.073668 336.020468 
L 668.510972 335.115901 
L 668.948276 335.546492 
L 669.38558 334.82631 
L 669.822884 336.690759 
L 670.260188 336.231968 
L 670.697492 332.404369 
L 671.134796 331.776379 
L 671.5721 329.667892 
L 672.009404 323.53983 
L 672.446708 327.616889 
L 672.884013 325.776301 
L 673.758621 323.48343 
L 674.195925 329.213439 
L 674.633229 331.392426 
L 675.070533 334.197234 
L 675.507837 335.921768 
L 675.945141 336.665813 
L 676.382445 332.146232 
L 676.819749 333.083337 
L 677.257053 332.705892 
L 677.694357 329.5334 
L 678.568966 333.490067 
L 679.00627 331.294811 
L 679.443574 330.614758 
L 679.880878 324.414028 
L 680.318182 326.159169 
L 680.755486 324.717719 
L 681.19279 325.215556 
L 681.630094 323.488853 
L 682.067398 330.608251 
L 682.504702 331.930394 
L 683.37931 335.457554 
L 683.816614 335.025878 
L 684.253918 335.209178 
L 684.691223 338.348047 
L 685.128527 334.26448 
L 685.565831 332.700469 
L 686.003135 331.813256 
L 686.440439 333.961873 
L 686.877743 338.074725 
L 687.315047 338.148478 
L 687.752351 336.828505 
L 688.189655 340.152843 
L 688.626959 340.113797 
L 689.064263 336.843689 
L 689.501567 338.734169 
L 689.938871 336.539998 
L 690.376176 338.505316 
L 690.81348 334.967309 
L 691.250784 328.913001 
L 691.688088 327.244867 
L 692.125392 328.877209 
L 692.562696 329.969414 
L 693 326.363077 
L 693.437304 330.923873 
L 693.874608 332.239508 
L 694.311912 323.475838 
L 694.749216 325.084318 
L 695.18652 325.338118 
L 695.623824 318.874911 
L 696.061129 315.027789 
L 696.498433 320.009415 
L 696.935737 327.625566 
L 697.373041 320.065815 
L 697.810345 319.477955 
L 698.247649 321.135243 
L 698.684953 324.15589 
L 699.122257 318.325012 
L 699.559561 318.970357 
L 699.996865 316.203509 
L 700.434169 316.490932 
L 701.308777 310.925784 
L 701.746082 309.722949 
L 702.183386 304.841107 
L 703.057994 301.140408 
L 703.495298 305.483198 
L 703.932602 300.848647 
L 704.369906 300.694632 
L 704.80721 296.31822 
L 705.244514 299.205459 
L 705.681818 300.784655 
L 706.119122 306.738094 
L 706.556426 310.329247 
L 706.99373 305.351959 
L 707.431034 307.952861 
L 708.305643 316.365117 
L 708.742947 300.863832 
L 709.180251 307.507085 
L 709.617555 311.814082 
L 710.054859 313.239263 
L 710.492163 304.6231 
L 710.929467 306.83354 
L 711.366771 311.720805 
L 711.804075 312.213219 
L 712.241379 318.51265 
L 712.678683 332.75253 
L 713.115987 329.344677 
L 713.553292 321.997511 
L 713.990596 323.139608 
L 714.4279 327.946611 
L 714.865204 328.88914 
L 715.302508 325.943332 
L 715.739812 329.037732 
L 716.177116 334.858848 
L 716.61442 319.726332 
L 717.051724 320.345645 
L 717.489028 331.493295 
L 717.926332 331.705879 
L 718.363636 315.961641 
L 718.80094 316.333663 
L 719.238245 320.886867 
L 719.675549 309.669803 
L 720.112853 302.444113 
L 720.550157 315.182889 
L 720.987461 324.664573 
L 721.424765 313.070063 
L 721.862069 309.412749 
L 722.736677 310.02664 
L 723.173981 294.593686 
L 723.611285 293.50365 
L 724.048589 301.691392 
L 724.485893 294.971131 
L 725.360502 307.641577 
L 726.23511 300.892032 
L 726.672414 308.845497 
L 727.109718 314.139492 
L 727.547022 308.927927 
L 727.984326 295.402807 
L 728.42163 297.153372 
L 728.858934 302.125237 
L 729.296238 294.191295 
L 729.733542 297.666394 
L 730.170846 305.131783 
L 730.60815 303.773848 
L 731.045455 288.390786 
L 731.482759 287.864749 
L 731.920063 279.6846 
L 732.357367 282.549062 
L 732.794671 280.696543 
L 733.231975 288.695562 
L 733.669279 289.090361 
L 734.106583 287.719411 
L 734.543887 288.959123 
L 734.981191 295.811706 
L 735.418495 297.318233 
L 735.855799 293.997149 
L 736.293103 294.595855 
L 736.730408 292.113177 
L 737.167712 286.004638 
L 737.605016 274.30709 
L 738.04232 273.887345 
L 738.479624 274.085829 
L 738.916928 280.068553 
L 739.354232 283.17163 
L 739.791536 282.542554 
L 740.22884 283.593544 
L 740.666144 276.950291 
L 741.103448 279.768115 
L 741.540752 287.065389 
L 742.415361 276.363516 
L 742.852665 279.414531 
L 743.289969 274.596682 
L 743.727273 272.786463 
L 744.164577 283.062084 
L 744.601881 278.080458 
L 745.039185 274.622712 
L 745.476489 265.815657 
L 745.913793 270.453461 
L 746.351097 270.278838 
L 746.788401 268.962119 
L 747.225705 258.951143 
L 747.663009 257.670216 
L 748.100313 262.71258 
L 748.974922 257.864361 
L 749.412226 258.523806 
L 749.84953 264.960982 
L 750.286834 257.473901 
L 750.724138 259.349196 
L 751.161442 254.315509 
L 751.598746 250.893556 
L 752.03605 248.461854 
L 752.473354 249.88812 
L 752.910658 259.740741 
L 753.347962 259.424035 
L 753.785266 260.777631 
L 754.222571 259.707118 
L 754.659875 260.545524 
L 755.097179 257.877377 
L 755.534483 257.706008 
L 755.971787 257.173463 
L 756.409091 262.67245 
L 756.846395 259.424035 
L 757.283699 258.543329 
L 757.721003 262.486981 
L 758.158307 262.145328 
L 758.595611 264.769006 
L 759.032915 263.785262 
L 759.470219 272.00988 
L 759.907524 270.697499 
L 760.344828 273.640053 
L 760.782132 272.672579 
L 761.219436 274.262621 
L 761.65674 270.326561 
L 762.094044 270.290769 
L 762.531348 279.466593 
L 762.968652 283.672721 
L 763.405956 284.289865 
L 763.84326 280.449252 
L 764.280564 287.136974 
L 764.717868 287.248689 
L 765.155172 283.794197 
L 765.592476 284.204181 
L 766.029781 289.115307 
L 766.904389 283.192237 
L 767.341693 286.30833 
L 767.778997 287.695549 
L 768.216301 288.614216 
L 768.653605 290.94071 
L 769.090909 296.067675 
L 769.528213 294.881108 
L 769.965517 291.359371 
L 770.402821 291.185833 
L 770.840125 293.132713 
L 771.277429 297.346433 
L 771.714734 296.988511 
L 772.589342 302.324805 
L 773.026646 308.978904 
L 773.46395 310.102563 
L 773.901254 315.758818 
L 774.338558 315.346665 
L 774.775862 320.674283 
L 775.213166 321.573427 
L 775.65047 324.86848 
L 776.087774 326.289323 
L 776.525078 330.658143 
L 776.962382 337.021566 
L 777.399687 338.876253 
L 777.836991 337.109419 
L 778.274295 329.527977 
L 778.711599 328.942286 
L 779.148903 328.921678 
L 779.586207 329.932537 
L 780.023511 328.138588 
L 780.460815 329.492184 
L 780.898119 333.276398 
L 781.335423 331.882671 
L 781.772727 329.345762 
L 782.210031 327.491074 
L 782.647335 326.808853 
L 783.084639 327.555066 
L 783.521944 326.168931 
L 783.959248 325.378248 
L 784.396552 329.216693 
L 784.833856 326.3121 
L 785.27116 328.76224 
L 785.708464 324.934642 
L 786.583072 330.375059 
L 787.020376 331.32518 
L 787.45768 330.244906 
L 788.332288 342.735305 
L 788.769592 344.395847 
L 789.206897 347.478317 
L 789.644201 348.002185 
L 790.081505 352.569489 
L 790.518809 352.145405 
L 790.956113 353.642171 
L 791.393417 353.403556 
L 791.830721 359.451356 
L 792.268025 361.355936 
L 792.705329 366.800692 
L 793.579937 373.490583 
L 794.454545 392.852005 
L 794.89185 397.375924 
L 795.766458 403.705724 
L 796.641066 412.684148 
L 797.07837 415.257934 
L 797.515674 414.879404 
L 798.390282 420.920697 
L 798.827586 421.942402 
L 799.26489 420.701605 
L 799.702194 414.141867 
L 800.139498 419.478162 
L 801.014107 413.75683 
L 801.451411 413.067016 
L 801.888715 412.779594 
L 802.326019 410.11687 
L 802.763323 410.305592 
L 803.200627 406.744809 
L 803.637931 405.840242 
L 804.075235 406.741555 
L 804.512539 409.02358 
L 804.949843 402.757772 
L 805.387147 401.775113 
L 805.824451 402.450827 
L 806.261755 402.797903 
L 806.69906 402.142797 
L 807.136364 399.83908 
L 807.573668 398.85859 
L 808.010972 398.956205 
L 808.448276 393.691495 
L 808.88558 393.968071 
L 809.322884 392.080845 
L 809.760188 394.318401 
L 810.197492 391.484308 
L 810.634796 390.771717 
L 811.0721 390.892109 
L 811.509404 390.418134 
L 811.946708 388.166478 
L 812.384013 392.519028 
L 812.821317 395.065699 
L 813.258621 393.307542 
L 813.695925 392.084099 
L 814.133229 395.064615 
L 814.570533 394.742485 
L 815.007837 392.970227 
L 815.445141 393.433357 
L 815.882445 394.728385 
L 816.319749 390.427895 
L 816.757053 391.820538 
L 817.194357 391.508169 
L 817.631661 393.724033 
L 818.50627 382.105662 
L 818.943574 382.722807 
L 819.380878 383.07856 
L 820.255486 379.882206 
L 820.69279 379.107792 
L 821.130094 381.264002 
L 821.567398 381.04708 
L 822.004702 381.62084 
L 822.442006 384.99507 
L 822.87931 385.736945 
L 823.316614 386.057991 
L 823.753918 388.683838 
L 824.191223 388.982106 
L 824.628527 392.099283 
L 825.065831 387.752156 
L 825.503135 394.918192 
L 825.940439 406.72637 
L 826.815047 440.95024 
L 827.252351 462.186956 
L 828.126959 490.819647 
L 829.001567 529.282183 
L 829.438871 541.570845 
L 829.876176 545.96678 
L 830.31348 545.803003 
L 830.750784 547.677214 
L 831.188088 544.988459 
L 831.625392 546.70974 
L 832.062696 549.219533 
L 832.937304 542.12942 
L 834.68652 533.27898 
L 835.123824 529.16396 
L 835.561129 530.374388 
L 836.435737 524.287541 
L 836.873041 527.520772 
L 837.310345 526.526182 
L 837.747649 521.277741 
L 838.184953 521.834147 
L 838.622257 519.649737 
L 839.496865 512.175671 
L 839.934169 515.510855 
L 840.371473 509.431601 
L 840.808777 511.38065 
L 841.246082 516.766837 
L 841.683386 509.438109 
L 842.12069 504.943474 
L 842.557994 511.101905 
L 842.995298 512.593247 
L 843.432602 516.49243 
L 843.869906 521.72894 
L 844.30721 524.667156 
L 844.744514 520.427405 
L 845.181818 523.979511 
L 845.619122 526.606443 
L 846.056426 521.804863 
L 846.931034 508.612718 
L 847.368339 494.330538 
L 847.805643 464.395228 
L 848.242947 463.305192 
L 849.554859 434.264687 
L 850.429467 378.608871 
L 850.866771 373.811629 
L 851.304075 359.76264 
L 851.741379 353.479479 
L 852.178683 344.394763 
L 852.615987 339.498821 
L 853.053292 333.008499 
L 853.490596 333.680959 
L 853.9279 329.468323 
L 854.365204 335.009609 
L 854.802508 331.413033 
L 855.239812 335.667969 
L 855.677116 323.541999 
L 856.11442 326.924906 
L 856.551724 318.461673 
L 856.989028 315.330396 
L 857.426332 310.446385 
L 857.863636 307.508169 
L 858.30094 307.535285 
L 858.738245 309.966986 
L 859.175549 306.07865 
L 859.612853 305.184929 
L 860.050157 306.425726 
L 860.487461 308.945281 
L 860.924765 307.84223 
L 861.362069 310.284778 
L 861.799373 315.59938 
L 862.673981 315.16662 
L 863.111285 316.283771 
L 863.548589 312.931233 
L 863.985893 310.999538 
L 864.423197 310.835761 
L 864.860502 316.434532 
L 865.297806 317.044084 
L 865.73511 322.101633 
L 866.172414 317.267515 
L 866.609718 314.189384 
L 867.047022 313.38677 
L 867.484326 311.798897 
L 867.92163 317.130853 
L 868.358934 314.103699 
L 868.796238 313.828208 
L 869.233542 313.903046 
L 869.670846 313.643824 
L 870.10815 315.888972 
L 870.982759 312.522334 
L 871.420063 312.127535 
L 871.857367 315.94971 
L 872.294671 313.912807 
L 872.731975 315.561419 
L 873.169279 315.890056 
L 873.606583 319.28381 
L 874.481191 322.764332 
L 874.918495 341.9251 
L 875.355799 352.936088 
L 875.793103 358.418805 
L 876.230408 355.583628 
L 876.667712 356.805986 
L 877.105016 358.541366 
L 877.54232 362.540333 
L 877.979624 362.48068 
L 878.416928 366.685723 
L 878.854232 368.61308 
L 879.291536 366.121725 
L 879.72884 364.335367 
L 880.166144 364.80392 
L 880.603448 366.427585 
L 881.040752 365.607618 
L 881.478056 365.344057 
L 882.352665 367.325645 
L 882.789969 367.924351 
L 883.227273 367.244299 
L 883.664577 363.219301 
L 884.101881 365.85491 
L 884.539185 363.132532 
L 884.976489 363.10867 
L 885.413793 361.832081 
L 886.725705 355.438289 
L 887.163009 350.341694 
L 887.600313 349.398081 
L 888.037618 349.254912 
L 888.912226 344.176756 
L 889.34953 342.788451 
L 889.786834 344.9772 
L 890.661442 346.050966 
L 891.098746 344.251594 
L 891.53605 344.574809 
L 892.410658 348.65946 
L 892.847962 355.227875 
L 893.285266 357.197531 
L 893.722571 357.451331 
L 894.159875 356.003373 
L 894.597179 352.335212 
L 895.034483 353.904647 
L 895.471787 349.45665 
L 895.909091 339.804682 
L 896.346395 342.783028 
L 896.783699 338.044355 
L 897.221003 330.400005 
L 897.658307 333.359913 
L 898.095611 331.173334 
L 898.532915 327.468297 
L 898.970219 318.124359 
L 899.407524 315.716518 
L 899.844828 317.090723 
L 900.282132 315.592873 
L 900.719436 298.655561 
L 901.15674 313.585254 
L 901.594044 318.072297 
L 902.031348 316.784862 
L 902.468652 311.681759 
L 902.905956 313.999576 
L 903.34326 313.256617 
L 903.780564 313.195878 
L 904.217868 310.350939 
L 904.655172 309.087366 
L 905.092476 313.613454 
L 905.529781 314.595029 
L 905.967085 308.874781 
L 906.404389 306.337872 
L 906.841693 310.076532 
L 907.278997 306.234834 
L 907.716301 306.804256 
L 908.153605 304.668653 
L 908.590909 300.956024 
L 909.028213 300.752117 
L 909.465517 300.087249 
L 909.902821 297.681578 
L 910.340125 292.165238 
L 910.777429 294.630563 
L 911.214734 290.721619 
L 911.652038 278.206273 
L 912.089342 279.5859 
L 912.526646 280.225822 
L 912.96395 279.398262 
L 913.401254 273.557623 
L 914.275862 266.415448 
L 914.713166 266.080303 
L 915.15047 261.138807 
L 915.587774 252.317652 
L 916.025078 248.584415 
L 916.462382 243.872858 
L 916.899687 244.513864 
L 917.336991 241.929232 
L 917.774295 233.188338 
L 918.211599 230.271814 
L 918.648903 230.836897 
L 919.086207 230.42366 
L 919.523511 231.729534 
L 919.960815 227.214291 
L 920.398119 227.930135 
L 920.835423 231.221935 
L 921.710031 239.325077 
L 922.147335 247.444487 
L 922.584639 252.115914 
L 923.021944 252.237391 
L 923.459248 252.939135 
L 923.896552 260.203871 
L 924.333856 262.278735 
L 924.77116 266.736493 
L 925.208464 273.570638 
L 925.645768 273.00447 
L 926.083072 273.21597 
L 926.95768 276.580438 
L 927.394984 272.935055 
L 928.269592 262.442512 
L 928.706897 260.608432 
L 929.144201 260.413201 
L 929.581505 259.427288 
L 930.456113 247.093073 
L 930.893417 249.420652 
L 931.768025 232.42477 
L 932.205329 231.700249 
L 933.079937 222.859571 
L 933.517241 226.567862 
L 933.954545 226.407339 
L 933.954545 226.407339 
" style="fill:none;stroke:#ff0000;stroke-linecap:square;stroke-width:1.5;"/>
   </g>
   <g id="line2d_34">
    <path clip-path="url(#p5ca1172df4)" d="M 173.045455 473.682766 
L 174.357367 476.157852 
L 174.794671 477.278257 
L 175.231975 477.57978 
L 175.669279 477.228365 
L 176.106583 478.406255 
L 176.543887 480.028835 
L 177.418495 480.431227 
L 177.855799 479.802151 
L 178.293103 478.935546 
L 178.730408 477.267411 
L 179.167712 475.09927 
L 179.605016 473.580813 
L 180.04232 473.079722 
L 180.479624 473.684936 
L 180.916928 475.241355 
L 183.540752 491.817491 
L 183.978056 494.316438 
L 184.415361 495.796935 
L 184.852665 497.676568 
L 185.289969 498.919535 
L 185.727273 498.051844 
L 186.601881 495.199313 
L 187.039185 492.189513 
L 188.788401 475.655677 
L 189.663009 471.985347 
L 190.100313 471.355187 
L 190.537618 470.425674 
L 190.974922 469.805276 
L 191.84953 467.70655 
L 192.286834 467.793319 
L 192.724138 467.617612 
L 193.161442 464.960311 
L 194.910658 442.484966 
L 195.347962 439.964327 
L 195.785266 440.520733 
L 196.222571 440.372141 
L 196.659875 439.798381 
L 197.097179 439.694258 
L 197.534483 440.864555 
L 197.971787 441.305992 
L 198.409091 441.224647 
L 198.846395 440.475179 
L 199.283699 438.712684 
L 199.721003 438.929606 
L 200.158307 439.795127 
L 200.595611 439.560851 
L 201.032915 437.950201 
L 201.470219 435.900283 
L 201.907524 435.407869 
L 202.344828 434.681178 
L 202.782132 433.504373 
L 203.219436 430.928418 
L 203.65674 426.608406 
L 204.094044 420.905512 
L 204.531348 416.954268 
L 204.968652 416.449923 
L 205.84326 417.647336 
L 206.280564 416.887022 
L 206.717868 415.033419 
L 208.029781 405.210082 
L 208.467085 407.795798 
L 208.904389 415.080057 
L 209.778997 432.299369 
L 210.216301 437.417656 
L 210.653605 439.047829 
L 211.090909 438.120485 
L 211.528213 436.842811 
L 211.965517 433.635611 
L 213.277429 418.608302 
L 213.714734 412.171126 
L 215.901254 372.65977 
L 216.338558 368.756249 
L 216.775862 367.078353 
L 217.213166 366.038209 
L 217.65047 365.533864 
L 218.087774 366.293093 
L 218.525078 368.083789 
L 218.962382 370.682521 
L 219.836991 378.380017 
L 220.274295 382.71413 
L 222.460815 414.81975 
L 223.335423 438.713768 
L 223.772727 446.909102 
L 224.210031 451.520875 
L 224.647335 454.830028 
L 225.084639 456.172779 
L 225.521944 454.87992 
L 225.959248 451.295275 
L 228.583072 420.02806 
L 229.45768 405.283835 
L 229.894984 402.166658 
L 230.769592 405.720934 
L 231.206897 404.315276 
L 231.644201 403.757785 
L 232.081505 403.859739 
L 232.518809 405.69165 
L 232.956113 409.321848 
L 233.830721 419.927191 
L 234.705329 438.65303 
L 235.579937 445.123829 
L 236.017241 446.654218 
L 236.454545 446.618426 
L 236.89185 445.286521 
L 237.329154 443.089096 
L 238.203762 438.055408 
L 238.641066 435.664922 
L 239.515674 429.639898 
L 240.390282 424.647426 
L 240.827586 421.762356 
L 241.26489 417.726512 
L 241.702194 412.286095 
L 242.576803 399.708926 
L 243.451411 387.432195 
L 244.763323 367.109807 
L 245.200627 361.925358 
L 246.075235 353.995755 
L 246.512539 351.58466 
L 246.949843 350.898101 
L 247.824451 345.849229 
L 248.261755 346.696311 
L 248.69906 348.058585 
L 249.136364 346.494573 
L 249.573668 345.638814 
L 250.010972 345.213645 
L 250.448276 345.304753 
L 251.322884 340.966302 
L 252.197492 337.287296 
L 252.634796 335.584454 
L 253.0721 336.440213 
L 253.509404 338.974953 
L 254.384013 342.17673 
L 254.821317 343.669157 
L 255.258621 343.470673 
L 255.695925 342.361114 
L 256.133229 340.337227 
L 257.445141 327.83815 
L 257.882445 324.620104 
L 258.319749 322.743724 
L 258.757053 321.549566 
L 259.631661 318.265358 
L 260.068966 316.11891 
L 260.943574 308.934435 
L 261.380878 303.812894 
L 262.255486 290.544827 
L 262.69279 288.122887 
L 263.130094 286.857144 
L 263.567398 286.474275 
L 264.004702 286.388591 
L 264.442006 287.992733 
L 264.87931 290.496019 
L 265.316614 292.288884 
L 265.753918 292.84529 
L 266.191223 294.088256 
L 267.065831 297.434287 
L 267.503135 298.061193 
L 268.815047 300.915893 
L 269.689655 305.585151 
L 270.126959 307.18387 
L 270.564263 307.111201 
L 271.001567 307.4637 
L 271.438871 309.054827 
L 271.876176 309.748979 
L 272.31348 310.106901 
L 272.750784 310.6427 
L 273.188088 311.900851 
L 273.625392 312.451834 
L 274.062696 310.33467 
L 274.937304 303.208765 
L 275.374608 301.298762 
L 275.811912 301.144747 
L 276.249216 301.659938 
L 276.68652 302.389882 
L 277.123824 305.713135 
L 277.561129 310.006033 
L 277.998433 312.606934 
L 278.435737 314.147084 
L 278.873041 314.113461 
L 279.310345 315.910664 
L 279.747649 316.494186 
L 280.184953 315.64168 
L 280.622257 314.433422 
L 281.059561 314.22843 
L 281.934169 311.713213 
L 282.371473 311.536421 
L 282.808777 311.769613 
L 283.683386 313.549462 
L 284.557994 318.602673 
L 286.30721 335.204839 
L 287.181818 341.516201 
L 287.619122 342.55526 
L 288.056426 342.95982 
L 288.49373 343.694103 
L 289.368339 343.990202 
L 289.805643 344.27654 
L 290.242947 344.852469 
L 290.680251 346.215828 
L 291.992163 348.920852 
L 292.429467 349.001113 
L 292.866771 347.917585 
L 293.304075 348.301538 
L 293.741379 347.91867 
L 294.178683 347.015187 
L 295.490596 345.554214 
L 295.9279 345.710398 
L 296.365204 345.625798 
L 296.802508 346.260297 
L 297.239812 347.767908 
L 297.677116 348.215853 
L 298.551724 346.450104 
L 298.989028 344.599755 
L 299.863636 339.861082 
L 300.738245 337.043258 
L 301.175549 336.546505 
L 301.612853 338.147394 
L 302.487461 342.812313 
L 302.924765 344.722316 
L 303.799373 349.471835 
L 304.673981 352.636735 
L 305.111285 353.027195 
L 305.548589 352.641073 
L 305.985893 352.491397 
L 306.423197 352.131305 
L 306.860502 351.619368 
L 307.297806 352.590096 
L 308.172414 357.4535 
L 308.609718 358.090167 
L 309.484326 360.231193 
L 309.92163 360.601046 
L 310.358934 360.3082 
L 310.796238 358.403621 
L 311.233542 355.936127 
L 311.670846 352.449097 
L 312.545455 343.368719 
L 312.982759 340.492326 
L 313.420063 338.904453 
L 313.857367 339.314437 
L 314.294671 340.416403 
L 314.731975 341.067171 
L 315.169279 340.691895 
L 315.606583 341.002094 
L 316.043887 342.49886 
L 316.481191 345.462022 
L 317.355799 353.983824 
L 318.230408 363.062032 
L 319.54232 373.535052 
L 319.979624 375.409263 
L 320.416928 375.897339 
L 320.854232 375.592563 
L 321.291536 375.487355 
L 321.72884 374.741142 
L 322.166144 374.279097 
L 322.603448 374.330073 
L 323.040752 373.506852 
L 324.352665 369.634785 
L 325.227273 366.246455 
L 325.664577 365.103273 
L 326.101881 363.251839 
L 326.539185 360.902568 
L 326.976489 359.271311 
L 327.413793 358.265875 
L 327.851097 356.723555 
L 328.288401 356.594487 
L 328.725705 356.783209 
L 329.163009 355.979511 
L 329.600313 354.402484 
L 330.037618 351.642145 
L 330.912226 343.146374 
L 331.786834 333.797012 
L 332.224138 331.46401 
L 332.661442 330.283952 
L 333.098746 327.941188 
L 333.53605 324.299059 
L 333.973354 318.859726 
L 334.410658 310.079786 
L 334.847962 304.054763 
L 335.285266 301.674038 
L 335.722571 300.920232 
L 336.159875 301.425661 
L 336.597179 303.385557 
L 337.034483 306.504903 
L 337.909091 317.027815 
L 338.783699 328.569179 
L 340.095611 339.589929 
L 340.532915 342.899082 
L 341.844828 347.188725 
L 342.282132 347.273325 
L 342.719436 345.888275 
L 343.15674 342.38606 
L 346.217868 301.613299 
L 347.092476 297.067688 
L 347.529781 294.589348 
L 347.967085 292.947244 
L 348.404389 291.809485 
L 348.841693 290.106643 
L 349.278997 287.788826 
L 350.590909 277.426436 
L 351.028213 275.501249 
L 351.465517 275.758302 
L 351.902821 277.795204 
L 353.214734 282.083763 
L 353.652038 284.297458 
L 354.089342 285.795308 
L 354.526646 288.905977 
L 355.401254 296.636012 
L 356.713166 305.116598 
L 357.15047 306.707725 
L 357.587774 306.869333 
L 358.025078 305.282544 
L 358.462382 303.086203 
L 358.899687 302.363851 
L 359.336991 298.139285 
L 359.774295 290.107728 
L 360.211599 285.258424 
L 361.086207 280.935158 
L 361.523511 278.987194 
L 361.960815 279.148801 
L 362.398119 279.6423 
L 362.835423 281.816948 
L 363.272727 280.203045 
L 364.584639 269.373187 
L 365.021944 269.100949 
L 365.459248 269.586856 
L 365.896552 269.496833 
L 366.333856 269.885124 
L 366.77116 273.957845 
L 367.645768 287.323527 
L 368.520376 304.374723 
L 368.95768 308.197983 
L 369.394984 309.055912 
L 369.832288 313.757708 
L 371.144201 336.308975 
L 371.581505 347.37094 
L 372.018809 351.941498 
L 372.456113 353.304856 
L 372.893417 356.519648 
L 373.330721 354.948044 
L 374.205329 334.62891 
L 374.642633 328.237287 
L 375.517241 323.041993 
L 375.954545 319.536524 
L 376.39185 319.536524 
L 376.829154 320.641745 
L 377.266458 327.042044 
L 377.703762 342.00753 
L 378.141066 362.868971 
L 379.015674 391.579754 
L 379.452978 404.239353 
L 379.890282 407.687337 
L 380.327586 397.62647 
L 381.639498 377.669596 
L 382.076803 364.081568 
L 382.951411 347.123648 
L 383.388715 342.979343 
L 384.263323 338.141971 
L 384.700627 340.43918 
L 386.012539 366.142332 
L 387.324451 391.553723 
L 388.19906 400.56577 
L 388.636364 402.742588 
L 389.073668 401.120007 
L 389.510972 402.254512 
L 389.948276 408.133113 
L 390.38558 410.848983 
L 390.822884 410.774145 
L 391.260188 411.54422 
L 391.697492 414.342521 
L 392.134796 416.02367 
L 393.009404 415.410864 
L 393.446708 417.126721 
L 393.884013 420.944558 
L 394.321317 426.093215 
L 394.758621 428.454417 
L 396.070533 431.889385 
L 396.507837 435.309169 
L 397.819749 461.987388 
L 398.694357 470.407236 
L 399.568966 487.73067 
L 400.443574 506.315509 
L 401.318182 519.064046 
L 401.755486 522.605307 
L 402.19279 523.599897 
L 402.630094 520.276643 
L 403.942006 503.723284 
L 405.691223 476.10796 
L 406.128527 471.754325 
L 407.440439 467.49722 
L 408.315047 469.474469 
L 409.189655 472.890999 
L 410.501567 481.794585 
L 410.938871 481.123209 
L 411.376176 479.443144 
L 411.81348 480.157904 
L 412.250784 479.316245 
L 412.688088 475.837892 
L 414 459.086049 
L 415.749216 440.700779 
L 416.18652 438.774506 
L 416.623824 440.251749 
L 417.498433 445.849435 
L 417.935737 450.47097 
L 418.810345 461.638142 
L 419.684953 467.496135 
L 420.559561 472.808568 
L 420.996865 477.256565 
L 421.871473 489.73178 
L 423.183386 510.742898 
L 424.057994 521.971893 
L 424.932602 528.866776 
L 425.369906 531.546854 
L 425.80721 533.384188 
L 426.244514 534.7085 
L 426.681818 537.286624 
L 427.556426 543.020972 
L 427.99373 545.323605 
L 428.431034 546.853993 
L 428.868339 546.586094 
L 429.305643 546.102356 
L 430.180251 543.353948 
L 430.617555 543.407094 
L 431.054859 545.103428 
L 432.804075 556.764099 
L 433.241379 557.306406 
L 433.678683 556.610084 
L 434.115987 554.681643 
L 434.990596 547.354 
L 435.865204 536.606572 
L 436.739812 525.879753 
L 437.177116 521.189887 
L 437.61442 517.789626 
L 438.489028 513.988059 
L 438.926332 513.177853 
L 439.363636 514.26572 
L 439.80094 516.581368 
L 440.675549 523.058675 
L 441.550157 525.174754 
L 441.987461 523.984934 
L 442.424765 519.539107 
L 442.862069 513.041192 
L 444.611285 479.590652 
L 445.485893 468.329118 
L 448.109718 441.109678 
L 449.42163 419.596385 
L 450.733542 398.847744 
L 452.482759 377.298658 
L 453.357367 361.592382 
L 453.794671 357.69103 
L 454.231975 356.228972 
L 454.669279 354.074931 
L 455.543887 343.790634 
L 456.418495 328.173295 
L 456.855799 323.148285 
L 458.167712 313.228417 
L 458.605016 314.819544 
L 459.04232 315.947541 
L 459.479624 314.688306 
L 459.916928 311.452906 
L 460.354232 307.329208 
L 462.103448 285.935223 
L 462.978056 280.299575 
L 463.415361 275.313611 
L 463.852665 268.559727 
L 465.164577 240.160228 
L 466.039185 220.118755 
L 466.476489 216.041696 
L 466.913793 214.999383 
L 467.788401 211.473307 
L 468.663009 210.949439 
L 469.100313 212.025375 
L 469.537618 214.301977 
L 469.974922 215.55362 
L 470.412226 215.508066 
L 470.84953 214.554692 
L 471.286834 212.199997 
L 471.724138 209.188028 
L 472.161442 207.349609 
L 472.598746 206.932034 
L 473.03605 205.465637 
L 473.473354 203.072982 
L 473.910658 202.093576 
L 474.347962 202.694452 
L 474.785266 204.767147 
L 476.097179 214.354038 
L 476.971787 219.834586 
L 478.283699 229.752285 
L 479.158307 237.566919 
L 480.032915 244.952047 
L 480.470219 246.435797 
L 480.907524 245.619084 
L 481.344828 241.835955 
L 481.782132 234.34345 
L 482.65674 212.68265 
L 485.280564 138.260865 
L 486.155172 120.948277 
L 486.592476 116.796379 
L 487.467085 112.643397 
L 487.904389 111.6 
L 488.341693 112.526259 
L 488.778997 114.314786 
L 489.216301 117.630447 
L 490.090909 127.0156 
L 490.965517 140.511436 
L 493.152038 176.552032 
L 494.46395 203.46995 
L 496.65047 251.667969 
L 497.525078 262.277651 
L 498.399687 270.515284 
L 498.836991 271.612912 
L 499.274295 270.69316 
L 499.711599 267.705052 
L 500.586207 258.234214 
L 501.460815 244.511694 
L 502.335423 230.973559 
L 502.772727 224.624236 
L 503.210031 219.914848 
L 504.084639 214.336684 
L 504.959248 205.418999 
L 505.396552 203.548042 
L 506.27116 201.415693 
L 506.708464 201.293132 
L 507.145768 202.398352 
L 508.45768 210.82037 
L 508.894984 215.782473 
L 509.769592 231.775087 
L 511.081505 263.852508 
L 512.830721 312.878087 
L 515.017241 374.92878 
L 515.89185 391.112286 
L 516.329154 396.35205 
L 517.641066 406.34784 
L 519.827586 421.57038 
L 523.326019 449.402626 
L 524.200627 451.678144 
L 524.637931 451.975328 
L 525.075235 451.04473 
L 525.512539 449.451434 
L 525.949843 448.323437 
L 526.387147 446.655302 
L 526.824451 443.563072 
L 527.261755 442.420974 
L 527.69906 441.630292 
L 528.136364 439.589051 
L 528.573668 439.02939 
L 529.010972 439.341759 
L 529.448276 438.86236 
L 529.88558 437.673625 
L 530.322884 435.579237 
L 530.760188 432.508699 
L 531.197492 427.715795 
L 531.634796 420.574705 
L 532.509404 399.989841 
L 534.258621 353.490325 
L 534.695925 345.965282 
L 535.570533 336.174483 
L 536.007837 334.272073 
L 536.445141 332.940168 
L 536.882445 332.63973 
L 537.319749 330.900012 
L 538.194357 323.305553 
L 538.631661 317.554937 
L 539.943574 288.794262 
L 540.818182 267.262531 
L 541.255486 261.685452 
L 541.69279 258.726629 
L 542.130094 259.053097 
L 542.567398 263.556409 
L 544.753918 292.224892 
L 545.191223 296.859442 
L 546.065831 304.376893 
L 546.503135 308.679551 
L 546.940439 311.807574 
L 547.377743 313.131886 
L 547.815047 310.841184 
L 548.689655 299.987465 
L 550.876176 267.046693 
L 551.31348 265.899172 
L 551.750784 266.429548 
L 552.188088 267.759283 
L 552.625392 267.859067 
L 553.062696 268.761465 
L 553.5 270.015278 
L 553.937304 270.507692 
L 554.811912 276.853761 
L 555.249216 280.557713 
L 556.123824 291.38974 
L 556.998433 303.598141 
L 557.873041 314.972474 
L 558.310345 318.63738 
L 559.622257 324.801234 
L 560.059561 325.773047 
L 560.934169 319.217648 
L 561.371473 318.087482 
L 561.808777 315.76858 
L 562.246082 314.397629 
L 562.683386 315.637342 
L 563.12069 318.153643 
L 563.557994 322.001849 
L 563.995298 327.79585 
L 564.432602 337.651726 
L 567.49373 436.956696 
L 568.805643 466.275946 
L 570.117555 490.733963 
L 570.554859 497.144024 
L 570.992163 500.914137 
L 571.866771 503.851269 
L 572.304075 503.888145 
L 572.741379 501.98465 
L 573.178683 501.496574 
L 573.615987 499.755771 
L 574.9279 492.031159 
L 575.365204 490.06801 
L 575.802508 490.188402 
L 576.239812 492.752427 
L 578.426332 511.606249 
L 579.30094 521.399218 
L 579.738245 524.250664 
L 580.612853 527.117296 
L 581.050157 528.381954 
L 582.362069 530.85704 
L 583.236677 530.999125 
L 583.673981 531.264855 
L 584.548589 529.096714 
L 584.985893 528.853761 
L 585.423197 528.872199 
L 585.860502 528.702999 
L 586.297806 529.665051 
L 587.172414 532.392852 
L 587.609718 534.327801 
L 588.047022 535.539313 
L 588.484326 535.162953 
L 589.358934 532.37116 
L 589.796238 529.522967 
L 590.670846 520.629143 
L 592.420063 500.479208 
L 593.731975 481.613454 
L 595.481191 454.384252 
L 595.918495 446.474172 
L 597.230408 428.953338 
L 598.54232 409.132041 
L 599.416928 398.593944 
L 600.291536 386.042806 
L 601.166144 378.351817 
L 602.915361 353.777747 
L 603.789969 337.144127 
L 604.227273 331.558372 
L 604.664577 328.401064 
L 605.101881 328.126657 
L 605.539185 329.397823 
L 606.413793 336.246068 
L 606.851097 336.526982 
L 607.725705 333.265552 
L 609.037618 323.153708 
L 609.474922 322.051741 
L 610.34953 318.104836 
L 610.786834 320.111369 
L 611.224138 319.572317 
L 611.661442 319.219817 
L 612.098746 321.940026 
L 612.53605 329.137516 
L 613.847962 341.368693 
L 614.722571 361.974166 
L 615.159875 368.580542 
L 615.597179 370.288807 
L 616.034483 369.600077 
L 616.471787 362.038158 
L 617.783699 326.372838 
L 619.532915 256.582349 
L 620.407524 239.201431 
L 621.282132 219.899663 
L 622.594044 183.425222 
L 623.468652 173.637677 
L 624.34326 159.260051 
L 624.780564 155.891244 
L 625.217868 154.39231 
L 625.655172 154.148272 
L 626.092476 154.547409 
L 626.967085 160.569179 
L 627.841693 171.863251 
L 628.716301 184.492481 
L 629.153605 188.411187 
L 629.590909 193.337498 
L 630.465517 209.080651 
L 630.902821 214.618684 
L 631.340125 222.955017 
L 632.214734 246.795889 
L 633.089342 270.586868 
L 633.96395 289.665206 
L 634.401254 295.886544 
L 635.275862 301.657769 
L 635.713166 301.705491 
L 636.15047 299.360559 
L 636.587774 294.598024 
L 637.462382 280.69112 
L 638.336991 260.539016 
L 639.648903 230.610213 
L 640.086207 222.597095 
L 640.960815 210.90497 
L 642.272727 187.369959 
L 643.147335 174.382806 
L 643.584639 169.59641 
L 644.021944 168.368629 
L 644.459248 168.972758 
L 644.896552 168.734143 
L 645.333856 169.740664 
L 646.208464 172.639834 
L 646.645768 173.60297 
L 647.520376 177.326445 
L 647.95768 178.988072 
L 648.394984 179.284171 
L 648.832288 181.497866 
L 649.269592 185.233272 
L 651.018809 215.546028 
L 651.456113 219.252149 
L 651.893417 218.110052 
L 652.768025 215.221728 
L 653.205329 214.681591 
L 653.642633 211.887629 
L 654.079937 213.290033 
L 654.954545 237.973649 
L 655.39185 250.542141 
L 656.266458 266.554278 
L 656.703762 270.86236 
L 657.141066 273.633546 
L 658.015674 275.042457 
L 658.452978 273.302739 
L 658.890282 270.534807 
L 659.327586 269.516356 
L 659.76489 269.82547 
L 660.202194 271.206182 
L 660.639498 271.424189 
L 661.514107 271.298374 
L 662.388715 274.373251 
L 664.575235 285.34194 
L 665.449843 288.997084 
L 665.887147 292.677175 
L 667.19906 308.042884 
L 667.636364 313.973546 
L 668.073668 317.474676 
L 668.510972 322.800124 
L 670.697492 362.072865 
L 672.446708 383.471189 
L 673.321317 390.942002 
L 673.758621 391.991907 
L 674.195925 390.640479 
L 674.633229 386.905073 
L 675.945141 369.6478 
L 676.819749 354.661707 
L 677.257053 349.939303 
L 677.694357 347.409986 
L 678.131661 343.836187 
L 678.568966 339.309014 
L 679.00627 336.035653 
L 679.443574 334.579018 
L 679.880878 328.990009 
L 680.318182 321.023528 
L 680.755486 325.803417 
L 682.942006 357.010978 
L 683.816614 366.054479 
L 684.253918 368.956902 
L 684.691223 369.246494 
L 685.128527 368.561019 
L 686.003135 366.369016 
L 686.440439 365.301757 
L 686.877743 363.490454 
L 689.064263 348.432776 
L 690.376176 335.546492 
L 690.81348 332.282893 
L 691.250784 330.454236 
L 691.688088 329.557261 
L 692.125392 330.581135 
L 692.562696 331.287218 
L 693 331.291557 
L 693.437304 331.459672 
L 693.874608 330.298052 
L 694.311912 328.722109 
L 694.749216 328.935778 
L 695.623824 328.619071 
L 696.061129 329.633184 
L 696.498433 333.204814 
L 697.810345 349.197428 
L 698.247649 352.049959 
L 698.684953 352.035859 
L 699.122257 351.296153 
L 699.996865 346.892626 
L 700.434169 346.046628 
L 700.871473 345.554214 
L 701.308777 344.562878 
L 701.746082 342.029223 
L 702.183386 337.894679 
L 703.057994 331.819763 
L 703.495298 329.741645 
L 703.932602 328.703671 
L 704.369906 330.892419 
L 705.244514 338.145224 
L 705.681818 341.908831 
L 706.556426 345.849229 
L 706.99373 346.951195 
L 707.431034 345.995651 
L 708.305643 343.746164 
L 708.742947 344.393678 
L 709.180251 346.39045 
L 710.492163 350.362302 
L 710.929467 349.957741 
L 711.366771 348.21043 
L 711.804075 346.937095 
L 712.241379 344.941408 
L 712.678683 343.712541 
L 713.115987 340.950033 
L 713.990596 331.973778 
L 714.865204 327.29259 
L 715.302508 326.256785 
L 715.739812 327.945527 
L 716.177116 328.004096 
L 716.61442 326.036608 
L 717.051724 325.270872 
L 717.489028 324.110336 
L 717.926332 320.911813 
L 718.363636 319.040856 
L 718.80094 321.177543 
L 719.238245 325.038765 
L 719.675549 325.703632 
L 720.112853 326.581084 
L 720.987461 329.965075 
L 721.424765 329.393485 
L 721.862069 328.283926 
L 722.736677 325.19061 
L 723.611285 317.682921 
L 724.048589 313.34664 
L 724.923197 301.715253 
L 725.360502 297.992862 
L 725.797806 296.51562 
L 726.23511 295.785675 
L 726.672414 294.565486 
L 727.109718 293.981964 
L 727.547022 295.553568 
L 727.984326 299.514574 
L 728.858934 311.647052 
L 729.296238 314.797851 
L 730.60815 328.422756 
L 731.045455 326.497569 
L 731.482759 327.514935 
L 731.920063 329.256823 
L 732.357367 330.270936 
L 732.794671 328.839247 
L 733.231975 329.007362 
L 734.106583 331.333857 
L 734.543887 335.130001 
L 734.981191 340.55198 
L 735.418495 342.444629 
L 735.855799 341.802539 
L 736.293103 342.166968 
L 737.167712 345.277638 
L 737.605016 346.440342 
L 738.04232 349.537996 
L 738.479624 350.207202 
L 738.916928 345.505406 
L 739.354232 343.715795 
L 739.791536 345.670267 
L 740.22884 344.482616 
L 740.666144 338.183186 
L 741.540752 329.930368 
L 742.415361 316.913931 
L 743.289969 322.885808 
L 743.727273 322.132003 
L 744.164577 320.818537 
L 744.601881 319.87167 
L 745.039185 316.431278 
L 745.476489 308.376944 
L 745.913793 303.382303 
L 746.351097 301.320454 
L 746.788401 300.32261 
L 748.100313 311.703451 
L 748.537618 314.883536 
L 749.412226 327.892381 
L 749.84953 328.824063 
L 750.286834 324.052852 
L 750.724138 320.744783 
L 751.161442 318.495296 
L 751.598746 313.837969 
L 752.03605 310.927953 
L 752.473354 311.464837 
L 752.910658 308.322714 
L 754.222571 282.014348 
L 754.659875 276.833153 
L 755.097179 274.296244 
L 755.971787 281.011081 
L 756.409091 285.202025 
L 756.846395 290.722703 
L 757.721003 305.516821 
L 758.158307 310.347686 
L 758.595611 313.664431 
L 759.032915 314.192638 
L 759.470219 308.911658 
L 760.344828 292.481945 
L 760.782132 287.715072 
L 761.219436 288.824631 
L 762.094044 292.421207 
L 762.531348 292.307322 
L 762.968652 290.005774 
L 763.405956 290.857195 
L 763.84326 292.547022 
L 764.280564 290.978672 
L 765.155172 286.420045 
L 765.592476 281.799595 
L 766.029781 280.754028 
L 766.467085 283.063168 
L 766.904389 284.021966 
L 767.341693 281.940594 
L 767.778997 278.282196 
L 768.216301 277.19216 
L 768.653605 276.499092 
L 769.090909 273.614022 
L 769.528213 268.078159 
L 769.965517 265.083544 
L 770.402821 264.630175 
L 771.277429 262.707157 
L 771.714734 264.990267 
L 772.152038 268.373174 
L 772.589342 269.321125 
L 773.026646 269.804863 
L 773.46395 268.315689 
L 774.338558 262.876357 
L 774.775862 263.681139 
L 776.087774 276.511023 
L 776.525078 279.703038 
L 776.962382 281.080496 
L 777.399687 281.020843 
L 777.836991 280.513244 
L 778.711599 282.151009 
L 779.148903 281.456857 
L 779.586207 282.220424 
L 780.460815 285.213955 
L 780.898119 287.074066 
L 781.335423 290.053497 
L 782.210031 297.856201 
L 782.647335 300.29441 
L 783.084639 301.298762 
L 783.521944 300.659925 
L 783.959248 297.98527 
L 784.396552 297.285695 
L 785.708464 305.837866 
L 786.145768 307.433331 
L 786.583072 309.451795 
L 787.020376 309.786941 
L 787.45768 308.048307 
L 787.894984 307.167601 
L 788.332288 307.431162 
L 789.206897 304.752169 
L 789.644201 304.643707 
L 790.081505 305.218552 
L 790.518809 306.162165 
L 791.393417 311.647052 
L 791.830721 312.657911 
L 792.705329 311.213206 
L 793.142633 311.985451 
L 794.017241 316.752324 
L 794.454545 319.932408 
L 794.89185 324.469343 
L 796.203762 340.738533 
L 797.515674 352.644327 
L 798.390282 359.392787 
L 799.26489 369.572962 
L 799.702194 372.827885 
L 800.139498 371.901626 
L 801.451411 358.507743 
L 802.326019 350.754932 
L 802.763323 348.394815 
L 803.200627 347.609555 
L 803.637931 346.161597 
L 804.512539 342.409922 
L 804.949843 341.568262 
L 805.387147 341.690823 
L 805.824451 341.573685 
L 806.261755 342.728798 
L 807.136364 347.036879 
L 807.573668 348.85686 
L 808.010972 349.362289 
L 808.448276 351.672514 
L 809.760188 361.52839 
L 811.509404 384.357318 
L 812.384013 392.116637 
L 812.821317 394.101478 
L 813.258621 394.536408 
L 813.695925 395.260929 
L 814.570533 399.064666 
L 815.445141 403.916139 
L 815.882445 407.489938 
L 816.757053 420.915274 
L 817.631661 433.839519 
L 818.50627 442.350475 
L 818.943574 444.915584 
L 819.380878 445.853774 
L 819.818182 444.991506 
L 820.255486 443.73661 
L 820.69279 442.862412 
L 821.130094 441.249593 
L 822.87931 423.958697 
L 824.191223 409.463933 
L 825.503135 399.173127 
L 825.940439 397.097179 
L 826.377743 396.326019 
L 826.815047 396.191527 
L 827.252351 395.231645 
L 827.689655 395.087391 
L 828.126959 396.090658 
L 829.438871 400.795708 
L 829.876176 401.57446 
L 830.31348 401.539752 
L 831.625392 398.311945 
L 832.937304 396.878087 
L 833.811912 397.277224 
L 834.249216 398.015846 
L 835.123824 403.421555 
L 835.561129 404.780575 
L 835.998433 405.488827 
L 836.435737 406.575609 
L 836.873041 406.72637 
L 837.747649 404.940013 
L 838.184953 403.678609 
L 839.059561 400.244725 
L 839.496865 399.238204 
L 839.934169 397.516924 
L 840.371473 393.589541 
L 841.246082 384.114365 
L 842.557994 374.993856 
L 842.995298 373.432014 
L 843.432602 373.563252 
L 843.869906 374.095797 
L 844.30721 375.410348 
L 845.619122 383.255351 
L 846.49373 389.08406 
L 847.368339 392.445275 
L 847.805643 398.180707 
L 848.242947 409.716648 
L 848.680251 427.235312 
L 849.554859 476.133991 
L 851.741379 600.267915 
L 852.178683 611.757217 
L 852.615987 615.6 
L 853.053292 613.711689 
L 853.490596 606.2181 
L 853.9279 595.856795 
L 854.802508 566.999589 
L 856.551724 501.995496 
L 857.426332 478.057009 
L 858.30094 463.419076 
L 858.738245 459.297548 
L 859.175549 458.45155 
L 859.612853 458.012282 
L 860.050157 458.007943 
L 860.924765 460.206453 
L 861.362069 460.054608 
L 861.799373 460.53726 
L 862.236677 460.758521 
L 862.673981 460.755267 
L 863.548589 464.783519 
L 863.985893 464.113228 
L 864.423197 464.649027 
L 864.860502 467.012398 
L 865.297806 470.295521 
L 865.73511 475.125301 
L 866.609718 486.352127 
L 867.92163 496.071342 
L 868.358934 495.168944 
L 868.796238 490.877131 
L 869.233542 482.25663 
L 869.670846 466.441892 
L 870.545455 427.216873 
L 871.857367 373.641344 
L 873.169279 297.300879 
L 874.043887 261.312345 
L 874.481191 250.495503 
L 874.918495 244.738379 
L 875.355799 243.430336 
L 875.793103 247.158149 
L 876.230408 254.607269 
L 877.105016 279.76703 
L 877.979624 304.527654 
L 878.416928 314.12973 
L 878.854232 319.644986 
L 879.291536 322.750232 
L 879.72884 323.135269 
L 880.166144 322.609232 
L 880.603448 322.639601 
L 881.040752 322.82507 
L 881.915361 321.487743 
L 882.352665 321.74588 
L 882.789969 322.998608 
L 883.227273 323.709029 
L 883.664577 325.895609 
L 884.101881 329.306716 
L 884.976489 333.28399 
L 885.413793 333.936927 
L 885.851097 333.277483 
L 886.288401 331.355549 
L 886.725705 330.197183 
L 887.163009 330.213452 
L 887.600313 329.690668 
L 888.037618 329.697176 
L 888.474922 328.505187 
L 888.912226 326.309931 
L 889.34953 323.2177 
L 889.786834 321.079928 
L 890.224138 320.386861 
L 891.53605 316.437786 
L 891.973354 315.791357 
L 892.410658 315.805457 
L 892.847962 315.226273 
L 893.285266 315.080935 
L 893.722571 316.097217 
L 895.471787 325.969362 
L 896.346395 332.695046 
L 896.783699 339.459775 
L 898.095611 379.664199 
L 898.532915 387.566687 
L 899.407524 396.790233 
L 899.844828 399.118897 
L 900.719436 399.815218 
L 901.15674 397.96053 
L 901.594044 393.444203 
L 902.468652 382.070954 
L 903.780564 368.243227 
L 904.217868 365.452518 
L 905.092476 361.922104 
L 908.590909 344.297148 
L 909.028213 341.781931 
L 909.902821 334.36318 
L 911.652038 323.310977 
L 912.089342 322.750232 
L 912.526646 322.991016 
L 912.96395 323.513799 
L 913.401254 324.656981 
L 913.838558 326.418392 
L 914.275862 329.677653 
L 914.713166 334.581187 
L 915.587774 347.188725 
L 916.025078 351.61286 
L 916.462382 353.27991 
L 916.899687 353.09878 
L 917.336991 351.51633 
L 917.774295 346.682211 
L 918.211599 339.897959 
L 918.648903 335.029132 
L 919.523511 322.203587 
L 920.398119 314.539714 
L 921.710031 295.975483 
L 922.147335 293.058959 
L 923.021944 282.610885 
L 923.459248 286.424383 
L 924.333856 298.211954 
L 925.645768 310.914938 
L 926.083072 313.583085 
L 926.95768 316.922608 
L 927.394984 319.616786 
L 927.832288 321.028951 
L 929.144201 316.245809 
L 930.018809 311.187176 
L 932.642633 286.599006 
L 933.079937 284.698764 
L 933.517241 280.096753 
L 933.954545 273.884091 
L 933.954545 273.884091 
" style="fill:none;stroke:#0000ff;stroke-linecap:square;stroke-width:1.5;"/>
   </g>
   <g id="patch_3">
    <path d="M 135 640.8 
L 135 86.4 
" style="fill:none;stroke:#000000;stroke-linecap:square;stroke-linejoin:miter;stroke-width:0.8;"/>
   </g>
   <g id="patch_4">
    <path d="M 972 640.8 
L 972 86.4 
" style="fill:none;stroke:#000000;stroke-linecap:square;stroke-linejoin:miter;stroke-width:0.8;"/>
   </g>
   <g id="patch_5">
    <path d="M 135 640.8 
L 972 640.8 
" style="fill:none;stroke:#000000;stroke-linecap:square;stroke-linejoin:miter;stroke-width:0.8;"/>
   </g>
   <g id="patch_6">
    <path d="M 135 86.4 
L 972 86.4 
" style="fill:none;stroke:#000000;stroke-linecap:square;stroke-linejoin:miter;stroke-width:0.8;"/>
   </g>
   <g id="text_17">
    <!-- Evaluation Preds N:50 -->
    <defs>
     <path d="M 9.8125 72.90625 
L 55.90625 72.90625 
L 55.90625 64.59375 
L 19.671875 64.59375 
L 19.671875 43.015625 
L 54.390625 43.015625 
L 54.390625 34.71875 
L 19.671875 34.71875 
L 19.671875 8.296875 
L 56.78125 8.296875 
L 56.78125 0 
L 9.8125 0 
z
" id="DejaVuSans-69"/>
     <path d="M 2.984375 54.6875 
L 12.5 54.6875 
L 29.59375 8.796875 
L 46.6875 54.6875 
L 56.203125 54.6875 
L 35.6875 0 
L 23.484375 0 
z
" id="DejaVuSans-118"/>
     <path d="M 34.28125 27.484375 
Q 23.390625 27.484375 19.1875 25 
Q 14.984375 22.515625 14.984375 16.5 
Q 14.984375 11.71875 18.140625 8.90625 
Q 21.296875 6.109375 26.703125 6.109375 
Q 34.1875 6.109375 38.703125 11.40625 
Q 43.21875 16.703125 43.21875 25.484375 
L 43.21875 27.484375 
z
M 52.203125 31.203125 
L 52.203125 0 
L 43.21875 0 
L 43.21875 8.296875 
Q 40.140625 3.328125 35.546875 0.953125 
Q 30.953125 -1.421875 24.3125 -1.421875 
Q 15.921875 -1.421875 10.953125 3.296875 
Q 6 8.015625 6 15.921875 
Q 6 25.140625 12.171875 29.828125 
Q 18.359375 34.515625 30.609375 34.515625 
L 43.21875 34.515625 
L 43.21875 35.40625 
Q 43.21875 41.609375 39.140625 45 
Q 35.0625 48.390625 27.6875 48.390625 
Q 23 48.390625 18.546875 47.265625 
Q 14.109375 46.140625 10.015625 43.890625 
L 10.015625 52.203125 
Q 14.9375 54.109375 19.578125 55.046875 
Q 24.21875 56 28.609375 56 
Q 40.484375 56 46.34375 49.84375 
Q 52.203125 43.703125 52.203125 31.203125 
z
" id="DejaVuSans-97"/>
     <path d="M 9.421875 75.984375 
L 18.40625 75.984375 
L 18.40625 0 
L 9.421875 0 
z
" id="DejaVuSans-108"/>
     <path d="M 8.5 21.578125 
L 8.5 54.6875 
L 17.484375 54.6875 
L 17.484375 21.921875 
Q 17.484375 14.15625 20.5 10.265625 
Q 23.53125 6.390625 29.59375 6.390625 
Q 36.859375 6.390625 41.078125 11.03125 
Q 45.3125 15.671875 45.3125 23.6875 
L 45.3125 54.6875 
L 54.296875 54.6875 
L 54.296875 0 
L 45.3125 0 
L 45.3125 8.40625 
Q 42.046875 3.421875 37.71875 1 
Q 33.40625 -1.421875 27.6875 -1.421875 
Q 18.265625 -1.421875 13.375 4.4375 
Q 8.5 10.296875 8.5 21.578125 
z
M 31.109375 56 
z
" id="DejaVuSans-117"/>
     <path d="M 18.3125 70.21875 
L 18.3125 54.6875 
L 36.8125 54.6875 
L 36.8125 47.703125 
L 18.3125 47.703125 
L 18.3125 18.015625 
Q 18.3125 11.328125 20.140625 9.421875 
Q 21.96875 7.515625 27.59375 7.515625 
L 36.8125 7.515625 
L 36.8125 0 
L 27.59375 0 
Q 17.1875 0 13.234375 3.875 
Q 9.28125 7.765625 9.28125 18.015625 
L 9.28125 47.703125 
L 2.6875 47.703125 
L 2.6875 54.6875 
L 9.28125 54.6875 
L 9.28125 70.21875 
z
" id="DejaVuSans-116"/>
     <path d="M 9.421875 54.6875 
L 18.40625 54.6875 
L 18.40625 0 
L 9.421875 0 
z
M 9.421875 75.984375 
L 18.40625 75.984375 
L 18.40625 64.59375 
L 9.421875 64.59375 
z
" id="DejaVuSans-105"/>
     <path d="M 30.609375 48.390625 
Q 23.390625 48.390625 19.1875 42.75 
Q 14.984375 37.109375 14.984375 27.296875 
Q 14.984375 17.484375 19.15625 11.84375 
Q 23.34375 6.203125 30.609375 6.203125 
Q 37.796875 6.203125 41.984375 11.859375 
Q 46.1875 17.53125 46.1875 27.296875 
Q 46.1875 37.015625 41.984375 42.703125 
Q 37.796875 48.390625 30.609375 48.390625 
z
M 30.609375 56 
Q 42.328125 56 49.015625 48.375 
Q 55.71875 40.765625 55.71875 27.296875 
Q 55.71875 13.875 49.015625 6.21875 
Q 42.328125 -1.421875 30.609375 -1.421875 
Q 18.84375 -1.421875 12.171875 6.21875 
Q 5.515625 13.875 5.515625 27.296875 
Q 5.515625 40.765625 12.171875 48.375 
Q 18.84375 56 30.609375 56 
z
" id="DejaVuSans-111"/>
     <path d="M 54.890625 33.015625 
L 54.890625 0 
L 45.90625 0 
L 45.90625 32.71875 
Q 45.90625 40.484375 42.875 44.328125 
Q 39.84375 48.1875 33.796875 48.1875 
Q 26.515625 48.1875 22.3125 43.546875 
Q 18.109375 38.921875 18.109375 30.90625 
L 18.109375 0 
L 9.078125 0 
L 9.078125 54.6875 
L 18.109375 54.6875 
L 18.109375 46.1875 
Q 21.34375 51.125 25.703125 53.5625 
Q 30.078125 56 35.796875 56 
Q 45.21875 56 50.046875 50.171875 
Q 54.890625 44.34375 54.890625 33.015625 
z
" id="DejaVuSans-110"/>
     <path id="DejaVuSans-32"/>
     <path d="M 19.671875 64.796875 
L 19.671875 37.40625 
L 32.078125 37.40625 
Q 38.96875 37.40625 42.71875 40.96875 
Q 46.484375 44.53125 46.484375 51.125 
Q 46.484375 57.671875 42.71875 61.234375 
Q 38.96875 64.796875 32.078125 64.796875 
z
M 9.8125 72.90625 
L 32.078125 72.90625 
Q 44.34375 72.90625 50.609375 67.359375 
Q 56.890625 61.8125 56.890625 51.125 
Q 56.890625 40.328125 50.609375 34.8125 
Q 44.34375 29.296875 32.078125 29.296875 
L 19.671875 29.296875 
L 19.671875 0 
L 9.8125 0 
z
" id="DejaVuSans-80"/>
     <path d="M 41.109375 46.296875 
Q 39.59375 47.171875 37.8125 47.578125 
Q 36.03125 48 33.890625 48 
Q 26.265625 48 22.1875 43.046875 
Q 18.109375 38.09375 18.109375 28.8125 
L 18.109375 0 
L 9.078125 0 
L 9.078125 54.6875 
L 18.109375 54.6875 
L 18.109375 46.1875 
Q 20.953125 51.171875 25.484375 53.578125 
Q 30.03125 56 36.53125 56 
Q 37.453125 56 38.578125 55.875 
Q 39.703125 55.765625 41.0625 55.515625 
z
" id="DejaVuSans-114"/>
     <path d="M 56.203125 29.59375 
L 56.203125 25.203125 
L 14.890625 25.203125 
Q 15.484375 15.921875 20.484375 11.0625 
Q 25.484375 6.203125 34.421875 6.203125 
Q 39.59375 6.203125 44.453125 7.46875 
Q 49.3125 8.734375 54.109375 11.28125 
L 54.109375 2.78125 
Q 49.265625 0.734375 44.1875 -0.34375 
Q 39.109375 -1.421875 33.890625 -1.421875 
Q 20.796875 -1.421875 13.15625 6.1875 
Q 5.515625 13.8125 5.515625 26.8125 
Q 5.515625 40.234375 12.765625 48.109375 
Q 20.015625 56 32.328125 56 
Q 43.359375 56 49.78125 48.890625 
Q 56.203125 41.796875 56.203125 29.59375 
z
M 47.21875 32.234375 
Q 47.125 39.59375 43.09375 43.984375 
Q 39.0625 48.390625 32.421875 48.390625 
Q 24.90625 48.390625 20.390625 44.140625 
Q 15.875 39.890625 15.1875 32.171875 
z
" id="DejaVuSans-101"/>
     <path d="M 45.40625 46.390625 
L 45.40625 75.984375 
L 54.390625 75.984375 
L 54.390625 0 
L 45.40625 0 
L 45.40625 8.203125 
Q 42.578125 3.328125 38.25 0.953125 
Q 33.9375 -1.421875 27.875 -1.421875 
Q 17.96875 -1.421875 11.734375 6.484375 
Q 5.515625 14.40625 5.515625 27.296875 
Q 5.515625 40.1875 11.734375 48.09375 
Q 17.96875 56 27.875 56 
Q 33.9375 56 38.25 53.625 
Q 42.578125 51.265625 45.40625 46.390625 
z
M 14.796875 27.296875 
Q 14.796875 17.390625 18.875 11.75 
Q 22.953125 6.109375 30.078125 6.109375 
Q 37.203125 6.109375 41.296875 11.75 
Q 45.40625 17.390625 45.40625 27.296875 
Q 45.40625 37.203125 41.296875 42.84375 
Q 37.203125 48.484375 30.078125 48.484375 
Q 22.953125 48.484375 18.875 42.84375 
Q 14.796875 37.203125 14.796875 27.296875 
z
" id="DejaVuSans-100"/>
     <path d="M 44.28125 53.078125 
L 44.28125 44.578125 
Q 40.484375 46.53125 36.375 47.5 
Q 32.28125 48.484375 27.875 48.484375 
Q 21.1875 48.484375 17.84375 46.4375 
Q 14.5 44.390625 14.5 40.28125 
Q 14.5 37.15625 16.890625 35.375 
Q 19.28125 33.59375 26.515625 31.984375 
L 29.59375 31.296875 
Q 39.15625 29.25 43.1875 25.515625 
Q 47.21875 21.78125 47.21875 15.09375 
Q 47.21875 7.46875 41.1875 3.015625 
Q 35.15625 -1.421875 24.609375 -1.421875 
Q 20.21875 -1.421875 15.453125 -0.5625 
Q 10.6875 0.296875 5.421875 2 
L 5.421875 11.28125 
Q 10.40625 8.6875 15.234375 7.390625 
Q 20.0625 6.109375 24.8125 6.109375 
Q 31.15625 6.109375 34.5625 8.28125 
Q 37.984375 10.453125 37.984375 14.40625 
Q 37.984375 18.0625 35.515625 20.015625 
Q 33.0625 21.96875 24.703125 23.78125 
L 21.578125 24.515625 
Q 13.234375 26.265625 9.515625 29.90625 
Q 5.8125 33.546875 5.8125 39.890625 
Q 5.8125 47.609375 11.28125 51.796875 
Q 16.75 56 26.8125 56 
Q 31.78125 56 36.171875 55.265625 
Q 40.578125 54.546875 44.28125 53.078125 
z
" id="DejaVuSans-115"/>
     <path d="M 9.8125 72.90625 
L 23.09375 72.90625 
L 55.421875 11.921875 
L 55.421875 72.90625 
L 64.984375 72.90625 
L 64.984375 0 
L 51.703125 0 
L 19.390625 60.984375 
L 19.390625 0 
L 9.8125 0 
z
" id="DejaVuSans-78"/>
     <path d="M 11.71875 12.40625 
L 22.015625 12.40625 
L 22.015625 0 
L 11.71875 0 
z
M 11.71875 51.703125 
L 22.015625 51.703125 
L 22.015625 39.3125 
L 11.71875 39.3125 
z
" id="DejaVuSans-58"/>
    </defs>
    <g transform="translate(374.421656 80.4)scale(0.324 -0.324)">
     <use xlink:href="#DejaVuSans-69"/>
     <use x="63.183594" xlink:href="#DejaVuSans-118"/>
     <use x="122.363281" xlink:href="#DejaVuSans-97"/>
     <use x="183.642578" xlink:href="#DejaVuSans-108"/>
     <use x="211.425781" xlink:href="#DejaVuSans-117"/>
     <use x="274.804688" xlink:href="#DejaVuSans-97"/>
     <use x="336.083984" xlink:href="#DejaVuSans-116"/>
     <use x="375.292969" xlink:href="#DejaVuSans-105"/>
     <use x="403.076172" xlink:href="#DejaVuSans-111"/>
     <use x="464.257812" xlink:href="#DejaVuSans-110"/>
     <use x="527.636719" xlink:href="#DejaVuSans-32"/>
     <use x="559.423828" xlink:href="#DejaVuSans-80"/>
     <use x="619.710938" xlink:href="#DejaVuSans-114"/>
     <use x="660.792969" xlink:href="#DejaVuSans-101"/>
     <use x="722.316406" xlink:href="#DejaVuSans-100"/>
     <use x="785.792969" xlink:href="#DejaVuSans-115"/>
     <use x="837.892578" xlink:href="#DejaVuSans-32"/>
     <use x="869.679688" xlink:href="#DejaVuSans-78"/>
     <use x="944.484375" xlink:href="#DejaVuSans-58"/>
     <use x="978.175781" xlink:href="#DejaVuSans-53"/>
     <use x="1041.798828" xlink:href="#DejaVuSans-48"/>
    </g>
   </g>
   <g id="legend_1">
    <g id="patch_7">
     <path d="M 805.57875 187.261875 
L 953.1 187.261875 
Q 958.5 187.261875 958.5 181.861875 
L 958.5 105.3 
Q 958.5 99.9 953.1 99.9 
L 805.57875 99.9 
Q 800.17875 99.9 800.17875 105.3 
L 800.17875 181.861875 
Q 800.17875 187.261875 805.57875 187.261875 
z
" style="fill:#ffffff;opacity:0.8;stroke:#cccccc;stroke-linejoin:miter;"/>
    </g>
    <g id="line2d_35">
     <path d="M 810.97875 121.765781 
L 864.97875 121.765781 
" style="fill:none;stroke:#ff0000;stroke-linecap:square;stroke-width:1.5;"/>
    </g>
    <g id="line2d_36"/>
    <g id="text_18">
     <!-- Real -->
     <defs>
      <path d="M 44.390625 34.1875 
Q 47.5625 33.109375 50.5625 29.59375 
Q 53.5625 26.078125 56.59375 19.921875 
L 66.609375 0 
L 56 0 
L 46.6875 18.703125 
Q 43.0625 26.03125 39.671875 28.421875 
Q 36.28125 30.8125 30.421875 30.8125 
L 19.671875 30.8125 
L 19.671875 0 
L 9.8125 0 
L 9.8125 72.90625 
L 32.078125 72.90625 
Q 44.578125 72.90625 50.734375 67.671875 
Q 56.890625 62.453125 56.890625 51.90625 
Q 56.890625 45.015625 53.6875 40.46875 
Q 50.484375 35.9375 44.390625 34.1875 
z
M 19.671875 64.796875 
L 19.671875 38.921875 
L 32.078125 38.921875 
Q 39.203125 38.921875 42.84375 42.21875 
Q 46.484375 45.515625 46.484375 51.90625 
Q 46.484375 58.296875 42.84375 61.546875 
Q 39.203125 64.796875 32.078125 64.796875 
z
" id="DejaVuSans-82"/>
     </defs>
     <g transform="translate(886.57875 131.215781)scale(0.27 -0.27)">
      <use xlink:href="#DejaVuSans-82"/>
      <use x="69.419922" xlink:href="#DejaVuSans-101"/>
      <use x="130.943359" xlink:href="#DejaVuSans-97"/>
      <use x="192.222656" xlink:href="#DejaVuSans-108"/>
     </g>
    </g>
    <g id="line2d_37">
     <path d="M 810.97875 161.396719 
L 864.97875 161.396719 
" style="fill:none;stroke:#0000ff;stroke-linecap:square;stroke-width:1.5;"/>
    </g>
    <g id="line2d_38"/>
    <g id="text_19">
     <!-- Pred -->
     <g transform="translate(886.57875 170.846719)scale(0.27 -0.27)">
      <use xlink:href="#DejaVuSans-80"/>
      <use x="60.287109" xlink:href="#DejaVuSans-114"/>
      <use x="101.369141" xlink:href="#DejaVuSans-101"/>
      <use x="162.892578" xlink:href="#DejaVuSans-100"/>
     </g>
    </g>
   </g>
  </g>
 </g>
 <defs>
  <clipPath id="p5ca1172df4">
   <rect height="554.4" width="837" x="135" y="86.4"/>
  </clipPath>
 </defs>
</svg>
