<?xml version="1.0" encoding="utf-8" standalone="no"?>
<!DOCTYPE svg PUBLIC "-//W3C//DTD SVG 1.1//EN"
  "http://www.w3.org/Graphics/SVG/1.1/DTD/svg11.dtd">
<!-- Created with matplotlib (https://matplotlib.org/) -->
<svg height="720pt" version="1.1" viewBox="0 0 1080 720" width="1080pt" xmlns="http://www.w3.org/2000/svg" xmlns:xlink="http://www.w3.org/1999/xlink">
 <defs>
  <style type="text/css">
*{stroke-linecap:butt;stroke-linejoin:round;}
  </style>
 </defs>
 <g id="figure_1">
  <g id="patch_1">
   <path d="M 0 720 
L 1080 720 
L 1080 0 
L 0 0 
z
" style="fill:#ffffff;"/>
  </g>
  <g id="axes_1">
   <g id="patch_2">
    <path d="M 135 640.8 
L 972 640.8 
L 972 86.4 
L 135 86.4 
z
" style="fill:#ffffff;"/>
   </g>
   <g id="matplotlib.axis_1">
    <g id="xtick_1">
     <g id="line2d_1">
      <path clip-path="url(#pe769f279f1)" d="M 173.045455 640.8 
L 173.045455 86.4 
" style="fill:none;stroke:#b0b0b0;stroke-linecap:square;stroke-width:0.8;"/>
     </g>
     <g id="line2d_2">
      <defs>
       <path d="M 0 0 
L 0 3.5 
" id="mf2d1c0c770" style="stroke:#000000;stroke-width:0.8;"/>
      </defs>
      <g>
       <use style="stroke:#000000;stroke-width:0.8;" x="173.045455" xlink:href="#mf2d1c0c770" y="640.8"/>
      </g>
     </g>
     <g id="text_1">
      <!-- 0 -->
      <defs>
       <path d="M 31.78125 66.40625 
Q 24.171875 66.40625 20.328125 58.90625 
Q 16.5 51.421875 16.5 36.375 
Q 16.5 21.390625 20.328125 13.890625 
Q 24.171875 6.390625 31.78125 6.390625 
Q 39.453125 6.390625 43.28125 13.890625 
Q 47.125 21.390625 47.125 36.375 
Q 47.125 51.421875 43.28125 58.90625 
Q 39.453125 66.40625 31.78125 66.40625 
z
M 31.78125 74.21875 
Q 44.046875 74.21875 50.515625 64.515625 
Q 56.984375 54.828125 56.984375 36.375 
Q 56.984375 17.96875 50.515625 8.265625 
Q 44.046875 -1.421875 31.78125 -1.421875 
Q 19.53125 -1.421875 13.0625 8.265625 
Q 6.59375 17.96875 6.59375 36.375 
Q 6.59375 54.828125 13.0625 64.515625 
Q 19.53125 74.21875 31.78125 74.21875 
z
" id="DejaVuSans-48"/>
      </defs>
      <g transform="translate(164.45608 668.315781)scale(0.27 -0.27)">
       <use xlink:href="#DejaVuSans-48"/>
      </g>
     </g>
    </g>
    <g id="xtick_2">
     <g id="line2d_3">
      <path clip-path="url(#pe769f279f1)" d="M 282.371473 640.8 
L 282.371473 86.4 
" style="fill:none;stroke:#b0b0b0;stroke-linecap:square;stroke-width:0.8;"/>
     </g>
     <g id="line2d_4">
      <g>
       <use style="stroke:#000000;stroke-width:0.8;" x="282.371473" xlink:href="#mf2d1c0c770" y="640.8"/>
      </g>
     </g>
     <g id="text_2">
      <!-- 250 -->
      <defs>
       <path d="M 19.1875 8.296875 
L 53.609375 8.296875 
L 53.609375 0 
L 7.328125 0 
L 7.328125 8.296875 
Q 12.9375 14.109375 22.625 23.890625 
Q 32.328125 33.6875 34.8125 36.53125 
Q 39.546875 41.84375 41.421875 45.53125 
Q 43.3125 49.21875 43.3125 52.78125 
Q 43.3125 58.59375 39.234375 62.25 
Q 35.15625 65.921875 28.609375 65.921875 
Q 23.96875 65.921875 18.8125 64.3125 
Q 13.671875 62.703125 7.8125 59.421875 
L 7.8125 69.390625 
Q 13.765625 71.78125 18.9375 73 
Q 24.125 74.21875 28.421875 74.21875 
Q 39.75 74.21875 46.484375 68.546875 
Q 53.21875 62.890625 53.21875 53.421875 
Q 53.21875 48.921875 51.53125 44.890625 
Q 49.859375 40.875 45.40625 35.40625 
Q 44.1875 33.984375 37.640625 27.21875 
Q 31.109375 20.453125 19.1875 8.296875 
z
" id="DejaVuSans-50"/>
       <path d="M 10.796875 72.90625 
L 49.515625 72.90625 
L 49.515625 64.59375 
L 19.828125 64.59375 
L 19.828125 46.734375 
Q 21.96875 47.46875 24.109375 47.828125 
Q 26.265625 48.1875 28.421875 48.1875 
Q 40.625 48.1875 47.75 41.5 
Q 54.890625 34.8125 54.890625 23.390625 
Q 54.890625 11.625 47.5625 5.09375 
Q 40.234375 -1.421875 26.90625 -1.421875 
Q 22.3125 -1.421875 17.546875 -0.640625 
Q 12.796875 0.140625 7.71875 1.703125 
L 7.71875 11.625 
Q 12.109375 9.234375 16.796875 8.0625 
Q 21.484375 6.890625 26.703125 6.890625 
Q 35.15625 6.890625 40.078125 11.328125 
Q 45.015625 15.765625 45.015625 23.390625 
Q 45.015625 31 40.078125 35.4375 
Q 35.15625 39.890625 26.703125 39.890625 
Q 22.75 39.890625 18.8125 39.015625 
Q 14.890625 38.140625 10.796875 36.28125 
z
" id="DejaVuSans-53"/>
      </defs>
      <g transform="translate(256.603348 668.315781)scale(0.27 -0.27)">
       <use xlink:href="#DejaVuSans-50"/>
       <use x="63.623047" xlink:href="#DejaVuSans-53"/>
       <use x="127.246094" xlink:href="#DejaVuSans-48"/>
      </g>
     </g>
    </g>
    <g id="xtick_3">
     <g id="line2d_5">
      <path clip-path="url(#pe769f279f1)" d="M 391.697492 640.8 
L 391.697492 86.4 
" style="fill:none;stroke:#b0b0b0;stroke-linecap:square;stroke-width:0.8;"/>
     </g>
     <g id="line2d_6">
      <g>
       <use style="stroke:#000000;stroke-width:0.8;" x="391.697492" xlink:href="#mf2d1c0c770" y="640.8"/>
      </g>
     </g>
     <g id="text_3">
      <!-- 500 -->
      <g transform="translate(365.929367 668.315781)scale(0.27 -0.27)">
       <use xlink:href="#DejaVuSans-53"/>
       <use x="63.623047" xlink:href="#DejaVuSans-48"/>
       <use x="127.246094" xlink:href="#DejaVuSans-48"/>
      </g>
     </g>
    </g>
    <g id="xtick_4">
     <g id="line2d_7">
      <path clip-path="url(#pe769f279f1)" d="M 501.023511 640.8 
L 501.023511 86.4 
" style="fill:none;stroke:#b0b0b0;stroke-linecap:square;stroke-width:0.8;"/>
     </g>
     <g id="line2d_8">
      <g>
       <use style="stroke:#000000;stroke-width:0.8;" x="501.023511" xlink:href="#mf2d1c0c770" y="640.8"/>
      </g>
     </g>
     <g id="text_4">
      <!-- 750 -->
      <defs>
       <path d="M 8.203125 72.90625 
L 55.078125 72.90625 
L 55.078125 68.703125 
L 28.609375 0 
L 18.3125 0 
L 43.21875 64.59375 
L 8.203125 64.59375 
z
" id="DejaVuSans-55"/>
      </defs>
      <g transform="translate(475.255386 668.315781)scale(0.27 -0.27)">
       <use xlink:href="#DejaVuSans-55"/>
       <use x="63.623047" xlink:href="#DejaVuSans-53"/>
       <use x="127.246094" xlink:href="#DejaVuSans-48"/>
      </g>
     </g>
    </g>
    <g id="xtick_5">
     <g id="line2d_9">
      <path clip-path="url(#pe769f279f1)" d="M 610.34953 640.8 
L 610.34953 86.4 
" style="fill:none;stroke:#b0b0b0;stroke-linecap:square;stroke-width:0.8;"/>
     </g>
     <g id="line2d_10">
      <g>
       <use style="stroke:#000000;stroke-width:0.8;" x="610.34953" xlink:href="#mf2d1c0c770" y="640.8"/>
      </g>
     </g>
     <g id="text_5">
      <!-- 1000 -->
      <defs>
       <path d="M 12.40625 8.296875 
L 28.515625 8.296875 
L 28.515625 63.921875 
L 10.984375 60.40625 
L 10.984375 69.390625 
L 28.421875 72.90625 
L 38.28125 72.90625 
L 38.28125 8.296875 
L 54.390625 8.296875 
L 54.390625 0 
L 12.40625 0 
z
" id="DejaVuSans-49"/>
      </defs>
      <g transform="translate(575.99203 668.315781)scale(0.27 -0.27)">
       <use xlink:href="#DejaVuSans-49"/>
       <use x="63.623047" xlink:href="#DejaVuSans-48"/>
       <use x="127.246094" xlink:href="#DejaVuSans-48"/>
       <use x="190.869141" xlink:href="#DejaVuSans-48"/>
      </g>
     </g>
    </g>
    <g id="xtick_6">
     <g id="line2d_11">
      <path clip-path="url(#pe769f279f1)" d="M 719.675549 640.8 
L 719.675549 86.4 
" style="fill:none;stroke:#b0b0b0;stroke-linecap:square;stroke-width:0.8;"/>
     </g>
     <g id="line2d_12">
      <g>
       <use style="stroke:#000000;stroke-width:0.8;" x="719.675549" xlink:href="#mf2d1c0c770" y="640.8"/>
      </g>
     </g>
     <g id="text_6">
      <!-- 1250 -->
      <g transform="translate(685.318049 668.315781)scale(0.27 -0.27)">
       <use xlink:href="#DejaVuSans-49"/>
       <use x="63.623047" xlink:href="#DejaVuSans-50"/>
       <use x="127.246094" xlink:href="#DejaVuSans-53"/>
       <use x="190.869141" xlink:href="#DejaVuSans-48"/>
      </g>
     </g>
    </g>
    <g id="xtick_7">
     <g id="line2d_13">
      <path clip-path="url(#pe769f279f1)" d="M 829.001567 640.8 
L 829.001567 86.4 
" style="fill:none;stroke:#b0b0b0;stroke-linecap:square;stroke-width:0.8;"/>
     </g>
     <g id="line2d_14">
      <g>
       <use style="stroke:#000000;stroke-width:0.8;" x="829.001567" xlink:href="#mf2d1c0c770" y="640.8"/>
      </g>
     </g>
     <g id="text_7">
      <!-- 1500 -->
      <g transform="translate(794.644067 668.315781)scale(0.27 -0.27)">
       <use xlink:href="#DejaVuSans-49"/>
       <use x="63.623047" xlink:href="#DejaVuSans-53"/>
       <use x="127.246094" xlink:href="#DejaVuSans-48"/>
       <use x="190.869141" xlink:href="#DejaVuSans-48"/>
      </g>
     </g>
    </g>
    <g id="xtick_8">
     <g id="line2d_15">
      <path clip-path="url(#pe769f279f1)" d="M 938.327586 640.8 
L 938.327586 86.4 
" style="fill:none;stroke:#b0b0b0;stroke-linecap:square;stroke-width:0.8;"/>
     </g>
     <g id="line2d_16">
      <g>
       <use style="stroke:#000000;stroke-width:0.8;" x="938.327586" xlink:href="#mf2d1c0c770" y="640.8"/>
      </g>
     </g>
     <g id="text_8">
      <!-- 1750 -->
      <g transform="translate(903.970086 668.315781)scale(0.27 -0.27)">
       <use xlink:href="#DejaVuSans-49"/>
       <use x="63.623047" xlink:href="#DejaVuSans-55"/>
       <use x="127.246094" xlink:href="#DejaVuSans-53"/>
       <use x="190.869141" xlink:href="#DejaVuSans-48"/>
      </g>
     </g>
    </g>
   </g>
   <g id="matplotlib.axis_2">
    <g id="ytick_1">
     <g id="line2d_17">
      <path clip-path="url(#pe769f279f1)" d="M 135 616.02791 
L 972 616.02791 
" style="fill:none;stroke:#b0b0b0;stroke-linecap:square;stroke-width:0.8;"/>
     </g>
     <g id="line2d_18">
      <defs>
       <path d="M 0 0 
L -3.5 0 
" id="m2117aa61c8" style="stroke:#000000;stroke-width:0.8;"/>
      </defs>
      <g>
       <use style="stroke:#000000;stroke-width:0.8;" x="135" xlink:href="#m2117aa61c8" y="616.02791"/>
      </g>
     </g>
     <g id="text_9">
      <!-- 67.5 -->
      <defs>
       <path d="M 33.015625 40.375 
Q 26.375 40.375 22.484375 35.828125 
Q 18.609375 31.296875 18.609375 23.390625 
Q 18.609375 15.53125 22.484375 10.953125 
Q 26.375 6.390625 33.015625 6.390625 
Q 39.65625 6.390625 43.53125 10.953125 
Q 47.40625 15.53125 47.40625 23.390625 
Q 47.40625 31.296875 43.53125 35.828125 
Q 39.65625 40.375 33.015625 40.375 
z
M 52.59375 71.296875 
L 52.59375 62.3125 
Q 48.875 64.0625 45.09375 64.984375 
Q 41.3125 65.921875 37.59375 65.921875 
Q 27.828125 65.921875 22.671875 59.328125 
Q 17.53125 52.734375 16.796875 39.40625 
Q 19.671875 43.65625 24.015625 45.921875 
Q 28.375 48.1875 33.59375 48.1875 
Q 44.578125 48.1875 50.953125 41.515625 
Q 57.328125 34.859375 57.328125 23.390625 
Q 57.328125 12.15625 50.6875 5.359375 
Q 44.046875 -1.421875 33.015625 -1.421875 
Q 20.359375 -1.421875 13.671875 8.265625 
Q 6.984375 17.96875 6.984375 36.375 
Q 6.984375 53.65625 15.1875 63.9375 
Q 23.390625 74.21875 37.203125 74.21875 
Q 40.921875 74.21875 44.703125 73.484375 
Q 48.484375 72.75 52.59375 71.296875 
z
" id="DejaVuSans-54"/>
       <path d="M 10.6875 12.40625 
L 21 12.40625 
L 21 0 
L 10.6875 0 
z
" id="DejaVuSans-46"/>
      </defs>
      <g transform="translate(67.882812 626.285801)scale(0.27 -0.27)">
       <use xlink:href="#DejaVuSans-54"/>
       <use x="63.623047" xlink:href="#DejaVuSans-55"/>
       <use x="127.246094" xlink:href="#DejaVuSans-46"/>
       <use x="159.033203" xlink:href="#DejaVuSans-53"/>
      </g>
     </g>
    </g>
    <g id="ytick_2">
     <g id="line2d_19">
      <path clip-path="url(#pe769f279f1)" d="M 135 542.034492 
L 972 542.034492 
" style="fill:none;stroke:#b0b0b0;stroke-linecap:square;stroke-width:0.8;"/>
     </g>
     <g id="line2d_20">
      <g>
       <use style="stroke:#000000;stroke-width:0.8;" x="135" xlink:href="#m2117aa61c8" y="542.034492"/>
      </g>
     </g>
     <g id="text_10">
      <!-- 68.0 -->
      <defs>
       <path d="M 31.78125 34.625 
Q 24.75 34.625 20.71875 30.859375 
Q 16.703125 27.09375 16.703125 20.515625 
Q 16.703125 13.921875 20.71875 10.15625 
Q 24.75 6.390625 31.78125 6.390625 
Q 38.8125 6.390625 42.859375 10.171875 
Q 46.921875 13.96875 46.921875 20.515625 
Q 46.921875 27.09375 42.890625 30.859375 
Q 38.875 34.625 31.78125 34.625 
z
M 21.921875 38.8125 
Q 15.578125 40.375 12.03125 44.71875 
Q 8.5 49.078125 8.5 55.328125 
Q 8.5 64.0625 14.71875 69.140625 
Q 20.953125 74.21875 31.78125 74.21875 
Q 42.671875 74.21875 48.875 69.140625 
Q 55.078125 64.0625 55.078125 55.328125 
Q 55.078125 49.078125 51.53125 44.71875 
Q 48 40.375 41.703125 38.8125 
Q 48.828125 37.15625 52.796875 32.3125 
Q 56.78125 27.484375 56.78125 20.515625 
Q 56.78125 9.90625 50.3125 4.234375 
Q 43.84375 -1.421875 31.78125 -1.421875 
Q 19.734375 -1.421875 13.25 4.234375 
Q 6.78125 9.90625 6.78125 20.515625 
Q 6.78125 27.484375 10.78125 32.3125 
Q 14.796875 37.15625 21.921875 38.8125 
z
M 18.3125 54.390625 
Q 18.3125 48.734375 21.84375 45.5625 
Q 25.390625 42.390625 31.78125 42.390625 
Q 38.140625 42.390625 41.71875 45.5625 
Q 45.3125 48.734375 45.3125 54.390625 
Q 45.3125 60.0625 41.71875 63.234375 
Q 38.140625 66.40625 31.78125 66.40625 
Q 25.390625 66.40625 21.84375 63.234375 
Q 18.3125 60.0625 18.3125 54.390625 
z
" id="DejaVuSans-56"/>
      </defs>
      <g transform="translate(67.882812 552.292382)scale(0.27 -0.27)">
       <use xlink:href="#DejaVuSans-54"/>
       <use x="63.623047" xlink:href="#DejaVuSans-56"/>
       <use x="127.246094" xlink:href="#DejaVuSans-46"/>
       <use x="159.033203" xlink:href="#DejaVuSans-48"/>
      </g>
     </g>
    </g>
    <g id="ytick_3">
     <g id="line2d_21">
      <path clip-path="url(#pe769f279f1)" d="M 135 468.041073 
L 972 468.041073 
" style="fill:none;stroke:#b0b0b0;stroke-linecap:square;stroke-width:0.8;"/>
     </g>
     <g id="line2d_22">
      <g>
       <use style="stroke:#000000;stroke-width:0.8;" x="135" xlink:href="#m2117aa61c8" y="468.041073"/>
      </g>
     </g>
     <g id="text_11">
      <!-- 68.5 -->
      <g transform="translate(67.882812 478.298964)scale(0.27 -0.27)">
       <use xlink:href="#DejaVuSans-54"/>
       <use x="63.623047" xlink:href="#DejaVuSans-56"/>
       <use x="127.246094" xlink:href="#DejaVuSans-46"/>
       <use x="159.033203" xlink:href="#DejaVuSans-53"/>
      </g>
     </g>
    </g>
    <g id="ytick_4">
     <g id="line2d_23">
      <path clip-path="url(#pe769f279f1)" d="M 135 394.047655 
L 972 394.047655 
" style="fill:none;stroke:#b0b0b0;stroke-linecap:square;stroke-width:0.8;"/>
     </g>
     <g id="line2d_24">
      <g>
       <use style="stroke:#000000;stroke-width:0.8;" x="135" xlink:href="#m2117aa61c8" y="394.047655"/>
      </g>
     </g>
     <g id="text_12">
      <!-- 69.0 -->
      <defs>
       <path d="M 10.984375 1.515625 
L 10.984375 10.5 
Q 14.703125 8.734375 18.5 7.8125 
Q 22.3125 6.890625 25.984375 6.890625 
Q 35.75 6.890625 40.890625 13.453125 
Q 46.046875 20.015625 46.78125 33.40625 
Q 43.953125 29.203125 39.59375 26.953125 
Q 35.25 24.703125 29.984375 24.703125 
Q 19.046875 24.703125 12.671875 31.3125 
Q 6.296875 37.9375 6.296875 49.421875 
Q 6.296875 60.640625 12.9375 67.421875 
Q 19.578125 74.21875 30.609375 74.21875 
Q 43.265625 74.21875 49.921875 64.515625 
Q 56.59375 54.828125 56.59375 36.375 
Q 56.59375 19.140625 48.40625 8.859375 
Q 40.234375 -1.421875 26.421875 -1.421875 
Q 22.703125 -1.421875 18.890625 -0.6875 
Q 15.09375 0.046875 10.984375 1.515625 
z
M 30.609375 32.421875 
Q 37.25 32.421875 41.125 36.953125 
Q 45.015625 41.5 45.015625 49.421875 
Q 45.015625 57.28125 41.125 61.84375 
Q 37.25 66.40625 30.609375 66.40625 
Q 23.96875 66.40625 20.09375 61.84375 
Q 16.21875 57.28125 16.21875 49.421875 
Q 16.21875 41.5 20.09375 36.953125 
Q 23.96875 32.421875 30.609375 32.421875 
z
" id="DejaVuSans-57"/>
      </defs>
      <g transform="translate(67.882812 404.305545)scale(0.27 -0.27)">
       <use xlink:href="#DejaVuSans-54"/>
       <use x="63.623047" xlink:href="#DejaVuSans-57"/>
       <use x="127.246094" xlink:href="#DejaVuSans-46"/>
       <use x="159.033203" xlink:href="#DejaVuSans-48"/>
      </g>
     </g>
    </g>
    <g id="ytick_5">
     <g id="line2d_25">
      <path clip-path="url(#pe769f279f1)" d="M 135 320.054237 
L 972 320.054237 
" style="fill:none;stroke:#b0b0b0;stroke-linecap:square;stroke-width:0.8;"/>
     </g>
     <g id="line2d_26">
      <g>
       <use style="stroke:#000000;stroke-width:0.8;" x="135" xlink:href="#m2117aa61c8" y="320.054237"/>
      </g>
     </g>
     <g id="text_13">
      <!-- 69.5 -->
      <g transform="translate(67.882812 330.312127)scale(0.27 -0.27)">
       <use xlink:href="#DejaVuSans-54"/>
       <use x="63.623047" xlink:href="#DejaVuSans-57"/>
       <use x="127.246094" xlink:href="#DejaVuSans-46"/>
       <use x="159.033203" xlink:href="#DejaVuSans-53"/>
      </g>
     </g>
    </g>
    <g id="ytick_6">
     <g id="line2d_27">
      <path clip-path="url(#pe769f279f1)" d="M 135 246.060818 
L 972 246.060818 
" style="fill:none;stroke:#b0b0b0;stroke-linecap:square;stroke-width:0.8;"/>
     </g>
     <g id="line2d_28">
      <g>
       <use style="stroke:#000000;stroke-width:0.8;" x="135" xlink:href="#m2117aa61c8" y="246.060818"/>
      </g>
     </g>
     <g id="text_14">
      <!-- 70.0 -->
      <g transform="translate(67.882812 256.318709)scale(0.27 -0.27)">
       <use xlink:href="#DejaVuSans-55"/>
       <use x="63.623047" xlink:href="#DejaVuSans-48"/>
       <use x="127.246094" xlink:href="#DejaVuSans-46"/>
       <use x="159.033203" xlink:href="#DejaVuSans-48"/>
      </g>
     </g>
    </g>
    <g id="ytick_7">
     <g id="line2d_29">
      <path clip-path="url(#pe769f279f1)" d="M 135 172.0674 
L 972 172.0674 
" style="fill:none;stroke:#b0b0b0;stroke-linecap:square;stroke-width:0.8;"/>
     </g>
     <g id="line2d_30">
      <g>
       <use style="stroke:#000000;stroke-width:0.8;" x="135" xlink:href="#m2117aa61c8" y="172.0674"/>
      </g>
     </g>
     <g id="text_15">
      <!-- 70.5 -->
      <g transform="translate(67.882812 182.32529)scale(0.27 -0.27)">
       <use xlink:href="#DejaVuSans-55"/>
       <use x="63.623047" xlink:href="#DejaVuSans-48"/>
       <use x="127.246094" xlink:href="#DejaVuSans-46"/>
       <use x="159.033203" xlink:href="#DejaVuSans-53"/>
      </g>
     </g>
    </g>
    <g id="ytick_8">
     <g id="line2d_31">
      <path clip-path="url(#pe769f279f1)" d="M 135 98.073981 
L 972 98.073981 
" style="fill:none;stroke:#b0b0b0;stroke-linecap:square;stroke-width:0.8;"/>
     </g>
     <g id="line2d_32">
      <g>
       <use style="stroke:#000000;stroke-width:0.8;" x="135" xlink:href="#m2117aa61c8" y="98.073981"/>
      </g>
     </g>
     <g id="text_16">
      <!-- 71.0 -->
      <g transform="translate(67.882812 108.331872)scale(0.27 -0.27)">
       <use xlink:href="#DejaVuSans-55"/>
       <use x="63.623047" xlink:href="#DejaVuSans-49"/>
       <use x="127.246094" xlink:href="#DejaVuSans-46"/>
       <use x="159.033203" xlink:href="#DejaVuSans-48"/>
      </g>
     </g>
    </g>
   </g>
   <g id="line2d_33">
    <path clip-path="url(#pe769f279f1)" d="M 173.045455 462.962606 
L 173.482759 467.036219 
L 173.920063 464.226013 
L 174.357367 462.841798 
L 174.794671 456.786703 
L 175.231975 461.468873 
L 175.669279 460.343211 
L 176.106583 460.791443 
L 176.543887 457.125418 
L 176.981191 455.001675 
L 177.418495 449.988693 
L 177.855799 448.09076 
L 178.293103 456.801381 
L 178.730408 457.019287 
L 179.167712 461.279193 
L 179.605016 456.411859 
L 180.04232 458.175435 
L 180.479624 453.294552 
L 180.916928 452.628412 
L 181.354232 453.136485 
L 181.791536 460.903219 
L 182.666144 481.55693 
L 183.103448 482.027744 
L 183.540752 481.696933 
L 183.978056 479.854323 
L 184.415361 472.540337 
L 184.852665 475.050215 
L 185.289969 472.735663 
L 185.727273 468.761407 
L 186.164577 467.381708 
L 186.601881 466.613954 
L 187.476489 457.382842 
L 187.913793 450.397409 
L 188.351097 445.611367 
L 188.788401 444.111988 
L 189.663009 438.785131 
L 190.100313 441.568239 
L 190.974922 436.249284 
L 191.412226 434.869585 
L 191.84953 437.100588 
L 192.286834 433.357787 
L 192.724138 436.263962 
L 193.161442 435.883472 
L 193.598746 438.029796 
L 194.03605 436.023474 
L 194.473354 446.035889 
L 194.910658 442.94568 
L 195.347962 444.097311 
L 195.785266 446.244764 
L 196.222571 461.537745 
L 196.659875 466.191689 
L 197.097179 466.691859 
L 197.534483 462.407114 
L 197.971787 463.477453 
L 198.409091 463.714554 
L 199.283699 457.852526 
L 199.721003 452.787608 
L 200.158307 452.960353 
L 201.470219 448.654156 
L 202.782132 430.334192 
L 203.219436 434.379578 
L 203.65674 436.540579 
L 204.094044 448.115599 
L 204.531348 431.716149 
L 204.968652 429.736924 
L 205.405956 428.630455 
L 205.84326 430.100478 
L 206.280564 430.627745 
L 206.717868 432.118091 
L 207.155172 432.819231 
L 207.592476 436.30235 
L 208.029781 452.221954 
L 208.467085 432.526807 
L 208.904389 434.95878 
L 209.341693 432.074058 
L 209.778997 431.581792 
L 210.216301 427.21011 
L 210.653605 427.425759 
L 211.090909 423.270855 
L 211.965517 425.098787 
L 212.402821 420.951786 
L 212.840125 420.266453 
L 213.277429 420.072257 
L 213.714734 419.411762 
L 214.152038 417.199953 
L 214.589342 413.125212 
L 215.026646 410.659367 
L 215.46395 401.935198 
L 215.901254 402.115846 
L 216.338558 399.544999 
L 216.775862 395.383321 
L 217.213166 389.408389 
L 217.65047 388.049012 
L 218.087774 382.38344 
L 218.525078 379.274036 
L 218.962382 380.30373 
L 219.836991 371.630368 
L 220.274295 376.638833 
L 221.148903 365.276075 
L 221.586207 365.130427 
L 222.023511 375.562849 
L 222.460815 363.160235 
L 222.898119 364.772518 
L 223.335423 363.417658 
L 223.772727 363.965248 
L 224.647335 355.211723 
L 225.084639 356.087866 
L 225.521944 354.935106 
L 225.959248 352.700716 
L 226.833856 360.180672 
L 227.27116 360.241641 
L 227.708464 358.06822 
L 228.145768 360.246157 
L 229.020376 353.867025 
L 229.45768 353.365727 
L 230.332288 343.52154 
L 230.769592 344.826722 
L 231.206897 343.227987 
L 231.644201 344.991563 
L 232.081505 344.453006 
L 232.518809 341.817804 
L 232.956113 339.878096 
L 233.393417 337.34112 
L 234.268025 329.786647 
L 235.142633 319.906331 
L 235.579937 310.241663 
L 236.017241 315.964818 
L 236.454545 315.271581 
L 236.89185 314.211403 
L 237.329154 309.839722 
L 237.766458 311.691363 
L 238.203762 310.736187 
L 238.641066 310.434731 
L 239.07837 303.300264 
L 239.515674 303.644624 
L 239.952978 302.242344 
L 240.390282 302.346217 
L 240.827586 298.859711 
L 241.26489 298.093086 
L 241.702194 300.819741 
L 242.139498 296.756291 
L 242.576803 301.781692 
L 243.014107 300.19199 
L 243.451411 302.504284 
L 243.888715 298.010665 
L 244.326019 298.823581 
L 244.763323 302.664609 
L 245.200627 302.814773 
L 245.637931 302.619447 
L 246.075235 302.578801 
L 246.512539 305.52788 
L 246.949843 305.999823 
L 247.387147 303.712367 
L 247.824451 298.002762 
L 248.69906 299.749402 
L 249.136364 303.176069 
L 249.573668 303.856886 
L 250.010972 302.898322 
L 250.448276 306.488701 
L 250.88558 311.371842 
L 251.322884 308.340343 
L 251.760188 309.332778 
L 252.197492 302.93671 
L 252.634796 308.899223 
L 253.0721 308.408086 
L 253.509404 304.86174 
L 253.946708 303.081228 
L 254.384013 305.792077 
L 254.821317 306.773222 
L 255.258621 303.284457 
L 255.695925 307.434845 
L 256.133229 308.369698 
L 256.570533 310.678606 
L 257.007837 309.915368 
L 257.445141 314.494794 
L 257.882445 314.614474 
L 258.319749 318.895831 
L 258.757053 321.98717 
L 259.194357 323.813973 
L 259.631661 322.253626 
L 260.068966 325.265931 
L 260.50627 326.012233 
L 260.943574 326.41982 
L 261.380878 324.941894 
L 261.818182 329.314704 
L 262.255486 329.181476 
L 262.69279 329.228897 
L 263.130094 331.123442 
L 263.567398 329.374544 
L 264.004702 332.855405 
L 264.442006 332.525722 
L 264.87931 331.651838 
L 265.316614 333.335251 
L 265.753918 336.398364 
L 266.191223 330.716984 
L 266.628527 336.444655 
L 267.503135 334.158329 
L 267.940439 334.016068 
L 268.377743 335.644158 
L 268.815047 333.576868 
L 269.252351 335.338186 
L 269.689655 335.112376 
L 270.126959 335.425123 
L 270.564263 338.011776 
L 271.001567 339.077599 
L 271.438871 335.280604 
L 271.876176 336.36675 
L 272.31348 334.849307 
L 272.750784 331.92281 
L 273.188088 332.054909 
L 273.625392 332.696209 
L 274.062696 332.573142 
L 274.5 331.14941 
L 274.937304 335.845129 
L 275.374608 339.129536 
L 275.811912 338.413718 
L 276.249216 338.887919 
L 276.68652 340.347781 
L 277.123824 341.2036 
L 277.561129 339.734706 
L 277.998433 340.00342 
L 278.435737 342.306682 
L 278.873041 340.029388 
L 279.747649 343.781221 
L 280.184953 343.766544 
L 280.622257 346.301261 
L 281.059561 352.11361 
L 281.496865 355.148497 
L 281.934169 352.971688 
L 282.371473 352.910719 
L 282.808777 357.922572 
L 283.246082 356.108189 
L 283.683386 359.914216 
L 284.12069 357.341112 
L 284.557994 357.621116 
L 284.995298 355.002849 
L 285.432602 353.876057 
L 285.869906 351.092949 
L 286.30721 353.596053 
L 286.744514 354.047673 
L 287.619122 358.357256 
L 288.056426 356.979816 
L 288.49373 354.151545 
L 288.931034 354.149287 
L 289.368339 355.067205 
L 289.805643 358.970331 
L 291.554859 368.384349 
L 291.992163 367.297074 
L 292.866771 371.862952 
L 293.304075 372.476026 
L 293.741379 372.539253 
L 294.178683 371.41359 
L 294.615987 374.382992 
L 295.053292 373.60056 
L 295.490596 375.130423 
L 295.9279 378.305311 
L 296.365204 378.113373 
L 296.802508 376.068663 
L 297.239812 376.634317 
L 297.677116 376.530445 
L 298.551724 375.027679 
L 298.989028 377.659495 
L 299.426332 376.152213 
L 299.863636 375.313329 
L 300.30094 373.177166 
L 300.738245 376.252698 
L 301.175549 371.935211 
L 301.612853 372.735708 
L 302.050157 374.098471 
L 302.487461 369.862276 
L 302.924765 367.893212 
L 303.362069 365.037845 
L 303.799373 358.612422 
L 304.236677 357.224819 
L 305.111285 348.841623 
L 305.548589 350.964237 
L 306.423197 348.627104 
L 306.860502 340.499073 
L 307.297806 338.813402 
L 307.73511 326.299012 
L 308.172414 323.314933 
L 308.609718 328.207106 
L 309.047022 328.443078 
L 309.484326 327.409997 
L 309.92163 327.813068 
L 310.358934 327.116444 
L 310.796238 329.794551 
L 312.10815 333.142184 
L 312.545455 331.579579 
L 312.982759 329.350834 
L 313.857367 334.568174 
L 314.294671 332.514432 
L 314.731975 332.02894 
L 315.169279 334.344622 
L 315.606583 334.088328 
L 316.043887 332.502012 
L 316.481191 329.351963 
L 317.355799 319.496486 
L 317.793103 320.648117 
L 318.230408 320.707956 
L 318.667712 315.81917 
L 319.105016 313.107192 
L 319.54232 308.209373 
L 319.979624 312.912995 
L 320.416928 313.89414 
L 320.854232 310.315052 
L 321.291536 308.366311 
L 321.72884 307.324198 
L 322.603448 299.270685 
L 323.478056 288.784069 
L 323.915361 286.223383 
L 324.352665 284.68223 
L 324.789969 284.952073 
L 325.227273 288.049057 
L 326.101881 285.995315 
L 326.539185 286.020154 
L 326.976489 288.659873 
L 327.413793 285.75257 
L 328.288401 293.479788 
L 328.725705 294.765775 
L 329.163009 293.917859 
L 329.600313 298.391155 
L 330.037618 297.955342 
L 330.474922 297.710338 
L 330.912226 298.5989 
L 331.34953 296.251605 
L 331.786834 295.349494 
L 332.224138 299.435526 
L 332.661442 297.255331 
L 333.098746 286.143221 
L 333.53605 290.504741 
L 334.410658 292.856552 
L 334.847962 288.440838 
L 335.285266 291.442981 
L 335.722571 288.974878 
L 336.159875 292.210735 
L 336.597179 287.377272 
L 337.034483 280.378292 
L 337.471787 279.573279 
L 337.909091 274.783849 
L 338.346395 278.096482 
L 338.783699 277.862768 
L 339.221003 275.023208 
L 339.658307 274.622395 
L 340.532915 280.79604 
L 340.970219 282.664618 
L 341.844828 288.843908 
L 342.282132 287.325336 
L 342.719436 282.175739 
L 343.15674 287.285819 
L 343.594044 293.77447 
L 344.031348 293.573499 
L 344.468652 292.753808 
L 344.905956 311.167484 
L 345.34326 307.902272 
L 345.780564 302.006373 
L 346.217868 309.686171 
L 346.655172 306.31144 
L 347.092476 281.546858 
L 347.529781 279.434406 
L 347.967085 282.171223 
L 348.404389 286.778876 
L 348.841693 285.777409 
L 349.278997 281.532181 
L 349.716301 285.429661 
L 350.153605 282.669134 
L 350.590909 287.670825 
L 351.028213 300.570221 
L 351.465517 323.80607 
L 352.340125 327.399836 
L 352.777429 327.915811 
L 353.214734 322.286368 
L 353.652038 299.459236 
L 354.526646 313.501231 
L 354.96395 306.551928 
L 355.401254 287.183076 
L 355.838558 294.040925 
L 356.275862 291.861859 
L 356.713166 288.99633 
L 357.15047 291.104266 
L 357.587774 286.658068 
L 358.025078 288.65197 
L 358.899687 301.298459 
L 359.774295 299.694079 
L 360.211599 304.000275 
L 360.648903 305.996435 
L 361.086207 306.663704 
L 361.523511 306.260633 
L 361.960815 312.065079 
L 362.398119 309.515684 
L 362.835423 309.962788 
L 363.272727 326.469498 
L 363.710031 327.669679 
L 364.147335 323.167027 
L 364.584639 327.516128 
L 365.021944 335.209474 
L 365.459248 340.398588 
L 365.896552 339.099051 
L 366.333856 340.616494 
L 366.77116 348.496134 
L 367.208464 354.078157 
L 367.645768 364.264446 
L 368.083072 363.416529 
L 368.520376 365.297527 
L 368.95768 370.937131 
L 369.394984 373.593786 
L 369.832288 378.509669 
L 370.706897 405.645256 
L 371.144201 410.999211 
L 371.581505 412.672463 
L 372.018809 413.576832 
L 372.893417 443.103747 
L 373.330721 448.74448 
L 373.768025 460.993543 
L 374.205329 461.964526 
L 374.642633 473.213251 
L 375.079937 474.537627 
L 375.517241 481.240796 
L 375.954545 477.404285 
L 376.39185 476.870244 
L 376.829154 481.768063 
L 377.266458 484.174068 
L 377.703762 484.720528 
L 378.141066 482.320168 
L 378.57837 482.879048 
L 379.015674 483.07889 
L 379.452978 481.412412 
L 379.890282 489.152049 
L 380.327586 491.731929 
L 380.76489 489.870125 
L 381.202194 491.845963 
L 381.639498 488.491555 
L 382.076803 493.27534 
L 382.514107 493.089047 
L 382.951411 496.215386 
L 383.388715 495.175531 
L 383.826019 501.810958 
L 384.700627 491.392085 
L 385.137931 496.510068 
L 385.575235 497.70799 
L 386.012539 494.682136 
L 386.449843 485.016339 
L 386.887147 485.571832 
L 387.324451 482.447751 
L 388.19906 479.623997 
L 388.636364 476.901857 
L 389.073668 470.176107 
L 389.510972 472.766147 
L 389.948276 473.949392 
L 390.38558 478.572851 
L 390.822884 475.776195 
L 391.260188 478.428333 
L 391.697492 481.86629 
L 392.134796 483.073244 
L 393.009404 478.649627 
L 393.446708 482.025486 
L 393.884013 479.462543 
L 396.070533 501.764667 
L 396.945141 508.322189 
L 397.382445 515.088585 
L 397.819749 515.008423 
L 399.131661 525.038902 
L 399.568966 526.783285 
L 400.443574 538.936378 
L 400.880878 541.060121 
L 401.318182 544.338883 
L 401.755486 548.494915 
L 402.19279 549.219766 
L 402.630094 549.634127 
L 403.067398 553.212086 
L 403.504702 549.245734 
L 403.942006 556.827304 
L 404.37931 560.57575 
L 404.816614 566.05503 
L 405.253918 569.22766 
L 406.128527 573.428855 
L 406.565831 573.003203 
L 407.003135 570.503486 
L 407.440439 570.681876 
L 407.877743 568.528778 
L 408.752351 567.511504 
L 409.189655 564.123225 
L 409.626959 564.299357 
L 410.064263 563.009982 
L 410.501567 563.978707 
L 410.938871 560.880594 
L 411.376176 563.077725 
L 412.250784 561.043177 
L 413.562696 569.137336 
L 414 570.262999 
L 414.437304 566.528101 
L 414.874608 566.526972 
L 415.311912 563.579023 
L 416.18652 551.125602 
L 416.623824 547.747484 
L 417.061129 540.152365 
L 417.498433 537.890878 
L 417.935737 533.006608 
L 418.373041 534.518406 
L 418.810345 529.573167 
L 419.684953 524.621154 
L 420.122257 520.978839 
L 420.996865 509.929956 
L 421.434169 506.950393 
L 421.871473 496.004254 
L 422.308777 487.952998 
L 422.746082 486.188293 
L 423.62069 468.676728 
L 424.057994 467.60526 
L 424.495298 460.926929 
L 425.369906 453.188421 
L 426.244514 432.722132 
L 426.681818 424.258774 
L 427.119122 424.45297 
L 427.556426 422.795525 
L 427.99373 418.74901 
L 428.868339 399.371125 
L 429.305643 391.108738 
L 429.742947 380.261955 
L 430.180251 380.794866 
L 430.617555 374.801869 
L 431.054859 374.460896 
L 431.492163 359.199528 
L 431.929467 366.311413 
L 432.366771 363.39169 
L 434.115987 334.823339 
L 434.990596 324.550113 
L 435.4279 317.678715 
L 435.865204 317.788233 
L 436.302508 315.744653 
L 436.739812 306.215471 
L 437.177116 299.472785 
L 437.61442 290.543129 
L 438.051724 284.316418 
L 439.363636 259.965068 
L 440.238245 264.616754 
L 441.112853 251.067026 
L 441.550157 248.77957 
L 441.987461 243.940462 
L 442.424765 241.478004 
L 442.862069 241.391068 
L 443.299373 238.343762 
L 443.736677 232.907386 
L 444.173981 230.388476 
L 445.048589 220.381706 
L 445.485893 217.840214 
L 445.923197 219.326044 
L 446.360502 215.776311 
L 446.797806 209.545084 
L 447.23511 208.152966 
L 447.672414 208.784105 
L 448.984326 212.651101 
L 449.42163 211.473502 
L 449.858934 211.275918 
L 450.296238 209.927832 
L 450.733542 214.205803 
L 451.170846 210.325258 
L 451.60815 214.148221 
L 452.045455 216.880522 
L 452.482759 216.56213 
L 452.920063 216.646809 
L 453.357367 221.436238 
L 453.794671 222.098991 
L 454.231975 216.405192 
L 454.669279 213.966444 
L 455.106583 204.094031 
L 455.543887 199.714446 
L 456.418495 182.474982 
L 456.855799 178.688149 
L 457.730408 161.719657 
L 458.605016 152.342897 
L 459.04232 146.938135 
L 459.479624 139.800281 
L 459.916928 139.273015 
L 460.354232 139.642214 
L 460.791536 133.923576 
L 461.22884 129.670445 
L 461.666144 130.040773 
L 462.103448 126.314908 
L 462.540752 128.097678 
L 462.978056 126.323941 
L 463.415361 127.938482 
L 463.852665 127.397667 
L 464.289969 133.060982 
L 464.727273 132.470489 
L 465.164577 134.142612 
L 465.601881 136.475229 
L 466.039185 137.739765 
L 466.476489 144.182124 
L 466.913793 144.547936 
L 467.351097 156.059729 
L 467.788401 155.115844 
L 469.100313 177.043123 
L 469.537618 178.8417 
L 469.974922 186.312623 
L 470.412226 186.811663 
L 470.84953 189.222185 
L 471.286834 195.746965 
L 471.724138 198.863143 
L 472.161442 200.416715 
L 472.598746 199.310246 
L 473.03605 200.179615 
L 473.473354 196.269715 
L 473.910658 197.26215 
L 474.347962 195.138407 
L 474.785266 192.274007 
L 475.222571 188.1112 
L 475.659875 189.853324 
L 476.097179 185.25922 
L 476.534483 185.682613 
L 476.971787 185.862132 
L 477.409091 185.540353 
L 477.846395 179.912039 
L 478.283699 171.807718 
L 478.721003 175.500841 
L 479.158307 173.690974 
L 479.595611 170.469794 
L 480.470219 168.928641 
L 480.907524 171.167547 
L 481.344828 172.775314 
L 481.782132 171.198031 
L 482.219436 171.463358 
L 482.65674 178.939927 
L 483.094044 182.075299 
L 483.531348 190.196555 
L 483.968652 194.218231 
L 484.84326 208.047964 
L 485.280564 213.098204 
L 485.717868 223.777888 
L 486.155172 228.217313 
L 486.592476 239.92669 
L 487.029781 247.146964 
L 487.467085 259.493126 
L 487.904389 265.228699 
L 488.341693 275.551603 
L 488.778997 279.671506 
L 489.216301 287.671955 
L 489.653605 293.447045 
L 490.090909 295.157556 
L 490.528213 303.616398 
L 490.965517 308.155179 
L 491.402821 316.700958 
L 491.840125 321.22619 
L 492.277429 330.593918 
L 492.714734 333.876066 
L 493.589342 349.86793 
L 494.901254 366.992231 
L 495.338558 377.548848 
L 495.775862 380.210019 
L 496.65047 393.382644 
L 497.525078 400.432432 
L 497.962382 406.085586 
L 498.399687 407.474317 
L 498.836991 410.056454 
L 499.711599 418.984981 
L 500.148903 416.808173 
L 500.586207 420.942754 
L 501.023511 430.177254 
L 501.460815 426.322677 
L 501.898119 430.302578 
L 502.335423 436.451384 
L 502.772727 437.203332 
L 503.210031 437.029458 
L 503.647335 437.45511 
L 504.084639 437.110749 
L 504.959248 431.342433 
L 505.833856 418.227389 
L 506.27116 409.425315 
L 506.708464 408.466752 
L 507.145768 403.687483 
L 507.583072 396.440112 
L 508.020376 398.386594 
L 508.45768 397.205608 
L 508.894984 394.318627 
L 509.332288 396.160107 
L 509.769592 391.645037 
L 510.206897 390.368081 
L 510.644201 385.832687 
L 511.081505 374.417992 
L 511.518809 370.710192 
L 511.956113 364.659613 
L 512.393417 348.017417 
L 512.830721 342.656688 
L 513.268025 335.566254 
L 514.142633 314.789477 
L 514.579937 317.151449 
L 515.017241 316.040464 
L 515.454545 314.501569 
L 515.89185 318.560503 
L 516.329154 318.970349 
L 516.766458 319.786652 
L 517.203762 315.060449 
L 517.641066 316.92451 
L 518.07837 314.991576 
L 518.515674 315.115772 
L 518.952978 309.303423 
L 519.390282 310.299245 
L 519.827586 311.903625 
L 520.26489 311.125709 
L 521.139498 302.049277 
L 521.576803 295.017554 
L 522.014107 290.978942 
L 523.326019 276.169194 
L 523.763323 274.140291 
L 524.200627 271.472346 
L 524.637931 274.96111 
L 525.075235 273.741736 
L 525.512539 274.798527 
L 525.949843 269.856675 
L 526.387147 266.29791 
L 526.824451 269.976354 
L 527.261755 264.075939 
L 527.69906 266.328394 
L 528.136364 267.402121 
L 528.573668 267.230505 
L 529.010972 268.443105 
L 529.448276 272.423006 
L 529.88558 273.108339 
L 530.322884 276.697589 
L 530.760188 279.106982 
L 531.197492 279.820541 
L 531.634796 282.53139 
L 532.0721 278.981657 
L 532.509404 283.61302 
L 532.946708 282.819298 
L 533.384013 287.78486 
L 533.821317 278.784073 
L 534.258621 274.587395 
L 534.695925 282.811394 
L 535.133229 277.534215 
L 535.570533 279.338437 
L 536.007837 282.28187 
L 536.445141 287.435983 
L 536.882445 288.896974 
L 537.757053 301.935243 
L 538.194357 318.274854 
L 538.631661 327.492418 
L 539.50627 340.311651 
L 539.943574 348.329035 
L 540.818182 368.476931 
L 541.255486 374.019438 
L 541.69279 381.203582 
L 542.130094 390.426792 
L 542.567398 396.064138 
L 543.004702 407.157054 
L 543.442006 412.101164 
L 543.87931 420.509199 
L 544.316614 425.970414 
L 544.753918 427.249627 
L 545.628527 438.804324 
L 546.065831 439.138523 
L 546.503135 446.516865 
L 546.940439 449.949177 
L 547.377743 451.577267 
L 548.252351 459.349647 
L 548.689655 462.095496 
L 549.126959 466.156689 
L 549.564263 474.722791 
L 550.001567 480.767724 
L 552.188088 498.169771 
L 552.625392 506.345222 
L 553.062696 505.25456 
L 553.5 505.521016 
L 554.811912 514.845839 
L 555.249216 515.601174 
L 555.68652 522.6408 
L 556.123824 520.663834 
L 556.561129 525.893593 
L 556.998433 528.334599 
L 557.435737 529.358648 
L 557.873041 527.817494 
L 558.310345 533.614037 
L 558.747649 536.418597 
L 559.184953 536.61731 
L 559.622257 541.415772 
L 560.496865 547.111829 
L 560.934169 549.126054 
L 561.371473 554.179682 
L 561.808777 550.531722 
L 562.246082 550.683014 
L 562.683386 550.678498 
L 563.12069 550.373655 
L 563.557994 546.943601 
L 563.995298 546.494239 
L 564.432602 544.659533 
L 564.869906 544.901149 
L 565.30721 545.985037 
L 565.744514 541.381901 
L 566.181818 540.387208 
L 566.619122 535.346 
L 567.056426 537.047478 
L 567.49373 531.849332 
L 567.931034 531.772556 
L 568.368339 527.618782 
L 569.242947 513.899696 
L 569.680251 514.862775 
L 570.117555 514.977938 
L 570.554859 503.670503 
L 570.992163 504.063412 
L 571.429467 490.109484 
L 571.866771 494.837945 
L 572.304075 487.388473 
L 572.741379 485.385539 
L 573.178683 474.328752 
L 573.615987 469.552871 
L 574.490596 464.056656 
L 574.9279 454.088274 
L 575.365204 446.761869 
L 575.802508 444.52635 
L 576.239812 434.009249 
L 577.11442 416.755108 
L 577.551724 416.994466 
L 577.989028 413.06876 
L 578.426332 416.618493 
L 578.863636 413.406346 
L 579.30094 414.380716 
L 579.738245 413.964096 
L 580.612853 396.975281 
L 581.050157 394.459758 
L 581.487461 386.59028 
L 582.362069 377.074647 
L 582.799373 377.267714 
L 583.236677 374.841386 
L 583.673981 365.402528 
L 584.111285 374.373959 
L 584.548589 366.499965 
L 584.985893 362.118122 
L 585.423197 360.455031 
L 585.860502 370.942776 
L 586.73511 358.870974 
L 587.172414 358.135963 
L 587.609718 366.564321 
L 588.047022 371.762467 
L 588.484326 369.240169 
L 588.92163 359.668084 
L 589.358934 358.380967 
L 590.233542 339.435508 
L 591.10815 330.809566 
L 591.982759 305.587719 
L 592.857367 291.377497 
L 593.731975 286.642261 
L 594.606583 260.975568 
L 595.043887 250.308304 
L 595.481191 229.139746 
L 595.918495 234.206923 
L 596.355799 232.251408 
L 596.793103 225.577594 
L 597.667712 197.082631 
L 598.105016 195.671318 
L 598.54232 189.492028 
L 598.979624 189.973003 
L 599.416928 178.935411 
L 599.854232 181.996265 
L 600.291536 178.215077 
L 600.72884 178.560566 
L 601.166144 178.580889 
L 601.603448 178.481533 
L 602.040752 178.539114 
L 602.915361 172.213047 
L 603.352665 181.436256 
L 603.789969 183.442578 
L 604.227273 179.840909 
L 605.101881 190.299299 
L 605.539185 200.955272 
L 605.976489 203.715799 
L 606.413793 210.493486 
L 606.851097 209.365565 
L 607.288401 220.011377 
L 607.725705 219.980893 
L 608.163009 220.429126 
L 608.600313 223.254009 
L 609.037618 224.498222 
L 609.474922 224.441769 
L 609.912226 219.787826 
L 610.34953 218.614743 
L 610.786834 215.90841 
L 611.224138 217.174075 
L 611.661442 205.585506 
L 612.098746 208.141675 
L 612.973354 200.486716 
L 613.410658 198.637333 
L 613.847962 199.576702 
L 614.285266 201.649638 
L 614.722571 189.547351 
L 615.159875 185.243413 
L 616.034483 180.259786 
L 616.471787 175.284063 
L 616.909091 173.037254 
L 617.346395 173.862589 
L 617.783699 177.454097 
L 618.221003 170.292533 
L 618.658307 171.986108 
L 619.095611 171.735459 
L 619.532915 170.883026 
L 619.970219 168.292986 
L 620.407524 170.31963 
L 620.844828 168.101047 
L 621.282132 168.535732 
L 621.719436 163.30823 
L 622.15674 164.446313 
L 622.594044 164.676639 
L 623.031348 171.176579 
L 623.468652 173.781298 
L 623.905956 174.722925 
L 624.34326 178.320078 
L 624.780564 176.576825 
L 625.217868 166.496667 
L 625.655172 166.192953 
L 626.092476 162.312408 
L 626.529781 165.855367 
L 626.967085 161.679011 
L 627.404389 158.944452 
L 627.841693 182.826117 
L 628.716301 198.431845 
L 629.153605 197.47554 
L 629.590909 200.118646 
L 630.028213 198.665559 
L 630.465517 203.03724 
L 630.902821 201.213825 
L 631.340125 206.559876 
L 631.777429 204.377423 
L 632.214734 204.196775 
L 633.089342 213.819667 
L 633.526646 218.64184 
L 633.96395 218.087476 
L 634.401254 220.154767 
L 634.838558 219.213139 
L 635.275862 224.810969 
L 635.713166 225.194846 
L 636.15047 228.692643 
L 636.587774 230.947355 
L 637.025078 231.977049 
L 637.462382 235.54146 
L 637.899687 236.222277 
L 638.336991 239.266195 
L 638.774295 241.111063 
L 639.211599 245.971623 
L 639.648903 252.471564 
L 640.086207 254.35369 
L 640.523511 259.529255 
L 640.960815 267.598575 
L 641.398119 266.108229 
L 641.835423 270.295876 
L 642.272727 282.206224 
L 644.021944 306.892901 
L 644.459248 309.37794 
L 645.77116 327.374996 
L 646.208464 330.081329 
L 646.645768 336.837564 
L 647.083072 337.179666 
L 647.520376 335.997551 
L 647.95768 333.496705 
L 648.394984 330.059877 
L 648.832288 329.855519 
L 649.269592 331.083926 
L 649.706897 325.221898 
L 650.144201 321.992815 
L 650.581505 324.620115 
L 651.018809 328.798728 
L 651.456113 327.985813 
L 651.893417 323.32961 
L 652.330721 323.442515 
L 652.768025 325.482709 
L 653.205329 324.984798 
L 653.642633 302.156537 
L 654.079937 329.201799 
L 654.517241 333.588158 
L 654.954545 334.856082 
L 655.39185 338.2692 
L 655.829154 339.128407 
L 656.266458 339.141955 
L 656.703762 342.043614 
L 657.141066 343.773318 
L 657.57837 347.255308 
L 658.015674 341.974742 
L 658.452978 343.695414 
L 658.890282 343.541863 
L 659.327586 346.23126 
L 659.76489 347.153694 
L 660.202194 349.120499 
L 660.639498 345.647541 
L 661.076803 346.300132 
L 661.951411 345.736736 
L 662.388715 342.288617 
L 662.826019 341.241988 
L 663.263323 337.824354 
L 663.700627 337.758869 
L 664.137931 336.817241 
L 664.575235 337.265474 
L 665.012539 336.515785 
L 665.449843 338.456622 
L 665.887147 337.979034 
L 666.324451 333.994616 
L 666.761755 333.340896 
L 667.19906 331.146023 
L 667.636364 324.766891 
L 668.073668 329.01099 
L 668.510972 327.094992 
L 669.38558 324.70818 
L 669.822884 330.672951 
L 670.260188 332.941213 
L 670.697492 335.860936 
L 671.134796 337.656125 
L 671.5721 338.430654 
L 672.009404 333.725903 
L 672.446708 334.701402 
L 672.884013 334.308492 
L 673.321317 331.006021 
L 674.195925 335.124795 
L 674.633229 332.839598 
L 675.070533 332.131684 
L 675.507837 325.676905 
L 675.945141 327.493547 
L 676.382445 325.993039 
L 676.819749 326.511273 
L 677.257053 324.713826 
L 677.694357 332.12491 
L 678.131661 333.501222 
L 679.00627 337.172892 
L 679.443574 336.72353 
L 679.880878 336.91434 
L 680.318182 340.18181 
L 680.755486 335.930937 
L 681.19279 334.302847 
L 681.630094 333.379284 
L 682.067398 335.615932 
L 682.504702 339.89729 
L 682.942006 339.974065 
L 683.37931 338.600011 
L 683.816614 342.060549 
L 684.253918 342.019904 
L 684.691223 338.615818 
L 685.128527 340.583752 
L 685.565831 338.299684 
L 686.003135 340.345522 
L 686.440439 336.662561 
L 686.877743 330.360205 
L 687.315047 328.623726 
L 687.752351 330.322946 
L 688.189655 331.459899 
L 688.626959 327.705808 
L 689.064263 332.453463 
L 689.501567 333.823001 
L 689.938871 324.700277 
L 690.376176 326.374658 
L 690.81348 326.638856 
L 691.250784 319.910847 
L 691.688088 315.906107 
L 692.125392 321.091833 
L 692.562696 329.020022 
L 693 321.150544 
L 693.437304 320.538599 
L 693.874608 322.263787 
L 694.311912 325.408191 
L 694.749216 319.338419 
L 695.18652 320.010204 
L 695.623824 317.129997 
L 696.061129 317.429195 
L 696.935737 311.63604 
L 697.373041 310.383924 
L 697.810345 305.30207 
L 698.684953 301.449751 
L 699.122257 305.970467 
L 699.559561 301.146037 
L 699.996865 300.985712 
L 700.434169 296.429995 
L 700.871473 299.435526 
L 701.308777 301.079423 
L 701.746082 307.276778 
L 702.183386 311.015063 
L 702.62069 305.833852 
L 703.057994 308.541314 
L 703.932602 317.298226 
L 704.369906 301.161843 
L 704.80721 308.077275 
L 705.244514 312.560732 
L 705.681818 314.044304 
L 706.119122 305.075131 
L 706.556426 307.376134 
L 706.99373 312.463634 
L 707.431034 312.976222 
L 707.868339 319.533744 
L 708.305643 334.357041 
L 708.742947 330.809566 
L 709.180251 323.161382 
L 709.617555 324.350272 
L 710.054859 329.354221 
L 710.492163 330.335365 
L 710.929467 327.268866 
L 711.366771 330.490045 
L 711.804075 336.549656 
L 712.241379 320.797151 
L 712.678683 321.441839 
L 713.115987 333.046214 
L 713.553292 333.267508 
L 713.990596 316.878219 
L 714.4279 317.265483 
L 714.865204 322.005235 
L 715.302508 310.3286 
L 715.739812 302.806869 
L 716.177116 316.067561 
L 716.61442 325.937716 
L 717.051724 313.868172 
L 717.489028 310.061015 
L 718.363636 310.700058 
L 718.80094 294.634806 
L 719.238245 293.50011 
L 719.675549 302.023309 
L 720.112853 295.027715 
L 720.987461 308.217277 
L 721.862069 301.191199 
L 722.299373 309.470522 
L 722.736677 314.981415 
L 723.173981 309.55633 
L 723.611285 295.477077 
L 724.048589 297.299364 
L 724.485893 302.474929 
L 724.923197 294.215928 
L 725.360502 297.833404 
L 725.797806 305.604655 
L 726.23511 304.191085 
L 726.672414 288.177769 
L 727.109718 287.63018 
L 727.547022 279.114885 
L 727.984326 282.096706 
L 728.42163 280.168288 
L 728.858934 288.495032 
L 729.296238 288.906006 
L 729.733542 287.478887 
L 730.170846 288.769391 
L 730.60815 295.902729 
L 731.045455 297.470979 
L 731.482759 294.013828 
L 731.920063 294.637064 
L 732.357367 292.052668 
L 732.794671 285.693859 
L 733.231975 273.517055 
L 733.669279 273.080113 
L 734.106583 273.286729 
L 734.543887 279.514569 
L 734.981191 282.74478 
L 735.418495 282.089932 
L 735.855799 283.183981 
L 736.293103 276.26855 
L 736.730408 279.201822 
L 737.167712 286.79807 
L 738.04232 275.657734 
L 738.479624 278.833751 
L 738.916928 273.818511 
L 739.354232 271.934127 
L 739.791536 282.630746 
L 740.22884 277.44502 
L 740.666144 273.845609 
L 741.103448 264.677723 
L 741.540752 269.505541 
L 741.978056 269.323764 
L 742.415361 267.953097 
L 742.852665 257.531966 
L 743.289969 256.198558 
L 743.727273 261.447511 
L 744.601881 256.400658 
L 745.039185 257.08712 
L 745.476489 263.788032 
L 745.913793 255.9942 
L 746.351097 257.946327 
L 746.788401 252.706406 
L 747.225705 249.144254 
L 747.663009 246.612924 
L 748.100313 248.097624 
L 748.537618 258.353914 
L 748.974922 258.024232 
L 749.412226 259.433286 
L 749.84953 258.318914 
L 750.286834 259.191669 
L 750.724138 256.414206 
L 751.161442 256.235816 
L 751.598746 255.681453 
L 752.03605 261.405736 
L 752.473354 258.024232 
L 752.910658 257.107443 
L 753.347962 261.212669 
L 753.785266 260.857018 
L 754.222571 263.58819 
L 754.659875 262.564141 
L 755.097179 271.125727 
L 755.534483 269.759577 
L 755.971787 272.822689 
L 756.409091 271.815577 
L 756.846395 273.470764 
L 757.283699 269.373442 
L 757.721003 269.336183 
L 758.158307 278.887946 
L 758.595611 283.266402 
L 759.032915 283.908831 
L 759.470219 279.910865 
L 759.907524 286.872587 
L 760.344828 286.988879 
L 760.782132 283.392855 
L 761.219436 283.819636 
L 761.65674 288.931974 
L 762.531348 282.766232 
L 762.968652 286.009993 
L 763.405956 287.454048 
L 763.84326 288.410353 
L 764.280564 290.832165 
L 764.717868 296.169185 
L 765.155172 294.934004 
L 765.592476 291.267979 
L 766.029781 291.087331 
L 766.467085 293.113975 
L 766.904389 297.500334 
L 767.341693 297.127748 
L 768.216301 302.682674 
L 768.653605 309.609395 
L 769.090909 310.779091 
L 769.528213 316.667087 
L 769.965517 316.238048 
L 770.402821 321.783941 
L 770.840125 322.719923 
L 771.277429 326.149977 
L 771.714734 327.629033 
L 772.152038 332.176846 
L 772.589342 338.800982 
L 773.026646 340.731658 
L 773.46395 338.892435 
L 773.901254 331.000376 
L 774.338558 330.390689 
L 774.775862 330.369237 
L 775.213166 331.421512 
L 775.65047 329.554063 
L 776.087774 330.963117 
L 776.525078 334.902373 
L 776.962382 333.451543 
L 777.399687 330.810696 
L 777.836991 328.88002 
L 778.274295 328.169848 
L 778.711599 328.946634 
L 779.148903 327.503708 
L 779.586207 326.680631 
L 780.023511 330.676339 
L 780.460815 327.652743 
L 780.898119 330.203267 
L 781.335423 326.218849 
L 782.210031 331.882164 
L 782.647335 332.871212 
L 783.084639 331.746678 
L 783.959248 344.748817 
L 784.396552 346.477393 
L 784.833856 349.686153 
L 785.27116 350.231484 
L 785.708464 354.985913 
L 786.145768 354.544455 
L 786.583072 356.102544 
L 787.020376 355.854153 
L 787.45768 362.149735 
L 787.894984 364.132347 
L 788.332288 369.800178 
L 789.206897 376.764158 
L 790.081505 396.918829 
L 790.518809 401.628096 
L 791.393417 408.217232 
L 792.268025 417.563507 
L 792.705329 420.242743 
L 793.142633 419.848705 
L 794.017241 426.137513 
L 794.454545 427.201078 
L 794.89185 425.909445 
L 795.329154 419.080951 
L 795.766458 424.635876 
L 796.641066 418.680138 
L 797.07837 417.962062 
L 797.515674 417.662864 
L 797.952978 414.891046 
L 798.390282 415.087501 
L 798.827586 411.38083 
L 799.26489 410.439202 
L 799.702194 411.377443 
L 800.139498 413.752964 
L 800.576803 407.230442 
L 801.014107 406.207523 
L 801.451411 406.910921 
L 801.888715 407.272217 
L 802.326019 406.590271 
L 802.763323 404.192169 
L 803.200627 403.171508 
L 803.637931 403.273122 
L 804.075235 397.792714 
L 804.512539 398.080621 
L 804.949843 396.116074 
L 805.387147 398.445304 
L 805.824451 395.495097 
L 806.261755 394.753311 
L 806.69906 394.878636 
L 807.136364 394.385241 
L 807.573668 392.041333 
L 808.010972 396.572211 
L 808.448276 399.22322 
L 808.88558 397.39303 
L 809.322884 396.119462 
L 809.760188 399.222091 
L 810.197492 398.886763 
L 810.634796 397.041895 
L 811.0721 397.524 
L 811.509404 398.872085 
L 811.946708 394.395402 
L 812.384013 395.845102 
L 812.821317 395.519936 
L 813.258621 397.826585 
L 814.133229 385.732202 
L 814.570533 386.374631 
L 815.007837 386.74496 
L 815.882445 383.417649 
L 816.319749 382.611508 
L 816.757053 384.856059 
L 817.194357 384.630249 
L 817.631661 385.227517 
L 818.068966 388.739991 
L 818.50627 389.512261 
L 818.943574 389.84646 
L 819.380878 392.57989 
L 819.818182 392.890379 
L 820.255486 396.135268 
L 820.69279 391.610036 
L 821.130094 399.069669 
L 821.567398 411.361636 
L 822.442006 446.987679 
L 822.87931 469.094477 
L 823.753918 498.900267 
L 824.628527 538.938637 
L 825.065831 551.730773 
L 825.503135 556.306812 
L 825.940439 556.136326 
L 826.377743 558.087324 
L 826.815047 555.288409 
L 827.252351 557.080211 
L 827.689655 559.692833 
L 828.564263 552.312233 
L 830.31348 543.099186 
L 830.750784 538.81557 
L 831.188088 540.07559 
L 832.062696 533.739362 
L 832.5 537.105059 
L 832.937304 536.069721 
L 833.374608 530.606248 
L 833.811912 531.18545 
L 834.249216 528.911544 
L 835.123824 521.131261 
L 835.561129 524.603089 
L 835.998433 518.274764 
L 836.435737 520.303667 
L 836.873041 525.910529 
L 837.310345 518.281538 
L 837.747649 513.602755 
L 838.184953 520.013501 
L 838.622257 521.565945 
L 839.059561 525.624879 
L 839.496865 531.075933 
L 839.934169 534.134529 
L 840.371473 529.721073 
L 840.808777 533.418711 
L 841.246082 536.15327 
L 841.683386 531.154966 
L 842.557994 517.422331 
L 842.995298 502.555002 
L 843.432602 471.393223 
L 843.869906 470.258527 
L 845.181818 440.028215 
L 846.056426 382.092145 
L 846.49373 377.098357 
L 846.931034 362.473773 
L 847.368339 355.933186 
L 847.805643 346.476264 
L 848.242947 341.379732 
L 848.680251 334.623497 
L 849.117555 335.323508 
L 849.554859 330.938278 
L 849.992163 336.706594 
L 850.429467 332.962665 
L 850.866771 337.391928 
L 851.304075 324.769149 
L 851.741379 328.290656 
L 852.178683 319.480679 
L 852.615987 316.221112 
L 853.053292 311.137 
L 853.490596 308.078404 
L 853.9279 308.10663 
L 854.365204 310.63796 
L 854.802508 306.590316 
L 855.239812 305.659979 
L 855.677116 306.951612 
L 856.11442 309.574395 
L 856.551724 308.426151 
L 856.989028 310.968771 
L 857.426332 316.501116 
L 857.863636 316.208692 
L 858.30094 316.050625 
L 858.738245 317.213547 
L 859.175549 313.723653 
L 859.612853 311.712815 
L 860.050157 311.542329 
L 860.487461 317.370485 
L 860.924765 318.005011 
L 861.362069 323.269771 
L 861.799373 318.237595 
L 862.236677 315.033351 
L 862.673981 314.197854 
L 863.111285 312.544925 
L 863.548589 318.095335 
L 863.985893 314.944156 
L 864.423197 314.657378 
L 864.860502 314.735282 
L 865.297806 314.465439 
L 865.73511 316.802573 
L 866.609718 313.298002 
L 867.047022 312.887027 
L 867.484326 316.865799 
L 867.92163 314.745444 
L 868.358934 316.4616 
L 868.796238 316.803702 
L 869.233542 320.336499 
L 870.10815 323.95962 
L 870.545455 343.905417 
L 870.982759 355.367532 
L 871.420063 361.07488 
L 871.857367 358.123543 
L 872.294671 359.395982 
L 872.731975 361.202462 
L 873.169279 365.36527 
L 873.606583 365.303172 
L 874.043887 369.680499 
L 874.481191 371.68682 
L 874.918495 369.093393 
L 875.355799 367.233847 
L 875.793103 367.721597 
L 876.230408 369.411785 
L 876.667712 368.558223 
L 877.105016 368.283864 
L 877.979624 370.346638 
L 878.416928 370.969874 
L 878.854232 370.261959 
L 879.291536 366.072055 
L 879.72884 368.815646 
L 880.166144 365.981731 
L 880.603448 365.956892 
L 881.040752 364.628 
L 882.352665 357.97225 
L 882.789969 352.666845 
L 883.227273 351.684571 
L 883.664577 351.535537 
L 884.539185 346.249325 
L 884.976489 344.804141 
L 885.413793 347.082564 
L 886.288401 348.200323 
L 886.725705 346.327229 
L 887.163009 346.663686 
L 888.037618 350.915688 
L 888.474922 357.753215 
L 888.912226 359.80357 
L 889.34953 360.067767 
L 889.786834 358.560485 
L 890.224138 354.742039 
L 890.661442 356.375774 
L 891.098746 351.74554 
L 891.53605 341.698124 
L 891.973354 344.798495 
L 892.410658 339.865676 
L 892.847962 331.908132 
L 893.285266 334.989309 
L 893.722571 332.713145 
L 894.159875 328.85631 
L 894.597179 319.129545 
L 895.034483 316.623054 
L 895.471787 318.05356 
L 895.909091 316.494342 
L 896.346395 298.863098 
L 896.783699 314.404471 
L 897.221003 319.07535 
L 897.658307 317.735168 
L 898.095611 312.422988 
L 898.532915 314.835768 
L 898.970219 314.062368 
L 899.407524 313.999142 
L 899.844828 311.037644 
L 900.282132 309.7223 
L 900.719436 314.433826 
L 901.15674 315.455616 
L 901.594044 309.501007 
L 902.031348 306.860159 
L 902.468652 310.751994 
L 902.905956 306.752899 
L 903.34326 307.34565 
L 903.780564 305.122551 
L 904.217868 301.257813 
L 904.655172 301.045551 
L 905.092476 300.353444 
L 905.529781 297.849211 
L 905.967085 292.106863 
L 906.404389 294.673193 
L 906.841693 290.604097 
L 907.278997 277.57599 
L 907.716301 279.012141 
L 908.153605 279.678281 
L 908.590909 278.816816 
L 909.028213 272.736882 
L 909.902821 265.302088 
L 910.340125 264.953211 
L 910.777429 259.80926 
L 911.214734 250.626696 
L 911.652038 246.740506 
L 912.089342 241.835913 
L 912.526646 242.503182 
L 912.96395 239.812656 
L 913.401254 230.713642 
L 913.838558 227.677627 
L 914.275862 228.265862 
L 914.713166 227.835694 
L 915.15047 229.19507 
L 915.587774 224.494835 
L 916.025078 225.240008 
L 916.462382 228.666674 
L 917.336991 237.101807 
L 917.774295 245.553875 
L 918.211599 250.416693 
L 918.648903 250.543147 
L 919.086207 251.273642 
L 919.523511 258.836018 
L 919.960815 260.995891 
L 920.398119 265.636286 
L 920.835423 272.75043 
L 921.272727 272.161066 
L 921.710031 272.381231 
L 922.584639 275.883544 
L 923.021944 272.088807 
L 923.896552 261.166378 
L 924.333856 259.257154 
L 924.77116 259.053925 
L 925.208464 258.027619 
L 926.083072 245.188063 
L 926.520376 247.611004 
L 927.394984 229.918791 
L 927.832288 229.164585 
L 928.706897 219.961699 
L 929.144201 223.821921 
L 929.581505 223.654822 
L 930.456113 228.331347 
L 930.893417 228.919582 
L 931.330721 225.128232 
L 931.768025 227.061165 
L 932.205329 230.921387 
L 932.642633 229.630883 
L 933.079937 221.165266 
L 933.517241 235.486136 
L 933.954545 239.625233 
L 933.954545 239.625233 
" style="fill:none;stroke:#ff0000;stroke-linecap:square;stroke-width:1.5;"/>
   </g>
   <g id="line2d_34">
    <path clip-path="url(#pe769f279f1)" d="M 173.045455 478.082844 
L 174.357367 480.406428 
L 174.794671 481.473381 
L 175.231975 481.739836 
L 175.669279 481.366121 
L 176.106583 482.488397 
L 176.543887 484.052131 
L 177.418495 484.391975 
L 177.855799 483.751803 
L 178.293103 482.879048 
L 178.730408 481.226119 
L 179.167712 479.083182 
L 179.605016 477.578158 
L 180.04232 477.071215 
L 180.479624 477.651547 
L 180.916928 479.162215 
L 183.540752 495.277145 
L 183.978056 497.698958 
L 184.415361 499.123819 
L 184.852665 500.937073 
L 185.289969 502.130479 
L 185.727273 501.259981 
L 186.601881 498.426066 
L 187.039185 495.467955 
L 188.788401 479.276249 
L 189.663009 475.705064 
L 190.100313 475.103281 
L 190.537618 474.213589 
L 190.974922 473.620838 
L 191.84953 471.599839 
L 192.286834 471.705969 
L 192.724138 471.549031 
L 193.161442 468.964636 
L 194.910658 446.960581 
L 195.347962 444.501511 
L 195.785266 445.078455 
L 196.222571 444.964421 
L 196.659875 444.425864 
L 197.097179 444.349089 
L 197.534483 445.527817 
L 197.971787 445.989598 
L 198.409091 445.929759 
L 198.846395 445.217328 
L 199.283699 443.498914 
L 199.721003 443.728111 
L 200.158307 444.59748 
L 200.595611 444.380702 
L 201.032915 442.809065 
L 201.470219 440.798227 
L 201.907524 440.325155 
L 202.344828 439.618369 
L 202.782132 438.468997 
L 203.219436 435.937667 
L 203.65674 431.686793 
L 204.094044 426.065254 
L 204.531348 422.163257 
L 204.968652 421.677766 
L 205.84326 422.879075 
L 206.280564 422.128256 
L 206.717868 420.299196 
L 208.029781 410.574688 
L 208.467085 413.133115 
L 208.904389 420.339841 
L 209.778997 437.329785 
L 210.216301 442.356316 
L 210.653605 443.942631 
L 211.090909 443.003261 
L 211.528213 441.726306 
L 211.965517 438.54803 
L 213.277429 423.690862 
L 213.714734 417.328665 
L 215.901254 378.225149 
L 216.338558 374.375088 
L 216.775862 372.751514 
L 217.213166 371.762467 
L 217.65047 371.305201 
L 218.087774 372.106827 
L 218.525078 373.937017 
L 218.962382 376.565445 
L 219.836991 384.297179 
L 220.274295 388.634989 
L 222.460815 420.482102 
L 223.335423 444.021664 
L 223.772727 452.055984 
L 224.210031 456.547345 
L 224.647335 459.756105 
L 225.084639 461.037576 
L 225.521944 459.732395 
L 225.959248 456.182661 
L 228.583072 425.349436 
L 229.45768 410.809531 
L 229.894984 407.750934 
L 230.769592 411.345829 
L 231.206897 409.988711 
L 231.644201 409.473865 
L 232.081505 409.611609 
L 232.518809 411.462121 
L 232.956113 415.089759 
L 233.830721 425.630569 
L 234.705329 444.127795 
L 235.579937 450.493379 
L 236.017241 451.993886 
L 236.454545 451.956627 
L 236.89185 450.639026 
L 237.329154 448.473508 
L 238.203762 443.510205 
L 238.641066 441.159523 
L 239.515674 435.228623 
L 240.390282 430.320643 
L 240.827586 427.485599 
L 241.26489 423.511343 
L 241.702194 418.151743 
L 242.576803 405.732193 
L 243.451411 393.598293 
L 244.763323 373.447009 
L 245.200627 368.301929 
L 246.075235 360.449386 
L 246.512539 358.069349 
L 246.949843 357.426919 
L 247.824451 352.435389 
L 248.261755 353.317177 
L 248.69906 354.725103 
L 249.136364 353.178304 
L 249.573668 352.342807 
L 250.010972 351.936349 
L 250.448276 352.050383 
L 251.322884 347.719348 
L 252.197492 344.049935 
L 252.634796 342.348457 
L 253.0721 343.223471 
L 253.509404 345.792059 
L 254.384013 349.039207 
L 254.821317 350.551005 
L 255.258621 350.357938 
L 255.695925 349.246952 
L 256.133229 347.219179 
L 257.445141 334.640433 
L 257.882445 331.397801 
L 258.319749 329.512288 
L 258.757053 328.320011 
L 259.631661 325.027702 
L 260.068966 322.873474 
L 260.943574 315.631748 
L 261.380878 310.455054 
L 262.255486 296.999036 
L 262.69279 294.561417 
L 263.130094 293.303656 
L 263.567398 292.949134 
L 264.004702 292.893811 
L 264.442006 294.564805 
L 264.87931 297.1492 
L 265.316614 299.007616 
L 265.753918 299.59698 
L 266.191223 300.886355 
L 267.065831 304.334474 
L 267.503135 304.985936 
L 268.815047 307.907917 
L 269.689655 312.65783 
L 270.126959 314.282533 
L 270.564263 314.201242 
L 271.001567 314.550118 
L 271.438871 316.159014 
L 271.876176 316.85338 
L 272.31348 317.206773 
L 272.750784 317.737426 
L 273.188088 319.000833 
L 273.625392 319.548422 
L 274.062696 317.389679 
L 274.937304 310.121984 
L 275.374608 308.172115 
L 275.811912 308.014048 
L 276.249216 308.537927 
L 276.68652 309.280842 
L 277.123824 312.661217 
L 277.561129 317.026125 
L 277.998433 319.665843 
L 278.435737 321.229578 
L 278.873041 321.184416 
L 279.310345 323.002186 
L 279.747649 323.587034 
L 280.184953 322.715407 
L 280.622257 321.479098 
L 281.059561 321.260062 
L 281.934169 318.690344 
L 282.371473 318.500664 
L 282.808777 318.728732 
L 283.683386 320.517147 
L 284.557994 325.622711 
L 286.30721 342.351844 
L 287.181818 348.673395 
L 287.619122 349.696314 
L 288.056426 350.076804 
L 288.49373 350.793751 
L 289.368339 351.048916 
L 289.805643 351.322146 
L 290.242947 351.886671 
L 290.680251 353.247176 
L 291.992163 355.927541 
L 292.429467 355.998671 
L 292.866771 354.892202 
L 293.304075 355.264789 
L 293.741379 354.868492 
L 294.178683 353.950574 
L 295.490596 352.45797 
L 295.9279 352.610392 
L 296.365204 352.522326 
L 296.802508 353.153465 
L 297.239812 354.664134 
L 297.677116 355.111238 
L 298.551724 353.323952 
L 298.989028 351.463277 
L 299.863636 346.690783 
L 300.738245 343.860255 
L 301.175549 343.361215 
L 301.612853 344.975756 
L 302.487461 349.67712 
L 302.924765 351.596505 
L 303.799373 356.359967 
L 304.673981 359.51792 
L 305.111285 359.899539 
L 305.548589 359.49421 
L 305.985893 359.325981 
L 306.423197 358.94775 
L 306.860502 358.413709 
L 307.297806 359.367756 
L 308.172414 364.210252 
L 308.609718 364.8301 
L 309.484326 366.935778 
L 309.92163 367.284655 
L 310.358934 366.971908 
L 310.796238 365.042361 
L 311.233542 362.553935 
L 311.670846 359.04259 
L 312.545455 349.906318 
L 312.982759 347.014821 
L 313.420063 345.420602 
L 313.857367 345.841738 
L 314.294671 346.961755 
L 314.731975 347.627895 
L 315.169279 347.260953 
L 315.606583 347.583862 
L 316.043887 349.097918 
L 316.481191 352.087642 
L 317.355799 360.654873 
L 318.230408 369.747113 
L 319.54232 380.180663 
L 319.979624 382.034563 
L 320.416928 382.503119 
L 320.854232 382.176824 
L 321.291536 382.053757 
L 321.72884 381.28939 
L 322.166144 380.809544 
L 322.603448 380.845674 
L 323.040752 380.012435 
L 324.352665 376.126245 
L 325.227273 372.739095 
L 325.664577 371.599884 
L 326.101881 369.755016 
L 326.539185 367.411108 
L 326.976489 365.786405 
L 327.413793 364.79397 
L 327.851097 363.26072 
L 328.288401 363.147815 
L 328.725705 363.355561 
L 329.163009 362.568613 
L 329.600313 361.007137 
L 330.037618 358.261287 
L 330.912226 349.774219 
L 331.786834 340.416653 
L 332.224138 338.097584 
L 332.661442 336.940308 
L 333.098746 334.614465 
L 333.53605 330.968763 
L 333.973354 325.507548 
L 334.410658 316.643377 
L 334.847962 310.557797 
L 335.285266 308.176631 
L 335.722571 307.450652 
L 336.159875 308.002757 
L 336.597179 310.032789 
L 337.034483 313.233646 
L 337.909091 323.963007 
L 338.783699 335.668997 
L 340.095611 346.786752 
L 340.532915 350.114063 
L 341.844828 354.39542 
L 342.282132 354.46655 
L 342.719436 353.06427 
L 343.15674 349.530344 
L 346.217868 308.325666 
L 347.092476 303.760917 
L 347.529781 301.270232 
L 347.967085 299.63311 
L 348.404389 298.510834 
L 348.841693 296.811614 
L 349.278997 294.482384 
L 350.590909 283.984477 
L 351.028213 282.042511 
L 351.465517 282.336064 
L 351.902821 284.449646 
L 353.214734 288.899232 
L 353.652038 291.182171 
L 354.089342 292.724453 
L 354.526646 295.916277 
L 355.401254 303.828659 
L 356.713166 312.478311 
L 357.15047 314.097369 
L 357.587774 314.263339 
L 358.025078 312.649927 
L 358.462382 310.41215 
L 358.899687 309.685042 
L 359.336991 305.395781 
L 359.774295 297.202265 
L 360.211599 292.263801 
L 361.086207 287.896635 
L 361.523511 285.933218 
L 361.960815 286.139834 
L 362.398119 286.682907 
L 362.835423 288.956813 
L 363.272727 287.342272 
L 364.584639 276.330648 
L 365.021944 276.092418 
L 365.459248 276.635491 
L 365.896552 276.582426 
L 366.333856 277.014852 
L 366.77116 281.237499 
L 367.645768 295.014166 
L 368.520376 312.481698 
L 368.95768 316.391598 
L 369.394984 317.267741 
L 369.832288 322.0583 
L 371.144201 344.937369 
L 371.581505 356.103673 
L 372.018809 360.696648 
L 372.456113 362.041347 
L 372.893417 365.260268 
L 373.330721 363.682985 
L 374.205329 343.180567 
L 374.642633 336.719014 
L 375.517241 331.501674 
L 375.954545 327.964361 
L 376.39185 327.997103 
L 376.829154 329.143089 
L 377.266458 335.662223 
L 377.703762 350.810687 
L 378.141066 371.823435 
L 379.015674 400.486627 
L 379.452978 413.048437 
L 379.890282 416.440103 
L 380.327586 406.362203 
L 381.639498 386.354308 
L 382.076803 372.726675 
L 382.951411 355.692699 
L 383.388715 351.532149 
L 384.263323 346.698687 
L 384.700627 349.036949 
L 386.012539 374.927194 
L 387.324451 400.239365 
L 387.761755 405.30767 
L 388.19906 409.080955 
L 388.636364 411.169698 
L 389.073668 409.473865 
L 389.510972 410.508074 
L 389.948276 416.268487 
L 390.38558 418.884496 
L 390.822884 418.724171 
L 391.260188 419.399343 
L 391.697492 422.087611 
L 392.134796 423.671668 
L 393.009404 422.886978 
L 393.446708 424.50152 
L 393.884013 428.191255 
L 394.321317 433.198591 
L 394.758621 435.443143 
L 396.070533 438.573998 
L 396.507837 441.856146 
L 397.819749 467.806231 
L 398.694357 475.84055 
L 399.568966 492.568555 
L 400.443574 510.489965 
L 401.318182 522.685962 
L 401.755486 526.021176 
L 402.19279 526.88377 
L 402.630094 523.539524 
L 403.942006 507.134428 
L 405.691223 479.963841 
L 406.128527 475.683612 
L 407.440439 471.517418 
L 408.315047 473.471804 
L 409.626959 479.604803 
L 410.501567 485.561671 
L 410.938871 484.901176 
L 411.376176 483.242602 
L 411.81348 483.93471 
L 412.250784 483.104858 
L 412.688088 479.697385 
L 414 463.276482 
L 415.749216 445.299749 
L 416.18652 443.436816 
L 416.623824 444.927162 
L 417.498433 450.50354 
L 417.935737 455.073934 
L 418.810345 466.078784 
L 419.684953 471.833552 
L 420.559561 477.033956 
L 420.996865 481.380799 
L 421.871473 493.558731 
L 423.183386 514.002439 
L 424.057994 524.876319 
L 424.932602 531.502714 
L 425.369906 534.065657 
L 425.80721 535.807781 
L 426.244514 537.047478 
L 426.681818 539.508807 
L 427.556426 545.001635 
L 427.99373 547.198766 
L 428.431034 548.646208 
L 428.868339 548.343623 
L 429.305643 547.833292 
L 430.180251 545.088572 
L 430.617555 545.112282 
L 431.054859 546.740372 
L 432.804075 558.019581 
L 433.241379 558.527653 
L 433.678683 557.828772 
L 434.115987 555.929709 
L 434.990596 548.752339 
L 435.865204 538.247658 
L 436.739812 527.772332 
L 437.177116 523.198551 
L 437.61442 519.887048 
L 438.489028 516.204087 
L 438.926332 515.430687 
L 439.363636 516.511188 
L 439.80094 518.789611 
L 440.675549 525.141646 
L 441.550157 527.222485 
L 441.987461 526.068596 
L 442.424765 521.736431 
L 442.862069 515.397945 
L 444.611285 482.768401 
L 445.485893 471.814358 
L 448.109718 445.404751 
L 449.42163 424.395389 
L 450.733542 404.099587 
L 452.482759 383.02474 
L 453.357367 367.518368 
L 453.794671 363.704437 
L 454.231975 362.331512 
L 454.669279 360.26648 
L 455.106583 355.778506 
L 455.543887 350.116321 
L 456.418495 334.554625 
L 456.855799 329.566482 
L 458.167712 319.773103 
L 458.605016 321.466678 
L 459.04232 322.683794 
L 459.479624 321.477969 
L 459.916928 318.257918 
L 460.354232 314.133499 
L 462.103448 292.559612 
L 462.978056 286.910975 
L 463.415361 281.858476 
L 463.852665 274.981433 
L 465.164577 245.850815 
L 466.039185 225.153071 
L 466.476489 220.963167 
L 466.913793 219.940247 
L 467.788401 216.374707 
L 468.663009 215.929862 
L 469.100313 217.098429 
L 469.537618 219.517983 
L 469.974922 220.86381 
L 470.412226 220.849132 
L 470.84953 219.882666 
L 471.286834 217.448434 
L 471.724138 214.324353 
L 472.161442 212.424162 
L 472.598746 212.014317 
L 473.03605 210.504777 
L 473.473354 208.020867 
L 473.910658 207.016012 
L 474.347962 207.667474 
L 474.785266 209.85896 
L 476.097179 219.933473 
L 476.971787 225.671305 
L 478.283699 236.017919 
L 479.158307 244.143691 
L 480.032915 251.794134 
L 480.470219 253.325126 
L 480.907524 252.468177 
L 481.344828 248.54247 
L 481.782132 240.755412 
L 482.65674 218.184575 
L 485.280564 139.840927 
L 486.155172 121.462251 
L 486.592476 117.062344 
L 487.467085 112.688404 
L 487.904389 111.6 
L 488.341693 112.617274 
L 488.778997 114.553595 
L 489.216301 118.119134 
L 490.090909 128.176712 
L 490.965517 142.580002 
L 493.152038 180.788182 
L 494.46395 209.075399 
L 496.65047 259.163443 
L 497.525078 270.038452 
L 498.399687 278.437455 
L 498.836991 279.517956 
L 499.274295 278.524392 
L 499.711599 275.404827 
L 500.586207 265.564027 
L 501.460815 251.324449 
L 502.335423 237.25197 
L 502.772727 230.641383 
L 503.210031 225.735661 
L 504.084639 219.933473 
L 504.959248 210.63123 
L 505.396552 208.687006 
L 506.27116 206.485359 
L 506.708464 206.371325 
L 507.145768 207.541021 
L 508.45768 216.382611 
L 508.894984 221.570595 
L 509.769592 238.237631 
L 511.081505 271.405732 
L 513.268025 334.556883 
L 514.579937 373.168134 
L 515.454545 391.957783 
L 515.89185 399.46032 
L 516.329154 404.556852 
L 517.641066 414.130067 
L 519.827586 428.680133 
L 523.326019 455.373133 
L 524.200627 457.437036 
L 524.637931 457.649297 
L 525.075235 456.657992 
L 525.512539 455.01974 
L 525.949843 453.844399 
L 526.387147 452.14405 
L 526.824451 449.045937 
L 527.261755 447.868338 
L 527.69906 447.047518 
L 528.136364 444.994905 
L 528.573668 444.403283 
L 529.010972 444.675384 
L 529.448276 444.172957 
L 529.88558 442.972777 
L 530.322884 440.884034 
L 530.760188 437.837858 
L 531.197492 433.095848 
L 531.634796 426.038157 
L 532.509404 405.674611 
L 534.258621 359.454693 
L 534.695925 351.965705 
L 535.570533 342.244584 
L 536.007837 340.39633 
L 536.445141 339.119374 
L 536.882445 338.881145 
L 537.319749 337.195473 
L 538.194357 329.653419 
L 538.631661 323.911071 
L 539.943574 294.889971 
L 540.818182 273.005596 
L 541.255486 267.3547 
L 541.69279 264.387557 
L 542.130094 264.792886 
L 542.567398 269.493121 
L 544.753918 299.083263 
L 545.191223 303.836563 
L 546.065831 311.524264 
L 546.503135 315.912881 
L 546.940439 319.103576 
L 547.377743 320.458436 
L 547.815047 318.139368 
L 548.689655 307.117582 
L 550.876176 273.524959 
L 551.31348 272.380102 
L 551.750784 272.959304 
L 552.188088 274.362714 
L 552.625392 274.495941 
L 553.062696 275.447731 
L 553.5 276.763074 
L 553.937304 277.285824 
L 554.811912 283.836572 
L 555.249216 287.645986 
L 556.123824 298.742289 
L 556.998433 311.187807 
L 557.873041 322.725569 
L 558.310345 326.424336 
L 559.622257 332.58782 
L 560.059561 333.5509 
L 560.934169 326.86015 
L 561.371473 325.702873 
L 561.808777 323.336385 
L 562.246082 321.931847 
L 562.683386 323.179447 
L 563.12069 325.722067 
L 563.557994 329.607128 
L 563.995298 335.453349 
L 564.432602 345.378827 
L 567.056426 431.068074 
L 567.931034 454.238437 
L 568.805643 472.324689 
L 570.117555 495.912801 
L 570.554859 502.061607 
L 570.992163 505.63505 
L 571.866771 508.292833 
L 572.304075 508.236381 
L 572.741379 506.287641 
L 573.178683 505.728761 
L 573.615987 503.953894 
L 574.9279 496.223289 
L 575.365204 494.255355 
L 575.802508 494.327614 
L 576.239812 496.796847 
L 578.426332 515.026487 
L 579.30094 524.500346 
L 579.738245 527.24055 
L 580.612853 529.953657 
L 581.050157 531.144805 
L 582.362069 533.441292 
L 583.236677 533.504519 
L 583.673981 533.730329 
L 584.548589 531.553521 
L 584.985893 531.289323 
L 585.423197 531.283678 
L 585.860502 531.092868 
L 586.297806 532.009657 
L 587.172414 534.626795 
L 587.609718 536.490856 
L 588.047022 537.653778 
L 588.484326 537.266514 
L 589.358934 534.509374 
L 589.796238 531.719491 
L 591.10815 518.335733 
L 591.982759 509.518982 
L 595.043887 466.459274 
L 595.918495 450.605155 
L 597.230408 433.503435 
L 598.54232 414.108615 
L 599.416928 403.81055 
L 600.291536 391.494873 
L 601.166144 384.003626 
L 602.915361 359.774214 
L 603.789969 343.233632 
L 604.227273 337.693384 
L 604.664577 334.588497 
L 605.101881 334.3943 
L 605.539185 335.752547 
L 606.413793 342.804593 
L 606.851097 343.15347 
L 607.725705 339.985356 
L 609.037618 329.941327 
L 609.474922 328.883407 
L 610.34953 324.991572 
L 610.786834 327.081443 
L 611.224138 326.584661 
L 611.661442 326.278689 
L 612.098746 329.075346 
L 612.53605 336.408525 
L 613.847962 348.861946 
L 614.722571 369.624046 
L 615.159875 376.258344 
L 615.597179 377.971112 
L 616.034483 377.288037 
L 616.471787 369.71437 
L 617.783699 333.833162 
L 619.532915 262.763983 
L 620.407524 244.966769 
L 621.282132 225.087586 
L 622.594044 187.131184 
L 623.468652 176.969735 
L 624.34326 161.907079 
L 624.780564 158.40025 
L 625.217868 156.867 
L 625.655172 156.662642 
L 626.092476 157.12894 
L 626.967085 163.591622 
L 627.841693 175.602455 
L 628.716301 188.971536 
L 629.590909 198.300876 
L 630.465517 214.832425 
L 630.902821 220.622193 
L 631.340125 229.323782 
L 632.214734 254.107557 
L 633.089342 278.65762 
L 633.96395 298.180023 
L 634.401254 304.500444 
L 634.838558 307.825496 
L 635.275862 310.287954 
L 635.713166 310.283438 
L 636.15047 307.840174 
L 636.587774 302.926549 
L 637.462382 288.606808 
L 638.336991 267.827772 
L 639.648903 236.816157 
L 640.086207 228.479252 
L 640.960815 216.308094 
L 642.272727 191.683514 
L 643.147335 178.046848 
L 643.584639 173.015802 
L 644.021944 171.741104 
L 644.459248 172.408373 
L 644.896552 172.17466 
L 645.333856 173.257418 
L 646.208464 176.348757 
L 646.645768 177.375064 
L 647.520376 181.323351 
L 647.95768 183.086927 
L 648.394984 183.40532 
L 648.832288 185.751485 
L 649.269592 189.697515 
L 651.018809 221.540111 
L 651.456113 225.412752 
L 651.893417 224.205798 
L 652.768025 221.165266 
L 653.205329 220.596225 
L 653.642633 217.666341 
L 654.079937 219.11717 
L 654.954545 244.843702 
L 655.39185 257.867294 
L 656.266458 274.342391 
L 656.703762 278.732137 
L 657.141066 281.534439 
L 658.015674 282.876879 
L 658.452978 281.038786 
L 658.890282 278.141644 
L 659.327586 277.052111 
L 659.76489 277.332115 
L 660.202194 278.723105 
L 660.639498 278.915043 
L 661.514107 278.725363 
L 662.388715 281.834766 
L 664.575235 292.961554 
L 665.449843 296.638869 
L 665.887147 300.366992 
L 667.19906 315.925301 
L 667.636364 321.914911 
L 668.073668 325.42174 
L 668.510972 330.766663 
L 670.697492 370.041795 
L 672.446708 391.138093 
L 673.321317 398.431756 
L 673.758621 399.406126 
L 674.195925 397.995943 
L 674.633229 394.221529 
L 675.945141 376.88045 
L 676.819749 361.836988 
L 677.257053 357.088204 
L 677.694357 354.545584 
L 678.131661 350.955205 
L 678.568966 346.398359 
L 679.00627 343.103792 
L 679.443574 341.640543 
L 679.880878 336.021261 
L 680.318182 327.958715 
L 680.755486 332.809114 
L 682.942006 364.202348 
L 683.816614 373.203134 
L 684.253918 376.077696 
L 684.691223 376.330603 
L 685.128527 375.60914 
L 686.003135 373.347653 
L 686.440439 372.247958 
L 686.877743 370.409865 
L 689.064263 355.242208 
L 690.376176 342.287488 
L 690.81348 339.008727 
L 691.250784 337.179666 
L 691.688088 336.288846 
L 692.125392 337.339991 
L 692.562696 338.069358 
L 693 338.088552 
L 693.437304 338.270329 
L 693.874608 337.114181 
L 694.311912 335.528995 
L 694.749216 335.755934 
L 695.623824 335.453349 
L 696.061129 336.479655 
L 696.498433 340.08697 
L 697.810345 356.169158 
L 698.247649 359.020009 
L 698.684953 358.983879 
L 699.122257 358.219512 
L 699.996865 353.755249 
L 700.434169 352.888138 
L 700.871473 352.381195 
L 701.308777 351.374082 
L 701.746082 348.821301 
L 702.183386 344.651719 
L 703.057994 338.528881 
L 703.495298 336.437881 
L 703.932602 335.390122 
L 704.369906 337.60306 
L 705.244514 344.92382 
L 705.681818 348.712912 
L 706.556426 352.66007 
L 706.99373 353.758636 
L 707.431034 352.788782 
L 708.305643 350.510359 
L 708.742947 351.153918 
L 709.180251 353.156852 
L 710.492163 357.131108 
L 710.929467 356.717876 
L 711.366771 354.953171 
L 711.804075 353.67057 
L 712.241379 351.659732 
L 712.678683 350.42681 
L 713.115987 347.656121 
L 713.990596 338.627108 
L 714.865204 333.935906 
L 715.302508 332.905083 
L 715.739812 334.631401 
L 716.177116 334.713821 
L 716.61442 332.743629 
L 717.051724 331.989424 
L 717.489028 330.837793 
L 717.926332 327.624517 
L 718.363636 325.748035 
L 718.80094 327.925973 
L 719.238245 331.855067 
L 719.675549 332.541529 
L 720.112853 333.440253 
L 720.987461 336.873694 
L 721.424765 336.297878 
L 721.862069 335.182377 
L 722.736677 332.06507 
L 723.611285 324.4835 
L 724.048589 320.105044 
L 724.923197 308.325666 
L 725.360502 304.558026 
L 725.797806 303.082357 
L 726.23511 302.367669 
L 726.672414 301.155069 
L 727.109718 300.588286 
L 727.547022 302.217505 
L 727.984326 306.277569 
L 728.858934 318.648569 
L 729.296238 321.848297 
L 730.60815 335.6419 
L 731.045455 333.679611 
L 731.482759 334.698015 
L 731.920063 336.445784 
L 732.357367 337.467574 
L 732.794671 336.013358 
L 733.231975 336.172554 
L 734.106583 338.505171 
L 734.543887 342.319102 
L 734.981191 347.7758 
L 735.418495 349.671475 
L 735.855799 349.007594 
L 736.293103 349.358728 
L 737.167712 352.473777 
L 737.605016 353.636699 
L 738.04232 356.744973 
L 738.479624 357.422403 
L 738.916928 352.689426 
L 739.354232 350.87843 
L 739.791536 352.845235 
L 740.22884 351.659732 
L 740.666144 345.314471 
L 741.540752 337.004664 
L 742.415361 323.860264 
L 743.289969 329.950359 
L 743.727273 329.202928 
L 744.164577 327.886456 
L 744.601881 326.936925 
L 745.039185 323.469613 
L 745.476489 315.30771 
L 745.913793 310.240534 
L 746.351097 308.16534 
L 746.788401 307.166131 
L 748.100313 318.788572 
L 748.537618 322.015396 
L 749.412226 335.198184 
L 749.84953 336.14094 
L 750.286834 331.302961 
L 750.724138 327.939521 
L 751.161442 325.657711 
L 751.598746 320.924734 
L 752.03605 317.963236 
L 752.473354 318.510825 
L 752.910658 315.330291 
L 754.222571 288.530033 
L 754.659875 283.247208 
L 755.097179 280.668458 
L 755.971787 287.607599 
L 756.409091 291.918311 
L 756.846395 297.572594 
L 757.721003 312.665734 
L 758.158307 317.568068 
L 758.595611 320.923605 
L 759.032915 321.445226 
L 759.470219 316.072077 
L 760.344828 299.335041 
L 760.782132 294.469964 
L 761.219436 295.610305 
L 762.094044 299.294395 
L 762.531348 299.183748 
L 762.968652 296.830808 
L 763.405956 297.696789 
L 763.84326 299.425365 
L 764.280564 297.827759 
L 765.155172 293.169299 
L 765.592476 288.444225 
L 766.029781 287.371627 
L 766.467085 289.746019 
L 766.904389 290.736196 
L 767.341693 288.616969 
L 767.778997 284.874169 
L 768.216301 283.769958 
L 768.653605 283.073334 
L 769.090909 280.132159 
L 769.528213 274.460941 
L 769.965517 271.396699 
L 770.402821 270.950725 
L 771.277429 269.009888 
L 771.714734 271.374118 
L 772.152038 274.873044 
L 772.589342 275.856447 
L 773.026646 276.365648 
L 773.46395 274.844818 
L 774.338558 269.266182 
L 774.775862 270.098292 
L 776.087774 283.291241 
L 776.525078 286.557582 
L 776.962382 287.960991 
L 777.399687 287.888732 
L 777.836991 287.358079 
L 778.711599 289.012137 
L 779.148903 288.291803 
L 779.586207 289.061815 
L 780.460815 292.11025 
L 780.898119 294.003667 
L 781.335423 297.031779 
L 782.210031 304.963355 
L 782.647335 307.428071 
L 783.084639 308.42728 
L 783.521944 307.754366 
L 783.959248 305.00513 
L 784.396552 304.263344 
L 785.708464 312.916383 
L 786.145768 314.515117 
L 786.583072 316.549665 
L 787.020376 316.872574 
L 787.45768 315.088675 
L 787.894984 314.174144 
L 788.332288 314.431568 
L 789.206897 311.690234 
L 789.644201 311.571684 
L 790.081505 312.149758 
L 790.518809 313.103805 
L 791.393417 318.657602 
L 791.830721 319.677134 
L 792.705329 318.189046 
L 793.142633 318.960187 
L 794.017241 323.773327 
L 794.454545 326.982087 
L 794.89185 331.554739 
L 796.203762 347.907899 
L 797.515674 359.77873 
L 798.390282 366.477384 
L 799.26489 376.59593 
L 799.702194 379.812593 
L 800.139498 378.855159 
L 801.451411 365.364141 
L 802.326019 357.560147 
L 802.763323 355.181239 
L 803.200627 354.392033 
L 803.637931 352.937817 
L 804.512539 349.174693 
L 804.949843 348.335809 
L 805.387147 348.467908 
L 805.824451 348.357261 
L 806.261755 349.52357 
L 807.136364 353.864767 
L 807.573668 355.697215 
L 808.010972 356.199642 
L 808.448276 358.513065 
L 809.760188 368.35951 
L 811.509404 391.037608 
L 812.384013 398.668856 
L 812.821317 400.592758 
L 813.258621 400.977764 
L 813.695925 401.645032 
L 814.570533 405.327993 
L 815.445141 410.050809 
L 815.882445 413.541832 
L 816.757053 426.72349 
L 817.631661 439.366591 
L 818.50627 447.624463 
L 818.943574 450.084663 
L 819.380878 450.944999 
L 819.818182 450.033855 
L 820.255486 448.742222 
L 820.69279 447.833337 
L 821.130094 446.205247 
L 822.87931 429.082075 
L 824.191223 414.774754 
L 825.503135 404.643789 
L 825.940439 402.609241 
L 826.377743 401.870842 
L 826.815047 401.768099 
L 827.252351 400.843407 
L 827.689655 400.728243 
L 828.126959 401.752292 
L 829.438871 406.494302 
L 829.876176 407.285766 
L 830.31348 407.274475 
L 831.625392 404.113135 
L 832.937304 402.734565 
L 833.811912 403.154572 
L 834.249216 403.8941 
L 835.123824 409.269506 
L 835.561129 410.618721 
L 835.998433 411.316474 
L 836.435737 412.390201 
L 836.873041 412.535848 
L 837.747649 410.749691 
L 838.184953 409.494187 
L 839.059561 406.081069 
L 839.496865 405.08186 
L 839.934169 403.380382 
L 840.371473 399.486289 
L 841.246082 390.079044 
L 842.557994 381.042128 
L 842.995298 379.502104 
L 843.432602 379.654526 
L 843.869906 380.202115 
L 844.30721 381.525362 
L 845.619122 389.367743 
L 846.49373 395.163156 
L 847.368339 398.483692 
L 847.805643 404.158297 
L 848.242947 415.566218 
L 848.680251 432.841812 
L 849.992163 505.762632 
L 851.304075 582.054797 
L 851.741379 601.008158 
L 852.178683 612.019783 
L 852.615987 615.6 
L 853.053292 613.614001 
L 853.490596 606.180336 
L 853.9279 595.965821 
L 854.802508 567.656022 
L 856.551724 504.032928 
L 857.426332 480.613045 
L 858.30094 466.323788 
L 858.738245 462.320177 
L 859.175549 461.540004 
L 859.612853 461.160643 
L 860.050157 461.205805 
L 860.924765 463.45713 
L 861.362069 463.347613 
L 861.799373 463.853427 
L 862.236677 464.102947 
L 862.673981 464.125528 
L 863.548589 468.126881 
L 863.985893 467.487839 
L 864.423197 468.027525 
L 864.860502 470.361271 
L 865.297806 473.591483 
L 865.73511 478.332364 
L 866.609718 489.330439 
L 867.92163 498.806556 
L 868.358934 497.911219 
L 868.796238 493.70325 
L 869.233542 485.263601 
L 869.670846 469.782068 
L 870.545455 431.267916 
L 871.857367 378.427249 
L 873.169279 302.085406 
L 874.043887 265.697255 
L 874.481191 254.751116 
L 874.918495 248.98167 
L 875.355799 247.780361 
L 875.793103 251.76365 
L 876.230408 259.554094 
L 877.105016 285.562889 
L 877.979624 310.939416 
L 878.416928 320.729408 
L 878.854232 326.340787 
L 879.291536 329.49761 
L 879.72884 329.896165 
L 880.166144 329.365512 
L 880.603448 329.395996 
L 881.040752 329.584547 
L 881.915361 328.233074 
L 882.352665 328.492756 
L 882.789969 329.760679 
L 883.227273 330.474239 
L 883.664577 332.677015 
L 884.101881 336.114972 
L 884.976489 340.098261 
L 885.413793 340.74069 
L 885.851097 340.058744 
L 886.288401 338.099842 
L 886.725705 336.909823 
L 887.163009 336.909823 
L 887.600313 336.359976 
L 888.037618 336.35546 
L 888.474922 335.139473 
L 888.912226 332.911857 
L 889.34953 329.777615 
L 889.786834 327.60871 
L 890.224138 326.908699 
L 891.53605 322.920894 
L 891.973354 322.269433 
L 892.410658 322.289755 
L 892.847962 321.708295 
L 893.285266 321.570551 
L 893.722571 322.605889 
L 895.471787 332.607014 
L 896.346395 339.381314 
L 896.783699 346.173678 
L 898.095611 386.341889 
L 898.532915 394.152657 
L 899.407524 403.185056 
L 899.844828 405.428478 
L 900.719436 405.989616 
L 901.15674 404.09507 
L 901.594044 399.561935 
L 902.468652 388.176595 
L 903.780564 374.34912 
L 904.217868 371.563754 
L 905.092476 368.053538 
L 908.590909 350.526166 
L 909.028213 348.023062 
L 909.902821 340.601817 
L 911.652038 329.55745 
L 912.089342 329.018893 
L 912.526646 329.288736 
L 912.96395 329.841971 
L 913.401254 331.020699 
L 913.838558 332.821533 
L 914.275862 336.128521 
L 914.713166 341.082792 
L 915.587774 353.773314 
L 916.025078 358.211609 
L 916.462382 359.876958 
L 916.899687 359.682761 
L 917.336991 358.088543 
L 917.774295 353.233628 
L 918.211599 346.40965 
L 918.648903 341.520863 
L 919.523511 328.620339 
L 920.398119 320.933766 
L 921.710031 302.200569 
L 922.147335 299.275201 
L 923.021944 288.69939 
L 923.459248 292.638645 
L 924.333856 304.738674 
L 925.645768 317.7092 
L 926.083072 320.425694 
L 926.95768 323.812844 
L 927.394984 326.539499 
L 927.832288 327.968877 
L 929.144201 323.110575 
L 930.018809 317.977914 
L 932.642633 293.00107 
L 933.079937 291.083944 
L 933.517241 286.408548 
L 933.954545 280.068932 
L 933.954545 280.068932 
" style="fill:none;stroke:#0000ff;stroke-linecap:square;stroke-width:1.5;"/>
   </g>
   <g id="patch_3">
    <path d="M 135 640.8 
L 135 86.4 
" style="fill:none;stroke:#000000;stroke-linecap:square;stroke-linejoin:miter;stroke-width:0.8;"/>
   </g>
   <g id="patch_4">
    <path d="M 972 640.8 
L 972 86.4 
" style="fill:none;stroke:#000000;stroke-linecap:square;stroke-linejoin:miter;stroke-width:0.8;"/>
   </g>
   <g id="patch_5">
    <path d="M 135 640.8 
L 972 640.8 
" style="fill:none;stroke:#000000;stroke-linecap:square;stroke-linejoin:miter;stroke-width:0.8;"/>
   </g>
   <g id="patch_6">
    <path d="M 135 86.4 
L 972 86.4 
" style="fill:none;stroke:#000000;stroke-linecap:square;stroke-linejoin:miter;stroke-width:0.8;"/>
   </g>
   <g id="text_17">
    <!-- Evaluation Preds N:60 -->
    <defs>
     <path d="M 9.8125 72.90625 
L 55.90625 72.90625 
L 55.90625 64.59375 
L 19.671875 64.59375 
L 19.671875 43.015625 
L 54.390625 43.015625 
L 54.390625 34.71875 
L 19.671875 34.71875 
L 19.671875 8.296875 
L 56.78125 8.296875 
L 56.78125 0 
L 9.8125 0 
z
" id="DejaVuSans-69"/>
     <path d="M 2.984375 54.6875 
L 12.5 54.6875 
L 29.59375 8.796875 
L 46.6875 54.6875 
L 56.203125 54.6875 
L 35.6875 0 
L 23.484375 0 
z
" id="DejaVuSans-118"/>
     <path d="M 34.28125 27.484375 
Q 23.390625 27.484375 19.1875 25 
Q 14.984375 22.515625 14.984375 16.5 
Q 14.984375 11.71875 18.140625 8.90625 
Q 21.296875 6.109375 26.703125 6.109375 
Q 34.1875 6.109375 38.703125 11.40625 
Q 43.21875 16.703125 43.21875 25.484375 
L 43.21875 27.484375 
z
M 52.203125 31.203125 
L 52.203125 0 
L 43.21875 0 
L 43.21875 8.296875 
Q 40.140625 3.328125 35.546875 0.953125 
Q 30.953125 -1.421875 24.3125 -1.421875 
Q 15.921875 -1.421875 10.953125 3.296875 
Q 6 8.015625 6 15.921875 
Q 6 25.140625 12.171875 29.828125 
Q 18.359375 34.515625 30.609375 34.515625 
L 43.21875 34.515625 
L 43.21875 35.40625 
Q 43.21875 41.609375 39.140625 45 
Q 35.0625 48.390625 27.6875 48.390625 
Q 23 48.390625 18.546875 47.265625 
Q 14.109375 46.140625 10.015625 43.890625 
L 10.015625 52.203125 
Q 14.9375 54.109375 19.578125 55.046875 
Q 24.21875 56 28.609375 56 
Q 40.484375 56 46.34375 49.84375 
Q 52.203125 43.703125 52.203125 31.203125 
z
" id="DejaVuSans-97"/>
     <path d="M 9.421875 75.984375 
L 18.40625 75.984375 
L 18.40625 0 
L 9.421875 0 
z
" id="DejaVuSans-108"/>
     <path d="M 8.5 21.578125 
L 8.5 54.6875 
L 17.484375 54.6875 
L 17.484375 21.921875 
Q 17.484375 14.15625 20.5 10.265625 
Q 23.53125 6.390625 29.59375 6.390625 
Q 36.859375 6.390625 41.078125 11.03125 
Q 45.3125 15.671875 45.3125 23.6875 
L 45.3125 54.6875 
L 54.296875 54.6875 
L 54.296875 0 
L 45.3125 0 
L 45.3125 8.40625 
Q 42.046875 3.421875 37.71875 1 
Q 33.40625 -1.421875 27.6875 -1.421875 
Q 18.265625 -1.421875 13.375 4.4375 
Q 8.5 10.296875 8.5 21.578125 
z
M 31.109375 56 
z
" id="DejaVuSans-117"/>
     <path d="M 18.3125 70.21875 
L 18.3125 54.6875 
L 36.8125 54.6875 
L 36.8125 47.703125 
L 18.3125 47.703125 
L 18.3125 18.015625 
Q 18.3125 11.328125 20.140625 9.421875 
Q 21.96875 7.515625 27.59375 7.515625 
L 36.8125 7.515625 
L 36.8125 0 
L 27.59375 0 
Q 17.1875 0 13.234375 3.875 
Q 9.28125 7.765625 9.28125 18.015625 
L 9.28125 47.703125 
L 2.6875 47.703125 
L 2.6875 54.6875 
L 9.28125 54.6875 
L 9.28125 70.21875 
z
" id="DejaVuSans-116"/>
     <path d="M 9.421875 54.6875 
L 18.40625 54.6875 
L 18.40625 0 
L 9.421875 0 
z
M 9.421875 75.984375 
L 18.40625 75.984375 
L 18.40625 64.59375 
L 9.421875 64.59375 
z
" id="DejaVuSans-105"/>
     <path d="M 30.609375 48.390625 
Q 23.390625 48.390625 19.1875 42.75 
Q 14.984375 37.109375 14.984375 27.296875 
Q 14.984375 17.484375 19.15625 11.84375 
Q 23.34375 6.203125 30.609375 6.203125 
Q 37.796875 6.203125 41.984375 11.859375 
Q 46.1875 17.53125 46.1875 27.296875 
Q 46.1875 37.015625 41.984375 42.703125 
Q 37.796875 48.390625 30.609375 48.390625 
z
M 30.609375 56 
Q 42.328125 56 49.015625 48.375 
Q 55.71875 40.765625 55.71875 27.296875 
Q 55.71875 13.875 49.015625 6.21875 
Q 42.328125 -1.421875 30.609375 -1.421875 
Q 18.84375 -1.421875 12.171875 6.21875 
Q 5.515625 13.875 5.515625 27.296875 
Q 5.515625 40.765625 12.171875 48.375 
Q 18.84375 56 30.609375 56 
z
" id="DejaVuSans-111"/>
     <path d="M 54.890625 33.015625 
L 54.890625 0 
L 45.90625 0 
L 45.90625 32.71875 
Q 45.90625 40.484375 42.875 44.328125 
Q 39.84375 48.1875 33.796875 48.1875 
Q 26.515625 48.1875 22.3125 43.546875 
Q 18.109375 38.921875 18.109375 30.90625 
L 18.109375 0 
L 9.078125 0 
L 9.078125 54.6875 
L 18.109375 54.6875 
L 18.109375 46.1875 
Q 21.34375 51.125 25.703125 53.5625 
Q 30.078125 56 35.796875 56 
Q 45.21875 56 50.046875 50.171875 
Q 54.890625 44.34375 54.890625 33.015625 
z
" id="DejaVuSans-110"/>
     <path id="DejaVuSans-32"/>
     <path d="M 19.671875 64.796875 
L 19.671875 37.40625 
L 32.078125 37.40625 
Q 38.96875 37.40625 42.71875 40.96875 
Q 46.484375 44.53125 46.484375 51.125 
Q 46.484375 57.671875 42.71875 61.234375 
Q 38.96875 64.796875 32.078125 64.796875 
z
M 9.8125 72.90625 
L 32.078125 72.90625 
Q 44.34375 72.90625 50.609375 67.359375 
Q 56.890625 61.8125 56.890625 51.125 
Q 56.890625 40.328125 50.609375 34.8125 
Q 44.34375 29.296875 32.078125 29.296875 
L 19.671875 29.296875 
L 19.671875 0 
L 9.8125 0 
z
" id="DejaVuSans-80"/>
     <path d="M 41.109375 46.296875 
Q 39.59375 47.171875 37.8125 47.578125 
Q 36.03125 48 33.890625 48 
Q 26.265625 48 22.1875 43.046875 
Q 18.109375 38.09375 18.109375 28.8125 
L 18.109375 0 
L 9.078125 0 
L 9.078125 54.6875 
L 18.109375 54.6875 
L 18.109375 46.1875 
Q 20.953125 51.171875 25.484375 53.578125 
Q 30.03125 56 36.53125 56 
Q 37.453125 56 38.578125 55.875 
Q 39.703125 55.765625 41.0625 55.515625 
z
" id="DejaVuSans-114"/>
     <path d="M 56.203125 29.59375 
L 56.203125 25.203125 
L 14.890625 25.203125 
Q 15.484375 15.921875 20.484375 11.0625 
Q 25.484375 6.203125 34.421875 6.203125 
Q 39.59375 6.203125 44.453125 7.46875 
Q 49.3125 8.734375 54.109375 11.28125 
L 54.109375 2.78125 
Q 49.265625 0.734375 44.1875 -0.34375 
Q 39.109375 -1.421875 33.890625 -1.421875 
Q 20.796875 -1.421875 13.15625 6.1875 
Q 5.515625 13.8125 5.515625 26.8125 
Q 5.515625 40.234375 12.765625 48.109375 
Q 20.015625 56 32.328125 56 
Q 43.359375 56 49.78125 48.890625 
Q 56.203125 41.796875 56.203125 29.59375 
z
M 47.21875 32.234375 
Q 47.125 39.59375 43.09375 43.984375 
Q 39.0625 48.390625 32.421875 48.390625 
Q 24.90625 48.390625 20.390625 44.140625 
Q 15.875 39.890625 15.1875 32.171875 
z
" id="DejaVuSans-101"/>
     <path d="M 45.40625 46.390625 
L 45.40625 75.984375 
L 54.390625 75.984375 
L 54.390625 0 
L 45.40625 0 
L 45.40625 8.203125 
Q 42.578125 3.328125 38.25 0.953125 
Q 33.9375 -1.421875 27.875 -1.421875 
Q 17.96875 -1.421875 11.734375 6.484375 
Q 5.515625 14.40625 5.515625 27.296875 
Q 5.515625 40.1875 11.734375 48.09375 
Q 17.96875 56 27.875 56 
Q 33.9375 56 38.25 53.625 
Q 42.578125 51.265625 45.40625 46.390625 
z
M 14.796875 27.296875 
Q 14.796875 17.390625 18.875 11.75 
Q 22.953125 6.109375 30.078125 6.109375 
Q 37.203125 6.109375 41.296875 11.75 
Q 45.40625 17.390625 45.40625 27.296875 
Q 45.40625 37.203125 41.296875 42.84375 
Q 37.203125 48.484375 30.078125 48.484375 
Q 22.953125 48.484375 18.875 42.84375 
Q 14.796875 37.203125 14.796875 27.296875 
z
" id="DejaVuSans-100"/>
     <path d="M 44.28125 53.078125 
L 44.28125 44.578125 
Q 40.484375 46.53125 36.375 47.5 
Q 32.28125 48.484375 27.875 48.484375 
Q 21.1875 48.484375 17.84375 46.4375 
Q 14.5 44.390625 14.5 40.28125 
Q 14.5 37.15625 16.890625 35.375 
Q 19.28125 33.59375 26.515625 31.984375 
L 29.59375 31.296875 
Q 39.15625 29.25 43.1875 25.515625 
Q 47.21875 21.78125 47.21875 15.09375 
Q 47.21875 7.46875 41.1875 3.015625 
Q 35.15625 -1.421875 24.609375 -1.421875 
Q 20.21875 -1.421875 15.453125 -0.5625 
Q 10.6875 0.296875 5.421875 2 
L 5.421875 11.28125 
Q 10.40625 8.6875 15.234375 7.390625 
Q 20.0625 6.109375 24.8125 6.109375 
Q 31.15625 6.109375 34.5625 8.28125 
Q 37.984375 10.453125 37.984375 14.40625 
Q 37.984375 18.0625 35.515625 20.015625 
Q 33.0625 21.96875 24.703125 23.78125 
L 21.578125 24.515625 
Q 13.234375 26.265625 9.515625 29.90625 
Q 5.8125 33.546875 5.8125 39.890625 
Q 5.8125 47.609375 11.28125 51.796875 
Q 16.75 56 26.8125 56 
Q 31.78125 56 36.171875 55.265625 
Q 40.578125 54.546875 44.28125 53.078125 
z
" id="DejaVuSans-115"/>
     <path d="M 9.8125 72.90625 
L 23.09375 72.90625 
L 55.421875 11.921875 
L 55.421875 72.90625 
L 64.984375 72.90625 
L 64.984375 0 
L 51.703125 0 
L 19.390625 60.984375 
L 19.390625 0 
L 9.8125 0 
z
" id="DejaVuSans-78"/>
     <path d="M 11.71875 12.40625 
L 22.015625 12.40625 
L 22.015625 0 
L 11.71875 0 
z
M 11.71875 51.703125 
L 22.015625 51.703125 
L 22.015625 39.3125 
L 11.71875 39.3125 
z
" id="DejaVuSans-58"/>
    </defs>
    <g transform="translate(374.421656 80.4)scale(0.324 -0.324)">
     <use xlink:href="#DejaVuSans-69"/>
     <use x="63.183594" xlink:href="#DejaVuSans-118"/>
     <use x="122.363281" xlink:href="#DejaVuSans-97"/>
     <use x="183.642578" xlink:href="#DejaVuSans-108"/>
     <use x="211.425781" xlink:href="#DejaVuSans-117"/>
     <use x="274.804688" xlink:href="#DejaVuSans-97"/>
     <use x="336.083984" xlink:href="#DejaVuSans-116"/>
     <use x="375.292969" xlink:href="#DejaVuSans-105"/>
     <use x="403.076172" xlink:href="#DejaVuSans-111"/>
     <use x="464.257812" xlink:href="#DejaVuSans-110"/>
     <use x="527.636719" xlink:href="#DejaVuSans-32"/>
     <use x="559.423828" xlink:href="#DejaVuSans-80"/>
     <use x="619.710938" xlink:href="#DejaVuSans-114"/>
     <use x="660.792969" xlink:href="#DejaVuSans-101"/>
     <use x="722.316406" xlink:href="#DejaVuSans-100"/>
     <use x="785.792969" xlink:href="#DejaVuSans-115"/>
     <use x="837.892578" xlink:href="#DejaVuSans-32"/>
     <use x="869.679688" xlink:href="#DejaVuSans-78"/>
     <use x="944.484375" xlink:href="#DejaVuSans-58"/>
     <use x="978.175781" xlink:href="#DejaVuSans-54"/>
     <use x="1041.798828" xlink:href="#DejaVuSans-48"/>
    </g>
   </g>
   <g id="legend_1">
    <g id="patch_7">
     <path d="M 805.57875 187.261875 
L 953.1 187.261875 
Q 958.5 187.261875 958.5 181.861875 
L 958.5 105.3 
Q 958.5 99.9 953.1 99.9 
L 805.57875 99.9 
Q 800.17875 99.9 800.17875 105.3 
L 800.17875 181.861875 
Q 800.17875 187.261875 805.57875 187.261875 
z
" style="fill:#ffffff;opacity:0.8;stroke:#cccccc;stroke-linejoin:miter;"/>
    </g>
    <g id="line2d_35">
     <path d="M 810.97875 121.765781 
L 864.97875 121.765781 
" style="fill:none;stroke:#ff0000;stroke-linecap:square;stroke-width:1.5;"/>
    </g>
    <g id="line2d_36"/>
    <g id="text_18">
     <!-- Real -->
     <defs>
      <path d="M 44.390625 34.1875 
Q 47.5625 33.109375 50.5625 29.59375 
Q 53.5625 26.078125 56.59375 19.921875 
L 66.609375 0 
L 56 0 
L 46.6875 18.703125 
Q 43.0625 26.03125 39.671875 28.421875 
Q 36.28125 30.8125 30.421875 30.8125 
L 19.671875 30.8125 
L 19.671875 0 
L 9.8125 0 
L 9.8125 72.90625 
L 32.078125 72.90625 
Q 44.578125 72.90625 50.734375 67.671875 
Q 56.890625 62.453125 56.890625 51.90625 
Q 56.890625 45.015625 53.6875 40.46875 
Q 50.484375 35.9375 44.390625 34.1875 
z
M 19.671875 64.796875 
L 19.671875 38.921875 
L 32.078125 38.921875 
Q 39.203125 38.921875 42.84375 42.21875 
Q 46.484375 45.515625 46.484375 51.90625 
Q 46.484375 58.296875 42.84375 61.546875 
Q 39.203125 64.796875 32.078125 64.796875 
z
" id="DejaVuSans-82"/>
     </defs>
     <g transform="translate(886.57875 131.215781)scale(0.27 -0.27)">
      <use xlink:href="#DejaVuSans-82"/>
      <use x="69.419922" xlink:href="#DejaVuSans-101"/>
      <use x="130.943359" xlink:href="#DejaVuSans-97"/>
      <use x="192.222656" xlink:href="#DejaVuSans-108"/>
     </g>
    </g>
    <g id="line2d_37">
     <path d="M 810.97875 161.396719 
L 864.97875 161.396719 
" style="fill:none;stroke:#0000ff;stroke-linecap:square;stroke-width:1.5;"/>
    </g>
    <g id="line2d_38"/>
    <g id="text_19">
     <!-- Pred -->
     <g transform="translate(886.57875 170.846719)scale(0.27 -0.27)">
      <use xlink:href="#DejaVuSans-80"/>
      <use x="60.287109" xlink:href="#DejaVuSans-114"/>
      <use x="101.369141" xlink:href="#DejaVuSans-101"/>
      <use x="162.892578" xlink:href="#DejaVuSans-100"/>
     </g>
    </g>
   </g>
  </g>
 </g>
 <defs>
  <clipPath id="pe769f279f1">
   <rect height="554.4" width="837" x="135" y="86.4"/>
  </clipPath>
 </defs>
</svg>
