<?xml version="1.0" encoding="utf-8" standalone="no"?>
<!DOCTYPE svg PUBLIC "-//W3C//DTD SVG 1.1//EN"
  "http://www.w3.org/Graphics/SVG/1.1/DTD/svg11.dtd">
<!-- Created with matplotlib (https://matplotlib.org/) -->
<svg height="720pt" version="1.1" viewBox="0 0 1080 720" width="1080pt" xmlns="http://www.w3.org/2000/svg" xmlns:xlink="http://www.w3.org/1999/xlink">
 <defs>
  <style type="text/css">
*{stroke-linecap:butt;stroke-linejoin:round;}
  </style>
 </defs>
 <g id="figure_1">
  <g id="patch_1">
   <path d="M 0 720 
L 1080 720 
L 1080 0 
L 0 0 
z
" style="fill:#ffffff;"/>
  </g>
  <g id="axes_1">
   <g id="patch_2">
    <path d="M 135 640.8 
L 972 640.8 
L 972 86.4 
L 135 86.4 
z
" style="fill:#ffffff;"/>
   </g>
   <g id="matplotlib.axis_1">
    <g id="xtick_1">
     <g id="line2d_1">
      <path clip-path="url(#p1b40f16314)" d="M 173.045455 640.8 
L 173.045455 86.4 
" style="fill:none;stroke:#b0b0b0;stroke-linecap:square;stroke-width:0.8;"/>
     </g>
     <g id="line2d_2">
      <defs>
       <path d="M 0 0 
L 0 3.5 
" id="m31b5775d1d" style="stroke:#000000;stroke-width:0.8;"/>
      </defs>
      <g>
       <use style="stroke:#000000;stroke-width:0.8;" x="173.045455" xlink:href="#m31b5775d1d" y="640.8"/>
      </g>
     </g>
     <g id="text_1">
      <!-- 0 -->
      <defs>
       <path d="M 31.78125 66.40625 
Q 24.171875 66.40625 20.328125 58.90625 
Q 16.5 51.421875 16.5 36.375 
Q 16.5 21.390625 20.328125 13.890625 
Q 24.171875 6.390625 31.78125 6.390625 
Q 39.453125 6.390625 43.28125 13.890625 
Q 47.125 21.390625 47.125 36.375 
Q 47.125 51.421875 43.28125 58.90625 
Q 39.453125 66.40625 31.78125 66.40625 
z
M 31.78125 74.21875 
Q 44.046875 74.21875 50.515625 64.515625 
Q 56.984375 54.828125 56.984375 36.375 
Q 56.984375 17.96875 50.515625 8.265625 
Q 44.046875 -1.421875 31.78125 -1.421875 
Q 19.53125 -1.421875 13.0625 8.265625 
Q 6.59375 17.96875 6.59375 36.375 
Q 6.59375 54.828125 13.0625 64.515625 
Q 19.53125 74.21875 31.78125 74.21875 
z
" id="DejaVuSans-48"/>
      </defs>
      <g transform="translate(164.45608 668.315781)scale(0.27 -0.27)">
       <use xlink:href="#DejaVuSans-48"/>
      </g>
     </g>
    </g>
    <g id="xtick_2">
     <g id="line2d_3">
      <path clip-path="url(#p1b40f16314)" d="M 282.371473 640.8 
L 282.371473 86.4 
" style="fill:none;stroke:#b0b0b0;stroke-linecap:square;stroke-width:0.8;"/>
     </g>
     <g id="line2d_4">
      <g>
       <use style="stroke:#000000;stroke-width:0.8;" x="282.371473" xlink:href="#m31b5775d1d" y="640.8"/>
      </g>
     </g>
     <g id="text_2">
      <!-- 250 -->
      <defs>
       <path d="M 19.1875 8.296875 
L 53.609375 8.296875 
L 53.609375 0 
L 7.328125 0 
L 7.328125 8.296875 
Q 12.9375 14.109375 22.625 23.890625 
Q 32.328125 33.6875 34.8125 36.53125 
Q 39.546875 41.84375 41.421875 45.53125 
Q 43.3125 49.21875 43.3125 52.78125 
Q 43.3125 58.59375 39.234375 62.25 
Q 35.15625 65.921875 28.609375 65.921875 
Q 23.96875 65.921875 18.8125 64.3125 
Q 13.671875 62.703125 7.8125 59.421875 
L 7.8125 69.390625 
Q 13.765625 71.78125 18.9375 73 
Q 24.125 74.21875 28.421875 74.21875 
Q 39.75 74.21875 46.484375 68.546875 
Q 53.21875 62.890625 53.21875 53.421875 
Q 53.21875 48.921875 51.53125 44.890625 
Q 49.859375 40.875 45.40625 35.40625 
Q 44.1875 33.984375 37.640625 27.21875 
Q 31.109375 20.453125 19.1875 8.296875 
z
" id="DejaVuSans-50"/>
       <path d="M 10.796875 72.90625 
L 49.515625 72.90625 
L 49.515625 64.59375 
L 19.828125 64.59375 
L 19.828125 46.734375 
Q 21.96875 47.46875 24.109375 47.828125 
Q 26.265625 48.1875 28.421875 48.1875 
Q 40.625 48.1875 47.75 41.5 
Q 54.890625 34.8125 54.890625 23.390625 
Q 54.890625 11.625 47.5625 5.09375 
Q 40.234375 -1.421875 26.90625 -1.421875 
Q 22.3125 -1.421875 17.546875 -0.640625 
Q 12.796875 0.140625 7.71875 1.703125 
L 7.71875 11.625 
Q 12.109375 9.234375 16.796875 8.0625 
Q 21.484375 6.890625 26.703125 6.890625 
Q 35.15625 6.890625 40.078125 11.328125 
Q 45.015625 15.765625 45.015625 23.390625 
Q 45.015625 31 40.078125 35.4375 
Q 35.15625 39.890625 26.703125 39.890625 
Q 22.75 39.890625 18.8125 39.015625 
Q 14.890625 38.140625 10.796875 36.28125 
z
" id="DejaVuSans-53"/>
      </defs>
      <g transform="translate(256.603348 668.315781)scale(0.27 -0.27)">
       <use xlink:href="#DejaVuSans-50"/>
       <use x="63.623047" xlink:href="#DejaVuSans-53"/>
       <use x="127.246094" xlink:href="#DejaVuSans-48"/>
      </g>
     </g>
    </g>
    <g id="xtick_3">
     <g id="line2d_5">
      <path clip-path="url(#p1b40f16314)" d="M 391.697492 640.8 
L 391.697492 86.4 
" style="fill:none;stroke:#b0b0b0;stroke-linecap:square;stroke-width:0.8;"/>
     </g>
     <g id="line2d_6">
      <g>
       <use style="stroke:#000000;stroke-width:0.8;" x="391.697492" xlink:href="#m31b5775d1d" y="640.8"/>
      </g>
     </g>
     <g id="text_3">
      <!-- 500 -->
      <g transform="translate(365.929367 668.315781)scale(0.27 -0.27)">
       <use xlink:href="#DejaVuSans-53"/>
       <use x="63.623047" xlink:href="#DejaVuSans-48"/>
       <use x="127.246094" xlink:href="#DejaVuSans-48"/>
      </g>
     </g>
    </g>
    <g id="xtick_4">
     <g id="line2d_7">
      <path clip-path="url(#p1b40f16314)" d="M 501.023511 640.8 
L 501.023511 86.4 
" style="fill:none;stroke:#b0b0b0;stroke-linecap:square;stroke-width:0.8;"/>
     </g>
     <g id="line2d_8">
      <g>
       <use style="stroke:#000000;stroke-width:0.8;" x="501.023511" xlink:href="#m31b5775d1d" y="640.8"/>
      </g>
     </g>
     <g id="text_4">
      <!-- 750 -->
      <defs>
       <path d="M 8.203125 72.90625 
L 55.078125 72.90625 
L 55.078125 68.703125 
L 28.609375 0 
L 18.3125 0 
L 43.21875 64.59375 
L 8.203125 64.59375 
z
" id="DejaVuSans-55"/>
      </defs>
      <g transform="translate(475.255386 668.315781)scale(0.27 -0.27)">
       <use xlink:href="#DejaVuSans-55"/>
       <use x="63.623047" xlink:href="#DejaVuSans-53"/>
       <use x="127.246094" xlink:href="#DejaVuSans-48"/>
      </g>
     </g>
    </g>
    <g id="xtick_5">
     <g id="line2d_9">
      <path clip-path="url(#p1b40f16314)" d="M 610.34953 640.8 
L 610.34953 86.4 
" style="fill:none;stroke:#b0b0b0;stroke-linecap:square;stroke-width:0.8;"/>
     </g>
     <g id="line2d_10">
      <g>
       <use style="stroke:#000000;stroke-width:0.8;" x="610.34953" xlink:href="#m31b5775d1d" y="640.8"/>
      </g>
     </g>
     <g id="text_5">
      <!-- 1000 -->
      <defs>
       <path d="M 12.40625 8.296875 
L 28.515625 8.296875 
L 28.515625 63.921875 
L 10.984375 60.40625 
L 10.984375 69.390625 
L 28.421875 72.90625 
L 38.28125 72.90625 
L 38.28125 8.296875 
L 54.390625 8.296875 
L 54.390625 0 
L 12.40625 0 
z
" id="DejaVuSans-49"/>
      </defs>
      <g transform="translate(575.99203 668.315781)scale(0.27 -0.27)">
       <use xlink:href="#DejaVuSans-49"/>
       <use x="63.623047" xlink:href="#DejaVuSans-48"/>
       <use x="127.246094" xlink:href="#DejaVuSans-48"/>
       <use x="190.869141" xlink:href="#DejaVuSans-48"/>
      </g>
     </g>
    </g>
    <g id="xtick_6">
     <g id="line2d_11">
      <path clip-path="url(#p1b40f16314)" d="M 719.675549 640.8 
L 719.675549 86.4 
" style="fill:none;stroke:#b0b0b0;stroke-linecap:square;stroke-width:0.8;"/>
     </g>
     <g id="line2d_12">
      <g>
       <use style="stroke:#000000;stroke-width:0.8;" x="719.675549" xlink:href="#m31b5775d1d" y="640.8"/>
      </g>
     </g>
     <g id="text_6">
      <!-- 1250 -->
      <g transform="translate(685.318049 668.315781)scale(0.27 -0.27)">
       <use xlink:href="#DejaVuSans-49"/>
       <use x="63.623047" xlink:href="#DejaVuSans-50"/>
       <use x="127.246094" xlink:href="#DejaVuSans-53"/>
       <use x="190.869141" xlink:href="#DejaVuSans-48"/>
      </g>
     </g>
    </g>
    <g id="xtick_7">
     <g id="line2d_13">
      <path clip-path="url(#p1b40f16314)" d="M 829.001567 640.8 
L 829.001567 86.4 
" style="fill:none;stroke:#b0b0b0;stroke-linecap:square;stroke-width:0.8;"/>
     </g>
     <g id="line2d_14">
      <g>
       <use style="stroke:#000000;stroke-width:0.8;" x="829.001567" xlink:href="#m31b5775d1d" y="640.8"/>
      </g>
     </g>
     <g id="text_7">
      <!-- 1500 -->
      <g transform="translate(794.644067 668.315781)scale(0.27 -0.27)">
       <use xlink:href="#DejaVuSans-49"/>
       <use x="63.623047" xlink:href="#DejaVuSans-53"/>
       <use x="127.246094" xlink:href="#DejaVuSans-48"/>
       <use x="190.869141" xlink:href="#DejaVuSans-48"/>
      </g>
     </g>
    </g>
    <g id="xtick_8">
     <g id="line2d_15">
      <path clip-path="url(#p1b40f16314)" d="M 938.327586 640.8 
L 938.327586 86.4 
" style="fill:none;stroke:#b0b0b0;stroke-linecap:square;stroke-width:0.8;"/>
     </g>
     <g id="line2d_16">
      <g>
       <use style="stroke:#000000;stroke-width:0.8;" x="938.327586" xlink:href="#m31b5775d1d" y="640.8"/>
      </g>
     </g>
     <g id="text_8">
      <!-- 1750 -->
      <g transform="translate(903.970086 668.315781)scale(0.27 -0.27)">
       <use xlink:href="#DejaVuSans-49"/>
       <use x="63.623047" xlink:href="#DejaVuSans-55"/>
       <use x="127.246094" xlink:href="#DejaVuSans-53"/>
       <use x="190.869141" xlink:href="#DejaVuSans-48"/>
      </g>
     </g>
    </g>
   </g>
   <g id="matplotlib.axis_2">
    <g id="ytick_1">
     <g id="line2d_17">
      <path clip-path="url(#p1b40f16314)" d="M 135 638.495104 
L 972 638.495104 
" style="fill:none;stroke:#b0b0b0;stroke-linecap:square;stroke-width:0.8;"/>
     </g>
     <g id="line2d_18">
      <defs>
       <path d="M 0 0 
L -3.5 0 
" id="m825e56326a" style="stroke:#000000;stroke-width:0.8;"/>
      </defs>
      <g>
       <use style="stroke:#000000;stroke-width:0.8;" x="135" xlink:href="#m825e56326a" y="638.495104"/>
      </g>
     </g>
     <g id="text_9">
      <!-- 14 -->
      <defs>
       <path d="M 37.796875 64.3125 
L 12.890625 25.390625 
L 37.796875 25.390625 
z
M 35.203125 72.90625 
L 47.609375 72.90625 
L 47.609375 25.390625 
L 58.015625 25.390625 
L 58.015625 17.1875 
L 47.609375 17.1875 
L 47.609375 0 
L 37.796875 0 
L 37.796875 17.1875 
L 4.890625 17.1875 
L 4.890625 26.703125 
z
" id="DejaVuSans-52"/>
      </defs>
      <g transform="translate(93.6425 648.752994)scale(0.27 -0.27)">
       <use xlink:href="#DejaVuSans-49"/>
       <use x="63.623047" xlink:href="#DejaVuSans-52"/>
      </g>
     </g>
    </g>
    <g id="ytick_2">
     <g id="line2d_19">
      <path clip-path="url(#p1b40f16314)" d="M 135 569.134026 
L 972 569.134026 
" style="fill:none;stroke:#b0b0b0;stroke-linecap:square;stroke-width:0.8;"/>
     </g>
     <g id="line2d_20">
      <g>
       <use style="stroke:#000000;stroke-width:0.8;" x="135" xlink:href="#m825e56326a" y="569.134026"/>
      </g>
     </g>
     <g id="text_10">
      <!-- 16 -->
      <defs>
       <path d="M 33.015625 40.375 
Q 26.375 40.375 22.484375 35.828125 
Q 18.609375 31.296875 18.609375 23.390625 
Q 18.609375 15.53125 22.484375 10.953125 
Q 26.375 6.390625 33.015625 6.390625 
Q 39.65625 6.390625 43.53125 10.953125 
Q 47.40625 15.53125 47.40625 23.390625 
Q 47.40625 31.296875 43.53125 35.828125 
Q 39.65625 40.375 33.015625 40.375 
z
M 52.59375 71.296875 
L 52.59375 62.3125 
Q 48.875 64.0625 45.09375 64.984375 
Q 41.3125 65.921875 37.59375 65.921875 
Q 27.828125 65.921875 22.671875 59.328125 
Q 17.53125 52.734375 16.796875 39.40625 
Q 19.671875 43.65625 24.015625 45.921875 
Q 28.375 48.1875 33.59375 48.1875 
Q 44.578125 48.1875 50.953125 41.515625 
Q 57.328125 34.859375 57.328125 23.390625 
Q 57.328125 12.15625 50.6875 5.359375 
Q 44.046875 -1.421875 33.015625 -1.421875 
Q 20.359375 -1.421875 13.671875 8.265625 
Q 6.984375 17.96875 6.984375 36.375 
Q 6.984375 53.65625 15.1875 63.9375 
Q 23.390625 74.21875 37.203125 74.21875 
Q 40.921875 74.21875 44.703125 73.484375 
Q 48.484375 72.75 52.59375 71.296875 
z
" id="DejaVuSans-54"/>
      </defs>
      <g transform="translate(93.6425 579.391917)scale(0.27 -0.27)">
       <use xlink:href="#DejaVuSans-49"/>
       <use x="63.623047" xlink:href="#DejaVuSans-54"/>
      </g>
     </g>
    </g>
    <g id="ytick_3">
     <g id="line2d_21">
      <path clip-path="url(#p1b40f16314)" d="M 135 499.772948 
L 972 499.772948 
" style="fill:none;stroke:#b0b0b0;stroke-linecap:square;stroke-width:0.8;"/>
     </g>
     <g id="line2d_22">
      <g>
       <use style="stroke:#000000;stroke-width:0.8;" x="135" xlink:href="#m825e56326a" y="499.772948"/>
      </g>
     </g>
     <g id="text_11">
      <!-- 18 -->
      <defs>
       <path d="M 31.78125 34.625 
Q 24.75 34.625 20.71875 30.859375 
Q 16.703125 27.09375 16.703125 20.515625 
Q 16.703125 13.921875 20.71875 10.15625 
Q 24.75 6.390625 31.78125 6.390625 
Q 38.8125 6.390625 42.859375 10.171875 
Q 46.921875 13.96875 46.921875 20.515625 
Q 46.921875 27.09375 42.890625 30.859375 
Q 38.875 34.625 31.78125 34.625 
z
M 21.921875 38.8125 
Q 15.578125 40.375 12.03125 44.71875 
Q 8.5 49.078125 8.5 55.328125 
Q 8.5 64.0625 14.71875 69.140625 
Q 20.953125 74.21875 31.78125 74.21875 
Q 42.671875 74.21875 48.875 69.140625 
Q 55.078125 64.0625 55.078125 55.328125 
Q 55.078125 49.078125 51.53125 44.71875 
Q 48 40.375 41.703125 38.8125 
Q 48.828125 37.15625 52.796875 32.3125 
Q 56.78125 27.484375 56.78125 20.515625 
Q 56.78125 9.90625 50.3125 4.234375 
Q 43.84375 -1.421875 31.78125 -1.421875 
Q 19.734375 -1.421875 13.25 4.234375 
Q 6.78125 9.90625 6.78125 20.515625 
Q 6.78125 27.484375 10.78125 32.3125 
Q 14.796875 37.15625 21.921875 38.8125 
z
M 18.3125 54.390625 
Q 18.3125 48.734375 21.84375 45.5625 
Q 25.390625 42.390625 31.78125 42.390625 
Q 38.140625 42.390625 41.71875 45.5625 
Q 45.3125 48.734375 45.3125 54.390625 
Q 45.3125 60.0625 41.71875 63.234375 
Q 38.140625 66.40625 31.78125 66.40625 
Q 25.390625 66.40625 21.84375 63.234375 
Q 18.3125 60.0625 18.3125 54.390625 
z
" id="DejaVuSans-56"/>
      </defs>
      <g transform="translate(93.6425 510.030839)scale(0.27 -0.27)">
       <use xlink:href="#DejaVuSans-49"/>
       <use x="63.623047" xlink:href="#DejaVuSans-56"/>
      </g>
     </g>
    </g>
    <g id="ytick_4">
     <g id="line2d_23">
      <path clip-path="url(#p1b40f16314)" d="M 135 430.411871 
L 972 430.411871 
" style="fill:none;stroke:#b0b0b0;stroke-linecap:square;stroke-width:0.8;"/>
     </g>
     <g id="line2d_24">
      <g>
       <use style="stroke:#000000;stroke-width:0.8;" x="135" xlink:href="#m825e56326a" y="430.411871"/>
      </g>
     </g>
     <g id="text_12">
      <!-- 20 -->
      <g transform="translate(93.6425 440.669761)scale(0.27 -0.27)">
       <use xlink:href="#DejaVuSans-50"/>
       <use x="63.623047" xlink:href="#DejaVuSans-48"/>
      </g>
     </g>
    </g>
    <g id="ytick_5">
     <g id="line2d_25">
      <path clip-path="url(#p1b40f16314)" d="M 135 361.050793 
L 972 361.050793 
" style="fill:none;stroke:#b0b0b0;stroke-linecap:square;stroke-width:0.8;"/>
     </g>
     <g id="line2d_26">
      <g>
       <use style="stroke:#000000;stroke-width:0.8;" x="135" xlink:href="#m825e56326a" y="361.050793"/>
      </g>
     </g>
     <g id="text_13">
      <!-- 22 -->
      <g transform="translate(93.6425 371.308684)scale(0.27 -0.27)">
       <use xlink:href="#DejaVuSans-50"/>
       <use x="63.623047" xlink:href="#DejaVuSans-50"/>
      </g>
     </g>
    </g>
    <g id="ytick_6">
     <g id="line2d_27">
      <path clip-path="url(#p1b40f16314)" d="M 135 291.689715 
L 972 291.689715 
" style="fill:none;stroke:#b0b0b0;stroke-linecap:square;stroke-width:0.8;"/>
     </g>
     <g id="line2d_28">
      <g>
       <use style="stroke:#000000;stroke-width:0.8;" x="135" xlink:href="#m825e56326a" y="291.689715"/>
      </g>
     </g>
     <g id="text_14">
      <!-- 24 -->
      <g transform="translate(93.6425 301.947606)scale(0.27 -0.27)">
       <use xlink:href="#DejaVuSans-50"/>
       <use x="63.623047" xlink:href="#DejaVuSans-52"/>
      </g>
     </g>
    </g>
    <g id="ytick_7">
     <g id="line2d_29">
      <path clip-path="url(#p1b40f16314)" d="M 135 222.328638 
L 972 222.328638 
" style="fill:none;stroke:#b0b0b0;stroke-linecap:square;stroke-width:0.8;"/>
     </g>
     <g id="line2d_30">
      <g>
       <use style="stroke:#000000;stroke-width:0.8;" x="135" xlink:href="#m825e56326a" y="222.328638"/>
      </g>
     </g>
     <g id="text_15">
      <!-- 26 -->
      <g transform="translate(93.6425 232.586528)scale(0.27 -0.27)">
       <use xlink:href="#DejaVuSans-50"/>
       <use x="63.623047" xlink:href="#DejaVuSans-54"/>
      </g>
     </g>
    </g>
    <g id="ytick_8">
     <g id="line2d_31">
      <path clip-path="url(#p1b40f16314)" d="M 135 152.96756 
L 972 152.96756 
" style="fill:none;stroke:#b0b0b0;stroke-linecap:square;stroke-width:0.8;"/>
     </g>
     <g id="line2d_32">
      <g>
       <use style="stroke:#000000;stroke-width:0.8;" x="135" xlink:href="#m825e56326a" y="152.96756"/>
      </g>
     </g>
     <g id="text_16">
      <!-- 28 -->
      <g transform="translate(93.6425 163.225451)scale(0.27 -0.27)">
       <use xlink:href="#DejaVuSans-50"/>
       <use x="63.623047" xlink:href="#DejaVuSans-56"/>
      </g>
     </g>
    </g>
   </g>
   <g id="line2d_33">
    <path clip-path="url(#p1b40f16314)" d="M 173.045455 541.678952 
L 173.482759 545.102171 
L 173.920063 545.297638 
L 174.357367 545.267938 
L 174.794671 543.105828 
L 175.669279 550.786589 
L 176.106583 546.783981 
L 176.543887 551.219593 
L 176.981191 550.05506 
L 177.418495 555.40166 
L 177.855799 554.758835 
L 178.293103 555.226038 
L 178.730408 556.09575 
L 179.167712 554.415263 
L 179.605016 555.259641 
L 180.04232 558.047245 
L 180.916928 560.792249 
L 181.354232 559.89502 
L 181.791536 560.019576 
L 183.103448 570.72819 
L 183.540752 568.413213 
L 183.978056 568.822337 
L 185.289969 563.97383 
L 185.727273 565.877169 
L 186.164577 566.85457 
L 186.601881 563.179725 
L 187.039185 563.288075 
L 187.476489 564.926161 
L 187.913793 562.720063 
L 188.351097 563.533682 
L 188.788401 561.865102 
L 189.225705 563.566558 
L 189.663009 564.08476 
L 190.100313 561.930125 
L 190.974922 559.905405 
L 191.412226 560.699907 
L 191.84953 560.424467 
L 192.286834 558.368194 
L 192.724138 552.474286 
L 193.161442 549.547375 
L 194.03605 541.644754 
L 194.473354 539.536356 
L 194.910658 545.350226 
L 195.347962 543.289918 
L 195.785266 546.000592 
L 196.222571 544.085214 
L 196.659875 548.897339 
L 197.097179 551.256504 
L 197.534483 550.436534 
L 198.409091 542.546151 
L 198.846395 543.338999 
L 199.283699 540.688057 
L 199.721003 539.070344 
L 200.158307 535.633102 
L 200.595611 531.155354 
L 201.032915 528.451493 
L 201.470219 524.702496 
L 201.907524 522.388908 
L 202.782132 507.107161 
L 203.65674 486.57896 
L 204.094044 484.933598 
L 204.968652 469.310527 
L 205.405956 453.570706 
L 205.84326 450.884044 
L 207.155172 419.929416 
L 207.592476 418.243902 
L 208.029781 415.2564 
L 208.467085 415.274723 
L 208.904389 410.193243 
L 209.778997 393.8696 
L 210.216301 388.786202 
L 210.653605 387.827123 
L 211.090909 381.675172 
L 211.528213 372.938228 
L 211.965517 370.060266 
L 212.402821 368.913461 
L 212.840125 363.551646 
L 213.714734 347.939291 
L 214.152038 344.683427 
L 214.589342 336.169004 
L 215.46395 327.234542 
L 215.901254 323.38209 
L 217.213166 303.861983 
L 217.65047 296.680639 
L 218.087774 298.100106 
L 218.525078 295.977355 
L 218.962382 287.315422 
L 219.836991 286.945457 
L 220.274295 285.482266 
L 220.711599 279.385813 
L 221.148903 280.647584 
L 221.586207 283.702425 
L 222.023511 291.11198 
L 222.460815 293.7997 
L 222.898119 293.361338 
L 223.335423 289.380228 
L 224.210031 304.143509 
L 224.647335 301.663757 
L 225.084639 304.126112 
L 225.521944 300.718504 
L 225.959248 302.223633 
L 226.396552 308.936121 
L 226.833856 306.256735 
L 227.27116 308.16788 
L 227.708464 303.055178 
L 228.145768 303.230933 
L 228.583072 301.953154 
L 229.020376 306.529595 
L 229.45768 312.390628 
L 230.332288 320.006233 
L 230.769592 325.754021 
L 231.206897 327.496686 
L 232.081505 339.283841 
L 232.518809 346.361003 
L 232.956113 349.012938 
L 233.393417 363.661848 
L 233.830721 355.946227 
L 234.705329 376.486665 
L 235.142633 381.5229 
L 235.579937 387.968746 
L 236.017241 389.120116 
L 236.454545 392.961786 
L 236.89185 394.037417 
L 237.329154 400.533271 
L 237.766458 404.28498 
L 238.203762 402.624073 
L 238.641066 407.983573 
L 239.07837 408.209203 
L 239.515674 409.401651 
L 239.952978 413.108446 
L 240.390282 412.746021 
L 240.827586 414.061967 
L 241.26489 414.049598 
L 241.702194 412.503722 
L 242.576803 407.611689 
L 243.451411 403.982751 
L 243.888715 402.630886 
L 244.326019 402.174135 
L 244.763323 400.213181 
L 245.200627 400.969913 
L 245.637931 399.723026 
L 246.075235 402.817886 
L 246.512539 401.141699 
L 246.949843 396.768398 
L 247.387147 396.232137 
L 247.824451 398.721745 
L 248.261755 386.96515 
L 248.69906 383.618994 
L 249.136364 379.081249 
L 249.573668 383.841978 
L 250.010972 377.848584 
L 250.448276 373.853913 
L 250.88558 368.67771 
L 251.322884 369.170114 
L 251.760188 360.320388 
L 252.197492 363.774101 
L 252.634796 366.205433 
L 253.509404 359.928065 
L 253.946708 360.115859 
L 254.821317 354.401476 
L 255.258621 352.799308 
L 256.133229 342.299722 
L 257.007837 333.722194 
L 257.445141 331.613863 
L 257.882445 332.775618 
L 258.319749 330.241757 
L 258.757053 330.696722 
L 259.194357 332.519824 
L 259.631661 328.4852 
L 260.068966 329.354317 
L 260.50627 325.547176 
L 260.943574 323.210106 
L 261.380878 317.2138 
L 261.818182 322.769759 
L 262.255486 323.295635 
L 262.69279 326.594959 
L 263.130094 324.731837 
L 263.567398 327.464605 
L 264.004702 331.282263 
L 264.442006 331.630135 
L 264.87931 330.860108 
L 265.316614 338.083059 
L 266.191223 344.871485 
L 266.628527 343.018881 
L 267.065831 336.321872 
L 267.503135 340.551301 
L 267.940439 335.134451 
L 268.377743 344.505952 
L 268.815047 342.190512 
L 269.252351 347.850984 
L 269.689655 340.912998 
L 270.126959 339.747075 
L 270.564263 343.403267 
L 271.001567 341.305784 
L 271.438871 339.863826 
L 271.876176 336.611798 
L 272.31348 340.335196 
L 272.750784 341.010367 
L 273.188088 337.565584 
L 273.625392 331.882225 
L 274.062696 329.81603 
L 274.5 333.552789 
L 274.937304 339.507752 
L 275.374608 341.13499 
L 275.811912 340.599192 
L 276.68652 358.220392 
L 277.123824 352.278592 
L 277.561129 356.394842 
L 277.998433 346.851622 
L 278.435737 355.876441 
L 278.873041 355.307107 
L 279.310345 355.821208 
L 279.747649 349.812335 
L 280.184953 351.853658 
L 280.622257 350.58137 
L 281.059561 348.200774 
L 281.496865 348.952015 
L 281.934169 347.667754 
L 282.371473 351.149646 
L 282.808777 348.60421 
L 283.246082 355.021083 
L 283.683386 357.488994 
L 284.12069 363.938479 
L 284.557994 365.48065 
L 284.995298 370.256924 
L 285.432602 369.797329 
L 285.869906 373.799474 
L 286.30721 375.362482 
L 286.744514 373.907559 
L 287.181818 373.004707 
L 287.619122 375.876186 
L 288.056426 376.074696 
L 288.49373 380.930744 
L 289.368339 394.469892 
L 290.680251 402.785143 
L 291.117555 402.249015 
L 291.554859 403.415202 
L 291.992163 398.07978 
L 292.429467 403.420626 
L 293.304075 410.02192 
L 293.741379 410.632001 
L 295.053292 422.46169 
L 295.9279 426.112722 
L 296.365204 428.889874 
L 296.802508 429.444723 
L 297.239812 430.809882 
L 297.677116 431.463754 
L 298.11442 433.440451 
L 298.551724 432.252435 
L 298.989028 435.019533 
L 299.426332 435.834409 
L 299.863636 436.977577 
L 300.30094 437.459663 
L 300.738245 439.531943 
L 301.175549 444.940458 
L 301.612853 445.678536 
L 302.050157 444.452155 
L 302.487461 447.73944 
L 302.924765 452.038589 
L 303.362069 452.691667 
L 303.799373 451.535137 
L 304.236677 447.49165 
L 305.111285 441.000162 
L 305.548589 437.454106 
L 305.985893 437.558818 
L 306.423197 437.879239 
L 306.860502 440.288675 
L 307.297806 440.365539 
L 307.73511 441.223212 
L 308.172414 440.143943 
L 309.047022 432.179011 
L 309.484326 429.391672 
L 309.92163 420.64593 
L 310.358934 420.85337 
L 310.796238 418.647603 
L 311.233542 414.235738 
L 311.670846 412.451862 
L 312.10815 414.184341 
L 312.545455 415.394913 
L 312.982759 418.326455 
L 313.420063 420.159876 
L 313.857367 421.267257 
L 314.294671 420.2333 
L 314.731975 420.877779 
L 315.169279 423.378698 
L 316.043887 426.501208 
L 317.355799 428.39694 
L 317.793103 427.456384 
L 318.667712 431.448937 
L 319.979624 418.721027 
L 320.854232 415.894727 
L 321.291536 412.909208 
L 321.72884 413.698683 
L 322.166144 414.770874 
L 322.603448 414.715971 
L 323.040752 415.69238 
L 323.478056 415.202092 
L 323.915361 414.014539 
L 325.227273 407.900094 
L 325.664577 405.179299 
L 326.101881 405.076903 
L 326.539185 406.988576 
L 326.976489 403.576603 
L 327.413793 405.593451 
L 327.851097 410.887001 
L 328.288401 410.307281 
L 328.725705 408.337001 
L 329.163009 411.509982 
L 330.037618 403.361953 
L 330.474922 401.520859 
L 330.912226 402.341886 
L 331.34953 404.454186 
L 331.786834 407.450156 
L 332.224138 404.875416 
L 333.098746 396.03462 
L 333.53605 378.470903 
L 334.410658 383.859045 
L 334.847962 384.534216 
L 335.285266 382.088795 
L 335.722571 385.297364 
L 336.159875 385.084236 
L 336.597179 388.890318 
L 337.034483 391.657019 
L 337.471787 392.460452 
L 337.909091 394.816242 
L 338.346395 395.566161 
L 338.783699 394.123277 
L 339.221003 398.857679 
L 339.658307 400.784633 
L 340.095611 397.420947 
L 340.532915 401.107964 
L 340.970219 400.705454 
L 341.407524 397.766702 
L 341.844828 399.607201 
L 342.282132 393.553744 
L 342.719436 390.997724 
L 343.15674 384.461056 
L 343.594044 391.036222 
L 344.031348 388.319528 
L 344.468652 389.391124 
L 344.905956 383.410893 
L 345.34326 391.58558 
L 345.780564 393.45439 
L 346.217868 395.88883 
L 346.655172 392.349852 
L 347.092476 393.061339 
L 347.529781 392.609549 
L 347.967085 391.341759 
L 348.404389 390.920198 
L 348.841693 389.523618 
L 349.278997 389.975871 
L 349.716301 386.339855 
L 350.590909 381.484865 
L 351.028213 381.758453 
L 351.465517 379.503141 
L 351.902821 381.373869 
L 352.340125 384.021107 
L 352.777429 383.521161 
L 353.214734 382.652706 
L 353.652038 382.310126 
L 354.089342 381.596523 
L 354.526646 382.795453 
L 354.96395 380.127444 
L 355.401254 380.334223 
L 355.838558 376.467019 
L 356.275862 377.831055 
L 356.713166 373.094403 
L 357.15047 366.365378 
L 357.587774 361.416194 
L 358.025078 365.542168 
L 358.462382 361.470237 
L 358.899687 342.893399 
L 359.336991 349.235922 
L 359.774295 352.322051 
L 360.211599 358.249761 
L 360.648903 356.612204 
L 361.086207 362.60798 
L 361.523511 359.468337 
L 361.960815 370.762823 
L 362.398119 356.138718 
L 363.272727 345.072442 
L 363.710031 344.492325 
L 364.147335 353.174168 
L 364.584639 351.319117 
L 365.021944 347.592941 
L 365.459248 337.801864 
L 365.896552 346.602641 
L 366.77116 356.209033 
L 367.208464 361.40184 
L 367.645768 363.731634 
L 368.083072 354.24034 
L 368.520376 348.159233 
L 368.95768 358.00938 
L 369.394984 373.443929 
L 370.269592 384.595204 
L 370.706897 384.563519 
L 371.144201 368.413383 
L 371.581505 357.146018 
L 372.018809 367.753954 
L 372.456113 384.704679 
L 372.893417 379.853195 
L 373.330721 377.823646 
L 373.768025 381.78769 
L 374.205329 396.463721 
L 374.642633 398.139776 
L 375.079937 390.264408 
L 375.517241 405.521019 
L 375.954545 405.543973 
L 376.39185 432.685902 
L 376.829154 420.702817 
L 377.266458 428.341905 
L 377.703762 404.59872 
L 378.141066 407.070533 
L 378.57837 438.244772 
L 379.015674 445.678272 
L 379.452978 392.326502 
L 380.327586 428.702014 
L 380.76489 451.112982 
L 381.202194 440.150823 
L 381.639498 447.340634 
L 382.076803 452.383352 
L 382.514107 467.2995 
L 382.951411 476.307253 
L 383.388715 475.99358 
L 383.826019 483.725275 
L 384.263323 501.567408 
L 384.700627 509.002562 
L 385.137931 507.514036 
L 385.575235 520.174343 
L 386.012539 524.731006 
L 386.449843 524.903586 
L 386.887147 519.016425 
L 387.761755 512.957543 
L 388.19906 500.945287 
L 388.636364 508.892161 
L 389.073668 529.516606 
L 389.510972 530.067684 
L 389.948276 528.320984 
L 390.38558 526.05231 
L 390.822884 530.410661 
L 391.260188 531.759813 
L 392.134796 522.646289 
L 392.5721 530.130657 
L 393.009404 531.919031 
L 393.446708 535.631449 
L 393.884013 537.603846 
L 394.321317 538.049617 
L 394.758621 540.296131 
L 395.195925 536.718523 
L 396.070533 532.790794 
L 396.507837 535.468063 
L 396.945141 540.367835 
L 397.382445 537.160391 
L 397.819749 531.217599 
L 398.257053 530.639665 
L 399.131661 543.227209 
L 399.568966 544.127019 
L 400.00627 547.612748 
L 400.443574 549.339273 
L 400.880878 549.066347 
L 401.318182 546.15379 
L 401.755486 548.056666 
L 402.19279 542.097734 
L 402.630094 542.093435 
L 403.067398 538.887115 
L 403.504702 537.153842 
L 403.942006 540.049862 
L 404.37931 546.636273 
L 405.253918 551.379009 
L 405.691223 555.719633 
L 406.128527 547.547989 
L 406.565831 550.479068 
L 407.003135 556.26403 
L 407.440439 552.310372 
L 407.877743 553.201119 
L 408.315047 547.469141 
L 408.752351 551.548348 
L 409.189655 551.164426 
L 409.626959 549.403966 
L 410.501567 526.968458 
L 410.938871 538.588126 
L 411.376176 534.072012 
L 411.81348 532.586794 
L 412.250784 525.001154 
L 412.688088 527.069796 
L 413.125392 522.364102 
L 414 529.324248 
L 414.437304 526.958933 
L 414.874608 522.895535 
L 415.311912 526.338333 
L 415.749216 535.471569 
L 416.18652 531.620506 
L 416.623824 532.722529 
L 417.061129 531.932195 
L 417.498433 534.902631 
L 417.935737 536.842153 
L 418.373041 531.31477 
L 418.810345 531.455401 
L 419.247649 531.295654 
L 420.122257 538.740267 
L 420.559561 544.301253 
L 420.996865 547.048374 
L 421.434169 550.792675 
L 422.308777 553.930995 
L 422.746082 550.460414 
L 423.183386 551.961375 
L 424.057994 547.000549 
L 424.495298 548.63169 
L 424.932602 547.306615 
L 425.369906 545.06149 
L 426.244514 548.593456 
L 426.681818 547.426277 
L 427.556426 552.72406 
L 427.99373 550.319651 
L 428.431034 552.936593 
L 428.868339 552.738745 
L 429.305643 555.628481 
L 429.742947 552.494064 
L 430.617555 560.366588 
L 431.054859 564.242324 
L 431.492163 567.084302 
L 431.929467 567.719321 
L 432.366771 569.020582 
L 433.241379 563.167355 
L 434.115987 551.328472 
L 434.553292 546.076 
L 434.990596 539.371648 
L 435.4279 535.484005 
L 435.865204 536.746702 
L 436.302508 535.072499 
L 436.739812 536.000686 
L 437.177116 537.735877 
L 437.61442 537.689838 
L 438.489028 533.805701 
L 438.926332 533.70767 
L 439.80094 532.842125 
L 440.238245 528.656949 
L 440.675549 530.017081 
L 441.112853 529.120645 
L 441.550157 519.139592 
L 442.424765 508.532978 
L 442.862069 501.937042 
L 443.299373 499.670022 
L 443.736677 498.517792 
L 444.611285 492.935242 
L 445.048589 490.729343 
L 445.485893 487.269875 
L 445.923197 485.477598 
L 446.360502 479.559612 
L 446.797806 477.635569 
L 447.23511 471.938649 
L 448.109718 464.03411 
L 448.547022 463.227965 
L 448.984326 461.114871 
L 449.42163 453.682893 
L 449.858934 453.025317 
L 451.170846 439.615223 
L 451.60815 431.667887 
L 452.045455 426.800792 
L 452.482759 425.449589 
L 452.920063 423.272133 
L 453.357367 424.730496 
L 453.794671 421.970608 
L 454.231975 414.974808 
L 454.669279 411.348846 
L 455.543887 397.658749 
L 455.981191 396.286577 
L 456.418495 397.269204 
L 456.855799 400.431734 
L 457.293103 398.730146 
L 457.730408 403.678073 
L 458.167712 398.497768 
L 458.605016 390.691922 
L 459.479624 380.540405 
L 459.916928 372.494707 
L 460.354232 372.695862 
L 460.791536 373.174178 
L 461.22884 372.992999 
L 461.666144 371.744193 
L 462.103448 372.717361 
L 462.540752 367.431351 
L 462.978056 359.758131 
L 463.415361 345.995933 
L 464.727273 331.32817 
L 465.164577 329.480064 
L 465.601881 329.675135 
L 466.039185 335.281763 
L 466.476489 331.214925 
L 466.913793 330.992866 
L 467.351097 332.027353 
L 467.788401 331.671213 
L 468.225705 330.928108 
L 468.663009 330.815061 
L 469.100313 329.288566 
L 469.974922 317.539579 
L 470.412226 315.047127 
L 470.84953 314.699586 
L 471.286834 314.153336 
L 471.724138 316.9588 
L 472.161442 318.447855 
L 472.598746 317.327178 
L 473.03605 319.317567 
L 473.473354 318.004069 
L 473.910658 317.588462 
L 474.785266 313.431399 
L 475.222571 313.7585 
L 475.659875 312.205348 
L 476.097179 312.437791 
L 476.971787 316.177858 
L 477.409091 317.563987 
L 477.846395 319.603789 
L 478.283699 320.854381 
L 478.721003 319.40098 
L 479.158307 317.306209 
L 479.595611 313.609601 
L 480.032915 316.023271 
L 480.470219 320.512 
L 480.907524 319.364136 
L 481.344828 320.726054 
L 481.782132 325.935861 
L 482.219436 326.143102 
L 482.65674 331.184563 
L 483.094044 328.799667 
L 483.531348 328.765667 
L 484.405956 330.074139 
L 484.84326 325.660686 
L 485.280564 329.719718 
L 485.717868 328.718769 
L 486.592476 331.055508 
L 487.029781 329.350944 
L 487.467085 333.501326 
L 487.904389 333.842848 
L 488.778997 338.719931 
L 489.216301 337.503537 
L 489.653605 339.124888 
L 490.090909 339.426258 
L 490.965517 344.785361 
L 491.840125 347.989365 
L 492.277429 350.249572 
L 492.714734 350.0463 
L 494.46395 362.264805 
L 494.901254 362.699595 
L 495.338558 365.928207 
L 495.775862 370.059869 
L 496.213166 375.573031 
L 497.087774 380.707561 
L 497.525078 386.748318 
L 497.962382 387.518147 
L 498.399687 390.689739 
L 498.836991 394.87948 
L 499.274295 401.485073 
L 499.711599 403.007334 
L 500.148903 409.391927 
L 500.586207 411.853091 
L 501.023511 415.126287 
L 501.460815 421.318125 
L 501.898119 424.633457 
L 502.335423 425.465862 
L 502.772727 430.687774 
L 503.210031 440.128465 
L 503.647335 445.698116 
L 504.084639 452.963204 
L 504.521944 456.926454 
L 504.959248 467.535185 
L 506.27116 480.797834 
L 507.583072 494.019009 
L 508.45768 509.395877 
L 508.894984 509.474527 
L 509.332288 512.318423 
L 509.769592 516.027599 
L 510.206897 518.26386 
L 510.644201 526.858785 
L 511.081505 531.506202 
L 511.518809 540.441259 
L 511.956113 541.103201 
L 512.393417 547.721561 
L 512.830721 552.478784 
L 513.268025 561.430576 
L 513.705329 560.133152 
L 515.89185 582.589927 
L 516.766458 588.969129 
L 517.203762 594.35641 
L 517.641066 594.084344 
L 518.07837 594.551216 
L 518.515674 596.991047 
L 519.390282 597.707727 
L 519.827586 597.666252 
L 520.26489 598.636773 
L 520.702194 599.021556 
L 521.139498 599.744056 
L 521.576803 597.031993 
L 522.014107 593.302906 
L 522.451411 592.817877 
L 523.763323 584.118439 
L 524.200627 582.732376 
L 524.637931 577.020374 
L 526.387147 566.074951 
L 527.261755 553.876621 
L 527.69906 552.350854 
L 528.136364 552.589119 
L 528.573668 551.730585 
L 529.448276 541.472108 
L 529.88558 541.33194 
L 530.322884 535.679207 
L 530.760188 527.883283 
L 531.634796 519.458623 
L 532.0721 509.231367 
L 532.509404 506.744802 
L 532.946708 497.448512 
L 533.384013 479.260557 
L 533.821317 483.021064 
L 534.258621 478.753732 
L 534.695925 462.144132 
L 535.133229 467.365317 
L 535.570533 465.914495 
L 536.007837 465.174367 
L 536.445141 465.852449 
L 536.882445 459.075665 
L 537.319749 460.221412 
L 537.757053 464.235331 
L 538.631661 444.423843 
L 539.068966 443.326318 
L 539.50627 433.883113 
L 539.943574 438.57141 
L 540.380878 430.42854 
L 540.818182 425.157083 
L 541.255486 422.069168 
L 541.69279 423.444316 
L 542.130094 419.476568 
L 542.567398 419.850833 
L 543.004702 414.528905 
L 543.87931 412.671274 
L 544.316614 417.338735 
L 544.753918 417.519186 
L 545.191223 424.181402 
L 545.628527 426.442072 
L 546.065831 432.765809 
L 546.503135 435.589067 
L 546.940439 425.080881 
L 547.377743 423.233172 
L 547.815047 426.037313 
L 548.252351 425.980426 
L 548.689655 423.881554 
L 549.126959 427.89845 
L 549.564263 422.131215 
L 550.001567 420.705463 
L 550.438871 430.460225 
L 550.876176 436.636254 
L 551.31348 436.935308 
L 552.188088 435.966837 
L 552.625392 434.771214 
L 553.062696 435.638744 
L 553.5 447.090132 
L 553.937304 449.653627 
L 554.374608 450.853285 
L 554.811912 457.010197 
L 555.249216 459.7427 
L 555.68652 459.104373 
L 556.123824 467.246317 
L 556.561129 470.326823 
L 556.998433 469.698022 
L 557.435737 468.741722 
L 557.873041 472.016836 
L 558.310345 471.659835 
L 558.747649 479.481756 
L 559.184953 483.108446 
L 560.059561 487.315848 
L 560.496865 493.995394 
L 560.934169 496.163192 
L 561.371473 496.92343 
L 561.808777 502.917486 
L 562.246082 503.707424 
L 562.683386 506.914472 
L 563.12069 506.631094 
L 563.557994 510.032418 
L 564.432602 519.532973 
L 564.869906 521.819375 
L 565.30721 522.487204 
L 565.744514 530.492817 
L 566.181818 532.410708 
L 566.619122 539.386399 
L 567.056426 542.976575 
L 567.49373 550.407297 
L 567.931034 552.16736 
L 568.805643 567.495808 
L 569.242947 582.666691 
L 569.680251 581.319061 
L 570.117555 584.527497 
L 570.554859 585.693221 
L 570.992163 592.844601 
L 571.429467 591.434989 
L 571.866771 587.531967 
L 572.304075 593.561974 
L 572.741379 590.852557 
L 573.178683 590.20282 
L 573.615987 589.290641 
L 574.053292 590.030405 
L 574.490596 590.188234 
L 574.9279 592.640534 
L 575.802508 599.807988 
L 576.677116 601.851197 
L 577.11442 606.806566 
L 577.551724 604.925088 
L 578.426332 613.016859 
L 578.863636 615.271576 
L 579.30094 614.575899 
L 579.738245 615.6 
L 580.612853 611.910139 
L 581.050157 609.118765 
L 582.362069 602.783882 
L 582.799373 603.093553 
L 583.236677 601.651364 
L 583.673981 601.246109 
L 584.111285 599.324348 
L 584.548589 599.413151 
L 584.985893 593.900652 
L 585.423197 594.325552 
L 585.860502 594.346091 
L 586.297806 592.999982 
L 586.73511 592.914254 
L 587.172414 590.830398 
L 587.609718 589.305722 
L 588.047022 586.092291 
L 588.484326 584.63717 
L 588.92163 582.268283 
L 589.358934 576.523042 
L 590.233542 567.579948 
L 591.10815 553.52101 
L 591.982759 531.920553 
L 592.420063 527.85947 
L 593.294671 507.684565 
L 593.731975 503.047004 
L 594.606583 483.442426 
L 595.481191 469.369994 
L 595.918495 467.202262 
L 596.355799 452.461075 
L 596.793103 446.46821 
L 597.230408 431.084992 
L 597.667712 433.617595 
L 598.105016 423.05583 
L 598.54232 415.800334 
L 598.979624 405.984981 
L 600.291536 393.517561 
L 600.72884 378.414082 
L 602.915361 320.807681 
L 603.352665 318.463201 
L 603.789969 308.421755 
L 604.227273 303.69959 
L 604.664577 294.227016 
L 605.101881 294.382265 
L 605.539185 287.632469 
L 605.976489 279.055471 
L 606.413793 263.902447 
L 606.851097 268.965273 
L 607.288401 256.264748 
L 608.163009 240.6559 
L 608.600313 238.841199 
L 609.037618 231.55415 
L 609.474922 221.322595 
L 609.912226 229.042449 
L 610.34953 214.513068 
L 610.786834 220.682085 
L 611.224138 217.108843 
L 611.661442 233.619551 
L 612.098746 224.576343 
L 612.53605 227.241441 
L 612.973354 220.290952 
L 613.410658 236.273669 
L 613.847962 242.085488 
L 614.285266 236.822233 
L 614.722571 227.101207 
L 615.159875 225.630475 
L 615.597179 203.011076 
L 616.034483 187.670325 
L 616.471787 184.024386 
L 616.909091 190.598691 
L 617.346395 177.168952 
L 617.783699 158.760394 
L 618.221003 161.718924 
L 618.658307 162.238979 
L 619.095611 168.509996 
L 619.532915 184.085507 
L 619.970219 180.344778 
L 620.407524 175.175255 
L 620.844828 156.73402 
L 621.282132 125.951047 
L 622.594044 138.073704 
L 623.031348 133.728582 
L 623.468652 132.322873 
L 623.905956 132.005364 
L 624.34326 129.464557 
L 624.780564 128.698631 
L 625.655172 126.393179 
L 626.092476 123.406669 
L 626.529781 122.731365 
L 626.967085 123.709097 
L 627.404389 123.585202 
L 627.841693 119.253376 
L 628.278997 116.03925 
L 628.716301 119.151376 
L 629.153605 120.052707 
L 629.590909 121.909213 
L 630.028213 114.673495 
L 631.340125 142.956939 
L 631.777429 144.82092 
L 632.214734 150.934704 
L 632.652038 151.884984 
L 633.089342 151.113237 
L 633.526646 157.220273 
L 633.96395 156.126849 
L 634.401254 163.540174 
L 634.838558 165.987182 
L 635.275862 170.584857 
L 635.713166 180.408081 
L 636.15047 179.078509 
L 636.587774 180.745965 
L 637.462382 183.155335 
L 637.899687 175.220434 
L 638.336991 175.993504 
L 638.774295 175.658002 
L 639.211599 168.825323 
L 639.648903 166.379572 
L 640.086207 171.969332 
L 642.710031 142.117522 
L 643.147335 141.291467 
L 643.584639 146.547247 
L 644.021944 137.427439 
L 644.459248 132.203014 
L 644.896552 128.958857 
L 645.333856 122.780976 
L 645.77116 120.686337 
L 646.208464 126.160339 
L 646.645768 126.997109 
L 647.083072 133.085029 
L 647.520376 137.542603 
L 647.95768 153.022595 
L 648.394984 156.726083 
L 648.832288 169.148059 
L 649.269592 173.08313 
L 650.144201 176.927975 
L 650.581505 183.276584 
L 651.018809 178.100182 
L 651.456113 190.212917 
L 651.893417 194.036132 
L 652.330721 204.776629 
L 652.768025 202.46271 
L 653.205329 205.049158 
L 653.642633 218.768956 
L 654.079937 220.975583 
L 654.517241 218.214637 
L 654.954545 212.979958 
L 655.39185 216.689663 
L 655.829154 217.717668 
L 656.266458 220.658668 
L 656.703762 219.644688 
L 657.141066 229.873068 
L 657.57837 232.876182 
L 658.015674 227.530573 
L 658.452978 234.110898 
L 658.890282 237.623747 
L 659.327586 246.973882 
L 659.76489 245.787917 
L 660.202194 250.915171 
L 660.639498 250.533564 
L 661.076803 261.845248 
L 661.514107 264.771366 
L 662.388715 277.820291 
L 662.826019 277.075069 
L 663.263323 281.338565 
L 663.700627 282.115802 
L 664.137931 280.085327 
L 664.575235 279.425039 
L 665.449843 290.911949 
L 665.887147 293.094564 
L 666.324451 300.666909 
L 666.761755 301.479866 
L 667.19906 298.004655 
L 667.636364 302.705388 
L 668.073668 310.249686 
L 668.510972 313.893574 
L 668.948276 315.073321 
L 669.822884 323.691993 
L 670.260188 326.786258 
L 671.134796 337.474499 
L 671.5721 343.182267 
L 672.009404 343.839512 
L 672.446708 344.930754 
L 672.884013 350.011704 
L 673.321317 356.561932 
L 673.758621 359.343913 
L 674.195925 363.531603 
L 674.633229 366.400635 
L 675.507837 374.571618 
L 675.945141 375.195525 
L 676.382445 376.366805 
L 676.819749 374.596026 
L 677.257053 369.466457 
L 678.131661 366.926577 
L 678.568966 369.526784 
L 679.00627 370.869453 
L 679.443574 363.746782 
L 679.880878 369.247507 
L 680.318182 370.920983 
L 680.755486 367.799596 
L 681.19279 373.651964 
L 681.630094 376.149708 
L 682.067398 375.373066 
L 682.942006 377.013334 
L 683.37931 378.907016 
L 684.691223 370.106834 
L 685.128527 372.198893 
L 685.565831 370.388095 
L 686.003135 370.040819 
L 686.440439 368.524577 
L 686.877743 370.354624 
L 687.315047 369.91613 
L 687.752351 369.312729 
L 688.189655 367.447557 
L 688.626959 366.450643 
L 689.501567 368.844402 
L 689.938871 367.59262 
L 690.376176 368.100172 
L 690.81348 368.805904 
L 691.688088 373.806155 
L 692.125392 373.901937 
L 692.562696 372.582287 
L 693 376.322221 
L 693.437304 373.646011 
L 693.874608 377.517315 
L 694.311912 378.618677 
L 694.749216 380.632682 
L 695.18652 379.914845 
L 696.498433 394.640553 
L 696.935737 393.40974 
L 697.810345 390.010003 
L 698.247649 387.455174 
L 698.684953 386.962835 
L 699.122257 387.293839 
L 699.559561 390.124241 
L 699.996865 397.085908 
L 700.434169 394.564153 
L 700.871473 396.610173 
L 701.308777 395.472958 
L 701.746082 396.394663 
L 702.183386 394.092386 
L 702.62069 394.685931 
L 703.057994 390.390354 
L 703.932602 404.475751 
L 704.369906 414.97666 
L 704.80721 412.121189 
L 705.244514 404.450218 
L 705.681818 403.422147 
L 706.119122 403.479762 
L 706.556426 404.887389 
L 706.99373 409.490024 
L 707.431034 408.226468 
L 708.305643 417.977194 
L 708.742947 418.79584 
L 709.180251 423.14341 
L 709.617555 421.204351 
L 710.492163 411.248897 
L 710.929467 419.013136 
L 711.366771 413.650528 
L 711.804075 421.424028 
L 712.241379 420.307385 
L 712.678683 412.964177 
L 713.115987 413.222551 
L 713.553292 415.808205 
L 713.990596 416.78468 
L 714.4279 419.184591 
L 714.865204 424.934033 
L 715.302508 422.735013 
L 715.739812 421.670693 
L 716.177116 418.417276 
L 716.61442 417.310093 
L 717.051724 415.580392 
L 717.489028 420.366455 
L 717.926332 419.864658 
L 718.363636 429.09824 
L 719.238245 420.73351 
L 719.675549 414.32603 
L 720.112853 422.098207 
L 720.550157 412.190908 
L 720.987461 412.043994 
L 721.424765 412.585282 
L 721.862069 414.504364 
L 722.299373 406.364736 
L 723.173981 409.652947 
L 723.611285 401.640785 
L 724.048589 398.742648 
L 724.485893 403.614902 
L 724.923197 404.786778 
L 725.360502 409.047032 
L 725.797806 404.717323 
L 726.23511 409.07574 
L 726.672414 410.122398 
L 727.109718 414.268084 
L 727.547022 414.891329 
L 727.984326 413.572208 
L 728.42163 402.445672 
L 728.858934 412.244753 
L 729.296238 413.282084 
L 729.733542 421.358277 
L 730.170846 406.485852 
L 730.60815 412.249383 
L 731.045455 410.427009 
L 731.482759 421.865829 
L 731.920063 419.878747 
L 732.357367 419.571821 
L 732.794671 421.226775 
L 733.231975 417.525801 
L 733.669279 417.083404 
L 734.106583 418.085875 
L 734.981191 412.199111 
L 735.855799 418.931311 
L 737.167712 437.409059 
L 737.605016 430.9351 
L 738.04232 419.986568 
L 738.479624 420.983152 
L 738.916928 428.041726 
L 739.354232 428.475392 
L 739.791536 414.886699 
L 740.22884 414.962637 
L 740.666144 418.567167 
L 741.103448 416.817357 
L 741.540752 410.773822 
L 741.978056 422.063678 
L 742.415361 422.931736 
L 742.852665 415.598053 
L 743.289969 414.331321 
L 743.727273 407.347098 
L 744.164577 410.045931 
L 744.601881 401.888906 
L 745.039185 402.741882 
L 745.476489 399.849037 
L 746.351097 420.771148 
L 747.225705 405.582471 
L 747.663009 411.09378 
L 748.100313 427.316481 
L 748.974922 421.52702 
L 749.412226 402.223151 
L 749.84953 396.410737 
L 750.286834 404.54514 
L 751.161442 387.742586 
L 751.598746 396.699141 
L 752.03605 393.495401 
L 752.473354 374.560637 
L 752.910658 370.525088 
L 753.347962 369.618134 
L 753.785266 379.505919 
L 754.222571 377.091786 
L 754.659875 389.811692 
L 755.097179 388.97684 
L 755.534483 391.603704 
L 755.971787 387.913314 
L 756.409091 394.856923 
L 756.846395 393.799682 
L 757.283699 384.701305 
L 757.721003 382.984834 
L 758.158307 384.358263 
L 758.595611 378.062043 
L 759.032915 395.027585 
L 759.470219 391.050708 
L 759.907524 390.262093 
L 760.344828 386.019633 
L 760.782132 390.343719 
L 761.219436 387.422563 
L 761.65674 382.524577 
L 762.094044 370.873885 
L 762.531348 379.252374 
L 762.968652 382.498912 
L 763.405956 377.559782 
L 763.84326 370.057819 
L 764.280564 369.656367 
L 764.717868 358.919244 
L 765.155172 364.782724 
L 765.592476 375.98533 
L 766.029781 382.72441 
L 766.467085 379.832888 
L 766.904389 370.753695 
L 767.341693 382.503145 
L 767.778997 382.661239 
L 768.653605 368.446589 
L 769.090909 378.585273 
L 769.528213 384.227687 
L 769.965517 378.693028 
L 770.402821 380.483254 
L 770.840125 387.311699 
L 771.277429 391.081004 
L 771.714734 384.332465 
L 772.152038 388.904606 
L 772.589342 388.954151 
L 773.026646 382.990391 
L 773.901254 388.230295 
L 774.338558 394.590413 
L 774.775862 393.718981 
L 775.213166 397.465266 
L 775.65047 396.189935 
L 776.087774 391.23784 
L 776.525078 389.012956 
L 776.962382 391.555086 
L 777.399687 398.848749 
L 777.836991 394.79825 
L 778.274295 395.388818 
L 778.711599 404.501813 
L 779.148903 409.124557 
L 779.586207 406.485191 
L 780.023511 407.545541 
L 780.460815 410.459554 
L 780.898119 411.960978 
L 781.335423 411.099998 
L 781.772727 409.168215 
L 782.210031 408.61588 
L 783.084639 396.51955 
L 783.521944 395.106301 
L 783.959248 411.910772 
L 784.396552 410.918885 
L 784.833856 417.760891 
L 785.27116 417.14082 
L 785.708464 417.873937 
L 786.145768 417.888358 
L 786.583072 412.013963 
L 787.020376 412.210819 
L 787.45768 423.289001 
L 787.894984 424.100239 
L 788.332288 424.480655 
L 788.769592 425.145772 
L 789.206897 428.189567 
L 789.644201 428.228395 
L 790.081505 430.13438 
L 790.518809 435.102549 
L 790.956113 435.678697 
L 791.393417 434.394436 
L 791.830721 430.091252 
L 792.268025 431.232104 
L 793.142633 444.527629 
L 793.579937 441.578823 
L 794.017241 444.07498 
L 794.454545 451.833927 
L 795.329154 453.688912 
L 795.766458 453.908126 
L 796.203762 456.007131 
L 797.07837 466.970943 
L 797.515674 470.441458 
L 797.952978 476.194008 
L 798.390282 480.452145 
L 798.827586 478.966861 
L 799.26489 476.209883 
L 799.702194 469.323492 
L 800.139498 472.925112 
L 800.576803 472.293466 
L 801.014107 475.060035 
L 801.451411 474.782346 
L 801.888715 476.600884 
L 802.326019 479.677884 
L 802.763323 484.342567 
L 803.200627 482.754885 
L 803.637931 485.809991 
L 804.512539 494.957714 
L 804.949843 493.892402 
L 805.387147 497.20952 
L 805.824451 505.45386 
L 806.261755 505.169425 
L 806.69906 508.348558 
L 807.136364 504.483405 
L 808.010972 518.564833 
L 808.448276 521.343375 
L 808.88558 513.548178 
L 809.322884 522.3772 
L 809.760188 526.52143 
L 810.197492 525.494352 
L 810.634796 527.19045 
L 811.0721 527.228551 
L 811.509404 529.622774 
L 811.946708 528.816034 
L 812.384013 529.341976 
L 813.695925 538.882418 
L 814.133229 539.7305 
L 814.570533 536.887994 
L 815.007837 539.56566 
L 815.445141 540.545971 
L 815.882445 541.17808 
L 816.319749 543.536451 
L 816.757053 544.062062 
L 817.194357 543.937373 
L 817.631661 541.435991 
L 818.068966 534.297312 
L 818.50627 531.906 
L 818.943574 531.099856 
L 819.380878 532.145125 
L 819.818182 536.729106 
L 820.255486 544.663611 
L 820.69279 543.507941 
L 821.130094 545.691747 
L 821.567398 549.189647 
L 822.004702 554.528773 
L 822.442006 555.552941 
L 822.87931 552.0475 
L 823.316614 552.236815 
L 823.753918 552.292445 
L 824.191223 553.816162 
L 824.628527 551.417177 
L 825.065831 552.735769 
L 825.503135 551.616943 
L 825.940439 553.786858 
L 826.377743 556.892303 
L 826.815047 558.469467 
L 827.252351 561.750798 
L 827.689655 563.700705 
L 828.126959 566.236286 
L 828.564263 567.822975 
L 829.001567 569.931703 
L 829.438871 571.302387 
L 829.876176 566.850337 
L 830.31348 564.526032 
L 830.750784 564.386593 
L 831.188088 567.191594 
L 831.625392 568.133473 
L 832.062696 570.232345 
L 832.5 570.936688 
L 833.374608 573.178076 
L 833.811912 578.714488 
L 834.249216 578.558544 
L 834.68652 577.840542 
L 835.123824 571.500069 
L 835.561129 572.100494 
L 835.998433 570.60112 
L 836.873041 562.52797 
L 837.310345 565.175075 
L 837.747649 563.652285 
L 838.184953 566.204072 
L 838.622257 565.319939 
L 839.059561 563.56788 
L 839.496865 562.745729 
L 839.934169 557.766116 
L 840.371473 550.80048 
L 840.808777 555.180263 
L 841.683386 548.579565 
L 842.12069 547.086938 
L 842.557994 546.844638 
L 843.432602 539.522002 
L 843.869906 541.304489 
L 844.30721 540.973287 
L 844.744514 534.17937 
L 845.181818 533.940973 
L 846.056426 526.59545 
L 846.49373 521.581904 
L 846.931034 523.718017 
L 847.368339 526.633088 
L 847.805643 525.968037 
L 848.242947 523.354932 
L 848.680251 522.493752 
L 849.117555 513.287886 
L 849.554859 515.937373 
L 849.992163 514.561365 
L 850.866771 508.727916 
L 851.304075 503.495883 
L 851.741379 503.131938 
L 852.178683 499.907162 
L 852.615987 501.42261 
L 853.053292 496.540632 
L 853.490596 495.760749 
L 853.9279 491.987078 
L 854.802508 489.073794 
L 855.239812 484.029753 
L 855.677116 481.9752 
L 856.11442 477.818666 
L 856.551724 478.065331 
L 856.989028 474.799611 
L 857.426332 475.450373 
L 857.863636 472.537287 
L 858.30094 472.005127 
L 858.738245 467.97143 
L 859.175549 466.635507 
L 859.612853 459.881015 
L 860.050157 457.908088 
L 860.487461 452.496861 
L 860.924765 449.168565 
L 861.362069 439.85243 
L 861.799373 437.72313 
L 862.236677 432.323677 
L 862.673981 425.343157 
L 863.111285 423.672196 
L 863.548589 425.664107 
L 863.985893 423.178799 
L 864.423197 418.561412 
L 864.860502 416.489594 
L 865.297806 416.750482 
L 866.172414 411.546496 
L 866.609718 412.098169 
L 867.047022 410.167842 
L 867.484326 409.666904 
L 867.92163 410.279301 
L 868.358934 409.784184 
L 868.796238 418.109953 
L 869.233542 422.442705 
L 869.670846 423.47534 
L 870.10815 427.931193 
L 870.545455 427.561426 
L 870.982759 421.378452 
L 871.420063 421.266 
L 871.857367 415.008676 
L 872.294671 415.86119 
L 873.169279 398.888636 
L 873.606583 399.3608 
L 874.043887 402.340696 
L 874.481191 403.344887 
L 874.918495 407.429584 
L 875.355799 405.736595 
L 875.793103 411.739978 
L 876.230408 413.030854 
L 876.667712 415.168886 
L 877.105016 415.993882 
L 877.54232 415.957302 
L 877.979624 413.690415 
L 878.416928 416.551972 
L 878.854232 416.556073 
L 879.291536 418.12477 
L 880.166144 425.773383 
L 880.603448 434.476989 
L 881.040752 434.113638 
L 881.478056 435.070203 
L 881.915361 439.599811 
L 882.352665 438.952356 
L 882.789969 436.9576 
L 883.227273 439.630173 
L 883.664577 437.469585 
L 884.101881 438.464515 
L 884.539185 439.166013 
L 884.976489 441.471994 
L 885.413793 437.415807 
L 885.851097 437.066876 
L 886.288401 441.13206 
L 886.725705 436.411682 
L 887.163009 441.20522 
L 887.600313 439.905745 
L 888.037618 440.210422 
L 888.474922 438.009021 
L 888.912226 440.164383 
L 889.34953 449.14958 
L 889.786834 448.167086 
L 890.224138 444.61931 
L 890.661442 448.464553 
L 891.098746 444.742346 
L 891.973354 451.641238 
L 892.410658 457.767127 
L 892.847962 460.427198 
L 893.285266 470.126726 
L 893.722571 470.654983 
L 894.159875 472.520353 
L 894.597179 468.998442 
L 895.034483 470.832127 
L 895.471787 471.807941 
L 895.909091 471.059147 
L 896.783699 474.886529 
L 897.221003 478.918374 
L 897.658307 474.812973 
L 898.095611 475.100584 
L 898.532915 479.240118 
L 898.970219 481.783967 
L 899.407524 480.222149 
L 899.844828 483.017757 
L 900.282132 481.697842 
L 901.15674 475.707292 
L 901.594044 478.073335 
L 902.031348 479.566888 
L 902.468652 479.984083 
L 902.905956 484.002633 
L 903.780564 487.893649 
L 904.217868 483.353457 
L 905.967085 473.058135 
L 906.404389 472.923723 
L 906.841693 473.221851 
L 907.278997 472.011544 
L 907.716301 469.591788 
L 908.153605 469.533909 
L 908.590909 462.655257 
L 910.340125 457.240656 
L 910.777429 454.051535 
L 911.214734 452.686573 
L 912.089342 447.588689 
L 912.526646 450.078296 
L 912.96395 448.736288 
L 913.401254 448.150086 
L 913.838558 446.990712 
L 914.713166 445.486178 
L 915.15047 443.894131 
L 915.587774 441.544625 
L 916.462382 435.031903 
L 916.899687 434.818841 
L 917.336991 435.476946 
L 917.774295 441.154286 
L 918.648903 444.848248 
L 919.086207 446.520004 
L 919.523511 447.258809 
L 919.960815 442.087831 
L 920.398119 440.360776 
L 920.835423 439.634803 
L 921.272727 439.178317 
L 921.710031 440.360776 
L 922.147335 431.649961 
L 922.584639 443.452925 
L 923.021944 450.203514 
L 923.459248 454.141496 
L 923.896552 452.901752 
L 924.333856 450.916324 
L 924.77116 450.590546 
L 925.208464 453.468838 
L 925.645768 450.945297 
L 926.083072 450.462748 
L 926.520376 450.310409 
L 926.95768 452.645165 
L 927.394984 450.246775 
L 927.832288 449.016094 
L 928.269592 448.982292 
L 929.144201 443.662415 
L 930.018809 427.56685 
L 930.893417 438.22334 
L 931.330721 440.80099 
L 931.768025 438.151172 
L 932.205329 447.985113 
L 932.642633 445.412357 
L 933.079937 444.633202 
L 933.517241 437.968604 
L 933.954545 444.626521 
L 933.954545 444.626521 
" style="fill:none;stroke:#ff0000;stroke-linecap:square;stroke-width:1.5;"/>
   </g>
   <g id="line2d_34">
    <path clip-path="url(#p1b40f16314)" d="M 173.045455 542.746381 
L 174.357367 552.144803 
L 174.794671 554.407524 
L 175.231975 555.688014 
L 176.106583 559.285004 
L 176.543887 560.092339 
L 176.981191 561.268646 
L 177.418495 561.96816 
L 178.293103 564.470931 
L 179.167712 566.047831 
L 180.04232 566.399605 
L 180.916928 567.653438 
L 181.354232 568.505753 
L 182.22884 569.491621 
L 182.666144 570.467534 
L 183.103448 571.957284 
L 183.540752 574.032177 
L 184.415361 576.528234 
L 184.852665 577.08348 
L 185.289969 577.029503 
L 185.727273 576.58962 
L 186.164577 576.531674 
L 186.601881 576.711861 
L 187.476489 575.587744 
L 187.913793 575.462162 
L 189.225705 573.953031 
L 189.663009 573.649909 
L 190.100313 573.506467 
L 190.537618 572.977482 
L 191.84953 570.857112 
L 192.286834 570.396987 
L 192.724138 569.597193 
L 193.161442 567.821983 
L 194.03605 562.813265 
L 194.910658 556.525116 
L 195.785266 553.671166 
L 196.659875 552.487912 
L 197.097179 553.017955 
L 197.971787 555.251174 
L 198.409091 555.56326 
L 199.721003 553.738901 
L 200.158307 552.701835 
L 200.595611 551.184932 
L 201.470219 546.461179 
L 202.344828 540.636726 
L 202.782132 536.698017 
L 203.219436 531.724358 
L 204.531348 511.095944 
L 205.405956 496.213597 
L 208.467085 433.412008 
L 211.090909 399.669049 
L 215.026646 354.668846 
L 218.525078 310.234472 
L 220.274295 293.953891 
L 221.586207 286.668959 
L 222.023511 285.95906 
L 222.460815 287.321045 
L 223.335423 292.078268 
L 223.772727 293.733949 
L 224.210031 296.883581 
L 225.084639 305.202801 
L 225.521944 308.979514 
L 227.708464 321.647296 
L 228.145768 322.256782 
L 228.583072 322.331728 
L 229.020376 321.793152 
L 229.45768 321.836214 
L 229.894984 323.012919 
L 230.332288 324.739577 
L 230.769592 327.130624 
L 232.081505 336.552133 
L 232.956113 346.037209 
L 233.393417 351.050954 
L 233.830721 358.194858 
L 234.705329 368.776071 
L 236.454545 395.992285 
L 237.329154 406.702685 
L 238.203762 416.550649 
L 239.515674 426.035792 
L 240.390282 430.069754 
L 240.827586 431.391587 
L 241.26489 432.327116 
L 241.702194 432.785257 
L 242.139498 432.567961 
L 242.576803 431.533011 
L 243.451411 427.713103 
L 245.637931 416.316155 
L 246.075235 414.522753 
L 246.949843 412.860986 
L 247.824451 410.103612 
L 248.261755 409.615242 
L 249.136364 404.100295 
L 249.573668 400.680913 
L 250.448276 395.890418 
L 251.760188 386.114886 
L 252.197492 381.926137 
L 252.634796 378.90953 
L 253.509404 375.146311 
L 255.258621 366.909974 
L 255.695925 364.758646 
L 256.570533 358.58222 
L 258.319749 344.258162 
L 259.194357 339.761495 
L 260.943574 335.255303 
L 261.380878 333.790062 
L 261.818182 331.499228 
L 262.255486 330.579508 
L 262.69279 330.243014 
L 263.567398 331.305018 
L 264.004702 332.358291 
L 265.316614 337.780433 
L 266.191223 343.932979 
L 267.065831 350.344097 
L 267.503135 351.351794 
L 267.940439 352.732433 
L 268.377743 352.817631 
L 268.815047 354.385601 
L 269.252351 355.420947 
L 269.689655 357.187757 
L 270.126959 357.411734 
L 270.564263 356.976216 
L 271.001567 357.075372 
L 271.438871 356.711955 
L 271.876176 355.94001 
L 272.31348 354.465243 
L 272.750784 353.714927 
L 273.188088 353.29588 
L 273.625392 352.275417 
L 274.937304 346.26403 
L 275.374608 346.364972 
L 276.249216 347.780801 
L 276.68652 350.187393 
L 277.123824 354.398235 
L 277.998433 360.265287 
L 278.435737 361.090349 
L 279.310345 364.990428 
L 279.747649 366.510374 
L 280.622257 366.51044 
L 281.059561 366.239102 
L 282.371473 363.52016 
L 282.808777 363.174801 
L 283.246082 362.435665 
L 283.683386 362.912327 
L 284.12069 363.958125 
L 284.995298 368.666663 
L 286.744514 380.880604 
L 287.181818 383.229052 
L 288.931034 390.249525 
L 289.368339 393.31065 
L 291.117555 408.714044 
L 291.992163 414.341442 
L 292.429467 415.319968 
L 293.304075 418.322288 
L 295.053292 426.013566 
L 296.802508 436.336736 
L 297.677116 440.516885 
L 298.551724 443.876007 
L 301.175549 449.825612 
L 302.050157 453.424387 
L 302.924765 456.056676 
L 303.799373 459.929038 
L 304.236677 461.18221 
L 304.673981 461.274222 
L 305.111285 460.553474 
L 305.548589 458.976906 
L 306.423197 454.542418 
L 306.860502 452.711643 
L 307.73511 450.818028 
L 308.609718 449.789098 
L 309.047022 448.641234 
L 309.92163 444.812198 
L 312.10815 428.281181 
L 312.545455 425.804274 
L 312.982759 424.151371 
L 313.420063 423.541091 
L 313.857367 423.680332 
L 315.169279 425.560585 
L 316.043887 428.363734 
L 317.355799 433.287716 
L 317.793103 434.759638 
L 318.667712 437.007939 
L 319.105016 438.412655 
L 319.54232 438.744056 
L 319.979624 437.724651 
L 320.854232 433.913342 
L 322.603448 425.396142 
L 323.040752 424.019803 
L 325.227273 419.307097 
L 326.101881 416.07445 
L 326.539185 414.484785 
L 326.976489 413.572341 
L 327.413793 412.254014 
L 327.851097 411.454286 
L 328.725705 412.631718 
L 329.163009 412.864162 
L 329.600313 413.736454 
L 330.037618 413.865111 
L 331.786834 410.364433 
L 332.224138 410.748554 
L 332.661442 410.712702 
L 333.098746 409.830157 
L 333.53605 407.954005 
L 334.410658 398.225504 
L 335.285266 392.554448 
L 335.722571 390.105587 
L 336.159875 388.658999 
L 336.597179 387.670882 
L 337.034483 387.763622 
L 337.471787 388.68612 
L 337.909091 389.960128 
L 339.658307 397.214566 
L 340.095611 399.646625 
L 341.407524 404.703961 
L 342.282132 406.138708 
L 342.719436 405.459568 
L 343.15674 404.007556 
L 343.594044 401.234372 
L 344.905956 396.68234 
L 345.34326 394.277997 
L 345.780564 393.695432 
L 346.217868 393.859545 
L 346.655172 394.742421 
L 347.967085 395.6632 
L 348.841693 395.430227 
L 349.716301 394.599409 
L 350.153605 393.542962 
L 350.590909 392.055957 
L 351.902821 386.602792 
L 352.340125 385.379652 
L 352.777429 385.068955 
L 353.652038 384.846235 
L 354.526646 384.830823 
L 354.96395 385.114796 
L 355.838558 384.933815 
L 356.275862 384.1835 
L 356.713166 383.726815 
L 357.15047 382.445531 
L 357.587774 379.944149 
L 358.025078 376.610626 
L 358.899687 371.87166 
L 359.336991 365.947985 
L 359.774295 361.633225 
L 360.211599 358.734228 
L 361.086207 356.708053 
L 361.523511 357.335465 
L 361.960815 357.649138 
L 362.398119 360.287182 
L 362.835423 360.248684 
L 363.272727 358.901648 
L 364.147335 354.362052 
L 365.021944 354.059293 
L 365.459248 353.250172 
L 365.896552 350.575814 
L 366.333856 349.814518 
L 366.77116 350.518265 
L 367.208464 352.223293 
L 368.083072 357.997936 
L 368.520376 358.985458 
L 368.95768 358.396676 
L 369.394984 359.588925 
L 370.269592 369.173091 
L 371.144201 380.037417 
L 371.581505 381.430888 
L 372.018809 379.682203 
L 372.456113 379.548584 
L 372.893417 382.734861 
L 373.330721 384.81627 
L 373.768025 385.727524 
L 374.205329 387.003318 
L 375.079937 394.998083 
L 375.517241 396.838581 
L 376.39185 404.644428 
L 376.829154 412.938843 
L 377.703762 424.138737 
L 378.141066 424.441496 
L 378.57837 424.133511 
L 379.452978 436.270456 
L 379.890282 431.671988 
L 380.327586 429.077933 
L 380.76489 430.611439 
L 381.202194 436.472472 
L 382.076803 444.011147 
L 382.514107 448.411171 
L 384.263323 475.918767 
L 386.012539 511.008695 
L 386.887147 525.655092 
L 387.324451 529.514093 
L 387.761755 531.270121 
L 388.19906 531.377412 
L 388.636364 528.388454 
L 389.073668 526.275956 
L 389.948276 530.142233 
L 390.38558 531.262977 
L 390.822884 531.461883 
L 391.697492 532.897358 
L 392.134796 532.534339 
L 392.5721 530.955455 
L 393.009404 530.735183 
L 393.446708 531.098996 
L 393.884013 532.055891 
L 395.195925 536.060814 
L 395.633229 536.687301 
L 396.070533 536.609643 
L 396.507837 536.01504 
L 396.945141 535.809585 
L 397.382445 536.574453 
L 397.819749 536.821846 
L 398.694357 534.524993 
L 399.131661 534.521156 
L 400.00627 537.561181 
L 401.318182 543.682505 
L 402.19279 545.607607 
L 402.630094 545.270584 
L 403.067398 544.783801 
L 403.504702 543.68449 
L 403.942006 542.197022 
L 404.37931 541.281999 
L 404.816614 541.810851 
L 405.253918 542.928353 
L 405.691223 544.428455 
L 406.128527 546.597841 
L 406.565831 547.047382 
L 407.003135 547.685047 
L 407.440439 549.388355 
L 408.315047 551.067122 
L 408.752351 550.670499 
L 409.626959 550.977161 
L 410.064263 550.736383 
L 410.501567 548.194717 
L 410.938871 543.420295 
L 412.250784 536.412986 
L 413.125392 530.287758 
L 413.562696 527.287026 
L 414 525.477948 
L 414.874608 524.123305 
L 415.311912 522.838515 
L 415.749216 522.462663 
L 416.18652 524.163523 
L 417.498433 527.815812 
L 418.373041 531.330051 
L 418.810345 532.003965 
L 419.247649 532.35607 
L 419.684953 532.533347 
L 420.122257 533.231207 
L 420.559561 534.639297 
L 421.434169 539.835609 
L 422.746082 549.040483 
L 423.62069 552.248193 
L 424.057994 552.886387 
L 424.932602 552.391006 
L 425.369906 551.723838 
L 426.244514 549.659958 
L 427.119122 548.698168 
L 427.556426 548.683549 
L 427.99373 549.287678 
L 428.431034 549.467005 
L 429.305643 550.511282 
L 429.742947 551.530422 
L 430.180251 551.799842 
L 430.617555 552.613461 
L 431.054859 554.221913 
L 432.804075 563.487114 
L 433.241379 564.67599 
L 433.678683 564.9425 
L 434.115987 563.701565 
L 434.553292 561.248604 
L 434.990596 557.826046 
L 436.739812 540.688586 
L 437.177116 537.782578 
L 437.61442 535.825526 
L 438.926332 531.770265 
L 439.363636 530.783934 
L 439.80094 530.083229 
L 440.238245 529.627735 
L 440.675549 528.623412 
L 441.550157 527.610423 
L 441.987461 525.427014 
L 442.862069 518.63065 
L 444.173981 505.537604 
L 445.485893 494.502285 
L 448.109718 473.530167 
L 448.984326 466.060814 
L 449.858934 459.031081 
L 451.170846 448.455887 
L 452.045455 439.859971 
L 452.920063 430.543108 
L 453.357367 426.584488 
L 454.669279 417.785498 
L 455.543887 410.319453 
L 456.418495 401.249917 
L 456.855799 397.931543 
L 457.730408 394.50667 
L 458.167712 394.483254 
L 458.605016 393.989526 
L 459.04232 392.221393 
L 459.916928 386.467255 
L 460.791536 378.295611 
L 461.666144 372.907933 
L 462.103448 370.860656 
L 462.540752 369.635928 
L 462.978056 367.813884 
L 463.415361 364.848806 
L 464.727273 347.907673 
L 465.601881 336.252549 
L 466.039185 331.707859 
L 466.913793 326.814966 
L 467.351097 324.935308 
L 467.788401 323.912861 
L 468.225705 323.394393 
L 468.663009 323.17002 
L 469.537618 323.392012 
L 469.974922 322.56093 
L 471.724138 315.295049 
L 472.161442 314.581909 
L 473.03605 314.292445 
L 473.910658 314.977539 
L 474.347962 315.26773 
L 474.785266 315.195893 
L 476.534483 313.253262 
L 476.971787 313.19664 
L 477.409091 313.559858 
L 477.846395 314.203873 
L 479.158307 317.447302 
L 479.595611 317.779629 
L 480.032915 317.261295 
L 480.470219 317.149901 
L 480.907524 317.85345 
L 481.782132 318.817953 
L 482.65674 321.825763 
L 483.531348 325.845569 
L 484.84326 329.876753 
L 485.280564 330.047547 
L 485.717868 330.848995 
L 486.592476 332.055135 
L 487.029781 332.799233 
L 487.467085 333.077848 
L 488.341693 334.959755 
L 490.528213 341.563959 
L 491.402821 344.908396 
L 493.152038 352.811413 
L 494.026646 357.480131 
L 496.213166 370.999368 
L 499.711599 399.864317 
L 501.460815 415.710042 
L 502.772727 427.611633 
L 503.210031 431.370023 
L 504.521944 447.118708 
L 505.396552 459.292431 
L 507.145768 483.805049 
L 508.45768 499.945396 
L 509.332288 511.130605 
L 510.206897 519.604744 
L 511.081505 527.335446 
L 512.830721 545.507393 
L 515.017241 566.866477 
L 517.203762 585.864743 
L 518.07837 592.504931 
L 518.952978 596.722322 
L 519.390282 598.22626 
L 519.827586 599.282443 
L 520.26489 599.837887 
L 520.702194 600.163235 
L 521.139498 600.230937 
L 521.576803 600.177622 
L 522.014107 599.440173 
L 522.888715 596.147893 
L 523.763323 591.375324 
L 525.075235 582.261535 
L 527.261755 564.496927 
L 528.136364 555.659835 
L 529.010972 549.566954 
L 530.760188 537.238577 
L 532.0721 524.453516 
L 533.384013 507.983884 
L 534.258621 492.709347 
L 534.695925 486.471999 
L 535.570533 472.09231 
L 536.445141 463.041032 
L 537.757053 454.810846 
L 538.194357 454.281862 
L 538.631661 452.190266 
L 539.943574 442.09901 
L 540.380878 439.806192 
L 542.567398 424.039383 
L 543.442006 419.134914 
L 544.316614 414.463088 
L 544.753918 413.632932 
L 545.191223 413.325543 
L 545.628527 414.519181 
L 546.065831 416.478746 
L 546.940439 423.412565 
L 547.377743 424.798033 
L 547.815047 425.384103 
L 548.689655 427.356037 
L 549.126959 427.759076 
L 549.564263 428.740049 
L 550.001567 428.581559 
L 550.438871 427.887337 
L 550.876176 429.060734 
L 552.188088 436.044627 
L 552.625392 437.57734 
L 553.5 439.343223 
L 554.811912 448.408062 
L 557.435737 470.289913 
L 558.310345 475.048459 
L 558.747649 476.834253 
L 560.496865 488.048038 
L 563.12069 507.427581 
L 564.432602 515.73807 
L 565.30721 522.576702 
L 565.744514 525.236243 
L 567.056426 536.095013 
L 568.368339 549.054639 
L 569.242947 559.273494 
L 570.117555 573.198747 
L 570.992163 583.616376 
L 571.429467 588.546245 
L 571.866771 592.208589 
L 572.741379 596.285878 
L 573.178683 597.352942 
L 573.615987 597.681896 
L 574.053292 597.38638 
L 574.490596 596.867582 
L 574.9279 596.148819 
L 575.365204 595.75438 
L 575.802508 596.032796 
L 577.11442 598.753756 
L 577.551724 600.438146 
L 577.989028 601.620374 
L 578.426332 603.226642 
L 579.738245 609.785601 
L 580.175549 611.471777 
L 580.612853 612.476563 
L 581.050157 612.847289 
L 581.487461 612.468493 
L 581.924765 611.534816 
L 582.362069 610.261337 
L 584.548589 601.819446 
L 584.985893 600.334459 
L 585.860502 596.059454 
L 586.73511 592.972068 
L 587.609718 590.40983 
L 588.047022 589.011331 
L 589.358934 583.507166 
L 590.233542 577.569633 
L 591.10815 569.450544 
L 591.545455 564.232468 
L 592.857367 541.928065 
L 594.606583 507.092873 
L 596.355799 471.553536 
L 598.979624 419.163292 
L 599.854232 403.102918 
L 601.603448 373.805427 
L 602.915361 345.139053 
L 604.227273 313.417044 
L 605.539185 287.628103 
L 609.912226 219.014894 
L 610.34953 215.002628 
L 610.786834 209.554953 
L 611.661442 203.609582 
L 612.098746 204.999614 
L 612.53605 205.401197 
L 612.973354 206.700408 
L 613.410658 206.997676 
L 613.847962 210.671529 
L 614.722571 219.689337 
L 615.159875 221.202007 
L 615.597179 222.062194 
L 616.034483 218.335753 
L 617.783699 192.177906 
L 618.658307 173.630371 
L 619.095611 166.442015 
L 619.532915 161.754843 
L 619.970219 161.268259 
L 620.407524 160.991033 
L 620.844828 160.204733 
L 621.282132 156.213635 
L 622.15674 138.541899 
L 622.594044 132.714733 
L 623.905956 122.510762 
L 624.780564 118.191835 
L 625.217868 116.625122 
L 626.092476 114.557339 
L 626.967085 113.168498 
L 627.404389 113.057238 
L 627.841693 113.239806 
L 628.278997 112.812028 
L 628.716301 111.838529 
L 629.153605 111.6 
L 629.590909 111.78151 
L 630.028213 112.764732 
L 630.465517 112.540623 
L 630.902821 114.047273 
L 631.340125 118.113317 
L 634.401254 153.486424 
L 637.025078 180.271155 
L 637.899687 186.065048 
L 638.336991 186.36655 
L 638.774295 186.191126 
L 639.211599 185.590503 
L 640.960815 176.171244 
L 641.835423 168.185541 
L 644.021944 144.213682 
L 645.333856 131.500589 
L 646.208464 122.570626 
L 646.645768 120.166812 
L 647.083072 118.77387 
L 647.520376 119.171617 
L 647.95768 120.982944 
L 648.832288 132.007811 
L 651.018809 170.354133 
L 651.893417 182.06502 
L 654.517241 219.463972 
L 654.954545 224.025992 
L 655.829154 228.528811 
L 656.703762 231.574193 
L 657.141066 232.185002 
L 658.015674 236.660171 
L 658.452978 237.421136 
L 659.327586 240.662184 
L 660.202194 246.734493 
L 661.514107 256.511745 
L 662.388715 265.804199 
L 663.263323 276.013727 
L 664.137931 284.525636 
L 664.575235 287.17585 
L 665.012539 288.965283 
L 665.887147 294.321343 
L 666.324451 297.014686 
L 667.19906 303.864431 
L 668.073668 307.578237 
L 669.822884 320.258719 
L 671.134796 331.252563 
L 672.884013 347.547828 
L 673.758621 355.184072 
L 675.945141 374.348104 
L 676.819749 380.185324 
L 677.257053 381.894651 
L 677.694357 381.965098 
L 678.131661 381.232114 
L 679.00627 379.049432 
L 679.443574 378.293428 
L 679.880878 376.056836 
L 680.318182 374.565003 
L 680.755486 373.823221 
L 681.19279 372.533469 
L 681.630094 372.443773 
L 683.37931 374.617326 
L 683.816614 375.57528 
L 684.253918 375.837887 
L 684.691223 375.166023 
L 685.128527 374.019085 
L 685.565831 373.352777 
L 687.315047 369.924663 
L 688.189655 368.86762 
L 689.501567 366.520032 
L 689.938871 366.33118 
L 690.376176 366.012215 
L 690.81348 365.846316 
L 691.250784 365.888386 
L 691.688088 366.473332 
L 692.562696 368.796974 
L 693 369.544048 
L 693.437304 370.889496 
L 693.874608 371.58352 
L 694.749216 374.21131 
L 696.061129 379.053798 
L 697.810345 390.310513 
L 698.247649 391.474517 
L 698.684953 391.667735 
L 699.559561 391.183731 
L 699.996865 391.301805 
L 700.434169 392.724845 
L 701.746082 395.225698 
L 702.183386 395.742246 
L 703.057994 395.548764 
L 703.495298 394.499526 
L 703.932602 394.813662 
L 704.369906 396.552889 
L 705.244514 403.254132 
L 705.681818 404.214797 
L 706.119122 404.508626 
L 706.556426 404.638673 
L 706.99373 404.885272 
L 707.431034 405.835023 
L 707.868339 406.420829 
L 708.305643 407.786518 
L 710.054859 416.381575 
L 710.492163 416.803995 
L 710.929467 415.943081 
L 711.366771 416.462408 
L 711.804075 415.94705 
L 712.678683 417.2114 
L 713.990596 414.063356 
L 714.4279 413.64894 
L 714.865204 413.774356 
L 715.302508 415.084878 
L 715.739812 416.039855 
L 716.177116 416.561365 
L 716.61442 416.349626 
L 717.051724 415.740668 
L 717.489028 414.775372 
L 718.363636 414.805469 
L 718.80094 416.637435 
L 719.238245 417.813214 
L 719.675549 417.846552 
L 720.112853 416.431583 
L 720.550157 416.472594 
L 721.862069 411.476379 
L 722.299373 410.453402 
L 723.173981 406.065747 
L 723.611285 404.680412 
L 724.923197 397.314449 
L 725.360502 396.419138 
L 725.797806 396.650192 
L 726.23511 396.288231 
L 726.672414 396.804846 
L 727.109718 397.757772 
L 728.42163 402.986828 
L 728.858934 402.187233 
L 729.296238 403.066404 
L 729.733542 404.440163 
L 730.170846 407.206534 
L 730.60815 406.926794 
L 731.045455 407.294907 
L 731.482759 407.369985 
L 732.357367 411.295795 
L 733.231975 413.968037 
L 733.669279 414.348388 
L 734.543887 414.572695 
L 734.981191 414.101722 
L 735.418495 412.997185 
L 735.855799 412.667305 
L 736.293103 413.047788 
L 736.730408 414.674034 
L 737.167712 417.449069 
L 737.605016 421.178355 
L 738.04232 423.29039 
L 738.479624 422.662845 
L 738.916928 421.832623 
L 739.791536 423.115363 
L 741.103448 417.144591 
L 741.540752 415.60996 
L 741.978056 413.087609 
L 742.415361 412.96378 
L 742.852665 413.449636 
L 743.289969 412.587399 
L 743.727273 411.445686 
L 744.164577 409.174565 
L 744.601881 407.595218 
L 745.913793 399.705563 
L 746.351097 399.650131 
L 746.788401 401.992361 
L 747.225705 403.049073 
L 747.663009 402.419015 
L 748.100313 402.753988 
L 748.974922 409.819507 
L 749.412226 412.065294 
L 749.84953 410.118826 
L 750.286834 406.601677 
L 750.724138 404.867941 
L 751.161442 402.063999 
L 751.598746 397.670655 
L 752.473354 392.979646 
L 753.785266 375.555766 
L 754.659875 370.481496 
L 755.097179 371.252714 
L 755.534483 372.424855 
L 755.971787 374.218454 
L 756.409091 375.37968 
L 757.283699 380.406125 
L 757.721003 380.89218 
L 758.158307 380.817499 
L 758.595611 380.924592 
L 759.032915 379.829448 
L 759.907524 383.80434 
L 760.344828 384.965831 
L 760.782132 385.143306 
L 761.219436 385.918956 
L 761.65674 386.194197 
L 762.094044 385.369134 
L 762.531348 382.149982 
L 762.968652 380.580028 
L 763.405956 380.097876 
L 763.84326 378.835179 
L 764.717868 373.408804 
L 765.155172 368.923714 
L 765.592476 365.886137 
L 766.029781 365.763234 
L 766.904389 368.996476 
L 767.341693 368.704301 
L 768.216301 372.771668 
L 768.653605 373.407812 
L 769.090909 372.285084 
L 769.528213 373.015754 
L 769.965517 375.052778 
L 770.840125 376.854381 
L 771.277429 379.046853 
L 771.714734 381.881157 
L 772.152038 383.149542 
L 773.026646 386.489349 
L 773.46395 386.517263 
L 773.901254 386.767897 
L 774.338558 387.383337 
L 776.087774 394.368024 
L 776.525078 394.748441 
L 776.962382 394.356713 
L 777.399687 394.362997 
L 777.836991 395.755807 
L 778.711599 396.781231 
L 779.148903 398.875539 
L 779.586207 401.874684 
L 781.772727 412.487251 
L 782.210031 413.513932 
L 782.647335 414.071426 
L 783.084639 413.244512 
L 783.959248 408.140409 
L 784.396552 408.883118 
L 784.833856 409.902787 
L 786.145768 415.691057 
L 786.583072 417.271529 
L 787.020376 417.428696 
L 787.45768 417.303743 
L 790.956113 432.711766 
L 791.393417 435.000549 
L 791.830721 436.599476 
L 792.268025 436.985911 
L 792.705329 437.138911 
L 793.142633 438.406768 
L 793.579937 440.920916 
L 794.454545 444.560836 
L 795.766458 453.114352 
L 796.641066 457.225442 
L 797.515674 463.261635 
L 798.390282 470.82075 
L 799.26489 478.518048 
L 799.702194 480.615729 
L 800.576803 480.674931 
L 801.014107 480.384608 
L 801.451411 480.345713 
L 801.888715 480.130005 
L 802.326019 480.111682 
L 802.763323 480.608387 
L 803.200627 481.910508 
L 803.637931 482.831352 
L 804.075235 484.025917 
L 804.512539 485.98912 
L 806.261755 497.084103 
L 807.136364 503.876895 
L 807.573668 506.036226 
L 808.010972 509.025912 
L 808.88558 516.849685 
L 809.322884 518.640969 
L 811.0721 529.497424 
L 811.946708 532.955502 
L 813.695925 537.821605 
L 814.570533 541.367793 
L 816.319749 545.234467 
L 817.194357 547.396444 
L 817.631661 548.050117 
L 818.068966 547.98774 
L 818.50627 546.368241 
L 819.818182 539.915648 
L 820.255486 539.206741 
L 821.567398 542.365567 
L 822.004702 544.204677 
L 822.87931 549.695744 
L 823.753918 552.794442 
L 824.628527 554.927645 
L 825.503135 555.840948 
L 825.940439 555.935672 
L 826.377743 556.270976 
L 827.252351 558.171338 
L 828.126959 561.354109 
L 829.876176 569.567493 
L 830.31348 570.404297 
L 830.750784 570.363318 
L 831.188088 570.107392 
L 832.062696 570.586799 
L 832.937304 571.789268 
L 833.811912 573.336136 
L 834.68652 576.822262 
L 835.123824 578.046659 
L 835.561129 577.849141 
L 835.998433 577.465219 
L 836.435737 576.746522 
L 836.873041 575.165323 
L 837.310345 572.891225 
L 838.184953 569.650343 
L 839.934169 565.896881 
L 840.371473 564.152826 
L 840.808777 561.293253 
L 841.683386 557.505494 
L 843.869906 546.430354 
L 845.181818 540.920699 
L 846.056426 536.388313 
L 847.368339 528.133256 
L 847.805643 526.977785 
L 848.242947 526.152325 
L 849.117555 524.091091 
L 849.554859 521.621989 
L 851.304075 514.46598 
L 852.615987 507.019779 
L 853.490596 503.125587 
L 854.802508 496.653811 
L 855.677116 492.034308 
L 857.426332 481.887753 
L 859.612853 473.186992 
L 860.924765 464.351223 
L 861.362069 460.936603 
L 863.985893 433.497802 
L 865.297806 423.860585 
L 866.609718 417.068587 
L 867.484326 414.147166 
L 867.92163 413.03006 
L 868.358934 412.416803 
L 868.796238 412.029111 
L 869.233542 413.492368 
L 870.10815 418.777716 
L 870.982759 425.391114 
L 871.857367 428.340384 
L 872.731975 428.075792 
L 873.169279 426.255403 
L 874.043887 418.988992 
L 874.918495 414.464411 
L 875.793103 412.982566 
L 876.230408 413.618644 
L 876.667712 414.76082 
L 877.979624 419.556409 
L 878.416928 420.451059 
L 879.72884 424.195359 
L 880.166144 426.093737 
L 880.603448 428.603057 
L 881.478056 436.227857 
L 882.789969 445.928311 
L 883.664577 449.57286 
L 884.539185 451.2169 
L 884.976489 451.728488 
L 885.413793 452.420924 
L 885.851097 452.129873 
L 886.288401 451.526935 
L 886.725705 451.664919 
L 887.163009 450.930876 
L 887.600313 451.050736 
L 888.474922 450.812472 
L 888.912226 450.23639 
L 889.34953 450.044693 
L 890.224138 453.187908 
L 890.661442 453.743749 
L 891.098746 454.838298 
L 891.53605 455.107321 
L 891.973354 455.8835 
L 892.410658 457.269497 
L 893.285266 462.50702 
L 894.597179 474.662222 
L 895.471787 479.510729 
L 895.909091 481.499266 
L 897.658307 487.231575 
L 898.095611 487.806863 
L 898.532915 487.986984 
L 898.970219 488.77884 
L 899.407524 489.907257 
L 899.844828 490.535926 
L 900.282132 491.481246 
L 900.719436 491.994619 
L 901.15674 491.646615 
L 901.594044 490.617024 
L 902.031348 490.017922 
L 902.905956 489.656424 
L 903.34326 490.301829 
L 903.780564 491.414436 
L 904.217868 492.84376 
L 904.655172 493.203141 
L 905.092476 492.882258 
L 905.529781 492.006129 
L 905.967085 490.658961 
L 907.278997 485.410524 
L 908.590909 480.245036 
L 910.340125 469.858364 
L 912.089342 460.610295 
L 912.526646 458.155878 
L 913.401254 455.257543 
L 914.275862 453.190356 
L 915.15047 451.7226 
L 915.587774 451.045709 
L 916.025078 450.057923 
L 916.899687 446.641782 
L 917.774295 443.632913 
L 918.211599 443.709116 
L 918.648903 444.430657 
L 919.086207 445.547365 
L 919.960815 448.618545 
L 920.398119 449.086144 
L 920.835423 449.029456 
L 921.272727 448.726631 
L 921.710031 448.249175 
L 922.147335 448.031086 
L 922.584639 446.119412 
L 923.021944 446.429778 
L 923.459248 448.368903 
L 924.333856 453.109324 
L 924.77116 454.471574 
L 925.208464 455.4628 
L 925.645768 456.740049 
L 926.083072 457.309384 
L 926.520376 457.520462 
L 926.95768 457.553337 
L 927.394984 458.020077 
L 927.832288 457.929322 
L 928.706897 456.92394 
L 929.144201 455.754314 
L 929.581505 454.119072 
L 930.018809 451.249908 
L 930.456113 446.797957 
L 930.893417 443.62782 
L 931.330721 442.152061 
L 931.768025 441.640738 
L 932.205329 440.900675 
L 933.079937 443.342392 
L 933.517241 444.311392 
L 933.954545 443.780357 
L 933.954545 443.780357 
" style="fill:none;stroke:#0000ff;stroke-linecap:square;stroke-width:1.5;"/>
   </g>
   <g id="patch_3">
    <path d="M 135 640.8 
L 135 86.4 
" style="fill:none;stroke:#000000;stroke-linecap:square;stroke-linejoin:miter;stroke-width:0.8;"/>
   </g>
   <g id="patch_4">
    <path d="M 972 640.8 
L 972 86.4 
" style="fill:none;stroke:#000000;stroke-linecap:square;stroke-linejoin:miter;stroke-width:0.8;"/>
   </g>
   <g id="patch_5">
    <path d="M 135 640.8 
L 972 640.8 
" style="fill:none;stroke:#000000;stroke-linecap:square;stroke-linejoin:miter;stroke-width:0.8;"/>
   </g>
   <g id="patch_6">
    <path d="M 135 86.4 
L 972 86.4 
" style="fill:none;stroke:#000000;stroke-linecap:square;stroke-linejoin:miter;stroke-width:0.8;"/>
   </g>
   <g id="text_17">
    <!-- Evaluation Preds N:1 -->
    <defs>
     <path d="M 9.8125 72.90625 
L 55.90625 72.90625 
L 55.90625 64.59375 
L 19.671875 64.59375 
L 19.671875 43.015625 
L 54.390625 43.015625 
L 54.390625 34.71875 
L 19.671875 34.71875 
L 19.671875 8.296875 
L 56.78125 8.296875 
L 56.78125 0 
L 9.8125 0 
z
" id="DejaVuSans-69"/>
     <path d="M 2.984375 54.6875 
L 12.5 54.6875 
L 29.59375 8.796875 
L 46.6875 54.6875 
L 56.203125 54.6875 
L 35.6875 0 
L 23.484375 0 
z
" id="DejaVuSans-118"/>
     <path d="M 34.28125 27.484375 
Q 23.390625 27.484375 19.1875 25 
Q 14.984375 22.515625 14.984375 16.5 
Q 14.984375 11.71875 18.140625 8.90625 
Q 21.296875 6.109375 26.703125 6.109375 
Q 34.1875 6.109375 38.703125 11.40625 
Q 43.21875 16.703125 43.21875 25.484375 
L 43.21875 27.484375 
z
M 52.203125 31.203125 
L 52.203125 0 
L 43.21875 0 
L 43.21875 8.296875 
Q 40.140625 3.328125 35.546875 0.953125 
Q 30.953125 -1.421875 24.3125 -1.421875 
Q 15.921875 -1.421875 10.953125 3.296875 
Q 6 8.015625 6 15.921875 
Q 6 25.140625 12.171875 29.828125 
Q 18.359375 34.515625 30.609375 34.515625 
L 43.21875 34.515625 
L 43.21875 35.40625 
Q 43.21875 41.609375 39.140625 45 
Q 35.0625 48.390625 27.6875 48.390625 
Q 23 48.390625 18.546875 47.265625 
Q 14.109375 46.140625 10.015625 43.890625 
L 10.015625 52.203125 
Q 14.9375 54.109375 19.578125 55.046875 
Q 24.21875 56 28.609375 56 
Q 40.484375 56 46.34375 49.84375 
Q 52.203125 43.703125 52.203125 31.203125 
z
" id="DejaVuSans-97"/>
     <path d="M 9.421875 75.984375 
L 18.40625 75.984375 
L 18.40625 0 
L 9.421875 0 
z
" id="DejaVuSans-108"/>
     <path d="M 8.5 21.578125 
L 8.5 54.6875 
L 17.484375 54.6875 
L 17.484375 21.921875 
Q 17.484375 14.15625 20.5 10.265625 
Q 23.53125 6.390625 29.59375 6.390625 
Q 36.859375 6.390625 41.078125 11.03125 
Q 45.3125 15.671875 45.3125 23.6875 
L 45.3125 54.6875 
L 54.296875 54.6875 
L 54.296875 0 
L 45.3125 0 
L 45.3125 8.40625 
Q 42.046875 3.421875 37.71875 1 
Q 33.40625 -1.421875 27.6875 -1.421875 
Q 18.265625 -1.421875 13.375 4.4375 
Q 8.5 10.296875 8.5 21.578125 
z
M 31.109375 56 
z
" id="DejaVuSans-117"/>
     <path d="M 18.3125 70.21875 
L 18.3125 54.6875 
L 36.8125 54.6875 
L 36.8125 47.703125 
L 18.3125 47.703125 
L 18.3125 18.015625 
Q 18.3125 11.328125 20.140625 9.421875 
Q 21.96875 7.515625 27.59375 7.515625 
L 36.8125 7.515625 
L 36.8125 0 
L 27.59375 0 
Q 17.1875 0 13.234375 3.875 
Q 9.28125 7.765625 9.28125 18.015625 
L 9.28125 47.703125 
L 2.6875 47.703125 
L 2.6875 54.6875 
L 9.28125 54.6875 
L 9.28125 70.21875 
z
" id="DejaVuSans-116"/>
     <path d="M 9.421875 54.6875 
L 18.40625 54.6875 
L 18.40625 0 
L 9.421875 0 
z
M 9.421875 75.984375 
L 18.40625 75.984375 
L 18.40625 64.59375 
L 9.421875 64.59375 
z
" id="DejaVuSans-105"/>
     <path d="M 30.609375 48.390625 
Q 23.390625 48.390625 19.1875 42.75 
Q 14.984375 37.109375 14.984375 27.296875 
Q 14.984375 17.484375 19.15625 11.84375 
Q 23.34375 6.203125 30.609375 6.203125 
Q 37.796875 6.203125 41.984375 11.859375 
Q 46.1875 17.53125 46.1875 27.296875 
Q 46.1875 37.015625 41.984375 42.703125 
Q 37.796875 48.390625 30.609375 48.390625 
z
M 30.609375 56 
Q 42.328125 56 49.015625 48.375 
Q 55.71875 40.765625 55.71875 27.296875 
Q 55.71875 13.875 49.015625 6.21875 
Q 42.328125 -1.421875 30.609375 -1.421875 
Q 18.84375 -1.421875 12.171875 6.21875 
Q 5.515625 13.875 5.515625 27.296875 
Q 5.515625 40.765625 12.171875 48.375 
Q 18.84375 56 30.609375 56 
z
" id="DejaVuSans-111"/>
     <path d="M 54.890625 33.015625 
L 54.890625 0 
L 45.90625 0 
L 45.90625 32.71875 
Q 45.90625 40.484375 42.875 44.328125 
Q 39.84375 48.1875 33.796875 48.1875 
Q 26.515625 48.1875 22.3125 43.546875 
Q 18.109375 38.921875 18.109375 30.90625 
L 18.109375 0 
L 9.078125 0 
L 9.078125 54.6875 
L 18.109375 54.6875 
L 18.109375 46.1875 
Q 21.34375 51.125 25.703125 53.5625 
Q 30.078125 56 35.796875 56 
Q 45.21875 56 50.046875 50.171875 
Q 54.890625 44.34375 54.890625 33.015625 
z
" id="DejaVuSans-110"/>
     <path id="DejaVuSans-32"/>
     <path d="M 19.671875 64.796875 
L 19.671875 37.40625 
L 32.078125 37.40625 
Q 38.96875 37.40625 42.71875 40.96875 
Q 46.484375 44.53125 46.484375 51.125 
Q 46.484375 57.671875 42.71875 61.234375 
Q 38.96875 64.796875 32.078125 64.796875 
z
M 9.8125 72.90625 
L 32.078125 72.90625 
Q 44.34375 72.90625 50.609375 67.359375 
Q 56.890625 61.8125 56.890625 51.125 
Q 56.890625 40.328125 50.609375 34.8125 
Q 44.34375 29.296875 32.078125 29.296875 
L 19.671875 29.296875 
L 19.671875 0 
L 9.8125 0 
z
" id="DejaVuSans-80"/>
     <path d="M 41.109375 46.296875 
Q 39.59375 47.171875 37.8125 47.578125 
Q 36.03125 48 33.890625 48 
Q 26.265625 48 22.1875 43.046875 
Q 18.109375 38.09375 18.109375 28.8125 
L 18.109375 0 
L 9.078125 0 
L 9.078125 54.6875 
L 18.109375 54.6875 
L 18.109375 46.1875 
Q 20.953125 51.171875 25.484375 53.578125 
Q 30.03125 56 36.53125 56 
Q 37.453125 56 38.578125 55.875 
Q 39.703125 55.765625 41.0625 55.515625 
z
" id="DejaVuSans-114"/>
     <path d="M 56.203125 29.59375 
L 56.203125 25.203125 
L 14.890625 25.203125 
Q 15.484375 15.921875 20.484375 11.0625 
Q 25.484375 6.203125 34.421875 6.203125 
Q 39.59375 6.203125 44.453125 7.46875 
Q 49.3125 8.734375 54.109375 11.28125 
L 54.109375 2.78125 
Q 49.265625 0.734375 44.1875 -0.34375 
Q 39.109375 -1.421875 33.890625 -1.421875 
Q 20.796875 -1.421875 13.15625 6.1875 
Q 5.515625 13.8125 5.515625 26.8125 
Q 5.515625 40.234375 12.765625 48.109375 
Q 20.015625 56 32.328125 56 
Q 43.359375 56 49.78125 48.890625 
Q 56.203125 41.796875 56.203125 29.59375 
z
M 47.21875 32.234375 
Q 47.125 39.59375 43.09375 43.984375 
Q 39.0625 48.390625 32.421875 48.390625 
Q 24.90625 48.390625 20.390625 44.140625 
Q 15.875 39.890625 15.1875 32.171875 
z
" id="DejaVuSans-101"/>
     <path d="M 45.40625 46.390625 
L 45.40625 75.984375 
L 54.390625 75.984375 
L 54.390625 0 
L 45.40625 0 
L 45.40625 8.203125 
Q 42.578125 3.328125 38.25 0.953125 
Q 33.9375 -1.421875 27.875 -1.421875 
Q 17.96875 -1.421875 11.734375 6.484375 
Q 5.515625 14.40625 5.515625 27.296875 
Q 5.515625 40.1875 11.734375 48.09375 
Q 17.96875 56 27.875 56 
Q 33.9375 56 38.25 53.625 
Q 42.578125 51.265625 45.40625 46.390625 
z
M 14.796875 27.296875 
Q 14.796875 17.390625 18.875 11.75 
Q 22.953125 6.109375 30.078125 6.109375 
Q 37.203125 6.109375 41.296875 11.75 
Q 45.40625 17.390625 45.40625 27.296875 
Q 45.40625 37.203125 41.296875 42.84375 
Q 37.203125 48.484375 30.078125 48.484375 
Q 22.953125 48.484375 18.875 42.84375 
Q 14.796875 37.203125 14.796875 27.296875 
z
" id="DejaVuSans-100"/>
     <path d="M 44.28125 53.078125 
L 44.28125 44.578125 
Q 40.484375 46.53125 36.375 47.5 
Q 32.28125 48.484375 27.875 48.484375 
Q 21.1875 48.484375 17.84375 46.4375 
Q 14.5 44.390625 14.5 40.28125 
Q 14.5 37.15625 16.890625 35.375 
Q 19.28125 33.59375 26.515625 31.984375 
L 29.59375 31.296875 
Q 39.15625 29.25 43.1875 25.515625 
Q 47.21875 21.78125 47.21875 15.09375 
Q 47.21875 7.46875 41.1875 3.015625 
Q 35.15625 -1.421875 24.609375 -1.421875 
Q 20.21875 -1.421875 15.453125 -0.5625 
Q 10.6875 0.296875 5.421875 2 
L 5.421875 11.28125 
Q 10.40625 8.6875 15.234375 7.390625 
Q 20.0625 6.109375 24.8125 6.109375 
Q 31.15625 6.109375 34.5625 8.28125 
Q 37.984375 10.453125 37.984375 14.40625 
Q 37.984375 18.0625 35.515625 20.015625 
Q 33.0625 21.96875 24.703125 23.78125 
L 21.578125 24.515625 
Q 13.234375 26.265625 9.515625 29.90625 
Q 5.8125 33.546875 5.8125 39.890625 
Q 5.8125 47.609375 11.28125 51.796875 
Q 16.75 56 26.8125 56 
Q 31.78125 56 36.171875 55.265625 
Q 40.578125 54.546875 44.28125 53.078125 
z
" id="DejaVuSans-115"/>
     <path d="M 9.8125 72.90625 
L 23.09375 72.90625 
L 55.421875 11.921875 
L 55.421875 72.90625 
L 64.984375 72.90625 
L 64.984375 0 
L 51.703125 0 
L 19.390625 60.984375 
L 19.390625 0 
L 9.8125 0 
z
" id="DejaVuSans-78"/>
     <path d="M 11.71875 12.40625 
L 22.015625 12.40625 
L 22.015625 0 
L 11.71875 0 
z
M 11.71875 51.703125 
L 22.015625 51.703125 
L 22.015625 39.3125 
L 11.71875 39.3125 
z
" id="DejaVuSans-58"/>
    </defs>
    <g transform="translate(384.728906 80.4)scale(0.324 -0.324)">
     <use xlink:href="#DejaVuSans-69"/>
     <use x="63.183594" xlink:href="#DejaVuSans-118"/>
     <use x="122.363281" xlink:href="#DejaVuSans-97"/>
     <use x="183.642578" xlink:href="#DejaVuSans-108"/>
     <use x="211.425781" xlink:href="#DejaVuSans-117"/>
     <use x="274.804688" xlink:href="#DejaVuSans-97"/>
     <use x="336.083984" xlink:href="#DejaVuSans-116"/>
     <use x="375.292969" xlink:href="#DejaVuSans-105"/>
     <use x="403.076172" xlink:href="#DejaVuSans-111"/>
     <use x="464.257812" xlink:href="#DejaVuSans-110"/>
     <use x="527.636719" xlink:href="#DejaVuSans-32"/>
     <use x="559.423828" xlink:href="#DejaVuSans-80"/>
     <use x="619.710938" xlink:href="#DejaVuSans-114"/>
     <use x="660.792969" xlink:href="#DejaVuSans-101"/>
     <use x="722.316406" xlink:href="#DejaVuSans-100"/>
     <use x="785.792969" xlink:href="#DejaVuSans-115"/>
     <use x="837.892578" xlink:href="#DejaVuSans-32"/>
     <use x="869.679688" xlink:href="#DejaVuSans-78"/>
     <use x="944.484375" xlink:href="#DejaVuSans-58"/>
     <use x="978.175781" xlink:href="#DejaVuSans-49"/>
    </g>
   </g>
   <g id="legend_1">
    <g id="patch_7">
     <path d="M 805.57875 187.261875 
L 953.1 187.261875 
Q 958.5 187.261875 958.5 181.861875 
L 958.5 105.3 
Q 958.5 99.9 953.1 99.9 
L 805.57875 99.9 
Q 800.17875 99.9 800.17875 105.3 
L 800.17875 181.861875 
Q 800.17875 187.261875 805.57875 187.261875 
z
" style="fill:#ffffff;opacity:0.8;stroke:#cccccc;stroke-linejoin:miter;"/>
    </g>
    <g id="line2d_35">
     <path d="M 810.97875 121.765781 
L 864.97875 121.765781 
" style="fill:none;stroke:#ff0000;stroke-linecap:square;stroke-width:1.5;"/>
    </g>
    <g id="line2d_36"/>
    <g id="text_18">
     <!-- Real -->
     <defs>
      <path d="M 44.390625 34.1875 
Q 47.5625 33.109375 50.5625 29.59375 
Q 53.5625 26.078125 56.59375 19.921875 
L 66.609375 0 
L 56 0 
L 46.6875 18.703125 
Q 43.0625 26.03125 39.671875 28.421875 
Q 36.28125 30.8125 30.421875 30.8125 
L 19.671875 30.8125 
L 19.671875 0 
L 9.8125 0 
L 9.8125 72.90625 
L 32.078125 72.90625 
Q 44.578125 72.90625 50.734375 67.671875 
Q 56.890625 62.453125 56.890625 51.90625 
Q 56.890625 45.015625 53.6875 40.46875 
Q 50.484375 35.9375 44.390625 34.1875 
z
M 19.671875 64.796875 
L 19.671875 38.921875 
L 32.078125 38.921875 
Q 39.203125 38.921875 42.84375 42.21875 
Q 46.484375 45.515625 46.484375 51.90625 
Q 46.484375 58.296875 42.84375 61.546875 
Q 39.203125 64.796875 32.078125 64.796875 
z
" id="DejaVuSans-82"/>
     </defs>
     <g transform="translate(886.57875 131.215781)scale(0.27 -0.27)">
      <use xlink:href="#DejaVuSans-82"/>
      <use x="69.419922" xlink:href="#DejaVuSans-101"/>
      <use x="130.943359" xlink:href="#DejaVuSans-97"/>
      <use x="192.222656" xlink:href="#DejaVuSans-108"/>
     </g>
    </g>
    <g id="line2d_37">
     <path d="M 810.97875 161.396719 
L 864.97875 161.396719 
" style="fill:none;stroke:#0000ff;stroke-linecap:square;stroke-width:1.5;"/>
    </g>
    <g id="line2d_38"/>
    <g id="text_19">
     <!-- Pred -->
     <g transform="translate(886.57875 170.846719)scale(0.27 -0.27)">
      <use xlink:href="#DejaVuSans-80"/>
      <use x="60.287109" xlink:href="#DejaVuSans-114"/>
      <use x="101.369141" xlink:href="#DejaVuSans-101"/>
      <use x="162.892578" xlink:href="#DejaVuSans-100"/>
     </g>
    </g>
   </g>
  </g>
 </g>
 <defs>
  <clipPath id="p1b40f16314">
   <rect height="554.4" width="837" x="135" y="86.4"/>
  </clipPath>
 </defs>
</svg>
