<?xml version="1.0" encoding="utf-8" standalone="no"?>
<!DOCTYPE svg PUBLIC "-//W3C//DTD SVG 1.1//EN"
  "http://www.w3.org/Graphics/SVG/1.1/DTD/svg11.dtd">
<!-- Created with matplotlib (https://matplotlib.org/) -->
<svg height="720pt" version="1.1" viewBox="0 0 1080 720" width="1080pt" xmlns="http://www.w3.org/2000/svg" xmlns:xlink="http://www.w3.org/1999/xlink">
 <defs>
  <style type="text/css">
*{stroke-linecap:butt;stroke-linejoin:round;}
  </style>
 </defs>
 <g id="figure_1">
  <g id="patch_1">
   <path d="M 0 720 
L 1080 720 
L 1080 0 
L 0 0 
z
" style="fill:#ffffff;"/>
  </g>
  <g id="axes_1">
   <g id="patch_2">
    <path d="M 135 640.8 
L 972 640.8 
L 972 86.4 
L 135 86.4 
z
" style="fill:#ffffff;"/>
   </g>
   <g id="matplotlib.axis_1">
    <g id="xtick_1">
     <g id="line2d_1">
      <path clip-path="url(#pec4a53093d)" d="M 173.045455 640.8 
L 173.045455 86.4 
" style="fill:none;stroke:#b0b0b0;stroke-linecap:square;stroke-width:0.8;"/>
     </g>
     <g id="line2d_2">
      <defs>
       <path d="M 0 0 
L 0 3.5 
" id="m97f6601f01" style="stroke:#000000;stroke-width:0.8;"/>
      </defs>
      <g>
       <use style="stroke:#000000;stroke-width:0.8;" x="173.045455" xlink:href="#m97f6601f01" y="640.8"/>
      </g>
     </g>
     <g id="text_1">
      <!-- 0 -->
      <defs>
       <path d="M 31.78125 66.40625 
Q 24.171875 66.40625 20.328125 58.90625 
Q 16.5 51.421875 16.5 36.375 
Q 16.5 21.390625 20.328125 13.890625 
Q 24.171875 6.390625 31.78125 6.390625 
Q 39.453125 6.390625 43.28125 13.890625 
Q 47.125 21.390625 47.125 36.375 
Q 47.125 51.421875 43.28125 58.90625 
Q 39.453125 66.40625 31.78125 66.40625 
z
M 31.78125 74.21875 
Q 44.046875 74.21875 50.515625 64.515625 
Q 56.984375 54.828125 56.984375 36.375 
Q 56.984375 17.96875 50.515625 8.265625 
Q 44.046875 -1.421875 31.78125 -1.421875 
Q 19.53125 -1.421875 13.0625 8.265625 
Q 6.59375 17.96875 6.59375 36.375 
Q 6.59375 54.828125 13.0625 64.515625 
Q 19.53125 74.21875 31.78125 74.21875 
z
" id="DejaVuSans-48"/>
      </defs>
      <g transform="translate(164.45608 668.315781)scale(0.27 -0.27)">
       <use xlink:href="#DejaVuSans-48"/>
      </g>
     </g>
    </g>
    <g id="xtick_2">
     <g id="line2d_3">
      <path clip-path="url(#pec4a53093d)" d="M 282.371473 640.8 
L 282.371473 86.4 
" style="fill:none;stroke:#b0b0b0;stroke-linecap:square;stroke-width:0.8;"/>
     </g>
     <g id="line2d_4">
      <g>
       <use style="stroke:#000000;stroke-width:0.8;" x="282.371473" xlink:href="#m97f6601f01" y="640.8"/>
      </g>
     </g>
     <g id="text_2">
      <!-- 250 -->
      <defs>
       <path d="M 19.1875 8.296875 
L 53.609375 8.296875 
L 53.609375 0 
L 7.328125 0 
L 7.328125 8.296875 
Q 12.9375 14.109375 22.625 23.890625 
Q 32.328125 33.6875 34.8125 36.53125 
Q 39.546875 41.84375 41.421875 45.53125 
Q 43.3125 49.21875 43.3125 52.78125 
Q 43.3125 58.59375 39.234375 62.25 
Q 35.15625 65.921875 28.609375 65.921875 
Q 23.96875 65.921875 18.8125 64.3125 
Q 13.671875 62.703125 7.8125 59.421875 
L 7.8125 69.390625 
Q 13.765625 71.78125 18.9375 73 
Q 24.125 74.21875 28.421875 74.21875 
Q 39.75 74.21875 46.484375 68.546875 
Q 53.21875 62.890625 53.21875 53.421875 
Q 53.21875 48.921875 51.53125 44.890625 
Q 49.859375 40.875 45.40625 35.40625 
Q 44.1875 33.984375 37.640625 27.21875 
Q 31.109375 20.453125 19.1875 8.296875 
z
" id="DejaVuSans-50"/>
       <path d="M 10.796875 72.90625 
L 49.515625 72.90625 
L 49.515625 64.59375 
L 19.828125 64.59375 
L 19.828125 46.734375 
Q 21.96875 47.46875 24.109375 47.828125 
Q 26.265625 48.1875 28.421875 48.1875 
Q 40.625 48.1875 47.75 41.5 
Q 54.890625 34.8125 54.890625 23.390625 
Q 54.890625 11.625 47.5625 5.09375 
Q 40.234375 -1.421875 26.90625 -1.421875 
Q 22.3125 -1.421875 17.546875 -0.640625 
Q 12.796875 0.140625 7.71875 1.703125 
L 7.71875 11.625 
Q 12.109375 9.234375 16.796875 8.0625 
Q 21.484375 6.890625 26.703125 6.890625 
Q 35.15625 6.890625 40.078125 11.328125 
Q 45.015625 15.765625 45.015625 23.390625 
Q 45.015625 31 40.078125 35.4375 
Q 35.15625 39.890625 26.703125 39.890625 
Q 22.75 39.890625 18.8125 39.015625 
Q 14.890625 38.140625 10.796875 36.28125 
z
" id="DejaVuSans-53"/>
      </defs>
      <g transform="translate(256.603348 668.315781)scale(0.27 -0.27)">
       <use xlink:href="#DejaVuSans-50"/>
       <use x="63.623047" xlink:href="#DejaVuSans-53"/>
       <use x="127.246094" xlink:href="#DejaVuSans-48"/>
      </g>
     </g>
    </g>
    <g id="xtick_3">
     <g id="line2d_5">
      <path clip-path="url(#pec4a53093d)" d="M 391.697492 640.8 
L 391.697492 86.4 
" style="fill:none;stroke:#b0b0b0;stroke-linecap:square;stroke-width:0.8;"/>
     </g>
     <g id="line2d_6">
      <g>
       <use style="stroke:#000000;stroke-width:0.8;" x="391.697492" xlink:href="#m97f6601f01" y="640.8"/>
      </g>
     </g>
     <g id="text_3">
      <!-- 500 -->
      <g transform="translate(365.929367 668.315781)scale(0.27 -0.27)">
       <use xlink:href="#DejaVuSans-53"/>
       <use x="63.623047" xlink:href="#DejaVuSans-48"/>
       <use x="127.246094" xlink:href="#DejaVuSans-48"/>
      </g>
     </g>
    </g>
    <g id="xtick_4">
     <g id="line2d_7">
      <path clip-path="url(#pec4a53093d)" d="M 501.023511 640.8 
L 501.023511 86.4 
" style="fill:none;stroke:#b0b0b0;stroke-linecap:square;stroke-width:0.8;"/>
     </g>
     <g id="line2d_8">
      <g>
       <use style="stroke:#000000;stroke-width:0.8;" x="501.023511" xlink:href="#m97f6601f01" y="640.8"/>
      </g>
     </g>
     <g id="text_4">
      <!-- 750 -->
      <defs>
       <path d="M 8.203125 72.90625 
L 55.078125 72.90625 
L 55.078125 68.703125 
L 28.609375 0 
L 18.3125 0 
L 43.21875 64.59375 
L 8.203125 64.59375 
z
" id="DejaVuSans-55"/>
      </defs>
      <g transform="translate(475.255386 668.315781)scale(0.27 -0.27)">
       <use xlink:href="#DejaVuSans-55"/>
       <use x="63.623047" xlink:href="#DejaVuSans-53"/>
       <use x="127.246094" xlink:href="#DejaVuSans-48"/>
      </g>
     </g>
    </g>
    <g id="xtick_5">
     <g id="line2d_9">
      <path clip-path="url(#pec4a53093d)" d="M 610.34953 640.8 
L 610.34953 86.4 
" style="fill:none;stroke:#b0b0b0;stroke-linecap:square;stroke-width:0.8;"/>
     </g>
     <g id="line2d_10">
      <g>
       <use style="stroke:#000000;stroke-width:0.8;" x="610.34953" xlink:href="#m97f6601f01" y="640.8"/>
      </g>
     </g>
     <g id="text_5">
      <!-- 1000 -->
      <defs>
       <path d="M 12.40625 8.296875 
L 28.515625 8.296875 
L 28.515625 63.921875 
L 10.984375 60.40625 
L 10.984375 69.390625 
L 28.421875 72.90625 
L 38.28125 72.90625 
L 38.28125 8.296875 
L 54.390625 8.296875 
L 54.390625 0 
L 12.40625 0 
z
" id="DejaVuSans-49"/>
      </defs>
      <g transform="translate(575.99203 668.315781)scale(0.27 -0.27)">
       <use xlink:href="#DejaVuSans-49"/>
       <use x="63.623047" xlink:href="#DejaVuSans-48"/>
       <use x="127.246094" xlink:href="#DejaVuSans-48"/>
       <use x="190.869141" xlink:href="#DejaVuSans-48"/>
      </g>
     </g>
    </g>
    <g id="xtick_6">
     <g id="line2d_11">
      <path clip-path="url(#pec4a53093d)" d="M 719.675549 640.8 
L 719.675549 86.4 
" style="fill:none;stroke:#b0b0b0;stroke-linecap:square;stroke-width:0.8;"/>
     </g>
     <g id="line2d_12">
      <g>
       <use style="stroke:#000000;stroke-width:0.8;" x="719.675549" xlink:href="#m97f6601f01" y="640.8"/>
      </g>
     </g>
     <g id="text_6">
      <!-- 1250 -->
      <g transform="translate(685.318049 668.315781)scale(0.27 -0.27)">
       <use xlink:href="#DejaVuSans-49"/>
       <use x="63.623047" xlink:href="#DejaVuSans-50"/>
       <use x="127.246094" xlink:href="#DejaVuSans-53"/>
       <use x="190.869141" xlink:href="#DejaVuSans-48"/>
      </g>
     </g>
    </g>
    <g id="xtick_7">
     <g id="line2d_13">
      <path clip-path="url(#pec4a53093d)" d="M 829.001567 640.8 
L 829.001567 86.4 
" style="fill:none;stroke:#b0b0b0;stroke-linecap:square;stroke-width:0.8;"/>
     </g>
     <g id="line2d_14">
      <g>
       <use style="stroke:#000000;stroke-width:0.8;" x="829.001567" xlink:href="#m97f6601f01" y="640.8"/>
      </g>
     </g>
     <g id="text_7">
      <!-- 1500 -->
      <g transform="translate(794.644067 668.315781)scale(0.27 -0.27)">
       <use xlink:href="#DejaVuSans-49"/>
       <use x="63.623047" xlink:href="#DejaVuSans-53"/>
       <use x="127.246094" xlink:href="#DejaVuSans-48"/>
       <use x="190.869141" xlink:href="#DejaVuSans-48"/>
      </g>
     </g>
    </g>
    <g id="xtick_8">
     <g id="line2d_15">
      <path clip-path="url(#pec4a53093d)" d="M 938.327586 640.8 
L 938.327586 86.4 
" style="fill:none;stroke:#b0b0b0;stroke-linecap:square;stroke-width:0.8;"/>
     </g>
     <g id="line2d_16">
      <g>
       <use style="stroke:#000000;stroke-width:0.8;" x="938.327586" xlink:href="#m97f6601f01" y="640.8"/>
      </g>
     </g>
     <g id="text_8">
      <!-- 1750 -->
      <g transform="translate(903.970086 668.315781)scale(0.27 -0.27)">
       <use xlink:href="#DejaVuSans-49"/>
       <use x="63.623047" xlink:href="#DejaVuSans-55"/>
       <use x="127.246094" xlink:href="#DejaVuSans-53"/>
       <use x="190.869141" xlink:href="#DejaVuSans-48"/>
      </g>
     </g>
    </g>
   </g>
   <g id="matplotlib.axis_2">
    <g id="ytick_1">
     <g id="line2d_17">
      <path clip-path="url(#pec4a53093d)" d="M 135 637.848202 
L 972 637.848202 
" style="fill:none;stroke:#b0b0b0;stroke-linecap:square;stroke-width:0.8;"/>
     </g>
     <g id="line2d_18">
      <defs>
       <path d="M 0 0 
L -3.5 0 
" id="m131ab1b83c" style="stroke:#000000;stroke-width:0.8;"/>
      </defs>
      <g>
       <use style="stroke:#000000;stroke-width:0.8;" x="135" xlink:href="#m131ab1b83c" y="637.848202"/>
      </g>
     </g>
     <g id="text_9">
      <!-- 14 -->
      <defs>
       <path d="M 37.796875 64.3125 
L 12.890625 25.390625 
L 37.796875 25.390625 
z
M 35.203125 72.90625 
L 47.609375 72.90625 
L 47.609375 25.390625 
L 58.015625 25.390625 
L 58.015625 17.1875 
L 47.609375 17.1875 
L 47.609375 0 
L 37.796875 0 
L 37.796875 17.1875 
L 4.890625 17.1875 
L 4.890625 26.703125 
z
" id="DejaVuSans-52"/>
      </defs>
      <g transform="translate(93.6425 648.106093)scale(0.27 -0.27)">
       <use xlink:href="#DejaVuSans-49"/>
       <use x="63.623047" xlink:href="#DejaVuSans-52"/>
      </g>
     </g>
    </g>
    <g id="ytick_2">
     <g id="line2d_19">
      <path clip-path="url(#pec4a53093d)" d="M 135 570.446923 
L 972 570.446923 
" style="fill:none;stroke:#b0b0b0;stroke-linecap:square;stroke-width:0.8;"/>
     </g>
     <g id="line2d_20">
      <g>
       <use style="stroke:#000000;stroke-width:0.8;" x="135" xlink:href="#m131ab1b83c" y="570.446923"/>
      </g>
     </g>
     <g id="text_10">
      <!-- 16 -->
      <defs>
       <path d="M 33.015625 40.375 
Q 26.375 40.375 22.484375 35.828125 
Q 18.609375 31.296875 18.609375 23.390625 
Q 18.609375 15.53125 22.484375 10.953125 
Q 26.375 6.390625 33.015625 6.390625 
Q 39.65625 6.390625 43.53125 10.953125 
Q 47.40625 15.53125 47.40625 23.390625 
Q 47.40625 31.296875 43.53125 35.828125 
Q 39.65625 40.375 33.015625 40.375 
z
M 52.59375 71.296875 
L 52.59375 62.3125 
Q 48.875 64.0625 45.09375 64.984375 
Q 41.3125 65.921875 37.59375 65.921875 
Q 27.828125 65.921875 22.671875 59.328125 
Q 17.53125 52.734375 16.796875 39.40625 
Q 19.671875 43.65625 24.015625 45.921875 
Q 28.375 48.1875 33.59375 48.1875 
Q 44.578125 48.1875 50.953125 41.515625 
Q 57.328125 34.859375 57.328125 23.390625 
Q 57.328125 12.15625 50.6875 5.359375 
Q 44.046875 -1.421875 33.015625 -1.421875 
Q 20.359375 -1.421875 13.671875 8.265625 
Q 6.984375 17.96875 6.984375 36.375 
Q 6.984375 53.65625 15.1875 63.9375 
Q 23.390625 74.21875 37.203125 74.21875 
Q 40.921875 74.21875 44.703125 73.484375 
Q 48.484375 72.75 52.59375 71.296875 
z
" id="DejaVuSans-54"/>
      </defs>
      <g transform="translate(93.6425 580.704814)scale(0.27 -0.27)">
       <use xlink:href="#DejaVuSans-49"/>
       <use x="63.623047" xlink:href="#DejaVuSans-54"/>
      </g>
     </g>
    </g>
    <g id="ytick_3">
     <g id="line2d_21">
      <path clip-path="url(#pec4a53093d)" d="M 135 503.045645 
L 972 503.045645 
" style="fill:none;stroke:#b0b0b0;stroke-linecap:square;stroke-width:0.8;"/>
     </g>
     <g id="line2d_22">
      <g>
       <use style="stroke:#000000;stroke-width:0.8;" x="135" xlink:href="#m131ab1b83c" y="503.045645"/>
      </g>
     </g>
     <g id="text_11">
      <!-- 18 -->
      <defs>
       <path d="M 31.78125 34.625 
Q 24.75 34.625 20.71875 30.859375 
Q 16.703125 27.09375 16.703125 20.515625 
Q 16.703125 13.921875 20.71875 10.15625 
Q 24.75 6.390625 31.78125 6.390625 
Q 38.8125 6.390625 42.859375 10.171875 
Q 46.921875 13.96875 46.921875 20.515625 
Q 46.921875 27.09375 42.890625 30.859375 
Q 38.875 34.625 31.78125 34.625 
z
M 21.921875 38.8125 
Q 15.578125 40.375 12.03125 44.71875 
Q 8.5 49.078125 8.5 55.328125 
Q 8.5 64.0625 14.71875 69.140625 
Q 20.953125 74.21875 31.78125 74.21875 
Q 42.671875 74.21875 48.875 69.140625 
Q 55.078125 64.0625 55.078125 55.328125 
Q 55.078125 49.078125 51.53125 44.71875 
Q 48 40.375 41.703125 38.8125 
Q 48.828125 37.15625 52.796875 32.3125 
Q 56.78125 27.484375 56.78125 20.515625 
Q 56.78125 9.90625 50.3125 4.234375 
Q 43.84375 -1.421875 31.78125 -1.421875 
Q 19.734375 -1.421875 13.25 4.234375 
Q 6.78125 9.90625 6.78125 20.515625 
Q 6.78125 27.484375 10.78125 32.3125 
Q 14.796875 37.15625 21.921875 38.8125 
z
M 18.3125 54.390625 
Q 18.3125 48.734375 21.84375 45.5625 
Q 25.390625 42.390625 31.78125 42.390625 
Q 38.140625 42.390625 41.71875 45.5625 
Q 45.3125 48.734375 45.3125 54.390625 
Q 45.3125 60.0625 41.71875 63.234375 
Q 38.140625 66.40625 31.78125 66.40625 
Q 25.390625 66.40625 21.84375 63.234375 
Q 18.3125 60.0625 18.3125 54.390625 
z
" id="DejaVuSans-56"/>
      </defs>
      <g transform="translate(93.6425 513.303535)scale(0.27 -0.27)">
       <use xlink:href="#DejaVuSans-49"/>
       <use x="63.623047" xlink:href="#DejaVuSans-56"/>
      </g>
     </g>
    </g>
    <g id="ytick_4">
     <g id="line2d_23">
      <path clip-path="url(#pec4a53093d)" d="M 135 435.644366 
L 972 435.644366 
" style="fill:none;stroke:#b0b0b0;stroke-linecap:square;stroke-width:0.8;"/>
     </g>
     <g id="line2d_24">
      <g>
       <use style="stroke:#000000;stroke-width:0.8;" x="135" xlink:href="#m131ab1b83c" y="435.644366"/>
      </g>
     </g>
     <g id="text_12">
      <!-- 20 -->
      <g transform="translate(93.6425 445.902257)scale(0.27 -0.27)">
       <use xlink:href="#DejaVuSans-50"/>
       <use x="63.623047" xlink:href="#DejaVuSans-48"/>
      </g>
     </g>
    </g>
    <g id="ytick_5">
     <g id="line2d_25">
      <path clip-path="url(#pec4a53093d)" d="M 135 368.243088 
L 972 368.243088 
" style="fill:none;stroke:#b0b0b0;stroke-linecap:square;stroke-width:0.8;"/>
     </g>
     <g id="line2d_26">
      <g>
       <use style="stroke:#000000;stroke-width:0.8;" x="135" xlink:href="#m131ab1b83c" y="368.243088"/>
      </g>
     </g>
     <g id="text_13">
      <!-- 22 -->
      <g transform="translate(93.6425 378.500978)scale(0.27 -0.27)">
       <use xlink:href="#DejaVuSans-50"/>
       <use x="63.623047" xlink:href="#DejaVuSans-50"/>
      </g>
     </g>
    </g>
    <g id="ytick_6">
     <g id="line2d_27">
      <path clip-path="url(#pec4a53093d)" d="M 135 300.841809 
L 972 300.841809 
" style="fill:none;stroke:#b0b0b0;stroke-linecap:square;stroke-width:0.8;"/>
     </g>
     <g id="line2d_28">
      <g>
       <use style="stroke:#000000;stroke-width:0.8;" x="135" xlink:href="#m131ab1b83c" y="300.841809"/>
      </g>
     </g>
     <g id="text_14">
      <!-- 24 -->
      <g transform="translate(93.6425 311.0997)scale(0.27 -0.27)">
       <use xlink:href="#DejaVuSans-50"/>
       <use x="63.623047" xlink:href="#DejaVuSans-52"/>
      </g>
     </g>
    </g>
    <g id="ytick_7">
     <g id="line2d_29">
      <path clip-path="url(#pec4a53093d)" d="M 135 233.440531 
L 972 233.440531 
" style="fill:none;stroke:#b0b0b0;stroke-linecap:square;stroke-width:0.8;"/>
     </g>
     <g id="line2d_30">
      <g>
       <use style="stroke:#000000;stroke-width:0.8;" x="135" xlink:href="#m131ab1b83c" y="233.440531"/>
      </g>
     </g>
     <g id="text_15">
      <!-- 26 -->
      <g transform="translate(93.6425 243.698421)scale(0.27 -0.27)">
       <use xlink:href="#DejaVuSans-50"/>
       <use x="63.623047" xlink:href="#DejaVuSans-54"/>
      </g>
     </g>
    </g>
    <g id="ytick_8">
     <g id="line2d_31">
      <path clip-path="url(#pec4a53093d)" d="M 135 166.039252 
L 972 166.039252 
" style="fill:none;stroke:#b0b0b0;stroke-linecap:square;stroke-width:0.8;"/>
     </g>
     <g id="line2d_32">
      <g>
       <use style="stroke:#000000;stroke-width:0.8;" x="135" xlink:href="#m131ab1b83c" y="166.039252"/>
      </g>
     </g>
     <g id="text_16">
      <!-- 28 -->
      <g transform="translate(93.6425 176.297143)scale(0.27 -0.27)">
       <use xlink:href="#DejaVuSans-50"/>
       <use x="63.623047" xlink:href="#DejaVuSans-56"/>
      </g>
     </g>
    </g>
    <g id="ytick_9">
     <g id="line2d_33">
      <path clip-path="url(#pec4a53093d)" d="M 135 98.637973 
L 972 98.637973 
" style="fill:none;stroke:#b0b0b0;stroke-linecap:square;stroke-width:0.8;"/>
     </g>
     <g id="line2d_34">
      <g>
       <use style="stroke:#000000;stroke-width:0.8;" x="135" xlink:href="#m131ab1b83c" y="98.637973"/>
      </g>
     </g>
     <g id="text_17">
      <!-- 30 -->
      <defs>
       <path d="M 40.578125 39.3125 
Q 47.65625 37.796875 51.625 33 
Q 55.609375 28.21875 55.609375 21.1875 
Q 55.609375 10.40625 48.1875 4.484375 
Q 40.765625 -1.421875 27.09375 -1.421875 
Q 22.515625 -1.421875 17.65625 -0.515625 
Q 12.796875 0.390625 7.625 2.203125 
L 7.625 11.71875 
Q 11.71875 9.328125 16.59375 8.109375 
Q 21.484375 6.890625 26.8125 6.890625 
Q 36.078125 6.890625 40.9375 10.546875 
Q 45.796875 14.203125 45.796875 21.1875 
Q 45.796875 27.640625 41.28125 31.265625 
Q 36.765625 34.90625 28.71875 34.90625 
L 20.21875 34.90625 
L 20.21875 43.015625 
L 29.109375 43.015625 
Q 36.375 43.015625 40.234375 45.921875 
Q 44.09375 48.828125 44.09375 54.296875 
Q 44.09375 59.90625 40.109375 62.90625 
Q 36.140625 65.921875 28.71875 65.921875 
Q 24.65625 65.921875 20.015625 65.03125 
Q 15.375 64.15625 9.8125 62.3125 
L 9.8125 71.09375 
Q 15.4375 72.65625 20.34375 73.4375 
Q 25.25 74.21875 29.59375 74.21875 
Q 40.828125 74.21875 47.359375 69.109375 
Q 53.90625 64.015625 53.90625 55.328125 
Q 53.90625 49.265625 50.4375 45.09375 
Q 46.96875 40.921875 40.578125 39.3125 
z
" id="DejaVuSans-51"/>
      </defs>
      <g transform="translate(93.6425 108.895864)scale(0.27 -0.27)">
       <use xlink:href="#DejaVuSans-51"/>
       <use x="63.623047" xlink:href="#DejaVuSans-48"/>
      </g>
     </g>
    </g>
   </g>
   <g id="line2d_35">
    <path clip-path="url(#pec4a53093d)" d="M 173.045455 551.907034 
L 173.482759 557.102566 
L 173.920063 556.477904 
L 174.357367 556.931906 
L 174.794671 557.777044 
L 175.231975 556.14404 
L 175.669279 556.964559 
L 176.106583 559.673399 
L 176.981191 562.340844 
L 177.418495 561.468965 
L 177.855799 561.590002 
L 179.167712 571.996044 
L 179.605016 569.746476 
L 180.04232 570.144041 
L 181.354232 565.432529 
L 181.791536 567.282089 
L 182.22884 568.231874 
L 182.666144 564.660861 
L 183.103448 564.76615 
L 183.540752 566.357952 
L 183.978056 564.214187 
L 184.415361 565.004817 
L 184.852665 563.383383 
L 185.289969 565.036764 
L 185.727273 565.540324 
L 186.164577 563.446569 
L 187.039185 561.479057 
L 187.476489 562.251111 
L 187.913793 561.983453 
L 188.351097 559.98528 
L 188.788401 554.257905 
L 189.225705 551.413693 
L 190.100313 543.734361 
L 190.537618 541.685537 
L 190.974922 547.335135 
L 191.412226 545.333041 
L 191.84953 547.967125 
L 192.286834 546.105866 
L 192.724138 550.782025 
L 193.161442 553.074531 
L 193.598746 552.27773 
L 194.473354 544.610289 
L 194.910658 545.380736 
L 195.347962 542.804696 
L 195.785266 541.232692 
L 196.222571 537.892569 
L 196.659875 533.54134 
L 197.097179 530.913877 
L 197.534483 527.270808 
L 197.971787 525.02259 
L 198.846395 510.172629 
L 199.721003 490.224453 
L 200.158307 488.625581 
L 201.032915 473.44394 
L 201.470219 458.148848 
L 201.907524 455.538097 
L 203.219436 425.458094 
L 203.65674 423.820204 
L 204.094044 420.917113 
L 204.531348 420.934919 
L 204.968652 415.997016 
L 205.84326 400.134598 
L 206.280564 395.194831 
L 206.717868 394.262852 
L 207.155172 388.284725 
L 207.592476 379.794643 
L 208.029781 376.997998 
L 208.467085 375.883595 
L 208.904389 370.673279 
L 209.778997 355.502052 
L 210.216301 352.338182 
L 210.653605 344.064334 
L 211.528213 335.382316 
L 211.965517 331.638715 
L 213.277429 312.670149 
L 213.714734 305.691714 
L 214.152038 307.071074 
L 214.589342 305.008301 
L 215.026646 296.591112 
L 215.901254 296.2316 
L 216.338558 294.809752 
L 216.775862 288.885554 
L 217.213166 290.111673 
L 217.65047 293.0802 
L 218.087774 300.280397 
L 218.525078 302.892176 
L 218.962382 302.4662 
L 219.399687 298.597577 
L 220.274295 312.94372 
L 220.711599 310.534034 
L 221.148903 312.926815 
L 221.586207 309.615489 
L 222.023511 311.07809 
L 222.460815 317.600917 
L 222.898119 314.997237 
L 223.335423 316.854382 
L 223.772727 311.88614 
L 224.210031 312.056929 
L 224.647335 310.815254 
L 225.084639 315.262387 
L 225.521944 320.957817 
L 226.396552 328.358243 
L 226.833856 333.943626 
L 227.27116 335.637053 
L 228.145768 347.091162 
L 228.583072 353.968358 
L 229.020376 356.545362 
L 229.45768 370.780367 
L 229.894984 363.282752 
L 230.769592 383.242819 
L 231.206897 388.136755 
L 231.644201 394.400473 
L 232.081505 395.519311 
L 232.518809 399.252435 
L 232.956113 400.297674 
L 233.393417 406.609987 
L 233.830721 410.255692 
L 234.268025 408.641714 
L 234.705329 413.84978 
L 235.142633 414.069036 
L 235.579937 415.227791 
L 236.017241 418.82985 
L 236.454545 418.477666 
L 236.89185 419.75643 
L 237.329154 419.74441 
L 237.766458 418.242212 
L 238.641066 413.488404 
L 239.515674 409.962001 
L 239.952978 408.648334 
L 240.390282 408.204489 
L 240.827586 406.298942 
L 241.26489 407.034292 
L 241.702194 405.822635 
L 242.139498 408.830051 
L 242.576803 407.201224 
L 243.014107 402.951491 
L 243.451411 402.430382 
L 243.888715 404.849646 
L 244.326019 393.425234 
L 244.763323 390.173623 
L 245.200627 385.764093 
L 245.637931 390.390307 
L 246.075235 384.566256 
L 246.512539 380.684455 
L 246.949843 375.654505 
L 247.387147 376.132997 
L 247.824451 367.53332 
L 248.261755 370.889449 
L 248.69906 373.252083 
L 249.573668 367.152082 
L 250.010972 367.33457 
L 250.88558 361.781647 
L 251.322884 360.224749 
L 252.197492 350.021828 
L 253.0721 341.686659 
L 253.509404 339.637899 
L 253.946708 340.766828 
L 254.384013 338.304562 
L 254.821317 338.746672 
L 255.258621 340.518262 
L 255.695925 336.597637 
L 256.133229 337.442197 
L 256.570533 333.742626 
L 257.007837 331.47159 
L 257.445141 325.64471 
L 257.882445 331.043685 
L 258.319749 331.554702 
L 258.757053 334.760804 
L 259.194357 332.950325 
L 259.631661 335.605878 
L 260.068966 339.315669 
L 260.50627 339.653711 
L 260.943574 338.905441 
L 261.380878 345.924308 
L 262.255486 352.520926 
L 262.69279 350.720668 
L 263.130094 344.212883 
L 263.567398 348.322809 
L 264.004702 343.059013 
L 264.442006 352.165721 
L 264.87931 349.915704 
L 265.316614 355.416239 
L 265.753918 348.674286 
L 266.191223 347.541307 
L 266.628527 351.094193 
L 267.065831 349.055974 
L 267.503135 347.654759 
L 267.940439 344.494617 
L 268.377743 348.11281 
L 268.815047 348.768905 
L 269.252351 345.421454 
L 269.689655 339.898678 
L 270.126959 337.890863 
L 270.564263 341.522041 
L 271.001567 347.308746 
L 271.438871 348.890006 
L 271.876176 348.369347 
L 272.750784 365.492659 
L 273.188088 359.718746 
L 273.625392 363.718691 
L 274.062696 354.445114 
L 274.5 363.214937 
L 274.937304 362.661689 
L 275.374608 363.161265 
L 275.811912 357.322172 
L 276.249216 359.305818 
L 276.68652 358.069478 
L 277.123824 355.756146 
L 277.561129 356.486161 
L 277.998433 355.238187 
L 278.435737 358.621698 
L 278.873041 356.148183 
L 279.310345 362.383747 
L 279.747649 364.781928 
L 280.184953 371.049182 
L 280.622257 372.547779 
L 281.059561 377.189099 
L 281.496865 376.74249 
L 281.934169 380.631554 
L 282.371473 382.150399 
L 282.808777 380.736586 
L 283.246082 379.859243 
L 283.683386 382.649589 
L 284.12069 382.84249 
L 284.557994 387.56133 
L 285.432602 400.717929 
L 286.744514 408.798233 
L 287.181818 408.277252 
L 287.619122 409.410489 
L 288.056426 404.22582 
L 288.49373 409.41576 
L 289.368339 415.830534 
L 289.805643 416.423378 
L 291.117555 427.918818 
L 291.992163 431.46669 
L 292.429467 434.165374 
L 292.866771 434.704545 
L 293.304075 436.031132 
L 293.741379 436.666529 
L 294.178683 438.587374 
L 294.615987 437.432926 
L 295.053292 440.121839 
L 295.490596 440.913691 
L 295.9279 442.024558 
L 296.365204 442.493022 
L 296.802508 444.506751 
L 297.239812 449.762448 
L 297.677116 450.479672 
L 298.11442 449.287942 
L 298.551724 452.482344 
L 298.989028 456.660021 
L 299.426332 457.294646 
L 299.863636 456.170794 
L 300.30094 452.241556 
L 301.175549 445.933485 
L 301.612853 442.487623 
L 302.050157 442.589377 
L 302.487461 442.900743 
L 302.924765 445.242101 
L 303.362069 445.316793 
L 303.799373 446.150233 
L 304.236677 445.101459 
L 305.111285 437.361576 
L 305.548589 434.652993 
L 305.985893 426.154363 
L 306.423197 426.355941 
L 306.860502 424.212498 
L 307.297806 419.92529 
L 307.73511 418.191818 
L 308.172414 419.875346 
L 308.609718 421.051713 
L 309.047022 423.900424 
L 309.484326 425.682042 
L 309.92163 426.758134 
L 310.358934 425.753391 
L 310.796238 426.37966 
L 311.233542 428.809916 
L 312.10815 431.8442 
L 313.420063 433.686368 
L 313.857367 432.772386 
L 314.731975 436.65213 
L 316.043887 424.283848 
L 316.918495 421.537404 
L 317.355799 418.636242 
L 317.793103 419.40341 
L 318.230408 420.445306 
L 318.667712 420.391955 
L 319.105016 421.340775 
L 319.54232 420.86434 
L 319.979624 419.710342 
L 321.291536 413.76866 
L 321.72884 411.124742 
L 322.166144 411.025238 
L 322.603448 412.882898 
L 323.040752 409.567329 
L 323.478056 411.527192 
L 323.915361 416.671173 
L 324.352665 416.107833 
L 324.789969 414.193222 
L 325.227273 417.276551 
L 326.101881 409.358744 
L 326.539185 407.569671 
L 326.976489 408.3675 
L 327.413793 410.420117 
L 327.851097 413.331435 
L 328.288401 410.829445 
L 329.163009 402.238446 
L 329.600313 385.170992 
L 330.474922 390.406891 
L 330.912226 391.062986 
L 331.34953 388.68666 
L 331.786834 391.804571 
L 332.224138 391.597465 
L 332.661442 395.296006 
L 333.098746 397.984534 
L 333.53605 398.765265 
L 333.973354 401.054493 
L 334.410658 401.783223 
L 334.847962 400.381108 
L 335.285266 404.981739 
L 335.722571 406.854247 
L 336.159875 403.585602 
L 336.597179 407.168442 
L 337.034483 406.777305 
L 337.471787 403.921588 
L 337.909091 405.710083 
L 338.346395 399.827667 
L 338.783699 397.343867 
L 339.221003 390.991893 
L 339.658307 397.381277 
L 340.095611 394.741344 
L 340.532915 395.782662 
L 340.970219 389.971402 
L 341.407524 397.915113 
L 341.844828 399.73112 
L 342.282132 402.096775 
L 342.719436 398.657791 
L 343.15674 399.349175 
L 343.594044 398.91015 
L 344.031348 397.678181 
L 344.468652 397.268532 
L 344.905956 395.911412 
L 345.34326 396.350887 
L 345.780564 392.817606 
L 346.655172 388.099794 
L 347.092476 388.365652 
L 347.529781 386.174064 
L 347.967085 387.991934 
L 348.404389 390.564375 
L 348.841693 390.078555 
L 349.278997 389.234638 
L 349.716301 388.901737 
L 350.153605 388.208297 
L 350.590909 389.373351 
L 351.028213 386.780728 
L 351.465517 386.981663 
L 351.902821 383.223728 
L 352.340125 384.549222 
L 352.777429 379.946405 
L 353.214734 373.407509 
L 353.652038 368.598164 
L 354.089342 372.607559 
L 354.526646 368.65068 
L 354.96395 350.598731 
L 355.401254 356.762046 
L 355.838558 359.760977 
L 356.275862 365.521199 
L 356.713166 363.929911 
L 357.15047 369.756276 
L 357.587774 366.705344 
L 358.025078 377.680704 
L 358.462382 363.469803 
L 359.336991 352.716206 
L 359.774295 352.15248 
L 360.211599 360.589017 
L 360.648903 358.786381 
L 361.086207 355.165488 
L 361.523511 345.651058 
L 361.960815 354.203169 
L 362.835423 363.538132 
L 363.272727 368.584216 
L 363.710031 370.848182 
L 364.147335 361.625064 
L 364.584639 355.715779 
L 365.021944 365.28761 
L 365.459248 380.286055 
L 366.333856 391.122251 
L 366.77116 391.091461 
L 367.208464 375.397647 
L 367.645768 364.448642 
L 368.083072 374.756851 
L 368.520376 391.228632 
L 368.95768 386.514227 
L 369.394984 384.542023 
L 369.832288 388.394063 
L 370.269592 402.655423 
L 370.706897 404.284121 
L 371.144201 396.631271 
L 371.581505 411.456807 
L 372.018809 411.479111 
L 372.456113 437.854145 
L 372.893417 426.209642 
L 373.330721 433.632888 
L 373.768025 410.560566 
L 374.205329 412.962539 
L 374.642633 443.255948 
L 375.079937 450.479415 
L 375.517241 398.635101 
L 376.39185 433.982822 
L 376.829154 455.760567 
L 377.266458 445.108144 
L 377.703762 452.094807 
L 378.141066 456.995042 
L 378.57837 471.489734 
L 379.015674 480.242973 
L 379.452978 479.938163 
L 379.890282 487.451398 
L 380.327586 504.789402 
L 380.76489 512.014475 
L 381.202194 510.568008 
L 381.639498 522.870598 
L 382.076803 527.298512 
L 382.514107 527.466215 
L 382.951411 521.745396 
L 383.826019 515.857709 
L 384.263323 504.184859 
L 384.700627 511.907194 
L 385.137931 531.948895 
L 385.575235 532.484402 
L 386.012539 530.787054 
L 386.449843 528.582482 
L 386.887147 532.817688 
L 387.324451 534.12872 
L 388.19906 525.272699 
L 388.636364 532.545596 
L 389.073668 534.283439 
L 389.510972 537.890962 
L 389.948276 539.807629 
L 390.38558 540.240805 
L 390.822884 542.423844 
L 391.260188 538.947321 
L 392.134796 535.13057 
L 392.5721 537.732193 
L 393.009404 542.493522 
L 393.446708 539.376704 
L 393.884013 533.601826 
L 394.321317 533.040222 
L 395.195925 545.272105 
L 395.633229 546.14649 
L 396.070533 549.533729 
L 396.507837 551.211472 
L 396.945141 550.946257 
L 397.382445 548.115995 
L 397.819749 549.965105 
L 398.257053 544.174543 
L 398.694357 544.170365 
L 399.131661 541.054639 
L 399.568966 539.37034 
L 400.00627 542.184533 
L 400.443574 548.584845 
L 401.318182 553.193575 
L 401.755486 557.411555 
L 402.19279 549.4708 
L 402.630094 552.319061 
L 403.067398 557.94057 
L 403.504702 554.098622 
L 403.942006 554.964201 
L 404.37931 549.39418 
L 404.816614 553.358129 
L 405.253918 552.985055 
L 405.691223 551.274337 
L 406.565831 529.472744 
L 407.003135 540.764099 
L 407.440439 536.375588 
L 407.877743 534.932334 
L 408.315047 527.561027 
L 408.752351 529.57122 
L 409.189655 524.998485 
L 410.064263 531.761972 
L 410.501567 529.463488 
L 410.938871 525.514902 
L 411.376176 528.860424 
L 411.81348 537.7356 
L 412.250784 533.993349 
L 412.688088 535.064235 
L 413.125392 534.296231 
L 413.562696 537.182738 
L 414 539.067458 
L 414.437304 533.696252 
L 414.874608 533.832909 
L 415.311912 533.677675 
L 416.18652 540.91194 
L 416.623824 546.315801 
L 417.061129 548.985302 
L 417.498433 552.623807 
L 418.373041 555.673454 
L 418.810345 552.300935 
L 419.247649 553.759486 
L 420.122257 548.938828 
L 420.559561 550.523881 
L 420.996865 549.236247 
L 421.434169 547.054558 
L 422.308777 550.486728 
L 422.746082 549.352527 
L 423.62069 554.500622 
L 424.057994 552.164149 
L 424.495298 554.70715 
L 424.932602 554.514892 
L 425.369906 557.322978 
L 425.80721 554.277124 
L 426.681818 561.927209 
L 427.119122 565.693437 
L 427.556426 568.455114 
L 427.99373 569.072191 
L 428.431034 570.336685 
L 429.305643 564.648841 
L 430.180251 553.144466 
L 430.617555 548.040403 
L 431.054859 541.525482 
L 431.492163 537.747685 
L 431.929467 538.974704 
L 432.366771 537.347806 
L 432.804075 538.249767 
L 433.241379 539.93593 
L 433.678683 539.891192 
L 434.553292 536.116801 
L 434.990596 536.02154 
L 435.865204 535.180451 
L 436.302508 531.113527 
L 436.739812 532.435229 
L 437.177116 531.564122 
L 437.61442 521.865083 
L 438.489028 511.55816 
L 438.926332 505.148592 
L 439.363636 502.945627 
L 439.80094 501.825953 
L 440.675549 496.401138 
L 441.112853 494.257566 
L 441.550157 490.895846 
L 441.987461 489.15421 
L 442.424765 483.403437 
L 442.862069 481.533757 
L 443.299373 475.997804 
L 444.173981 468.316608 
L 444.611285 467.533241 
L 445.048589 465.479853 
L 445.485893 458.257865 
L 445.923197 457.618869 
L 447.23511 444.587678 
L 447.672414 436.864893 
L 448.109718 432.135318 
L 448.547022 430.822294 
L 448.984326 428.706362 
L 449.42163 430.123518 
L 449.858934 427.441611 
L 450.296238 420.643478 
L 450.733542 417.119968 
L 451.60815 403.816685 
L 452.045455 402.483284 
L 452.482759 403.438146 
L 452.920063 406.511319 
L 453.357367 404.857809 
L 453.794671 409.665933 
L 454.231975 404.631998 
L 454.669279 397.046706 
L 455.543887 387.182021 
L 455.981191 379.363653 
L 456.418495 379.559125 
L 456.855799 380.023926 
L 457.293103 379.847866 
L 457.730408 378.634345 
L 458.167712 379.580016 
L 458.605016 374.443363 
L 459.04232 366.98695 
L 459.479624 353.613603 
L 460.791536 339.360278 
L 461.22884 337.564391 
L 461.666144 337.753949 
L 462.103448 343.202162 
L 462.540752 339.250233 
L 462.978056 339.034448 
L 463.415361 340.039706 
L 463.852665 339.693628 
L 464.289969 338.971519 
L 464.727273 338.861667 
L 465.164577 337.378303 
L 466.039185 325.961284 
L 466.476489 323.539256 
L 466.913793 323.201535 
L 467.351097 322.67072 
L 467.788401 325.396915 
L 468.225705 326.843897 
L 468.663009 325.754884 
L 469.100313 327.689035 
L 469.537618 326.41265 
L 469.974922 326.008786 
L 470.84953 321.96918 
L 471.286834 322.287039 
L 471.724138 320.777772 
L 472.161442 321.003647 
L 473.03605 324.638039 
L 473.473354 325.985003 
L 473.910658 327.96717 
L 474.347962 329.182426 
L 474.785266 327.770091 
L 475.222571 325.734508 
L 475.659875 322.142348 
L 476.097179 324.487819 
L 476.534483 328.849719 
L 476.971787 327.734288 
L 477.409091 329.057725 
L 477.846395 334.120329 
L 478.283699 334.321715 
L 478.721003 339.220729 
L 479.158307 336.903218 
L 479.595611 336.870179 
L 480.470219 338.141679 
L 480.907524 333.852929 
L 481.344828 337.797273 
L 481.782132 336.824605 
L 482.65674 339.095321 
L 483.094044 337.438918 
L 483.531348 341.472032 
L 483.968652 341.803904 
L 484.84326 346.543184 
L 485.280564 345.36116 
L 485.717868 346.9367 
L 486.155172 347.229554 
L 487.029781 352.437235 
L 487.904389 355.550711 
L 488.341693 357.747056 
L 488.778997 357.549527 
L 490.528213 369.422798 
L 490.965517 369.845303 
L 491.402821 372.98269 
L 491.840125 376.997612 
L 492.277429 382.354999 
L 493.152038 387.344453 
L 493.589342 393.214528 
L 494.026646 393.962606 
L 494.46395 397.044584 
L 494.901254 401.115944 
L 495.338558 407.534896 
L 495.775862 409.014145 
L 496.213166 415.218342 
L 496.65047 417.609966 
L 497.087774 420.790677 
L 497.525078 426.807565 
L 497.962382 430.029221 
L 498.399687 430.838107 
L 498.836991 435.912473 
L 499.274295 445.086418 
L 499.711599 450.498698 
L 500.148903 457.558511 
L 500.586207 461.409779 
L 501.023511 471.71876 
L 502.335423 484.606673 
L 503.647335 497.454283 
L 504.521944 512.396677 
L 504.959248 512.473105 
L 505.396552 515.236646 
L 505.833856 518.84102 
L 506.27116 521.014095 
L 506.708464 529.36617 
L 507.145768 533.882275 
L 507.583072 542.564871 
L 508.020376 543.20811 
L 508.45768 549.639468 
L 508.894984 554.262276 
L 509.332288 562.961135 
L 509.769592 561.700369 
L 511.956113 583.522627 
L 512.830721 589.721585 
L 513.268025 594.956649 
L 513.705329 594.69227 
L 514.142633 595.14595 
L 514.579937 597.516844 
L 515.454545 598.213273 
L 515.89185 598.17297 
L 516.329154 599.11607 
L 516.766458 599.48998 
L 517.203762 600.192066 
L 517.641066 597.556632 
L 518.07837 593.932911 
L 518.515674 593.461586 
L 519.827586 585.007951 
L 520.26489 583.661052 
L 520.702194 578.110443 
L 522.451411 567.474283 
L 523.326019 555.620617 
L 523.763323 554.13796 
L 524.200627 554.369493 
L 524.637931 553.535217 
L 525.512539 543.566593 
L 525.949843 543.430386 
L 526.387147 537.937371 
L 526.824451 530.361721 
L 527.69906 522.1751 
L 528.136364 512.236816 
L 528.573668 509.820509 
L 529.010972 500.786885 
L 529.448276 483.112832 
L 529.88558 486.767086 
L 530.322884 482.620327 
L 530.760188 466.480032 
L 531.197492 471.553692 
L 531.634796 470.143863 
L 532.0721 469.424647 
L 532.509404 470.08357 
L 532.946708 463.498264 
L 533.384013 464.611638 
L 533.821317 468.512144 
L 534.695925 449.26043 
L 535.133229 448.193915 
L 535.570533 439.017528 
L 536.007837 443.573357 
L 536.445141 435.660564 
L 536.882445 430.538053 
L 537.319749 427.537387 
L 537.757053 428.87368 
L 538.194357 425.018041 
L 538.631661 425.381731 
L 539.068966 420.210174 
L 539.943574 418.405031 
L 540.380878 422.940612 
L 540.818182 423.115965 
L 541.255486 429.58994 
L 541.69279 431.786734 
L 542.130094 437.931794 
L 542.567398 440.67528 
L 543.004702 430.464004 
L 543.442006 428.668502 
L 543.87931 431.393412 
L 544.316614 431.338132 
L 544.753918 429.298563 
L 545.191223 433.201962 
L 545.628527 427.59768 
L 546.065831 426.212214 
L 546.503135 435.691354 
L 546.940439 441.692879 
L 547.377743 441.983484 
L 548.252351 441.042377 
L 548.689655 439.880536 
L 549.126959 440.723554 
L 549.564263 451.851383 
L 550.001567 454.342446 
L 550.438871 455.508208 
L 550.876176 461.491156 
L 551.31348 464.146452 
L 551.750784 463.526161 
L 552.188088 471.438054 
L 552.625392 474.431521 
L 553.062696 473.820486 
L 553.5 472.891206 
L 553.937304 476.073782 
L 554.374608 475.726869 
L 554.811912 483.327781 
L 555.249216 486.851998 
L 556.123824 490.94052 
L 556.561129 497.431336 
L 556.998433 499.537883 
L 557.435737 500.27664 
L 557.873041 506.101334 
L 558.310345 506.868952 
L 558.747649 509.985384 
L 559.184953 509.710014 
L 559.622257 513.015233 
L 560.496865 522.24735 
L 560.934169 524.469149 
L 561.371473 525.118108 
L 561.808777 532.897523 
L 562.246082 534.761224 
L 562.683386 541.539816 
L 563.12069 545.028552 
L 563.557994 552.249319 
L 563.995298 553.959651 
L 564.869906 568.854993 
L 565.30721 583.597223 
L 565.744514 582.287669 
L 566.181818 585.405452 
L 566.619122 586.538238 
L 567.056426 593.487555 
L 567.49373 592.117772 
L 567.931034 588.32503 
L 568.368339 594.184659 
L 568.805643 591.551797 
L 569.242947 590.920418 
L 569.680251 590.034012 
L 570.117555 590.752875 
L 570.554859 590.906244 
L 570.992163 593.289255 
L 571.866771 600.254192 
L 572.741379 602.239669 
L 573.178683 607.055024 
L 573.615987 605.226708 
L 574.490596 613.089846 
L 574.9279 615.280855 
L 575.365204 614.604835 
L 575.802508 615.6 
L 576.677116 612.014396 
L 577.11442 609.301892 
L 578.426332 603.146001 
L 578.863636 603.446923 
L 579.30094 602.045483 
L 579.738245 601.651678 
L 580.175549 599.784217 
L 580.612853 599.870511 
L 581.050157 594.513767 
L 581.487461 594.926663 
L 581.924765 594.946621 
L 582.362069 593.638546 
L 582.799373 593.555241 
L 583.236677 591.530264 
L 583.673981 590.048668 
L 584.111285 586.926032 
L 584.548589 585.512026 
L 584.985893 583.210071 
L 585.423197 577.627162 
L 586.297806 568.936756 
L 587.172414 555.275053 
L 588.047022 534.284918 
L 588.484326 530.338581 
L 589.358934 510.733719 
L 589.796238 506.227192 
L 590.670846 487.176542 
L 591.545455 473.501727 
L 591.982759 471.395244 
L 592.420063 457.07057 
L 592.857367 451.247033 
L 593.294671 436.298468 
L 593.731975 438.759513 
L 594.169279 428.49617 
L 594.606583 421.445678 
L 595.043887 411.907659 
L 596.355799 399.792506 
L 596.793103 385.115776 
L 598.979624 329.137045 
L 599.416928 326.85881 
L 599.854232 317.101085 
L 600.291536 312.512345 
L 600.72884 303.307418 
L 601.166144 303.45828 
L 601.603448 296.8992 
L 602.040752 288.564545 
L 602.478056 273.839671 
L 602.915361 278.759447 
L 603.352665 266.417775 
L 604.227273 251.249955 
L 604.664577 249.486529 
L 605.101881 242.405376 
L 605.539185 232.462913 
L 605.976489 239.964643 
L 606.413793 225.845789 
L 606.851097 231.840501 
L 607.288401 228.368221 
L 607.725705 244.412419 
L 608.163009 235.624726 
L 608.600313 238.214522 
L 609.037618 231.46042 
L 609.474922 246.991544 
L 609.912226 252.63915 
L 610.34953 247.524609 
L 610.786834 238.078251 
L 611.224138 236.649074 
L 611.661442 214.668787 
L 612.098746 199.761489 
L 612.53605 196.218566 
L 612.973354 202.607114 
L 613.410658 189.556833 
L 613.847962 171.66841 
L 614.285266 174.543346 
L 614.722571 175.048707 
L 615.159875 181.142536 
L 615.597179 196.27796 
L 616.034483 192.642926 
L 616.471787 187.619468 
L 616.909091 169.699291 
L 617.346395 139.786091 
L 618.658307 151.566222 
L 619.095611 147.343872 
L 619.532915 145.977881 
L 619.970219 145.669343 
L 620.407524 143.200327 
L 620.844828 142.456042 
L 621.719436 140.215731 
L 622.15674 137.313604 
L 622.594044 136.657381 
L 623.031348 137.607487 
L 623.468652 137.487093 
L 623.905956 133.277663 
L 624.34326 130.154352 
L 624.780564 133.178545 
L 625.217868 134.054408 
L 625.655172 135.858459 
L 626.092476 128.827187 
L 627.404389 156.311481 
L 627.841693 158.122795 
L 628.278997 164.063834 
L 628.716301 164.987264 
L 629.153605 164.237322 
L 629.590909 170.171805 
L 630.028213 169.109275 
L 630.465517 176.313136 
L 630.902821 178.691004 
L 631.340125 183.158771 
L 631.777429 192.704441 
L 632.214734 191.412435 
L 632.652038 193.032777 
L 633.526646 195.37407 
L 633.96395 187.66337 
L 634.401254 188.414597 
L 634.838558 188.088575 
L 635.275862 181.448954 
L 635.713166 179.072307 
L 636.15047 184.504128 
L 638.774295 155.495782 
L 639.211599 154.693068 
L 639.648903 159.800345 
L 640.086207 150.938217 
L 640.523511 145.861408 
L 640.960815 142.708915 
L 641.398119 136.70559 
L 641.835423 134.670136 
L 642.272727 139.989469 
L 642.710031 140.802597 
L 643.147335 146.718503 
L 643.584639 151.050127 
L 644.021944 166.092732 
L 644.459248 169.691577 
L 644.896552 181.76257 
L 645.333856 185.586456 
L 646.208464 189.322665 
L 646.645768 195.491894 
L 647.083072 190.461751 
L 647.520376 202.23224 
L 647.95768 205.94743 
L 648.394984 216.384454 
L 648.832288 214.135915 
L 649.269592 216.649283 
L 649.706897 229.981427 
L 650.144201 232.125706 
L 650.581505 229.442771 
L 651.018809 224.355998 
L 651.456113 227.960886 
L 651.893417 228.959843 
L 652.330721 231.817746 
L 652.768025 230.832415 
L 653.205329 240.771793 
L 653.642633 243.690053 
L 654.079937 238.495485 
L 654.517241 244.889883 
L 654.954545 248.303476 
L 655.39185 257.389423 
L 655.829154 256.236967 
L 656.266458 261.21935 
L 656.703762 260.848526 
L 657.141066 271.840598 
L 657.57837 274.684038 
L 658.452978 287.364266 
L 658.890282 286.6401 
L 659.327586 290.78313 
L 659.76489 291.538407 
L 660.202194 289.565303 
L 660.639498 288.923671 
L 661.514107 300.086018 
L 661.951411 302.206964 
L 662.388715 309.565351 
L 662.826019 310.355339 
L 663.263323 306.97832 
L 663.700627 311.546233 
L 664.137931 318.877367 
L 664.575235 322.418297 
L 665.012539 323.56471 
L 665.887147 331.939861 
L 666.324451 334.946698 
L 667.19906 345.332942 
L 667.636364 350.879437 
L 668.073668 351.518112 
L 668.510972 352.57852 
L 668.948276 357.515909 
L 669.38558 363.881059 
L 669.822884 366.584436 
L 670.260188 370.653802 
L 670.697492 373.44177 
L 671.5721 381.381881 
L 672.009404 381.988159 
L 672.446708 383.126345 
L 672.884013 381.4056 
L 673.321317 376.420967 
L 674.195925 373.952851 
L 674.633229 376.479589 
L 675.070533 377.784321 
L 675.507837 370.862901 
L 675.945141 376.208204 
L 676.382445 377.834395 
L 676.819749 374.801203 
L 677.257053 380.488212 
L 677.694357 382.915382 
L 678.131661 382.160684 
L 679.00627 383.754607 
L 679.443574 385.594782 
L 680.755486 377.04325 
L 681.19279 379.076198 
L 681.630094 377.316564 
L 682.067398 376.9791 
L 682.504702 375.5057 
L 682.942006 377.284039 
L 683.37931 376.857934 
L 683.816614 376.271583 
L 684.253918 374.459111 
L 684.691223 373.490364 
L 685.565831 375.816488 
L 686.003135 374.600075 
L 686.440439 375.093287 
L 686.877743 375.779078 
L 687.752351 380.638046 
L 688.189655 380.731122 
L 688.626959 379.448758 
L 689.064263 383.083021 
L 689.501567 380.482427 
L 689.938871 384.244348 
L 690.376176 385.314591 
L 690.81348 387.27169 
L 691.250784 386.574135 
L 692.562696 400.883768 
L 693 399.687731 
L 693.874608 396.384055 
L 694.311912 393.901412 
L 694.749216 393.422984 
L 695.18652 393.744636 
L 695.623824 396.495064 
L 696.061129 403.26003 
L 696.498433 400.809526 
L 696.935737 402.797736 
L 697.373041 401.692654 
L 697.810345 402.588315 
L 698.247649 400.351089 
L 698.684953 400.927864 
L 699.122257 396.753658 
L 699.996865 410.441072 
L 700.434169 420.645278 
L 700.871473 417.870488 
L 701.308777 410.41626 
L 701.746082 409.417238 
L 702.183386 409.473225 
L 702.62069 410.841079 
L 703.057994 415.313667 
L 703.495298 414.085812 
L 704.369906 423.561032 
L 704.80721 424.356547 
L 705.244514 428.581276 
L 705.681818 426.697005 
L 706.556426 417.022842 
L 706.99373 424.567703 
L 707.431034 419.356615 
L 707.868339 426.910475 
L 708.305643 425.825383 
L 708.742947 418.689658 
L 709.180251 418.940731 
L 709.617555 421.453328 
L 710.054859 422.402212 
L 710.492163 424.734314 
L 710.929467 430.321305 
L 711.366771 428.184418 
L 711.804075 427.150171 
L 712.241379 423.988679 
L 712.678683 422.912779 
L 713.115987 421.231951 
L 713.553292 425.882784 
L 713.990596 425.395165 
L 714.4279 434.367852 
L 715.302508 426.239468 
L 715.739812 420.013031 
L 716.177116 427.565605 
L 716.61442 417.938238 
L 717.051724 417.795474 
L 717.489028 418.321468 
L 717.926332 420.186327 
L 718.363636 412.276684 
L 719.238245 415.471986 
L 719.675549 407.686208 
L 720.112853 404.869958 
L 720.550157 409.604547 
L 720.987461 410.743311 
L 721.424765 414.883192 
L 721.862069 410.675818 
L 722.299373 414.911089 
L 722.736677 415.928173 
L 723.173981 419.956723 
L 723.611285 420.562358 
L 724.048589 419.280509 
L 724.485893 408.468353 
L 724.923197 417.990561 
L 725.360502 418.998582 
L 725.797806 426.846582 
L 726.23511 412.394378 
L 726.672414 417.99506 
L 727.109718 416.224177 
L 727.547022 427.339794 
L 727.984326 425.408856 
L 728.42163 425.110602 
L 728.858934 426.718795 
L 729.296238 423.122393 
L 729.733542 422.692496 
L 730.170846 423.666642 
L 731.045455 417.946208 
L 731.920063 424.48819 
L 733.231975 442.443849 
L 733.669279 436.152812 
L 734.106583 425.513631 
L 734.543887 426.482056 
L 734.981191 433.34119 
L 735.418495 433.762602 
L 735.855799 420.557859 
L 736.293103 420.631651 
L 736.730408 424.134335 
L 737.167712 422.433966 
L 737.605016 416.561192 
L 738.04232 427.532052 
L 738.479624 428.375583 
L 738.916928 421.249114 
L 739.354232 420.018173 
L 739.791536 413.231289 
L 740.22884 415.853867 
L 740.666144 407.927318 
L 741.103448 408.756194 
L 741.540752 405.945086 
L 742.415361 426.276043 
L 743.289969 411.516522 
L 743.727273 416.872108 
L 744.164577 432.636437 
L 745.039185 427.010557 
L 745.476489 408.252119 
L 745.913793 402.603935 
L 746.351097 410.5085 
L 747.225705 394.180704 
L 747.663009 402.884191 
L 748.100313 399.770973 
L 748.537618 381.371211 
L 748.974922 377.449686 
L 749.412226 376.568358 
L 749.84953 386.176763 
L 750.286834 383.830842 
L 750.724138 396.191347 
L 751.161442 395.380083 
L 751.598746 397.932726 
L 752.03605 394.346607 
L 752.473354 401.094025 
L 752.910658 400.066655 
L 753.347962 391.225354 
L 753.785266 389.557382 
L 754.222571 390.892004 
L 754.659875 384.773684 
L 755.097179 401.259864 
L 755.534483 397.395354 
L 755.971787 396.629022 
L 756.409091 392.506432 
L 756.846395 396.708342 
L 757.283699 393.869723 
L 757.721003 389.110129 
L 758.158307 377.788628 
L 758.595611 385.930382 
L 759.032915 389.085189 
L 759.470219 384.285615 
L 759.907524 376.99562 
L 760.344828 376.605511 
L 760.782132 366.171765 
L 761.219436 371.869573 
L 761.65674 382.755649 
L 762.094044 389.304316 
L 762.531348 386.494494 
L 762.968652 377.671833 
L 763.405956 389.089303 
L 763.84326 389.24293 
L 764.717868 375.429915 
L 765.155172 385.28213 
L 765.592476 390.765117 
L 766.029781 385.38684 
L 766.467085 387.126484 
L 766.904389 393.761991 
L 767.341693 397.424794 
L 767.778997 390.866935 
L 768.216301 395.309891 
L 768.653605 395.358035 
L 769.090909 389.562781 
L 769.965517 394.654632 
L 770.402821 400.835045 
L 770.840125 399.988235 
L 771.277429 403.628669 
L 771.714734 402.389372 
L 772.152038 397.577199 
L 772.589342 395.415179 
L 773.026646 397.885481 
L 773.46395 404.973061 
L 773.901254 401.037009 
L 774.338558 401.610891 
L 774.775862 410.466398 
L 775.213166 414.958526 
L 775.65047 412.393735 
L 776.087774 413.424126 
L 776.525078 416.255803 
L 776.962382 417.714804 
L 777.399687 416.878151 
L 777.836991 415.000951 
L 778.274295 414.464222 
L 779.148903 402.709674 
L 779.586207 401.336356 
L 780.023511 417.666017 
L 780.460815 416.702155 
L 780.898119 423.35084 
L 781.335423 422.74829 
L 781.772727 423.460692 
L 782.210031 423.474705 
L 782.647335 417.766292 
L 783.084639 417.957586 
L 783.521944 428.722753 
L 783.959248 429.511069 
L 784.396552 429.880737 
L 784.833856 430.527061 
L 785.27116 433.484853 
L 785.708464 433.522585 
L 786.145768 435.374716 
L 786.583072 440.202509 
L 787.020376 440.762378 
L 787.45768 439.514404 
L 787.894984 435.332807 
L 788.332288 436.441424 
L 789.206897 449.361284 
L 789.644201 446.495796 
L 790.081505 448.921424 
L 790.518809 456.461142 
L 791.393417 458.263714 
L 791.830721 458.476734 
L 792.268025 460.516431 
L 793.142633 471.170461 
L 793.579937 474.542916 
L 794.017241 480.132928 
L 794.454545 484.270752 
L 794.89185 482.827434 
L 795.329154 480.148355 
L 795.766458 473.456539 
L 796.203762 476.956395 
L 796.641066 476.342596 
L 797.07837 479.030995 
L 797.515674 478.761153 
L 797.952978 480.528307 
L 798.390282 483.518367 
L 798.827586 488.051249 
L 799.26489 486.508427 
L 799.702194 489.477211 
L 800.576803 498.366465 
L 801.014107 497.331253 
L 801.451411 500.554646 
L 801.888715 508.566043 
L 802.326019 508.289643 
L 802.763323 511.37895 
L 803.200627 507.623007 
L 804.075235 521.306564 
L 804.512539 524.006598 
L 804.949843 516.431655 
L 805.387147 525.011212 
L 805.824451 529.038348 
L 806.261755 528.04029 
L 806.69906 529.688464 
L 807.136364 529.725489 
L 807.573668 532.052063 
L 808.010972 531.268117 
L 808.448276 531.779199 
L 809.760188 541.050076 
L 810.197492 541.874195 
L 810.634796 539.112004 
L 811.0721 541.714012 
L 811.509404 542.666625 
L 811.946708 543.280874 
L 812.384013 545.572608 
L 812.821317 546.083368 
L 813.258621 545.962202 
L 813.695925 543.531497 
L 814.133229 536.594522 
L 814.570533 534.270776 
L 815.007837 533.48741 
L 815.445141 534.503144 
L 815.882445 538.957606 
L 816.319749 546.66792 
L 816.757053 545.544904 
L 817.194357 547.667007 
L 817.631661 551.066073 
L 818.068966 556.254342 
L 818.50627 557.249572 
L 818.943574 553.843177 
L 819.380878 554.027144 
L 819.818182 554.081202 
L 820.255486 555.561866 
L 820.69279 553.230664 
L 821.130094 554.511999 
L 821.567398 553.424786 
L 822.004702 555.53339 
L 822.442006 558.55109 
L 822.87931 560.083691 
L 823.316614 563.272309 
L 823.753918 565.167121 
L 824.191223 567.631059 
L 824.628527 569.172916 
L 825.065831 571.222062 
L 825.503135 572.554017 
L 825.940439 568.22776 
L 826.377743 565.969129 
L 826.815047 565.833629 
L 827.252351 568.559374 
L 827.689655 569.474641 
L 828.126959 571.51421 
L 828.564263 572.198651 
L 829.438871 574.376708 
L 829.876176 579.756689 
L 830.31348 579.605151 
L 830.750784 578.907437 
L 831.188088 572.746114 
L 831.625392 573.329573 
L 832.062696 571.872564 
L 832.937304 564.027521 
L 833.374608 566.599833 
L 833.811912 565.120069 
L 834.249216 567.599755 
L 834.68652 566.740604 
L 835.123824 565.038049 
L 835.561129 564.239127 
L 835.998433 559.400214 
L 836.435737 552.631392 
L 836.873041 556.887425 
L 837.747649 550.473229 
L 838.184953 549.022777 
L 838.622257 548.787323 
L 839.496865 541.671588 
L 839.934169 543.403711 
L 840.371473 543.081866 
L 840.808777 536.479912 
L 841.246082 536.248251 
L 842.12069 529.110276 
L 842.557994 524.238388 
L 842.995298 526.314145 
L 843.432602 529.146851 
L 843.869906 528.500591 
L 844.30721 525.961318 
L 844.744514 525.124472 
L 845.181818 516.178717 
L 845.619122 518.753343 
L 846.056426 517.416214 
L 846.931034 511.747589 
L 847.368339 506.663388 
L 847.805643 506.309726 
L 848.242947 503.176067 
L 848.680251 504.648695 
L 849.117555 499.904658 
L 849.554859 499.14681 
L 849.992163 495.479765 
L 850.866771 492.648795 
L 851.304075 487.747274 
L 851.741379 485.750772 
L 852.178683 481.711681 
L 852.615987 481.951377 
L 853.053292 478.777929 
L 853.490596 479.410305 
L 853.9279 476.579528 
L 854.365204 476.062404 
L 854.802508 472.142679 
L 855.239812 470.844503 
L 855.677116 464.280859 
L 856.11442 462.363678 
L 856.551724 457.105345 
L 856.989028 453.871089 
L 857.426332 444.818182 
L 857.863636 442.749045 
L 858.30094 437.502154 
L 858.738245 430.718869 
L 859.175549 429.095121 
L 859.612853 431.03075 
L 860.050157 428.615665 
L 860.487461 424.128743 
L 860.924765 422.115464 
L 861.362069 422.36898 
L 862.236677 417.312033 
L 862.673981 417.848119 
L 863.111285 415.972333 
L 863.548589 415.485549 
L 863.985893 416.080643 
L 864.423197 415.599515 
L 864.860502 423.690039 
L 865.297806 427.90037 
L 865.73511 428.903827 
L 866.172414 433.23378 
L 866.609718 432.874461 
L 867.047022 426.866187 
L 867.484326 426.756913 
L 867.92163 420.676389 
L 868.358934 421.504815 
L 869.233542 405.011822 
L 869.670846 405.470644 
L 870.10815 408.366343 
L 870.545455 409.34216 
L 870.982759 413.311445 
L 871.420063 411.666291 
L 871.857367 417.500049 
L 872.294671 418.754451 
L 872.731975 420.832072 
L 873.169279 421.633758 
L 873.606583 421.598212 
L 874.043887 419.395375 
L 874.481191 422.176079 
L 874.918495 422.180064 
L 875.355799 423.704438 
L 876.230408 431.136939 
L 876.667712 439.594624 
L 877.105016 439.24154 
L 877.54232 440.171077 
L 877.979624 444.572701 
L 878.416928 443.943539 
L 878.854232 442.005146 
L 879.291536 444.602205 
L 879.72884 442.502664 
L 880.166144 443.469483 
L 880.603448 444.15116 
L 881.040752 446.391986 
L 881.478056 442.450406 
L 881.915361 442.111335 
L 882.352665 446.061657 
L 882.789969 441.474652 
L 883.227273 446.132749 
L 883.664577 444.869991 
L 884.101881 445.166059 
L 884.539185 443.026858 
L 884.976489 445.121321 
L 885.413793 453.852641 
L 885.851097 452.897907 
L 886.288401 449.450374 
L 886.725705 453.186969 
L 887.163009 449.569933 
L 888.037618 456.273898 
L 888.474922 462.226699 
L 888.912226 464.81161 
L 889.34953 474.237077 
L 889.786834 474.750408 
L 890.224138 476.563072 
L 890.661442 473.140673 
L 891.098746 474.922547 
L 891.53605 475.870789 
L 891.973354 475.143152 
L 892.847962 478.862392 
L 893.285266 482.780317 
L 893.722571 478.790914 
L 894.159875 479.070398 
L 894.597179 483.09297 
L 895.034483 485.564942 
L 895.471787 484.047254 
L 895.909091 486.763872 
L 896.346395 485.481251 
L 897.221003 479.659964 
L 897.658307 481.959155 
L 898.095611 483.410507 
L 898.532915 483.815914 
L 898.970219 487.72092 
L 899.844828 491.501996 
L 900.282132 487.090087 
L 902.031348 477.08566 
L 902.468652 476.955045 
L 902.905956 477.24475 
L 903.34326 476.068639 
L 903.780564 473.717254 
L 904.217868 473.66101 
L 904.655172 466.976715 
L 906.404389 461.715104 
L 906.841693 458.616091 
L 907.278997 457.289697 
L 908.153605 452.335853 
L 908.590909 454.755117 
L 909.028213 453.451027 
L 909.465517 452.881388 
L 909.902821 451.754772 
L 910.777429 450.292749 
L 911.214734 448.745685 
L 911.652038 446.462564 
L 912.526646 440.133859 
L 912.96395 439.926817 
L 913.401254 440.566328 
L 913.838558 446.083254 
L 914.713166 449.672844 
L 915.15047 451.297363 
L 915.587774 452.015294 
L 916.025078 446.990422 
L 916.462382 445.312165 
L 916.899687 444.606705 
L 917.336991 444.163116 
L 917.774295 445.312165 
L 918.211599 436.847474 
L 918.648903 448.316945 
L 919.086207 454.876796 
L 919.523511 458.70351 
L 919.960815 457.498796 
L 920.398119 455.569465 
L 920.835423 455.252892 
L 921.272727 458.049858 
L 921.710031 455.59762 
L 922.147335 455.128705 
L 922.584639 454.980671 
L 923.021944 457.249458 
L 923.459248 454.918835 
L 923.896552 453.722926 
L 924.333856 453.69008 
L 925.208464 448.520516 
L 926.083072 432.879732 
L 926.95768 443.235122 
L 927.394984 445.739941 
L 927.832288 443.164994 
L 928.269592 452.721076 
L 928.706897 450.221014 
L 929.144201 449.463873 
L 929.581505 442.987584 
L 930.456113 455.236372 
L 930.893417 450.608487 
L 931.330721 448.794473 
L 931.768025 450.852875 
L 932.205329 454.554566 
L 932.642633 453.212552 
L 933.079937 444.321242 
L 933.517241 441.7668 
L 933.954545 436.465079 
L 933.954545 436.465079 
" style="fill:none;stroke:#ff0000;stroke-linecap:square;stroke-width:1.5;"/>
   </g>
   <g id="line2d_36">
    <path clip-path="url(#pec4a53093d)" d="M 173.045455 547.528036 
L 174.357367 559.96169 
L 174.794671 562.29392 
L 175.231975 562.834634 
L 175.669279 562.711797 
L 176.106583 563.86091 
L 176.543887 564.258411 
L 176.981191 563.528332 
L 177.418495 563.388718 
L 177.855799 563.483594 
L 178.293103 564.427722 
L 178.730408 564.591633 
L 179.167712 564.514048 
L 179.605016 563.995896 
L 180.04232 562.87513 
L 180.479624 562.430706 
L 180.916928 562.877315 
L 181.791536 564.416666 
L 182.22884 564.439935 
L 182.666144 565.007453 
L 183.103448 566.856177 
L 183.978056 572.560252 
L 184.415361 573.74144 
L 184.852665 574.162885 
L 185.289969 573.278375 
L 186.164577 570.045823 
L 186.601881 569.556725 
L 187.039185 568.579879 
L 187.476489 566.748574 
L 189.663009 561.755713 
L 190.100313 561.543657 
L 190.537618 561.17264 
L 191.84953 557.737834 
L 192.286834 557.286661 
L 192.724138 556.464855 
L 193.161442 554.373799 
L 194.03605 546.180622 
L 194.910658 536.099382 
L 195.347962 533.193077 
L 195.785266 532.771664 
L 196.222571 532.861076 
L 196.659875 533.835737 
L 197.097179 535.566445 
L 197.971787 542.829443 
L 198.409091 545.032409 
L 198.846395 545.012739 
L 199.721003 543.026715 
L 200.158307 541.337788 
L 200.595611 539.077871 
L 201.032915 535.606813 
L 202.344828 521.744368 
L 202.782132 516.265751 
L 203.219436 508.717612 
L 204.094044 487.327854 
L 207.155172 406.903163 
L 208.029781 383.172433 
L 208.467085 375.825616 
L 208.904389 371.517775 
L 209.778997 366.648586 
L 211.090909 354.671762 
L 211.528213 352.373664 
L 212.840125 341.988577 
L 213.277429 340.115298 
L 213.714734 336.988838 
L 215.026646 322.045222 
L 215.901254 310.588671 
L 217.213166 295.81533 
L 218.525078 277.502666 
L 219.836991 268.605185 
L 220.274295 267.670185 
L 221.148903 268.34402 
L 221.586207 268.379566 
L 222.023511 270.652853 
L 222.460815 276.249743 
L 223.335423 292.753792 
L 224.210031 305.223957 
L 225.084639 323.038138 
L 225.521944 329.626658 
L 225.959248 334.452265 
L 226.396552 336.905725 
L 227.27116 343.405347 
L 227.708464 344.860492 
L 228.145768 344.542505 
L 229.020376 338.425599 
L 229.45768 335.559147 
L 229.894984 335.468643 
L 230.332288 337.49272 
L 231.206897 345.262621 
L 232.081505 355.063156 
L 232.956113 369.484505 
L 233.830721 387.362258 
L 234.705329 403.057615 
L 236.89185 443.814082 
L 237.766458 451.425793 
L 238.203762 454.923849 
L 238.641066 456.721214 
L 239.515674 457.099367 
L 240.390282 454.615439 
L 240.827586 453.21988 
L 241.702194 448.459387 
L 242.139498 445.303423 
L 243.014107 435.561061 
L 244.763323 413.661636 
L 245.637931 406.186389 
L 246.075235 403.839311 
L 246.512539 402.755312 
L 246.949843 403.099654 
L 247.387147 402.38648 
L 247.824451 400.942262 
L 248.261755 400.683154 
L 248.69906 399.168101 
L 250.010972 384.812573 
L 250.448276 382.37409 
L 251.322884 373.615708 
L 252.634796 359.761877 
L 253.0721 358.349734 
L 253.509404 358.056301 
L 254.821317 354.942376 
L 255.695925 351.722583 
L 256.133229 349.327167 
L 257.007837 340.684423 
L 257.882445 330.505221 
L 258.319749 327.411479 
L 258.757053 325.775582 
L 259.194357 324.65443 
L 259.631661 325.178174 
L 260.068966 326.192173 
L 260.943574 327.505069 
L 261.380878 326.953299 
L 262.255486 323.84998 
L 262.69279 325.139993 
L 263.567398 330.830986 
L 264.004702 333.785372 
L 265.753918 351.123311 
L 267.065831 369.019833 
L 267.503135 370.725216 
L 267.940439 370.451967 
L 268.815047 368.963525 
L 269.689655 371.037611 
L 270.126959 371.498877 
L 271.001567 366.929099 
L 271.438871 365.45827 
L 271.876176 363.157729 
L 272.750784 356.882119 
L 273.625392 354.425445 
L 274.062696 351.034285 
L 274.5 346.257722 
L 274.937304 342.889831 
L 275.374608 342.968765 
L 276.249216 348.187824 
L 276.68652 352.306556 
L 277.561129 368.194557 
L 277.998433 373.204966 
L 278.435737 375.932704 
L 278.873041 376.658991 
L 279.310345 379.510016 
L 279.747649 381.112681 
L 280.184953 380.606035 
L 281.496865 373.736167 
L 282.371473 367.965274 
L 282.808777 365.992492 
L 283.246082 364.930155 
L 283.683386 364.589862 
L 284.12069 366.677961 
L 284.557994 370.543757 
L 286.744514 396.931196 
L 287.181818 400.542255 
L 287.619122 402.196214 
L 288.931034 405.304226 
L 289.368339 408.455819 
L 291.117555 430.056283 
L 291.554859 433.812868 
L 291.992163 436.000278 
L 292.429467 435.897239 
L 292.866771 434.368238 
L 293.304075 434.50528 
L 294.178683 436.232711 
L 294.615987 437.272357 
L 295.053292 439.484257 
L 297.239812 453.690916 
L 297.677116 455.282975 
L 298.11442 456.421932 
L 298.551724 457.201956 
L 298.989028 457.333149 
L 299.426332 456.985529 
L 299.863636 457.199963 
L 301.175549 457.166345 
L 301.612853 458.596486 
L 302.050157 461.013757 
L 302.487461 462.4232 
L 302.924765 463.396703 
L 304.236677 469.545877 
L 304.673981 468.942877 
L 305.111285 466.359959 
L 305.548589 462.164734 
L 306.860502 447.19425 
L 307.297806 444.61956 
L 307.73511 443.524184 
L 308.172414 443.029494 
L 308.609718 442.956859 
L 309.047022 442.091408 
L 309.484326 439.744137 
L 309.92163 436.384987 
L 312.545455 407.292693 
L 312.982759 406.089328 
L 313.420063 406.839527 
L 313.857367 409.511342 
L 315.169279 419.374163 
L 316.043887 426.598851 
L 316.918495 434.170066 
L 317.793103 439.59321 
L 318.230408 441.320769 
L 318.667712 442.526383 
L 319.105016 444.20194 
L 319.54232 444.816511 
L 319.979624 442.463518 
L 322.603448 415.634162 
L 323.040752 413.809092 
L 323.478056 412.859693 
L 324.352665 412.419833 
L 324.789969 411.83933 
L 325.227273 410.81119 
L 325.664577 409.265283 
L 326.539185 404.650831 
L 326.976489 403.543885 
L 327.851097 401.974902 
L 328.288401 403.453702 
L 328.725705 406.366177 
L 330.037618 411.968981 
L 330.474922 411.029224 
L 331.34953 406.911455 
L 331.786834 405.795702 
L 332.224138 406.596489 
L 332.661442 407.6999 
L 333.098746 406.920004 
L 333.53605 404.042946 
L 333.973354 396.649012 
L 334.410658 386.235064 
L 334.847962 379.887526 
L 335.722571 373.939481 
L 336.159875 372.501755 
L 336.597179 373.006216 
L 337.034483 374.866832 
L 337.909091 383.301955 
L 339.221003 397.130397 
L 340.970219 411.604648 
L 341.407524 414.110945 
L 341.844828 414.929408 
L 342.282132 414.644717 
L 342.719436 413.092318 
L 343.15674 409.051234 
L 344.031348 397.920834 
L 345.780564 386.540067 
L 346.217868 387.900273 
L 347.092476 393.034354 
L 347.967085 395.427778 
L 348.404389 395.89065 
L 348.841693 395.814094 
L 349.278997 395.276723 
L 349.716301 394.545679 
L 350.153605 393.260809 
L 350.590909 390.715109 
L 351.902821 381.492634 
L 352.340125 379.427611 
L 352.777429 379.486169 
L 354.089342 382.803344 
L 355.401254 385.404003 
L 355.838558 385.53931 
L 356.275862 384.918312 
L 356.713166 383.759814 
L 357.15047 382.218663 
L 357.587774 378.361546 
L 358.462382 367.271705 
L 358.899687 363.799168 
L 360.211599 341.992948 
L 360.648903 341.155073 
L 361.086207 342.790648 
L 361.523511 345.752362 
L 361.960815 349.83452 
L 362.835423 360.240111 
L 363.272727 359.088748 
L 364.147335 351.243962 
L 364.584639 349.906962 
L 365.021944 351.324568 
L 365.459248 351.31949 
L 366.333856 345.424154 
L 366.77116 347.120794 
L 367.208464 351.214394 
L 368.520376 368.285962 
L 368.95768 367.384193 
L 369.394984 366.827217 
L 369.832288 372.439919 
L 371.144201 402.459179 
L 371.581505 406.15605 
L 372.456113 394.462052 
L 372.893417 395.437677 
L 373.330721 399.454142 
L 373.768025 399.762809 
L 374.205329 399.478054 
L 374.642633 403.246852 
L 375.079937 410.283139 
L 375.954545 417.063145 
L 376.39185 423.035488 
L 376.829154 432.904994 
L 377.266458 445.303745 
L 377.703762 452.199132 
L 378.141066 453.75198 
L 378.57837 447.20672 
L 379.015674 448.103154 
L 379.452978 458.539663 
L 379.890282 456.557303 
L 380.327586 441.636957 
L 380.76489 438.102454 
L 381.202194 444.600212 
L 381.639498 453.844349 
L 382.076803 458.665971 
L 382.514107 464.902179 
L 382.951411 473.445933 
L 383.826019 496.608309 
L 384.263323 505.267122 
L 384.700627 516.622242 
L 385.575235 542.490694 
L 386.887147 568.214004 
L 387.324451 570.193472 
L 387.761755 566.886388 
L 388.19906 560.668115 
L 389.073668 538.695476 
L 389.510972 534.656064 
L 389.948276 536.83486 
L 390.38558 537.561597 
L 391.260188 535.090653 
L 391.697492 534.843051 
L 392.134796 533.773001 
L 393.009404 526.999294 
L 393.446708 527.054831 
L 393.884013 528.136387 
L 395.633229 536.450087 
L 396.070533 535.907573 
L 396.945141 532.423273 
L 397.382445 532.676403 
L 397.819749 533.748318 
L 398.257053 532.420895 
L 398.694357 529.329788 
L 399.131661 527.845975 
L 399.568966 529.738666 
L 401.318182 544.677911 
L 401.755486 546.442237 
L 402.19279 546.977487 
L 402.630094 546.475598 
L 403.504702 541.43967 
L 404.37931 534.695917 
L 404.816614 534.424274 
L 405.253918 536.624026 
L 405.691223 539.528531 
L 406.128527 543.201939 
L 406.565831 545.633352 
L 407.003135 545.604105 
L 407.877743 549.596273 
L 408.315047 550.217656 
L 408.752351 549.686392 
L 409.189655 548.070421 
L 409.626959 547.804306 
L 410.064263 546.974595 
L 410.501567 543.371764 
L 411.376176 526.817192 
L 412.250784 519.984091 
L 413.562696 507.096499 
L 414 504.337907 
L 414.437304 504.636354 
L 414.874608 505.894227 
L 415.749216 506.089763 
L 416.18652 509.542953 
L 416.623824 514.585373 
L 417.498433 521.47054 
L 418.810345 530.501978 
L 419.247649 530.382612 
L 419.684953 529.99816 
L 420.122257 530.072209 
L 420.559561 531.713891 
L 420.996865 535.354325 
L 422.746082 554.750731 
L 423.183386 557.258185 
L 423.62069 557.888247 
L 424.057994 557.675998 
L 424.495298 555.54541 
L 426.681818 542.325883 
L 427.119122 541.298128 
L 427.556426 540.680022 
L 429.305643 544.303936 
L 430.180251 546.974595 
L 430.617555 547.628954 
L 431.054859 549.864058 
L 432.804075 565.247534 
L 433.241379 567.159702 
L 433.678683 566.843836 
L 434.115987 564.002003 
L 434.553292 558.453194 
L 435.4279 542.407581 
L 436.302508 524.650865 
L 436.739812 518.767549 
L 437.177116 514.50046 
L 437.61442 512.49631 
L 438.051724 512.280461 
L 438.489028 512.533077 
L 438.926332 512.401113 
L 439.363636 512.476062 
L 439.80094 513.123479 
L 440.238245 514.101739 
L 440.675549 514.44698 
L 441.112853 514.196614 
L 441.550157 514.783802 
L 441.987461 513.369667 
L 442.424765 508.633664 
L 443.299373 495.490178 
L 444.173981 481.673371 
L 445.048589 472.0748 
L 445.923197 464.971471 
L 447.23511 455.346482 
L 448.109718 447.411127 
L 448.984326 439.191981 
L 449.858934 433.314964 
L 452.045455 414.020891 
L 452.920063 402.274635 
L 453.357367 398.183735 
L 453.794671 395.850669 
L 454.231975 395.003023 
L 454.669279 393.277714 
L 455.543887 386.523612 
L 456.418495 375.697508 
L 456.855799 372.094999 
L 457.293103 371.416021 
L 457.730408 372.59541 
L 458.167712 375.389419 
L 458.605016 378.934463 
L 459.04232 379.492018 
L 459.479624 377.208576 
L 459.916928 373.30087 
L 461.22884 357.524779 
L 461.666144 355.363724 
L 462.103448 354.236401 
L 462.540752 354.37865 
L 462.978056 354.398384 
L 463.415361 352.011645 
L 463.852665 345.632803 
L 465.601881 310.023017 
L 466.039185 304.51239 
L 466.476489 302.718431 
L 467.351097 303.982346 
L 467.788401 305.876194 
L 469.537618 318.308884 
L 469.974922 319.716077 
L 470.412226 318.339288 
L 471.286834 312.999836 
L 471.724138 311.067613 
L 472.161442 310.448286 
L 472.598746 311.436831 
L 473.473354 314.828698 
L 474.347962 318.402989 
L 474.785266 319.260019 
L 475.222571 319.053877 
L 476.097179 317.751008 
L 476.534483 316.844483 
L 476.971787 316.697992 
L 477.409091 317.58324 
L 477.846395 319.189119 
L 479.158307 326.355313 
L 479.595611 327.17249 
L 480.032915 326.274965 
L 480.470219 324.905053 
L 480.907524 325.184859 
L 481.344828 326.173275 
L 481.782132 326.854053 
L 482.219436 328.827543 
L 483.094044 335.351398 
L 483.531348 339.065624 
L 484.405956 342.60514 
L 484.84326 343.933077 
L 485.280564 343.748789 
L 485.717868 343.05792 
L 487.029781 343.372051 
L 487.467085 343.226009 
L 487.904389 343.293888 
L 488.778997 345.917108 
L 489.653605 350.061874 
L 490.965517 354.367273 
L 491.840125 359.22007 
L 494.46395 375.74996 
L 495.338558 382.583767 
L 496.213166 388.375036 
L 497.962382 406.253047 
L 498.399687 410.88601 
L 499.274295 417.978605 
L 502.772727 453.121919 
L 503.210031 456.232631 
L 503.647335 460.955649 
L 504.959248 481.528036 
L 506.708464 512.757282 
L 507.583072 523.050064 
L 508.45768 532.110878 
L 509.332288 543.576042 
L 509.769592 546.539234 
L 510.206897 548.696111 
L 511.081505 552.088621 
L 511.518809 555.453042 
L 514.142633 581.466057 
L 515.454545 589.739872 
L 516.766458 599.976571 
L 518.07837 608.188711 
L 518.515674 609.009327 
L 518.952978 609.072449 
L 519.390282 608.839856 
L 519.827586 607.886761 
L 520.702194 604.205124 
L 522.014107 597.869703 
L 522.888715 589.778214 
L 523.763323 580.476323 
L 526.824451 545.801055 
L 527.261755 541.112362 
L 528.136364 529.254196 
L 528.573668 525.137199 
L 529.88558 518.300949 
L 531.197492 509.099429 
L 532.509404 491.85373 
L 533.384013 477.821074 
L 534.695925 447.936286 
L 535.570533 429.745752 
L 536.007837 425.266736 
L 536.445141 422.965231 
L 536.882445 422.958096 
L 537.757053 423.430096 
L 538.631661 428.961164 
L 539.068966 427.022963 
L 539.943574 421.057498 
L 540.380878 417.955529 
L 540.818182 415.751471 
L 542.130094 405.040747 
L 543.004702 401.142298 
L 543.442006 399.587778 
L 543.87931 397.254776 
L 544.316614 395.763249 
L 544.753918 395.934296 
L 545.191223 398.330162 
L 545.628527 402.272063 
L 546.503135 416.211 
L 546.940439 424.980309 
L 547.377743 430.690458 
L 548.689655 433.608654 
L 549.126959 433.971444 
L 549.564263 434.181508 
L 550.001567 434.192885 
L 550.438871 431.830444 
L 550.876176 431.371171 
L 551.31348 435.230282 
L 551.750784 440.096063 
L 552.188088 443.654349 
L 552.625392 445.860207 
L 553.062696 446.655401 
L 553.5 446.810955 
L 553.937304 449.16549 
L 555.68652 470.089998 
L 557.435737 489.066726 
L 557.873041 491.169095 
L 559.184953 494.094362 
L 562.246082 516.087249 
L 563.12069 522.950753 
L 563.557994 525.372974 
L 563.995298 526.886227 
L 564.432602 529.399145 
L 565.30721 536.657772 
L 566.181818 541.68875 
L 567.49373 554.445406 
L 568.805643 570.038238 
L 569.242947 576.465739 
L 570.554859 602.497556 
L 571.429467 610.981595 
L 571.866771 614.05885 
L 572.304075 613.826482 
L 573.178683 610.688741 
L 574.053292 603.458043 
L 574.9279 595.287235 
L 575.365204 592.09611 
L 575.802508 590.608633 
L 576.239812 590.828917 
L 577.11442 592.942985 
L 578.426332 598.656026 
L 579.30094 605.255312 
L 579.738245 608.294771 
L 580.175549 610.180616 
L 580.612853 611.15968 
L 581.050157 610.665086 
L 581.487461 608.854479 
L 582.362069 602.265542 
L 583.673981 590.900202 
L 584.548589 585.046454 
L 585.423197 579.841087 
L 585.860502 576.421323 
L 586.297806 574.258146 
L 587.172414 571.676385 
L 587.609718 570.711495 
L 588.047022 569.465964 
L 588.484326 567.806219 
L 589.358934 563.553465 
L 589.796238 560.451881 
L 590.670846 550.90859 
L 591.545455 537.285969 
L 591.982759 527.644075 
L 595.481191 432.76628 
L 596.355799 413.54047 
L 597.230408 395.133509 
L 598.105016 374.803132 
L 598.979624 360.645133 
L 599.854232 345.645594 
L 600.291536 340.151037 
L 600.72884 336.102111 
L 601.166144 330.956395 
L 602.040752 312.209463 
L 603.352665 276.780236 
L 604.227273 253.105236 
L 605.101881 235.471036 
L 605.539185 229.070146 
L 606.413793 221.541098 
L 607.288401 209.749847 
L 607.725705 206.607253 
L 609.037618 190.476406 
L 609.474922 186.918442 
L 609.912226 181.967106 
L 610.34953 179.146356 
L 611.224138 176.580472 
L 611.661442 178.245809 
L 612.098746 184.089722 
L 612.973354 199.668606 
L 613.410658 205.511619 
L 613.847962 212.89199 
L 614.722571 236.227855 
L 615.159875 241.529062 
L 615.597179 242.642308 
L 616.034483 237.8894 
L 619.095611 143.37208 
L 619.532915 137.660389 
L 619.970219 139.578663 
L 620.407524 146.128294 
L 620.844828 150.828943 
L 621.282132 150.529275 
L 621.719436 140.05002 
L 622.15674 124.941208 
L 622.594044 116.589776 
L 623.031348 113.294584 
L 623.905956 111.6 
L 624.34326 111.81842 
L 625.217868 114.414579 
L 626.529781 120.396113 
L 626.967085 121.923251 
L 627.404389 123.921681 
L 627.841693 126.47323 
L 628.278997 128.178356 
L 629.153605 128.042535 
L 629.590909 129.419324 
L 630.028213 132.122571 
L 630.902821 135.29197 
L 631.340125 141.979736 
L 633.089342 182.413651 
L 633.96395 195.087065 
L 635.275862 208.724341 
L 635.713166 212.937693 
L 636.587774 224.2079 
L 637.025078 227.37042 
L 637.462382 229.224158 
L 637.899687 229.892208 
L 638.336991 227.707241 
L 639.211599 217.584605 
L 641.398119 183.34383 
L 643.584639 140.69583 
L 644.021944 136.45741 
L 644.459248 133.697082 
L 646.208464 115.451011 
L 646.645768 113.536915 
L 647.083072 114.917625 
L 647.520376 118.729812 
L 647.95768 125.534566 
L 648.394984 136.408815 
L 649.269592 166.674199 
L 650.144201 198.711751 
L 651.018809 221.673512 
L 651.893417 235.790823 
L 653.205329 258.390309 
L 653.642633 262.399446 
L 654.079937 267.908467 
L 654.517241 275.12242 
L 654.954545 279.031282 
L 655.39185 278.475141 
L 657.141066 266.608427 
L 657.57837 264.810804 
L 658.015674 266.0483 
L 658.452978 265.704216 
L 658.890282 264.214039 
L 659.327586 264.825074 
L 659.76489 267.850359 
L 660.639498 275.291023 
L 661.076803 278.519429 
L 661.514107 282.705398 
L 663.700627 315.834212 
L 664.137931 320.14906 
L 664.575235 322.080961 
L 665.012539 321.527584 
L 665.449843 321.181121 
L 666.324451 324.756312 
L 667.19906 331.341104 
L 667.636364 332.508536 
L 668.073668 332.366737 
L 668.510972 334.328014 
L 669.38558 341.761479 
L 670.260188 348.827398 
L 671.134796 357.265028 
L 672.884013 376.815575 
L 673.321317 379.700475 
L 675.945141 402.81207 
L 676.382445 405.742865 
L 676.819749 407.445934 
L 677.257053 407.610873 
L 677.694357 404.941308 
L 679.443574 385.666389 
L 680.318182 375.908021 
L 681.19279 371.958342 
L 681.630094 370.889449 
L 682.067398 372.308662 
L 682.942006 375.654377 
L 684.253918 380.58868 
L 684.691223 379.7276 
L 685.565831 375.468482 
L 686.440439 372.526374 
L 687.315047 369.619234 
L 687.752351 369.254901 
L 688.189655 368.740413 
L 688.626959 367.963282 
L 689.064263 366.685739 
L 689.501567 365.785899 
L 689.938871 365.890802 
L 690.376176 366.292738 
L 690.81348 366.467512 
L 691.250784 367.096096 
L 691.688088 368.472756 
L 693.437304 377.771659 
L 693.874608 379.644423 
L 694.311912 381.002636 
L 696.061129 390.369095 
L 696.498433 394.660481 
L 697.373041 405.488642 
L 697.810345 408.167657 
L 698.247649 408.833907 
L 698.684953 407.460525 
L 699.996865 400.542448 
L 700.434169 401.09666 
L 700.871473 402.814256 
L 701.746082 404.104782 
L 702.183386 404.019742 
L 702.62069 403.506603 
L 703.057994 402.126472 
L 703.932602 398.405239 
L 704.369906 400.731492 
L 705.244514 413.615612 
L 705.681818 416.385839 
L 706.119122 415.660516 
L 706.99373 413.3979 
L 707.431034 413.452858 
L 707.868339 414.156005 
L 708.305643 415.165312 
L 709.180251 421.756852 
L 710.054859 428.603837 
L 710.492163 429.046333 
L 711.366771 424.137485 
L 712.241379 421.92552 
L 712.678683 422.738262 
L 713.115987 421.092016 
L 713.553292 417.330931 
L 713.990596 414.736057 
L 714.4279 413.590865 
L 714.865204 413.525558 
L 715.302508 415.413878 
L 715.739812 418.335545 
L 716.177116 419.64362 
L 716.61442 419.607174 
L 717.051724 418.100799 
L 717.489028 416.057438 
L 717.926332 414.785488 
L 718.363636 415.191537 
L 718.80094 417.374576 
L 719.238245 421.06759 
L 719.675549 421.876733 
L 720.550157 417.429149 
L 720.987461 415.925281 
L 721.862069 408.269282 
L 722.736677 403.372196 
L 723.173981 399.162316 
L 724.048589 394.101126 
L 724.485893 389.189771 
L 724.923197 385.970685 
L 725.360502 385.67256 
L 726.23511 389.269798 
L 726.672414 390.870599 
L 727.547022 398.061476 
L 728.42163 406.76927 
L 728.858934 407.050169 
L 729.296238 406.035848 
L 729.733542 408.494129 
L 730.170846 412.427417 
L 730.60815 414.493662 
L 731.045455 412.720658 
L 731.482759 412.374452 
L 731.920063 413.715373 
L 732.357367 417.6862 
L 732.794671 419.767871 
L 733.231975 421.25387 
L 733.669279 421.75531 
L 734.106583 420.794212 
L 734.981191 418.016658 
L 735.855799 413.012162 
L 736.293103 412.98523 
L 736.730408 415.007443 
L 737.167712 419.831186 
L 738.04232 431.944603 
L 738.479624 431.495037 
L 738.916928 427.59106 
L 739.354232 426.00665 
L 739.791536 426.69122 
L 740.22884 424.159468 
L 740.666144 417.738652 
L 741.103448 413.303603 
L 741.540752 410.583192 
L 741.978056 406.789839 
L 742.415361 404.666066 
L 742.852665 406.905477 
L 743.289969 407.646612 
L 743.727273 406.088814 
L 744.601881 399.806712 
L 745.039185 396.417351 
L 745.913793 388.081668 
L 746.351097 387.287052 
L 747.225705 398.519463 
L 747.663009 399.788392 
L 748.100313 399.880054 
L 748.537618 405.448211 
L 748.974922 414.158383 
L 749.412226 419.337717 
L 749.84953 418.276537 
L 750.724138 403.562205 
L 751.161442 399.180571 
L 752.03605 384.929368 
L 752.473354 381.936608 
L 752.910658 375.116877 
L 753.785266 354.056484 
L 754.222571 349.007829 
L 754.659875 348.51841 
L 755.097179 351.332346 
L 756.409091 370.423298 
L 757.721003 386.525605 
L 758.158307 386.325633 
L 758.595611 385.750916 
L 759.032915 384.300913 
L 759.470219 384.872159 
L 759.907524 389.860071 
L 760.344828 392.089648 
L 760.782132 392.708525 
L 761.219436 392.623227 
L 761.65674 393.162141 
L 762.094044 391.495647 
L 762.968652 379.758518 
L 763.84326 376.869312 
L 764.280564 372.835299 
L 765.155172 360.666859 
L 765.592476 353.841729 
L 766.029781 353.164294 
L 766.467085 357.998836 
L 766.904389 364.360451 
L 767.778997 369.382688 
L 768.216301 374.999504 
L 768.653605 378.084182 
L 769.528213 375.643578 
L 770.402821 382.021777 
L 770.840125 383.042011 
L 771.277429 385.726811 
L 771.714734 390.647037 
L 772.152038 393.984782 
L 772.589342 395.34563 
L 773.026646 397.464968 
L 773.46395 397.228229 
L 773.901254 395.429449 
L 774.338558 394.937073 
L 774.775862 396.379555 
L 776.087774 404.213157 
L 776.525078 404.63399 
L 777.399687 400.410355 
L 777.836991 400.794356 
L 778.274295 402.155654 
L 778.711599 401.917887 
L 779.148903 403.636639 
L 780.023511 413.010298 
L 780.898119 418.550751 
L 781.335423 421.744768 
L 781.772727 424.048394 
L 782.210031 424.631018 
L 782.647335 423.843087 
L 783.084639 421.337754 
L 783.959248 408.324176 
L 784.396552 405.641176 
L 785.27116 411.671948 
L 786.145768 419.57677 
L 786.583072 422.391285 
L 787.020376 423.105359 
L 787.45768 421.56318 
L 787.894984 422.292553 
L 788.769592 429.409059 
L 791.830721 447.046602 
L 792.268025 446.945877 
L 792.705329 444.979072 
L 793.142633 444.703187 
L 793.579937 447.462743 
L 794.017241 451.017815 
L 794.454545 452.737531 
L 794.89185 456.084532 
L 795.766458 464.494136 
L 796.203762 466.909865 
L 796.641066 468.599563 
L 797.07837 471.178882 
L 797.952978 480.145655 
L 799.26489 496.211323 
L 799.702194 498.11012 
L 800.139498 496.130653 
L 801.014107 488.991842 
L 801.451411 486.181762 
L 802.326019 482.319181 
L 802.763323 481.713481 
L 803.200627 482.803651 
L 803.637931 484.508648 
L 804.075235 485.675823 
L 804.512539 488.15808 
L 806.261755 504.587823 
L 807.136364 515.045674 
L 807.573668 518.216936 
L 808.010972 520.371307 
L 809.322884 532.985842 
L 809.760188 533.812339 
L 810.634796 540.069116 
L 811.0721 541.534738 
L 811.509404 542.328647 
L 811.946708 542.570464 
L 812.384013 542.56635 
L 812.821317 541.776105 
L 813.258621 541.272609 
L 813.695925 541.913534 
L 814.570533 545.376043 
L 815.007837 546.162367 
L 815.445141 545.886482 
L 816.319749 546.428031 
L 817.194357 547.619633 
L 817.631661 547.692204 
L 818.068966 546.831317 
L 818.50627 543.686988 
L 819.818182 528.467102 
L 820.255486 526.410178 
L 820.69279 527.691706 
L 822.004702 537.561019 
L 823.316614 551.987575 
L 823.753918 553.692508 
L 824.191223 554.673146 
L 824.628527 555.317863 
L 825.065831 555.568229 
L 825.940439 554.215224 
L 826.377743 553.348294 
L 826.815047 553.694179 
L 827.252351 554.919848 
L 827.689655 556.757967 
L 828.564263 561.990395 
L 829.876176 570.775388 
L 830.31348 571.993794 
L 830.750784 570.64336 
L 831.188088 568.517272 
L 831.625392 567.009675 
L 832.062696 566.417924 
L 832.5 566.376593 
L 833.374608 567.536119 
L 833.811912 568.443222 
L 834.249216 570.513002 
L 834.68652 573.418921 
L 835.123824 575.279794 
L 835.561129 575.137288 
L 836.435737 570.711688 
L 836.873041 567.502887 
L 837.747649 558.562918 
L 838.184953 555.801112 
L 838.622257 553.811488 
L 839.059561 553.061611 
L 839.934169 550.819242 
L 840.371473 549.01532 
L 841.246082 541.114483 
L 841.683386 539.011214 
L 842.995298 530.881287 
L 843.432602 528.686485 
L 844.30721 523.231138 
L 844.744514 522.403419 
L 845.181818 520.759615 
L 846.49373 512.584822 
L 847.368339 505.339565 
L 847.805643 504.612635 
L 848.242947 505.397866 
L 848.680251 505.807836 
L 849.117555 505.78431 
L 849.554859 504.186402 
L 849.992163 501.243715 
L 850.866771 498.392497 
L 851.304075 496.366235 
L 853.053292 485.288157 
L 853.490596 483.717439 
L 855.677116 472.250089 
L 856.989028 463.064317 
L 857.863636 459.489577 
L 858.738245 457.71818 
L 859.175549 456.695181 
L 859.612853 455.130634 
L 860.050157 452.651398 
L 860.924765 444.981193 
L 861.362069 440.410066 
L 862.673981 421.617624 
L 863.548589 407.746116 
L 863.985893 403.334207 
L 865.297806 396.42905 
L 865.73511 395.07058 
L 866.172414 394.69442 
L 866.609718 394.129024 
L 867.047022 394.090649 
L 867.92163 395.377512 
L 868.358934 396.683851 
L 868.796238 398.462705 
L 869.233542 402.095425 
L 870.545455 423.605448 
L 870.982759 430.75403 
L 871.420063 435.013148 
L 871.857367 436.464243 
L 872.294671 436.07722 
L 872.731975 433.843144 
L 873.169279 430.154951 
L 874.481191 407.709927 
L 874.918495 404.10189 
L 875.355799 402.874935 
L 875.793103 403.233804 
L 876.230408 404.743264 
L 878.416928 422.577951 
L 878.854232 424.179394 
L 880.166144 430.73751 
L 880.603448 434.580872 
L 882.352665 456.937384 
L 882.789969 460.950635 
L 883.227273 462.646505 
L 883.664577 463.138881 
L 884.101881 462.958707 
L 885.851097 457.673956 
L 886.288401 454.678496 
L 887.163009 451.222864 
L 887.600313 449.562605 
L 888.037618 449.189402 
L 888.474922 448.404814 
L 889.34953 446.081969 
L 889.786834 447.611999 
L 890.224138 451.440191 
L 890.661442 453.216216 
L 891.53605 455.264398 
L 891.973354 455.54459 
L 892.410658 457.295675 
L 892.847962 460.908725 
L 893.285266 465.810953 
L 895.034483 490.026474 
L 895.909091 493.268122 
L 896.346395 493.733501 
L 896.783699 493.564962 
L 897.221003 493.547928 
L 897.658307 494.116024 
L 898.095611 494.234747 
L 898.532915 492.511688 
L 898.970219 491.597578 
L 899.844828 492.587023 
L 900.282132 492.761154 
L 900.719436 493.07972 
L 901.15674 491.879441 
L 902.031348 486.396068 
L 902.468652 485.1578 
L 902.905956 484.535195 
L 903.34326 484.945101 
L 903.780564 486.920069 
L 904.217868 489.517064 
L 904.655172 490.997021 
L 905.092476 490.210762 
L 905.529781 488.21471 
L 906.404389 481.586273 
L 907.278997 474.639977 
L 908.590909 466.844365 
L 909.028213 463.686151 
L 909.902821 455.697766 
L 910.777429 449.896148 
L 912.96395 438.430277 
L 913.401254 438.251967 
L 913.838558 438.341443 
L 914.713166 438.955885 
L 915.587774 439.9515 
L 916.025078 439.67703 
L 916.462382 438.393381 
L 917.336991 433.579343 
L 917.774295 431.977964 
L 918.211599 432.49483 
L 919.086207 438.828163 
L 919.960815 446.774574 
L 920.398119 449.148585 
L 920.835423 449.182974 
L 921.272727 448.400379 
L 922.147335 446.393014 
L 923.021944 442.298643 
L 923.459248 445.665699 
L 924.333856 456.203384 
L 924.77116 459.24731 
L 925.645768 462.102255 
L 926.083072 463.084886 
L 926.520376 462.659232 
L 926.95768 461.826628 
L 927.832288 461.096998 
L 928.269592 459.677142 
L 928.706897 457.866085 
L 929.144201 455.491431 
L 929.581505 452.211087 
L 930.018809 447.420641 
L 930.893417 432.088588 
L 931.330721 429.181512 
L 931.768025 429.476359 
L 932.205329 430.400689 
L 932.642633 432.872276 
L 933.079937 437.662016 
L 933.517241 441.075609 
L 933.954545 442.01903 
L 933.954545 442.01903 
" style="fill:none;stroke:#0000ff;stroke-linecap:square;stroke-width:1.5;"/>
   </g>
   <g id="patch_3">
    <path d="M 135 640.8 
L 135 86.4 
" style="fill:none;stroke:#000000;stroke-linecap:square;stroke-linejoin:miter;stroke-width:0.8;"/>
   </g>
   <g id="patch_4">
    <path d="M 972 640.8 
L 972 86.4 
" style="fill:none;stroke:#000000;stroke-linecap:square;stroke-linejoin:miter;stroke-width:0.8;"/>
   </g>
   <g id="patch_5">
    <path d="M 135 640.8 
L 972 640.8 
" style="fill:none;stroke:#000000;stroke-linecap:square;stroke-linejoin:miter;stroke-width:0.8;"/>
   </g>
   <g id="patch_6">
    <path d="M 135 86.4 
L 972 86.4 
" style="fill:none;stroke:#000000;stroke-linecap:square;stroke-linejoin:miter;stroke-width:0.8;"/>
   </g>
   <g id="text_18">
    <!-- Evaluation Preds N:10 -->
    <defs>
     <path d="M 9.8125 72.90625 
L 55.90625 72.90625 
L 55.90625 64.59375 
L 19.671875 64.59375 
L 19.671875 43.015625 
L 54.390625 43.015625 
L 54.390625 34.71875 
L 19.671875 34.71875 
L 19.671875 8.296875 
L 56.78125 8.296875 
L 56.78125 0 
L 9.8125 0 
z
" id="DejaVuSans-69"/>
     <path d="M 2.984375 54.6875 
L 12.5 54.6875 
L 29.59375 8.796875 
L 46.6875 54.6875 
L 56.203125 54.6875 
L 35.6875 0 
L 23.484375 0 
z
" id="DejaVuSans-118"/>
     <path d="M 34.28125 27.484375 
Q 23.390625 27.484375 19.1875 25 
Q 14.984375 22.515625 14.984375 16.5 
Q 14.984375 11.71875 18.140625 8.90625 
Q 21.296875 6.109375 26.703125 6.109375 
Q 34.1875 6.109375 38.703125 11.40625 
Q 43.21875 16.703125 43.21875 25.484375 
L 43.21875 27.484375 
z
M 52.203125 31.203125 
L 52.203125 0 
L 43.21875 0 
L 43.21875 8.296875 
Q 40.140625 3.328125 35.546875 0.953125 
Q 30.953125 -1.421875 24.3125 -1.421875 
Q 15.921875 -1.421875 10.953125 3.296875 
Q 6 8.015625 6 15.921875 
Q 6 25.140625 12.171875 29.828125 
Q 18.359375 34.515625 30.609375 34.515625 
L 43.21875 34.515625 
L 43.21875 35.40625 
Q 43.21875 41.609375 39.140625 45 
Q 35.0625 48.390625 27.6875 48.390625 
Q 23 48.390625 18.546875 47.265625 
Q 14.109375 46.140625 10.015625 43.890625 
L 10.015625 52.203125 
Q 14.9375 54.109375 19.578125 55.046875 
Q 24.21875 56 28.609375 56 
Q 40.484375 56 46.34375 49.84375 
Q 52.203125 43.703125 52.203125 31.203125 
z
" id="DejaVuSans-97"/>
     <path d="M 9.421875 75.984375 
L 18.40625 75.984375 
L 18.40625 0 
L 9.421875 0 
z
" id="DejaVuSans-108"/>
     <path d="M 8.5 21.578125 
L 8.5 54.6875 
L 17.484375 54.6875 
L 17.484375 21.921875 
Q 17.484375 14.15625 20.5 10.265625 
Q 23.53125 6.390625 29.59375 6.390625 
Q 36.859375 6.390625 41.078125 11.03125 
Q 45.3125 15.671875 45.3125 23.6875 
L 45.3125 54.6875 
L 54.296875 54.6875 
L 54.296875 0 
L 45.3125 0 
L 45.3125 8.40625 
Q 42.046875 3.421875 37.71875 1 
Q 33.40625 -1.421875 27.6875 -1.421875 
Q 18.265625 -1.421875 13.375 4.4375 
Q 8.5 10.296875 8.5 21.578125 
z
M 31.109375 56 
z
" id="DejaVuSans-117"/>
     <path d="M 18.3125 70.21875 
L 18.3125 54.6875 
L 36.8125 54.6875 
L 36.8125 47.703125 
L 18.3125 47.703125 
L 18.3125 18.015625 
Q 18.3125 11.328125 20.140625 9.421875 
Q 21.96875 7.515625 27.59375 7.515625 
L 36.8125 7.515625 
L 36.8125 0 
L 27.59375 0 
Q 17.1875 0 13.234375 3.875 
Q 9.28125 7.765625 9.28125 18.015625 
L 9.28125 47.703125 
L 2.6875 47.703125 
L 2.6875 54.6875 
L 9.28125 54.6875 
L 9.28125 70.21875 
z
" id="DejaVuSans-116"/>
     <path d="M 9.421875 54.6875 
L 18.40625 54.6875 
L 18.40625 0 
L 9.421875 0 
z
M 9.421875 75.984375 
L 18.40625 75.984375 
L 18.40625 64.59375 
L 9.421875 64.59375 
z
" id="DejaVuSans-105"/>
     <path d="M 30.609375 48.390625 
Q 23.390625 48.390625 19.1875 42.75 
Q 14.984375 37.109375 14.984375 27.296875 
Q 14.984375 17.484375 19.15625 11.84375 
Q 23.34375 6.203125 30.609375 6.203125 
Q 37.796875 6.203125 41.984375 11.859375 
Q 46.1875 17.53125 46.1875 27.296875 
Q 46.1875 37.015625 41.984375 42.703125 
Q 37.796875 48.390625 30.609375 48.390625 
z
M 30.609375 56 
Q 42.328125 56 49.015625 48.375 
Q 55.71875 40.765625 55.71875 27.296875 
Q 55.71875 13.875 49.015625 6.21875 
Q 42.328125 -1.421875 30.609375 -1.421875 
Q 18.84375 -1.421875 12.171875 6.21875 
Q 5.515625 13.875 5.515625 27.296875 
Q 5.515625 40.765625 12.171875 48.375 
Q 18.84375 56 30.609375 56 
z
" id="DejaVuSans-111"/>
     <path d="M 54.890625 33.015625 
L 54.890625 0 
L 45.90625 0 
L 45.90625 32.71875 
Q 45.90625 40.484375 42.875 44.328125 
Q 39.84375 48.1875 33.796875 48.1875 
Q 26.515625 48.1875 22.3125 43.546875 
Q 18.109375 38.921875 18.109375 30.90625 
L 18.109375 0 
L 9.078125 0 
L 9.078125 54.6875 
L 18.109375 54.6875 
L 18.109375 46.1875 
Q 21.34375 51.125 25.703125 53.5625 
Q 30.078125 56 35.796875 56 
Q 45.21875 56 50.046875 50.171875 
Q 54.890625 44.34375 54.890625 33.015625 
z
" id="DejaVuSans-110"/>
     <path id="DejaVuSans-32"/>
     <path d="M 19.671875 64.796875 
L 19.671875 37.40625 
L 32.078125 37.40625 
Q 38.96875 37.40625 42.71875 40.96875 
Q 46.484375 44.53125 46.484375 51.125 
Q 46.484375 57.671875 42.71875 61.234375 
Q 38.96875 64.796875 32.078125 64.796875 
z
M 9.8125 72.90625 
L 32.078125 72.90625 
Q 44.34375 72.90625 50.609375 67.359375 
Q 56.890625 61.8125 56.890625 51.125 
Q 56.890625 40.328125 50.609375 34.8125 
Q 44.34375 29.296875 32.078125 29.296875 
L 19.671875 29.296875 
L 19.671875 0 
L 9.8125 0 
z
" id="DejaVuSans-80"/>
     <path d="M 41.109375 46.296875 
Q 39.59375 47.171875 37.8125 47.578125 
Q 36.03125 48 33.890625 48 
Q 26.265625 48 22.1875 43.046875 
Q 18.109375 38.09375 18.109375 28.8125 
L 18.109375 0 
L 9.078125 0 
L 9.078125 54.6875 
L 18.109375 54.6875 
L 18.109375 46.1875 
Q 20.953125 51.171875 25.484375 53.578125 
Q 30.03125 56 36.53125 56 
Q 37.453125 56 38.578125 55.875 
Q 39.703125 55.765625 41.0625 55.515625 
z
" id="DejaVuSans-114"/>
     <path d="M 56.203125 29.59375 
L 56.203125 25.203125 
L 14.890625 25.203125 
Q 15.484375 15.921875 20.484375 11.0625 
Q 25.484375 6.203125 34.421875 6.203125 
Q 39.59375 6.203125 44.453125 7.46875 
Q 49.3125 8.734375 54.109375 11.28125 
L 54.109375 2.78125 
Q 49.265625 0.734375 44.1875 -0.34375 
Q 39.109375 -1.421875 33.890625 -1.421875 
Q 20.796875 -1.421875 13.15625 6.1875 
Q 5.515625 13.8125 5.515625 26.8125 
Q 5.515625 40.234375 12.765625 48.109375 
Q 20.015625 56 32.328125 56 
Q 43.359375 56 49.78125 48.890625 
Q 56.203125 41.796875 56.203125 29.59375 
z
M 47.21875 32.234375 
Q 47.125 39.59375 43.09375 43.984375 
Q 39.0625 48.390625 32.421875 48.390625 
Q 24.90625 48.390625 20.390625 44.140625 
Q 15.875 39.890625 15.1875 32.171875 
z
" id="DejaVuSans-101"/>
     <path d="M 45.40625 46.390625 
L 45.40625 75.984375 
L 54.390625 75.984375 
L 54.390625 0 
L 45.40625 0 
L 45.40625 8.203125 
Q 42.578125 3.328125 38.25 0.953125 
Q 33.9375 -1.421875 27.875 -1.421875 
Q 17.96875 -1.421875 11.734375 6.484375 
Q 5.515625 14.40625 5.515625 27.296875 
Q 5.515625 40.1875 11.734375 48.09375 
Q 17.96875 56 27.875 56 
Q 33.9375 56 38.25 53.625 
Q 42.578125 51.265625 45.40625 46.390625 
z
M 14.796875 27.296875 
Q 14.796875 17.390625 18.875 11.75 
Q 22.953125 6.109375 30.078125 6.109375 
Q 37.203125 6.109375 41.296875 11.75 
Q 45.40625 17.390625 45.40625 27.296875 
Q 45.40625 37.203125 41.296875 42.84375 
Q 37.203125 48.484375 30.078125 48.484375 
Q 22.953125 48.484375 18.875 42.84375 
Q 14.796875 37.203125 14.796875 27.296875 
z
" id="DejaVuSans-100"/>
     <path d="M 44.28125 53.078125 
L 44.28125 44.578125 
Q 40.484375 46.53125 36.375 47.5 
Q 32.28125 48.484375 27.875 48.484375 
Q 21.1875 48.484375 17.84375 46.4375 
Q 14.5 44.390625 14.5 40.28125 
Q 14.5 37.15625 16.890625 35.375 
Q 19.28125 33.59375 26.515625 31.984375 
L 29.59375 31.296875 
Q 39.15625 29.25 43.1875 25.515625 
Q 47.21875 21.78125 47.21875 15.09375 
Q 47.21875 7.46875 41.1875 3.015625 
Q 35.15625 -1.421875 24.609375 -1.421875 
Q 20.21875 -1.421875 15.453125 -0.5625 
Q 10.6875 0.296875 5.421875 2 
L 5.421875 11.28125 
Q 10.40625 8.6875 15.234375 7.390625 
Q 20.0625 6.109375 24.8125 6.109375 
Q 31.15625 6.109375 34.5625 8.28125 
Q 37.984375 10.453125 37.984375 14.40625 
Q 37.984375 18.0625 35.515625 20.015625 
Q 33.0625 21.96875 24.703125 23.78125 
L 21.578125 24.515625 
Q 13.234375 26.265625 9.515625 29.90625 
Q 5.8125 33.546875 5.8125 39.890625 
Q 5.8125 47.609375 11.28125 51.796875 
Q 16.75 56 26.8125 56 
Q 31.78125 56 36.171875 55.265625 
Q 40.578125 54.546875 44.28125 53.078125 
z
" id="DejaVuSans-115"/>
     <path d="M 9.8125 72.90625 
L 23.09375 72.90625 
L 55.421875 11.921875 
L 55.421875 72.90625 
L 64.984375 72.90625 
L 64.984375 0 
L 51.703125 0 
L 19.390625 60.984375 
L 19.390625 0 
L 9.8125 0 
z
" id="DejaVuSans-78"/>
     <path d="M 11.71875 12.40625 
L 22.015625 12.40625 
L 22.015625 0 
L 11.71875 0 
z
M 11.71875 51.703125 
L 22.015625 51.703125 
L 22.015625 39.3125 
L 11.71875 39.3125 
z
" id="DejaVuSans-58"/>
    </defs>
    <g transform="translate(374.421656 80.4)scale(0.324 -0.324)">
     <use xlink:href="#DejaVuSans-69"/>
     <use x="63.183594" xlink:href="#DejaVuSans-118"/>
     <use x="122.363281" xlink:href="#DejaVuSans-97"/>
     <use x="183.642578" xlink:href="#DejaVuSans-108"/>
     <use x="211.425781" xlink:href="#DejaVuSans-117"/>
     <use x="274.804688" xlink:href="#DejaVuSans-97"/>
     <use x="336.083984" xlink:href="#DejaVuSans-116"/>
     <use x="375.292969" xlink:href="#DejaVuSans-105"/>
     <use x="403.076172" xlink:href="#DejaVuSans-111"/>
     <use x="464.257812" xlink:href="#DejaVuSans-110"/>
     <use x="527.636719" xlink:href="#DejaVuSans-32"/>
     <use x="559.423828" xlink:href="#DejaVuSans-80"/>
     <use x="619.710938" xlink:href="#DejaVuSans-114"/>
     <use x="660.792969" xlink:href="#DejaVuSans-101"/>
     <use x="722.316406" xlink:href="#DejaVuSans-100"/>
     <use x="785.792969" xlink:href="#DejaVuSans-115"/>
     <use x="837.892578" xlink:href="#DejaVuSans-32"/>
     <use x="869.679688" xlink:href="#DejaVuSans-78"/>
     <use x="944.484375" xlink:href="#DejaVuSans-58"/>
     <use x="978.175781" xlink:href="#DejaVuSans-49"/>
     <use x="1041.798828" xlink:href="#DejaVuSans-48"/>
    </g>
   </g>
   <g id="legend_1">
    <g id="patch_7">
     <path d="M 805.57875 187.261875 
L 953.1 187.261875 
Q 958.5 187.261875 958.5 181.861875 
L 958.5 105.3 
Q 958.5 99.9 953.1 99.9 
L 805.57875 99.9 
Q 800.17875 99.9 800.17875 105.3 
L 800.17875 181.861875 
Q 800.17875 187.261875 805.57875 187.261875 
z
" style="fill:#ffffff;opacity:0.8;stroke:#cccccc;stroke-linejoin:miter;"/>
    </g>
    <g id="line2d_37">
     <path d="M 810.97875 121.765781 
L 864.97875 121.765781 
" style="fill:none;stroke:#ff0000;stroke-linecap:square;stroke-width:1.5;"/>
    </g>
    <g id="line2d_38"/>
    <g id="text_19">
     <!-- Real -->
     <defs>
      <path d="M 44.390625 34.1875 
Q 47.5625 33.109375 50.5625 29.59375 
Q 53.5625 26.078125 56.59375 19.921875 
L 66.609375 0 
L 56 0 
L 46.6875 18.703125 
Q 43.0625 26.03125 39.671875 28.421875 
Q 36.28125 30.8125 30.421875 30.8125 
L 19.671875 30.8125 
L 19.671875 0 
L 9.8125 0 
L 9.8125 72.90625 
L 32.078125 72.90625 
Q 44.578125 72.90625 50.734375 67.671875 
Q 56.890625 62.453125 56.890625 51.90625 
Q 56.890625 45.015625 53.6875 40.46875 
Q 50.484375 35.9375 44.390625 34.1875 
z
M 19.671875 64.796875 
L 19.671875 38.921875 
L 32.078125 38.921875 
Q 39.203125 38.921875 42.84375 42.21875 
Q 46.484375 45.515625 46.484375 51.90625 
Q 46.484375 58.296875 42.84375 61.546875 
Q 39.203125 64.796875 32.078125 64.796875 
z
" id="DejaVuSans-82"/>
     </defs>
     <g transform="translate(886.57875 131.215781)scale(0.27 -0.27)">
      <use xlink:href="#DejaVuSans-82"/>
      <use x="69.419922" xlink:href="#DejaVuSans-101"/>
      <use x="130.943359" xlink:href="#DejaVuSans-97"/>
      <use x="192.222656" xlink:href="#DejaVuSans-108"/>
     </g>
    </g>
    <g id="line2d_39">
     <path d="M 810.97875 161.396719 
L 864.97875 161.396719 
" style="fill:none;stroke:#0000ff;stroke-linecap:square;stroke-width:1.5;"/>
    </g>
    <g id="line2d_40"/>
    <g id="text_20">
     <!-- Pred -->
     <g transform="translate(886.57875 170.846719)scale(0.27 -0.27)">
      <use xlink:href="#DejaVuSans-80"/>
      <use x="60.287109" xlink:href="#DejaVuSans-114"/>
      <use x="101.369141" xlink:href="#DejaVuSans-101"/>
      <use x="162.892578" xlink:href="#DejaVuSans-100"/>
     </g>
    </g>
   </g>
  </g>
 </g>
 <defs>
  <clipPath id="pec4a53093d">
   <rect height="554.4" width="837" x="135" y="86.4"/>
  </clipPath>
 </defs>
</svg>
