<?xml version="1.0" encoding="utf-8" standalone="no"?>
<!DOCTYPE svg PUBLIC "-//W3C//DTD SVG 1.1//EN"
  "http://www.w3.org/Graphics/SVG/1.1/DTD/svg11.dtd">
<!-- Created with matplotlib (https://matplotlib.org/) -->
<svg height="720pt" version="1.1" viewBox="0 0 1080 720" width="1080pt" xmlns="http://www.w3.org/2000/svg" xmlns:xlink="http://www.w3.org/1999/xlink">
 <defs>
  <style type="text/css">
*{stroke-linecap:butt;stroke-linejoin:round;}
  </style>
 </defs>
 <g id="figure_1">
  <g id="patch_1">
   <path d="M 0 720 
L 1080 720 
L 1080 0 
L 0 0 
z
" style="fill:#ffffff;"/>
  </g>
  <g id="axes_1">
   <g id="patch_2">
    <path d="M 135 640.8 
L 972 640.8 
L 972 86.4 
L 135 86.4 
z
" style="fill:#ffffff;"/>
   </g>
   <g id="matplotlib.axis_1">
    <g id="xtick_1">
     <g id="line2d_1">
      <path clip-path="url(#pc259b49822)" d="M 173.045455 640.8 
L 173.045455 86.4 
" style="fill:none;stroke:#b0b0b0;stroke-linecap:square;stroke-width:0.8;"/>
     </g>
     <g id="line2d_2">
      <defs>
       <path d="M 0 0 
L 0 3.5 
" id="m385d18a2e0" style="stroke:#000000;stroke-width:0.8;"/>
      </defs>
      <g>
       <use style="stroke:#000000;stroke-width:0.8;" x="173.045455" xlink:href="#m385d18a2e0" y="640.8"/>
      </g>
     </g>
     <g id="text_1">
      <!-- 0 -->
      <defs>
       <path d="M 31.78125 66.40625 
Q 24.171875 66.40625 20.328125 58.90625 
Q 16.5 51.421875 16.5 36.375 
Q 16.5 21.390625 20.328125 13.890625 
Q 24.171875 6.390625 31.78125 6.390625 
Q 39.453125 6.390625 43.28125 13.890625 
Q 47.125 21.390625 47.125 36.375 
Q 47.125 51.421875 43.28125 58.90625 
Q 39.453125 66.40625 31.78125 66.40625 
z
M 31.78125 74.21875 
Q 44.046875 74.21875 50.515625 64.515625 
Q 56.984375 54.828125 56.984375 36.375 
Q 56.984375 17.96875 50.515625 8.265625 
Q 44.046875 -1.421875 31.78125 -1.421875 
Q 19.53125 -1.421875 13.0625 8.265625 
Q 6.59375 17.96875 6.59375 36.375 
Q 6.59375 54.828125 13.0625 64.515625 
Q 19.53125 74.21875 31.78125 74.21875 
z
" id="DejaVuSans-48"/>
      </defs>
      <g transform="translate(164.45608 668.315781)scale(0.27 -0.27)">
       <use xlink:href="#DejaVuSans-48"/>
      </g>
     </g>
    </g>
    <g id="xtick_2">
     <g id="line2d_3">
      <path clip-path="url(#pc259b49822)" d="M 282.371473 640.8 
L 282.371473 86.4 
" style="fill:none;stroke:#b0b0b0;stroke-linecap:square;stroke-width:0.8;"/>
     </g>
     <g id="line2d_4">
      <g>
       <use style="stroke:#000000;stroke-width:0.8;" x="282.371473" xlink:href="#m385d18a2e0" y="640.8"/>
      </g>
     </g>
     <g id="text_2">
      <!-- 250 -->
      <defs>
       <path d="M 19.1875 8.296875 
L 53.609375 8.296875 
L 53.609375 0 
L 7.328125 0 
L 7.328125 8.296875 
Q 12.9375 14.109375 22.625 23.890625 
Q 32.328125 33.6875 34.8125 36.53125 
Q 39.546875 41.84375 41.421875 45.53125 
Q 43.3125 49.21875 43.3125 52.78125 
Q 43.3125 58.59375 39.234375 62.25 
Q 35.15625 65.921875 28.609375 65.921875 
Q 23.96875 65.921875 18.8125 64.3125 
Q 13.671875 62.703125 7.8125 59.421875 
L 7.8125 69.390625 
Q 13.765625 71.78125 18.9375 73 
Q 24.125 74.21875 28.421875 74.21875 
Q 39.75 74.21875 46.484375 68.546875 
Q 53.21875 62.890625 53.21875 53.421875 
Q 53.21875 48.921875 51.53125 44.890625 
Q 49.859375 40.875 45.40625 35.40625 
Q 44.1875 33.984375 37.640625 27.21875 
Q 31.109375 20.453125 19.1875 8.296875 
z
" id="DejaVuSans-50"/>
       <path d="M 10.796875 72.90625 
L 49.515625 72.90625 
L 49.515625 64.59375 
L 19.828125 64.59375 
L 19.828125 46.734375 
Q 21.96875 47.46875 24.109375 47.828125 
Q 26.265625 48.1875 28.421875 48.1875 
Q 40.625 48.1875 47.75 41.5 
Q 54.890625 34.8125 54.890625 23.390625 
Q 54.890625 11.625 47.5625 5.09375 
Q 40.234375 -1.421875 26.90625 -1.421875 
Q 22.3125 -1.421875 17.546875 -0.640625 
Q 12.796875 0.140625 7.71875 1.703125 
L 7.71875 11.625 
Q 12.109375 9.234375 16.796875 8.0625 
Q 21.484375 6.890625 26.703125 6.890625 
Q 35.15625 6.890625 40.078125 11.328125 
Q 45.015625 15.765625 45.015625 23.390625 
Q 45.015625 31 40.078125 35.4375 
Q 35.15625 39.890625 26.703125 39.890625 
Q 22.75 39.890625 18.8125 39.015625 
Q 14.890625 38.140625 10.796875 36.28125 
z
" id="DejaVuSans-53"/>
      </defs>
      <g transform="translate(256.603348 668.315781)scale(0.27 -0.27)">
       <use xlink:href="#DejaVuSans-50"/>
       <use x="63.623047" xlink:href="#DejaVuSans-53"/>
       <use x="127.246094" xlink:href="#DejaVuSans-48"/>
      </g>
     </g>
    </g>
    <g id="xtick_3">
     <g id="line2d_5">
      <path clip-path="url(#pc259b49822)" d="M 391.697492 640.8 
L 391.697492 86.4 
" style="fill:none;stroke:#b0b0b0;stroke-linecap:square;stroke-width:0.8;"/>
     </g>
     <g id="line2d_6">
      <g>
       <use style="stroke:#000000;stroke-width:0.8;" x="391.697492" xlink:href="#m385d18a2e0" y="640.8"/>
      </g>
     </g>
     <g id="text_3">
      <!-- 500 -->
      <g transform="translate(365.929367 668.315781)scale(0.27 -0.27)">
       <use xlink:href="#DejaVuSans-53"/>
       <use x="63.623047" xlink:href="#DejaVuSans-48"/>
       <use x="127.246094" xlink:href="#DejaVuSans-48"/>
      </g>
     </g>
    </g>
    <g id="xtick_4">
     <g id="line2d_7">
      <path clip-path="url(#pc259b49822)" d="M 501.023511 640.8 
L 501.023511 86.4 
" style="fill:none;stroke:#b0b0b0;stroke-linecap:square;stroke-width:0.8;"/>
     </g>
     <g id="line2d_8">
      <g>
       <use style="stroke:#000000;stroke-width:0.8;" x="501.023511" xlink:href="#m385d18a2e0" y="640.8"/>
      </g>
     </g>
     <g id="text_4">
      <!-- 750 -->
      <defs>
       <path d="M 8.203125 72.90625 
L 55.078125 72.90625 
L 55.078125 68.703125 
L 28.609375 0 
L 18.3125 0 
L 43.21875 64.59375 
L 8.203125 64.59375 
z
" id="DejaVuSans-55"/>
      </defs>
      <g transform="translate(475.255386 668.315781)scale(0.27 -0.27)">
       <use xlink:href="#DejaVuSans-55"/>
       <use x="63.623047" xlink:href="#DejaVuSans-53"/>
       <use x="127.246094" xlink:href="#DejaVuSans-48"/>
      </g>
     </g>
    </g>
    <g id="xtick_5">
     <g id="line2d_9">
      <path clip-path="url(#pc259b49822)" d="M 610.34953 640.8 
L 610.34953 86.4 
" style="fill:none;stroke:#b0b0b0;stroke-linecap:square;stroke-width:0.8;"/>
     </g>
     <g id="line2d_10">
      <g>
       <use style="stroke:#000000;stroke-width:0.8;" x="610.34953" xlink:href="#m385d18a2e0" y="640.8"/>
      </g>
     </g>
     <g id="text_5">
      <!-- 1000 -->
      <defs>
       <path d="M 12.40625 8.296875 
L 28.515625 8.296875 
L 28.515625 63.921875 
L 10.984375 60.40625 
L 10.984375 69.390625 
L 28.421875 72.90625 
L 38.28125 72.90625 
L 38.28125 8.296875 
L 54.390625 8.296875 
L 54.390625 0 
L 12.40625 0 
z
" id="DejaVuSans-49"/>
      </defs>
      <g transform="translate(575.99203 668.315781)scale(0.27 -0.27)">
       <use xlink:href="#DejaVuSans-49"/>
       <use x="63.623047" xlink:href="#DejaVuSans-48"/>
       <use x="127.246094" xlink:href="#DejaVuSans-48"/>
       <use x="190.869141" xlink:href="#DejaVuSans-48"/>
      </g>
     </g>
    </g>
    <g id="xtick_6">
     <g id="line2d_11">
      <path clip-path="url(#pc259b49822)" d="M 719.675549 640.8 
L 719.675549 86.4 
" style="fill:none;stroke:#b0b0b0;stroke-linecap:square;stroke-width:0.8;"/>
     </g>
     <g id="line2d_12">
      <g>
       <use style="stroke:#000000;stroke-width:0.8;" x="719.675549" xlink:href="#m385d18a2e0" y="640.8"/>
      </g>
     </g>
     <g id="text_6">
      <!-- 1250 -->
      <g transform="translate(685.318049 668.315781)scale(0.27 -0.27)">
       <use xlink:href="#DejaVuSans-49"/>
       <use x="63.623047" xlink:href="#DejaVuSans-50"/>
       <use x="127.246094" xlink:href="#DejaVuSans-53"/>
       <use x="190.869141" xlink:href="#DejaVuSans-48"/>
      </g>
     </g>
    </g>
    <g id="xtick_7">
     <g id="line2d_13">
      <path clip-path="url(#pc259b49822)" d="M 829.001567 640.8 
L 829.001567 86.4 
" style="fill:none;stroke:#b0b0b0;stroke-linecap:square;stroke-width:0.8;"/>
     </g>
     <g id="line2d_14">
      <g>
       <use style="stroke:#000000;stroke-width:0.8;" x="829.001567" xlink:href="#m385d18a2e0" y="640.8"/>
      </g>
     </g>
     <g id="text_7">
      <!-- 1500 -->
      <g transform="translate(794.644067 668.315781)scale(0.27 -0.27)">
       <use xlink:href="#DejaVuSans-49"/>
       <use x="63.623047" xlink:href="#DejaVuSans-53"/>
       <use x="127.246094" xlink:href="#DejaVuSans-48"/>
       <use x="190.869141" xlink:href="#DejaVuSans-48"/>
      </g>
     </g>
    </g>
    <g id="xtick_8">
     <g id="line2d_15">
      <path clip-path="url(#pc259b49822)" d="M 938.327586 640.8 
L 938.327586 86.4 
" style="fill:none;stroke:#b0b0b0;stroke-linecap:square;stroke-width:0.8;"/>
     </g>
     <g id="line2d_16">
      <g>
       <use style="stroke:#000000;stroke-width:0.8;" x="938.327586" xlink:href="#m385d18a2e0" y="640.8"/>
      </g>
     </g>
     <g id="text_8">
      <!-- 1750 -->
      <g transform="translate(903.970086 668.315781)scale(0.27 -0.27)">
       <use xlink:href="#DejaVuSans-49"/>
       <use x="63.623047" xlink:href="#DejaVuSans-55"/>
       <use x="127.246094" xlink:href="#DejaVuSans-53"/>
       <use x="190.869141" xlink:href="#DejaVuSans-48"/>
      </g>
     </g>
    </g>
   </g>
   <g id="matplotlib.axis_2">
    <g id="ytick_1">
     <g id="line2d_17">
      <path clip-path="url(#pc259b49822)" d="M 135 619.999399 
L 972 619.999399 
" style="fill:none;stroke:#b0b0b0;stroke-linecap:square;stroke-width:0.8;"/>
     </g>
     <g id="line2d_18">
      <defs>
       <path d="M 0 0 
L -3.5 0 
" id="ma9c314be94" style="stroke:#000000;stroke-width:0.8;"/>
      </defs>
      <g>
       <use style="stroke:#000000;stroke-width:0.8;" x="135" xlink:href="#ma9c314be94" y="619.999399"/>
      </g>
     </g>
     <g id="text_9">
      <!-- 14 -->
      <defs>
       <path d="M 37.796875 64.3125 
L 12.890625 25.390625 
L 37.796875 25.390625 
z
M 35.203125 72.90625 
L 47.609375 72.90625 
L 47.609375 25.390625 
L 58.015625 25.390625 
L 58.015625 17.1875 
L 47.609375 17.1875 
L 47.609375 0 
L 37.796875 0 
L 37.796875 17.1875 
L 4.890625 17.1875 
L 4.890625 26.703125 
z
" id="DejaVuSans-52"/>
      </defs>
      <g transform="translate(93.6425 630.25729)scale(0.27 -0.27)">
       <use xlink:href="#DejaVuSans-49"/>
       <use x="63.623047" xlink:href="#DejaVuSans-52"/>
      </g>
     </g>
    </g>
    <g id="ytick_2">
     <g id="line2d_19">
      <path clip-path="url(#pc259b49822)" d="M 135 557.713181 
L 972 557.713181 
" style="fill:none;stroke:#b0b0b0;stroke-linecap:square;stroke-width:0.8;"/>
     </g>
     <g id="line2d_20">
      <g>
       <use style="stroke:#000000;stroke-width:0.8;" x="135" xlink:href="#ma9c314be94" y="557.713181"/>
      </g>
     </g>
     <g id="text_10">
      <!-- 16 -->
      <defs>
       <path d="M 33.015625 40.375 
Q 26.375 40.375 22.484375 35.828125 
Q 18.609375 31.296875 18.609375 23.390625 
Q 18.609375 15.53125 22.484375 10.953125 
Q 26.375 6.390625 33.015625 6.390625 
Q 39.65625 6.390625 43.53125 10.953125 
Q 47.40625 15.53125 47.40625 23.390625 
Q 47.40625 31.296875 43.53125 35.828125 
Q 39.65625 40.375 33.015625 40.375 
z
M 52.59375 71.296875 
L 52.59375 62.3125 
Q 48.875 64.0625 45.09375 64.984375 
Q 41.3125 65.921875 37.59375 65.921875 
Q 27.828125 65.921875 22.671875 59.328125 
Q 17.53125 52.734375 16.796875 39.40625 
Q 19.671875 43.65625 24.015625 45.921875 
Q 28.375 48.1875 33.59375 48.1875 
Q 44.578125 48.1875 50.953125 41.515625 
Q 57.328125 34.859375 57.328125 23.390625 
Q 57.328125 12.15625 50.6875 5.359375 
Q 44.046875 -1.421875 33.015625 -1.421875 
Q 20.359375 -1.421875 13.671875 8.265625 
Q 6.984375 17.96875 6.984375 36.375 
Q 6.984375 53.65625 15.1875 63.9375 
Q 23.390625 74.21875 37.203125 74.21875 
Q 40.921875 74.21875 44.703125 73.484375 
Q 48.484375 72.75 52.59375 71.296875 
z
" id="DejaVuSans-54"/>
      </defs>
      <g transform="translate(93.6425 567.971071)scale(0.27 -0.27)">
       <use xlink:href="#DejaVuSans-49"/>
       <use x="63.623047" xlink:href="#DejaVuSans-54"/>
      </g>
     </g>
    </g>
    <g id="ytick_3">
     <g id="line2d_21">
      <path clip-path="url(#pc259b49822)" d="M 135 495.426963 
L 972 495.426963 
" style="fill:none;stroke:#b0b0b0;stroke-linecap:square;stroke-width:0.8;"/>
     </g>
     <g id="line2d_22">
      <g>
       <use style="stroke:#000000;stroke-width:0.8;" x="135" xlink:href="#ma9c314be94" y="495.426963"/>
      </g>
     </g>
     <g id="text_11">
      <!-- 18 -->
      <defs>
       <path d="M 31.78125 34.625 
Q 24.75 34.625 20.71875 30.859375 
Q 16.703125 27.09375 16.703125 20.515625 
Q 16.703125 13.921875 20.71875 10.15625 
Q 24.75 6.390625 31.78125 6.390625 
Q 38.8125 6.390625 42.859375 10.171875 
Q 46.921875 13.96875 46.921875 20.515625 
Q 46.921875 27.09375 42.890625 30.859375 
Q 38.875 34.625 31.78125 34.625 
z
M 21.921875 38.8125 
Q 15.578125 40.375 12.03125 44.71875 
Q 8.5 49.078125 8.5 55.328125 
Q 8.5 64.0625 14.71875 69.140625 
Q 20.953125 74.21875 31.78125 74.21875 
Q 42.671875 74.21875 48.875 69.140625 
Q 55.078125 64.0625 55.078125 55.328125 
Q 55.078125 49.078125 51.53125 44.71875 
Q 48 40.375 41.703125 38.8125 
Q 48.828125 37.15625 52.796875 32.3125 
Q 56.78125 27.484375 56.78125 20.515625 
Q 56.78125 9.90625 50.3125 4.234375 
Q 43.84375 -1.421875 31.78125 -1.421875 
Q 19.734375 -1.421875 13.25 4.234375 
Q 6.78125 9.90625 6.78125 20.515625 
Q 6.78125 27.484375 10.78125 32.3125 
Q 14.796875 37.15625 21.921875 38.8125 
z
M 18.3125 54.390625 
Q 18.3125 48.734375 21.84375 45.5625 
Q 25.390625 42.390625 31.78125 42.390625 
Q 38.140625 42.390625 41.71875 45.5625 
Q 45.3125 48.734375 45.3125 54.390625 
Q 45.3125 60.0625 41.71875 63.234375 
Q 38.140625 66.40625 31.78125 66.40625 
Q 25.390625 66.40625 21.84375 63.234375 
Q 18.3125 60.0625 18.3125 54.390625 
z
" id="DejaVuSans-56"/>
      </defs>
      <g transform="translate(93.6425 505.684853)scale(0.27 -0.27)">
       <use xlink:href="#DejaVuSans-49"/>
       <use x="63.623047" xlink:href="#DejaVuSans-56"/>
      </g>
     </g>
    </g>
    <g id="ytick_4">
     <g id="line2d_23">
      <path clip-path="url(#pc259b49822)" d="M 135 433.140745 
L 972 433.140745 
" style="fill:none;stroke:#b0b0b0;stroke-linecap:square;stroke-width:0.8;"/>
     </g>
     <g id="line2d_24">
      <g>
       <use style="stroke:#000000;stroke-width:0.8;" x="135" xlink:href="#ma9c314be94" y="433.140745"/>
      </g>
     </g>
     <g id="text_12">
      <!-- 20 -->
      <g transform="translate(93.6425 443.398635)scale(0.27 -0.27)">
       <use xlink:href="#DejaVuSans-50"/>
       <use x="63.623047" xlink:href="#DejaVuSans-48"/>
      </g>
     </g>
    </g>
    <g id="ytick_5">
     <g id="line2d_25">
      <path clip-path="url(#pc259b49822)" d="M 135 370.854527 
L 972 370.854527 
" style="fill:none;stroke:#b0b0b0;stroke-linecap:square;stroke-width:0.8;"/>
     </g>
     <g id="line2d_26">
      <g>
       <use style="stroke:#000000;stroke-width:0.8;" x="135" xlink:href="#ma9c314be94" y="370.854527"/>
      </g>
     </g>
     <g id="text_13">
      <!-- 22 -->
      <g transform="translate(93.6425 381.112417)scale(0.27 -0.27)">
       <use xlink:href="#DejaVuSans-50"/>
       <use x="63.623047" xlink:href="#DejaVuSans-50"/>
      </g>
     </g>
    </g>
    <g id="ytick_6">
     <g id="line2d_27">
      <path clip-path="url(#pc259b49822)" d="M 135 308.568308 
L 972 308.568308 
" style="fill:none;stroke:#b0b0b0;stroke-linecap:square;stroke-width:0.8;"/>
     </g>
     <g id="line2d_28">
      <g>
       <use style="stroke:#000000;stroke-width:0.8;" x="135" xlink:href="#ma9c314be94" y="308.568308"/>
      </g>
     </g>
     <g id="text_14">
      <!-- 24 -->
      <g transform="translate(93.6425 318.826199)scale(0.27 -0.27)">
       <use xlink:href="#DejaVuSans-50"/>
       <use x="63.623047" xlink:href="#DejaVuSans-52"/>
      </g>
     </g>
    </g>
    <g id="ytick_7">
     <g id="line2d_29">
      <path clip-path="url(#pc259b49822)" d="M 135 246.28209 
L 972 246.28209 
" style="fill:none;stroke:#b0b0b0;stroke-linecap:square;stroke-width:0.8;"/>
     </g>
     <g id="line2d_30">
      <g>
       <use style="stroke:#000000;stroke-width:0.8;" x="135" xlink:href="#ma9c314be94" y="246.28209"/>
      </g>
     </g>
     <g id="text_15">
      <!-- 26 -->
      <g transform="translate(93.6425 256.539981)scale(0.27 -0.27)">
       <use xlink:href="#DejaVuSans-50"/>
       <use x="63.623047" xlink:href="#DejaVuSans-54"/>
      </g>
     </g>
    </g>
    <g id="ytick_8">
     <g id="line2d_31">
      <path clip-path="url(#pc259b49822)" d="M 135 183.995872 
L 972 183.995872 
" style="fill:none;stroke:#b0b0b0;stroke-linecap:square;stroke-width:0.8;"/>
     </g>
     <g id="line2d_32">
      <g>
       <use style="stroke:#000000;stroke-width:0.8;" x="135" xlink:href="#ma9c314be94" y="183.995872"/>
      </g>
     </g>
     <g id="text_16">
      <!-- 28 -->
      <g transform="translate(93.6425 194.253763)scale(0.27 -0.27)">
       <use xlink:href="#DejaVuSans-50"/>
       <use x="63.623047" xlink:href="#DejaVuSans-56"/>
      </g>
     </g>
    </g>
    <g id="ytick_9">
     <g id="line2d_33">
      <path clip-path="url(#pc259b49822)" d="M 135 121.709654 
L 972 121.709654 
" style="fill:none;stroke:#b0b0b0;stroke-linecap:square;stroke-width:0.8;"/>
     </g>
     <g id="line2d_34">
      <g>
       <use style="stroke:#000000;stroke-width:0.8;" x="135" xlink:href="#ma9c314be94" y="121.709654"/>
      </g>
     </g>
     <g id="text_17">
      <!-- 30 -->
      <defs>
       <path d="M 40.578125 39.3125 
Q 47.65625 37.796875 51.625 33 
Q 55.609375 28.21875 55.609375 21.1875 
Q 55.609375 10.40625 48.1875 4.484375 
Q 40.765625 -1.421875 27.09375 -1.421875 
Q 22.515625 -1.421875 17.65625 -0.515625 
Q 12.796875 0.390625 7.625 2.203125 
L 7.625 11.71875 
Q 11.71875 9.328125 16.59375 8.109375 
Q 21.484375 6.890625 26.8125 6.890625 
Q 36.078125 6.890625 40.9375 10.546875 
Q 45.796875 14.203125 45.796875 21.1875 
Q 45.796875 27.640625 41.28125 31.265625 
Q 36.765625 34.90625 28.71875 34.90625 
L 20.21875 34.90625 
L 20.21875 43.015625 
L 29.109375 43.015625 
Q 36.375 43.015625 40.234375 45.921875 
Q 44.09375 48.828125 44.09375 54.296875 
Q 44.09375 59.90625 40.109375 62.90625 
Q 36.140625 65.921875 28.71875 65.921875 
Q 24.65625 65.921875 20.015625 65.03125 
Q 15.375 64.15625 9.8125 62.3125 
L 9.8125 71.09375 
Q 15.4375 72.65625 20.34375 73.4375 
Q 25.25 74.21875 29.59375 74.21875 
Q 40.828125 74.21875 47.359375 69.109375 
Q 53.90625 64.015625 53.90625 55.328125 
Q 53.90625 49.265625 50.4375 45.09375 
Q 46.96875 40.921875 40.578125 39.3125 
z
" id="DejaVuSans-51"/>
      </defs>
      <g transform="translate(93.6425 131.967545)scale(0.27 -0.27)">
       <use xlink:href="#DejaVuSans-51"/>
       <use x="63.623047" xlink:href="#DejaVuSans-48"/>
      </g>
     </g>
    </g>
   </g>
   <g id="line2d_35">
    <path clip-path="url(#pc259b49822)" d="M 173.045455 549.416557 
L 173.482759 549.528409 
L 174.794671 559.144739 
L 175.231975 557.065891 
L 175.669279 557.433284 
L 176.981191 553.079327 
L 177.418495 554.788525 
L 177.855799 555.66623 
L 178.293103 552.366221 
L 178.730408 552.463519 
L 179.167712 553.93452 
L 179.605016 551.953445 
L 180.04232 552.684074 
L 180.479624 551.18569 
L 180.916928 552.713597 
L 181.354232 553.178942 
L 181.791536 551.244081 
L 182.666144 549.425883 
L 183.103448 550.139346 
L 183.540752 549.892001 
L 183.978056 548.045469 
L 184.415361 542.752741 
L 184.852665 540.124376 
L 185.727273 533.027826 
L 186.164577 531.134486 
L 186.601881 536.355338 
L 187.039185 534.505183 
L 187.476489 536.939367 
L 187.913793 535.219358 
L 188.351097 539.540645 
L 188.788401 541.659173 
L 189.225705 540.922841 
L 190.100313 533.83728 
L 190.537618 534.549258 
L 190.974922 532.168713 
L 191.412226 530.716008 
L 191.84953 527.629366 
L 192.286834 523.60835 
L 192.724138 521.180284 
L 193.161442 517.813686 
L 193.598746 515.736085 
L 194.473354 502.013082 
L 195.347962 483.578767 
L 195.785266 482.101232 
L 196.659875 468.071722 
L 197.097179 453.937369 
L 197.534483 451.524747 
L 198.846395 423.727505 
L 199.283699 422.213914 
L 199.721003 419.531138 
L 200.158307 419.547592 
L 200.595611 414.984425 
L 201.470219 400.325801 
L 201.907524 395.760911 
L 202.344828 394.89966 
L 202.782132 389.37521 
L 203.219436 381.529438 
L 203.65674 378.94503 
L 204.094044 377.915199 
L 204.531348 373.100291 
L 205.405956 359.080404 
L 205.84326 356.156638 
L 206.280564 348.510691 
L 207.155172 340.487548 
L 207.592476 337.028047 
L 208.904389 319.499 
L 209.341693 313.050156 
L 209.778997 314.324837 
L 210.216301 312.418607 
L 210.653605 304.640195 
L 211.528213 304.307967 
L 211.965517 302.994022 
L 212.402821 297.519409 
L 212.840125 298.652479 
L 213.277429 301.395725 
L 213.714734 308.049502 
L 214.152038 310.463074 
L 214.589342 310.069425 
L 215.026646 306.49439 
L 215.901254 319.75181 
L 216.338558 317.524994 
L 216.775862 319.736187 
L 217.213166 316.676157 
L 217.65047 318.027762 
L 218.087774 324.055573 
L 218.525078 321.649486 
L 218.962382 323.365693 
L 219.399687 318.774489 
L 219.836991 318.932317 
L 220.274295 317.784872 
L 220.711599 321.894514 
L 221.148903 327.157719 
L 222.023511 333.996529 
L 222.460815 339.15804 
L 222.898119 340.722953 
L 223.772727 351.307813 
L 224.210031 357.663101 
L 224.647335 360.044537 
L 225.084639 373.199253 
L 225.521944 366.270629 
L 226.396552 384.715933 
L 226.833856 389.23847 
L 227.27116 395.026837 
L 227.708464 396.060767 
L 228.145768 399.510585 
L 228.583072 400.476501 
L 229.020376 406.309775 
L 229.45768 409.678808 
L 229.894984 408.187314 
L 230.332288 413.000143 
L 230.769592 413.202759 
L 231.206897 414.273576 
L 231.644201 417.602276 
L 232.081505 417.27682 
L 232.518809 418.458538 
L 232.956113 418.44743 
L 233.393417 417.059235 
L 234.268025 412.666191 
L 235.142633 409.407406 
L 235.579937 408.193433 
L 236.017241 407.78327 
L 236.454545 406.022334 
L 236.89185 406.701879 
L 237.329154 405.582175 
L 237.766458 408.361358 
L 238.203762 406.856143 
L 238.641066 402.928921 
L 239.07837 402.447359 
L 239.515674 404.683025 
L 239.952978 394.125608 
L 240.390282 391.120761 
L 240.827586 387.045869 
L 241.26489 391.321001 
L 241.702194 385.938935 
L 242.139498 382.351723 
L 242.576803 377.703494 
L 243.014107 378.145674 
L 243.451411 370.198623 
L 243.888715 373.300056 
L 244.326019 375.483391 
L 245.200627 369.846317 
L 245.637931 370.014956 
L 246.512539 364.883443 
L 246.949843 363.444697 
L 247.824451 354.016072 
L 248.69906 346.313456 
L 249.136364 344.420176 
L 249.573668 345.463431 
L 250.010972 343.188026 
L 250.448276 343.596584 
L 250.88558 345.233729 
L 251.322884 341.610638 
L 251.760188 342.391105 
L 252.197492 338.972294 
L 252.634796 336.873605 
L 253.0721 331.488926 
L 253.509404 336.478174 
L 253.946708 336.95041 
L 254.384013 339.913202 
L 254.821317 338.24012 
L 255.258621 340.694144 
L 255.695925 344.1224 
L 256.133229 344.434788 
L 256.570533 343.743304 
L 257.007837 350.229511 
L 257.882445 356.325515 
L 258.319749 354.661878 
L 258.757053 348.647966 
L 259.194357 352.445991 
L 259.631661 347.581663 
L 260.068966 355.997266 
L 260.50627 353.918002 
L 260.943574 359.001104 
L 261.380878 352.770795 
L 261.818182 351.723797 
L 262.255486 355.007055 
L 262.69279 353.123517 
L 263.130094 351.828639 
L 263.567398 348.908319 
L 264.004702 352.251929 
L 264.442006 352.858233 
L 264.87931 349.764819 
L 265.316614 344.661165 
L 265.753918 342.805722 
L 266.191223 346.161331 
L 266.628527 351.508885 
L 267.065831 352.970144 
L 267.503135 352.488998 
L 268.377743 368.312827 
L 268.815047 362.977094 
L 269.252351 366.673485 
L 269.689655 358.103677 
L 270.126959 366.207961 
L 270.564263 365.696699 
L 271.001567 366.158361 
L 271.438871 360.762396 
L 271.876176 362.595503 
L 272.31348 361.452989 
L 272.750784 359.315215 
L 273.188088 359.989829 
L 273.625392 358.836563 
L 274.062696 361.963301 
L 274.5 359.6775 
L 274.937304 365.43985 
L 275.374608 367.656033 
L 275.811912 373.447667 
L 276.249216 374.832536 
L 276.68652 379.121628 
L 277.123824 378.708912 
L 277.561129 382.302836 
L 277.998433 383.706417 
L 278.435737 382.399897 
L 278.873041 381.589136 
L 279.310345 384.167723 
L 279.747649 384.345985 
L 280.184953 388.706714 
L 281.059561 400.864863 
L 282.371473 408.331955 
L 282.808777 407.850512 
L 283.246082 408.897747 
L 283.683386 404.106541 
L 284.12069 408.902618 
L 284.995298 414.830577 
L 285.432602 415.37843 
L 286.744514 426.001485 
L 287.619122 429.280111 
L 288.056426 431.773992 
L 288.49373 432.272246 
L 288.931034 433.498159 
L 289.368339 434.085336 
L 289.805643 435.860409 
L 290.242947 434.793571 
L 290.680251 437.278424 
L 291.117555 438.010182 
L 291.554859 439.036746 
L 291.992163 439.469659 
L 292.429467 441.330566 
L 292.866771 446.18741 
L 293.304075 446.850204 
L 293.741379 445.748914 
L 294.178683 448.700894 
L 294.615987 452.561528 
L 295.053292 453.147992 
L 295.490596 452.109429 
L 295.9279 448.478379 
L 296.802508 442.649025 
L 297.239812 439.464669 
L 297.677116 439.5587 
L 298.11442 439.846438 
L 298.551724 442.010111 
L 298.989028 442.079134 
L 299.426332 442.849325 
L 299.863636 441.880142 
L 300.738245 434.727636 
L 301.175549 432.224607 
L 301.612853 424.370934 
L 302.050157 424.557215 
L 302.487461 422.576437 
L 302.924765 418.614584 
L 303.362069 417.012664 
L 303.799373 418.56843 
L 304.236677 419.655523 
L 304.673981 422.288046 
L 305.111285 423.934457 
L 305.548589 424.928886 
L 305.985893 424.000392 
L 306.423197 424.579134 
L 306.860502 426.824958 
L 307.73511 429.628971 
L 309.047022 431.331338 
L 309.484326 430.486718 
L 310.358934 434.07203 
L 311.670846 422.642372 
L 312.545455 420.104355 
L 312.982759 417.423361 
L 313.420063 418.132309 
L 313.857367 419.095136 
L 314.294671 419.045834 
L 314.731975 419.922648 
L 315.169279 419.48237 
L 315.606583 418.415948 
L 316.918495 412.925179 
L 317.355799 410.481906 
L 317.793103 410.389954 
L 318.230408 412.106636 
L 318.667712 409.042685 
L 319.105016 410.853815 
L 319.54232 415.60742 
L 319.979624 415.086832 
L 320.416928 413.317521 
L 320.854232 416.166857 
L 321.72884 408.84993 
L 322.166144 407.196628 
L 322.603448 407.933911 
L 323.040752 409.830755 
L 323.478056 412.521135 
L 323.915361 410.209019 
L 324.789969 402.269988 
L 325.227273 386.497778 
L 326.101881 391.336327 
L 326.539185 391.94263 
L 326.976489 389.746643 
L 327.413793 392.627937 
L 327.851097 392.436548 
L 328.288401 395.854408 
L 328.725705 398.338905 
L 329.163009 399.060386 
L 329.600313 401.175885 
L 330.037618 401.849312 
L 330.474922 400.553603 
L 330.912226 404.805094 
L 331.34953 406.535498 
L 331.786834 403.514909 
L 332.224138 406.825849 
L 332.661442 406.464395 
L 333.098746 403.825397 
L 333.53605 405.478164 
L 333.973354 400.042162 
L 334.410658 397.746857 
L 334.847962 391.876933 
L 335.285266 397.781429 
L 335.722571 395.341839 
L 336.159875 396.304132 
L 336.597179 390.933886 
L 337.034483 398.274752 
L 337.471787 399.952942 
L 337.909091 402.139069 
L 338.346395 398.961068 
L 338.783699 399.599983 
L 339.221003 399.194276 
L 339.658307 398.055801 
L 340.095611 397.67724 
L 340.532915 396.423111 
L 340.970219 396.829234 
L 341.407524 393.564093 
L 342.282132 389.204314 
L 342.719436 389.449996 
L 343.15674 387.424727 
L 343.594044 389.10464 
L 344.031348 391.481858 
L 344.468652 391.032907 
L 344.905956 390.253035 
L 345.34326 389.945398 
L 345.780564 389.304583 
L 346.217868 390.381222 
L 346.655172 387.985351 
L 347.092476 388.171038 
L 347.529781 384.698291 
L 347.967085 385.923194 
L 348.404389 381.669683 
L 348.841693 375.627022 
L 349.278997 371.182656 
L 349.716301 374.887779 
L 350.153605 371.231187 
L 350.590909 354.549194 
L 351.028213 360.244777 
L 351.465517 363.01612 
L 351.902821 368.339201 
L 352.340125 366.868676 
L 352.777429 372.25288 
L 353.214734 369.433482 
L 353.652038 379.575925 
L 354.089342 366.443485 
L 354.96395 356.505974 
L 355.401254 355.98503 
L 355.838558 363.781321 
L 356.275862 362.115486 
L 356.713166 358.769381 
L 357.15047 349.976999 
L 357.587774 357.880092 
L 358.462382 366.506628 
L 358.899687 371.169766 
L 359.336991 373.261921 
L 359.774295 364.738742 
L 360.211599 359.277911 
L 360.648903 368.123339 
L 361.086207 381.983557 
L 361.960815 391.997398 
L 362.398119 391.968945 
L 362.835423 377.466129 
L 363.272727 367.34804 
L 363.710031 376.873963 
L 364.147335 392.095706 
L 364.584639 387.739076 
L 365.021944 385.916541 
L 365.459248 389.476251 
L 365.896552 402.655321 
L 366.333856 404.160417 
L 366.77116 397.08834 
L 367.208464 410.788771 
L 367.645768 410.809383 
L 368.083072 435.182824 
L 368.520376 424.422019 
L 368.95768 431.281916 
L 369.394984 409.960546 
L 369.832288 412.180234 
L 370.269592 440.174686 
L 370.706897 446.849966 
L 371.144201 398.9401 
L 372.018809 431.605294 
L 372.456113 451.730333 
L 372.893417 441.886319 
L 373.330721 448.342767 
L 373.768025 452.871125 
L 374.205329 466.26582 
L 374.642633 474.354778 
L 375.079937 474.0731 
L 375.517241 481.016159 
L 375.954545 497.038387 
L 376.39185 503.715152 
L 376.829154 502.378456 
L 377.266458 513.747407 
L 377.703762 517.839288 
L 378.141066 517.994264 
L 378.57837 512.707596 
L 379.452978 507.266724 
L 379.890282 496.479723 
L 380.327586 503.616012 
L 380.76489 522.136755 
L 381.202194 522.631623 
L 381.639498 521.063086 
L 382.076803 519.025818 
L 382.514107 522.939616 
L 382.951411 524.151154 
L 383.826019 515.967213 
L 384.263323 522.688172 
L 384.700627 524.294131 
L 385.137931 527.627881 
L 385.575235 529.399093 
L 386.012539 529.799394 
L 386.449843 531.816763 
L 386.887147 528.604073 
L 387.761755 525.076974 
L 388.19906 527.481161 
L 388.636364 531.881154 
L 389.073668 529.00087 
L 389.510972 523.664246 
L 389.948276 523.145261 
L 390.822884 534.448871 
L 391.260188 535.256899 
L 391.697492 538.387082 
L 392.134796 539.937501 
L 392.5721 539.692414 
L 393.009404 537.076939 
L 393.446708 538.785721 
L 393.884013 533.434603 
L 394.321317 533.430742 
L 394.758621 530.551468 
L 395.195925 528.994989 
L 395.633229 531.595614 
L 396.070533 537.510208 
L 396.945141 541.769184 
L 397.382445 545.667062 
L 397.819749 538.328929 
L 398.257053 540.961036 
L 398.694357 546.15593 
L 399.131661 542.605546 
L 399.568966 543.405437 
L 400.00627 538.258123 
L 400.443574 541.921249 
L 400.880878 541.576487 
L 401.318182 539.995595 
L 402.19279 519.848519 
L 402.630094 530.282976 
L 403.067398 526.227508 
L 403.504702 524.893782 
L 403.942006 518.08188 
L 404.37931 519.939521 
L 404.816614 515.71381 
L 405.691223 521.964018 
L 406.128527 519.839965 
L 406.565831 516.191035 
L 407.003135 519.282667 
L 407.440439 527.484309 
L 407.877743 524.026056 
L 408.315047 525.015673 
L 408.752351 524.305952 
L 409.189655 526.973403 
L 409.626959 528.715093 
L 410.064263 523.751505 
L 410.501567 523.877791 
L 410.938871 523.734339 
L 411.81348 530.419598 
L 412.250784 535.413361 
L 412.688088 537.880275 
L 413.125392 541.242655 
L 414 544.060865 
L 414.437304 540.944285 
L 414.874608 542.292148 
L 415.749216 537.837328 
L 416.18652 539.302091 
L 416.623824 538.112175 
L 417.061129 536.096054 
L 417.935737 539.267758 
L 418.373041 538.219631 
L 419.247649 542.977039 
L 419.684953 540.81788 
L 420.122257 543.167893 
L 420.559561 542.990226 
L 420.996865 545.585208 
L 421.434169 542.770502 
L 422.308777 549.840025 
L 422.746082 553.320435 
L 423.183386 555.872529 
L 423.62069 556.442777 
L 424.057994 557.611309 
L 424.932602 552.355113 
L 425.80721 541.723801 
L 426.244514 537.007083 
L 426.681818 530.986578 
L 427.119122 527.495476 
L 427.556426 528.629378 
L 427.99373 527.125944 
L 428.431034 527.959456 
L 428.868339 529.517657 
L 429.305643 529.476314 
L 430.180251 525.98836 
L 430.617555 525.900328 
L 431.492163 525.123069 
L 431.929467 521.364783 
L 432.366771 522.586181 
L 432.804075 521.781182 
L 433.241379 512.8182 
L 434.115987 503.293466 
L 434.553292 497.370318 
L 434.990596 495.334535 
L 435.4279 494.299833 
L 436.302508 489.286706 
L 436.739812 487.305809 
L 437.177116 484.199208 
L 437.61442 482.589744 
L 438.051724 477.275395 
L 438.489028 475.547605 
L 438.926332 470.431774 
L 439.80094 463.333501 
L 440.238245 462.609584 
L 440.675549 460.712026 
L 441.112853 454.038112 
L 441.550157 453.447609 
L 442.862069 441.405351 
L 443.299373 434.268646 
L 443.736677 429.897997 
L 444.173981 428.684618 
L 444.611285 426.729263 
L 445.048589 428.038872 
L 445.485893 425.560494 
L 445.923197 419.278269 
L 446.360502 416.022157 
L 447.23511 403.728455 
L 447.672414 402.496246 
L 448.109718 403.378644 
L 448.547022 406.218595 
L 448.984326 404.690569 
L 449.42163 409.133806 
L 449.858934 404.481894 
L 450.296238 397.472248 
L 451.170846 388.35619 
L 451.60815 381.131156 
L 452.045455 381.311794 
L 452.482759 381.741321 
L 452.920063 381.578622 
L 453.357367 380.457195 
L 453.794671 381.331099 
L 454.231975 376.584265 
L 454.669279 369.693717 
L 455.106583 357.335268 
L 456.418495 344.163624 
L 456.855799 342.504026 
L 457.293103 342.679199 
L 457.730408 347.713948 
L 458.167712 344.06193 
L 458.605016 343.862521 
L 459.04232 344.79149 
L 459.479624 344.471676 
L 459.916928 343.804368 
L 460.354232 343.702852 
L 460.791536 342.33206 
L 461.666144 331.781475 
L 462.103448 329.543254 
L 462.540752 329.231162 
L 462.978056 328.74063 
L 463.415361 331.259936 
L 463.852665 332.597106 
L 464.289969 331.590739 
L 464.727273 333.378108 
L 465.164577 332.198587 
L 465.601881 331.825372 
L 466.476489 328.092331 
L 466.913793 328.386067 
L 467.351097 326.991337 
L 467.788401 327.200072 
L 468.663009 330.55865 
L 469.100313 331.803393 
L 469.537618 333.635135 
L 469.974922 334.758166 
L 470.412226 333.453012 
L 470.84953 331.571909 
L 471.286834 328.252356 
L 471.724138 330.419831 
L 472.161442 334.450707 
L 472.598746 333.419926 
L 473.03605 334.642928 
L 473.473354 339.321333 
L 473.910658 339.507435 
L 474.347962 344.034665 
L 474.785266 341.893029 
L 475.222571 341.862497 
L 476.097179 343.037504 
L 476.534483 339.074225 
L 476.971787 342.719235 
L 477.409091 341.820382 
L 478.283699 343.918774 
L 478.721003 342.388075 
L 479.158307 346.115117 
L 479.595611 346.421803 
L 480.470219 350.801422 
L 480.907524 349.709101 
L 481.344828 351.165073 
L 481.782132 351.435703 
L 482.65674 356.248175 
L 483.531348 359.12537 
L 483.968652 361.155035 
L 484.405956 360.972496 
L 486.155172 371.944709 
L 486.592476 372.33515 
L 487.029781 375.234442 
L 487.467085 378.944673 
L 487.904389 383.89549 
L 488.778997 388.506296 
L 489.216301 393.930893 
L 489.653605 394.622199 
L 490.090909 397.470287 
L 490.528213 401.232672 
L 490.965517 407.164492 
L 491.402821 408.531482 
L 491.840125 414.264844 
L 492.277429 416.474969 
L 492.714734 419.414297 
L 493.152038 424.974565 
L 493.589342 427.951731 
L 494.026646 428.699231 
L 494.46395 433.388505 
L 494.901254 441.866242 
L 495.338558 446.867787 
L 495.775862 453.391832 
L 496.213166 456.950829 
L 496.65047 466.477465 
L 497.962382 478.387318 
L 499.274295 490.259928 
L 500.148903 504.068349 
L 500.586207 504.138976 
L 501.023511 506.692793 
L 501.460815 510.023632 
L 501.898119 512.031794 
L 502.335423 519.750032 
L 502.772727 523.923411 
L 503.210031 531.947089 
L 503.647335 532.541512 
L 504.084639 538.484796 
L 504.521944 542.756781 
L 504.959248 550.795486 
L 505.396552 549.6304 
L 507.583072 569.796574 
L 508.45768 575.525095 
L 508.894984 580.362871 
L 509.332288 580.118556 
L 509.769592 580.537807 
L 510.206897 582.728774 
L 511.081505 583.372352 
L 511.518809 583.335107 
L 511.956113 584.206636 
L 512.393417 584.55217 
L 512.830721 585.200975 
L 513.268025 582.765543 
L 513.705329 579.416825 
L 514.142633 578.981269 
L 515.454545 571.169177 
L 515.89185 569.924493 
L 516.329154 564.795118 
L 518.07837 554.966133 
L 518.952978 544.012038 
L 519.390282 542.6419 
L 519.827586 542.855861 
L 520.26489 542.084899 
L 521.139498 532.87279 
L 521.576803 532.74692 
L 522.014107 527.670768 
L 522.451411 520.670031 
L 523.326019 513.10469 
L 523.763323 503.920619 
L 524.200627 501.687685 
L 524.637931 493.33962 
L 525.075235 477.006844 
L 525.512539 480.383778 
L 525.949843 476.551716 
L 526.387147 461.636302 
L 526.824451 466.324923 
L 527.261755 465.022086 
L 527.69906 464.357451 
L 528.136364 464.966368 
L 528.573668 458.880819 
L 529.010972 459.9097 
L 529.448276 463.514198 
L 530.322884 445.72349 
L 530.760188 444.737913 
L 531.197492 436.257919 
L 531.634796 440.468007 
L 532.0721 433.155714 
L 532.509404 428.421948 
L 532.946708 425.649001 
L 533.384013 426.883884 
L 533.821317 423.320848 
L 534.258621 423.656937 
L 534.695925 418.877848 
L 535.570533 417.209697 
L 536.007837 421.401074 
L 536.445141 421.563119 
L 536.882445 427.545786 
L 537.319749 429.575867 
L 537.757053 435.25458 
L 538.194357 437.789864 
L 538.631661 428.353518 
L 539.068966 426.694276 
L 539.50627 429.212394 
L 539.943574 429.161309 
L 540.380878 427.276523 
L 540.818182 430.883694 
L 541.255486 425.704719 
L 541.69279 424.424395 
L 542.130094 433.184167 
L 542.567398 438.730238 
L 543.004702 438.998789 
L 543.87931 438.129102 
L 544.316614 437.055433 
L 544.753918 437.834474 
L 545.191223 448.117816 
L 545.628527 450.419834 
L 546.065831 451.497126 
L 546.503135 457.02603 
L 546.940439 459.479817 
L 547.377743 458.906599 
L 547.815047 466.218061 
L 548.252351 468.984355 
L 548.689655 468.419691 
L 549.126959 467.560935 
L 549.564263 470.501985 
L 550.001567 470.181399 
L 550.438871 477.205481 
L 550.876176 480.462246 
L 551.750784 484.240492 
L 552.188088 490.238722 
L 552.625392 492.185404 
L 553.062696 492.868097 
L 553.5 498.250756 
L 553.937304 498.96012 
L 554.374608 501.840048 
L 554.811912 501.585575 
L 555.249216 504.639962 
L 556.123824 513.171457 
L 556.561129 515.224644 
L 556.998433 515.824354 
L 557.435737 523.013392 
L 557.873041 524.735657 
L 558.310345 530.999825 
L 558.747649 534.223801 
L 559.184953 540.896586 
L 559.622257 542.477122 
L 560.496865 556.242061 
L 560.934169 569.865508 
L 561.371473 568.655337 
L 561.808777 571.536511 
L 562.246082 572.583331 
L 562.683386 579.005267 
L 563.12069 577.739436 
L 563.557994 574.234524 
L 563.995298 579.649468 
L 564.432602 577.216413 
L 564.869906 576.632949 
L 565.30721 575.813812 
L 565.744514 576.478121 
L 566.181818 576.619851 
L 566.619122 578.822015 
L 567.49373 585.258385 
L 568.368339 587.093186 
L 568.805643 591.543105 
L 569.242947 589.85354 
L 570.117555 597.119946 
L 570.554859 599.144681 
L 570.992163 598.519963 
L 571.429467 599.439606 
L 572.304075 596.126112 
L 572.741379 593.619459 
L 574.053292 587.930737 
L 574.490596 588.208822 
L 574.9279 586.913736 
L 575.365204 586.549818 
L 575.802508 584.824077 
L 576.239812 584.903822 
L 576.677116 579.9536 
L 577.11442 580.335161 
L 577.551724 580.353605 
L 577.989028 579.144799 
L 578.426332 579.067816 
L 578.863636 577.196513 
L 579.30094 575.827355 
L 579.738245 572.941696 
L 580.175549 571.634998 
L 580.612853 569.507738 
L 581.050157 564.348514 
L 581.924765 556.317619 
L 582.799373 543.692699 
L 583.673981 524.295498 
L 584.111285 520.648647 
L 584.985893 502.531591 
L 585.423197 498.367063 
L 586.297806 480.762161 
L 587.172414 468.125123 
L 587.609718 466.178501 
L 588.047022 452.940921 
L 588.484326 447.55933 
L 588.92163 433.745207 
L 589.358934 436.019484 
L 589.796238 426.535023 
L 590.233542 420.019591 
L 590.670846 411.205408 
L 591.982759 400.00967 
L 592.420063 386.446753 
L 594.606583 334.716229 
L 595.043887 332.610887 
L 595.481191 323.593673 
L 595.918495 319.353171 
L 596.355799 310.846803 
L 596.793103 310.986217 
L 597.230408 304.924903 
L 597.667712 297.222762 
L 598.105016 283.615353 
L 598.54232 288.161769 
L 598.979624 276.756703 
L 599.854232 262.739964 
L 600.291536 261.110363 
L 600.72884 254.566596 
L 601.166144 245.378664 
L 601.603448 252.31109 
L 602.040752 239.263712 
L 602.478056 244.803486 
L 602.915361 241.594716 
L 603.352665 256.421326 
L 603.789969 248.300528 
L 604.227273 250.693785 
L 604.664577 244.45225 
L 605.101881 258.804722 
L 605.539185 264.023733 
L 605.976489 259.297333 
L 606.413793 250.567856 
L 606.851097 249.247139 
L 607.288401 228.934928 
L 607.725705 215.15894 
L 608.163009 211.884888 
L 608.600313 217.788612 
L 609.037618 205.728712 
L 609.474922 189.197835 
L 609.912226 191.854594 
L 610.34953 192.321602 
L 610.786834 197.952973 
L 611.224138 211.939775 
L 611.661442 208.580602 
L 612.098746 203.938373 
L 612.53605 187.378152 
L 612.973354 159.735055 
L 614.285266 170.621196 
L 614.722571 166.719278 
L 615.159875 165.456952 
L 615.597179 165.171829 
L 616.034483 162.890186 
L 616.471787 162.202384 
L 617.346395 160.132089 
L 617.783699 157.450204 
L 618.221003 156.843782 
L 618.658307 157.721785 
L 619.095611 157.610527 
L 619.532915 153.720549 
L 619.970219 150.834266 
L 620.407524 153.628953 
L 620.844828 154.438348 
L 621.282132 156.10549 
L 621.719436 149.607818 
L 623.031348 175.006338 
L 623.468652 176.680193 
L 623.905956 182.170368 
L 624.34326 183.023719 
L 624.780564 182.33069 
L 625.217868 187.814807 
L 625.655172 186.832912 
L 626.092476 193.490075 
L 626.529781 195.687487 
L 626.967085 199.816197 
L 627.404389 208.637449 
L 627.841693 207.443493 
L 628.278997 208.940868 
L 629.153605 211.104481 
L 629.590909 203.978943 
L 630.028213 204.67316 
L 630.465517 204.371879 
L 630.902821 198.236137 
L 631.340125 196.039853 
L 631.777429 201.059455 
L 634.401254 174.252543 
L 634.838558 173.510746 
L 635.275862 178.230434 
L 635.713166 170.04085 
L 636.15047 165.349318 
L 636.587774 162.436067 
L 637.025078 156.888332 
L 637.462382 155.007348 
L 637.899687 159.922999 
L 638.336991 160.674418 
L 638.774295 166.141368 
L 639.211599 170.144267 
L 639.648903 184.045294 
L 640.086207 187.371024 
L 640.523511 198.525953 
L 640.960815 202.059645 
L 641.835423 205.512315 
L 642.272727 211.213363 
L 642.710031 206.564956 
L 643.147335 217.442187 
L 643.584639 220.875432 
L 644.021944 230.520394 
L 644.459248 228.442496 
L 644.896552 230.765125 
L 645.333856 243.085497 
L 645.77116 245.067048 
L 646.208464 242.587719 
L 646.645768 237.88698 
L 647.083072 241.218294 
L 647.520376 242.141441 
L 647.95768 244.782459 
L 648.394984 243.871904 
L 648.832288 253.056985 
L 649.269592 255.75378 
L 649.706897 250.953426 
L 650.144201 256.862555 
L 650.581505 260.017092 
L 651.018809 268.413509 
L 651.456113 267.348513 
L 651.893417 271.952785 
L 652.330721 271.610102 
L 652.768025 281.767989 
L 653.205329 284.395642 
L 654.079937 296.113571 
L 654.517241 295.444362 
L 654.954545 299.272979 
L 655.39185 299.970938 
L 655.829154 298.147573 
L 656.266458 297.554634 
L 657.141066 307.869874 
L 657.57837 309.829862 
L 658.015674 316.629824 
L 658.452978 317.359859 
L 658.890282 314.239121 
L 659.327586 318.460377 
L 659.76489 325.235154 
L 660.202194 328.507364 
L 660.639498 329.566776 
L 661.514107 337.30634 
L 661.951411 340.084989 
L 662.826019 349.683024 
L 663.263323 354.808597 
L 663.700627 355.398803 
L 664.137931 356.378738 
L 664.575235 360.94143 
L 665.012539 366.823531 
L 665.449843 369.321749 
L 665.887147 373.082293 
L 666.324451 375.658682 
L 667.19906 382.996221 
L 667.636364 383.556489 
L 668.073668 384.608299 
L 668.510972 383.01814 
L 668.948276 378.411789 
L 669.822884 376.130978 
L 670.260188 378.465963 
L 670.697492 379.671679 
L 671.134796 373.275524 
L 671.5721 378.215172 
L 672.009404 379.717952 
L 672.446708 376.914949 
L 672.884013 382.170373 
L 673.321317 384.413345 
L 673.758621 383.715921 
L 674.633229 385.188882 
L 675.070533 386.889407 
L 676.382445 378.986848 
L 676.819749 380.865516 
L 677.257053 379.23942 
L 677.694357 378.927566 
L 678.131661 377.565982 
L 678.568966 379.209363 
L 679.443574 378.273742 
L 679.880878 376.598818 
L 680.318182 375.703589 
L 681.19279 377.853184 
L 681.630094 376.729084 
L 682.067398 377.184866 
L 682.504702 377.818613 
L 683.37931 382.308836 
L 683.816614 382.394848 
L 684.253918 381.209803 
L 684.691223 384.568263 
L 685.128527 382.165026 
L 685.565831 385.641456 
L 686.003135 386.630479 
L 686.440439 388.439054 
L 686.877743 387.794437 
L 688.189655 401.018117 
L 688.626959 399.912847 
L 689.501567 396.859885 
L 689.938871 394.565649 
L 690.376176 394.123529 
L 690.81348 394.420771 
L 691.250784 396.96247 
L 691.688088 403.214044 
L 692.125392 400.949509 
L 692.562696 402.786834 
L 693 401.765616 
L 693.437304 402.593306 
L 693.874608 400.525863 
L 694.311912 401.058866 
L 694.749216 397.201439 
L 695.623824 409.85012 
L 696.061129 419.279932 
L 696.498433 416.71572 
L 696.935737 409.827191 
L 697.373041 408.903984 
L 697.810345 408.955723 
L 698.247649 410.219771 
L 698.684953 414.352936 
L 699.122257 413.218262 
L 699.996865 421.97441 
L 700.434169 422.709554 
L 700.871473 426.61367 
L 701.308777 424.872396 
L 702.183386 415.932402 
L 702.62069 422.904686 
L 703.057994 418.089066 
L 703.495298 425.069665 
L 703.932602 424.066921 
L 704.369906 417.472723 
L 704.80721 417.704743 
L 705.244514 420.026659 
L 705.681818 420.903533 
L 706.119122 423.058653 
L 706.556426 428.221648 
L 706.99373 426.246929 
L 707.431034 425.291171 
L 707.868339 422.369604 
L 708.305643 421.375354 
L 708.742947 419.822083 
L 709.180251 424.119966 
L 709.617555 423.669352 
L 710.054859 431.961105 
L 710.929467 424.449581 
L 711.366771 418.695666 
L 711.804075 425.675078 
L 712.241379 416.778328 
L 712.678683 416.646399 
L 713.115987 417.132476 
L 713.553292 418.855811 
L 713.990596 411.546428 
L 714.865204 414.49924 
L 715.302508 407.304322 
L 715.739812 404.701796 
L 716.177116 409.077078 
L 716.61442 410.129422 
L 717.051724 413.955129 
L 717.489028 410.067051 
L 717.926332 413.980909 
L 718.363636 414.920807 
L 718.80094 418.643631 
L 719.238245 419.203305 
L 719.675549 418.018735 
L 720.112853 408.02711 
L 720.550157 416.826681 
L 720.987461 417.758203 
L 721.424765 425.010621 
L 721.862069 411.65519 
L 722.299373 416.830839 
L 722.736677 415.194347 
L 723.173981 425.466403 
L 723.611285 423.682004 
L 724.048589 423.406385 
L 724.485893 424.892532 
L 724.923197 421.56906 
L 725.360502 421.171787 
L 725.797806 422.072006 
L 726.672414 416.785694 
L 727.547022 422.831207 
L 728.858934 439.424217 
L 729.296238 433.610605 
L 729.733542 423.778827 
L 730.170846 424.673759 
L 730.60815 431.012356 
L 731.045455 431.401787 
L 731.482759 419.199147 
L 731.920063 419.267339 
L 732.357367 422.504206 
L 732.794671 420.932877 
L 733.231975 415.505786 
L 733.669279 425.644071 
L 734.106583 426.423587 
L 734.543887 419.837943 
L 734.981191 418.700418 
L 735.418495 412.428588 
L 735.855799 414.85214 
L 736.293103 407.527134 
L 736.730408 408.293107 
L 737.167712 405.695333 
L 738.04232 424.48338 
L 738.916928 410.843954 
L 739.354232 415.793107 
L 739.791536 430.361086 
L 740.666144 425.162152 
L 741.103448 407.827286 
L 741.540752 402.607741 
L 741.978056 409.912431 
L 742.852665 394.823746 
L 743.289969 402.866728 
L 743.727273 399.989771 
L 744.164577 382.986361 
L 744.601881 379.362439 
L 745.039185 378.547995 
L 745.476489 387.427222 
L 745.913793 385.259331 
L 746.351097 396.681802 
L 746.788401 395.932104 
L 747.225705 398.291028 
L 747.663009 394.977059 
L 748.100313 401.212417 
L 748.537618 400.263014 
L 748.974922 392.092677 
L 749.412226 390.551286 
L 749.84953 391.784624 
L 750.286834 386.130622 
L 750.724138 401.365671 
L 751.161442 397.794437 
L 751.598746 397.086261 
L 752.03605 393.276534 
L 752.473354 397.159562 
L 752.910658 394.536365 
L 753.347962 390.137976 
L 753.785266 379.675659 
L 754.222571 387.199538 
L 754.659875 390.114928 
L 755.097179 385.679592 
L 755.534483 378.942832 
L 755.971787 378.582329 
L 756.409091 368.940396 
L 756.846395 374.205799 
L 757.283699 384.265735 
L 757.721003 390.317425 
L 758.158307 387.72084 
L 758.595611 379.567728 
L 759.032915 390.11873 
L 759.470219 390.260698 
L 760.344828 377.495948 
L 760.782132 386.600482 
L 761.219436 391.667367 
L 761.65674 386.697246 
L 762.094044 388.304868 
L 762.531348 394.436809 
L 762.968652 397.821643 
L 763.405956 391.761458 
L 763.84326 395.867239 
L 764.280564 395.91173 
L 764.717868 390.556276 
L 765.592476 395.261707 
L 766.029781 400.973091 
L 766.467085 400.190545 
L 766.904389 403.554708 
L 767.341693 402.409461 
L 767.778997 397.962482 
L 768.216301 395.964537 
L 768.653605 398.247368 
L 769.090909 404.797075 
L 769.528213 401.159728 
L 769.965517 401.690058 
L 770.402821 409.873524 
L 770.840125 414.024746 
L 771.277429 411.654596 
L 771.714734 412.606791 
L 772.152038 415.223573 
L 772.589342 416.571851 
L 773.026646 415.798691 
L 773.46395 414.063951 
L 773.901254 413.567954 
L 774.775862 402.705455 
L 775.213166 401.436358 
L 775.65047 416.526766 
L 776.087774 415.636052 
L 776.525078 421.78017 
L 776.962382 421.223347 
L 777.399687 421.881686 
L 777.836991 421.894635 
L 778.274295 416.619431 
L 778.711599 416.796208 
L 779.148903 426.744411 
L 779.586207 427.472902 
L 780.023511 427.814515 
L 780.460815 428.41179 
L 780.898119 431.145116 
L 781.335423 431.179985 
L 781.772727 432.891558 
L 782.210031 437.352972 
L 782.647335 437.870352 
L 783.084639 436.717087 
L 783.521944 432.852829 
L 783.959248 433.877314 
L 784.833856 445.81669 
L 785.27116 443.168663 
L 785.708464 445.410211 
L 786.145768 452.377742 
L 787.020376 454.043518 
L 787.45768 454.240372 
L 787.894984 456.125277 
L 788.769592 465.970776 
L 789.206897 469.087297 
L 789.644201 474.253084 
L 790.081505 478.07689 
L 790.518809 476.743105 
L 790.956113 474.267341 
L 791.393417 468.083364 
L 791.830721 471.317617 
L 792.268025 470.750399 
L 792.705329 473.234777 
L 793.142633 472.985413 
L 793.579937 474.618458 
L 794.017241 477.381604 
L 794.454545 481.570487 
L 794.89185 480.144749 
L 795.329154 482.888233 
L 796.203762 491.102884 
L 796.641066 490.146235 
L 797.07837 493.125005 
L 797.515674 500.528419 
L 797.952978 500.272996 
L 798.390282 503.127856 
L 798.827586 499.656951 
L 799.702194 512.302067 
L 800.139498 514.797196 
L 800.576803 507.797113 
L 801.014107 515.725571 
L 801.451411 519.447088 
L 801.888715 518.524773 
L 802.326019 520.047868 
L 802.763323 520.082082 
L 803.200627 522.232093 
L 803.637931 521.507641 
L 804.075235 521.979937 
L 805.387147 530.54725 
L 805.824451 531.308827 
L 806.261755 528.756258 
L 806.69906 531.160801 
L 807.136364 532.04112 
L 807.573668 532.608754 
L 808.010972 534.726569 
L 808.448276 535.198568 
L 808.88558 535.086597 
L 809.322884 532.840357 
L 809.760188 526.429827 
L 810.197492 524.282429 
L 810.634796 523.558512 
L 811.0721 524.497163 
L 811.509404 528.613577 
L 811.946708 535.738758 
L 812.384013 534.700968 
L 812.821317 536.662024 
L 813.258621 539.803137 
L 813.695925 544.59767 
L 814.133229 545.517372 
L 814.570533 542.369488 
L 815.007837 542.539493 
L 815.445141 542.589449 
L 815.882445 543.957745 
L 816.319749 541.803458 
L 816.757053 542.987553 
L 817.194357 541.982848 
L 817.631661 543.931431 
L 818.068966 546.720119 
L 818.50627 548.136411 
L 818.943574 551.083046 
L 819.380878 552.834061 
L 819.818182 555.111011 
L 820.255486 556.535858 
L 820.69279 558.429495 
L 821.130094 559.660368 
L 821.567398 555.662429 
L 822.004702 553.575205 
L 822.442006 553.449988 
L 822.87931 555.968877 
L 823.316614 556.814685 
L 823.753918 558.699471 
L 824.191223 559.331971 
L 825.065831 561.344736 
L 825.503135 566.316431 
L 825.940439 566.176394 
L 826.377743 565.531629 
L 826.815047 559.837887 
L 827.252351 560.377068 
L 827.689655 559.03063 
L 828.564263 551.780945 
L 829.001567 554.158045 
L 829.438871 552.79058 
L 829.876176 555.082083 
L 830.31348 554.288133 
L 830.750784 552.714785 
L 831.188088 551.976492 
L 831.625392 547.504803 
L 832.062696 541.249664 
L 832.5 545.182708 
L 833.374608 539.255284 
L 833.811912 537.914905 
L 834.249216 537.69732 
L 835.123824 531.121596 
L 835.561129 532.722269 
L 835.998433 532.424849 
L 836.435737 526.323915 
L 836.873041 526.109835 
L 837.747649 519.513558 
L 838.184953 515.011395 
L 838.622257 516.929624 
L 839.059561 519.547357 
L 839.496865 518.950141 
L 839.934169 516.603574 
L 840.371473 515.830235 
L 840.808777 507.563371 
L 841.246082 509.942609 
L 841.683386 508.706954 
L 842.557994 503.46852 
L 842.995298 498.770157 
L 843.432602 498.443334 
L 843.869906 495.547487 
L 844.30721 496.908358 
L 844.744514 492.524344 
L 845.181818 491.824009 
L 845.619122 488.435255 
L 846.49373 485.819126 
L 846.931034 481.28958 
L 847.368339 479.444593 
L 847.805643 475.712027 
L 848.242947 475.933532 
L 848.680251 473.000916 
L 849.117555 473.585301 
L 849.554859 470.969351 
L 849.992163 470.491471 
L 850.429467 466.869213 
L 850.866771 465.669555 
L 851.304075 459.604024 
L 851.741379 457.832336 
L 852.178683 452.973057 
L 852.615987 449.984248 
L 853.053292 441.618363 
L 853.490596 439.706252 
L 853.9279 434.857546 
L 854.365204 428.589042 
L 854.802508 427.088519 
L 855.239812 428.877255 
L 855.677116 426.645449 
L 856.11442 422.499038 
L 856.551724 420.638547 
L 856.989028 420.872823 
L 857.863636 416.199646 
L 858.30094 416.695048 
L 858.738245 414.961615 
L 859.175549 414.511773 
L 859.612853 415.061706 
L 860.050157 414.617091 
L 860.487461 422.093628 
L 860.924765 425.984437 
L 861.362069 426.911743 
L 861.799373 430.913097 
L 862.236677 430.581047 
L 862.673981 425.028738 
L 863.111285 424.927757 
L 863.548589 419.308682 
L 863.985893 420.074239 
L 864.860502 404.832894 
L 865.297806 405.256896 
L 865.73511 407.932841 
L 866.172414 408.834604 
L 866.609718 412.502661 
L 867.047022 410.982358 
L 867.484326 416.373393 
L 867.92163 417.532599 
L 868.358934 419.452551 
L 868.796238 420.193397 
L 869.233542 420.160549 
L 869.670846 418.124884 
L 870.10815 420.694561 
L 870.545455 420.698244 
L 870.982759 422.106933 
L 871.857367 428.975385 
L 872.294671 436.791219 
L 872.731975 436.46493 
L 873.169279 437.323925 
L 873.606583 441.391511 
L 874.043887 440.810096 
L 874.481191 439.018807 
L 874.918495 441.418776 
L 875.355799 439.478569 
L 875.793103 440.372016 
L 876.230408 441.001961 
L 876.667712 443.072731 
L 877.105016 439.430276 
L 877.54232 439.116937 
L 877.979624 442.76747 
L 878.416928 438.528572 
L 878.854232 442.833168 
L 879.291536 441.66624 
L 879.72884 441.93984 
L 880.166144 439.962982 
L 880.603448 441.898497 
L 881.040752 449.9672 
L 881.478056 449.08492 
L 881.915361 445.899019 
L 882.352665 449.352045 
L 882.789969 446.009505 
L 883.664577 452.204708 
L 884.101881 457.705753 
L 884.539185 460.094496 
L 884.976489 468.804668 
L 885.413793 469.279042 
L 885.851097 470.954144 
L 886.288401 467.791469 
L 886.725705 469.438118 
L 887.163009 470.314398 
L 887.600313 469.641981 
L 888.474922 473.078969 
L 888.912226 476.699564 
L 889.34953 473.012915 
L 889.786834 473.27119 
L 890.224138 476.98849 
L 890.661442 479.272865 
L 891.098746 477.870353 
L 891.53605 480.380808 
L 891.973354 479.195525 
L 892.847962 473.816013 
L 893.285266 475.940719 
L 893.722571 477.281929 
L 894.159875 477.65657 
L 894.597179 481.265226 
L 895.471787 484.759357 
L 895.909091 480.682267 
L 897.658307 471.437072 
L 898.095611 471.31637 
L 898.532915 471.584089 
L 898.970219 470.497233 
L 899.407524 468.324294 
L 899.844828 468.272318 
L 900.282132 462.095292 
L 902.031348 457.232983 
L 902.468652 454.369153 
L 902.905956 453.143418 
L 903.780564 448.56552 
L 904.217868 450.801187 
L 904.655172 449.596064 
L 905.092476 449.069654 
L 905.529781 448.028537 
L 906.404389 446.677466 
L 906.841693 445.247809 
L 907.278997 443.137953 
L 908.153605 437.289532 
L 908.590909 437.098202 
L 909.028213 437.68918 
L 909.465517 442.787429 
L 910.340125 446.104606 
L 910.777429 447.605841 
L 911.214734 448.269288 
L 911.652038 443.625752 
L 912.089342 442.074858 
L 912.526646 441.422934 
L 912.96395 441.013009 
L 913.401254 442.074858 
L 913.838558 434.252549 
L 914.275862 444.851606 
L 914.713166 450.913632 
L 915.15047 454.449938 
L 915.587774 453.336649 
L 916.025078 451.553735 
L 916.462382 451.261186 
L 916.899687 453.845892 
L 917.336991 451.579752 
L 917.774295 451.146424 
L 918.211599 451.009624 
L 918.648903 453.106233 
L 919.086207 450.95248 
L 919.523511 449.847329 
L 919.960815 449.816975 
L 920.835423 445.039728 
L 921.710031 430.585918 
L 922.584639 440.155441 
L 923.021944 442.47017 
L 923.459248 440.090634 
L 923.896552 448.921509 
L 924.333856 446.611175 
L 924.77116 445.911494 
L 925.208464 439.926688 
L 926.083072 451.24592 
L 926.520376 446.969243 
L 926.95768 445.292894 
L 927.394984 447.195085 
L 927.832288 450.615856 
L 928.269592 449.375687 
L 928.706897 441.159135 
L 929.144201 438.798549 
L 929.581505 433.899174 
L 930.018809 440.406646 
L 930.456113 431.345297 
L 930.893417 417.249792 
L 931.330721 416.250968 
L 931.768025 420.655476 
L 932.205329 417.040939 
L 932.642633 414.551631 
L 933.517241 414.094602 
L 933.954545 410.19506 
L 933.954545 410.19506 
" style="fill:none;stroke:#ff0000;stroke-linecap:square;stroke-width:1.5;"/>
   </g>
   <g id="line2d_36">
    <path clip-path="url(#pc259b49822)" d="M 173.045455 544.139393 
L 174.357367 557.96308 
L 174.794671 560.219982 
L 175.231975 560.243119 
L 175.669279 558.972537 
L 176.106583 559.537616 
L 176.543887 559.646201 
L 176.981191 557.711161 
L 177.855799 556.257624 
L 178.293103 557.079256 
L 178.730408 556.797874 
L 179.167712 556.200719 
L 179.605016 555.227734 
L 180.04232 553.327622 
L 180.479624 552.253122 
L 180.916928 552.503258 
L 181.791536 554.043283 
L 182.22884 553.822252 
L 182.666144 554.102921 
L 183.103448 556.107638 
L 183.978056 563.011848 
L 184.415361 564.187092 
L 184.852665 564.502867 
L 185.289969 563.117344 
L 186.164577 558.289309 
L 186.601881 557.406673 
L 187.039185 556.222459 
L 187.476489 553.674166 
L 187.913793 552.177386 
L 188.351097 551.227508 
L 188.788401 549.587215 
L 189.663009 547.011064 
L 190.537618 546.504019 
L 191.84953 542.351073 
L 192.286834 541.915488 
L 192.724138 541.104905 
L 193.161442 538.875178 
L 194.03605 528.943014 
L 194.910658 516.740968 
L 195.347962 513.016955 
L 195.785266 513.224739 
L 196.222571 513.734041 
L 197.097179 518.212206 
L 197.971787 528.526258 
L 198.409091 531.899271 
L 198.846395 532.249379 
L 199.721003 529.874121 
L 200.158307 527.824735 
L 200.595611 525.171897 
L 201.032915 521.015863 
L 202.782132 497.70118 
L 203.219436 488.686758 
L 203.65674 477.286206 
L 204.968652 437.110676 
L 205.84326 411.39448 
L 206.717868 383.250635 
L 208.029781 342.745965 
L 208.467085 335.663077 
L 208.904389 332.530696 
L 209.341693 332.675397 
L 209.778997 332.219555 
L 211.090909 323.962017 
L 211.528213 323.518115 
L 211.965517 321.489044 
L 212.402821 317.981488 
L 212.840125 316.546901 
L 213.277429 316.376183 
L 213.714734 314.589467 
L 214.589342 305.760078 
L 215.026646 301.053755 
L 215.901254 289.727692 
L 217.213166 276.405882 
L 218.525078 258.076409 
L 219.399687 255.066454 
L 219.836991 252.613737 
L 220.274295 253.200676 
L 221.148903 258.028651 
L 221.586207 259.472684 
L 222.023511 263.752806 
L 222.460815 272.128017 
L 223.772727 305.854347 
L 224.210031 313.93 
L 225.084639 338.047899 
L 225.521944 346.449425 
L 225.959248 352.695237 
L 226.396552 355.147538 
L 227.27116 362.088696 
L 227.708464 363.010952 
L 228.145768 362.012485 
L 229.45768 347.028701 
L 229.894984 346.001721 
L 230.332288 348.150544 
L 231.206897 357.376314 
L 232.081505 369.217679 
L 232.956113 386.654536 
L 233.830721 407.946444 
L 234.268025 419.533989 
L 234.705329 426.711621 
L 235.579937 447.05971 
L 236.454545 465.619124 
L 236.89185 471.183253 
L 237.329154 474.877624 
L 237.766458 476.734017 
L 238.203762 479.16434 
L 238.641066 479.718252 
L 239.07837 477.592774 
L 239.515674 476.069679 
L 240.827586 465.884467 
L 242.139498 451.969897 
L 243.014107 437.681577 
L 244.326019 414.134281 
L 245.200627 402.566636 
L 245.637931 398.321085 
L 246.075235 395.707332 
L 246.512539 394.603963 
L 246.949843 395.769643 
L 247.387147 395.641991 
L 247.824451 394.232352 
L 248.261755 394.182693 
L 248.69906 393.471012 
L 250.010972 375.478342 
L 250.448276 373.281404 
L 251.322884 363.389929 
L 252.634796 347.263393 
L 253.0721 346.123849 
L 253.509404 346.980764 
L 253.946708 346.683464 
L 254.384013 345.933588 
L 254.821317 345.869495 
L 255.258621 344.831526 
L 255.695925 343.478911 
L 256.133229 341.404636 
L 256.570533 337.313646 
L 257.882445 320.384606 
L 258.319749 317.162114 
L 258.757053 316.245026 
L 259.194357 315.784729 
L 259.631661 317.452881 
L 260.068966 320.155794 
L 260.943574 323.851472 
L 261.380878 323.971878 
L 261.818182 322.731233 
L 262.255486 321.042529 
L 262.69279 323.453071 
L 263.130094 327.360097 
L 264.442006 342.414984 
L 265.316614 354.576222 
L 265.753918 359.816557 
L 267.065831 382.973114 
L 267.503135 385.113621 
L 268.377743 382.292857 
L 268.815047 379.911955 
L 269.252351 381.118623 
L 269.689655 381.394005 
L 270.126959 382.00803 
L 271.001567 374.523415 
L 271.438871 372.28656 
L 271.876176 368.957028 
L 272.750784 359.945813 
L 273.625392 356.840816 
L 274.062696 352.666546 
L 274.5 346.382302 
L 274.937304 341.735974 
L 275.374608 341.812304 
L 276.249216 349.625643 
L 276.68652 354.853267 
L 277.561129 376.563831 
L 277.998433 382.81297 
L 278.435737 386.782961 
L 278.873041 386.511618 
L 279.310345 389.957575 
L 279.747649 391.543457 
L 280.184953 390.683453 
L 280.622257 386.754151 
L 281.059561 383.834901 
L 282.808777 368.396345 
L 283.246082 367.121307 
L 283.683386 366.195487 
L 284.12069 368.948772 
L 284.557994 373.834366 
L 286.744514 407.714544 
L 287.181818 412.087628 
L 287.619122 413.630682 
L 288.056426 414.001045 
L 288.49373 414.584836 
L 288.931034 414.97403 
L 289.368339 418.061682 
L 291.117555 443.229608 
L 291.554859 447.337884 
L 291.992163 449.118838 
L 292.429467 448.224678 
L 292.866771 444.665563 
L 293.304075 443.705112 
L 293.741379 443.613219 
L 294.615987 444.408417 
L 295.053292 446.468316 
L 297.239812 461.242237 
L 297.677116 462.492921 
L 298.11442 463.194681 
L 298.551724 463.31277 
L 298.989028 462.823426 
L 299.426332 461.455783 
L 299.863636 461.059758 
L 301.175549 459.085811 
L 301.612853 460.167143 
L 302.050157 462.9509 
L 302.487461 464.472214 
L 302.924765 465.067112 
L 303.362069 467.139189 
L 303.799373 470.04947 
L 304.236677 471.679368 
L 304.673981 470.611164 
L 305.111285 466.811237 
L 305.548589 460.946719 
L 306.860502 440.427793 
L 307.297806 436.909426 
L 307.73511 435.658565 
L 308.172414 435.198328 
L 308.609718 435.473532 
L 309.047022 434.87994 
L 309.484326 432.199539 
L 309.92163 428.091739 
L 310.358934 422.311747 
L 310.796238 414.325255 
L 312.10815 396.862558 
L 312.545455 392.908605 
L 312.982759 392.073193 
L 313.420063 393.778946 
L 314.294671 403.654858 
L 315.169279 413.388742 
L 316.043887 423.466795 
L 316.918495 433.629375 
L 317.793103 440.48755 
L 318.230408 442.5762 
L 318.667712 443.706775 
L 319.105016 445.482204 
L 319.54232 446.235644 
L 319.979624 442.998599 
L 322.166144 410.395597 
L 322.603448 406.649963 
L 323.040752 404.54379 
L 323.478056 403.598605 
L 324.352665 403.967543 
L 324.789969 403.695131 
L 325.227273 402.757609 
L 325.664577 401.15955 
L 326.539185 395.732221 
L 326.976489 394.501972 
L 327.413793 394.236034 
L 327.851097 393.33142 
L 328.288401 395.397557 
L 328.725705 399.834675 
L 329.600313 405.556276 
L 330.037618 408.309383 
L 330.474922 407.366039 
L 331.786834 400.375757 
L 332.224138 401.43119 
L 332.661442 403.303918 
L 333.098746 402.593425 
L 333.53605 399.080583 
L 333.973354 390.323425 
L 334.410658 376.08518 
L 334.847962 367.733907 
L 335.285266 363.727029 
L 335.722571 361.177072 
L 336.159875 359.770522 
L 336.597179 361.315773 
L 337.034483 364.378774 
L 337.909091 376.963183 
L 339.221003 396.521717 
L 339.658307 401.356523 
L 340.532915 412.405184 
L 341.407524 417.973709 
L 341.844828 418.816844 
L 342.282132 417.786062 
L 342.719436 415.629755 
L 343.15674 409.84911 
L 344.031348 394.139033 
L 345.780564 379.268823 
L 346.217868 381.427982 
L 347.092476 389.215185 
L 347.967085 392.774063 
L 348.404389 393.578468 
L 348.841693 393.551619 
L 349.278997 392.968006 
L 349.716301 391.994606 
L 350.153605 390.56679 
L 350.590909 387.318459 
L 351.902821 375.644604 
L 352.340125 373.061087 
L 352.777429 373.414165 
L 353.652038 377.42342 
L 354.526646 380.655 
L 355.401254 383.557143 
L 355.838558 383.8469 
L 356.275862 383.354586 
L 357.15047 380.097167 
L 357.587774 375.411753 
L 358.462382 360.736556 
L 358.899687 356.732588 
L 359.336991 348.009111 
L 359.774295 334.991433 
L 360.211599 329.475537 
L 360.648903 328.902735 
L 361.086207 332.279194 
L 361.523511 336.828936 
L 362.398119 350.745763 
L 362.835423 359.130597 
L 363.272727 358.152148 
L 363.710031 353.898934 
L 364.147335 348.212083 
L 364.584639 346.095634 
L 365.021944 348.613573 
L 365.459248 349.188513 
L 365.896552 346.110068 
L 366.333856 341.754091 
L 366.77116 344.11842 
L 367.208464 349.79149 
L 368.520376 373.682953 
L 368.95768 372.557725 
L 369.394984 370.750397 
L 369.832288 377.152374 
L 371.144201 416.050075 
L 371.581505 421.24782 
L 372.018809 413.501663 
L 372.456113 402.91021 
L 372.893417 402.270998 
L 373.330721 407.524936 
L 373.768025 407.406254 
L 374.205329 406.011464 
L 374.642633 409.501081 
L 375.079937 418.426165 
L 375.517241 423.348766 
L 375.954545 425.490995 
L 376.39185 432.810298 
L 376.829154 443.396525 
L 377.266458 460.146947 
L 377.703762 467.555529 
L 378.141066 469.849527 
L 378.57837 459.111116 
L 379.015674 456.765083 
L 379.452978 469.339394 
L 379.890282 469.255223 
L 380.327586 446.231426 
L 380.76489 439.235204 
L 381.202194 445.921176 
L 381.639498 458.777106 
L 382.076803 463.997186 
L 382.514107 471.231546 
L 382.951411 480.759131 
L 383.826019 509.027362 
L 384.263323 518.517941 
L 384.700627 530.742738 
L 385.575235 560.799823 
L 386.887147 586.398672 
L 387.324451 586.971207 
L 387.761755 580.516838 
L 388.19906 570.479059 
L 389.510972 530.6692 
L 389.948276 532.849267 
L 390.38558 533.272973 
L 390.822884 531.255367 
L 391.260188 528.646663 
L 391.697492 527.763374 
L 392.134796 526.248357 
L 393.009404 516.429232 
L 393.446708 516.264989 
L 393.884013 517.369131 
L 395.633229 527.724229 
L 396.070533 526.87361 
L 396.945141 521.701704 
L 397.382445 521.5633 
L 397.819749 523.125718 
L 398.257053 521.641353 
L 398.694357 517.447064 
L 399.131661 515.008604 
L 399.568966 517.10355 
L 401.318182 536.009507 
L 401.755486 538.169378 
L 402.19279 538.374905 
L 402.630094 537.824794 
L 403.504702 530.678229 
L 404.37931 521.250317 
L 404.816614 520.44217 
L 405.253918 523.248025 
L 406.565831 535.031711 
L 407.003135 534.580681 
L 407.440439 536.370723 
L 407.877743 539.405983 
L 408.315047 539.901505 
L 408.752351 539.318248 
L 409.189655 536.613672 
L 409.626959 536.095104 
L 410.064263 534.933343 
L 410.501567 530.783843 
L 411.376176 508.61518 
L 411.81348 505.204567 
L 412.688088 495.800118 
L 413.125392 489.505182 
L 414 482.446826 
L 414.437304 483.378349 
L 414.874608 485.945412 
L 415.311912 486.967106 
L 415.749216 487.433996 
L 416.18652 491.963542 
L 416.623824 499.450177 
L 417.498433 509.023085 
L 418.810345 520.89813 
L 419.247649 520.456783 
L 419.684953 519.709818 
L 420.122257 519.35573 
L 420.559561 521.089282 
L 420.996865 525.390016 
L 422.746082 548.845003 
L 423.183386 551.747205 
L 423.62069 551.77352 
L 424.057994 550.998518 
L 424.495298 547.729575 
L 426.244514 531.063265 
L 426.681818 528.586015 
L 427.556426 526.297185 
L 427.99373 527.313175 
L 428.431034 528.920441 
L 428.868339 529.445069 
L 430.180251 534.417388 
L 430.617555 534.931502 
L 431.054859 537.473617 
L 431.929467 547.417543 
L 432.804075 556.112508 
L 433.241379 558.406477 
L 433.678683 557.721348 
L 434.115987 553.962616 
L 434.553292 546.643373 
L 435.4279 525.933058 
L 436.302508 503.012025 
L 436.739812 495.895575 
L 437.177116 490.880072 
L 437.61442 488.932974 
L 438.051724 489.523002 
L 438.489028 490.83962 
L 439.363636 492.296542 
L 440.675549 496.981362 
L 441.112853 496.983619 
L 441.550157 498.258181 
L 441.987461 497.440768 
L 442.424765 491.772568 
L 443.299373 475.851024 
L 444.173981 458.89662 
L 445.048589 448.236618 
L 445.923197 441.175946 
L 447.23511 432.067195 
L 447.672414 428.69139 
L 448.984326 415.665099 
L 449.858934 410.780098 
L 450.296238 406.980825 
L 450.733542 404.449818 
L 451.60815 397.089231 
L 452.045455 391.990982 
L 452.920063 378.874402 
L 453.357367 374.804083 
L 453.794671 372.923455 
L 454.231975 373.365338 
L 454.669279 372.822355 
L 455.106583 370.209612 
L 455.543887 366.781713 
L 456.855799 351.323911 
L 457.293103 351.528368 
L 457.730408 354.606397 
L 458.167712 359.348242 
L 458.605016 365.679948 
L 459.04232 367.88229 
L 459.479624 365.87597 
L 459.916928 361.559792 
L 461.22884 342.973114 
L 461.666144 341.058864 
L 462.103448 340.65286 
L 462.978056 343.177155 
L 463.415361 341.30716 
L 463.852665 334.354003 
L 465.164577 300.556868 
L 465.601881 291.235224 
L 466.039185 285.250181 
L 466.476489 284.045534 
L 467.788401 293.159393 
L 469.537618 314.469359 
L 469.974922 317.431675 
L 470.412226 316.420318 
L 471.286834 310.166902 
L 471.724138 308.070768 
L 472.161442 307.541329 
L 472.598746 309.340103 
L 474.347962 320.50614 
L 474.785266 321.989793 
L 475.222571 321.947024 
L 476.097179 320.400288 
L 476.534483 319.213045 
L 476.971787 318.978887 
L 477.409091 320.170407 
L 477.846395 322.38855 
L 479.158307 332.018781 
L 479.595611 333.123041 
L 480.032915 331.93752 
L 480.470219 329.659857 
L 480.907524 329.581805 
L 481.344828 330.89676 
L 481.782132 331.651743 
L 482.219436 333.908141 
L 483.094044 342.270224 
L 483.531348 347.349227 
L 483.968652 349.79351 
L 484.84326 352.844749 
L 485.280564 352.470821 
L 485.717868 350.80059 
L 486.155172 350.698124 
L 486.592476 350.272458 
L 487.029781 350.169516 
L 487.904389 349.358874 
L 488.778997 352.333843 
L 489.653605 357.426983 
L 490.965517 361.956648 
L 491.840125 367.522441 
L 493.152038 376.559198 
L 493.589342 378.640779 
L 494.901254 389.738268 
L 495.338558 393.424085 
L 496.213166 399.119074 
L 497.087774 409.072326 
L 498.399687 423.717051 
L 499.274295 430.553901 
L 500.586207 444.651663 
L 501.460815 453.761246 
L 501.898119 457.608158 
L 502.335423 462.550718 
L 502.772727 466.126941 
L 503.210031 468.61316 
L 503.647335 472.987135 
L 504.959248 495.431774 
L 507.145768 534.126384 
L 508.894984 551.442598 
L 509.332288 556.456558 
L 509.769592 558.269261 
L 510.206897 559.007167 
L 510.644201 559.086408 
L 511.081505 559.303161 
L 511.518809 561.842039 
L 511.956113 565.316182 
L 512.393417 569.782318 
L 512.830721 572.462213 
L 513.705329 580.401363 
L 514.142633 585.06367 
L 515.017241 588.406923 
L 515.454545 590.667954 
L 516.766458 599.418608 
L 518.07837 605.932347 
L 518.515674 605.824535 
L 519.390282 603.353285 
L 519.827586 601.185335 
L 521.576803 588.44791 
L 522.014107 585.206707 
L 522.888715 574.416795 
L 524.200627 556.25115 
L 526.387147 526.1529 
L 527.261755 516.65151 
L 528.136364 503.2207 
L 528.573668 498.751386 
L 529.010972 497.044327 
L 529.448276 496.013011 
L 530.760188 489.270251 
L 531.197492 485.507629 
L 532.509404 466.97649 
L 533.384013 451.434339 
L 533.821317 439.822618 
L 534.258621 425.004028 
L 535.133229 407.459358 
L 535.570533 396.277342 
L 536.007837 392.275096 
L 536.445141 391.212595 
L 536.882445 393.189512 
L 537.319749 395.997327 
L 537.757053 397.919595 
L 538.631661 409.121094 
L 539.068966 408.389277 
L 539.943574 403.329341 
L 540.380878 399.855406 
L 540.818182 398.597476 
L 541.255486 394.928647 
L 541.69279 390.295625 
L 542.130094 387.397165 
L 543.004702 384.32365 
L 543.442006 383.537184 
L 543.87931 381.355453 
L 544.316614 380.312317 
L 544.753918 381.140007 
L 545.191223 385.325385 
L 545.628527 391.06635 
L 546.503135 410.703174 
L 546.940439 422.741631 
L 547.377743 431.299677 
L 547.815047 432.487811 
L 548.252351 432.946267 
L 548.689655 434.350085 
L 549.126959 434.659503 
L 549.564263 434.308742 
L 550.001567 434.421069 
L 550.438871 430.952836 
L 550.876176 429.351807 
L 551.31348 434.002293 
L 551.750784 440.39435 
L 552.188088 444.895741 
L 552.625392 447.479377 
L 553.062696 448.157496 
L 553.5 447.804893 
L 553.937304 449.720627 
L 554.811912 462.469814 
L 557.435737 495.958837 
L 557.873041 497.711991 
L 559.184953 497.666906 
L 561.371473 513.000264 
L 563.12069 526.172859 
L 563.557994 528.405674 
L 563.995298 529.147352 
L 564.432602 531.108469 
L 565.30721 538.18209 
L 566.181818 542.144953 
L 567.49373 554.939818 
L 568.805643 570.829821 
L 569.242947 577.43477 
L 570.554859 605.937366 
L 570.992163 610.387048 
L 571.866771 615.6 
L 572.304075 614.039007 
L 572.741379 610.044484 
L 573.178683 607.091523 
L 574.053292 595.69807 
L 574.9279 583.547822 
L 575.365204 578.736419 
L 575.802508 576.19472 
L 576.239812 575.985926 
L 577.11442 578.139322 
L 577.551724 579.954313 
L 577.989028 582.762662 
L 578.426332 584.33304 
L 578.863636 587.601835 
L 579.738245 595.424767 
L 580.175549 597.344689 
L 580.612853 598.260857 
L 581.050157 597.263043 
L 581.487461 594.646617 
L 582.362069 585.646837 
L 583.673981 570.829167 
L 584.548589 563.627775 
L 585.423197 557.663938 
L 585.860502 553.464838 
L 586.297806 551.007072 
L 586.73511 549.557456 
L 587.172414 548.553939 
L 587.609718 547.852119 
L 588.047022 546.72291 
L 588.484326 545.18253 
L 589.358934 540.71874 
L 589.796238 537.476231 
L 590.670846 526.488336 
L 591.545455 510.690346 
L 591.982759 499.492173 
L 594.606583 415.452503 
L 595.918495 377.861441 
L 597.667712 339.902153 
L 598.105016 328.924238 
L 598.979624 316.600421 
L 599.854232 302.761527 
L 600.291536 298.462931 
L 600.72884 295.999106 
L 601.166144 292.777209 
L 602.040752 274.008051 
L 603.352665 236.866237 
L 603.789969 222.455671 
L 604.664577 202.829954 
L 605.539185 190.600049 
L 606.413793 187.906937 
L 607.288401 178.751675 
L 607.725705 178.324406 
L 609.037618 166.180632 
L 609.474922 164.550437 
L 609.912226 161.196076 
L 610.34953 159.37871 
L 610.786834 161.150456 
L 611.224138 161.034625 
L 611.661442 165.534114 
L 612.098746 174.009237 
L 612.53605 187.851398 
L 613.847962 216.991097 
L 614.722571 249.248802 
L 615.159875 256.977792 
L 615.597179 258.206497 
L 616.034483 252.857815 
L 618.658307 146.766323 
L 619.095611 134.28046 
L 619.532915 128.364797 
L 619.970219 131.769055 
L 620.844828 150.450715 
L 621.282132 152.652998 
L 621.719436 142.210819 
L 622.15674 123.659544 
L 622.594044 114.366056 
L 623.031348 111.6 
L 623.905956 113.3367 
L 624.34326 115.357989 
L 625.655172 125.756628 
L 626.967085 136.208965 
L 628.278997 146.583369 
L 628.716301 147.062673 
L 629.153605 147.271289 
L 629.590909 149.40835 
L 630.465517 156.123666 
L 630.902821 157.447591 
L 631.340125 165.592505 
L 633.089342 216.652038 
L 633.96395 231.026548 
L 634.401254 236.289218 
L 634.838558 239.820356 
L 636.587774 260.602902 
L 637.025078 263.267205 
L 637.462382 264.120497 
L 637.899687 263.365038 
L 638.336991 259.500008 
L 639.648903 233.548229 
L 640.523511 211.842001 
L 640.960815 205.094549 
L 641.835423 185.228319 
L 643.584639 143.81161 
L 644.021944 139.12085 
L 644.459248 137.357242 
L 646.208464 119.886051 
L 646.645768 118.422594 
L 647.083072 121.463081 
L 647.520376 127.196146 
L 647.95768 136.767867 
L 648.394984 150.754312 
L 650.581505 247.516913 
L 651.456113 270.142131 
L 651.893417 275.958713 
L 653.205329 300.56061 
L 653.642633 303.792784 
L 654.079937 308.356901 
L 654.517241 316.151291 
L 654.954545 319.576874 
L 655.39185 316.931105 
L 656.703762 298.778349 
L 657.57837 288.542231 
L 658.015674 288.997181 
L 658.452978 287.924998 
L 658.890282 284.42558 
L 659.327586 284.206331 
L 659.76489 286.91667 
L 660.202194 291.931401 
L 661.076803 298.975263 
L 661.514107 303.051522 
L 663.700627 341.774703 
L 664.137931 346.234869 
L 664.575235 347.583742 
L 665.449843 342.978816 
L 665.887147 343.626047 
L 666.324451 344.976583 
L 666.761755 347.288757 
L 667.19906 351.15248 
L 667.636364 351.860062 
L 668.073668 350.17112 
L 668.510972 351.24669 
L 669.38558 359.116994 
L 669.822884 362.060243 
L 671.134796 374.897937 
L 672.009404 386.713224 
L 672.446708 392.769845 
L 672.884013 395.885178 
L 673.321317 398.144961 
L 673.758621 401.738114 
L 674.633229 410.272697 
L 675.507837 417.088222 
L 676.382445 422.772341 
L 676.819749 423.691033 
L 677.257053 422.731473 
L 677.694357 418.178226 
L 679.443574 388.355893 
L 679.880878 382.406431 
L 680.318182 374.555194 
L 681.19279 369.337728 
L 681.630094 367.599543 
L 682.067398 369.599804 
L 682.504702 372.423835 
L 683.37931 376.770011 
L 684.253918 381.388005 
L 684.691223 380.397794 
L 685.565831 374.488725 
L 686.003135 372.888349 
L 687.315047 367.034582 
L 687.752351 366.765853 
L 688.189655 366.299557 
L 688.626959 365.57463 
L 689.501567 363.011428 
L 689.938871 363.317638 
L 690.376176 364.218807 
L 690.81348 364.619169 
L 691.250784 365.632902 
L 691.688088 367.526361 
L 693.437304 379.974861 
L 693.874608 382.618789 
L 694.311912 384.011974 
L 695.623824 392.715315 
L 696.061129 395.25357 
L 696.498433 400.339701 
L 697.373041 413.996293 
L 697.810345 417.068382 
L 698.247649 417.327726 
L 698.684953 414.850001 
L 699.996865 403.441906 
L 700.434169 403.357082 
L 700.871473 405.598154 
L 701.746082 406.613669 
L 702.183386 406.090705 
L 702.62069 405.252501 
L 703.495298 400.21092 
L 703.932602 397.255791 
L 704.369906 399.910887 
L 704.80721 407.357307 
L 705.244514 416.716136 
L 705.681818 420.644308 
L 706.119122 419.18697 
L 706.99373 415.038658 
L 707.431034 414.415306 
L 708.305643 415.846033 
L 709.180251 423.842802 
L 710.054859 432.129803 
L 710.492163 432.537946 
L 711.366771 424.491577 
L 711.804075 423.083423 
L 712.241379 420.556395 
L 712.678683 421.507639 
L 713.115987 419.52098 
L 713.553292 414.135172 
L 713.990596 410.251431 
L 714.4279 408.60306 
L 714.865204 408.374427 
L 715.302508 410.586392 
L 715.739812 414.780087 
L 716.177116 416.563357 
L 716.61442 416.616639 
L 717.051724 414.487775 
L 717.926332 409.577708 
L 718.363636 410.217573 
L 718.80094 412.564022 
L 719.238245 417.895003 
L 719.675549 419.208295 
L 720.112853 416.399292 
L 720.550157 412.698802 
L 720.987461 411.339119 
L 721.862069 400.847993 
L 722.736677 395.033609 
L 723.173981 389.378002 
L 724.048589 383.709922 
L 724.485893 377.618017 
L 724.923197 373.377633 
L 725.360502 373.492574 
L 725.797806 375.977249 
L 726.23511 379.59725 
L 726.672414 381.899683 
L 727.547022 392.026801 
L 728.42163 404.14129 
L 728.858934 405.160251 
L 729.296238 402.815228 
L 729.733542 405.945054 
L 730.60815 414.187089 
L 731.045455 410.940896 
L 731.482759 410.286537 
L 731.920063 411.000119 
L 732.357367 416.370898 
L 732.794671 418.906064 
L 733.231975 420.436406 
L 733.669279 420.995129 
L 734.106583 419.293654 
L 734.981191 414.900492 
L 735.855799 407.550003 
L 736.293103 407.246168 
L 736.730408 409.482667 
L 737.167712 415.587046 
L 738.04232 431.698375 
L 738.479624 431.365375 
L 738.916928 425.414368 
L 739.354232 422.359565 
L 739.791536 422.984223 
L 740.22884 420.210564 
L 740.666144 411.144997 
L 741.103448 404.763989 
L 741.540752 401.289816 
L 742.415361 393.259367 
L 742.852665 396.683227 
L 743.289969 398.540095 
L 743.727273 396.751835 
L 744.164577 393.567954 
L 745.913793 374.964525 
L 746.351097 373.707189 
L 746.788401 380.890405 
L 747.225705 390.226423 
L 747.663009 392.833761 
L 748.100313 392.796873 
L 748.537618 399.500546 
L 748.974922 411.798643 
L 749.412226 418.875294 
L 749.84953 418.489724 
L 750.724138 397.570021 
L 751.161442 392.22811 
L 752.03605 373.125358 
L 752.473354 369.779254 
L 752.910658 362.389442 
L 753.785266 335.426781 
L 754.222571 328.99647 
L 754.659875 329.848989 
L 755.097179 334.067097 
L 756.409091 363.275286 
L 757.721003 386.466652 
L 758.158307 386.209149 
L 758.595611 385.18508 
L 759.032915 383.546391 
L 759.470219 382.997291 
L 759.907524 390.023094 
L 760.344828 392.933079 
L 760.782132 393.879155 
L 761.219436 393.250694 
L 761.65674 394.005678 
L 762.094044 391.821037 
L 762.531348 384.712785 
L 762.968652 375.557701 
L 763.405956 373.246001 
L 763.84326 371.97429 
L 764.280564 367.132415 
L 765.155172 351.821689 
L 765.592476 342.524578 
L 766.029781 341.516369 
L 766.467085 348.436677 
L 766.904389 358.095717 
L 767.341693 362.919119 
L 767.778997 365.466699 
L 768.216301 373.382029 
L 768.653605 378.121141 
L 769.090909 376.749221 
L 769.528213 374.301791 
L 770.402821 382.979292 
L 770.840125 384.033953 
L 771.277429 386.997219 
L 772.152038 397.990816 
L 772.589342 399.035557 
L 773.026646 401.469919 
L 773.46395 401.054945 
L 773.901254 397.862629 
L 774.338558 396.612362 
L 774.775862 397.784517 
L 776.087774 407.310618 
L 776.525078 407.765866 
L 777.399687 400.97416 
L 777.836991 400.646446 
L 778.274295 402.559032 
L 778.711599 401.856499 
L 779.148903 403.282177 
L 780.023511 415.453691 
L 780.898119 421.785694 
L 781.335423 425.504479 
L 781.772727 428.110331 
L 782.210031 428.379239 
L 782.647335 426.667249 
L 783.084639 423.058415 
L 783.521944 415.027907 
L 783.959248 404.870375 
L 784.396552 399.853446 
L 785.27116 407.777865 
L 786.145768 418.377041 
L 786.583072 421.947502 
L 787.020376 423.013746 
L 787.45768 420.498361 
L 787.894984 420.37653 
L 788.769592 429.494132 
L 790.081505 438.241548 
L 790.518809 440.204387 
L 790.956113 443.104035 
L 791.393417 447.13907 
L 791.830721 449.357867 
L 792.268025 448.917707 
L 792.705329 445.523607 
L 793.142633 444.168853 
L 793.579937 446.996092 
L 794.017241 451.640104 
L 794.454545 453.232044 
L 794.89185 456.68406 
L 795.766458 466.754688 
L 796.203762 469.283616 
L 796.641066 470.657318 
L 797.07837 473.015054 
L 797.952978 483.086929 
L 799.26489 501.368821 
L 799.702194 503.001273 
L 800.139498 499.70655 
L 800.576803 492.990759 
L 801.451411 483.404188 
L 802.326019 477.138774 
L 802.763323 475.779268 
L 803.200627 476.671587 
L 803.637931 478.855872 
L 804.075235 479.966488 
L 804.512539 482.727198 
L 806.261755 502.296305 
L 806.69906 509.588581 
L 807.136364 514.868299 
L 807.573668 518.629377 
L 808.010972 520.153126 
L 808.448276 524.916711 
L 808.88558 531.06766 
L 809.322884 534.326267 
L 809.760188 533.869951 
L 810.634796 540.197558 
L 811.0721 541.088629 
L 811.509404 541.247229 
L 812.384013 539.830937 
L 813.258621 536.482515 
L 813.695925 536.539243 
L 814.570533 539.964885 
L 815.007837 540.659637 
L 815.445141 539.55502 
L 816.319749 539.144798 
L 816.757053 539.208892 
L 817.194357 539.563039 
L 817.631661 539.224098 
L 818.068966 537.837625 
L 818.50627 533.778474 
L 819.818182 513.259073 
L 820.255486 510.332278 
L 820.69279 511.731642 
L 822.442006 531.156761 
L 822.87931 538.399378 
L 823.316614 543.528931 
L 823.753918 545.360138 
L 824.191223 546.23232 
L 824.628527 546.560449 
L 825.065831 546.656441 
L 825.940439 544.153708 
L 826.377743 542.529157 
L 826.815047 542.537592 
L 827.252351 543.840607 
L 827.689655 545.827206 
L 828.564263 551.878778 
L 829.876176 561.913082 
L 830.31348 563.307486 
L 830.750784 561.171137 
L 831.625392 555.3937 
L 832.062696 554.258551 
L 832.5 553.829321 
L 833.374608 554.827432 
L 833.811912 555.749867 
L 834.249216 557.897501 
L 834.68652 561.488931 
L 835.123824 563.672919 
L 835.561129 563.574076 
L 836.873041 553.077901 
L 837.747649 541.260891 
L 838.622257 535.270086 
L 839.059561 534.578424 
L 839.496865 533.62819 
L 839.934169 532.27106 
L 840.371473 530.49973 
L 841.246082 520.774161 
L 841.683386 518.678086 
L 842.995298 509.645546 
L 843.432602 507.541036 
L 844.30721 501.518511 
L 844.744514 501.077282 
L 845.181818 499.950866 
L 846.931034 487.218549 
L 847.368339 483.258538 
L 847.805643 482.864176 
L 848.680251 486.120942 
L 849.117555 486.738294 
L 849.554859 485.753429 
L 849.992163 482.1282 
L 850.866771 479.695561 
L 851.304075 477.71211 
L 851.741379 474.655762 
L 852.178683 470.798633 
L 853.053292 465.703651 
L 853.490596 464.604261 
L 855.677116 453.302612 
L 856.989028 443.552155 
L 857.863636 440.563049 
L 858.30094 440.422922 
L 859.175549 439.611745 
L 859.612853 438.293405 
L 860.050157 436.103298 
L 861.362069 422.451398 
L 861.799373 416.101813 
L 863.548589 384.845189 
L 863.985893 379.996601 
L 865.297806 375.244006 
L 865.73511 374.637405 
L 866.172414 375.563166 
L 866.609718 376.142383 
L 867.047022 377.170788 
L 868.358934 383.669648 
L 868.796238 386.929146 
L 869.233542 391.969598 
L 871.420063 437.460131 
L 871.857367 438.958812 
L 872.294671 438.390109 
L 872.731975 434.81543 
L 873.169279 429.970169 
L 873.606583 420.237473 
L 874.043887 407.982916 
L 874.481191 399.469717 
L 874.918495 394.837527 
L 875.355799 393.37009 
L 875.793103 394.514208 
L 876.230408 396.647112 
L 877.979624 418.533324 
L 878.416928 421.759439 
L 878.854232 423.56938 
L 880.166144 431.461782 
L 880.603448 436.122544 
L 881.040752 443.127023 
L 881.478056 452.079966 
L 882.352665 463.253666 
L 882.789969 467.881283 
L 883.227273 469.393389 
L 883.664577 468.931785 
L 884.101881 467.943238 
L 885.413793 460.339286 
L 885.851097 458.076474 
L 886.288401 453.523167 
L 886.725705 450.261412 
L 887.163009 448.166703 
L 887.600313 445.325505 
L 888.037618 444.765712 
L 888.912226 442.112815 
L 889.34953 440.300081 
L 889.786834 441.743817 
L 890.224138 447.051216 
L 890.661442 449.619943 
L 891.098746 450.635993 
L 891.53605 452.051038 
L 891.973354 451.962056 
L 892.410658 453.892402 
L 892.847962 458.157318 
L 893.722571 471.835176 
L 894.597179 489.264549 
L 895.034483 494.220236 
L 895.471787 495.607363 
L 895.909091 496.573516 
L 896.346395 496.364663 
L 897.221003 494.208594 
L 898.095611 493.758811 
L 898.532915 490.799881 
L 898.970219 488.758989 
L 899.407524 488.853258 
L 899.844828 489.183705 
L 900.282132 488.836982 
L 900.719436 489.01667 
L 901.15674 487.276584 
L 902.031348 479.359768 
L 902.468652 477.465478 
L 902.905956 476.545003 
L 903.34326 476.79021 
L 903.780564 479.297279 
L 904.217868 482.615108 
L 904.655172 484.821906 
L 905.092476 483.751267 
L 905.529781 481.055482 
L 906.404389 472.311154 
L 906.841693 467.037614 
L 907.716301 460.109287 
L 909.028213 450.416567 
L 909.902821 440.789603 
L 910.777429 434.344679 
L 912.96395 422.834236 
L 913.401254 423.458301 
L 914.275862 425.446563 
L 915.587774 429.170397 
L 916.025078 429.38917 
L 916.462382 428.287761 
L 917.774295 420.943035 
L 918.211599 421.738055 
L 919.086207 430.98711 
L 919.960815 442.061433 
L 920.398119 445.673178 
L 920.835423 445.72949 
L 921.272727 444.613943 
L 922.147335 441.702118 
L 922.584639 439.274171 
L 923.021944 436.001189 
L 923.459248 440.216802 
L 924.333856 454.371529 
L 924.77116 458.449748 
L 925.645768 461.541795 
L 926.083072 462.729989 
L 926.520376 461.849254 
L 926.95768 460.423814 
L 927.394984 459.481005 
L 927.832288 458.891809 
L 928.269592 456.822405 
L 929.144201 450.98224 
L 929.581505 446.648717 
L 930.018809 440.672405 
L 930.893417 420.406349 
L 931.330721 416.58189 
L 931.768025 417.448785 
L 932.205329 419.543553 
L 932.642633 422.774301 
L 933.079937 430.025353 
L 933.517241 435.080001 
L 933.954545 437.141564 
L 933.954545 437.141564 
" style="fill:none;stroke:#0000ff;stroke-linecap:square;stroke-width:1.5;"/>
   </g>
   <g id="patch_3">
    <path d="M 135 640.8 
L 135 86.4 
" style="fill:none;stroke:#000000;stroke-linecap:square;stroke-linejoin:miter;stroke-width:0.8;"/>
   </g>
   <g id="patch_4">
    <path d="M 972 640.8 
L 972 86.4 
" style="fill:none;stroke:#000000;stroke-linecap:square;stroke-linejoin:miter;stroke-width:0.8;"/>
   </g>
   <g id="patch_5">
    <path d="M 135 640.8 
L 972 640.8 
" style="fill:none;stroke:#000000;stroke-linecap:square;stroke-linejoin:miter;stroke-width:0.8;"/>
   </g>
   <g id="patch_6">
    <path d="M 135 86.4 
L 972 86.4 
" style="fill:none;stroke:#000000;stroke-linecap:square;stroke-linejoin:miter;stroke-width:0.8;"/>
   </g>
   <g id="text_18">
    <!-- Evaluation Preds N:20 -->
    <defs>
     <path d="M 9.8125 72.90625 
L 55.90625 72.90625 
L 55.90625 64.59375 
L 19.671875 64.59375 
L 19.671875 43.015625 
L 54.390625 43.015625 
L 54.390625 34.71875 
L 19.671875 34.71875 
L 19.671875 8.296875 
L 56.78125 8.296875 
L 56.78125 0 
L 9.8125 0 
z
" id="DejaVuSans-69"/>
     <path d="M 2.984375 54.6875 
L 12.5 54.6875 
L 29.59375 8.796875 
L 46.6875 54.6875 
L 56.203125 54.6875 
L 35.6875 0 
L 23.484375 0 
z
" id="DejaVuSans-118"/>
     <path d="M 34.28125 27.484375 
Q 23.390625 27.484375 19.1875 25 
Q 14.984375 22.515625 14.984375 16.5 
Q 14.984375 11.71875 18.140625 8.90625 
Q 21.296875 6.109375 26.703125 6.109375 
Q 34.1875 6.109375 38.703125 11.40625 
Q 43.21875 16.703125 43.21875 25.484375 
L 43.21875 27.484375 
z
M 52.203125 31.203125 
L 52.203125 0 
L 43.21875 0 
L 43.21875 8.296875 
Q 40.140625 3.328125 35.546875 0.953125 
Q 30.953125 -1.421875 24.3125 -1.421875 
Q 15.921875 -1.421875 10.953125 3.296875 
Q 6 8.015625 6 15.921875 
Q 6 25.140625 12.171875 29.828125 
Q 18.359375 34.515625 30.609375 34.515625 
L 43.21875 34.515625 
L 43.21875 35.40625 
Q 43.21875 41.609375 39.140625 45 
Q 35.0625 48.390625 27.6875 48.390625 
Q 23 48.390625 18.546875 47.265625 
Q 14.109375 46.140625 10.015625 43.890625 
L 10.015625 52.203125 
Q 14.9375 54.109375 19.578125 55.046875 
Q 24.21875 56 28.609375 56 
Q 40.484375 56 46.34375 49.84375 
Q 52.203125 43.703125 52.203125 31.203125 
z
" id="DejaVuSans-97"/>
     <path d="M 9.421875 75.984375 
L 18.40625 75.984375 
L 18.40625 0 
L 9.421875 0 
z
" id="DejaVuSans-108"/>
     <path d="M 8.5 21.578125 
L 8.5 54.6875 
L 17.484375 54.6875 
L 17.484375 21.921875 
Q 17.484375 14.15625 20.5 10.265625 
Q 23.53125 6.390625 29.59375 6.390625 
Q 36.859375 6.390625 41.078125 11.03125 
Q 45.3125 15.671875 45.3125 23.6875 
L 45.3125 54.6875 
L 54.296875 54.6875 
L 54.296875 0 
L 45.3125 0 
L 45.3125 8.40625 
Q 42.046875 3.421875 37.71875 1 
Q 33.40625 -1.421875 27.6875 -1.421875 
Q 18.265625 -1.421875 13.375 4.4375 
Q 8.5 10.296875 8.5 21.578125 
z
M 31.109375 56 
z
" id="DejaVuSans-117"/>
     <path d="M 18.3125 70.21875 
L 18.3125 54.6875 
L 36.8125 54.6875 
L 36.8125 47.703125 
L 18.3125 47.703125 
L 18.3125 18.015625 
Q 18.3125 11.328125 20.140625 9.421875 
Q 21.96875 7.515625 27.59375 7.515625 
L 36.8125 7.515625 
L 36.8125 0 
L 27.59375 0 
Q 17.1875 0 13.234375 3.875 
Q 9.28125 7.765625 9.28125 18.015625 
L 9.28125 47.703125 
L 2.6875 47.703125 
L 2.6875 54.6875 
L 9.28125 54.6875 
L 9.28125 70.21875 
z
" id="DejaVuSans-116"/>
     <path d="M 9.421875 54.6875 
L 18.40625 54.6875 
L 18.40625 0 
L 9.421875 0 
z
M 9.421875 75.984375 
L 18.40625 75.984375 
L 18.40625 64.59375 
L 9.421875 64.59375 
z
" id="DejaVuSans-105"/>
     <path d="M 30.609375 48.390625 
Q 23.390625 48.390625 19.1875 42.75 
Q 14.984375 37.109375 14.984375 27.296875 
Q 14.984375 17.484375 19.15625 11.84375 
Q 23.34375 6.203125 30.609375 6.203125 
Q 37.796875 6.203125 41.984375 11.859375 
Q 46.1875 17.53125 46.1875 27.296875 
Q 46.1875 37.015625 41.984375 42.703125 
Q 37.796875 48.390625 30.609375 48.390625 
z
M 30.609375 56 
Q 42.328125 56 49.015625 48.375 
Q 55.71875 40.765625 55.71875 27.296875 
Q 55.71875 13.875 49.015625 6.21875 
Q 42.328125 -1.421875 30.609375 -1.421875 
Q 18.84375 -1.421875 12.171875 6.21875 
Q 5.515625 13.875 5.515625 27.296875 
Q 5.515625 40.765625 12.171875 48.375 
Q 18.84375 56 30.609375 56 
z
" id="DejaVuSans-111"/>
     <path d="M 54.890625 33.015625 
L 54.890625 0 
L 45.90625 0 
L 45.90625 32.71875 
Q 45.90625 40.484375 42.875 44.328125 
Q 39.84375 48.1875 33.796875 48.1875 
Q 26.515625 48.1875 22.3125 43.546875 
Q 18.109375 38.921875 18.109375 30.90625 
L 18.109375 0 
L 9.078125 0 
L 9.078125 54.6875 
L 18.109375 54.6875 
L 18.109375 46.1875 
Q 21.34375 51.125 25.703125 53.5625 
Q 30.078125 56 35.796875 56 
Q 45.21875 56 50.046875 50.171875 
Q 54.890625 44.34375 54.890625 33.015625 
z
" id="DejaVuSans-110"/>
     <path id="DejaVuSans-32"/>
     <path d="M 19.671875 64.796875 
L 19.671875 37.40625 
L 32.078125 37.40625 
Q 38.96875 37.40625 42.71875 40.96875 
Q 46.484375 44.53125 46.484375 51.125 
Q 46.484375 57.671875 42.71875 61.234375 
Q 38.96875 64.796875 32.078125 64.796875 
z
M 9.8125 72.90625 
L 32.078125 72.90625 
Q 44.34375 72.90625 50.609375 67.359375 
Q 56.890625 61.8125 56.890625 51.125 
Q 56.890625 40.328125 50.609375 34.8125 
Q 44.34375 29.296875 32.078125 29.296875 
L 19.671875 29.296875 
L 19.671875 0 
L 9.8125 0 
z
" id="DejaVuSans-80"/>
     <path d="M 41.109375 46.296875 
Q 39.59375 47.171875 37.8125 47.578125 
Q 36.03125 48 33.890625 48 
Q 26.265625 48 22.1875 43.046875 
Q 18.109375 38.09375 18.109375 28.8125 
L 18.109375 0 
L 9.078125 0 
L 9.078125 54.6875 
L 18.109375 54.6875 
L 18.109375 46.1875 
Q 20.953125 51.171875 25.484375 53.578125 
Q 30.03125 56 36.53125 56 
Q 37.453125 56 38.578125 55.875 
Q 39.703125 55.765625 41.0625 55.515625 
z
" id="DejaVuSans-114"/>
     <path d="M 56.203125 29.59375 
L 56.203125 25.203125 
L 14.890625 25.203125 
Q 15.484375 15.921875 20.484375 11.0625 
Q 25.484375 6.203125 34.421875 6.203125 
Q 39.59375 6.203125 44.453125 7.46875 
Q 49.3125 8.734375 54.109375 11.28125 
L 54.109375 2.78125 
Q 49.265625 0.734375 44.1875 -0.34375 
Q 39.109375 -1.421875 33.890625 -1.421875 
Q 20.796875 -1.421875 13.15625 6.1875 
Q 5.515625 13.8125 5.515625 26.8125 
Q 5.515625 40.234375 12.765625 48.109375 
Q 20.015625 56 32.328125 56 
Q 43.359375 56 49.78125 48.890625 
Q 56.203125 41.796875 56.203125 29.59375 
z
M 47.21875 32.234375 
Q 47.125 39.59375 43.09375 43.984375 
Q 39.0625 48.390625 32.421875 48.390625 
Q 24.90625 48.390625 20.390625 44.140625 
Q 15.875 39.890625 15.1875 32.171875 
z
" id="DejaVuSans-101"/>
     <path d="M 45.40625 46.390625 
L 45.40625 75.984375 
L 54.390625 75.984375 
L 54.390625 0 
L 45.40625 0 
L 45.40625 8.203125 
Q 42.578125 3.328125 38.25 0.953125 
Q 33.9375 -1.421875 27.875 -1.421875 
Q 17.96875 -1.421875 11.734375 6.484375 
Q 5.515625 14.40625 5.515625 27.296875 
Q 5.515625 40.1875 11.734375 48.09375 
Q 17.96875 56 27.875 56 
Q 33.9375 56 38.25 53.625 
Q 42.578125 51.265625 45.40625 46.390625 
z
M 14.796875 27.296875 
Q 14.796875 17.390625 18.875 11.75 
Q 22.953125 6.109375 30.078125 6.109375 
Q 37.203125 6.109375 41.296875 11.75 
Q 45.40625 17.390625 45.40625 27.296875 
Q 45.40625 37.203125 41.296875 42.84375 
Q 37.203125 48.484375 30.078125 48.484375 
Q 22.953125 48.484375 18.875 42.84375 
Q 14.796875 37.203125 14.796875 27.296875 
z
" id="DejaVuSans-100"/>
     <path d="M 44.28125 53.078125 
L 44.28125 44.578125 
Q 40.484375 46.53125 36.375 47.5 
Q 32.28125 48.484375 27.875 48.484375 
Q 21.1875 48.484375 17.84375 46.4375 
Q 14.5 44.390625 14.5 40.28125 
Q 14.5 37.15625 16.890625 35.375 
Q 19.28125 33.59375 26.515625 31.984375 
L 29.59375 31.296875 
Q 39.15625 29.25 43.1875 25.515625 
Q 47.21875 21.78125 47.21875 15.09375 
Q 47.21875 7.46875 41.1875 3.015625 
Q 35.15625 -1.421875 24.609375 -1.421875 
Q 20.21875 -1.421875 15.453125 -0.5625 
Q 10.6875 0.296875 5.421875 2 
L 5.421875 11.28125 
Q 10.40625 8.6875 15.234375 7.390625 
Q 20.0625 6.109375 24.8125 6.109375 
Q 31.15625 6.109375 34.5625 8.28125 
Q 37.984375 10.453125 37.984375 14.40625 
Q 37.984375 18.0625 35.515625 20.015625 
Q 33.0625 21.96875 24.703125 23.78125 
L 21.578125 24.515625 
Q 13.234375 26.265625 9.515625 29.90625 
Q 5.8125 33.546875 5.8125 39.890625 
Q 5.8125 47.609375 11.28125 51.796875 
Q 16.75 56 26.8125 56 
Q 31.78125 56 36.171875 55.265625 
Q 40.578125 54.546875 44.28125 53.078125 
z
" id="DejaVuSans-115"/>
     <path d="M 9.8125 72.90625 
L 23.09375 72.90625 
L 55.421875 11.921875 
L 55.421875 72.90625 
L 64.984375 72.90625 
L 64.984375 0 
L 51.703125 0 
L 19.390625 60.984375 
L 19.390625 0 
L 9.8125 0 
z
" id="DejaVuSans-78"/>
     <path d="M 11.71875 12.40625 
L 22.015625 12.40625 
L 22.015625 0 
L 11.71875 0 
z
M 11.71875 51.703125 
L 22.015625 51.703125 
L 22.015625 39.3125 
L 11.71875 39.3125 
z
" id="DejaVuSans-58"/>
    </defs>
    <g transform="translate(374.421656 80.4)scale(0.324 -0.324)">
     <use xlink:href="#DejaVuSans-69"/>
     <use x="63.183594" xlink:href="#DejaVuSans-118"/>
     <use x="122.363281" xlink:href="#DejaVuSans-97"/>
     <use x="183.642578" xlink:href="#DejaVuSans-108"/>
     <use x="211.425781" xlink:href="#DejaVuSans-117"/>
     <use x="274.804688" xlink:href="#DejaVuSans-97"/>
     <use x="336.083984" xlink:href="#DejaVuSans-116"/>
     <use x="375.292969" xlink:href="#DejaVuSans-105"/>
     <use x="403.076172" xlink:href="#DejaVuSans-111"/>
     <use x="464.257812" xlink:href="#DejaVuSans-110"/>
     <use x="527.636719" xlink:href="#DejaVuSans-32"/>
     <use x="559.423828" xlink:href="#DejaVuSans-80"/>
     <use x="619.710938" xlink:href="#DejaVuSans-114"/>
     <use x="660.792969" xlink:href="#DejaVuSans-101"/>
     <use x="722.316406" xlink:href="#DejaVuSans-100"/>
     <use x="785.792969" xlink:href="#DejaVuSans-115"/>
     <use x="837.892578" xlink:href="#DejaVuSans-32"/>
     <use x="869.679688" xlink:href="#DejaVuSans-78"/>
     <use x="944.484375" xlink:href="#DejaVuSans-58"/>
     <use x="978.175781" xlink:href="#DejaVuSans-50"/>
     <use x="1041.798828" xlink:href="#DejaVuSans-48"/>
    </g>
   </g>
   <g id="legend_1">
    <g id="patch_7">
     <path d="M 805.57875 187.261875 
L 953.1 187.261875 
Q 958.5 187.261875 958.5 181.861875 
L 958.5 105.3 
Q 958.5 99.9 953.1 99.9 
L 805.57875 99.9 
Q 800.17875 99.9 800.17875 105.3 
L 800.17875 181.861875 
Q 800.17875 187.261875 805.57875 187.261875 
z
" style="fill:#ffffff;opacity:0.8;stroke:#cccccc;stroke-linejoin:miter;"/>
    </g>
    <g id="line2d_37">
     <path d="M 810.97875 121.765781 
L 864.97875 121.765781 
" style="fill:none;stroke:#ff0000;stroke-linecap:square;stroke-width:1.5;"/>
    </g>
    <g id="line2d_38"/>
    <g id="text_19">
     <!-- Real -->
     <defs>
      <path d="M 44.390625 34.1875 
Q 47.5625 33.109375 50.5625 29.59375 
Q 53.5625 26.078125 56.59375 19.921875 
L 66.609375 0 
L 56 0 
L 46.6875 18.703125 
Q 43.0625 26.03125 39.671875 28.421875 
Q 36.28125 30.8125 30.421875 30.8125 
L 19.671875 30.8125 
L 19.671875 0 
L 9.8125 0 
L 9.8125 72.90625 
L 32.078125 72.90625 
Q 44.578125 72.90625 50.734375 67.671875 
Q 56.890625 62.453125 56.890625 51.90625 
Q 56.890625 45.015625 53.6875 40.46875 
Q 50.484375 35.9375 44.390625 34.1875 
z
M 19.671875 64.796875 
L 19.671875 38.921875 
L 32.078125 38.921875 
Q 39.203125 38.921875 42.84375 42.21875 
Q 46.484375 45.515625 46.484375 51.90625 
Q 46.484375 58.296875 42.84375 61.546875 
Q 39.203125 64.796875 32.078125 64.796875 
z
" id="DejaVuSans-82"/>
     </defs>
     <g transform="translate(886.57875 131.215781)scale(0.27 -0.27)">
      <use xlink:href="#DejaVuSans-82"/>
      <use x="69.419922" xlink:href="#DejaVuSans-101"/>
      <use x="130.943359" xlink:href="#DejaVuSans-97"/>
      <use x="192.222656" xlink:href="#DejaVuSans-108"/>
     </g>
    </g>
    <g id="line2d_39">
     <path d="M 810.97875 161.396719 
L 864.97875 161.396719 
" style="fill:none;stroke:#0000ff;stroke-linecap:square;stroke-width:1.5;"/>
    </g>
    <g id="line2d_40"/>
    <g id="text_20">
     <!-- Pred -->
     <g transform="translate(886.57875 170.846719)scale(0.27 -0.27)">
      <use xlink:href="#DejaVuSans-80"/>
      <use x="60.287109" xlink:href="#DejaVuSans-114"/>
      <use x="101.369141" xlink:href="#DejaVuSans-101"/>
      <use x="162.892578" xlink:href="#DejaVuSans-100"/>
     </g>
    </g>
   </g>
  </g>
 </g>
 <defs>
  <clipPath id="pc259b49822">
   <rect height="554.4" width="837" x="135" y="86.4"/>
  </clipPath>
 </defs>
</svg>
