<?xml version="1.0" encoding="utf-8" standalone="no"?>
<!DOCTYPE svg PUBLIC "-//W3C//DTD SVG 1.1//EN"
  "http://www.w3.org/Graphics/SVG/1.1/DTD/svg11.dtd">
<!-- Created with matplotlib (https://matplotlib.org/) -->
<svg height="720pt" version="1.1" viewBox="0 0 1080 720" width="1080pt" xmlns="http://www.w3.org/2000/svg" xmlns:xlink="http://www.w3.org/1999/xlink">
 <defs>
  <style type="text/css">
*{stroke-linecap:butt;stroke-linejoin:round;}
  </style>
 </defs>
 <g id="figure_1">
  <g id="patch_1">
   <path d="M 0 720 
L 1080 720 
L 1080 0 
L 0 0 
z
" style="fill:#ffffff;"/>
  </g>
  <g id="axes_1">
   <g id="patch_2">
    <path d="M 135 640.8 
L 972 640.8 
L 972 86.4 
L 135 86.4 
z
" style="fill:#ffffff;"/>
   </g>
   <g id="matplotlib.axis_1">
    <g id="xtick_1">
     <g id="line2d_1">
      <path clip-path="url(#pcff8942066)" d="M 173.045455 640.8 
L 173.045455 86.4 
" style="fill:none;stroke:#b0b0b0;stroke-linecap:square;stroke-width:0.8;"/>
     </g>
     <g id="line2d_2">
      <defs>
       <path d="M 0 0 
L 0 3.5 
" id="mc4ed293698" style="stroke:#000000;stroke-width:0.8;"/>
      </defs>
      <g>
       <use style="stroke:#000000;stroke-width:0.8;" x="173.045455" xlink:href="#mc4ed293698" y="640.8"/>
      </g>
     </g>
     <g id="text_1">
      <!-- 0 -->
      <defs>
       <path d="M 31.78125 66.40625 
Q 24.171875 66.40625 20.328125 58.90625 
Q 16.5 51.421875 16.5 36.375 
Q 16.5 21.390625 20.328125 13.890625 
Q 24.171875 6.390625 31.78125 6.390625 
Q 39.453125 6.390625 43.28125 13.890625 
Q 47.125 21.390625 47.125 36.375 
Q 47.125 51.421875 43.28125 58.90625 
Q 39.453125 66.40625 31.78125 66.40625 
z
M 31.78125 74.21875 
Q 44.046875 74.21875 50.515625 64.515625 
Q 56.984375 54.828125 56.984375 36.375 
Q 56.984375 17.96875 50.515625 8.265625 
Q 44.046875 -1.421875 31.78125 -1.421875 
Q 19.53125 -1.421875 13.0625 8.265625 
Q 6.59375 17.96875 6.59375 36.375 
Q 6.59375 54.828125 13.0625 64.515625 
Q 19.53125 74.21875 31.78125 74.21875 
z
" id="DejaVuSans-48"/>
      </defs>
      <g transform="translate(164.45608 668.315781)scale(0.27 -0.27)">
       <use xlink:href="#DejaVuSans-48"/>
      </g>
     </g>
    </g>
    <g id="xtick_2">
     <g id="line2d_3">
      <path clip-path="url(#pcff8942066)" d="M 282.371473 640.8 
L 282.371473 86.4 
" style="fill:none;stroke:#b0b0b0;stroke-linecap:square;stroke-width:0.8;"/>
     </g>
     <g id="line2d_4">
      <g>
       <use style="stroke:#000000;stroke-width:0.8;" x="282.371473" xlink:href="#mc4ed293698" y="640.8"/>
      </g>
     </g>
     <g id="text_2">
      <!-- 250 -->
      <defs>
       <path d="M 19.1875 8.296875 
L 53.609375 8.296875 
L 53.609375 0 
L 7.328125 0 
L 7.328125 8.296875 
Q 12.9375 14.109375 22.625 23.890625 
Q 32.328125 33.6875 34.8125 36.53125 
Q 39.546875 41.84375 41.421875 45.53125 
Q 43.3125 49.21875 43.3125 52.78125 
Q 43.3125 58.59375 39.234375 62.25 
Q 35.15625 65.921875 28.609375 65.921875 
Q 23.96875 65.921875 18.8125 64.3125 
Q 13.671875 62.703125 7.8125 59.421875 
L 7.8125 69.390625 
Q 13.765625 71.78125 18.9375 73 
Q 24.125 74.21875 28.421875 74.21875 
Q 39.75 74.21875 46.484375 68.546875 
Q 53.21875 62.890625 53.21875 53.421875 
Q 53.21875 48.921875 51.53125 44.890625 
Q 49.859375 40.875 45.40625 35.40625 
Q 44.1875 33.984375 37.640625 27.21875 
Q 31.109375 20.453125 19.1875 8.296875 
z
" id="DejaVuSans-50"/>
       <path d="M 10.796875 72.90625 
L 49.515625 72.90625 
L 49.515625 64.59375 
L 19.828125 64.59375 
L 19.828125 46.734375 
Q 21.96875 47.46875 24.109375 47.828125 
Q 26.265625 48.1875 28.421875 48.1875 
Q 40.625 48.1875 47.75 41.5 
Q 54.890625 34.8125 54.890625 23.390625 
Q 54.890625 11.625 47.5625 5.09375 
Q 40.234375 -1.421875 26.90625 -1.421875 
Q 22.3125 -1.421875 17.546875 -0.640625 
Q 12.796875 0.140625 7.71875 1.703125 
L 7.71875 11.625 
Q 12.109375 9.234375 16.796875 8.0625 
Q 21.484375 6.890625 26.703125 6.890625 
Q 35.15625 6.890625 40.078125 11.328125 
Q 45.015625 15.765625 45.015625 23.390625 
Q 45.015625 31 40.078125 35.4375 
Q 35.15625 39.890625 26.703125 39.890625 
Q 22.75 39.890625 18.8125 39.015625 
Q 14.890625 38.140625 10.796875 36.28125 
z
" id="DejaVuSans-53"/>
      </defs>
      <g transform="translate(256.603348 668.315781)scale(0.27 -0.27)">
       <use xlink:href="#DejaVuSans-50"/>
       <use x="63.623047" xlink:href="#DejaVuSans-53"/>
       <use x="127.246094" xlink:href="#DejaVuSans-48"/>
      </g>
     </g>
    </g>
    <g id="xtick_3">
     <g id="line2d_5">
      <path clip-path="url(#pcff8942066)" d="M 391.697492 640.8 
L 391.697492 86.4 
" style="fill:none;stroke:#b0b0b0;stroke-linecap:square;stroke-width:0.8;"/>
     </g>
     <g id="line2d_6">
      <g>
       <use style="stroke:#000000;stroke-width:0.8;" x="391.697492" xlink:href="#mc4ed293698" y="640.8"/>
      </g>
     </g>
     <g id="text_3">
      <!-- 500 -->
      <g transform="translate(365.929367 668.315781)scale(0.27 -0.27)">
       <use xlink:href="#DejaVuSans-53"/>
       <use x="63.623047" xlink:href="#DejaVuSans-48"/>
       <use x="127.246094" xlink:href="#DejaVuSans-48"/>
      </g>
     </g>
    </g>
    <g id="xtick_4">
     <g id="line2d_7">
      <path clip-path="url(#pcff8942066)" d="M 501.023511 640.8 
L 501.023511 86.4 
" style="fill:none;stroke:#b0b0b0;stroke-linecap:square;stroke-width:0.8;"/>
     </g>
     <g id="line2d_8">
      <g>
       <use style="stroke:#000000;stroke-width:0.8;" x="501.023511" xlink:href="#mc4ed293698" y="640.8"/>
      </g>
     </g>
     <g id="text_4">
      <!-- 750 -->
      <defs>
       <path d="M 8.203125 72.90625 
L 55.078125 72.90625 
L 55.078125 68.703125 
L 28.609375 0 
L 18.3125 0 
L 43.21875 64.59375 
L 8.203125 64.59375 
z
" id="DejaVuSans-55"/>
      </defs>
      <g transform="translate(475.255386 668.315781)scale(0.27 -0.27)">
       <use xlink:href="#DejaVuSans-55"/>
       <use x="63.623047" xlink:href="#DejaVuSans-53"/>
       <use x="127.246094" xlink:href="#DejaVuSans-48"/>
      </g>
     </g>
    </g>
    <g id="xtick_5">
     <g id="line2d_9">
      <path clip-path="url(#pcff8942066)" d="M 610.34953 640.8 
L 610.34953 86.4 
" style="fill:none;stroke:#b0b0b0;stroke-linecap:square;stroke-width:0.8;"/>
     </g>
     <g id="line2d_10">
      <g>
       <use style="stroke:#000000;stroke-width:0.8;" x="610.34953" xlink:href="#mc4ed293698" y="640.8"/>
      </g>
     </g>
     <g id="text_5">
      <!-- 1000 -->
      <defs>
       <path d="M 12.40625 8.296875 
L 28.515625 8.296875 
L 28.515625 63.921875 
L 10.984375 60.40625 
L 10.984375 69.390625 
L 28.421875 72.90625 
L 38.28125 72.90625 
L 38.28125 8.296875 
L 54.390625 8.296875 
L 54.390625 0 
L 12.40625 0 
z
" id="DejaVuSans-49"/>
      </defs>
      <g transform="translate(575.99203 668.315781)scale(0.27 -0.27)">
       <use xlink:href="#DejaVuSans-49"/>
       <use x="63.623047" xlink:href="#DejaVuSans-48"/>
       <use x="127.246094" xlink:href="#DejaVuSans-48"/>
       <use x="190.869141" xlink:href="#DejaVuSans-48"/>
      </g>
     </g>
    </g>
    <g id="xtick_6">
     <g id="line2d_11">
      <path clip-path="url(#pcff8942066)" d="M 719.675549 640.8 
L 719.675549 86.4 
" style="fill:none;stroke:#b0b0b0;stroke-linecap:square;stroke-width:0.8;"/>
     </g>
     <g id="line2d_12">
      <g>
       <use style="stroke:#000000;stroke-width:0.8;" x="719.675549" xlink:href="#mc4ed293698" y="640.8"/>
      </g>
     </g>
     <g id="text_6">
      <!-- 1250 -->
      <g transform="translate(685.318049 668.315781)scale(0.27 -0.27)">
       <use xlink:href="#DejaVuSans-49"/>
       <use x="63.623047" xlink:href="#DejaVuSans-50"/>
       <use x="127.246094" xlink:href="#DejaVuSans-53"/>
       <use x="190.869141" xlink:href="#DejaVuSans-48"/>
      </g>
     </g>
    </g>
    <g id="xtick_7">
     <g id="line2d_13">
      <path clip-path="url(#pcff8942066)" d="M 829.001567 640.8 
L 829.001567 86.4 
" style="fill:none;stroke:#b0b0b0;stroke-linecap:square;stroke-width:0.8;"/>
     </g>
     <g id="line2d_14">
      <g>
       <use style="stroke:#000000;stroke-width:0.8;" x="829.001567" xlink:href="#mc4ed293698" y="640.8"/>
      </g>
     </g>
     <g id="text_7">
      <!-- 1500 -->
      <g transform="translate(794.644067 668.315781)scale(0.27 -0.27)">
       <use xlink:href="#DejaVuSans-49"/>
       <use x="63.623047" xlink:href="#DejaVuSans-53"/>
       <use x="127.246094" xlink:href="#DejaVuSans-48"/>
       <use x="190.869141" xlink:href="#DejaVuSans-48"/>
      </g>
     </g>
    </g>
    <g id="xtick_8">
     <g id="line2d_15">
      <path clip-path="url(#pcff8942066)" d="M 938.327586 640.8 
L 938.327586 86.4 
" style="fill:none;stroke:#b0b0b0;stroke-linecap:square;stroke-width:0.8;"/>
     </g>
     <g id="line2d_16">
      <g>
       <use style="stroke:#000000;stroke-width:0.8;" x="938.327586" xlink:href="#mc4ed293698" y="640.8"/>
      </g>
     </g>
     <g id="text_8">
      <!-- 1750 -->
      <g transform="translate(903.970086 668.315781)scale(0.27 -0.27)">
       <use xlink:href="#DejaVuSans-49"/>
       <use x="63.623047" xlink:href="#DejaVuSans-55"/>
       <use x="127.246094" xlink:href="#DejaVuSans-53"/>
       <use x="190.869141" xlink:href="#DejaVuSans-48"/>
      </g>
     </g>
    </g>
   </g>
   <g id="matplotlib.axis_2">
    <g id="ytick_1">
     <g id="line2d_17">
      <path clip-path="url(#pcff8942066)" d="M 135 583.579546 
L 972 583.579546 
" style="fill:none;stroke:#b0b0b0;stroke-linecap:square;stroke-width:0.8;"/>
     </g>
     <g id="line2d_18">
      <defs>
       <path d="M 0 0 
L -3.5 0 
" id="mf0a9acdd60" style="stroke:#000000;stroke-width:0.8;"/>
      </defs>
      <g>
       <use style="stroke:#000000;stroke-width:0.8;" x="135" xlink:href="#mf0a9acdd60" y="583.579546"/>
      </g>
     </g>
     <g id="text_9">
      <!-- 15.0 -->
      <defs>
       <path d="M 10.6875 12.40625 
L 21 12.40625 
L 21 0 
L 10.6875 0 
z
" id="DejaVuSans-46"/>
      </defs>
      <g transform="translate(67.882812 593.837436)scale(0.27 -0.27)">
       <use xlink:href="#DejaVuSans-49"/>
       <use x="63.623047" xlink:href="#DejaVuSans-53"/>
       <use x="127.246094" xlink:href="#DejaVuSans-46"/>
       <use x="159.033203" xlink:href="#DejaVuSans-48"/>
      </g>
     </g>
    </g>
    <g id="ytick_2">
     <g id="line2d_19">
      <path clip-path="url(#pcff8942066)" d="M 135 508.22844 
L 972 508.22844 
" style="fill:none;stroke:#b0b0b0;stroke-linecap:square;stroke-width:0.8;"/>
     </g>
     <g id="line2d_20">
      <g>
       <use style="stroke:#000000;stroke-width:0.8;" x="135" xlink:href="#mf0a9acdd60" y="508.22844"/>
      </g>
     </g>
     <g id="text_10">
      <!-- 17.5 -->
      <g transform="translate(67.882812 518.48633)scale(0.27 -0.27)">
       <use xlink:href="#DejaVuSans-49"/>
       <use x="63.623047" xlink:href="#DejaVuSans-55"/>
       <use x="127.246094" xlink:href="#DejaVuSans-46"/>
       <use x="159.033203" xlink:href="#DejaVuSans-53"/>
      </g>
     </g>
    </g>
    <g id="ytick_3">
     <g id="line2d_21">
      <path clip-path="url(#pcff8942066)" d="M 135 432.877334 
L 972 432.877334 
" style="fill:none;stroke:#b0b0b0;stroke-linecap:square;stroke-width:0.8;"/>
     </g>
     <g id="line2d_22">
      <g>
       <use style="stroke:#000000;stroke-width:0.8;" x="135" xlink:href="#mf0a9acdd60" y="432.877334"/>
      </g>
     </g>
     <g id="text_11">
      <!-- 20.0 -->
      <g transform="translate(67.882812 443.135225)scale(0.27 -0.27)">
       <use xlink:href="#DejaVuSans-50"/>
       <use x="63.623047" xlink:href="#DejaVuSans-48"/>
       <use x="127.246094" xlink:href="#DejaVuSans-46"/>
       <use x="159.033203" xlink:href="#DejaVuSans-48"/>
      </g>
     </g>
    </g>
    <g id="ytick_4">
     <g id="line2d_23">
      <path clip-path="url(#pcff8942066)" d="M 135 357.526228 
L 972 357.526228 
" style="fill:none;stroke:#b0b0b0;stroke-linecap:square;stroke-width:0.8;"/>
     </g>
     <g id="line2d_24">
      <g>
       <use style="stroke:#000000;stroke-width:0.8;" x="135" xlink:href="#mf0a9acdd60" y="357.526228"/>
      </g>
     </g>
     <g id="text_12">
      <!-- 22.5 -->
      <g transform="translate(67.882812 367.784119)scale(0.27 -0.27)">
       <use xlink:href="#DejaVuSans-50"/>
       <use x="63.623047" xlink:href="#DejaVuSans-50"/>
       <use x="127.246094" xlink:href="#DejaVuSans-46"/>
       <use x="159.033203" xlink:href="#DejaVuSans-53"/>
      </g>
     </g>
    </g>
    <g id="ytick_5">
     <g id="line2d_25">
      <path clip-path="url(#pcff8942066)" d="M 135 282.175123 
L 972 282.175123 
" style="fill:none;stroke:#b0b0b0;stroke-linecap:square;stroke-width:0.8;"/>
     </g>
     <g id="line2d_26">
      <g>
       <use style="stroke:#000000;stroke-width:0.8;" x="135" xlink:href="#mf0a9acdd60" y="282.175123"/>
      </g>
     </g>
     <g id="text_13">
      <!-- 25.0 -->
      <g transform="translate(67.882812 292.433013)scale(0.27 -0.27)">
       <use xlink:href="#DejaVuSans-50"/>
       <use x="63.623047" xlink:href="#DejaVuSans-53"/>
       <use x="127.246094" xlink:href="#DejaVuSans-46"/>
       <use x="159.033203" xlink:href="#DejaVuSans-48"/>
      </g>
     </g>
    </g>
    <g id="ytick_6">
     <g id="line2d_27">
      <path clip-path="url(#pcff8942066)" d="M 135 206.824017 
L 972 206.824017 
" style="fill:none;stroke:#b0b0b0;stroke-linecap:square;stroke-width:0.8;"/>
     </g>
     <g id="line2d_28">
      <g>
       <use style="stroke:#000000;stroke-width:0.8;" x="135" xlink:href="#mf0a9acdd60" y="206.824017"/>
      </g>
     </g>
     <g id="text_14">
      <!-- 27.5 -->
      <g transform="translate(67.882812 217.081908)scale(0.27 -0.27)">
       <use xlink:href="#DejaVuSans-50"/>
       <use x="63.623047" xlink:href="#DejaVuSans-55"/>
       <use x="127.246094" xlink:href="#DejaVuSans-46"/>
       <use x="159.033203" xlink:href="#DejaVuSans-53"/>
      </g>
     </g>
    </g>
    <g id="ytick_7">
     <g id="line2d_29">
      <path clip-path="url(#pcff8942066)" d="M 135 131.472911 
L 972 131.472911 
" style="fill:none;stroke:#b0b0b0;stroke-linecap:square;stroke-width:0.8;"/>
     </g>
     <g id="line2d_30">
      <g>
       <use style="stroke:#000000;stroke-width:0.8;" x="135" xlink:href="#mf0a9acdd60" y="131.472911"/>
      </g>
     </g>
     <g id="text_15">
      <!-- 30.0 -->
      <defs>
       <path d="M 40.578125 39.3125 
Q 47.65625 37.796875 51.625 33 
Q 55.609375 28.21875 55.609375 21.1875 
Q 55.609375 10.40625 48.1875 4.484375 
Q 40.765625 -1.421875 27.09375 -1.421875 
Q 22.515625 -1.421875 17.65625 -0.515625 
Q 12.796875 0.390625 7.625 2.203125 
L 7.625 11.71875 
Q 11.71875 9.328125 16.59375 8.109375 
Q 21.484375 6.890625 26.8125 6.890625 
Q 36.078125 6.890625 40.9375 10.546875 
Q 45.796875 14.203125 45.796875 21.1875 
Q 45.796875 27.640625 41.28125 31.265625 
Q 36.765625 34.90625 28.71875 34.90625 
L 20.21875 34.90625 
L 20.21875 43.015625 
L 29.109375 43.015625 
Q 36.375 43.015625 40.234375 45.921875 
Q 44.09375 48.828125 44.09375 54.296875 
Q 44.09375 59.90625 40.109375 62.90625 
Q 36.140625 65.921875 28.71875 65.921875 
Q 24.65625 65.921875 20.015625 65.03125 
Q 15.375 64.15625 9.8125 62.3125 
L 9.8125 71.09375 
Q 15.4375 72.65625 20.34375 73.4375 
Q 25.25 74.21875 29.59375 74.21875 
Q 40.828125 74.21875 47.359375 69.109375 
Q 53.90625 64.015625 53.90625 55.328125 
Q 53.90625 49.265625 50.4375 45.09375 
Q 46.96875 40.921875 40.578125 39.3125 
z
" id="DejaVuSans-51"/>
      </defs>
      <g transform="translate(67.882812 141.730802)scale(0.27 -0.27)">
       <use xlink:href="#DejaVuSans-51"/>
       <use x="63.623047" xlink:href="#DejaVuSans-48"/>
       <use x="127.246094" xlink:href="#DejaVuSans-46"/>
       <use x="159.033203" xlink:href="#DejaVuSans-48"/>
      </g>
     </g>
    </g>
   </g>
   <g id="line2d_31">
    <path clip-path="url(#pcff8942066)" d="M 173.045455 550.608608 
L 173.482759 551.458055 
L 173.920063 548.264291 
L 174.357367 548.358457 
L 174.794671 549.782098 
L 175.231975 547.864805 
L 175.669279 548.571911 
L 176.106583 547.121768 
L 176.543887 548.600483 
L 176.981191 549.050846 
L 177.418495 547.178279 
L 178.293103 545.418619 
L 178.730408 546.109111 
L 179.167712 545.86973 
L 179.605016 544.082647 
L 180.04232 538.960322 
L 180.479624 536.416578 
L 181.354232 529.548505 
L 181.791536 527.716122 
L 182.22884 532.768886 
L 182.666144 530.978297 
L 183.103448 533.334112 
L 183.540752 531.669479 
L 183.978056 535.851641 
L 184.415361 537.901962 
L 184.852665 537.189337 
L 185.727273 530.331898 
L 186.164577 531.020954 
L 186.601881 528.717051 
L 187.039185 527.311117 
L 187.476489 524.32385 
L 187.913793 520.432293 
L 188.351097 518.0824 
L 188.788401 514.824191 
L 189.225705 512.813479 
L 190.100313 499.532295 
L 190.974922 481.691481 
L 191.412226 480.261516 
L 192.286834 466.683692 
L 192.724138 453.004401 
L 193.161442 450.669455 
L 194.473354 423.767158 
L 194.910658 422.302298 
L 195.347962 419.705895 
L 195.785266 419.721819 
L 196.222571 415.305566 
L 197.097179 401.118883 
L 197.534483 396.700962 
L 197.971787 395.867439 
L 198.409091 390.520851 
L 198.846395 382.927678 
L 199.283699 380.426475 
L 199.721003 379.4298 
L 200.158307 374.769911 
L 201.032915 361.2014 
L 201.470219 358.371767 
L 201.907524 350.971984 
L 202.782132 343.20715 
L 203.219436 339.859029 
L 204.531348 322.894338 
L 204.968652 316.653117 
L 205.405956 317.886759 
L 205.84326 316.041901 
L 206.280564 308.513919 
L 207.155172 308.192387 
L 207.592476 306.920745 
L 208.029781 301.62239 
L 208.467085 302.71898 
L 208.904389 305.373906 
L 209.341693 311.813462 
L 209.778997 314.149328 
L 210.216301 313.768353 
L 210.653605 310.308417 
L 211.528213 323.139008 
L 211.965517 320.983886 
L 212.402821 323.123889 
L 212.840125 320.162377 
L 213.277429 321.470467 
L 213.714734 327.30421 
L 214.152038 324.975588 
L 214.589342 326.636541 
L 215.026646 322.193153 
L 215.46395 322.345899 
L 215.901254 321.235397 
L 216.338558 325.212727 
L 216.775862 330.306481 
L 217.65047 336.925112 
L 218.087774 341.920446 
L 218.525078 343.434976 
L 219.399687 353.679052 
L 219.836991 359.829728 
L 220.274295 362.134493 
L 220.711599 374.865686 
L 221.148903 368.160133 
L 222.023511 386.011582 
L 222.460815 390.388513 
L 222.898119 395.990521 
L 223.335423 396.991163 
L 223.772727 400.329913 
L 224.210031 401.264731 
L 224.647335 406.9102 
L 225.084639 410.170765 
L 225.521944 408.727291 
L 225.959248 413.385168 
L 226.396552 413.581261 
L 226.833856 414.617603 
L 227.27116 417.839134 
L 227.708464 417.524155 
L 228.145768 418.667828 
L 228.583072 418.657078 
L 229.020376 417.313576 
L 229.894984 413.061969 
L 230.769592 409.908101 
L 231.206897 408.733212 
L 231.644201 408.336255 
L 232.081505 406.632014 
L 232.518809 407.28968 
L 232.956113 406.206025 
L 233.393417 408.895732 
L 233.830721 407.438977 
L 234.268025 403.638194 
L 234.705329 403.172136 
L 235.142633 405.335824 
L 235.579937 395.118308 
L 236.017241 392.210204 
L 236.454545 388.266504 
L 236.89185 392.403997 
L 237.329154 387.195209 
L 237.766458 383.723489 
L 238.203762 379.224912 
L 238.641066 379.652855 
L 239.07837 371.961663 
L 239.515674 374.963244 
L 239.952978 377.076285 
L 240.827586 371.6207 
L 241.26489 371.78391 
L 242.139498 366.817608 
L 242.576803 365.425183 
L 243.451411 356.300117 
L 244.326019 348.84549 
L 244.763323 347.013165 
L 245.200627 348.022832 
L 245.637931 345.820684 
L 246.075235 346.216089 
L 246.512539 347.800525 
L 246.949843 344.294082 
L 247.387147 345.049421 
L 247.824451 341.74068 
L 248.261755 339.70956 
L 248.69906 334.498243 
L 249.136364 339.32686 
L 249.573668 339.783892 
L 250.010972 342.651295 
L 250.448276 341.032079 
L 250.88558 343.407094 
L 251.322884 346.724976 
L 251.760188 347.027307 
L 252.197492 346.358085 
L 252.634796 352.635466 
L 253.509404 358.535206 
L 253.946708 356.92513 
L 254.384013 351.104839 
L 254.821317 354.780586 
L 255.258621 350.072866 
L 255.695925 358.217526 
L 256.133229 356.205204 
L 256.570533 361.124653 
L 257.007837 355.094932 
L 257.445141 354.081643 
L 257.882445 357.259195 
L 258.319749 355.436298 
L 258.757053 354.18311 
L 259.194357 351.356811 
L 259.631661 354.592771 
L 260.068966 355.179555 
L 260.50627 352.185735 
L 260.943574 347.246395 
L 261.380878 345.450689 
L 261.818182 348.698263 
L 262.255486 353.87365 
L 262.69279 355.287863 
L 263.130094 354.822207 
L 264.004702 370.136581 
L 264.442006 364.972635 
L 264.87931 368.550018 
L 265.316614 360.256119 
L 265.753918 368.099482 
L 266.191223 367.60468 
L 266.628527 368.05148 
L 267.065831 362.82924 
L 267.503135 364.603329 
L 267.940439 363.497599 
L 268.377743 361.428651 
L 268.815047 362.081546 
L 269.252351 360.96541 
L 269.689655 363.991481 
L 270.126959 361.779273 
L 270.564263 367.356101 
L 271.001567 369.500933 
L 271.438871 375.106103 
L 271.876176 376.446386 
L 272.31348 380.597388 
L 272.750784 380.197959 
L 273.188088 383.676176 
L 273.625392 385.034567 
L 274.062696 383.770112 
L 274.5 382.985453 
L 274.937304 385.481022 
L 275.374608 385.653544 
L 275.811912 389.873878 
L 276.68652 401.640589 
L 277.998433 408.867275 
L 278.435737 408.401332 
L 278.873041 409.414851 
L 279.310345 404.7779 
L 279.747649 409.419565 
L 280.622257 415.156671 
L 281.059561 415.686886 
L 282.371473 425.967927 
L 283.246082 429.140995 
L 283.683386 431.554585 
L 284.12069 432.036797 
L 284.557994 433.223241 
L 284.995298 433.791514 
L 285.432602 435.509437 
L 285.869906 434.476947 
L 286.30721 436.881799 
L 286.744514 437.589998 
L 287.181818 438.583511 
L 287.619122 439.002486 
L 288.056426 440.80348 
L 288.49373 445.503956 
L 288.931034 446.145411 
L 289.368339 445.079577 
L 289.805643 447.936518 
L 290.242947 451.672857 
L 290.680251 452.240439 
L 291.117555 451.235313 
L 291.554859 447.721166 
L 292.429467 442.079491 
L 292.866771 438.997657 
L 293.304075 439.088661 
L 293.741379 439.367134 
L 294.178683 441.461147 
L 294.615987 441.527948 
L 295.053292 442.273342 
L 295.490596 441.335362 
L 296.365204 434.413135 
L 296.802508 431.990692 
L 297.239812 424.389872 
L 297.677116 424.570155 
L 298.11442 422.653149 
L 298.551724 418.81885 
L 298.989028 417.268505 
L 299.426332 418.774182 
L 299.863636 419.826276 
L 300.30094 422.374044 
L 300.738245 423.967448 
L 301.175549 424.92986 
L 301.612853 424.03126 
L 302.050157 424.591368 
L 302.487461 426.764887 
L 303.362069 429.478624 
L 304.673981 431.126182 
L 305.111285 430.308756 
L 305.985893 433.778636 
L 307.297806 422.716961 
L 308.172414 420.260658 
L 308.609718 417.665979 
L 309.047022 418.352102 
L 309.484326 419.283931 
L 309.92163 419.236215 
L 310.358934 420.084801 
L 310.796238 419.658697 
L 311.233542 418.626609 
L 312.545455 413.312618 
L 312.982759 410.948008 
L 313.420063 410.859016 
L 313.857367 412.520429 
L 314.294671 409.555123 
L 314.731975 411.307942 
L 315.169279 415.908503 
L 315.606583 415.404676 
L 316.043887 413.692328 
L 316.481191 416.449928 
L 317.355799 409.368573 
L 317.793103 407.768501 
L 318.230408 408.482046 
L 318.667712 410.317821 
L 319.105016 412.921582 
L 319.54232 410.683906 
L 320.416928 403.000476 
L 320.854232 387.736059 
L 321.72884 392.418829 
L 322.166144 393.005612 
L 322.603448 390.880326 
L 323.040752 393.668855 
L 323.478056 393.483628 
L 323.915361 396.791449 
L 324.352665 399.195956 
L 324.789969 399.894209 
L 325.227273 401.941598 
L 325.664577 402.593344 
L 326.101881 401.339351 
L 326.539185 405.453963 
L 326.976489 407.128655 
L 327.413793 404.205316 
L 327.851097 407.409658 
L 328.288401 407.059842 
L 328.725705 404.505808 
L 329.163009 406.105363 
L 329.600313 400.844376 
L 330.037618 398.622969 
L 330.474922 392.94203 
L 330.912226 398.656428 
L 331.34953 396.295382 
L 331.786834 397.226693 
L 332.224138 392.029345 
L 332.661442 399.133868 
L 333.098746 400.758029 
L 333.53605 402.873772 
L 333.973354 399.798088 
L 334.410658 400.416433 
L 334.847962 400.023788 
L 335.285266 398.921966 
L 335.722571 398.555593 
L 336.159875 397.341842 
L 336.597179 397.73489 
L 337.034483 394.574871 
L 337.909091 390.355457 
L 338.346395 390.593229 
L 338.783699 388.633165 
L 339.221003 390.258992 
L 339.658307 392.559675 
L 340.095611 392.125178 
L 340.532915 391.370414 
L 340.970219 391.072682 
L 341.407524 390.452498 
L 341.844828 391.494474 
L 342.282132 389.175739 
L 342.719436 389.355448 
L 343.15674 385.994508 
L 343.594044 387.179975 
L 344.031348 383.063408 
L 344.468652 377.215292 
L 344.905956 372.914015 
L 345.34326 376.49985 
L 345.780564 372.960983 
L 346.217868 356.816075 
L 346.655172 362.328286 
L 347.092476 365.010404 
L 347.529781 370.162106 
L 347.967085 368.738925 
L 348.404389 373.949782 
L 348.841693 371.221156 
L 349.278997 381.037059 
L 349.716301 368.327424 
L 350.590909 358.709856 
L 351.028213 358.205683 
L 351.465517 365.750969 
L 351.902821 364.138766 
L 352.340125 360.900391 
L 352.777429 352.391083 
L 353.214734 360.039733 
L 354.089342 368.388534 
L 354.526646 372.90154 
L 354.96395 374.926337 
L 355.401254 366.677566 
L 355.838558 361.392549 
L 356.275862 369.953194 
L 356.713166 383.367176 
L 357.587774 393.058616 
L 358.025078 393.031079 
L 358.462382 378.995188 
L 358.899687 369.202856 
L 359.336991 378.422087 
L 359.774295 393.153759 
L 360.211599 388.937393 
L 360.648903 387.173536 
L 361.086207 390.618639 
L 361.523511 403.373403 
L 361.960815 404.830042 
L 362.398119 397.985654 
L 362.835423 411.244992 
L 363.272727 411.264941 
L 363.710031 434.853668 
L 364.147335 424.439312 
L 364.584639 431.078352 
L 365.021944 410.443433 
L 365.459248 412.591657 
L 365.896552 439.684815 
L 366.333856 446.145181 
L 366.77116 399.777795 
L 367.645768 431.391318 
L 368.083072 450.868422 
L 368.520376 441.341341 
L 368.95768 447.58992 
L 369.394984 451.972486 
L 369.832288 464.935932 
L 370.269592 472.764463 
L 370.706897 472.491853 
L 371.144201 479.211377 
L 371.581505 494.717762 
L 372.018809 501.179566 
L 372.456113 499.885906 
L 372.893417 510.888827 
L 373.330721 514.848969 
L 373.768025 514.998956 
L 374.205329 509.882494 
L 375.079937 504.616793 
L 375.517241 494.177084 
L 375.954545 501.083618 
L 376.39185 519.008077 
L 376.829154 519.487012 
L 377.266458 517.968975 
L 377.703762 515.997298 
L 378.141066 519.785089 
L 378.57837 520.957621 
L 379.452978 513.037166 
L 379.890282 519.541741 
L 380.327586 521.095996 
L 380.76489 524.322413 
L 381.202194 526.0366 
L 381.639498 526.424014 
L 382.076803 528.376433 
L 382.514107 525.267176 
L 383.388715 521.853634 
L 383.826019 524.180417 
L 384.263323 528.43875 
L 384.700627 525.651198 
L 385.137931 520.486389 
L 385.575235 519.984114 
L 386.449843 530.923798 
L 386.887147 531.705812 
L 387.324451 534.735217 
L 387.761755 536.23572 
L 388.19906 535.998523 
L 388.636364 533.467255 
L 389.073668 535.121021 
L 389.510972 529.942185 
L 389.948276 529.938448 
L 390.38558 527.151874 
L 390.822884 525.645507 
L 391.260188 528.162404 
L 391.697492 533.886574 
L 392.5721 538.00843 
L 393.009404 541.780815 
L 393.446708 534.678936 
L 393.884013 537.226302 
L 394.321317 542.253944 
L 394.758621 538.817866 
L 395.195925 539.592004 
L 395.633229 534.61041 
L 396.070533 538.1556 
L 396.507837 537.821938 
L 396.945141 536.291944 
L 397.819749 516.793511 
L 398.257053 526.892027 
L 398.694357 522.967126 
L 399.131661 521.67634 
L 399.568966 515.083751 
L 400.00627 516.881583 
L 400.443574 512.791921 
L 401.318182 518.840901 
L 401.755486 516.785233 
L 402.19279 513.253782 
L 402.630094 516.245878 
L 403.067398 524.183464 
L 403.504702 520.836551 
L 403.942006 521.794306 
L 404.37931 521.107436 
L 404.816614 523.689007 
L 405.253918 525.374622 
L 405.691223 520.57084 
L 406.128527 520.69306 
L 406.565831 520.554226 
L 407.440439 527.02425 
L 407.877743 531.857236 
L 408.315047 534.244727 
L 408.752351 537.498854 
L 409.626959 540.22633 
L 410.064263 537.21009 
L 410.501567 538.514558 
L 411.376176 534.203163 
L 411.81348 535.620767 
L 412.250784 534.469161 
L 412.688088 532.51795 
L 413.562696 535.587539 
L 414 534.573158 
L 414.874608 539.177398 
L 415.311912 537.087755 
L 415.749216 539.362108 
L 416.18652 539.19016 
L 416.623824 541.701596 
L 417.061129 538.977511 
L 417.935737 545.819427 
L 418.373041 549.187784 
L 418.810345 551.657712 
L 419.247649 552.2096 
L 419.684953 553.340511 
L 420.559561 548.253541 
L 421.434169 537.964509 
L 421.871473 533.399648 
L 422.308777 527.572976 
L 422.746082 524.194272 
L 423.183386 525.291666 
L 423.62069 523.836637 
L 424.057994 524.643313 
L 424.495298 526.151347 
L 424.932602 526.111335 
L 425.80721 522.735678 
L 426.244514 522.65048 
L 427.119122 521.898245 
L 427.556426 518.260959 
L 427.99373 519.443034 
L 428.431034 518.663952 
L 428.868339 509.989537 
L 429.742947 500.771456 
L 430.180251 495.039007 
L 430.617555 493.068767 
L 431.054859 492.067378 
L 431.929467 487.21565 
L 432.366771 485.298529 
L 432.804075 482.291947 
L 433.241379 480.7343 
L 433.678683 475.591049 
L 434.115987 473.918886 
L 434.553292 468.967761 
L 435.4279 462.098021 
L 435.865204 461.39741 
L 436.302508 459.560946 
L 436.739812 453.101902 
L 437.177116 452.53041 
L 438.489028 440.875858 
L 438.926332 433.968923 
L 439.363636 429.738989 
L 439.80094 428.564675 
L 440.238245 426.672274 
L 440.675549 427.939719 
L 441.112853 425.541133 
L 441.550157 419.461167 
L 441.987461 416.309887 
L 442.862069 404.411987 
L 443.299373 403.219449 
L 443.736677 404.073438 
L 444.173981 406.821955 
L 444.611285 405.343125 
L 445.048589 409.64331 
L 445.485893 405.141169 
L 445.923197 398.357201 
L 446.797806 389.534639 
L 447.23511 382.542218 
L 447.672414 382.71704 
L 448.109718 383.132738 
L 448.547022 382.975278 
L 448.984326 381.889956 
L 449.42163 382.735724 
L 449.858934 378.141717 
L 450.296238 371.473013 
L 450.733542 359.51245 
L 452.045455 346.764873 
L 452.482759 345.158706 
L 452.920063 345.328239 
L 453.357367 350.200893 
L 453.794671 346.666453 
L 454.231975 346.473464 
L 454.669279 347.372524 
L 455.106583 347.063007 
L 455.543887 346.417183 
L 455.981191 346.318936 
L 456.418495 344.992278 
L 457.293103 334.781373 
L 457.730408 332.615212 
L 458.167712 332.313169 
L 458.605016 331.83843 
L 459.04232 334.276625 
L 459.479624 335.570745 
L 459.916928 334.596778 
L 460.354232 336.326601 
L 460.791536 335.185056 
L 461.22884 334.823856 
L 462.103448 331.211002 
L 462.540752 331.495282 
L 462.978056 330.145456 
L 463.415361 330.34747 
L 464.289969 333.597918 
L 464.727273 334.802586 
L 465.164577 336.575353 
L 465.601881 337.662228 
L 466.039185 336.399094 
L 466.476489 334.578554 
L 466.913793 331.365876 
L 467.351097 333.463568 
L 467.788401 337.364668 
L 468.225705 336.367073 
L 468.663009 337.5507 
L 469.100313 342.078481 
L 469.537618 342.258592 
L 469.974922 346.640066 
L 470.412226 344.567381 
L 470.84953 344.537832 
L 471.724138 345.675009 
L 472.161442 341.83933 
L 472.598746 345.366986 
L 473.03605 344.497073 
L 473.910658 346.527906 
L 474.347962 345.046489 
L 474.785266 348.653537 
L 475.222571 348.950349 
L 476.097179 353.188964 
L 476.534483 352.131811 
L 476.971787 353.540907 
L 477.409091 353.802824 
L 478.283699 358.460356 
L 479.158307 361.244919 
L 479.595611 363.209237 
L 480.032915 363.032576 
L 481.782132 373.651533 
L 482.219436 374.029404 
L 482.65674 376.835352 
L 483.094044 380.42613 
L 483.531348 385.217553 
L 484.405956 389.679912 
L 484.84326 394.929861 
L 485.280564 395.598911 
L 485.717868 398.355304 
L 486.155172 401.996557 
L 486.592476 407.737399 
L 487.029781 409.060378 
L 487.467085 414.609152 
L 487.904389 416.74812 
L 488.341693 419.592816 
L 488.778997 424.974068 
L 489.216301 427.855383 
L 489.653605 428.578817 
L 490.090909 433.117118 
L 490.528213 441.32191 
L 490.965517 446.162428 
L 491.402821 452.476429 
L 491.840125 455.920842 
L 492.277429 465.140763 
L 493.589342 476.667173 
L 494.901254 488.157539 
L 495.775862 501.521391 
L 496.213166 501.589745 
L 496.65047 504.061341 
L 497.087774 507.284941 
L 497.525078 509.228449 
L 497.962382 516.698196 
L 498.399687 520.737211 
L 498.836991 528.502562 
L 499.274295 529.077848 
L 499.711599 534.829785 
L 500.148903 538.964231 
L 500.586207 546.744127 
L 501.023511 545.616551 
L 503.210031 565.133466 
L 504.084639 570.677554 
L 504.521944 575.359576 
L 504.959248 575.123127 
L 505.396552 575.52888 
L 505.833856 577.649308 
L 506.708464 578.272165 
L 507.145768 578.23612 
L 507.583072 579.079589 
L 508.020376 579.413999 
L 508.45768 580.041915 
L 508.894984 577.684893 
L 509.332288 574.443989 
L 509.769592 574.022455 
L 511.081505 566.461877 
L 511.518809 565.257267 
L 511.956113 560.293035 
L 513.705329 550.780498 
L 514.579937 540.179075 
L 515.017241 538.853049 
L 515.454545 539.060122 
L 515.89185 538.313981 
L 516.766458 529.39846 
L 517.203762 529.276643 
L 517.641066 524.36392 
L 518.07837 517.588575 
L 518.952978 510.266804 
L 519.390282 501.378418 
L 519.827586 499.217374 
L 520.26489 491.138079 
L 520.702194 475.331145 
L 521.139498 478.599356 
L 521.576803 474.890669 
L 522.014107 460.455464 
L 522.451411 464.993133 
L 522.888715 463.732241 
L 523.326019 463.089004 
L 523.763323 463.678317 
L 524.200627 457.788695 
L 524.637931 458.784451 
L 525.075235 462.2729 
L 525.949843 445.054972 
L 526.387147 444.101126 
L 526.824451 435.894149 
L 527.261755 439.968692 
L 527.69906 432.891821 
L 528.136364 428.310461 
L 528.573668 425.626791 
L 529.010972 426.821916 
L 529.448276 423.373593 
L 529.88558 423.698862 
L 530.322884 419.073638 
L 531.197492 417.459194 
L 531.634796 421.515628 
L 532.0721 421.672456 
L 532.509404 427.462508 
L 532.946708 429.427229 
L 533.384013 434.923114 
L 533.821317 437.376773 
L 534.258621 428.244235 
L 534.695925 426.638413 
L 535.133229 429.075458 
L 535.570533 429.026018 
L 536.007837 427.201914 
L 536.445141 430.69295 
L 536.882445 425.680715 
L 537.319749 424.441611 
L 537.757053 432.919358 
L 538.194357 438.286871 
L 538.631661 438.546776 
L 539.50627 437.705089 
L 539.943574 436.665988 
L 540.380878 437.419947 
L 540.818182 447.372212 
L 541.255486 449.600115 
L 541.69279 450.642723 
L 542.130094 455.993622 
L 542.567398 458.368408 
L 543.004702 457.813645 
L 543.442006 464.889711 
L 543.87931 467.566943 
L 544.316614 467.020459 
L 544.753918 466.18935 
L 545.191223 469.035712 
L 545.628527 468.725448 
L 546.065831 475.523386 
L 546.503135 478.675298 
L 547.377743 482.331901 
L 547.815047 488.137015 
L 548.252351 490.021023 
L 548.689655 490.681736 
L 549.126959 495.891099 
L 549.564263 496.577625 
L 550.001567 499.364831 
L 550.438871 499.118551 
L 550.876176 502.074601 
L 551.750784 510.331421 
L 552.188088 512.318505 
L 552.625392 512.898907 
L 553.062696 519.85649 
L 553.5 521.523306 
L 553.937304 527.585796 
L 554.374608 530.705975 
L 554.811912 537.163927 
L 555.249216 538.693576 
L 556.123824 552.015347 
L 556.561129 565.200181 
L 556.998433 564.028971 
L 557.435737 566.817385 
L 557.873041 567.830502 
L 558.310345 574.045681 
L 558.747649 572.820604 
L 559.184953 569.428534 
L 559.622257 574.669142 
L 560.059561 572.31442 
L 560.496865 571.74974 
L 560.934169 570.956976 
L 561.371473 571.599897 
L 561.808777 571.737064 
L 562.246082 573.868329 
L 563.12069 580.097477 
L 563.995298 581.873206 
L 564.432602 586.179858 
L 564.869906 584.544688 
L 565.744514 591.57715 
L 566.181818 593.536697 
L 566.619122 592.932092 
L 567.056426 593.822127 
L 567.931034 590.615312 
L 568.368339 588.189362 
L 569.680251 582.683791 
L 570.117555 582.952923 
L 570.554859 581.699533 
L 570.992163 581.347331 
L 571.429467 579.677151 
L 571.866771 579.754329 
L 572.304075 574.963482 
L 572.741379 575.332758 
L 573.178683 575.350608 
L 573.615987 574.180721 
L 574.053292 574.106216 
L 574.490596 572.295161 
L 574.9279 570.970084 
L 575.365204 568.177329 
L 575.802508 566.912701 
L 576.239812 564.853929 
L 576.677116 559.860809 
L 577.551724 552.088472 
L 578.426332 539.870017 
L 579.30094 521.097318 
L 579.738245 517.567879 
L 580.612853 500.034111 
L 581.050157 496.003661 
L 581.924765 478.965557 
L 582.799373 466.735374 
L 583.236677 464.851424 
L 583.673981 452.040035 
L 584.111285 446.831707 
L 584.548589 433.462335 
L 584.985893 435.663391 
L 585.423197 426.484287 
L 585.860502 420.178622 
L 586.297806 411.648216 
L 587.609718 400.81293 
L 588.047022 387.686677 
L 590.233542 337.621641 
L 590.670846 335.584082 
L 591.10815 326.857181 
L 591.545455 322.753204 
L 591.982759 314.520702 
L 592.420063 314.655628 
L 592.857367 308.789461 
L 593.294671 301.335294 
L 593.731975 288.165982 
L 594.169279 292.566024 
L 594.606583 281.528149 
L 595.481191 267.962685 
L 595.918495 266.38555 
L 596.355799 260.052463 
L 596.793103 251.16034 
L 597.230408 257.869574 
L 597.667712 245.242262 
L 598.105016 250.603681 
L 598.54232 247.498219 
L 598.979624 261.847479 
L 599.416928 253.988134 
L 599.854232 256.304339 
L 600.291536 250.263752 
L 600.72884 264.154141 
L 601.166144 269.205123 
L 601.603448 264.630891 
L 602.040752 256.182464 
L 602.478056 254.904268 
L 602.915361 235.246018 
L 603.352665 221.913554 
L 603.789969 218.744912 
L 604.227273 224.458563 
L 604.664577 212.786937 
L 605.101881 196.788279 
L 605.539185 199.359502 
L 605.976489 199.811475 
L 606.413793 205.261542 
L 606.851097 218.798032 
L 607.288401 215.547009 
L 607.725705 211.054238 
L 608.163009 195.027181 
L 608.600313 168.274067 
L 609.912226 178.809723 
L 610.34953 175.03343 
L 610.786834 173.811745 
L 611.224138 173.535801 
L 611.661442 171.327617 
L 612.098746 170.661959 
L 612.973354 168.658319 
L 613.410658 166.062778 
L 613.847962 165.47588 
L 614.285266 166.325615 
L 614.722571 166.217939 
L 615.159875 162.453201 
L 615.597179 159.659843 
L 616.034483 162.364554 
L 616.471787 163.14789 
L 616.909091 164.761357 
L 617.346395 158.472881 
L 618.658307 183.053684 
L 619.095611 184.673648 
L 619.532915 189.987064 
L 619.970219 190.812942 
L 620.407524 190.142225 
L 620.844828 195.449778 
L 621.282132 194.499496 
L 621.719436 200.942328 
L 622.15674 203.068994 
L 622.594044 207.064778 
L 623.031348 215.602025 
L 623.468652 214.44651 
L 623.905956 215.895676 
L 624.780564 217.989631 
L 625.217868 211.093503 
L 625.655172 211.765369 
L 626.092476 211.473788 
L 626.529781 205.535589 
L 626.967085 203.410015 
L 627.404389 208.268009 
L 630.028213 182.324157 
L 630.465517 181.606243 
L 630.902821 186.173978 
L 631.340125 178.248062 
L 631.777429 173.707576 
L 632.214734 170.888119 
L 632.652038 165.518996 
L 633.089342 163.69857 
L 633.526646 168.45596 
L 633.96395 169.183187 
L 634.401254 174.474126 
L 634.838558 178.348149 
L 635.275862 191.801626 
L 635.713166 195.020283 
L 636.15047 205.816074 
L 636.587774 209.235997 
L 637.462382 212.577507 
L 637.899687 218.095007 
L 638.336991 213.596257 
L 638.774295 224.123291 
L 639.211599 227.446001 
L 639.648903 236.780439 
L 640.086207 234.76944 
L 640.523511 237.017291 
L 640.960815 248.941003 
L 641.398119 250.858757 
L 641.835423 248.459251 
L 642.272727 243.909855 
L 642.710031 247.133915 
L 643.147335 248.027341 
L 643.584639 250.58333 
L 644.021944 249.702091 
L 644.459248 258.591455 
L 644.896552 261.201425 
L 645.333856 256.55562 
L 645.77116 262.274502 
L 646.208464 265.327477 
L 646.645768 273.453568 
L 647.083072 272.42286 
L 647.520376 276.878895 
L 647.95768 276.547245 
L 648.394984 286.378095 
L 648.832288 288.921148 
L 649.706897 300.261814 
L 650.144201 299.614151 
L 650.581505 303.319503 
L 651.018809 303.994991 
L 651.456113 302.23033 
L 651.893417 301.656481 
L 652.768025 311.639617 
L 653.205329 313.536502 
L 653.642633 320.117536 
L 654.079937 320.824068 
L 654.517241 317.803804 
L 654.954545 321.889154 
L 655.39185 328.445814 
L 655.829154 331.612673 
L 656.266458 332.637978 
L 657.141066 340.128362 
L 657.57837 342.817551 
L 658.452978 352.106573 
L 658.890282 357.067127 
L 659.327586 357.638331 
L 659.76489 358.586716 
L 660.202194 363.002509 
L 660.639498 368.695234 
L 661.076803 371.113021 
L 661.514107 374.752492 
L 661.951411 377.245933 
L 662.826019 384.347237 
L 663.263323 384.889467 
L 663.700627 385.907413 
L 664.137931 384.36845 
L 664.575235 379.910403 
L 665.449843 377.703023 
L 665.887147 379.962832 
L 666.324451 381.12973 
L 666.761755 374.939502 
L 667.19906 379.720116 
L 667.636364 381.174513 
L 668.073668 378.461754 
L 668.510972 383.547977 
L 668.948276 385.718736 
L 669.38558 385.043766 
L 670.260188 386.469304 
L 670.697492 388.11508 
L 672.009404 380.466947 
L 672.446708 382.285131 
L 672.884013 380.711387 
L 673.321317 380.409574 
L 673.758621 379.091826 
L 674.195925 380.682298 
L 675.070533 379.7768 
L 675.507837 378.155801 
L 675.945141 377.289395 
L 676.819749 379.369782 
L 677.257053 378.281873 
L 677.694357 378.722981 
L 678.131661 379.336324 
L 679.00627 383.681982 
L 679.443574 383.765225 
L 679.880878 382.618333 
L 680.318182 385.868666 
L 680.755486 383.542803 
L 681.19279 386.907307 
L 681.630094 387.864488 
L 682.067398 389.614835 
L 682.504702 388.990972 
L 683.816614 401.788909 
L 684.253918 400.719224 
L 685.128527 397.764554 
L 685.565831 395.544182 
L 686.003135 395.116296 
L 686.440439 395.403968 
L 686.877743 397.863836 
L 687.315047 403.914138 
L 687.752351 401.72251 
L 688.189655 403.500682 
L 688.626959 402.512342 
L 689.064263 403.313385 
L 689.501567 401.312503 
L 689.938871 401.828346 
L 690.376176 398.095112 
L 691.250784 410.336562 
L 691.688088 419.462777 
L 692.125392 416.981121 
L 692.562696 410.314371 
L 693 409.420888 
L 693.437304 409.47096 
L 693.874608 410.694312 
L 694.311912 414.694407 
L 694.749216 413.596265 
L 695.623824 422.070505 
L 696.061129 422.781981 
L 696.498433 426.560401 
L 696.935737 424.875188 
L 697.810345 416.223022 
L 698.247649 422.97083 
L 698.684953 418.310251 
L 699.122257 425.066107 
L 699.559561 424.095647 
L 699.996865 417.713752 
L 700.434169 417.938301 
L 700.871473 420.185463 
L 701.308777 421.034106 
L 701.746082 423.11984 
L 702.183386 428.11661 
L 702.62069 426.205468 
L 703.057994 425.280481 
L 703.495298 422.452975 
L 703.932602 421.490735 
L 704.369906 419.987473 
L 704.80721 424.146984 
L 705.244514 423.710877 
L 705.681818 431.735673 
L 706.556426 424.465986 
L 706.99373 418.897322 
L 707.431034 425.652028 
L 707.868339 417.041713 
L 708.305643 416.914032 
L 708.742947 417.384459 
L 709.180251 419.05231 
L 709.617555 411.978256 
L 710.492163 414.836001 
L 710.929467 407.872727 
L 711.366771 405.353991 
L 711.804075 409.588409 
L 712.241379 410.606872 
L 712.678683 414.309408 
L 713.115987 410.546509 
L 713.553292 414.334358 
L 713.990596 415.243996 
L 714.4279 418.846962 
L 714.865204 419.388617 
L 715.302508 418.242185 
L 715.739812 408.572245 
L 716.177116 417.088509 
L 716.61442 417.990041 
L 717.051724 425.008964 
L 717.489028 412.083517 
L 717.926332 417.092533 
L 718.363636 415.50873 
L 718.80094 425.450072 
L 719.238245 423.723122 
L 719.675549 423.456376 
L 720.112853 424.894677 
L 720.550157 421.678205 
L 720.987461 421.293723 
L 721.424765 422.164958 
L 722.299373 417.048842 
L 723.173981 422.899717 
L 724.485893 438.958507 
L 724.923197 433.332067 
L 725.360502 423.816828 
L 725.797806 424.682947 
L 726.23511 430.81747 
L 726.672414 431.194363 
L 727.109718 419.384593 
L 727.547022 419.450589 
L 727.984326 422.583244 
L 728.42163 421.062505 
L 728.858934 415.810141 
L 729.296238 425.622019 
L 729.733542 426.376439 
L 730.170846 420.002822 
L 730.60815 418.901921 
L 731.045455 412.832015 
L 731.482759 415.177539 
L 731.920063 408.088366 
L 732.357367 408.829678 
L 732.794671 406.31554 
L 733.669279 424.498697 
L 734.543887 411.298399 
L 734.981191 416.088212 
L 735.418495 430.187168 
L 736.293103 425.155616 
L 736.730408 408.378854 
L 737.167712 403.327355 
L 737.605016 410.396867 
L 738.479624 395.793969 
L 738.916928 403.578004 
L 739.354232 400.793671 
L 739.791536 384.337694 
L 740.22884 380.830446 
L 740.666144 380.042223 
L 741.103448 388.635579 
L 741.540752 386.537485 
L 741.978056 397.592204 
L 742.415361 396.866643 
L 742.852665 399.14962 
L 743.289969 395.942346 
L 743.727273 401.976954 
L 744.164577 401.058118 
L 744.601881 393.150828 
L 745.039185 391.659063 
L 745.476489 392.852693 
L 745.913793 387.380724 
L 746.351097 402.125274 
L 746.788401 398.669018 
L 747.225705 397.983642 
L 747.663009 394.29657 
L 748.100313 398.054582 
L 748.537618 395.51584 
L 748.974922 391.259059 
L 749.412226 381.133582 
L 749.84953 388.415226 
L 750.286834 391.236754 
L 750.724138 386.944215 
L 751.161442 380.424348 
L 751.598746 380.075452 
L 752.03605 370.743946 
L 752.473354 375.839826 
L 752.910658 385.575878 
L 753.347962 391.432731 
L 753.785266 388.919744 
L 754.222571 381.029125 
L 754.659875 391.240433 
L 755.097179 391.37783 
L 755.971787 379.024047 
L 756.409091 387.835456 
L 756.846395 392.739211 
L 757.283699 387.929105 
L 757.721003 389.484969 
L 758.158307 395.41949 
L 758.595611 398.695347 
L 759.032915 392.830273 
L 759.470219 396.803866 
L 759.907524 396.846925 
L 760.344828 391.663892 
L 761.219436 396.21783 
L 761.65674 401.745333 
L 762.094044 400.987982 
L 762.531348 404.243833 
L 762.968652 403.135458 
L 763.405956 398.831652 
L 763.84326 396.898032 
L 764.280564 399.107366 
L 764.717868 405.446202 
L 765.155172 401.925961 
L 765.592476 402.439217 
L 766.029781 410.359212 
L 766.467085 414.376784 
L 766.904389 412.082942 
L 767.341693 413.00448 
L 767.778997 415.537014 
L 768.216301 416.841884 
L 768.653605 416.093616 
L 769.090909 414.414727 
L 769.528213 413.934699 
L 770.402821 403.421923 
L 770.840125 402.193685 
L 771.277429 416.79825 
L 771.714734 415.936213 
L 772.152038 421.882518 
L 772.589342 421.343623 
L 773.026646 421.980766 
L 773.46395 421.993298 
L 773.901254 416.887932 
L 774.338558 417.059017 
L 774.775862 426.686933 
L 775.213166 427.39197 
L 775.65047 427.722585 
L 776.087774 428.300631 
L 776.525078 430.945956 
L 776.962382 430.979702 
L 777.399687 432.636171 
L 777.836991 436.953947 
L 778.274295 437.45467 
L 778.711599 436.338534 
L 779.148903 432.598688 
L 779.586207 433.590189 
L 780.460815 445.145172 
L 780.898119 442.582399 
L 781.335423 444.751779 
L 781.772727 451.494988 
L 782.647335 453.107133 
L 783.084639 453.297649 
L 783.521944 455.121869 
L 784.396552 464.650388 
L 784.833856 467.66657 
L 785.27116 472.666043 
L 785.708464 476.366739 
L 786.145768 475.075896 
L 786.583072 472.67984 
L 787.020376 466.69496 
L 787.45768 469.825085 
L 787.894984 469.276129 
L 788.332288 471.680521 
L 788.769592 471.439185 
L 789.206897 473.019654 
L 789.644201 475.693839 
L 790.081505 479.747858 
L 790.518809 478.368023 
L 790.956113 481.023179 
L 791.830721 488.973356 
L 792.268025 488.047506 
L 792.705329 490.930373 
L 793.142633 498.095432 
L 793.579937 497.848232 
L 794.017241 500.611178 
L 794.454545 497.25202 
L 795.329154 509.490021 
L 795.766458 511.904819 
L 796.203762 505.130106 
L 796.641066 512.803304 
L 797.07837 516.405005 
L 797.515674 515.512384 
L 797.952978 516.986442 
L 798.390282 517.019555 
L 798.827586 519.100346 
L 799.26489 518.399218 
L 799.702194 518.856308 
L 801.014107 527.147792 
L 801.451411 527.88485 
L 801.888715 525.414462 
L 802.326019 527.741589 
L 802.763323 528.593566 
L 803.200627 529.142925 
L 803.637931 531.192556 
L 804.075235 531.649359 
L 804.512539 531.540993 
L 804.949843 529.367072 
L 805.387147 523.162931 
L 805.824451 521.08467 
L 806.261755 520.38406 
L 806.69906 521.292491 
L 807.136364 525.276375 
L 807.573668 532.172157 
L 808.010972 531.167779 
L 808.448276 533.065699 
L 808.88558 536.105682 
L 809.322884 540.745852 
L 809.760188 541.635944 
L 810.197492 538.589407 
L 811.0721 538.802287 
L 811.509404 540.12653 
L 811.946708 538.041601 
L 812.384013 539.187573 
L 812.821317 538.215216 
L 813.258621 540.101063 
L 813.695925 542.799968 
L 814.133229 544.170662 
L 814.570533 547.022428 
L 815.007837 548.717069 
L 815.445141 550.920712 
L 815.882445 552.299685 
L 816.319749 554.132355 
L 816.757053 555.3236 
L 817.194357 551.454376 
L 817.631661 549.434351 
L 818.068966 549.313166 
L 818.50627 551.750958 
L 818.943574 552.569535 
L 819.380878 554.39364 
L 819.818182 555.005775 
L 820.69279 556.953739 
L 821.130094 561.765368 
L 821.567398 561.62984 
L 822.004702 561.005832 
L 822.442006 555.495403 
L 822.87931 556.017225 
L 823.316614 554.714137 
L 824.191223 547.697859 
L 824.628527 549.998427 
L 825.065831 548.674988 
L 825.503135 550.892715 
L 825.940439 550.124326 
L 826.377743 548.601633 
L 826.815047 547.88711 
L 827.252351 543.559389 
L 827.689655 537.505637 
L 828.126959 541.312055 
L 829.001567 535.575467 
L 829.438871 534.278242 
L 829.876176 534.067663 
L 830.750784 527.703647 
L 831.188088 529.252785 
L 831.625392 528.964941 
L 832.062696 523.060429 
L 832.5 522.853241 
L 833.374608 516.469335 
L 833.811912 512.112122 
L 834.249216 513.968592 
L 834.68652 516.502046 
L 835.123824 515.924058 
L 835.561129 513.653039 
L 835.998433 512.904598 
L 836.435737 504.90389 
L 836.873041 507.206527 
L 837.310345 506.010655 
L 838.184953 500.940874 
L 838.622257 496.393777 
L 839.059561 496.077476 
L 839.496865 493.274863 
L 839.934169 494.59192 
L 840.371473 490.349051 
L 840.808777 489.671264 
L 841.246082 486.391612 
L 842.12069 483.859711 
L 842.557994 479.475996 
L 842.995298 477.690408 
L 843.432602 474.078014 
L 843.869906 474.292388 
L 844.30721 471.454189 
L 844.744514 472.019759 
L 845.181818 469.488031 
L 845.619122 469.025537 
L 846.056426 465.519899 
L 846.49373 464.358864 
L 846.931034 458.488616 
L 847.368339 456.773969 
L 847.805643 452.071136 
L 848.242947 449.178553 
L 848.680251 441.082011 
L 849.117555 439.231462 
L 849.554859 434.538862 
L 849.992163 428.472176 
L 850.429467 427.019963 
L 850.866771 428.751109 
L 851.304075 426.591158 
L 851.741379 422.578242 
L 852.178683 420.77765 
L 852.615987 421.004384 
L 853.490596 416.481662 
L 853.9279 416.961115 
L 854.365204 415.28349 
L 854.802508 414.848131 
L 855.239812 415.380358 
L 855.677116 414.950058 
L 856.11442 422.185884 
L 856.551724 425.951427 
L 856.989028 426.848878 
L 857.426332 430.721407 
L 857.863636 430.400047 
L 858.30094 425.026498 
L 858.738245 424.928767 
L 859.175549 419.490601 
L 859.612853 420.231511 
L 860.487461 405.480867 
L 860.924765 405.891219 
L 861.362069 408.481011 
L 861.799373 409.353741 
L 862.236677 412.903703 
L 862.673981 411.432347 
L 863.111285 416.649815 
L 863.548589 417.7717 
L 863.985893 419.629838 
L 864.423197 420.346833 
L 864.860502 420.315041 
L 865.297806 418.344916 
L 865.73511 420.831862 
L 866.172414 420.835426 
L 866.609718 422.198762 
L 867.484326 428.84608 
L 867.92163 436.41028 
L 868.358934 436.094496 
L 868.796238 436.925835 
L 869.233542 440.862463 
L 869.670846 440.299768 
L 870.10815 438.566149 
L 870.545455 440.888851 
L 870.982759 439.011109 
L 871.420063 439.875791 
L 871.857367 440.485455 
L 872.294671 442.489556 
L 872.731975 438.964371 
L 873.169279 438.66112 
L 873.606583 442.194123 
L 874.043887 438.091698 
L 874.481191 442.257705 
L 874.918495 441.128347 
L 875.355799 441.393138 
L 875.793103 439.479926 
L 876.230408 441.353126 
L 876.667712 449.162054 
L 877.105016 448.30818 
L 877.54232 445.22485 
L 877.979624 448.566705 
L 878.416928 445.331779 
L 879.291536 451.327524 
L 879.72884 456.651461 
L 880.166144 458.963297 
L 880.603448 467.393041 
L 881.040752 467.852143 
L 881.478056 469.473314 
L 881.915361 466.412462 
L 882.352665 468.006096 
L 882.789969 468.854164 
L 883.227273 468.203396 
L 884.101881 471.529729 
L 884.539185 475.033758 
L 884.976489 471.465802 
L 885.413793 471.715761 
L 885.851097 475.313381 
L 886.288401 477.52421 
L 886.725705 476.166853 
L 887.163009 478.596482 
L 887.600313 477.44936 
L 888.474922 472.243044 
L 888.912226 474.299344 
L 889.34953 475.597373 
L 889.786834 475.959952 
L 890.224138 479.452426 
L 891.098746 482.834062 
L 891.53605 478.888235 
L 893.285266 469.940694 
L 893.722571 469.823877 
L 894.159875 470.082977 
L 894.597179 469.031113 
L 895.034483 466.928133 
L 895.471787 466.87783 
L 895.909091 460.899676 
L 897.658307 456.193911 
L 898.095611 453.422284 
L 898.532915 452.236012 
L 899.407524 447.805502 
L 899.844828 449.96919 
L 900.282132 448.802867 
L 900.719436 448.293405 
L 901.15674 447.285807 
L 902.031348 445.978235 
L 902.468652 444.594606 
L 902.905956 442.552678 
L 903.780564 436.892549 
L 904.217868 436.707379 
L 904.655172 437.279331 
L 905.092476 442.213439 
L 905.967085 445.423818 
L 906.404389 446.87672 
L 906.841693 447.518807 
L 907.278997 443.024772 
L 907.716301 441.523809 
L 908.153605 440.892875 
L 908.590909 440.496148 
L 909.028213 441.523809 
L 909.465517 433.953343 
L 909.902821 444.211159 
L 910.340125 450.078015 
L 910.777429 453.500468 
L 911.214734 452.423022 
L 911.652038 450.69751 
L 912.089342 450.41438 
L 912.526646 452.915869 
L 912.96395 450.72269 
L 913.401254 450.303312 
L 913.838558 450.170917 
L 914.275862 452.200025 
L 914.713166 450.115613 
L 915.15047 449.046042 
L 915.587774 449.016666 
L 916.462382 444.393224 
L 917.336991 430.404761 
L 918.211599 439.666189 
L 918.648903 441.906394 
L 919.086207 439.603469 
L 919.523511 448.150029 
L 919.960815 445.914078 
L 920.398119 445.236923 
L 920.835423 439.444801 
L 921.710031 450.399605 
L 922.147335 446.260618 
L 922.584639 444.638239 
L 923.021944 446.479188 
L 923.459248 449.789826 
L 923.896552 448.589585 
L 924.333856 440.637569 
L 924.77116 438.352983 
L 925.208464 433.611345 
L 925.645768 439.909307 
L 926.083072 431.139692 
L 926.520376 417.497998 
L 926.95768 416.531332 
L 927.394984 420.794034 
L 927.832288 417.295869 
L 928.269592 414.886706 
L 929.144201 414.444391 
L 929.581505 410.670397 
L 930.018809 412.824887 
L 930.456113 415.626868 
L 931.330721 411.187964 
L 931.768025 411.218145 
L 932.205329 405.592452 
L 932.642633 405.088567 
L 933.079937 410.123912 
L 933.517241 410.426531 
L 933.954545 412.604074 
L 933.954545 412.604074 
" style="fill:none;stroke:#ff0000;stroke-linecap:square;stroke-width:1.5;"/>
   </g>
   <g id="line2d_32">
    <path clip-path="url(#pcff8942066)" d="M 173.045455 541.565061 
L 174.357367 556.22884 
L 174.794671 558.427596 
L 175.231975 558.122218 
L 175.669279 556.128264 
L 176.106583 556.321281 
L 176.543887 556.246546 
L 176.981191 553.55224 
L 177.418495 552.534754 
L 177.855799 551.207176 
L 178.293103 551.950845 
L 178.730408 551.387575 
L 179.167712 550.46138 
L 179.605016 549.199914 
L 180.04232 546.803685 
L 180.479624 545.32773 
L 180.916928 545.453572 
L 181.791536 546.996903 
L 182.22884 546.620757 
L 182.666144 546.720442 
L 183.103448 548.828079 
L 183.978056 556.497741 
L 184.415361 557.670302 
L 184.852665 557.920204 
L 185.289969 556.219268 
L 186.164577 550.379574 
L 187.039185 547.928272 
L 187.476489 544.918585 
L 187.913793 543.109312 
L 188.351097 542.063945 
L 188.788401 540.128657 
L 189.225705 538.826259 
L 189.663009 537.167146 
L 190.537618 536.705687 
L 191.412226 533.604479 
L 191.84953 532.0723 
L 192.286834 531.64407 
L 192.724138 530.835841 
L 193.161442 528.504114 
L 194.03605 517.385871 
L 194.910658 503.705315 
L 195.347962 499.411857 
L 196.222571 500.822793 
L 197.097179 506.498271 
L 197.971787 518.866886 
L 198.409091 523.015014 
L 198.846395 523.605994 
L 199.283699 522.031963 
L 199.721003 520.968027 
L 200.158307 518.674875 
L 200.595611 515.752915 
L 201.032915 511.127116 
L 202.782132 485.02178 
L 203.219436 474.946433 
L 203.65674 462.208571 
L 204.968652 416.82665 
L 205.84326 388.53164 
L 206.717868 357.311912 
L 208.029781 313.398875 
L 208.467085 306.47889 
L 208.904389 304.17309 
L 209.341693 305.952929 
L 209.778997 307.102638 
L 210.216301 305.382587 
L 210.653605 302.773537 
L 211.090909 301.486833 
L 211.528213 302.366979 
L 211.965517 301.40497 
L 212.402821 298.419313 
L 212.840125 297.835692 
L 213.277429 298.883876 
L 213.714734 298.057137 
L 214.152038 294.606055 
L 215.46395 279.426893 
L 216.338558 270.148334 
L 216.775862 266.622689 
L 217.213166 262.104164 
L 218.525078 243.876396 
L 218.962382 243.121632 
L 219.399687 242.777277 
L 219.836991 240.872631 
L 220.274295 242.526053 
L 221.148903 250.255417 
L 221.586207 252.688438 
L 222.023511 258.375413 
L 222.460815 268.710378 
L 223.772727 310.305888 
L 224.210031 319.817505 
L 225.084639 348.614215 
L 225.959248 365.670945 
L 226.396552 368.129434 
L 226.833856 371.239897 
L 227.27116 375.409986 
L 227.708464 375.944972 
L 228.145768 374.447574 
L 229.45768 355.047274 
L 229.894984 353.335042 
L 230.332288 355.581341 
L 231.206897 365.893598 
L 232.518809 388.135948 
L 233.830721 422.632971 
L 234.268025 436.085011 
L 234.705329 443.531302 
L 235.579937 465.2919 
L 236.454545 484.895996 
L 236.89185 490.203951 
L 237.329154 493.397025 
L 237.766458 494.221178 
L 238.203762 495.866551 
L 238.641066 495.540133 
L 239.07837 491.831905 
L 239.515674 489.112362 
L 241.26489 468.771611 
L 242.139498 456.52309 
L 243.014107 439.04336 
L 244.326019 410.864305 
L 245.200627 397.383119 
L 245.637931 392.48494 
L 246.075235 389.670369 
L 246.512539 388.548887 
L 246.949843 390.3078 
L 247.387147 390.59961 
L 247.824451 389.209887 
L 248.261755 389.310377 
L 248.69906 389.173095 
L 250.010972 368.500234 
L 250.448276 366.468941 
L 251.322884 355.724832 
L 252.634796 337.905806 
L 253.0721 336.959318 
L 253.509404 338.648555 
L 253.946708 338.904723 
L 254.384013 338.455509 
L 254.821317 338.979803 
L 255.258621 338.288448 
L 255.695925 337.18151 
L 256.133229 335.333605 
L 256.570533 331.0609 
L 257.882445 312.681306 
L 258.319749 309.361642 
L 258.757053 308.961408 
L 259.194357 308.976815 
L 259.631661 311.472556 
L 260.068966 315.398894 
L 260.943574 320.824011 
L 261.380878 321.4308 
L 261.818182 320.525301 
L 262.255486 318.620368 
L 262.69279 321.847073 
L 263.130094 326.735593 
L 264.442006 345.21562 
L 265.316614 359.90981 
L 265.753918 365.848814 
L 267.065831 392.870514 
L 267.503135 395.328313 
L 268.377743 391.199731 
L 268.815047 387.621197 
L 269.252351 388.865072 
L 269.689655 388.674384 
L 270.126959 389.400001 
L 271.001567 379.787148 
L 271.438871 376.98965 
L 271.876176 372.905852 
L 272.750784 361.886029 
L 273.625392 358.302033 
L 274.062696 353.547863 
L 274.937304 340.565274 
L 275.374608 340.639893 
L 276.249216 350.357261 
L 276.68652 356.404574 
L 277.561129 382.394013 
L 277.998433 389.551081 
L 278.435737 394.426321 
L 278.873041 393.430508 
L 279.310345 397.310108 
L 279.747649 398.884426 
L 280.184953 397.767888 
L 280.622257 392.665684 
L 281.059561 388.967632 
L 282.808777 369.879091 
L 283.683386 367.093724 
L 284.12069 370.336353 
L 284.557994 375.972797 
L 286.30721 408.151775 
L 286.744514 415.304818 
L 287.181818 420.222255 
L 287.619122 421.682804 
L 288.056426 421.59249 
L 288.49373 421.872515 
L 288.931034 421.752652 
L 289.368339 424.789761 
L 291.117555 452.431645 
L 291.554859 456.768795 
L 291.992163 458.251074 
L 292.429467 456.799896 
L 292.866771 451.815025 
L 293.304075 450.078475 
L 293.741379 449.369069 
L 294.178683 449.478585 
L 294.615987 449.314973 
L 295.053292 451.261585 
L 295.490596 454.290415 
L 296.365204 461.160788 
L 297.239812 466.383948 
L 297.677116 467.389879 
L 298.11442 467.782294 
L 298.551724 467.436445 
L 298.989028 466.514217 
L 299.426332 464.436588 
L 299.863636 463.614218 
L 301.175549 460.285988 
L 301.612853 461.121811 
L 302.050157 464.157425 
L 302.487461 465.754106 
L 302.924765 466.084032 
L 303.362069 468.12573 
L 303.799373 471.300408 
L 304.236677 473.005339 
L 304.673981 471.616479 
L 305.111285 466.976998 
L 305.548589 459.953821 
L 306.860502 435.518291 
L 307.297806 431.324689 
L 307.73511 429.959974 
L 308.172414 429.522373 
L 308.609718 430.043562 
L 309.047022 429.639706 
L 309.484326 426.715275 
L 309.92163 422.063722 
L 310.358934 415.656992 
L 310.796238 406.314333 
L 312.10815 386.748352 
L 312.545455 382.385505 
L 312.982759 381.80861 
L 313.420063 384.205758 
L 314.294671 396.753334 
L 315.169279 408.948219 
L 316.043887 421.085098 
L 316.918495 433.102976 
L 317.793103 440.980085 
L 318.230408 443.323481 
L 318.667712 444.400813 
L 319.105016 446.246073 
L 319.54232 447.097015 
L 319.979624 443.237019 
L 322.166144 404.399224 
L 322.603448 400.045863 
L 323.040752 397.730406 
L 323.478056 396.784378 
L 324.352665 397.732418 
L 324.789969 397.679011 
L 325.227273 396.802716 
L 325.664577 395.161195 
L 326.539185 389.130669 
L 326.976489 387.807115 
L 327.413793 387.850518 
L 327.851097 386.917483 
L 328.288401 389.412649 
L 328.725705 394.958318 
L 329.600313 402.00564 
L 330.037618 405.51513 
L 330.474922 404.566803 
L 331.786834 396.297854 
L 332.224138 397.539027 
L 332.661442 399.968714 
L 333.098746 399.305873 
L 333.53605 395.326761 
L 333.973354 385.562253 
L 334.410658 368.521274 
L 334.847962 358.695369 
L 335.285266 354.237666 
L 335.722571 351.675181 
L 336.159875 350.285861 
L 336.597179 352.586544 
L 337.034483 356.527196 
L 337.909091 372.147178 
L 339.221003 395.889802 
L 339.658307 401.459501 
L 340.532915 414.491129 
L 340.970219 417.187044 
L 341.407524 420.5792 
L 341.844828 421.439916 
L 342.282132 419.874623 
L 342.719436 417.284659 
L 343.15674 410.251134 
L 344.031348 391.217897 
L 345.780564 373.788298 
L 346.217868 376.530261 
L 347.092476 386.25286 
L 347.967085 390.660548 
L 348.404389 391.712929 
L 348.841693 391.721725 
L 349.278997 391.103323 
L 349.716301 389.952809 
L 350.153605 388.418273 
L 350.590909 384.6548 
L 351.902821 371.17735 
L 352.340125 368.211125 
L 352.777429 368.77796 
L 353.652038 374.054066 
L 354.526646 378.266006 
L 355.401254 382.000908 
L 355.838558 382.402924 
L 356.275862 382.00223 
L 357.15047 378.333325 
L 357.587774 373.03635 
L 358.462382 355.724947 
L 358.899687 351.32433 
L 359.336991 341.835421 
L 359.774295 326.30673 
L 360.211599 320.059186 
L 360.648903 319.676371 
L 361.523511 330.022374 
L 362.398119 347.157978 
L 362.835423 358.040979 
L 363.272727 357.18515 
L 363.710031 352.385162 
L 364.147335 345.698464 
L 364.584639 343.011632 
L 365.021944 346.33371 
L 365.459248 347.330615 
L 365.896552 344.166343 
L 366.333856 338.76037 
L 366.77116 341.614953 
L 367.208464 348.448648 
L 368.520376 377.349412 
L 368.95768 376.059777 
L 369.394984 373.341153 
L 369.832288 380.329148 
L 371.144201 425.652661 
L 371.581505 431.917279 
L 372.018809 422.459529 
L 372.456113 408.81703 
L 372.893417 407.011839 
L 373.330721 413.158262 
L 373.768025 412.731526 
L 374.205329 410.536621 
L 374.642633 413.825299 
L 375.079937 424.103293 
L 375.517241 429.869257 
L 375.954545 431.362057 
L 376.39185 439.628304 
L 376.829154 450.689979 
L 377.266458 470.430897 
L 377.703762 478.143186 
L 378.141066 480.938212 
L 378.57837 467.327562 
L 379.015674 462.707799 
L 379.452978 476.716671 
L 379.890282 477.96273 
L 380.327586 449.335496 
L 380.76489 439.897119 
L 381.202194 446.714258 
L 381.639498 462.090375 
L 382.076803 467.573554 
L 382.514107 475.47682 
L 382.951411 485.640527 
L 383.826019 517.180753 
L 384.263323 527.124165 
L 384.700627 539.771367 
L 385.575235 572.074808 
L 386.887147 597.056075 
L 387.324451 596.732876 
L 387.761755 588.426617 
L 388.19906 576.134979 
L 388.636364 559.230708 
L 389.073668 537.918921 
L 389.510972 527.734863 
L 389.948276 529.911716 
L 390.38558 530.136783 
L 390.822884 527.562283 
L 391.260188 524.105625 
L 391.697492 522.806101 
L 392.134796 520.998553 
L 393.009404 509.157221 
L 393.446708 508.847302 
L 393.884013 509.969934 
L 395.633229 521.689793 
L 396.070533 520.636204 
L 396.945141 514.345946 
L 397.382445 513.950311 
L 397.819749 515.83909 
L 398.257053 514.247238 
L 398.694357 509.3129 
L 399.131661 506.235032 
L 399.568966 508.472708 
L 401.318182 530.023186 
L 401.755486 532.441203 
L 402.19279 532.433844 
L 402.630094 531.851947 
L 403.504702 523.322634 
L 404.37931 512.106775 
L 404.816614 510.943269 
L 405.253918 514.159798 
L 406.565831 527.791489 
L 407.003135 527.066331 
L 407.440439 528.867556 
L 407.877743 532.442123 
L 408.315047 532.857763 
L 408.752351 532.239706 
L 409.189655 528.825762 
L 409.626959 528.142628 
L 410.064263 526.762448 
L 410.501567 522.24283 
L 411.376176 496.263163 
L 411.81348 492.597363 
L 412.688088 482.269584 
L 413.125392 475.033872 
L 414 467.391086 
L 414.437304 468.758044 
L 414.874608 472.230052 
L 415.311912 473.890545 
L 415.749216 474.600928 
L 416.18652 479.890314 
L 416.623824 489.065279 
L 417.498433 500.479013 
L 418.810345 514.273568 
L 419.247649 513.619466 
L 419.684953 512.631989 
L 420.122257 511.995248 
L 420.559561 513.794575 
L 420.996865 518.540237 
L 422.746082 544.63856 
L 423.183386 547.78915 
L 423.62069 547.429905 
L 424.057994 546.296466 
L 424.495298 542.300969 
L 426.244514 522.278761 
L 426.681818 519.287758 
L 427.556426 516.569077 
L 427.99373 517.688605 
L 428.431034 519.654706 
L 428.868339 520.172675 
L 430.180251 525.911391 
L 430.617555 526.337092 
L 431.054859 529.087276 
L 431.929467 540.212418 
L 432.366771 545.796432 
L 432.804075 549.848382 
L 433.241379 552.385112 
L 433.678683 551.466449 
L 434.115987 547.123205 
L 434.553292 538.660923 
L 435.4279 514.843507 
L 436.302508 488.339719 
L 436.739812 480.32964 
L 437.177116 474.759308 
L 437.61442 472.827815 
L 438.051724 473.962635 
L 438.489028 476.003931 
L 439.363636 478.486564 
L 440.675549 485.023965 
L 441.112853 485.19482 
L 441.550157 486.937579 
L 441.987461 486.512625 
L 442.424765 480.179481 
L 443.299373 462.251802 
L 444.173981 442.994073 
L 445.048589 431.493245 
L 445.923197 424.388607 
L 447.23511 415.547764 
L 447.672414 412.293062 
L 448.984326 398.820212 
L 449.858934 394.591313 
L 450.296238 390.690844 
L 450.733542 388.44374 
L 451.170846 385.27941 
L 451.60815 381.205787 
L 452.045455 376.015511 
L 452.920063 361.835784 
L 453.357367 357.755032 
L 453.794671 356.186118 
L 454.231975 357.551408 
L 454.669279 357.850578 
L 455.106583 355.517529 
L 455.543887 352.289731 
L 456.855799 336.027662 
L 457.293103 336.866877 
L 457.730408 341.319923 
L 458.167712 347.479855 
L 458.605016 355.840613 
L 459.04232 359.235299 
L 459.479624 357.420852 
L 459.916928 352.794536 
L 461.22884 332.12202 
L 461.666144 330.380353 
L 462.103448 330.493145 
L 462.978056 334.728023 
L 463.415361 333.225968 
L 463.852665 325.841132 
L 465.164577 287.619958 
L 465.601881 277.320923 
L 466.039185 271.015948 
L 466.476489 270.235716 
L 467.788401 283.582725 
L 469.537618 311.287329 
L 469.974922 315.378946 
L 470.412226 314.629298 
L 471.286834 307.702874 
L 471.724138 305.484572 
L 472.161442 305.018974 
L 472.598746 307.405487 
L 474.347962 321.634998 
L 474.785266 323.576782 
L 475.222571 323.652206 
L 476.097179 321.924107 
L 476.534483 320.530073 
L 476.971787 320.231823 
L 477.409091 321.648566 
L 477.846395 324.316772 
L 479.158307 335.76494 
L 479.595611 337.081193 
L 480.032915 335.682732 
L 480.470219 332.738697 
L 480.907524 332.400723 
L 481.344828 333.956817 
L 481.782132 334.768093 
L 482.219436 337.237159 
L 483.094044 346.96154 
L 483.531348 353.048865 
L 483.968652 355.811926 
L 484.84326 359.017591 
L 485.280564 358.50468 
L 485.717868 356.117074 
L 486.155172 355.867 
L 486.592476 355.133277 
L 487.029781 354.796912 
L 487.467085 354.275551 
L 487.904389 353.451456 
L 488.778997 356.690693 
L 489.653605 362.487414 
L 490.965517 367.191454 
L 491.840125 373.288207 
L 493.152038 383.19885 
L 493.589342 385.254518 
L 494.46395 393.001645 
L 495.338558 401.062947 
L 495.775862 403.527759 
L 496.213166 406.68726 
L 497.087774 417.304148 
L 498.399687 432.751032 
L 499.274295 439.381966 
L 499.711599 443.763382 
L 501.023511 459.118975 
L 501.898119 466.554171 
L 502.335423 471.590551 
L 502.772727 475.070952 
L 503.210031 477.10121 
L 503.647335 481.199324 
L 504.959248 504.743842 
L 505.833856 523.306824 
L 506.708464 539.257077 
L 507.145768 544.212973 
L 507.583072 547.871588 
L 508.020376 550.388485 
L 508.45768 553.805304 
L 509.332288 564.289164 
L 509.769592 565.33045 
L 510.206897 565.14275 
L 511.081505 563.443913 
L 511.518809 565.42519 
L 511.956113 568.361464 
L 512.393417 572.706174 
L 512.830721 574.818209 
L 513.705329 582.000858 
L 514.142633 586.637724 
L 515.017241 588.786465 
L 515.454545 590.542187 
L 516.766458 598.313632 
L 518.07837 603.75565 
L 518.515674 603.093155 
L 519.390282 599.258166 
L 519.827586 596.370872 
L 522.014107 576.800062 
L 522.888715 564.321874 
L 524.200627 543.713515 
L 526.387147 510.334985 
L 527.261755 500.286772 
L 528.136364 485.656106 
L 528.573668 480.895325 
L 529.010972 479.470477 
L 529.448276 478.980159 
L 529.88558 477.036306 
L 530.322884 474.309175 
L 530.760188 473.012928 
L 531.197492 469.344482 
L 532.509404 449.731476 
L 533.384013 432.975409 
L 533.821317 420.476124 
L 534.258621 403.370298 
L 535.133229 384.904759 
L 535.570533 372.257671 
L 536.007837 368.549961 
L 536.445141 368.350016 
L 536.882445 371.744875 
L 537.319749 376.35199 
L 537.757053 379.523794 
L 538.631661 394.821898 
L 539.068966 394.938197 
L 539.943574 390.486358 
L 540.380878 386.725932 
L 540.818182 386.132825 
L 541.255486 382.451732 
L 541.69279 377.530443 
L 542.130094 374.517135 
L 543.004702 372.015587 
L 543.442006 371.774079 
L 543.87931 369.68938 
L 544.316614 368.961922 
L 544.753918 370.264033 
L 545.191223 375.751467 
L 545.628527 382.807297 
L 546.503135 406.594761 
L 546.940439 420.993921 
L 547.377743 431.587583 
L 547.815047 432.934593 
L 548.252351 433.211399 
L 548.689655 434.733115 
L 549.126959 435.004747 
L 549.564263 434.256019 
L 550.001567 434.439924 
L 550.438871 430.184466 
L 550.876176 427.771048 
L 551.31348 432.988632 
L 551.750784 440.465047 
L 552.188088 445.63204 
L 552.625392 448.480702 
L 553.062696 449.075879 
L 553.5 448.365438 
L 553.937304 449.971662 
L 554.811912 464.424688 
L 557.435737 500.457225 
L 557.873041 501.960372 
L 559.184953 499.891022 
L 560.496865 507.724325 
L 560.934169 510.370168 
L 561.371473 514.924163 
L 563.12069 528.004081 
L 563.557994 530.097346 
L 563.995298 530.324942 
L 564.432602 531.91116 
L 565.30721 538.822178 
L 565.744514 540.80403 
L 566.181818 542.066532 
L 567.49373 554.810947 
L 568.805643 570.780688 
L 569.242947 577.445799 
L 569.680251 587.463802 
L 570.117555 600.207154 
L 570.554859 607.182242 
L 570.992163 611.394642 
L 571.866771 615.6 
L 572.304075 613.266692 
L 572.741379 607.929418 
L 573.178683 604.106502 
L 574.053292 590.262392 
L 574.9279 575.700913 
L 575.365204 569.887636 
L 575.802508 566.690509 
L 576.239812 566.217552 
L 577.11442 568.404437 
L 577.551724 570.223282 
L 577.989028 573.382811 
L 578.426332 574.915997 
L 578.863636 578.385992 
L 579.738245 586.916858 
L 580.175549 588.861114 
L 580.612853 589.741547 
L 581.050157 588.440903 
L 581.487461 585.334952 
L 582.362069 574.844998 
L 583.673981 557.819427 
L 584.548589 549.721448 
L 585.423197 543.226416 
L 585.860502 538.495989 
L 586.297806 535.826231 
L 586.73511 534.382296 
L 587.172414 533.42569 
L 587.609718 532.881391 
L 588.047022 531.81274 
L 588.484326 530.330519 
L 589.358934 525.683507 
L 589.796238 522.314921 
L 590.670846 510.27261 
L 591.10815 502.591939 
L 591.545455 492.859509 
L 591.982759 480.483939 
L 594.169279 400.392633 
L 595.918495 345.956587 
L 598.105016 295.675912 
L 598.54232 290.991476 
L 599.854232 271.663956 
L 600.291536 268.231155 
L 600.72884 266.901968 
L 601.166144 265.060444 
L 601.603448 256.883246 
L 602.478056 234.692291 
L 603.352665 208.626449 
L 603.789969 193.586811 
L 604.664577 174.856653 
L 605.539185 164.539222 
L 606.413793 165.174353 
L 606.851097 162.310342 
L 607.288401 158.05816 
L 607.725705 159.448228 
L 609.037618 150.29827 
L 609.474922 149.979785 
L 609.912226 147.766312 
L 610.34953 146.65489 
L 610.786834 150.287462 
L 611.224138 151.01492 
L 611.661442 157.258325 
L 612.098746 167.291649 
L 612.53605 184.316186 
L 613.847962 219.404361 
L 614.722571 257.914874 
L 615.159875 267.397862 
L 615.597179 268.716012 
L 616.034483 262.913255 
L 618.658307 142.298539 
L 619.095611 129.093009 
L 619.532915 123.214023 
L 619.970219 127.454247 
L 620.844828 150.44866 
L 621.282132 154.221734 
L 621.719436 143.956732 
L 622.15674 123.612014 
L 622.594044 113.970014 
L 623.031348 111.6 
L 623.905956 115.380318 
L 624.34326 118.454966 
L 626.092476 137.124532 
L 626.967085 145.646314 
L 628.278997 158.563943 
L 628.716301 159.422531 
L 629.153605 159.771542 
L 629.590909 162.389274 
L 630.465517 170.547155 
L 630.902821 171.822304 
L 631.340125 180.940356 
L 633.089342 239.653648 
L 633.526646 248.745256 
L 634.401254 261.112605 
L 634.838558 264.370412 
L 635.275862 269.530334 
L 635.713166 273.329278 
L 636.15047 278.843272 
L 636.587774 285.843626 
L 637.025078 288.19944 
L 637.462382 288.359258 
L 637.899687 286.586087 
L 638.336991 281.478882 
L 639.648903 248.865636 
L 640.523511 222.445724 
L 640.960815 214.572352 
L 642.272727 180.053081 
L 643.147335 155.748452 
L 643.584639 146.138702 
L 644.021944 141.234258 
L 644.459248 140.125997 
L 646.208464 123.439492 
L 646.645768 122.280067 
L 647.083072 126.283095 
L 647.520376 133.111444 
L 647.95768 144.292867 
L 648.394984 160.149241 
L 650.581505 272.72887 
L 651.456113 298.453864 
L 651.893417 304.1271 
L 653.205329 330.546897 
L 653.642633 333.262933 
L 654.079937 337.202666 
L 654.517241 345.51042 
L 654.954545 348.622436 
L 655.39185 344.430042 
L 656.703762 319.216637 
L 657.57837 305.115554 
L 658.015674 305.012592 
L 658.452978 303.408265 
L 658.890282 298.438284 
L 659.327586 297.62218 
L 659.76489 300.127349 
L 660.202194 305.820073 
L 661.076803 313.276023 
L 661.514107 317.302793 
L 663.263323 354.678257 
L 664.137931 364.918595 
L 664.575235 365.846687 
L 665.449843 358.516063 
L 665.887147 358.450526 
L 666.324451 359.370109 
L 666.761755 361.246988 
L 667.19906 365.269044 
L 667.636364 365.642948 
L 668.073668 362.819122 
L 668.510972 363.251664 
L 669.38558 371.46209 
L 669.822884 374.270797 
L 671.134796 387.471325 
L 672.009404 399.965437 
L 672.446708 406.530202 
L 672.884013 409.499072 
L 673.321317 411.300641 
L 673.758621 414.656695 
L 674.633229 423.223721 
L 675.507837 429.683742 
L 676.382445 434.831535 
L 676.819749 435.181294 
L 677.257053 433.415482 
L 677.694357 427.519134 
L 679.00627 396.95782 
L 679.880878 383.061453 
L 680.318182 373.332013 
L 680.755486 369.785558 
L 681.630094 364.955388 
L 682.067398 367.381798 
L 682.504702 370.891001 
L 683.37931 376.146182 
L 684.253918 381.738302 
L 684.691223 380.652404 
L 685.565831 373.534889 
L 686.003135 371.725904 
L 686.877743 366.925053 
L 687.315047 364.898762 
L 687.752351 364.698415 
L 688.189655 364.265586 
L 688.626959 363.576358 
L 689.501567 360.726489 
L 689.938871 361.179324 
L 690.376176 362.44447 
L 690.81348 363.009293 
L 691.250784 364.304793 
L 691.688088 366.577709 
L 692.125392 370.498068 
L 692.562696 375.461726 
L 693.437304 381.337665 
L 693.874608 384.545227 
L 694.311912 385.966396 
L 695.623824 395.916074 
L 696.061129 398.580428 
L 696.498433 404.244753 
L 697.373041 419.93809 
L 697.810345 423.289545 
L 698.247649 423.255972 
L 698.684953 419.986611 
L 699.996865 405.345655 
L 700.434169 404.80078 
L 700.871473 407.420926 
L 701.308777 407.676692 
L 701.746082 408.239732 
L 702.62069 406.328418 
L 703.495298 400.158885 
L 703.932602 396.235077 
L 704.369906 399.132373 
L 704.80721 407.589309 
L 705.244514 418.774009 
L 705.681818 423.531916 
L 706.119122 421.550408 
L 706.99373 416.04958 
L 707.431034 414.939768 
L 707.868339 415.690508 
L 708.305643 416.170363 
L 708.742947 420.087388 
L 710.054859 434.489882 
L 710.492163 434.873272 
L 711.366771 424.591311 
L 711.804075 422.916561 
L 712.241379 419.422593 
L 712.678683 420.474054 
L 713.115987 418.241437 
L 713.553292 411.685123 
L 713.990596 406.870648 
L 714.4279 404.857866 
L 714.865204 404.511729 
L 715.302508 406.961537 
L 715.739812 412.074722 
L 716.177116 414.201272 
L 716.61442 414.318606 
L 717.051724 411.740542 
L 717.926332 405.678167 
L 718.363636 406.486971 
L 718.80094 408.956842 
L 719.238245 415.47004 
L 719.675549 417.145595 
L 720.112853 413.943725 
L 720.550157 409.14937 
L 720.987461 407.888824 
L 721.862069 395.336361 
L 722.736677 388.843112 
L 723.173981 382.12859 
L 724.048589 376.001598 
L 724.485893 369.03637 
L 724.923197 364.04437 
L 725.360502 364.456677 
L 725.797806 367.594102 
L 726.23511 372.388917 
L 726.672414 375.204753 
L 727.547022 387.478914 
L 728.42163 402.074166 
L 728.858934 403.624799 
L 729.296238 400.319737 
L 729.733542 403.938743 
L 730.60815 413.802763 
L 731.045455 409.496485 
L 731.482759 408.620248 
L 731.920063 408.886476 
L 732.357367 415.268831 
L 732.794671 418.131922 
L 733.231975 419.696065 
L 733.669279 420.296415 
L 734.106583 418.064201 
L 734.981191 412.509276 
L 735.855799 403.462855 
L 736.293103 402.960062 
L 736.730408 405.35675 
L 737.167712 412.392632 
L 738.04232 431.377119 
L 738.479624 431.126699 
L 738.916928 423.713694 
L 739.354232 419.607073 
L 739.791536 420.190464 
L 740.22884 417.238208 
L 740.666144 406.261329 
L 741.103448 398.468096 
L 741.540752 394.441383 
L 742.415361 384.864689 
L 742.852665 389.151134 
L 743.289969 391.813994 
L 743.727273 389.853527 
L 744.164577 386.427107 
L 744.601881 380.974052 
L 745.039185 377.063005 
L 745.476489 370.026951 
L 745.913793 365.261686 
L 746.351097 363.666615 
L 746.788401 372.273135 
L 747.225705 384.050655 
L 747.663009 387.628211 
L 748.100313 387.499035 
L 748.537618 395.040239 
L 748.974922 409.94133 
L 749.412226 418.38648 
L 749.84953 418.483061 
L 750.724138 393.071494 
L 751.161442 387.022054 
L 752.03605 364.358774 
L 752.473354 360.745058 
L 752.910658 352.916239 
L 753.785266 321.621661 
L 754.222571 314.186408 
L 754.659875 316.004534 
L 755.097179 321.240284 
L 756.409091 357.82879 
L 756.846395 367.25975 
L 757.283699 379.233018 
L 757.721003 386.207962 
L 758.158307 385.908275 
L 758.595611 384.557299 
L 759.470219 381.418954 
L 759.907524 389.932458 
L 760.344828 393.339274 
L 760.782132 394.523074 
L 761.219436 393.501794 
L 761.65674 394.414076 
L 762.094044 391.851304 
L 762.531348 383.645189 
L 762.968652 372.278769 
L 763.405956 369.442525 
L 763.84326 368.182955 
L 764.280564 362.742145 
L 765.155172 345.112773 
L 765.592476 334.003958 
L 766.029781 332.754506 
L 766.467085 341.199887 
L 766.904389 353.271057 
L 767.341693 359.629497 
L 767.778997 362.363067 
L 768.216301 371.963848 
L 768.653605 377.912166 
L 769.090909 376.478752 
L 769.528213 373.08556 
L 770.402821 383.44743 
L 770.840125 384.529303 
L 771.277429 387.700129 
L 772.152038 400.686628 
L 772.589342 401.504515 
L 773.026646 404.168524 
L 773.46395 403.624569 
L 773.901254 399.423839 
L 774.338558 397.625317 
L 774.775862 398.604631 
L 775.65047 405.599466 
L 776.087774 409.3611 
L 776.525078 409.841472 
L 777.399687 401.194135 
L 777.836991 400.353886 
L 778.274295 402.666354 
L 778.711599 401.628517 
L 779.148903 402.846177 
L 780.023511 417.040966 
L 780.898119 423.942038 
L 781.335423 428.035379 
L 781.772727 430.855929 
L 782.210031 430.900943 
L 782.647335 428.530354 
L 783.084639 424.133186 
L 783.521944 414.490956 
L 783.959248 402.214208 
L 784.396552 395.509861 
L 785.27116 404.81406 
L 785.708464 412.075986 
L 786.583072 421.476938 
L 787.020376 422.795376 
L 787.45768 419.582755 
L 787.894984 418.853746 
L 788.769592 429.407511 
L 790.081505 439.019272 
L 790.518809 441.01544 
L 790.956113 444.00604 
L 791.393417 448.488003 
L 791.830721 450.84422 
L 792.268025 450.165455 
L 792.705329 445.76731 
L 793.142633 443.651797 
L 793.579937 446.527536 
L 794.017241 451.936556 
L 794.454545 453.438036 
L 794.89185 456.961496 
L 795.329154 463.456987 
L 795.766458 468.178102 
L 796.203762 470.780426 
L 796.641066 471.931457 
L 797.07837 474.130213 
L 797.952978 484.937272 
L 799.26489 504.650366 
L 799.702194 506.092403 
L 800.139498 501.922315 
L 800.576803 493.407028 
L 801.451411 481.326948 
L 802.326019 473.410804 
L 802.763323 471.531683 
L 803.200627 472.289667 
L 803.637931 474.806161 
L 804.075235 475.879641 
L 804.512539 478.834426 
L 806.261755 500.532822 
L 806.69906 508.789468 
L 807.136364 514.492483 
L 807.573668 518.632736 
L 808.010972 519.731338 
L 808.448276 524.642221 
L 808.88558 531.265164 
L 809.322884 534.867383 
L 809.760188 533.572631 
L 810.634796 539.915491 
L 811.0721 540.428632 
L 811.509404 540.173843 
L 812.384013 537.689198 
L 813.258621 533.013844 
L 813.695925 532.690875 
L 814.570533 536.08901 
L 815.007837 536.723739 
L 815.445141 535.084114 
L 816.319749 534.05858 
L 816.757053 533.811495 
L 817.194357 533.977291 
L 817.631661 533.372341 
L 818.068966 531.644759 
L 818.50627 526.986078 
L 819.818182 502.914966 
L 820.255486 499.395473 
L 820.69279 500.882121 
L 821.567398 511.062787 
L 822.004702 516.492962 
L 823.316614 537.686841 
L 823.753918 539.600397 
L 824.191223 540.403624 
L 824.628527 540.529409 
L 825.065831 540.526707 
L 826.377743 535.169944 
L 826.815047 534.961951 
L 827.252351 536.318158 
L 827.689655 538.404927 
L 828.564263 544.99125 
L 829.876176 555.825731 
L 830.31348 557.331063 
L 830.750784 554.699851 
L 831.625392 547.561209 
L 832.062696 546.079447 
L 832.5 545.403729 
L 833.374608 546.303364 
L 833.811912 547.238757 
L 834.249216 549.442802 
L 834.68652 553.475493 
L 835.123824 555.86741 
L 835.561129 555.795607 
L 836.873041 543.463326 
L 837.747649 529.749254 
L 838.622257 522.91964 
L 839.059561 522.259617 
L 839.496865 521.329628 
L 840.371473 518.126551 
L 840.808777 513.374163 
L 841.246082 507.133057 
L 841.683386 505.021396 
L 842.995298 495.308972 
L 843.432602 493.242324 
L 844.30721 486.78328 
L 844.744514 486.593281 
L 845.181818 485.798103 
L 845.619122 482.441991 
L 846.056426 480.107448 
L 846.49373 476.915063 
L 847.368339 468.085028 
L 847.805643 467.910091 
L 848.680251 472.584582 
L 849.117555 473.638228 
L 849.554859 473.056964 
L 849.992163 468.940397 
L 850.866771 466.769235 
L 851.304075 464.797673 
L 851.741379 461.634435 
L 852.178683 457.366271 
L 853.053292 452.050957 
L 853.490596 451.26423 
L 855.239812 442.039307 
L 855.677116 439.97996 
L 856.989028 429.756638 
L 857.863636 427.149714 
L 858.30094 427.499818 
L 858.738245 427.376793 
L 859.175549 427.474696 
L 859.612853 426.318605 
L 860.050157 424.314907 
L 861.362069 409.576279 
L 861.799373 402.783975 
L 863.111285 377.117619 
L 863.548589 368.202099 
L 863.985893 363.01073 
L 864.423197 361.800026 
L 864.860502 361.083319 
L 865.297806 359.764824 
L 865.73511 359.692101 
L 866.609718 362.955024 
L 867.047022 364.752454 
L 868.358934 374.080971 
L 868.796238 378.416626 
L 869.233542 384.487738 
L 870.982759 431.945506 
L 871.420063 439.052386 
L 871.857367 440.584105 
L 872.294671 439.886944 
L 873.169279 429.692826 
L 873.606583 418.295189 
L 874.043887 403.569093 
L 874.481191 393.368478 
L 874.918495 387.984696 
L 875.355799 386.339035 
L 875.793103 388.050463 
L 876.230408 390.638358 
L 877.979624 417.137834 
L 878.416928 421.021975 
L 878.854232 422.982902 
L 880.166144 431.831621 
L 880.603448 437.073465 
L 881.040752 444.883657 
L 881.478056 455.269097 
L 882.352665 467.521412 
L 882.789969 472.559977 
L 883.227273 473.93711 
L 883.664577 472.811948 
L 884.101881 471.263213 
L 885.413793 461.013158 
L 885.851097 458.216351 
L 886.725705 448.361356 
L 887.163009 445.88016 
L 887.600313 442.205448 
L 888.037618 441.513404 
L 888.912226 438.347924 
L 889.34953 436.082711 
L 889.786834 437.469617 
L 890.224138 443.827826 
L 890.661442 446.956686 
L 891.098746 447.929849 
L 891.53605 449.659213 
L 891.973354 449.311696 
L 892.410658 451.369836 
L 892.847962 456.094227 
L 893.722571 471.499547 
L 894.159875 483.00371 
L 894.597179 491.350556 
L 895.034483 496.885475 
L 895.471787 497.977293 
L 895.909091 498.621967 
L 896.346395 497.954758 
L 897.221003 494.464584 
L 897.658307 493.685789 
L 898.095611 493.242267 
L 898.532915 489.446887 
L 898.970219 486.639962 
L 899.407524 486.440017 
L 899.844828 486.679686 
L 900.282132 485.978271 
L 900.719436 486.063411 
L 901.15674 483.955142 
L 902.031348 474.365686 
L 902.468652 472.017862 
L 902.905956 470.890861 
L 903.34326 471.024004 
L 903.780564 473.90187 
L 904.217868 477.719727 
L 904.655172 480.426278 
L 905.092476 479.16004 
L 905.529781 475.98128 
L 906.404389 465.762442 
L 906.841693 459.560371 
L 907.716301 451.600134 
L 909.028213 441.005322 
L 909.902821 430.178659 
L 910.777429 423.24206 
L 912.089342 415.878724 
L 912.526646 413.280884 
L 912.96395 411.625335 
L 913.838558 414.28716 
L 915.587774 421.390476 
L 916.025078 421.958115 
L 916.462382 420.980239 
L 917.774295 412.944577 
L 918.211599 413.940218 
L 919.086207 425.288874 
L 919.960815 438.599953 
L 920.398119 443.088469 
L 920.835423 443.160329 
L 921.272727 441.808951 
L 922.584639 435.691273 
L 923.021944 431.408277 
L 923.459248 436.233043 
L 924.333856 452.948063 
L 924.77116 457.750006 
L 925.208464 459.693974 
L 926.083072 462.33746 
L 926.520376 461.13992 
L 926.95768 459.301328 
L 927.394984 457.947995 
L 927.832288 457.20927 
L 928.269592 454.685188 
L 929.144201 447.680752 
L 929.581505 442.600393 
L 930.018809 435.775436 
L 930.893417 411.94635 
L 931.330721 407.452602 
L 931.768025 408.729303 
L 932.205329 411.663565 
L 932.642633 415.4467 
L 933.079937 424.467424 
L 933.517241 430.696917 
L 933.954545 433.552707 
L 933.954545 433.552707 
" style="fill:none;stroke:#0000ff;stroke-linecap:square;stroke-width:1.5;"/>
   </g>
   <g id="patch_3">
    <path d="M 135 640.8 
L 135 86.4 
" style="fill:none;stroke:#000000;stroke-linecap:square;stroke-linejoin:miter;stroke-width:0.8;"/>
   </g>
   <g id="patch_4">
    <path d="M 972 640.8 
L 972 86.4 
" style="fill:none;stroke:#000000;stroke-linecap:square;stroke-linejoin:miter;stroke-width:0.8;"/>
   </g>
   <g id="patch_5">
    <path d="M 135 640.8 
L 972 640.8 
" style="fill:none;stroke:#000000;stroke-linecap:square;stroke-linejoin:miter;stroke-width:0.8;"/>
   </g>
   <g id="patch_6">
    <path d="M 135 86.4 
L 972 86.4 
" style="fill:none;stroke:#000000;stroke-linecap:square;stroke-linejoin:miter;stroke-width:0.8;"/>
   </g>
   <g id="text_16">
    <!-- Evaluation Preds N:30 -->
    <defs>
     <path d="M 9.8125 72.90625 
L 55.90625 72.90625 
L 55.90625 64.59375 
L 19.671875 64.59375 
L 19.671875 43.015625 
L 54.390625 43.015625 
L 54.390625 34.71875 
L 19.671875 34.71875 
L 19.671875 8.296875 
L 56.78125 8.296875 
L 56.78125 0 
L 9.8125 0 
z
" id="DejaVuSans-69"/>
     <path d="M 2.984375 54.6875 
L 12.5 54.6875 
L 29.59375 8.796875 
L 46.6875 54.6875 
L 56.203125 54.6875 
L 35.6875 0 
L 23.484375 0 
z
" id="DejaVuSans-118"/>
     <path d="M 34.28125 27.484375 
Q 23.390625 27.484375 19.1875 25 
Q 14.984375 22.515625 14.984375 16.5 
Q 14.984375 11.71875 18.140625 8.90625 
Q 21.296875 6.109375 26.703125 6.109375 
Q 34.1875 6.109375 38.703125 11.40625 
Q 43.21875 16.703125 43.21875 25.484375 
L 43.21875 27.484375 
z
M 52.203125 31.203125 
L 52.203125 0 
L 43.21875 0 
L 43.21875 8.296875 
Q 40.140625 3.328125 35.546875 0.953125 
Q 30.953125 -1.421875 24.3125 -1.421875 
Q 15.921875 -1.421875 10.953125 3.296875 
Q 6 8.015625 6 15.921875 
Q 6 25.140625 12.171875 29.828125 
Q 18.359375 34.515625 30.609375 34.515625 
L 43.21875 34.515625 
L 43.21875 35.40625 
Q 43.21875 41.609375 39.140625 45 
Q 35.0625 48.390625 27.6875 48.390625 
Q 23 48.390625 18.546875 47.265625 
Q 14.109375 46.140625 10.015625 43.890625 
L 10.015625 52.203125 
Q 14.9375 54.109375 19.578125 55.046875 
Q 24.21875 56 28.609375 56 
Q 40.484375 56 46.34375 49.84375 
Q 52.203125 43.703125 52.203125 31.203125 
z
" id="DejaVuSans-97"/>
     <path d="M 9.421875 75.984375 
L 18.40625 75.984375 
L 18.40625 0 
L 9.421875 0 
z
" id="DejaVuSans-108"/>
     <path d="M 8.5 21.578125 
L 8.5 54.6875 
L 17.484375 54.6875 
L 17.484375 21.921875 
Q 17.484375 14.15625 20.5 10.265625 
Q 23.53125 6.390625 29.59375 6.390625 
Q 36.859375 6.390625 41.078125 11.03125 
Q 45.3125 15.671875 45.3125 23.6875 
L 45.3125 54.6875 
L 54.296875 54.6875 
L 54.296875 0 
L 45.3125 0 
L 45.3125 8.40625 
Q 42.046875 3.421875 37.71875 1 
Q 33.40625 -1.421875 27.6875 -1.421875 
Q 18.265625 -1.421875 13.375 4.4375 
Q 8.5 10.296875 8.5 21.578125 
z
M 31.109375 56 
z
" id="DejaVuSans-117"/>
     <path d="M 18.3125 70.21875 
L 18.3125 54.6875 
L 36.8125 54.6875 
L 36.8125 47.703125 
L 18.3125 47.703125 
L 18.3125 18.015625 
Q 18.3125 11.328125 20.140625 9.421875 
Q 21.96875 7.515625 27.59375 7.515625 
L 36.8125 7.515625 
L 36.8125 0 
L 27.59375 0 
Q 17.1875 0 13.234375 3.875 
Q 9.28125 7.765625 9.28125 18.015625 
L 9.28125 47.703125 
L 2.6875 47.703125 
L 2.6875 54.6875 
L 9.28125 54.6875 
L 9.28125 70.21875 
z
" id="DejaVuSans-116"/>
     <path d="M 9.421875 54.6875 
L 18.40625 54.6875 
L 18.40625 0 
L 9.421875 0 
z
M 9.421875 75.984375 
L 18.40625 75.984375 
L 18.40625 64.59375 
L 9.421875 64.59375 
z
" id="DejaVuSans-105"/>
     <path d="M 30.609375 48.390625 
Q 23.390625 48.390625 19.1875 42.75 
Q 14.984375 37.109375 14.984375 27.296875 
Q 14.984375 17.484375 19.15625 11.84375 
Q 23.34375 6.203125 30.609375 6.203125 
Q 37.796875 6.203125 41.984375 11.859375 
Q 46.1875 17.53125 46.1875 27.296875 
Q 46.1875 37.015625 41.984375 42.703125 
Q 37.796875 48.390625 30.609375 48.390625 
z
M 30.609375 56 
Q 42.328125 56 49.015625 48.375 
Q 55.71875 40.765625 55.71875 27.296875 
Q 55.71875 13.875 49.015625 6.21875 
Q 42.328125 -1.421875 30.609375 -1.421875 
Q 18.84375 -1.421875 12.171875 6.21875 
Q 5.515625 13.875 5.515625 27.296875 
Q 5.515625 40.765625 12.171875 48.375 
Q 18.84375 56 30.609375 56 
z
" id="DejaVuSans-111"/>
     <path d="M 54.890625 33.015625 
L 54.890625 0 
L 45.90625 0 
L 45.90625 32.71875 
Q 45.90625 40.484375 42.875 44.328125 
Q 39.84375 48.1875 33.796875 48.1875 
Q 26.515625 48.1875 22.3125 43.546875 
Q 18.109375 38.921875 18.109375 30.90625 
L 18.109375 0 
L 9.078125 0 
L 9.078125 54.6875 
L 18.109375 54.6875 
L 18.109375 46.1875 
Q 21.34375 51.125 25.703125 53.5625 
Q 30.078125 56 35.796875 56 
Q 45.21875 56 50.046875 50.171875 
Q 54.890625 44.34375 54.890625 33.015625 
z
" id="DejaVuSans-110"/>
     <path id="DejaVuSans-32"/>
     <path d="M 19.671875 64.796875 
L 19.671875 37.40625 
L 32.078125 37.40625 
Q 38.96875 37.40625 42.71875 40.96875 
Q 46.484375 44.53125 46.484375 51.125 
Q 46.484375 57.671875 42.71875 61.234375 
Q 38.96875 64.796875 32.078125 64.796875 
z
M 9.8125 72.90625 
L 32.078125 72.90625 
Q 44.34375 72.90625 50.609375 67.359375 
Q 56.890625 61.8125 56.890625 51.125 
Q 56.890625 40.328125 50.609375 34.8125 
Q 44.34375 29.296875 32.078125 29.296875 
L 19.671875 29.296875 
L 19.671875 0 
L 9.8125 0 
z
" id="DejaVuSans-80"/>
     <path d="M 41.109375 46.296875 
Q 39.59375 47.171875 37.8125 47.578125 
Q 36.03125 48 33.890625 48 
Q 26.265625 48 22.1875 43.046875 
Q 18.109375 38.09375 18.109375 28.8125 
L 18.109375 0 
L 9.078125 0 
L 9.078125 54.6875 
L 18.109375 54.6875 
L 18.109375 46.1875 
Q 20.953125 51.171875 25.484375 53.578125 
Q 30.03125 56 36.53125 56 
Q 37.453125 56 38.578125 55.875 
Q 39.703125 55.765625 41.0625 55.515625 
z
" id="DejaVuSans-114"/>
     <path d="M 56.203125 29.59375 
L 56.203125 25.203125 
L 14.890625 25.203125 
Q 15.484375 15.921875 20.484375 11.0625 
Q 25.484375 6.203125 34.421875 6.203125 
Q 39.59375 6.203125 44.453125 7.46875 
Q 49.3125 8.734375 54.109375 11.28125 
L 54.109375 2.78125 
Q 49.265625 0.734375 44.1875 -0.34375 
Q 39.109375 -1.421875 33.890625 -1.421875 
Q 20.796875 -1.421875 13.15625 6.1875 
Q 5.515625 13.8125 5.515625 26.8125 
Q 5.515625 40.234375 12.765625 48.109375 
Q 20.015625 56 32.328125 56 
Q 43.359375 56 49.78125 48.890625 
Q 56.203125 41.796875 56.203125 29.59375 
z
M 47.21875 32.234375 
Q 47.125 39.59375 43.09375 43.984375 
Q 39.0625 48.390625 32.421875 48.390625 
Q 24.90625 48.390625 20.390625 44.140625 
Q 15.875 39.890625 15.1875 32.171875 
z
" id="DejaVuSans-101"/>
     <path d="M 45.40625 46.390625 
L 45.40625 75.984375 
L 54.390625 75.984375 
L 54.390625 0 
L 45.40625 0 
L 45.40625 8.203125 
Q 42.578125 3.328125 38.25 0.953125 
Q 33.9375 -1.421875 27.875 -1.421875 
Q 17.96875 -1.421875 11.734375 6.484375 
Q 5.515625 14.40625 5.515625 27.296875 
Q 5.515625 40.1875 11.734375 48.09375 
Q 17.96875 56 27.875 56 
Q 33.9375 56 38.25 53.625 
Q 42.578125 51.265625 45.40625 46.390625 
z
M 14.796875 27.296875 
Q 14.796875 17.390625 18.875 11.75 
Q 22.953125 6.109375 30.078125 6.109375 
Q 37.203125 6.109375 41.296875 11.75 
Q 45.40625 17.390625 45.40625 27.296875 
Q 45.40625 37.203125 41.296875 42.84375 
Q 37.203125 48.484375 30.078125 48.484375 
Q 22.953125 48.484375 18.875 42.84375 
Q 14.796875 37.203125 14.796875 27.296875 
z
" id="DejaVuSans-100"/>
     <path d="M 44.28125 53.078125 
L 44.28125 44.578125 
Q 40.484375 46.53125 36.375 47.5 
Q 32.28125 48.484375 27.875 48.484375 
Q 21.1875 48.484375 17.84375 46.4375 
Q 14.5 44.390625 14.5 40.28125 
Q 14.5 37.15625 16.890625 35.375 
Q 19.28125 33.59375 26.515625 31.984375 
L 29.59375 31.296875 
Q 39.15625 29.25 43.1875 25.515625 
Q 47.21875 21.78125 47.21875 15.09375 
Q 47.21875 7.46875 41.1875 3.015625 
Q 35.15625 -1.421875 24.609375 -1.421875 
Q 20.21875 -1.421875 15.453125 -0.5625 
Q 10.6875 0.296875 5.421875 2 
L 5.421875 11.28125 
Q 10.40625 8.6875 15.234375 7.390625 
Q 20.0625 6.109375 24.8125 6.109375 
Q 31.15625 6.109375 34.5625 8.28125 
Q 37.984375 10.453125 37.984375 14.40625 
Q 37.984375 18.0625 35.515625 20.015625 
Q 33.0625 21.96875 24.703125 23.78125 
L 21.578125 24.515625 
Q 13.234375 26.265625 9.515625 29.90625 
Q 5.8125 33.546875 5.8125 39.890625 
Q 5.8125 47.609375 11.28125 51.796875 
Q 16.75 56 26.8125 56 
Q 31.78125 56 36.171875 55.265625 
Q 40.578125 54.546875 44.28125 53.078125 
z
" id="DejaVuSans-115"/>
     <path d="M 9.8125 72.90625 
L 23.09375 72.90625 
L 55.421875 11.921875 
L 55.421875 72.90625 
L 64.984375 72.90625 
L 64.984375 0 
L 51.703125 0 
L 19.390625 60.984375 
L 19.390625 0 
L 9.8125 0 
z
" id="DejaVuSans-78"/>
     <path d="M 11.71875 12.40625 
L 22.015625 12.40625 
L 22.015625 0 
L 11.71875 0 
z
M 11.71875 51.703125 
L 22.015625 51.703125 
L 22.015625 39.3125 
L 11.71875 39.3125 
z
" id="DejaVuSans-58"/>
    </defs>
    <g transform="translate(374.421656 80.4)scale(0.324 -0.324)">
     <use xlink:href="#DejaVuSans-69"/>
     <use x="63.183594" xlink:href="#DejaVuSans-118"/>
     <use x="122.363281" xlink:href="#DejaVuSans-97"/>
     <use x="183.642578" xlink:href="#DejaVuSans-108"/>
     <use x="211.425781" xlink:href="#DejaVuSans-117"/>
     <use x="274.804688" xlink:href="#DejaVuSans-97"/>
     <use x="336.083984" xlink:href="#DejaVuSans-116"/>
     <use x="375.292969" xlink:href="#DejaVuSans-105"/>
     <use x="403.076172" xlink:href="#DejaVuSans-111"/>
     <use x="464.257812" xlink:href="#DejaVuSans-110"/>
     <use x="527.636719" xlink:href="#DejaVuSans-32"/>
     <use x="559.423828" xlink:href="#DejaVuSans-80"/>
     <use x="619.710938" xlink:href="#DejaVuSans-114"/>
     <use x="660.792969" xlink:href="#DejaVuSans-101"/>
     <use x="722.316406" xlink:href="#DejaVuSans-100"/>
     <use x="785.792969" xlink:href="#DejaVuSans-115"/>
     <use x="837.892578" xlink:href="#DejaVuSans-32"/>
     <use x="869.679688" xlink:href="#DejaVuSans-78"/>
     <use x="944.484375" xlink:href="#DejaVuSans-58"/>
     <use x="978.175781" xlink:href="#DejaVuSans-51"/>
     <use x="1041.798828" xlink:href="#DejaVuSans-48"/>
    </g>
   </g>
   <g id="legend_1">
    <g id="patch_7">
     <path d="M 805.57875 187.261875 
L 953.1 187.261875 
Q 958.5 187.261875 958.5 181.861875 
L 958.5 105.3 
Q 958.5 99.9 953.1 99.9 
L 805.57875 99.9 
Q 800.17875 99.9 800.17875 105.3 
L 800.17875 181.861875 
Q 800.17875 187.261875 805.57875 187.261875 
z
" style="fill:#ffffff;opacity:0.8;stroke:#cccccc;stroke-linejoin:miter;"/>
    </g>
    <g id="line2d_33">
     <path d="M 810.97875 121.765781 
L 864.97875 121.765781 
" style="fill:none;stroke:#ff0000;stroke-linecap:square;stroke-width:1.5;"/>
    </g>
    <g id="line2d_34"/>
    <g id="text_17">
     <!-- Real -->
     <defs>
      <path d="M 44.390625 34.1875 
Q 47.5625 33.109375 50.5625 29.59375 
Q 53.5625 26.078125 56.59375 19.921875 
L 66.609375 0 
L 56 0 
L 46.6875 18.703125 
Q 43.0625 26.03125 39.671875 28.421875 
Q 36.28125 30.8125 30.421875 30.8125 
L 19.671875 30.8125 
L 19.671875 0 
L 9.8125 0 
L 9.8125 72.90625 
L 32.078125 72.90625 
Q 44.578125 72.90625 50.734375 67.671875 
Q 56.890625 62.453125 56.890625 51.90625 
Q 56.890625 45.015625 53.6875 40.46875 
Q 50.484375 35.9375 44.390625 34.1875 
z
M 19.671875 64.796875 
L 19.671875 38.921875 
L 32.078125 38.921875 
Q 39.203125 38.921875 42.84375 42.21875 
Q 46.484375 45.515625 46.484375 51.90625 
Q 46.484375 58.296875 42.84375 61.546875 
Q 39.203125 64.796875 32.078125 64.796875 
z
" id="DejaVuSans-82"/>
     </defs>
     <g transform="translate(886.57875 131.215781)scale(0.27 -0.27)">
      <use xlink:href="#DejaVuSans-82"/>
      <use x="69.419922" xlink:href="#DejaVuSans-101"/>
      <use x="130.943359" xlink:href="#DejaVuSans-97"/>
      <use x="192.222656" xlink:href="#DejaVuSans-108"/>
     </g>
    </g>
    <g id="line2d_35">
     <path d="M 810.97875 161.396719 
L 864.97875 161.396719 
" style="fill:none;stroke:#0000ff;stroke-linecap:square;stroke-width:1.5;"/>
    </g>
    <g id="line2d_36"/>
    <g id="text_18">
     <!-- Pred -->
     <g transform="translate(886.57875 170.846719)scale(0.27 -0.27)">
      <use xlink:href="#DejaVuSans-80"/>
      <use x="60.287109" xlink:href="#DejaVuSans-114"/>
      <use x="101.369141" xlink:href="#DejaVuSans-101"/>
      <use x="162.892578" xlink:href="#DejaVuSans-100"/>
     </g>
    </g>
   </g>
  </g>
 </g>
 <defs>
  <clipPath id="pcff8942066">
   <rect height="554.4" width="837" x="135" y="86.4"/>
  </clipPath>
 </defs>
</svg>
