<?xml version="1.0" encoding="utf-8" standalone="no"?>
<!DOCTYPE svg PUBLIC "-//W3C//DTD SVG 1.1//EN"
  "http://www.w3.org/Graphics/SVG/1.1/DTD/svg11.dtd">
<!-- Created with matplotlib (https://matplotlib.org/) -->
<svg height="720pt" version="1.1" viewBox="0 0 1080 720" width="1080pt" xmlns="http://www.w3.org/2000/svg" xmlns:xlink="http://www.w3.org/1999/xlink">
 <defs>
  <style type="text/css">
*{stroke-linecap:butt;stroke-linejoin:round;}
  </style>
 </defs>
 <g id="figure_1">
  <g id="patch_1">
   <path d="M 0 720 
L 1080 720 
L 1080 0 
L 0 0 
z
" style="fill:#ffffff;"/>
  </g>
  <g id="axes_1">
   <g id="patch_2">
    <path d="M 135 640.8 
L 972 640.8 
L 972 86.4 
L 135 86.4 
z
" style="fill:#ffffff;"/>
   </g>
   <g id="matplotlib.axis_1">
    <g id="xtick_1">
     <g id="line2d_1">
      <path clip-path="url(#p060ab95b66)" d="M 173.045455 640.8 
L 173.045455 86.4 
" style="fill:none;stroke:#b0b0b0;stroke-linecap:square;stroke-width:0.8;"/>
     </g>
     <g id="line2d_2">
      <defs>
       <path d="M 0 0 
L 0 3.5 
" id="m53590725f8" style="stroke:#000000;stroke-width:0.8;"/>
      </defs>
      <g>
       <use style="stroke:#000000;stroke-width:0.8;" x="173.045455" xlink:href="#m53590725f8" y="640.8"/>
      </g>
     </g>
     <g id="text_1">
      <!-- 0 -->
      <defs>
       <path d="M 31.78125 66.40625 
Q 24.171875 66.40625 20.328125 58.90625 
Q 16.5 51.421875 16.5 36.375 
Q 16.5 21.390625 20.328125 13.890625 
Q 24.171875 6.390625 31.78125 6.390625 
Q 39.453125 6.390625 43.28125 13.890625 
Q 47.125 21.390625 47.125 36.375 
Q 47.125 51.421875 43.28125 58.90625 
Q 39.453125 66.40625 31.78125 66.40625 
z
M 31.78125 74.21875 
Q 44.046875 74.21875 50.515625 64.515625 
Q 56.984375 54.828125 56.984375 36.375 
Q 56.984375 17.96875 50.515625 8.265625 
Q 44.046875 -1.421875 31.78125 -1.421875 
Q 19.53125 -1.421875 13.0625 8.265625 
Q 6.59375 17.96875 6.59375 36.375 
Q 6.59375 54.828125 13.0625 64.515625 
Q 19.53125 74.21875 31.78125 74.21875 
z
" id="DejaVuSans-48"/>
      </defs>
      <g transform="translate(164.45608 668.315781)scale(0.27 -0.27)">
       <use xlink:href="#DejaVuSans-48"/>
      </g>
     </g>
    </g>
    <g id="xtick_2">
     <g id="line2d_3">
      <path clip-path="url(#p060ab95b66)" d="M 282.371473 640.8 
L 282.371473 86.4 
" style="fill:none;stroke:#b0b0b0;stroke-linecap:square;stroke-width:0.8;"/>
     </g>
     <g id="line2d_4">
      <g>
       <use style="stroke:#000000;stroke-width:0.8;" x="282.371473" xlink:href="#m53590725f8" y="640.8"/>
      </g>
     </g>
     <g id="text_2">
      <!-- 250 -->
      <defs>
       <path d="M 19.1875 8.296875 
L 53.609375 8.296875 
L 53.609375 0 
L 7.328125 0 
L 7.328125 8.296875 
Q 12.9375 14.109375 22.625 23.890625 
Q 32.328125 33.6875 34.8125 36.53125 
Q 39.546875 41.84375 41.421875 45.53125 
Q 43.3125 49.21875 43.3125 52.78125 
Q 43.3125 58.59375 39.234375 62.25 
Q 35.15625 65.921875 28.609375 65.921875 
Q 23.96875 65.921875 18.8125 64.3125 
Q 13.671875 62.703125 7.8125 59.421875 
L 7.8125 69.390625 
Q 13.765625 71.78125 18.9375 73 
Q 24.125 74.21875 28.421875 74.21875 
Q 39.75 74.21875 46.484375 68.546875 
Q 53.21875 62.890625 53.21875 53.421875 
Q 53.21875 48.921875 51.53125 44.890625 
Q 49.859375 40.875 45.40625 35.40625 
Q 44.1875 33.984375 37.640625 27.21875 
Q 31.109375 20.453125 19.1875 8.296875 
z
" id="DejaVuSans-50"/>
       <path d="M 10.796875 72.90625 
L 49.515625 72.90625 
L 49.515625 64.59375 
L 19.828125 64.59375 
L 19.828125 46.734375 
Q 21.96875 47.46875 24.109375 47.828125 
Q 26.265625 48.1875 28.421875 48.1875 
Q 40.625 48.1875 47.75 41.5 
Q 54.890625 34.8125 54.890625 23.390625 
Q 54.890625 11.625 47.5625 5.09375 
Q 40.234375 -1.421875 26.90625 -1.421875 
Q 22.3125 -1.421875 17.546875 -0.640625 
Q 12.796875 0.140625 7.71875 1.703125 
L 7.71875 11.625 
Q 12.109375 9.234375 16.796875 8.0625 
Q 21.484375 6.890625 26.703125 6.890625 
Q 35.15625 6.890625 40.078125 11.328125 
Q 45.015625 15.765625 45.015625 23.390625 
Q 45.015625 31 40.078125 35.4375 
Q 35.15625 39.890625 26.703125 39.890625 
Q 22.75 39.890625 18.8125 39.015625 
Q 14.890625 38.140625 10.796875 36.28125 
z
" id="DejaVuSans-53"/>
      </defs>
      <g transform="translate(256.603348 668.315781)scale(0.27 -0.27)">
       <use xlink:href="#DejaVuSans-50"/>
       <use x="63.623047" xlink:href="#DejaVuSans-53"/>
       <use x="127.246094" xlink:href="#DejaVuSans-48"/>
      </g>
     </g>
    </g>
    <g id="xtick_3">
     <g id="line2d_5">
      <path clip-path="url(#p060ab95b66)" d="M 391.697492 640.8 
L 391.697492 86.4 
" style="fill:none;stroke:#b0b0b0;stroke-linecap:square;stroke-width:0.8;"/>
     </g>
     <g id="line2d_6">
      <g>
       <use style="stroke:#000000;stroke-width:0.8;" x="391.697492" xlink:href="#m53590725f8" y="640.8"/>
      </g>
     </g>
     <g id="text_3">
      <!-- 500 -->
      <g transform="translate(365.929367 668.315781)scale(0.27 -0.27)">
       <use xlink:href="#DejaVuSans-53"/>
       <use x="63.623047" xlink:href="#DejaVuSans-48"/>
       <use x="127.246094" xlink:href="#DejaVuSans-48"/>
      </g>
     </g>
    </g>
    <g id="xtick_4">
     <g id="line2d_7">
      <path clip-path="url(#p060ab95b66)" d="M 501.023511 640.8 
L 501.023511 86.4 
" style="fill:none;stroke:#b0b0b0;stroke-linecap:square;stroke-width:0.8;"/>
     </g>
     <g id="line2d_8">
      <g>
       <use style="stroke:#000000;stroke-width:0.8;" x="501.023511" xlink:href="#m53590725f8" y="640.8"/>
      </g>
     </g>
     <g id="text_4">
      <!-- 750 -->
      <defs>
       <path d="M 8.203125 72.90625 
L 55.078125 72.90625 
L 55.078125 68.703125 
L 28.609375 0 
L 18.3125 0 
L 43.21875 64.59375 
L 8.203125 64.59375 
z
" id="DejaVuSans-55"/>
      </defs>
      <g transform="translate(475.255386 668.315781)scale(0.27 -0.27)">
       <use xlink:href="#DejaVuSans-55"/>
       <use x="63.623047" xlink:href="#DejaVuSans-53"/>
       <use x="127.246094" xlink:href="#DejaVuSans-48"/>
      </g>
     </g>
    </g>
    <g id="xtick_5">
     <g id="line2d_9">
      <path clip-path="url(#p060ab95b66)" d="M 610.34953 640.8 
L 610.34953 86.4 
" style="fill:none;stroke:#b0b0b0;stroke-linecap:square;stroke-width:0.8;"/>
     </g>
     <g id="line2d_10">
      <g>
       <use style="stroke:#000000;stroke-width:0.8;" x="610.34953" xlink:href="#m53590725f8" y="640.8"/>
      </g>
     </g>
     <g id="text_5">
      <!-- 1000 -->
      <defs>
       <path d="M 12.40625 8.296875 
L 28.515625 8.296875 
L 28.515625 63.921875 
L 10.984375 60.40625 
L 10.984375 69.390625 
L 28.421875 72.90625 
L 38.28125 72.90625 
L 38.28125 8.296875 
L 54.390625 8.296875 
L 54.390625 0 
L 12.40625 0 
z
" id="DejaVuSans-49"/>
      </defs>
      <g transform="translate(575.99203 668.315781)scale(0.27 -0.27)">
       <use xlink:href="#DejaVuSans-49"/>
       <use x="63.623047" xlink:href="#DejaVuSans-48"/>
       <use x="127.246094" xlink:href="#DejaVuSans-48"/>
       <use x="190.869141" xlink:href="#DejaVuSans-48"/>
      </g>
     </g>
    </g>
    <g id="xtick_6">
     <g id="line2d_11">
      <path clip-path="url(#p060ab95b66)" d="M 719.675549 640.8 
L 719.675549 86.4 
" style="fill:none;stroke:#b0b0b0;stroke-linecap:square;stroke-width:0.8;"/>
     </g>
     <g id="line2d_12">
      <g>
       <use style="stroke:#000000;stroke-width:0.8;" x="719.675549" xlink:href="#m53590725f8" y="640.8"/>
      </g>
     </g>
     <g id="text_6">
      <!-- 1250 -->
      <g transform="translate(685.318049 668.315781)scale(0.27 -0.27)">
       <use xlink:href="#DejaVuSans-49"/>
       <use x="63.623047" xlink:href="#DejaVuSans-50"/>
       <use x="127.246094" xlink:href="#DejaVuSans-53"/>
       <use x="190.869141" xlink:href="#DejaVuSans-48"/>
      </g>
     </g>
    </g>
    <g id="xtick_7">
     <g id="line2d_13">
      <path clip-path="url(#p060ab95b66)" d="M 829.001567 640.8 
L 829.001567 86.4 
" style="fill:none;stroke:#b0b0b0;stroke-linecap:square;stroke-width:0.8;"/>
     </g>
     <g id="line2d_14">
      <g>
       <use style="stroke:#000000;stroke-width:0.8;" x="829.001567" xlink:href="#m53590725f8" y="640.8"/>
      </g>
     </g>
     <g id="text_7">
      <!-- 1500 -->
      <g transform="translate(794.644067 668.315781)scale(0.27 -0.27)">
       <use xlink:href="#DejaVuSans-49"/>
       <use x="63.623047" xlink:href="#DejaVuSans-53"/>
       <use x="127.246094" xlink:href="#DejaVuSans-48"/>
       <use x="190.869141" xlink:href="#DejaVuSans-48"/>
      </g>
     </g>
    </g>
    <g id="xtick_8">
     <g id="line2d_15">
      <path clip-path="url(#p060ab95b66)" d="M 938.327586 640.8 
L 938.327586 86.4 
" style="fill:none;stroke:#b0b0b0;stroke-linecap:square;stroke-width:0.8;"/>
     </g>
     <g id="line2d_16">
      <g>
       <use style="stroke:#000000;stroke-width:0.8;" x="938.327586" xlink:href="#m53590725f8" y="640.8"/>
      </g>
     </g>
     <g id="text_8">
      <!-- 1750 -->
      <g transform="translate(903.970086 668.315781)scale(0.27 -0.27)">
       <use xlink:href="#DejaVuSans-49"/>
       <use x="63.623047" xlink:href="#DejaVuSans-55"/>
       <use x="127.246094" xlink:href="#DejaVuSans-53"/>
       <use x="190.869141" xlink:href="#DejaVuSans-48"/>
      </g>
     </g>
    </g>
   </g>
   <g id="matplotlib.axis_2">
    <g id="ytick_1">
     <g id="line2d_17">
      <path clip-path="url(#p060ab95b66)" d="M 135 584.720629 
L 972 584.720629 
" style="fill:none;stroke:#b0b0b0;stroke-linecap:square;stroke-width:0.8;"/>
     </g>
     <g id="line2d_18">
      <defs>
       <path d="M 0 0 
L -3.5 0 
" id="m4cf34e3cf3" style="stroke:#000000;stroke-width:0.8;"/>
      </defs>
      <g>
       <use style="stroke:#000000;stroke-width:0.8;" x="135" xlink:href="#m4cf34e3cf3" y="584.720629"/>
      </g>
     </g>
     <g id="text_9">
      <!-- 15.0 -->
      <defs>
       <path d="M 10.6875 12.40625 
L 21 12.40625 
L 21 0 
L 10.6875 0 
z
" id="DejaVuSans-46"/>
      </defs>
      <g transform="translate(67.882812 594.978519)scale(0.27 -0.27)">
       <use xlink:href="#DejaVuSans-49"/>
       <use x="63.623047" xlink:href="#DejaVuSans-53"/>
       <use x="127.246094" xlink:href="#DejaVuSans-46"/>
       <use x="159.033203" xlink:href="#DejaVuSans-48"/>
      </g>
     </g>
    </g>
    <g id="ytick_2">
     <g id="line2d_19">
      <path clip-path="url(#p060ab95b66)" d="M 135 509.359625 
L 972 509.359625 
" style="fill:none;stroke:#b0b0b0;stroke-linecap:square;stroke-width:0.8;"/>
     </g>
     <g id="line2d_20">
      <g>
       <use style="stroke:#000000;stroke-width:0.8;" x="135" xlink:href="#m4cf34e3cf3" y="509.359625"/>
      </g>
     </g>
     <g id="text_10">
      <!-- 17.5 -->
      <g transform="translate(67.882812 519.617515)scale(0.27 -0.27)">
       <use xlink:href="#DejaVuSans-49"/>
       <use x="63.623047" xlink:href="#DejaVuSans-55"/>
       <use x="127.246094" xlink:href="#DejaVuSans-46"/>
       <use x="159.033203" xlink:href="#DejaVuSans-53"/>
      </g>
     </g>
    </g>
    <g id="ytick_3">
     <g id="line2d_21">
      <path clip-path="url(#p060ab95b66)" d="M 135 433.998621 
L 972 433.998621 
" style="fill:none;stroke:#b0b0b0;stroke-linecap:square;stroke-width:0.8;"/>
     </g>
     <g id="line2d_22">
      <g>
       <use style="stroke:#000000;stroke-width:0.8;" x="135" xlink:href="#m4cf34e3cf3" y="433.998621"/>
      </g>
     </g>
     <g id="text_11">
      <!-- 20.0 -->
      <g transform="translate(67.882812 444.256511)scale(0.27 -0.27)">
       <use xlink:href="#DejaVuSans-50"/>
       <use x="63.623047" xlink:href="#DejaVuSans-48"/>
       <use x="127.246094" xlink:href="#DejaVuSans-46"/>
       <use x="159.033203" xlink:href="#DejaVuSans-48"/>
      </g>
     </g>
    </g>
    <g id="ytick_4">
     <g id="line2d_23">
      <path clip-path="url(#p060ab95b66)" d="M 135 358.637617 
L 972 358.637617 
" style="fill:none;stroke:#b0b0b0;stroke-linecap:square;stroke-width:0.8;"/>
     </g>
     <g id="line2d_24">
      <g>
       <use style="stroke:#000000;stroke-width:0.8;" x="135" xlink:href="#m4cf34e3cf3" y="358.637617"/>
      </g>
     </g>
     <g id="text_12">
      <!-- 22.5 -->
      <g transform="translate(67.882812 368.895507)scale(0.27 -0.27)">
       <use xlink:href="#DejaVuSans-50"/>
       <use x="63.623047" xlink:href="#DejaVuSans-50"/>
       <use x="127.246094" xlink:href="#DejaVuSans-46"/>
       <use x="159.033203" xlink:href="#DejaVuSans-53"/>
      </g>
     </g>
    </g>
    <g id="ytick_5">
     <g id="line2d_25">
      <path clip-path="url(#p060ab95b66)" d="M 135 283.276613 
L 972 283.276613 
" style="fill:none;stroke:#b0b0b0;stroke-linecap:square;stroke-width:0.8;"/>
     </g>
     <g id="line2d_26">
      <g>
       <use style="stroke:#000000;stroke-width:0.8;" x="135" xlink:href="#m4cf34e3cf3" y="283.276613"/>
      </g>
     </g>
     <g id="text_13">
      <!-- 25.0 -->
      <g transform="translate(67.882812 293.534503)scale(0.27 -0.27)">
       <use xlink:href="#DejaVuSans-50"/>
       <use x="63.623047" xlink:href="#DejaVuSans-53"/>
       <use x="127.246094" xlink:href="#DejaVuSans-46"/>
       <use x="159.033203" xlink:href="#DejaVuSans-48"/>
      </g>
     </g>
    </g>
    <g id="ytick_6">
     <g id="line2d_27">
      <path clip-path="url(#p060ab95b66)" d="M 135 207.915609 
L 972 207.915609 
" style="fill:none;stroke:#b0b0b0;stroke-linecap:square;stroke-width:0.8;"/>
     </g>
     <g id="line2d_28">
      <g>
       <use style="stroke:#000000;stroke-width:0.8;" x="135" xlink:href="#m4cf34e3cf3" y="207.915609"/>
      </g>
     </g>
     <g id="text_14">
      <!-- 27.5 -->
      <g transform="translate(67.882812 218.173499)scale(0.27 -0.27)">
       <use xlink:href="#DejaVuSans-50"/>
       <use x="63.623047" xlink:href="#DejaVuSans-55"/>
       <use x="127.246094" xlink:href="#DejaVuSans-46"/>
       <use x="159.033203" xlink:href="#DejaVuSans-53"/>
      </g>
     </g>
    </g>
    <g id="ytick_7">
     <g id="line2d_29">
      <path clip-path="url(#p060ab95b66)" d="M 135 132.554605 
L 972 132.554605 
" style="fill:none;stroke:#b0b0b0;stroke-linecap:square;stroke-width:0.8;"/>
     </g>
     <g id="line2d_30">
      <g>
       <use style="stroke:#000000;stroke-width:0.8;" x="135" xlink:href="#m4cf34e3cf3" y="132.554605"/>
      </g>
     </g>
     <g id="text_15">
      <!-- 30.0 -->
      <defs>
       <path d="M 40.578125 39.3125 
Q 47.65625 37.796875 51.625 33 
Q 55.609375 28.21875 55.609375 21.1875 
Q 55.609375 10.40625 48.1875 4.484375 
Q 40.765625 -1.421875 27.09375 -1.421875 
Q 22.515625 -1.421875 17.65625 -0.515625 
Q 12.796875 0.390625 7.625 2.203125 
L 7.625 11.71875 
Q 11.71875 9.328125 16.59375 8.109375 
Q 21.484375 6.890625 26.8125 6.890625 
Q 36.078125 6.890625 40.9375 10.546875 
Q 45.796875 14.203125 45.796875 21.1875 
Q 45.796875 27.640625 41.28125 31.265625 
Q 36.765625 34.90625 28.71875 34.90625 
L 20.21875 34.90625 
L 20.21875 43.015625 
L 29.109375 43.015625 
Q 36.375 43.015625 40.234375 45.921875 
Q 44.09375 48.828125 44.09375 54.296875 
Q 44.09375 59.90625 40.109375 62.90625 
Q 36.140625 65.921875 28.71875 65.921875 
Q 24.65625 65.921875 20.015625 65.03125 
Q 15.375 64.15625 9.8125 62.3125 
L 9.8125 71.09375 
Q 15.4375 72.65625 20.34375 73.4375 
Q 25.25 74.21875 29.59375 74.21875 
Q 40.828125 74.21875 47.359375 69.109375 
Q 53.90625 64.015625 53.90625 55.328125 
Q 53.90625 49.265625 50.4375 45.09375 
Q 46.96875 40.921875 40.578125 39.3125 
z
" id="DejaVuSans-51"/>
      </defs>
      <g transform="translate(67.882812 142.812495)scale(0.27 -0.27)">
       <use xlink:href="#DejaVuSans-51"/>
       <use x="63.623047" xlink:href="#DejaVuSans-48"/>
       <use x="127.246094" xlink:href="#DejaVuSans-46"/>
       <use x="159.033203" xlink:href="#DejaVuSans-48"/>
      </g>
     </g>
    </g>
   </g>
   <g id="line2d_31">
    <path clip-path="url(#p060ab95b66)" d="M 173.045455 548.31458 
L 173.920063 546.554689 
L 174.357367 547.245272 
L 174.794671 547.005859 
L 175.231975 545.218542 
L 175.669279 540.095544 
L 176.106583 537.551466 
L 176.981191 530.68249 
L 177.418495 528.849866 
L 177.855799 533.903295 
L 178.293103 532.11247 
L 178.730408 534.468594 
L 179.167712 532.803743 
L 179.605016 536.986454 
L 180.04232 539.037045 
L 180.479624 538.324326 
L 181.354232 531.465987 
L 181.791536 532.155132 
L 182.22884 529.850927 
L 182.666144 528.444808 
L 183.103448 525.457149 
L 183.540752 521.565081 
L 183.978056 519.214879 
L 184.415361 515.956242 
L 184.852665 513.945266 
L 185.727273 500.662337 
L 186.601881 482.81918 
L 187.039185 481.389027 
L 187.913793 467.80942 
L 188.351097 454.128332 
L 188.788401 451.793079 
L 190.100313 424.887248 
L 190.537618 423.422195 
L 190.974922 420.825451 
L 191.412226 420.841378 
L 191.84953 416.424544 
L 192.724138 402.235997 
L 193.161442 397.817496 
L 193.598746 396.983863 
L 194.03605 391.636574 
L 194.473354 384.042403 
L 194.910658 381.540872 
L 195.347962 380.544066 
L 195.785266 375.883564 
L 196.659875 362.313271 
L 197.097179 359.483266 
L 197.534483 352.082511 
L 198.409091 344.316657 
L 198.846395 340.968097 
L 200.158307 324.001177 
L 200.595611 317.759136 
L 201.032915 318.99294 
L 201.470219 317.14784 
L 201.907524 309.618869 
L 202.782132 309.297294 
L 203.219436 308.025486 
L 203.65674 302.726435 
L 204.094044 303.823169 
L 204.531348 306.478444 
L 204.968652 312.918845 
L 205.405956 315.255018 
L 205.84326 314.873993 
L 206.280564 311.413603 
L 207.155172 324.245879 
L 207.592476 322.090473 
L 208.029781 324.230758 
L 208.467085 321.268857 
L 208.904389 322.577119 
L 209.341693 328.411628 
L 209.778997 326.0827 
L 210.216301 327.743871 
L 210.653605 323.299899 
L 211.090909 323.452666 
L 211.528213 322.342018 
L 211.965517 326.319871 
L 212.402821 331.414293 
L 213.277429 338.033794 
L 213.714734 343.029784 
L 214.152038 344.544513 
L 215.026646 354.789935 
L 215.46395 360.941419 
L 215.901254 363.246487 
L 216.338558 375.979352 
L 216.775862 369.272918 
L 217.65047 387.126712 
L 218.087774 391.504218 
L 218.525078 397.106962 
L 218.962382 398.107735 
L 219.399687 401.446924 
L 219.836991 402.381864 
L 220.274295 408.028075 
L 220.711599 411.289069 
L 221.148903 409.845405 
L 221.586207 414.503894 
L 222.023511 414.700012 
L 222.460815 415.736491 
L 222.898119 418.958445 
L 223.335423 418.643425 
L 223.772727 419.787248 
L 224.210031 419.776496 
L 224.647335 418.432818 
L 225.521944 414.180652 
L 226.396552 411.02637 
L 226.833856 409.851327 
L 227.27116 409.454318 
L 227.708464 407.749853 
L 228.145768 408.407605 
L 228.583072 407.323808 
L 229.020376 410.013868 
L 229.45768 408.556922 
L 229.894984 404.755639 
L 230.332288 404.28952 
L 230.769592 406.453493 
L 231.206897 396.234635 
L 231.644201 393.326148 
L 232.081505 389.38193 
L 232.518809 393.519966 
L 232.956113 388.310494 
L 233.393417 384.838318 
L 233.830721 380.33915 
L 234.268025 380.76715 
L 234.705329 373.074948 
L 235.142633 376.076923 
L 235.579937 378.190242 
L 236.454545 372.73394 
L 236.89185 372.897171 
L 237.766458 367.930216 
L 238.203762 366.537608 
L 239.07837 357.411344 
L 239.952978 349.955738 
L 240.390282 348.123172 
L 240.827586 349.132972 
L 241.26489 346.930535 
L 241.702194 347.325992 
L 242.139498 348.910636 
L 242.576803 345.403732 
L 243.014107 346.15917 
L 243.451411 342.849994 
L 243.888715 340.818607 
L 244.326019 335.606606 
L 244.763323 340.435857 
L 245.200627 340.89295 
L 245.637931 343.760729 
L 246.075235 342.1413 
L 246.512539 344.516628 
L 246.949843 347.834945 
L 247.387147 348.137316 
L 247.824451 347.468006 
L 248.261755 353.746212 
L 249.136364 359.646727 
L 249.573668 358.03644 
L 250.010972 352.215384 
L 250.448276 355.891613 
L 250.88558 351.183275 
L 251.322884 359.329005 
L 251.760188 357.316419 
L 252.197492 362.236514 
L 252.634796 356.206001 
L 253.0721 355.192578 
L 253.509404 358.370548 
L 253.946708 356.547411 
L 254.384013 355.294058 
L 254.821317 352.467388 
L 255.258621 355.703774 
L 255.695925 356.290635 
L 256.133229 353.296422 
L 256.570533 348.356433 
L 257.007837 346.560491 
L 257.445141 349.808491 
L 257.882445 354.984558 
L 258.319749 356.398957 
L 258.757053 355.93324 
L 259.631661 371.249626 
L 260.068966 366.085001 
L 260.50627 369.662855 
L 260.943574 361.367866 
L 261.380878 369.212259 
L 261.818182 368.717392 
L 262.255486 369.16425 
L 262.69279 363.941324 
L 263.130094 365.715647 
L 263.567398 364.609771 
L 264.004702 362.540552 
L 264.442006 363.193533 
L 264.87931 362.07725 
L 265.316614 365.103719 
L 265.753918 362.89122 
L 266.191223 368.46878 
L 266.628527 370.613894 
L 267.065831 376.2198 
L 267.503135 377.560259 
L 267.940439 381.711807 
L 268.377743 381.312326 
L 268.815047 384.790999 
L 269.252351 386.149569 
L 269.689655 384.884947 
L 270.126959 384.100186 
L 270.564263 386.596082 
L 271.001567 386.768627 
L 271.438871 390.989515 
L 272.31348 402.757772 
L 273.625392 409.985407 
L 274.062696 409.519403 
L 274.5 410.533056 
L 274.937304 405.895495 
L 275.374608 410.53777 
L 276.249216 416.27563 
L 276.68652 416.805914 
L 277.998433 427.088305 
L 278.873041 430.261791 
L 279.310345 432.675698 
L 279.747649 433.157973 
L 280.184953 434.344573 
L 280.622257 434.91292 
L 281.059561 436.63107 
L 281.496865 435.598444 
L 281.934169 438.003611 
L 282.371473 438.711903 
L 282.808777 439.705547 
L 283.246082 440.124577 
L 283.683386 441.925808 
L 284.12069 446.626901 
L 284.557994 447.26844 
L 284.995298 446.202467 
L 285.432602 449.059782 
L 285.869906 452.796612 
L 286.30721 453.364269 
L 286.744514 452.359011 
L 287.181818 448.844403 
L 288.056426 443.201987 
L 288.49373 440.119747 
L 288.931034 440.210763 
L 289.368339 440.489273 
L 289.805643 442.583561 
L 290.242947 442.650371 
L 290.680251 443.395863 
L 291.117555 442.45776 
L 291.992163 435.534623 
L 292.429467 433.111862 
L 292.866771 425.510043 
L 293.304075 425.69035 
L 293.741379 423.773093 
L 294.178683 419.93829 
L 294.615987 418.387741 
L 295.053292 419.893616 
L 295.490596 420.945848 
L 295.9279 423.49395 
L 296.365204 425.087564 
L 296.802508 426.050102 
L 297.239812 425.151384 
L 297.677116 425.711566 
L 298.11442 427.885371 
L 298.989028 430.599464 
L 300.30094 432.247238 
L 300.738245 431.429704 
L 301.612853 434.900041 
L 302.924765 423.836913 
L 303.799373 421.380287 
L 304.236677 418.785267 
L 304.673981 419.471481 
L 305.111285 420.403432 
L 305.548589 420.35571 
L 305.985893 421.204407 
L 306.423197 420.778247 
L 306.860502 419.746024 
L 308.172414 414.431334 
L 308.609718 412.066413 
L 309.047022 411.97741 
L 309.484326 413.639041 
L 309.92163 410.673346 
L 310.358934 412.426395 
L 310.796238 417.027561 
L 311.233542 416.523667 
L 311.670846 414.811094 
L 312.10815 417.569057 
L 312.982759 410.486772 
L 313.420063 408.886489 
L 313.857367 409.600128 
L 314.294671 411.436144 
L 314.731975 414.040247 
L 315.169279 411.802277 
L 316.043887 404.117838 
L 316.481191 388.851416 
L 317.355799 393.5348 
L 317.793103 394.121661 
L 318.230408 391.996096 
L 318.667712 394.784991 
L 319.105016 394.599739 
L 319.54232 397.907995 
L 319.979624 400.312818 
L 320.416928 401.011163 
L 320.854232 403.058821 
L 321.291536 403.710652 
L 321.72884 402.456494 
L 322.166144 406.571647 
L 322.603448 408.246559 
L 323.040752 405.322836 
L 323.478056 408.527599 
L 323.915361 408.177737 
L 324.352665 405.623367 
L 324.789969 407.223133 
L 325.227273 401.961454 
L 325.664577 399.739756 
L 326.101881 394.05807 
L 326.539185 399.773219 
L 326.976489 397.411863 
L 327.413793 398.343296 
L 327.851097 393.145266 
L 328.288401 400.250722 
L 328.725705 401.875096 
L 329.163009 403.991117 
L 329.600313 400.915029 
L 330.037618 401.533455 
L 330.474922 401.140758 
L 330.912226 400.038792 
L 331.34953 399.672371 
L 331.786834 398.45846 
L 332.224138 398.85156 
L 332.661442 395.691126 
L 333.53605 391.471158 
L 333.973354 391.708961 
L 334.410658 389.748639 
L 334.847962 391.37468 
L 335.285266 393.675665 
L 335.722571 393.241111 
L 336.159875 392.486248 
L 336.597179 392.188477 
L 337.034483 391.568211 
L 337.471787 392.610324 
L 337.909091 390.291285 
L 338.346395 390.471017 
L 338.783699 387.109635 
L 339.221003 388.295258 
L 339.658307 384.17815 
L 340.095611 378.329267 
L 340.532915 374.027425 
L 340.970219 377.61373 
L 341.407524 374.074399 
L 341.844828 357.92737 
L 342.282132 363.440305 
L 342.719436 366.122776 
L 343.15674 371.275154 
L 343.594044 369.851786 
L 344.031348 375.063328 
L 344.468652 372.334343 
L 344.905956 382.151535 
L 345.34326 369.440231 
L 346.217868 359.821399 
L 346.655172 359.31716 
L 347.092476 366.863438 
L 347.529781 365.251023 
L 347.967085 362.012222 
L 348.404389 353.501797 
L 348.841693 361.151452 
L 349.716301 369.501349 
L 350.153605 374.014948 
L 350.590909 376.040011 
L 351.028213 367.790156 
L 351.465517 362.504445 
L 351.902821 371.066214 
L 352.340125 384.481959 
L 353.214734 394.174672 
L 353.652038 394.147132 
L 354.089342 380.109397 
L 354.526646 370.315778 
L 354.96395 379.53622 
L 355.401254 394.269828 
L 355.838558 390.052907 
L 356.275862 388.288818 
L 356.713166 391.734374 
L 357.15047 404.490813 
L 357.587774 405.947644 
L 358.025078 399.102357 
L 358.462382 412.363437 
L 358.899687 412.383388 
L 359.336991 435.975214 
L 359.774295 425.55949 
L 360.211599 432.199402 
L 360.648903 411.561772 
L 361.086207 413.710278 
L 361.523511 440.806996 
L 361.960815 447.26821 
L 362.398119 400.894733 
L 363.272727 432.512409 
L 363.710031 451.992072 
L 364.147335 442.463739 
L 364.584639 448.713139 
L 365.021944 453.096281 
L 365.459248 466.06143 
L 365.896552 473.890989 
L 366.333856 473.618344 
L 366.77116 480.33875 
L 367.208464 495.847172 
L 367.645768 502.309824 
L 368.083072 501.015994 
L 368.520376 512.020362 
L 368.95768 515.981023 
L 369.394984 516.13103 
L 369.832288 511.013896 
L 370.706897 505.747503 
L 371.144201 495.306423 
L 371.581505 502.213864 
L 372.018809 520.140678 
L 372.456113 520.619676 
L 372.893417 519.10144 
L 373.330721 517.129503 
L 373.768025 520.917792 
L 374.205329 522.090478 
L 375.079937 514.168983 
L 375.517241 520.674412 
L 375.954545 522.228871 
L 376.39185 525.455712 
L 376.829154 527.170124 
L 377.266458 527.557589 
L 377.703762 529.510264 
L 378.141066 526.400599 
L 379.015674 522.986609 
L 379.452978 525.313697 
L 379.890282 529.57259 
L 380.327586 526.784672 
L 380.76489 521.619184 
L 381.202194 521.116843 
L 382.076803 532.057964 
L 382.514107 532.840081 
L 382.951411 535.869884 
L 383.388715 537.370584 
L 383.826019 537.133356 
L 384.263323 534.601755 
L 384.700627 536.255739 
L 385.137931 531.076222 
L 385.575235 531.072485 
L 386.012539 528.285544 
L 386.449843 526.77898 
L 386.887147 529.296207 
L 387.324451 535.02113 
L 388.19906 539.143527 
L 388.636364 542.916407 
L 389.073668 535.813595 
L 389.510972 538.361295 
L 389.948276 543.389598 
L 390.38558 539.953069 
L 390.822884 540.727309 
L 391.260188 535.74506 
L 391.697492 539.290716 
L 392.134796 538.95701 
L 392.5721 537.426815 
L 393.446708 517.925821 
L 393.884013 528.025663 
L 394.321317 524.100247 
L 394.758621 522.809292 
L 395.195925 516.215836 
L 395.633229 518.013905 
L 396.070533 513.923705 
L 396.945141 519.97348 
L 397.382445 517.917542 
L 397.819749 514.385627 
L 398.257053 517.378115 
L 398.694357 525.316744 
L 399.131661 521.969392 
L 399.568966 522.927273 
L 400.00627 522.240312 
L 400.443574 524.822222 
L 400.880878 526.508059 
L 401.318182 521.703646 
L 401.755486 521.825882 
L 402.19279 521.687029 
L 403.067398 528.157904 
L 403.504702 532.991525 
L 403.942006 535.379329 
L 404.37931 538.633883 
L 405.253918 541.361718 
L 405.691223 538.345082 
L 406.128527 539.649721 
L 407.003135 535.337759 
L 407.440439 536.75555 
L 407.877743 535.603793 
L 408.315047 533.652325 
L 409.189655 536.722318 
L 409.626959 535.707803 
L 410.501567 540.312648 
L 410.938871 538.22273 
L 411.376176 540.497383 
L 411.81348 540.325412 
L 412.250784 542.837177 
L 412.688088 540.112735 
L 413.562696 546.95555 
L 414 550.324349 
L 414.437304 552.794602 
L 414.874608 553.346562 
L 415.311912 554.477621 
L 416.18652 549.389983 
L 417.061129 539.0996 
L 417.498433 534.534139 
L 417.935737 528.706702 
L 418.373041 525.327554 
L 418.810345 526.425093 
L 419.247649 524.969872 
L 419.684953 525.776654 
L 420.122257 527.284886 
L 420.559561 527.244869 
L 421.434169 523.868768 
L 421.871473 523.783559 
L 422.746082 523.031226 
L 423.183386 519.393461 
L 423.62069 520.575691 
L 424.057994 519.796507 
L 424.495298 511.120953 
L 425.369906 501.901661 
L 425.80721 496.168459 
L 426.244514 494.19796 
L 426.681818 493.196439 
L 427.556426 488.344074 
L 427.99373 486.426702 
L 428.431034 483.419724 
L 428.868339 481.861873 
L 429.305643 476.717947 
L 429.742947 475.045564 
L 430.180251 470.093789 
L 431.054859 463.223146 
L 431.492163 462.522443 
L 431.929467 460.685737 
L 432.366771 454.225845 
L 432.804075 453.654278 
L 434.115987 441.998195 
L 434.553292 435.090352 
L 434.990596 430.859863 
L 435.4279 429.685394 
L 435.865204 427.792745 
L 436.302508 429.060357 
L 436.739812 426.661456 
L 437.177116 420.580691 
L 437.61442 417.428997 
L 438.489028 405.529534 
L 438.926332 404.336839 
L 439.363636 405.190941 
L 439.80094 407.939819 
L 440.238245 406.460795 
L 440.675549 410.761544 
L 441.112853 406.258812 
L 441.550157 399.473953 
L 442.424765 390.650232 
L 442.862069 383.656893 
L 443.299373 383.831738 
L 443.736677 384.24749 
L 444.173981 384.090009 
L 444.611285 383.004544 
L 445.048589 383.850424 
L 445.485893 379.255813 
L 445.923197 372.586233 
L 446.360502 360.624099 
L 447.672414 347.874847 
L 448.109718 346.26847 
L 448.547022 346.438025 
L 448.984326 351.311319 
L 449.42163 347.776414 
L 449.858934 347.583401 
L 450.296238 348.482579 
L 450.733542 348.173021 
L 451.170846 347.527112 
L 451.60815 347.428852 
L 452.045455 346.102019 
L 452.920063 335.889773 
L 453.357367 333.723328 
L 453.794671 333.421245 
L 454.231975 332.946444 
L 454.669279 335.384959 
L 455.106583 336.679249 
L 455.543887 335.705154 
L 455.981191 337.435205 
L 456.418495 336.293509 
L 456.855799 335.932262 
L 457.730408 332.318934 
L 458.167712 332.603251 
L 458.605016 331.253247 
L 459.04232 331.455288 
L 459.916928 334.706163 
L 460.354232 335.910989 
L 460.791536 337.683989 
L 461.22884 338.771007 
L 461.666144 337.507707 
L 462.103448 335.686927 
L 462.540752 332.473827 
L 462.978056 334.571795 
L 463.415361 338.473408 
L 463.852665 337.475682 
L 464.289969 338.659465 
L 464.727273 343.18784 
L 465.164577 343.367975 
L 465.601881 347.750024 
L 466.039185 345.677067 
L 466.476489 345.647514 
L 467.351097 346.78484 
L 467.788401 342.948657 
L 468.225705 346.476777 
L 468.663009 345.60675 
L 469.537618 347.637849 
L 469.974922 346.156238 
L 470.412226 349.763759 
L 470.84953 350.060611 
L 471.724138 354.299782 
L 472.161442 353.24249 
L 472.598746 354.651772 
L 473.03605 354.913723 
L 473.910658 359.571867 
L 474.785266 362.356795 
L 475.222571 364.321372 
L 475.659875 364.144687 
L 477.409091 374.765039 
L 477.846395 375.14296 
L 478.283699 377.949276 
L 478.721003 381.540527 
L 479.158307 386.332579 
L 480.032915 390.795524 
L 480.470219 396.046163 
L 480.907524 396.7153 
L 481.344828 399.472055 
L 481.782132 403.113787 
L 482.219436 408.855383 
L 482.65674 410.178536 
L 483.094044 415.728039 
L 483.531348 417.867288 
L 483.968652 420.712357 
L 484.405956 426.094317 
L 484.84326 428.97601 
L 485.280564 429.699538 
L 485.717868 434.238436 
L 486.155172 442.444306 
L 486.592476 447.285459 
L 487.029781 453.60029 
L 487.467085 457.045155 
L 487.904389 466.266288 
L 489.216301 477.794212 
L 490.528213 489.286087 
L 491.402821 502.651695 
L 491.840125 502.720057 
L 492.277429 505.191978 
L 492.714734 508.416002 
L 493.152038 510.359765 
L 493.589342 517.830493 
L 494.026646 521.870039 
L 494.46395 529.63641 
L 494.901254 530.211771 
L 495.338558 535.964465 
L 495.775862 540.099454 
L 496.213166 547.880371 
L 496.65047 546.752647 
L 498.836991 566.272126 
L 499.711599 571.816942 
L 500.148903 576.49958 
L 500.586207 576.263099 
L 501.023511 576.668905 
L 501.460815 578.789612 
L 502.335423 579.412551 
L 502.772727 579.376501 
L 503.210031 580.220081 
L 503.647335 580.554534 
L 504.084639 581.182533 
L 504.521944 578.825202 
L 504.959248 575.583871 
L 505.396552 575.162283 
L 506.708464 567.600712 
L 507.145768 566.395943 
L 507.583072 561.431059 
L 509.332288 551.917272 
L 510.206897 541.314457 
L 510.644201 539.988256 
L 511.081505 540.195357 
L 511.518809 539.449118 
L 512.393417 530.532426 
L 512.830721 530.410592 
L 513.268025 525.497224 
L 513.705329 518.720989 
L 514.579937 511.398256 
L 515.017241 502.508703 
L 515.454545 500.347375 
L 515.89185 492.267018 
L 516.329154 476.458008 
L 516.766458 479.726649 
L 517.203762 476.017474 
L 517.641066 461.580373 
L 518.07837 466.118638 
L 518.515674 464.857581 
L 518.952978 464.21426 
L 519.390282 464.80365 
L 519.827586 458.913254 
L 520.26489 459.90914 
L 520.702194 463.398048 
L 521.576803 446.177858 
L 522.014107 445.223887 
L 522.451411 437.015832 
L 522.888715 441.09091 
L 523.326019 434.01311 
L 523.763323 429.431148 
L 524.200627 426.747125 
L 524.637931 427.942407 
L 525.075235 424.493631 
L 525.512539 424.818943 
L 525.949843 420.193112 
L 526.824451 418.578455 
L 527.261755 422.635422 
L 527.69906 422.79227 
L 528.136364 428.583083 
L 528.573668 430.548063 
L 529.010972 436.044669 
L 529.448276 438.498651 
L 529.88558 429.364912 
L 530.322884 427.75888 
L 530.760188 430.196245 
L 531.197492 430.146799 
L 531.634796 428.322454 
L 532.0721 431.813949 
L 532.509404 426.801056 
L 532.946708 425.56179 
L 533.384013 434.04065 
L 533.821317 439.408868 
L 534.258621 439.668807 
L 535.133229 438.82701 
L 535.570533 437.787772 
L 536.007837 438.54183 
L 536.445141 448.495403 
L 536.882445 450.723598 
L 537.319749 451.766343 
L 537.757053 457.117945 
L 538.194357 459.493043 
L 538.631661 458.938207 
L 539.068966 466.015203 
L 539.50627 468.692786 
L 539.943574 468.146231 
L 540.380878 467.315013 
L 540.818182 470.161749 
L 541.255486 469.851443 
L 541.69279 476.650274 
L 542.130094 479.802601 
L 543.004702 483.459684 
L 543.442006 489.265561 
L 543.87931 491.149816 
L 544.316614 491.810616 
L 544.753918 497.020663 
L 545.191223 497.707279 
L 545.628527 500.494852 
L 546.065831 500.248539 
L 546.503135 503.204978 
L 547.377743 511.462881 
L 547.815047 513.450227 
L 548.252351 514.030705 
L 548.689655 520.989202 
L 549.126959 522.656237 
L 549.564263 528.719523 
L 550.001567 531.840112 
L 550.438871 538.298912 
L 550.876176 539.828763 
L 551.750784 553.152284 
L 552.188088 566.33885 
L 552.625392 565.167486 
L 553.062696 567.956266 
L 553.5 568.969516 
L 553.937304 575.185511 
L 554.374608 573.960274 
L 554.811912 570.567758 
L 555.249216 575.809054 
L 555.68652 573.454023 
L 556.123824 572.889269 
L 556.561129 572.096401 
L 556.998433 572.739406 
L 557.435737 572.876592 
L 557.873041 575.008136 
L 558.747649 581.238103 
L 559.622257 583.014064 
L 560.059561 587.321282 
L 560.496865 585.685898 
L 561.371473 592.719283 
L 561.808777 594.679088 
L 562.246082 594.074404 
L 562.683386 594.964555 
L 563.557994 591.75732 
L 563.995298 589.331051 
L 565.30721 583.824756 
L 565.744514 584.093923 
L 566.181818 582.840369 
L 566.619122 582.488121 
L 567.056426 580.817722 
L 567.49373 580.89491 
L 567.931034 576.103433 
L 568.368339 576.472758 
L 568.805643 576.49061 
L 569.242947 575.320569 
L 569.680251 575.246054 
L 570.117555 573.434762 
L 570.554859 572.10951 
L 570.992163 569.316389 
L 571.429467 568.051595 
L 571.866771 565.992552 
L 572.304075 560.998776 
L 573.178683 553.225419 
L 574.053292 541.005359 
L 574.9279 522.230193 
L 575.365204 518.700291 
L 576.239812 501.164219 
L 576.677116 497.13324 
L 577.551724 480.092898 
L 578.426332 467.861108 
L 578.863636 465.976911 
L 579.30094 453.163838 
L 579.738245 447.954826 
L 580.175549 434.583699 
L 580.612853 436.785044 
L 581.050157 427.604733 
L 581.487461 421.29824 
L 581.924765 412.766713 
L 583.236677 401.930004 
L 583.673981 388.802027 
L 585.860502 338.730414 
L 586.297806 336.692588 
L 586.73511 327.96454 
L 587.172414 323.860024 
L 587.609718 315.626441 
L 588.047022 315.761384 
L 588.484326 309.894447 
L 588.92163 302.4393 
L 589.358934 289.268259 
L 589.796238 293.668878 
L 590.233542 282.629554 
L 591.10815 269.062308 
L 591.545455 267.484966 
L 591.982759 261.151047 
L 592.420063 252.257756 
L 592.857367 258.967871 
L 593.294671 246.3389 
L 593.731975 251.701023 
L 594.169279 248.595153 
L 594.606583 262.946298 
L 595.043887 255.085921 
L 595.481191 257.40243 
L 595.918495 251.36105 
L 596.355799 265.253263 
L 596.793103 270.304909 
L 597.230408 265.730076 
L 597.667712 257.280539 
L 598.105016 256.002175 
L 598.54232 236.341343 
L 598.979624 223.007128 
L 599.416928 219.83807 
L 599.854232 225.552471 
L 600.291536 213.879312 
L 600.72884 197.878552 
L 601.166144 200.450113 
L 601.603448 200.902146 
L 602.040752 206.352928 
L 602.478056 219.891196 
L 602.915361 216.639746 
L 603.352665 212.146386 
L 603.789969 196.117223 
L 604.227273 169.360594 
L 605.539185 179.897635 
L 605.976489 176.120845 
L 606.413793 174.899 
L 606.851097 174.62302 
L 607.288401 172.414546 
L 607.725705 171.748801 
L 608.600313 169.744897 
L 609.037618 167.149015 
L 609.474922 166.56204 
L 609.912226 167.411886 
L 610.34953 167.304196 
L 610.786834 163.538964 
L 611.224138 160.745239 
L 611.661442 163.450305 
L 612.098746 164.233744 
L 612.53605 165.847423 
L 612.973354 159.558121 
L 614.285266 184.142153 
L 614.722571 185.76233 
L 615.159875 191.076444 
L 615.597179 191.90243 
L 616.034483 191.231626 
L 616.471787 196.539876 
L 616.909091 195.589469 
L 617.346395 202.033147 
L 617.783699 204.160092 
L 618.221003 208.156401 
L 618.658307 216.69477 
L 619.095611 215.539103 
L 619.532915 216.988459 
L 620.407524 219.082689 
L 620.844828 212.185655 
L 621.282132 212.85761 
L 621.719436 212.565991 
L 622.15674 206.627011 
L 622.594044 204.501158 
L 623.031348 209.35979 
L 625.655172 183.412531 
L 626.092476 182.694522 
L 626.529781 187.262857 
L 626.967085 179.3359 
L 627.404389 174.794818 
L 627.841693 171.97499 
L 628.278997 166.605162 
L 628.716301 164.784497 
L 629.153605 169.542511 
L 629.590909 170.269834 
L 630.028213 175.561468 
L 630.465517 179.436 
L 630.902821 192.891244 
L 631.340125 196.110324 
L 631.777429 206.907533 
L 632.214734 210.327906 
L 633.089342 213.669854 
L 633.526646 219.188079 
L 633.96395 214.688739 
L 634.401254 225.217155 
L 634.838558 228.540302 
L 635.275862 237.875966 
L 635.713166 235.864702 
L 636.15047 238.112849 
L 636.587774 250.038128 
L 637.025078 251.956133 
L 637.462382 249.556312 
L 637.899687 245.006318 
L 638.336991 248.230802 
L 638.774295 249.124345 
L 639.211599 251.68067 
L 639.648903 250.799316 
L 640.086207 259.689846 
L 640.523511 262.30016 
L 640.960815 257.653745 
L 641.398119 263.373378 
L 641.835423 266.426754 
L 642.272727 274.553912 
L 642.710031 273.523068 
L 643.147335 277.979689 
L 643.584639 277.647996 
L 644.021944 287.480137 
L 644.459248 290.023524 
L 645.333856 301.36568 
L 645.77116 300.717931 
L 646.208464 304.423771 
L 646.645768 305.099348 
L 647.083072 303.334454 
L 647.520376 302.76053 
L 648.394984 312.744978 
L 648.832288 314.642112 
L 649.269592 321.22401 
L 649.706897 321.930635 
L 650.144201 318.909974 
L 650.581505 322.995861 
L 651.018809 329.553382 
L 651.456113 332.720657 
L 651.893417 333.746096 
L 652.768025 341.237465 
L 653.205329 343.927007 
L 654.079937 353.21725 
L 654.517241 358.178454 
L 654.954545 358.749734 
L 655.39185 359.698243 
L 655.829154 364.114617 
L 656.266458 369.808089 
L 656.703762 372.226194 
L 657.141066 375.866143 
L 657.57837 378.359912 
L 658.452978 385.462148 
L 658.890282 386.00445 
L 659.327586 387.022529 
L 659.76489 385.483364 
L 660.202194 381.024731 
L 661.076803 378.817062 
L 661.514107 381.077167 
L 661.951411 382.244219 
L 662.388715 376.053177 
L 662.826019 380.83442 
L 663.263323 382.289008 
L 663.700627 379.575892 
L 664.137931 384.662783 
L 664.575235 386.833828 
L 665.012539 386.158768 
L 665.887147 387.584494 
L 666.324451 389.230486 
L 667.636364 381.581349 
L 668.073668 383.399771 
L 668.510972 381.825821 
L 668.948276 381.523968 
L 669.38558 380.206047 
L 669.822884 381.796728 
L 670.697492 380.891111 
L 671.134796 379.269899 
L 671.5721 378.403379 
L 672.446708 380.48404 
L 672.884013 379.395988 
L 673.321317 379.837154 
L 673.758621 380.450577 
L 674.633229 384.796806 
L 675.070533 384.88006 
L 675.507837 383.733017 
L 675.945141 386.983777 
L 676.382445 384.657608 
L 676.819749 388.022555 
L 677.257053 388.979861 
L 677.694357 390.730439 
L 678.131661 390.106493 
L 679.443574 402.906112 
L 679.880878 401.836286 
L 680.755486 398.881228 
L 681.19279 396.660564 
L 681.630094 396.232622 
L 682.067398 396.520332 
L 682.504702 398.980523 
L 682.942006 405.03162 
L 683.37931 402.839704 
L 683.816614 404.618109 
L 684.253918 403.62964 
L 684.691223 404.430788 
L 685.128527 402.429643 
L 685.565831 402.945554 
L 686.003135 399.211829 
L 686.877743 411.454887 
L 687.315047 420.582301 
L 687.752351 418.100319 
L 688.189655 411.432694 
L 688.626959 410.539093 
L 689.064263 410.589172 
L 689.501567 411.812684 
L 689.938871 415.813305 
L 690.376176 414.715019 
L 691.250784 423.190372 
L 691.688088 423.901941 
L 692.125392 427.680858 
L 692.562696 425.995424 
L 693.437304 417.342121 
L 693.874608 424.090815 
L 694.311912 419.429624 
L 694.749216 426.186367 
L 695.18652 425.215779 
L 695.623824 418.833046 
L 696.061129 419.057625 
L 696.498433 421.305082 
L 696.935737 422.153836 
L 697.373041 424.239844 
L 697.810345 429.237271 
L 698.247649 427.325878 
L 698.684953 426.40077 
L 699.122257 423.572892 
L 699.559561 422.610526 
L 699.996865 421.107066 
L 700.434169 425.267123 
L 700.871473 424.830959 
L 701.308777 432.85681 
L 702.183386 425.586168 
L 702.62069 420.016772 
L 703.057994 426.772365 
L 703.495298 418.16092 
L 703.932602 418.033221 
L 704.369906 418.50371 
L 704.80721 420.171781 
L 705.244514 413.096797 
L 706.119122 415.954918 
L 706.556426 408.990729 
L 706.99373 406.471662 
L 707.431034 410.706636 
L 707.868339 411.725233 
L 708.305643 415.428255 
L 708.742947 411.664862 
L 709.180251 415.453208 
L 709.617555 416.362966 
L 710.054859 419.966405 
L 710.492163 420.508132 
L 710.929467 419.361549 
L 711.366771 409.690339 
L 711.804075 418.207721 
L 712.241379 419.109372 
L 712.678683 426.129217 
L 713.115987 413.202072 
L 713.553292 418.211746 
L 713.990596 416.627734 
L 714.4279 426.570382 
L 714.865204 424.843206 
L 715.302508 424.576425 
L 715.739812 426.014915 
L 716.177116 422.79802 
L 716.61442 422.413488 
L 717.051724 423.284838 
L 717.926332 418.168049 
L 718.80094 424.019693 
L 720.112853 440.080593 
L 720.550157 434.453413 
L 720.987461 424.936924 
L 721.424765 425.803157 
L 721.862069 431.938486 
L 722.299373 432.315429 
L 722.736677 420.504107 
L 723.173981 420.570112 
L 723.611285 423.703178 
L 724.048589 422.182239 
L 724.485893 416.929185 
L 724.923197 426.742353 
L 725.360502 427.496871 
L 725.797806 421.122418 
L 726.23511 420.021371 
L 726.672414 413.950669 
L 727.109718 416.296501 
L 727.547022 409.206396 
L 727.984326 409.947805 
L 728.42163 407.433338 
L 729.296238 425.618883 
L 730.170846 412.416851 
L 730.60815 417.207293 
L 731.045455 431.308101 
L 731.920063 426.275889 
L 732.357367 409.496922 
L 732.794671 404.444759 
L 733.231975 411.5152 
L 734.106583 396.910384 
L 734.543887 404.695441 
L 734.981191 401.910743 
L 735.418495 385.452604 
L 735.855799 381.944895 
L 736.293103 381.156569 
L 736.730408 389.751054 
L 737.167712 387.652684 
L 737.605016 398.708855 
L 738.04232 397.983199 
L 738.479624 400.266476 
L 738.916928 397.058781 
L 739.354232 403.094181 
L 739.791536 402.175224 
L 740.22884 394.266895 
L 740.666144 392.774935 
L 741.103448 393.968722 
L 741.540752 388.496034 
L 741.978056 403.24252 
L 742.415361 399.78581 
L 742.852665 399.100344 
L 743.289969 395.412788 
L 743.727273 399.171294 
L 744.164577 396.632219 
L 744.601881 392.374878 
L 745.039185 382.248071 
L 745.476489 389.530672 
L 745.913793 392.35257 
L 746.351097 388.059467 
L 746.788401 381.538744 
L 747.225705 381.189802 
L 747.663009 371.85707 
L 748.100313 376.95362 
L 748.537618 386.69095 
L 748.974922 392.548573 
L 749.412226 390.035256 
L 749.84953 382.143601 
L 750.286834 392.35625 
L 750.724138 392.493665 
L 751.598746 380.13826 
L 752.03605 388.950826 
L 752.473354 393.855225 
L 752.910658 389.044487 
L 753.347962 390.600555 
L 753.785266 396.535855 
L 754.222571 399.812143 
L 754.659875 393.946298 
L 755.097179 397.920414 
L 755.534483 397.963478 
L 755.971787 392.779764 
L 756.846395 397.334301 
L 757.283699 402.86253 
L 757.721003 402.105079 
L 758.158307 405.361359 
L 758.595611 404.252838 
L 759.032915 399.948466 
L 759.470219 398.014592 
L 759.907524 400.224216 
L 760.344828 406.563885 
L 760.782132 403.043182 
L 761.219436 403.556505 
L 761.65674 411.477541 
L 762.094044 415.49564 
L 762.531348 413.201497 
L 762.968652 414.123156 
L 763.405956 416.656022 
L 763.84326 417.961064 
L 764.280564 417.212697 
L 764.717868 415.533588 
L 765.155172 415.053497 
L 766.029781 404.53934 
L 766.467085 403.31094 
L 766.904389 417.917425 
L 767.341693 417.055274 
L 767.778997 423.00236 
L 768.216301 422.463394 
L 768.653605 423.100621 
L 769.090909 423.113155 
L 769.528213 418.007118 
L 769.965517 418.178226 
L 770.402821 427.807406 
L 770.840125 428.512536 
L 771.277429 428.843195 
L 771.714734 429.421316 
L 772.152038 432.066989 
L 772.589342 432.100739 
L 773.026646 433.757425 
L 773.46395 438.075769 
L 773.901254 438.576558 
L 774.338558 437.460275 
L 774.775862 433.719938 
L 775.213166 434.71157 
L 776.087774 446.26807 
L 776.525078 443.704961 
L 776.962382 445.874625 
L 777.399687 452.61872 
L 778.274295 454.231077 
L 778.711599 454.421618 
L 779.148903 456.246078 
L 780.023511 465.775848 
L 780.460815 468.792427 
L 780.898119 473.792556 
L 781.335423 477.493739 
L 781.772727 476.202726 
L 782.210031 473.806355 
L 782.647335 467.820689 
L 783.084639 470.951225 
L 783.521944 470.402196 
L 783.959248 472.806904 
L 784.396552 472.565537 
L 784.833856 474.146213 
L 785.27116 476.820749 
L 785.708464 480.875302 
L 786.145768 479.495285 
L 786.583072 482.15079 
L 787.45768 490.102011 
L 787.894984 489.17604 
L 788.332288 492.059286 
L 788.769592 499.225285 
L 789.206897 498.978053 
L 789.644201 501.741363 
L 790.081505 498.381763 
L 790.956113 510.621372 
L 791.393417 513.036486 
L 791.830721 506.260884 
L 792.268025 513.935089 
L 792.705329 517.537264 
L 793.142633 516.644525 
L 793.579937 518.118777 
L 794.017241 518.151895 
L 794.454545 520.232958 
L 794.89185 519.531739 
L 795.329154 519.988888 
L 796.641066 528.281462 
L 797.07837 529.018617 
L 797.515674 526.547904 
L 797.952978 528.875337 
L 798.390282 529.727426 
L 798.827586 530.276857 
L 799.26489 532.326758 
L 799.702194 532.78362 
L 800.139498 532.67524 
L 800.576803 530.501033 
L 801.014107 524.296078 
L 801.451411 522.217544 
L 801.888715 521.516842 
L 802.326019 522.425392 
L 802.763323 526.409799 
L 803.200627 533.306487 
L 803.637931 532.301977 
L 804.075235 534.200146 
L 804.512539 537.240528 
L 804.949843 541.881308 
L 805.387147 542.771517 
L 805.824451 539.72458 
L 806.69906 539.937488 
L 807.136364 541.261905 
L 807.573668 539.176702 
L 808.010972 540.322825 
L 808.448276 539.35034 
L 808.88558 541.236435 
L 809.322884 543.935694 
L 809.760188 545.306568 
L 810.197492 548.158709 
L 810.634796 549.853573 
L 811.0721 552.057505 
L 811.509404 553.436659 
L 811.946708 555.26957 
L 812.384013 556.460971 
L 812.821317 552.591239 
L 813.258621 550.570949 
L 813.695925 550.449747 
L 814.133229 552.88786 
L 814.570533 553.706544 
L 815.007837 555.530889 
L 815.445141 556.143105 
L 816.319749 558.091324 
L 816.757053 562.903586 
L 817.194357 562.768039 
L 817.631661 562.14395 
L 818.068966 556.632797 
L 818.50627 557.154687 
L 818.943574 555.851428 
L 819.818182 548.834228 
L 820.255486 551.135098 
L 820.69279 549.811486 
L 821.130094 552.029504 
L 821.567398 551.261014 
L 822.004702 549.738121 
L 822.442006 549.023505 
L 822.87931 544.695214 
L 823.316614 538.640668 
L 823.753918 542.447585 
L 824.628527 536.710244 
L 825.065831 535.412849 
L 825.503135 535.202242 
L 826.377743 528.83739 
L 826.815047 530.386731 
L 827.252351 530.09885 
L 827.689655 524.193562 
L 828.126959 523.986347 
L 829.001567 517.601602 
L 829.438871 513.243816 
L 829.876176 515.100531 
L 830.31348 517.634317 
L 830.750784 517.056253 
L 831.188088 514.784936 
L 831.625392 514.036397 
L 832.062696 506.034638 
L 832.5 508.337578 
L 832.937304 507.141548 
L 833.811912 502.071101 
L 834.249216 497.523407 
L 834.68652 497.207065 
L 835.123824 494.404083 
L 835.561129 495.721314 
L 835.998433 491.477887 
L 836.435737 490.800011 
L 836.873041 487.519928 
L 837.747649 484.987695 
L 838.184953 480.603404 
L 838.622257 478.817581 
L 839.059561 475.204713 
L 839.496865 475.419115 
L 839.934169 472.580543 
L 840.371473 473.146188 
L 840.808777 470.614126 
L 841.246082 470.151572 
L 841.683386 466.645473 
L 842.12069 465.484286 
L 842.557994 459.613266 
L 842.995298 457.898394 
L 843.432602 453.194944 
L 843.869906 450.301981 
L 844.30721 442.204376 
L 844.744514 440.353583 
L 845.181818 435.660367 
L 845.619122 429.592884 
L 846.056426 428.14048 
L 846.49373 429.871854 
L 846.931034 427.711618 
L 847.368339 423.698176 
L 847.805643 421.897347 
L 848.242947 422.124111 
L 849.117555 417.600795 
L 849.554859 418.08031 
L 849.992163 416.402465 
L 850.429467 415.967049 
L 850.866771 416.499346 
L 851.304075 416.068989 
L 851.741379 423.305766 
L 852.178683 427.071804 
L 852.615987 427.969372 
L 853.053292 431.84241 
L 853.490596 431.521008 
L 853.9279 426.146753 
L 854.365204 426.04901 
L 854.802508 420.610129 
L 855.239812 421.351136 
L 856.11442 406.598555 
L 856.551724 407.008961 
L 856.989028 409.599093 
L 857.426332 410.471938 
L 857.863636 414.022366 
L 858.30094 412.550816 
L 858.738245 417.76897 
L 859.175549 418.891002 
L 859.612853 420.749384 
L 860.050157 421.466473 
L 860.487461 421.434678 
L 860.924765 419.464294 
L 861.362069 421.951566 
L 861.799373 421.95513 
L 862.236677 423.318645 
L 863.111285 429.966837 
L 863.548589 437.53203 
L 863.985893 437.216205 
L 864.423197 438.047653 
L 864.860502 441.984799 
L 865.297806 441.422029 
L 865.73511 439.688183 
L 866.172414 442.011189 
L 866.609718 440.133201 
L 867.047022 440.997997 
L 867.484326 441.607741 
L 867.92163 443.612105 
L 868.358934 440.086457 
L 868.796238 439.783166 
L 869.233542 443.316633 
L 869.670846 439.21367 
L 870.10815 443.380224 
L 870.545455 442.250717 
L 870.982759 442.515543 
L 871.420063 440.60208 
L 871.857367 442.475526 
L 872.294671 450.285479 
L 872.731975 449.431493 
L 873.169279 446.347759 
L 873.606583 449.690052 
L 874.043887 446.454701 
L 874.918495 452.451234 
L 875.355799 457.775871 
L 875.793103 460.08801 
L 876.230408 468.518861 
L 876.667712 468.978023 
L 877.105016 470.599407 
L 877.54232 467.538154 
L 877.979624 469.131997 
L 878.416928 469.980177 
L 878.854232 469.329323 
L 879.72884 472.656093 
L 880.166144 476.160582 
L 880.603448 472.592157 
L 881.040752 472.842149 
L 881.478056 476.440242 
L 881.915361 478.651361 
L 882.352665 477.293826 
L 882.789969 479.723774 
L 883.227273 478.576501 
L 884.101881 473.369502 
L 884.539185 475.426072 
L 884.976489 476.724271 
L 885.413793 477.086898 
L 885.851097 480.57983 
L 886.725705 483.961911 
L 887.163009 480.015566 
L 888.912226 471.066849 
L 889.34953 470.950017 
L 889.786834 471.209151 
L 890.224138 470.157149 
L 890.661442 468.053892 
L 891.098746 468.003583 
L 891.53605 462.024644 
L 893.285266 457.318261 
L 893.722571 454.546269 
L 894.159875 453.359842 
L 895.034483 448.928749 
L 895.471787 451.092722 
L 895.909091 449.926245 
L 896.346395 449.416717 
L 896.783699 448.408986 
L 897.658307 447.101242 
L 898.095611 445.717431 
L 898.532915 443.675235 
L 899.407524 438.014363 
L 899.844828 437.829169 
L 900.282132 438.401195 
L 900.719436 443.335952 
L 901.594044 446.546752 
L 902.031348 447.999846 
L 902.468652 448.642017 
L 902.905956 444.147391 
L 903.34326 442.646231 
L 903.780564 442.015214 
L 904.217868 441.618435 
L 904.655172 442.646231 
L 905.092476 435.074771 
L 905.529781 445.333934 
L 905.967085 451.201561 
L 906.404389 454.624464 
L 906.841693 453.546876 
L 907.278997 451.821137 
L 907.716301 451.53797 
L 908.153605 454.039788 
L 908.590909 451.84632 
L 909.028213 451.426888 
L 909.465517 451.294475 
L 909.902821 453.323849 
L 910.340125 451.239164 
L 910.777429 450.169453 
L 911.214734 450.140072 
L 912.089342 445.516023 
L 912.96395 431.525723 
L 913.838558 440.788367 
L 914.275862 443.028866 
L 914.713166 440.725639 
L 915.15047 449.273322 
L 915.587774 447.037077 
L 916.025078 446.359833 
L 916.462382 440.56695 
L 917.336991 451.523193 
L 917.774295 447.383662 
L 918.211599 445.761071 
L 918.648903 447.602262 
L 919.086207 450.913334 
L 919.523511 449.712935 
L 919.960815 441.759875 
L 920.398119 439.474988 
L 920.835423 434.732728 
L 921.272727 441.031517 
L 921.710031 432.26075 
L 922.147335 418.617264 
L 922.584639 417.650471 
L 923.021944 421.913733 
L 923.459248 418.415109 
L 923.896552 416.005629 
L 924.77116 415.563256 
L 925.208464 411.788766 
L 925.645768 413.943539 
L 926.083072 416.745888 
L 926.95768 412.306401 
L 927.394984 412.336587 
L 927.832288 406.710154 
L 928.269592 406.206203 
L 928.706897 411.24221 
L 929.144201 411.544868 
L 929.581505 413.722697 
L 930.018809 412.667533 
L 930.456113 415.557276 
L 930.893417 417.472004 
L 931.330721 423.865661 
L 931.768025 422.37554 
L 932.205329 416.981909 
L 933.079937 412.136501 
L 933.517241 413.876499 
L 933.954545 410.853365 
L 933.954545 410.853365 
" style="fill:none;stroke:#ff0000;stroke-linecap:square;stroke-width:1.5;"/>
   </g>
   <g id="line2d_32">
    <path clip-path="url(#p060ab95b66)" d="M 173.045455 539.535649 
L 174.357367 554.837718 
L 174.794671 557.005945 
L 175.231975 556.476265 
L 175.669279 553.981375 
L 176.106583 553.922556 
L 176.543887 553.722873 
L 176.981191 550.496434 
L 177.418495 549.240954 
L 177.855799 547.528554 
L 178.293103 548.224082 
L 178.730408 547.464676 
L 179.605016 544.839472 
L 180.04232 542.085534 
L 180.479624 540.322538 
L 180.916928 540.364165 
L 181.791536 541.922648 
L 182.22884 541.437153 
L 182.666144 541.413809 
L 183.103448 543.609922 
L 183.978056 551.864549 
L 184.415361 553.045054 
L 184.852665 553.252557 
L 185.289969 551.32403 
L 186.164577 544.745811 
L 187.039185 542.009582 
L 187.476489 538.655674 
L 187.913793 536.614628 
L 188.351097 535.493401 
L 188.788401 533.336098 
L 189.225705 531.936763 
L 189.663009 530.079013 
L 190.100313 529.782565 
L 190.537618 529.644402 
L 191.412226 526.304351 
L 191.84953 524.630991 
L 192.286834 524.203452 
L 192.724138 523.38862 
L 193.161442 520.962236 
L 194.03605 508.897875 
L 194.910658 494.022885 
L 195.347962 489.275508 
L 196.222571 491.198802 
L 197.097179 497.788003 
L 198.409091 516.461976 
L 198.846395 517.227304 
L 199.283699 515.483281 
L 199.721003 514.382062 
L 200.158307 511.897263 
L 200.595611 508.75977 
L 201.032915 503.7601 
L 202.782132 475.408938 
L 203.219436 464.464194 
L 203.65674 450.62114 
L 204.968652 400.922389 
L 205.84326 370.448593 
L 206.280564 350.948405 
L 207.155172 320.962634 
L 208.029781 290.144956 
L 208.467085 283.375505 
L 208.904389 281.717957 
L 209.778997 287.141888 
L 210.216301 286.215285 
L 210.653605 284.216268 
L 211.090909 283.591518 
L 211.528213 285.493711 
L 211.965517 285.361643 
L 212.402821 282.790657 
L 212.840125 282.868047 
L 213.277429 284.857174 
L 213.714734 284.776968 
L 214.152038 281.717209 
L 215.46395 266.986534 
L 216.338558 258.079329 
L 216.775862 254.925738 
L 217.213166 250.692776 
L 218.525078 232.65511 
L 218.962382 232.534023 
L 219.399687 233.00549 
L 219.836991 231.525546 
L 220.274295 233.973893 
L 221.148903 243.865657 
L 221.586207 247.042535 
L 222.023511 253.788929 
L 222.460815 265.613935 
L 223.772727 313.367256 
L 224.210031 324.025497 
L 225.084639 356.556668 
L 225.959248 375.523812 
L 226.833856 381.04497 
L 227.27116 385.529419 
L 227.708464 385.758195 
L 228.145768 383.86865 
L 229.45768 360.985576 
L 229.894984 358.731967 
L 230.332288 361.056641 
L 231.206897 372.228551 
L 232.518809 396.424888 
L 233.830721 433.676126 
L 234.268025 448.49615 
L 234.705329 456.096243 
L 235.142633 466.06189 
L 236.017241 489.65797 
L 236.454545 498.934586 
L 236.89185 503.988129 
L 237.329154 506.769205 
L 237.766458 506.815144 
L 238.203762 507.859212 
L 238.641066 506.882529 
L 239.07837 502.033212 
L 239.515674 498.446101 
L 241.26489 473.880525 
L 242.139498 459.63385 
L 243.014107 439.744414 
L 244.326019 407.984608 
L 245.200627 392.998709 
L 245.637931 387.584494 
L 246.075235 384.608507 
L 246.512539 383.471066 
L 246.949843 385.694777 
L 247.387147 386.313605 
L 247.824451 384.937268 
L 248.69906 385.464908 
L 250.010972 362.669285 
L 250.448276 360.764677 
L 251.322884 349.339727 
L 252.634796 330.180432 
L 253.0721 329.384516 
L 253.509404 331.726093 
L 253.946708 332.415757 
L 254.384013 332.201699 
L 254.821317 333.187064 
L 255.258621 332.766884 
L 255.695925 331.851722 
L 256.133229 330.180029 
L 256.570533 325.762678 
L 257.882445 306.246505 
L 258.319749 302.852063 
L 258.757053 302.854938 
L 259.194357 303.241368 
L 259.631661 306.382541 
L 260.068966 311.265149 
L 260.943574 318.045868 
L 261.380878 319.033877 
L 261.818182 318.390096 
L 262.255486 316.314437 
L 262.69279 320.182933 
L 263.130094 325.845472 
L 265.753918 370.225912 
L 267.065831 400.267511 
L 267.503135 402.969702 
L 267.940439 399.935012 
L 268.377743 397.821693 
L 268.815047 393.307462 
L 269.252351 394.579098 
L 269.689655 394.022825 
L 270.126959 394.835185 
L 271.001567 383.558115 
L 271.438871 380.320809 
L 271.876176 375.644381 
L 272.750784 363.041916 
L 273.625392 359.079127 
L 274.062696 353.865573 
L 274.937304 339.259549 
L 275.374608 339.332856 
L 276.249216 350.554788 
L 276.68652 357.251161 
L 277.561129 386.608731 
L 277.998433 394.473018 
L 278.435737 400.052246 
L 278.873041 398.489853 
L 279.310345 402.704014 
L 279.747649 404.266809 
L 280.184953 402.951074 
L 280.622257 396.936429 
L 281.059561 392.63108 
L 282.808777 370.679439 
L 283.683386 367.433682 
L 284.12069 371.062132 
L 284.557994 377.289856 
L 285.869906 405.841564 
L 287.181818 426.177456 
L 287.619122 427.569891 
L 288.056426 427.122343 
L 288.49373 427.165982 
L 288.931034 426.651624 
L 289.368339 429.642502 
L 291.117555 459.092986 
L 291.554859 463.584737 
L 291.992163 464.832915 
L 292.429467 462.964529 
L 292.866771 456.912857 
L 293.304075 454.589966 
L 293.741379 453.411473 
L 294.178683 453.254337 
L 294.615987 452.710023 
L 295.053292 454.565933 
L 295.490596 457.617239 
L 295.9279 461.680646 
L 296.802508 467.507106 
L 297.239812 469.916529 
L 297.677116 470.73573 
L 298.11442 470.894591 
L 298.551724 470.200501 
L 298.989028 468.954565 
L 299.426332 466.345747 
L 299.863636 465.203361 
L 301.175549 460.857017 
L 301.612853 461.507641 
L 302.050157 464.732182 
L 302.487461 466.385017 
L 302.924765 466.515992 
L 303.362069 468.534615 
L 303.799373 471.906634 
L 304.236677 473.667158 
L 304.673981 472.039104 
L 305.111285 466.770814 
L 305.985893 448.995789 
L 306.860502 431.425795 
L 307.297806 426.705843 
L 307.73511 425.250392 
L 308.172414 424.828947 
L 308.609718 425.539654 
L 309.047022 425.279772 
L 309.484326 422.161196 
L 309.92163 417.080572 
L 310.358934 410.174914 
L 310.796238 399.76034 
L 312.10815 378.509804 
L 312.545455 373.817622 
L 312.982759 373.440277 
L 313.420063 376.381134 
L 314.294671 391.033959 
L 315.169279 405.160065 
L 317.355799 437.187285 
L 317.793103 441.016453 
L 318.230408 443.554264 
L 318.667712 444.590857 
L 319.105016 446.489141 
L 319.54232 447.41425 
L 319.979624 443.079808 
L 322.166144 399.398173 
L 322.603448 394.564437 
L 323.040752 392.081534 
L 323.478056 391.132795 
L 324.352665 392.532187 
L 324.789969 392.648731 
L 325.227273 391.818203 
L 325.664577 390.139726 
L 326.539185 383.62849 
L 326.976489 382.229845 
L 327.413793 382.514047 
L 327.851097 381.557258 
L 328.288401 384.390943 
L 328.725705 390.808518 
L 329.600313 398.896406 
L 330.037618 402.997185 
L 330.474922 402.043846 
L 331.786834 392.77091 
L 332.224138 394.158286 
L 332.661442 397.024053 
L 333.098746 396.397405 
L 333.53605 392.050544 
L 333.973354 381.487745 
L 334.410658 362.232489 
L 334.847962 351.239449 
L 335.285266 346.423479 
L 335.722571 343.848181 
L 336.159875 342.470924 
L 336.597179 345.365037 
L 337.034483 349.99702 
L 337.909091 368.011975 
L 339.221003 395.045505 
L 339.658307 401.189975 
L 340.532915 415.761386 
L 340.970219 418.571498 
L 341.407524 422.248014 
L 341.844828 423.121779 
L 342.282132 421.144093 
L 342.719436 418.21968 
L 343.15674 410.215908 
L 344.031348 388.585267 
L 345.780564 369.135617 
L 346.217868 372.336816 
L 347.092476 383.58278 
L 347.967085 388.657137 
L 348.404389 389.903878 
L 348.841693 389.940445 
L 349.278997 389.294479 
L 350.153605 386.38559 
L 350.590909 382.216391 
L 351.902821 367.31386 
L 352.340125 364.044759 
L 352.777429 364.779557 
L 353.652038 371.053105 
L 354.526646 376.036273 
L 355.401254 380.425796 
L 355.838558 380.915949 
L 356.275862 380.58667 
L 357.15047 376.593006 
L 357.587774 370.812657 
L 358.462382 351.418433 
L 358.899687 346.702621 
L 359.336991 336.605769 
L 359.774295 319.10408 
L 360.211599 312.285011 
L 360.648903 312.050715 
L 361.523511 324.290151 
L 362.398119 343.960297 
L 362.835423 356.813617 
L 363.272727 356.053349 
L 363.710031 350.820074 
L 364.147335 343.342619 
L 364.584639 340.205874 
L 365.021944 344.161936 
L 365.459248 345.49101 
L 365.896552 342.256694 
L 366.333856 336.022013 
L 366.77116 339.263689 
L 367.208464 347.014536 
L 368.520376 379.866304 
L 368.95768 378.447536 
L 369.394984 375.012847 
L 369.832288 382.461496 
L 371.144201 432.730261 
L 371.581505 439.79685 
L 372.018809 429.047478 
L 372.456113 413.063507 
L 372.893417 410.352116 
L 373.330721 417.184754 
L 373.768025 416.519125 
L 374.205329 413.704759 
L 374.642633 416.833225 
L 375.079937 428.143987 
L 375.517241 434.549029 
L 375.954545 435.537095 
L 376.39185 444.510938 
L 376.829154 455.901447 
L 377.266458 477.822788 
L 377.703762 485.718582 
L 378.141066 488.871657 
L 378.57837 473.17505 
L 379.015674 466.854873 
L 379.452978 481.894071 
L 379.890282 484.130374 
L 380.327586 451.357548 
L 380.76489 440.062941 
L 381.202194 446.979524 
L 381.639498 464.253357 
L 382.076803 469.926131 
L 382.514107 478.31593 
L 382.951411 488.929727 
L 383.826019 522.747771 
L 384.263323 532.966054 
L 384.700627 545.84496 
L 385.575235 579.495058 
L 386.887147 603.89654 
L 387.324451 602.989974 
L 387.761755 593.506603 
L 388.19906 579.753473 
L 388.636364 561.167814 
L 389.073668 537.304234 
L 389.510972 525.396376 
L 389.948276 527.579955 
L 390.38558 527.666544 
L 390.822884 524.689177 
L 391.260188 520.618181 
L 391.697492 519.01784 
L 392.134796 516.993468 
L 393.009404 503.640682 
L 393.446708 503.224584 
L 393.884013 504.368062 
L 395.633229 517.134275 
L 396.070533 515.930657 
L 396.945141 508.805479 
L 397.382445 508.224081 
L 397.819749 510.358156 
L 398.257053 508.678701 
L 398.694357 503.181519 
L 399.131661 499.623387 
L 399.568966 501.980373 
L 401.318182 525.555525 
L 401.755486 528.169805 
L 402.19279 528.013934 
L 402.630094 527.405972 
L 403.504702 517.847109 
L 404.37931 505.278107 
L 404.816614 503.852036 
L 405.253918 507.387458 
L 406.565831 522.430509 
L 407.003135 521.507815 
L 407.440439 523.330779 
L 407.877743 527.309264 
L 408.315047 527.672466 
L 408.752351 527.025465 
L 409.189655 523.089641 
L 409.626959 522.285964 
L 410.064263 520.74151 
L 410.501567 515.924562 
L 411.376176 486.994646 
L 411.81348 483.108959 
L 412.688088 472.010471 
L 413.125392 464.016186 
L 414 455.869135 
L 414.437304 457.570208 
L 414.874608 461.740902 
L 415.311912 463.886131 
L 415.749216 464.781686 
L 416.18652 470.674095 
L 416.623824 481.156514 
L 417.498433 493.989135 
L 418.810345 509.25251 
L 419.247649 508.44268 
L 419.684953 507.277411 
L 420.122257 506.434981 
L 420.559561 508.293593 
L 420.996865 513.387614 
L 422.746082 541.497293 
L 423.183386 544.836654 
L 423.62069 544.210754 
L 424.057994 542.824241 
L 424.495298 538.302822 
L 426.244514 515.789562 
L 426.681818 512.410816 
L 427.556426 509.364339 
L 427.99373 510.567153 
L 428.431034 512.803858 
L 428.868339 513.321723 
L 430.180251 519.648685 
L 430.617555 520.016027 
L 431.054859 522.935265 
L 431.929467 534.973236 
L 432.366771 541.017663 
L 432.804075 545.331579 
L 433.241379 548.053376 
L 433.678683 546.968544 
L 434.115987 542.191499 
L 434.553292 532.872106 
L 435.4279 506.659733 
L 436.302508 477.313662 
L 436.739812 468.566928 
L 437.177116 462.530493 
L 437.61442 460.589489 
L 438.051724 462.135726 
L 438.489028 464.72902 
L 439.363636 467.986909 
L 440.675549 475.936923 
L 441.112853 476.232049 
L 441.550157 478.330764 
L 441.987461 478.187944 
L 442.424765 471.317128 
L 443.299373 451.760824 
L 444.173981 430.621197 
L 445.048589 418.392915 
L 445.923197 411.200698 
L 447.23511 402.502261 
L 447.672414 399.319174 
L 448.984326 385.425409 
L 449.858934 381.680184 
L 450.296238 377.6833 
L 450.733542 375.645589 
L 451.170846 372.583243 
L 451.60815 368.473437 
L 452.045455 363.19336 
L 452.920063 348.146458 
L 453.357367 344.048324 
L 453.794671 342.718961 
L 454.231975 344.806004 
L 454.669279 345.761759 
L 455.106583 343.642633 
L 455.543887 340.565741 
L 456.855799 323.661836 
L 457.293103 324.996603 
L 457.730408 330.525349 
L 458.167712 337.798291 
L 458.605016 347.754796 
L 459.04232 352.086363 
L 459.479624 350.419615 
L 459.916928 345.545114 
L 460.354232 337.992685 
L 460.791536 328.315668 
L 461.22884 323.226477 
L 461.666144 321.619467 
L 462.103448 322.137793 
L 462.978056 327.711961 
L 463.415361 326.497245 
L 463.852665 318.772788 
L 465.164577 277.154163 
L 465.601881 266.135882 
L 466.039185 259.611825 
L 466.476489 259.160712 
L 467.788401 275.724126 
L 469.537618 308.38242 
L 469.974922 313.359609 
L 470.412226 312.81403 
L 471.286834 305.356297 
L 471.724138 303.041282 
L 472.161442 302.625127 
L 472.598746 305.471978 
L 474.347962 322.113932 
L 474.785266 324.417562 
L 475.222571 324.585737 
L 476.097179 322.713039 
L 476.534483 321.154958 
L 476.971787 320.806073 
L 477.409091 322.401296 
L 477.846395 325.42627 
L 479.158307 338.318226 
L 479.595611 339.803 
L 480.032915 338.235145 
L 480.470219 334.763371 
L 480.907524 334.220667 
L 481.344828 335.968312 
L 481.782132 336.824886 
L 482.219436 339.464234 
L 483.968652 360.174252 
L 484.84326 363.503263 
L 485.280564 362.880583 
L 485.717868 359.926617 
L 486.155172 359.560196 
L 486.592476 358.583398 
L 487.467085 357.416404 
L 487.904389 356.295464 
L 488.778997 359.744987 
L 489.653605 366.098397 
L 490.965517 370.940931 
L 491.840125 377.455502 
L 493.152038 388.048946 
L 493.589342 390.08269 
L 494.46395 398.21991 
L 495.338558 406.674795 
L 495.775862 409.07588 
L 496.213166 412.233324 
L 496.65047 417.119037 
L 497.525078 428.789551 
L 498.836991 442.554123 
L 499.274295 445.810632 
L 499.711599 450.145649 
L 500.148903 455.944684 
L 500.586207 460.243421 
L 501.023511 465.787979 
L 501.898119 472.955991 
L 502.335423 478.038915 
L 502.772727 481.430079 
L 503.210031 483.108614 
L 503.647335 486.981422 
L 504.959248 511.217776 
L 505.396552 519.61436 
L 506.27116 539.06355 
L 506.708464 546.289575 
L 507.145768 551.003203 
L 507.583072 554.31922 
L 508.020376 556.352735 
L 508.45768 559.312738 
L 509.332288 569.414592 
L 509.769592 569.926708 
L 510.206897 569.110381 
L 511.081505 566.059391 
L 511.518809 567.661226 
L 511.956113 570.23388 
L 512.393417 574.49832 
L 512.830721 576.232138 
L 513.705329 582.922962 
L 514.142633 587.552358 
L 514.579937 588.115732 
L 515.017241 588.925159 
L 515.454545 590.357784 
L 516.766458 597.530194 
L 518.07837 602.317416 
L 518.515674 601.297612 
L 519.390282 596.56478 
L 519.827586 593.193394 
L 522.014107 571.101004 
L 522.888715 557.36334 
L 524.200627 534.852034 
L 526.387147 498.755429 
L 527.261755 488.186478 
L 528.136364 472.505223 
L 528.573668 467.472896 
L 529.010972 466.235585 
L 529.448276 466.133242 
L 529.88558 464.403134 
L 530.322884 461.670354 
L 530.760188 460.665096 
L 531.197492 457.026584 
L 532.509404 436.413965 
L 533.821317 405.314154 
L 534.258621 386.331256 
L 535.133229 367.037075 
L 535.570533 353.194136 
L 536.007837 349.697524 
L 536.445141 350.163758 
L 536.882445 354.669193 
L 537.319749 360.687632 
L 537.757053 364.839468 
L 538.631661 383.369873 
L 539.068966 384.141755 
L 539.943574 380.143204 
L 540.380878 376.1477 
L 540.818182 376.068126 
L 541.255486 372.365909 
L 541.69279 367.206286 
L 542.130094 364.095413 
L 542.567398 363.216991 
L 543.004702 362.032633 
L 543.442006 362.21501 
L 543.87931 360.201217 
L 544.316614 359.718309 
L 544.753918 361.392992 
L 545.628527 376.002121 
L 546.503135 403.059798 
L 547.377743 431.466617 
L 547.815047 432.935752 
L 548.252351 433.073167 
L 548.689655 434.685409 
L 549.126959 434.928214 
L 549.564263 433.874372 
L 550.001567 434.11321 
L 550.438871 429.252278 
L 550.876176 426.213218 
L 551.31348 431.870123 
L 551.750784 440.179313 
L 552.188088 445.854157 
L 552.625392 448.904083 
L 553.062696 449.436093 
L 553.5 448.453891 
L 553.937304 449.825167 
L 554.811912 465.561963 
L 557.435737 503.429729 
L 557.873041 504.747247 
L 559.184953 501.204293 
L 560.496865 508.823015 
L 560.934169 511.328399 
L 561.371473 516.014831 
L 563.12069 529.029369 
L 563.557994 531.024648 
L 563.995298 530.889763 
L 564.432602 532.213376 
L 565.30721 539.019623 
L 565.744514 540.863344 
L 566.181818 541.769824 
L 567.49373 554.509934 
L 567.931034 559.577046 
L 568.368339 565.9561 
L 568.805643 570.578999 
L 569.242947 577.305183 
L 569.680251 587.512255 
L 570.117555 600.912964 
L 570.554859 607.936489 
L 570.992163 612.011969 
L 571.866771 615.6 
L 572.304075 612.770743 
L 572.741379 606.556415 
L 573.178683 602.1566 
L 574.053292 586.632194 
L 574.9279 570.357984 
L 575.365204 563.820932 
L 575.802508 560.15281 
L 576.239812 559.498737 
L 577.11442 561.733544 
L 577.551724 563.576489 
L 577.989028 567.005055 
L 578.426332 568.5318 
L 578.863636 572.174711 
L 579.738245 581.265787 
L 580.175549 583.248331 
L 580.612853 584.116031 
L 581.050157 582.60478 
L 581.487461 579.144793 
L 582.362069 567.55046 
L 583.673981 548.829226 
L 584.548589 540.012405 
L 586.297806 525.046974 
L 586.73511 523.585888 
L 587.172414 522.647843 
L 587.609718 522.204205 
L 588.047022 521.162264 
L 588.484326 519.699397 
L 589.358934 514.860946 
L 589.796238 511.358239 
L 590.670846 498.411028 
L 591.10815 490.153355 
L 591.545455 479.611025 
L 591.982759 466.219543 
L 594.169279 378.680566 
L 595.918495 320.710342 
L 596.355799 310.760852 
L 596.793103 303.553686 
L 598.105016 269.496977 
L 598.54232 265.485891 
L 599.854232 247.337891 
L 600.291536 244.602237 
L 600.72884 244.153136 
L 601.166144 243.383841 
L 601.603448 235.466428 
L 602.478056 213.305158 
L 603.352665 187.410794 
L 603.789969 172.240218 
L 604.664577 154.620145 
L 605.101881 149.620073 
L 605.539185 145.928492 
L 606.413793 148.881941 
L 606.851097 147.084044 
L 607.288401 143.359346 
L 607.725705 145.981158 
L 608.163009 143.949024 
L 608.600313 141.162773 
L 609.037618 139.095336 
L 609.474922 139.683519 
L 609.912226 138.293959 
L 610.34953 137.685537 
L 610.786834 142.527381 
L 611.224138 143.821383 
L 611.661442 151.177751 
L 612.098746 162.180911 
L 612.53605 181.324683 
L 613.847962 220.67751 
L 614.722571 264.03366 
L 615.159875 274.913491 
L 615.597179 276.308457 
L 616.034483 270.121957 
L 617.783699 183.119647 
L 619.095611 125.479736 
L 619.532915 119.711174 
L 619.970219 124.441131 
L 620.844828 150.108788 
L 621.282132 154.936257 
L 621.719436 144.837393 
L 622.15674 123.450361 
L 622.594044 113.686871 
L 623.031348 111.6 
L 623.905956 116.656245 
L 624.34326 120.386578 
L 628.278997 166.411055 
L 628.716301 167.535042 
L 629.153605 167.982763 
L 629.590909 170.949838 
L 630.465517 180.17557 
L 630.902821 181.429095 
L 631.340125 191.321664 
L 633.089342 256.412581 
L 633.526646 266.431814 
L 634.401254 279.56991 
L 634.838558 282.665834 
L 635.275862 288.043366 
L 635.713166 291.79227 
L 636.15047 297.392312 
L 636.587774 304.946236 
L 637.025078 307.090027 
L 637.462382 306.713947 
L 637.899687 304.133072 
L 638.336991 298.010623 
L 639.648903 259.962262 
L 640.523511 229.784858 
L 640.960815 221.026452 
L 642.272727 183.34779 
L 643.147335 157.456532 
L 643.584639 147.401824 
L 644.021944 142.375821 
L 644.459248 141.712549 
L 646.208464 125.63394 
L 646.645768 124.680026 
L 647.083072 129.291196 
L 647.520376 136.817982 
L 647.95768 149.064835 
L 648.394984 166.231668 
L 650.581505 291.645311 
L 651.456113 320.085649 
L 651.893417 325.707194 
L 653.205329 353.770935 
L 653.642633 356.095149 
L 654.079937 359.561403 
L 654.517241 368.308309 
L 654.954545 371.181091 
L 655.39185 365.75141 
L 656.703762 334.852375 
L 657.57837 317.638912 
L 658.015674 317.099026 
L 658.452978 315.069421 
L 658.890282 308.922881 
L 659.327586 307.636928 
L 659.76489 309.995754 
L 660.202194 316.247799 
L 661.076803 324.062582 
L 661.514107 328.06809 
L 663.263323 368.762009 
L 664.137931 379.284388 
L 664.575235 379.879126 
L 665.449843 370.39265 
L 665.887147 369.763587 
L 666.324451 370.342973 
L 666.761755 371.876216 
L 667.19906 376.023222 
L 667.636364 376.133384 
L 668.073668 372.413458 
L 668.510972 372.338196 
L 669.38558 380.814526 
L 669.822884 383.514878 
L 671.134796 396.982771 
L 672.009404 409.979543 
L 672.446708 416.920848 
L 672.884013 419.76379 
L 673.321317 421.199749 
L 673.758621 424.357251 
L 674.633229 432.912523 
L 675.070533 436.476233 
L 676.382445 443.772518 
L 676.819749 443.680755 
L 677.257053 441.299908 
L 677.694357 434.387293 
L 679.00627 399.040664 
L 679.880878 383.217509 
L 680.318182 372.011274 
L 680.755486 367.962184 
L 681.630094 362.513817 
L 682.067398 365.276494 
L 682.504702 369.325814 
L 683.816614 378.633995 
L 684.253918 381.655288 
L 684.691223 380.493987 
L 685.565831 372.425474 
L 686.003135 370.451698 
L 686.877743 365.136031 
L 687.315047 362.855745 
L 687.752351 362.7089 
L 688.189655 362.302002 
L 688.626959 361.640167 
L 689.501567 358.562987 
L 689.938871 359.131276 
L 690.376176 360.68309 
L 690.81348 361.377468 
L 691.250784 362.895014 
L 691.688088 365.467495 
L 692.125392 369.87283 
L 692.562696 375.512658 
L 693 379.336077 
L 693.437304 382.04764 
L 693.874608 385.697307 
L 694.311912 387.140453 
L 695.623824 398.063291 
L 696.061129 400.824876 
L 696.498433 406.936401 
L 697.373041 424.192065 
L 697.810345 427.753073 
L 698.247649 427.492789 
L 698.684953 423.616186 
L 699.996865 406.477699 
L 700.434169 405.574956 
L 700.871473 408.489422 
L 701.308777 408.608611 
L 701.746082 409.155109 
L 702.62069 406.816407 
L 703.495298 399.768217 
L 703.932602 395.087994 
L 704.369906 398.175581 
L 704.80721 407.421609 
L 705.244514 420.020279 
L 705.681818 425.416383 
L 706.119122 423.031511 
L 706.99373 416.486294 
L 707.431034 414.999911 
L 707.868339 415.766446 
L 708.305643 416.075716 
L 708.742947 420.277631 
L 710.054859 435.958713 
L 710.492163 436.322834 
L 711.366771 424.324536 
L 711.804075 422.44396 
L 712.241379 418.202432 
L 712.678683 419.331881 
L 713.115987 416.907912 
L 713.553292 409.440806 
L 713.990596 403.899756 
L 714.4279 401.601703 
L 714.865204 401.163987 
L 715.302508 403.801725 
L 715.739812 409.633418 
L 716.177116 412.027834 
L 716.61442 412.194802 
L 717.051724 409.266421 
L 717.926332 402.303555 
L 718.363636 403.244475 
L 718.80094 405.813564 
L 719.238245 413.249391 
L 719.675549 415.206436 
L 720.112853 411.697692 
L 720.550157 406.051022 
L 720.987461 404.865457 
L 721.862069 390.693411 
L 722.736677 383.6604 
L 723.173981 376.108488 
L 724.048589 369.612431 
L 724.485893 361.953347 
L 724.923197 356.366012 
L 725.360502 357.011288 
L 725.797806 360.663714 
L 726.23511 366.383979 
L 726.672414 369.605359 
L 727.547022 383.573524 
L 728.42163 400.117102 
L 728.858934 402.082253 
L 729.296238 398.028161 
L 729.733542 402.030737 
L 730.60815 413.159008 
L 731.045455 408.029053 
L 731.482759 406.98004 
L 731.920063 406.899776 
L 732.357367 414.070375 
L 732.794671 417.188607 
L 733.231975 418.779748 
L 733.669279 419.41249 
L 734.106583 416.769232 
L 734.981191 410.311409 
L 735.855799 399.939439 
L 736.293103 399.281571 
L 736.730408 401.806158 
L 737.167712 409.573564 
L 738.04232 430.788683 
L 738.479624 430.601476 
L 738.916928 422.060003 
L 739.354232 417.138643 
L 739.791536 417.691063 
L 740.22884 414.597152 
L 740.666144 402.125433 
L 741.103448 393.222253 
L 741.540752 388.7581 
L 742.415361 377.958418 
L 742.852665 382.9252 
L 743.289969 386.220289 
L 743.727273 384.121919 
L 744.164577 380.499909 
L 744.601881 374.36573 
L 745.039185 370.269954 
L 745.476489 362.433265 
L 745.913793 357.29664 
L 746.351097 355.435153 
L 746.788401 365.167884 
L 747.225705 378.870878 
L 747.663009 383.210437 
L 748.100313 383.009087 
L 748.537618 391.214094 
L 748.974922 408.154279 
L 749.412226 417.663753 
L 749.84953 418.132862 
L 750.724138 389.212605 
L 751.161442 382.602936 
L 752.03605 357.123692 
L 752.473354 353.295444 
L 752.910658 345.113147 
L 753.785266 310.421684 
L 754.222571 302.210639 
L 754.659875 304.778693 
L 755.097179 310.803572 
L 756.409091 353.1835 
L 756.846395 363.842661 
L 757.283699 377.512365 
L 757.721003 385.650332 
L 758.158307 385.317489 
L 759.032915 381.820474 
L 759.470219 379.826172 
L 759.907524 389.507846 
L 760.344828 393.303839 
L 760.782132 394.673564 
L 761.219436 393.345294 
L 761.65674 394.380622 
L 762.094044 391.521927 
L 762.531348 382.453504 
L 762.968652 369.346742 
L 763.405956 366.096787 
L 763.84326 364.845447 
L 764.280564 358.929753 
L 765.155172 339.466304 
L 765.592476 326.931742 
L 766.029781 325.492965 
L 766.467085 335.136864 
L 766.904389 349.108651 
L 767.341693 356.676834 
L 767.778997 359.558873 
L 768.216301 370.4893 
L 768.653605 377.389094 
L 769.090909 375.906735 
L 769.528213 371.770136 
L 770.402821 383.457267 
L 770.840125 384.560843 
L 771.277429 387.895029 
L 772.152038 402.43752 
L 772.589342 403.07814 
L 773.026646 405.919931 
L 773.46395 405.275805 
L 773.901254 400.290164 
L 774.338558 398.064154 
L 774.775862 398.893187 
L 775.213166 403.263736 
L 775.65047 406.476319 
L 776.087774 410.606018 
L 776.525078 411.105657 
L 777.399687 401.01559 
L 777.836991 399.776036 
L 778.274295 402.400551 
L 778.711599 401.101431 
L 779.148903 402.157803 
L 780.023511 417.923749 
L 780.898119 425.261489 
L 781.335423 429.640893 
L 781.772727 432.624239 
L 782.210031 432.496943 
L 782.647335 429.621114 
L 783.084639 424.61811 
L 783.521944 413.729252 
L 783.959248 399.799724 
L 784.396552 391.775139 
L 785.27116 402.163725 
L 785.708464 410.354876 
L 786.583072 420.769508 
L 787.020376 422.283087 
L 787.45768 418.531078 
L 787.894984 417.332979 
L 788.769592 428.998549 
L 790.081505 439.273695 
L 790.518809 441.295136 
L 790.956113 444.354664 
L 791.393417 449.175636 
L 791.830721 451.635253 
L 792.268025 450.775574 
L 792.705329 445.614514 
L 793.142633 442.919107 
L 793.579937 445.833286 
L 794.017241 451.824874 
L 794.454545 453.258074 
L 794.89185 456.836388 
L 795.329154 463.881588 
L 795.766458 468.914376 
L 796.203762 471.570628 
L 796.641066 472.554842 
L 797.07837 474.634583 
L 797.952978 485.984098 
L 799.26489 506.728958 
L 799.702194 508.03101 
L 800.139498 503.228321 
L 800.576803 493.398882 
L 801.451411 479.46855 
L 802.326019 470.310376 
L 802.763323 468.039518 
L 803.200627 468.700146 
L 803.637931 471.47116 
L 804.075235 472.520517 
L 804.512539 475.628227 
L 806.261755 498.945683 
L 806.69906 507.916593 
L 807.136364 513.933595 
L 807.573668 518.351291 
L 808.010972 519.148586 
L 808.448276 524.173094 
L 808.88558 531.14079 
L 809.322884 534.989737 
L 809.760188 533.104907 
L 810.634796 539.472403 
L 811.0721 539.72389 
L 811.509404 539.181014 
L 812.384013 535.944686 
L 813.258621 530.323658 
L 813.695925 529.733751 
L 814.570533 533.12986 
L 815.007837 533.726207 
L 815.445141 531.705285 
L 816.319749 530.245004 
L 816.757053 529.779517 
L 817.194357 529.815165 
L 817.631661 529.020917 
L 818.068966 527.043748 
L 818.50627 521.932882 
L 819.818182 495.150897 
L 820.255486 491.174769 
L 820.69279 492.73745 
L 821.567398 504.158777 
L 822.004702 510.134727 
L 823.316614 533.371285 
L 823.753918 535.355123 
L 824.191223 536.116254 
L 825.065831 536.032195 
L 826.377743 529.78337 
L 826.815047 529.423503 
L 827.252351 530.827782 
L 827.689655 533.001012 
L 828.564263 540.009357 
L 829.438871 547.889801 
L 829.876176 551.475991 
L 830.31348 553.068225 
L 830.750784 550.080854 
L 831.625392 541.954386 
L 832.062696 540.22215 
L 832.5 539.371441 
L 833.374608 540.212203 
L 833.811912 541.16537 
L 834.249216 543.429155 
L 834.68652 547.800222 
L 835.123824 550.355397 
L 835.561129 550.301293 
L 836.873041 536.597609 
L 837.747649 521.426746 
L 838.622257 513.934917 
L 839.059561 513.289583 
L 839.496865 512.363209 
L 840.371473 509.071743 
L 840.808777 504.00739 
L 841.246082 497.057115 
L 841.683386 494.910449 
L 842.995298 484.602127 
L 843.432602 482.539807 
L 844.30721 475.69475 
L 844.744514 475.684803 
L 845.181818 475.121689 
L 845.619122 471.552172 
L 846.056426 469.199613 
L 846.49373 465.904351 
L 847.368339 456.482961 
L 847.805643 456.468069 
L 848.680251 462.230364 
L 849.117555 463.614175 
L 849.554859 463.324856 
L 849.992163 458.810796 
L 850.866771 456.814424 
L 851.304075 454.835416 
L 851.741379 451.567293 
L 852.178683 446.959113 
L 853.053292 441.43738 
L 853.490596 440.87852 
L 853.9279 438.377162 
L 854.365204 436.590592 
L 854.802508 433.669227 
L 855.677116 429.526131 
L 856.989028 418.877376 
L 857.863636 416.544653 
L 858.30094 417.269791 
L 858.738245 417.395017 
L 859.175549 417.842622 
L 859.612853 416.803844 
L 860.050157 414.931721 
L 861.362069 399.287953 
L 861.799373 392.123736 
L 862.673981 373.84338 
L 863.548589 354.837196 
L 863.985893 349.365313 
L 864.423197 348.526851 
L 864.860502 348.283758 
L 865.297806 347.284479 
L 865.73511 347.627442 
L 866.609718 352.2669 
L 867.047022 354.667526 
L 868.358934 366.221496 
L 868.796238 371.404865 
L 869.233542 378.291204 
L 870.982759 431.918477 
L 871.420063 439.929838 
L 871.857367 441.486022 
L 872.294671 440.690969 
L 873.169279 429.137401 
L 873.606583 416.450187 
L 874.043887 399.792595 
L 874.481191 388.263635 
L 874.918495 382.284811 
L 875.355799 380.497149 
L 875.793103 382.653474 
L 876.230408 385.600311 
L 877.979624 415.71401 
L 878.416928 420.108535 
L 878.854232 422.186896 
L 880.166144 431.773587 
L 880.603448 437.460678 
L 881.040752 445.883422 
L 881.478056 457.347871 
L 882.352665 470.393745 
L 882.789969 475.729708 
L 883.227273 477.002666 
L 884.101881 473.417683 
L 885.413793 461.187561 
L 885.851097 457.9878 
L 886.725705 446.581997 
L 887.163009 443.804198 
L 887.600313 439.490167 
L 888.037618 438.696264 
L 888.912226 435.134394 
L 889.34953 432.519424 
L 889.786834 433.866093 
L 890.224138 441.036979 
L 890.661442 444.596492 
L 891.098746 445.538734 
L 891.53605 447.509118 
L 891.973354 446.965207 
L 892.410658 449.123603 
L 892.847962 454.202386 
L 893.722571 470.920867 
L 894.159875 483.561912 
L 894.597179 492.567607 
L 895.034483 498.52326 
L 895.471787 499.398175 
L 895.909091 499.807661 
L 896.346395 498.806025 
L 897.221003 494.33986 
L 897.658307 493.161482 
L 898.095611 492.551048 
L 898.970219 484.761966 
L 899.407524 484.345293 
L 899.844828 484.518873 
L 900.282132 483.554897 
L 900.719436 483.570881 
L 901.15674 481.185779 
L 902.031348 470.329292 
L 902.468652 467.636185 
L 902.905956 466.351439 
L 903.34326 466.401863 
L 903.780564 469.566321 
L 904.217868 473.76881 
L 904.655172 476.854212 
L 905.092476 475.439066 
L 905.529781 471.891512 
L 906.404389 460.536075 
L 906.841693 453.612766 
L 907.278997 448.565548 
L 909.028213 433.513183 
L 909.902821 421.722502 
L 910.340125 417.475914 
L 911.214734 412.041978 
L 912.526646 404.307459 
L 912.96395 402.626394 
L 913.838558 406.177053 
L 915.587774 415.061144 
L 916.025078 415.898112 
L 916.462382 415.011928 
L 917.774295 406.42003 
L 918.211599 407.573225 
L 919.086207 420.567237 
L 919.960815 435.61805 
L 920.398119 440.781755 
L 920.835423 440.865526 
L 921.272727 439.332629 
L 922.584639 432.611245 
L 923.021944 427.547755 
L 923.459248 432.848243 
L 924.333856 451.535037 
L 924.77116 456.887962 
L 925.208464 458.972302 
L 926.083072 461.709854 
L 926.520376 460.273319 
L 927.394984 456.458122 
L 927.832288 455.605861 
L 928.269592 452.735264 
L 929.144201 444.838089 
L 929.581505 439.18038 
L 930.018809 431.693208 
L 930.893417 405.063242 
L 931.330721 400.039022 
L 931.768025 401.635913 
L 932.642633 409.446211 
L 933.079937 419.851241 
L 933.517241 426.995277 
L 933.954545 430.464119 
L 933.954545 430.464119 
" style="fill:none;stroke:#0000ff;stroke-linecap:square;stroke-width:1.5;"/>
   </g>
   <g id="patch_3">
    <path d="M 135 640.8 
L 135 86.4 
" style="fill:none;stroke:#000000;stroke-linecap:square;stroke-linejoin:miter;stroke-width:0.8;"/>
   </g>
   <g id="patch_4">
    <path d="M 972 640.8 
L 972 86.4 
" style="fill:none;stroke:#000000;stroke-linecap:square;stroke-linejoin:miter;stroke-width:0.8;"/>
   </g>
   <g id="patch_5">
    <path d="M 135 640.8 
L 972 640.8 
" style="fill:none;stroke:#000000;stroke-linecap:square;stroke-linejoin:miter;stroke-width:0.8;"/>
   </g>
   <g id="patch_6">
    <path d="M 135 86.4 
L 972 86.4 
" style="fill:none;stroke:#000000;stroke-linecap:square;stroke-linejoin:miter;stroke-width:0.8;"/>
   </g>
   <g id="text_16">
    <!-- Evaluation Preds N:40 -->
    <defs>
     <path d="M 9.8125 72.90625 
L 55.90625 72.90625 
L 55.90625 64.59375 
L 19.671875 64.59375 
L 19.671875 43.015625 
L 54.390625 43.015625 
L 54.390625 34.71875 
L 19.671875 34.71875 
L 19.671875 8.296875 
L 56.78125 8.296875 
L 56.78125 0 
L 9.8125 0 
z
" id="DejaVuSans-69"/>
     <path d="M 2.984375 54.6875 
L 12.5 54.6875 
L 29.59375 8.796875 
L 46.6875 54.6875 
L 56.203125 54.6875 
L 35.6875 0 
L 23.484375 0 
z
" id="DejaVuSans-118"/>
     <path d="M 34.28125 27.484375 
Q 23.390625 27.484375 19.1875 25 
Q 14.984375 22.515625 14.984375 16.5 
Q 14.984375 11.71875 18.140625 8.90625 
Q 21.296875 6.109375 26.703125 6.109375 
Q 34.1875 6.109375 38.703125 11.40625 
Q 43.21875 16.703125 43.21875 25.484375 
L 43.21875 27.484375 
z
M 52.203125 31.203125 
L 52.203125 0 
L 43.21875 0 
L 43.21875 8.296875 
Q 40.140625 3.328125 35.546875 0.953125 
Q 30.953125 -1.421875 24.3125 -1.421875 
Q 15.921875 -1.421875 10.953125 3.296875 
Q 6 8.015625 6 15.921875 
Q 6 25.140625 12.171875 29.828125 
Q 18.359375 34.515625 30.609375 34.515625 
L 43.21875 34.515625 
L 43.21875 35.40625 
Q 43.21875 41.609375 39.140625 45 
Q 35.0625 48.390625 27.6875 48.390625 
Q 23 48.390625 18.546875 47.265625 
Q 14.109375 46.140625 10.015625 43.890625 
L 10.015625 52.203125 
Q 14.9375 54.109375 19.578125 55.046875 
Q 24.21875 56 28.609375 56 
Q 40.484375 56 46.34375 49.84375 
Q 52.203125 43.703125 52.203125 31.203125 
z
" id="DejaVuSans-97"/>
     <path d="M 9.421875 75.984375 
L 18.40625 75.984375 
L 18.40625 0 
L 9.421875 0 
z
" id="DejaVuSans-108"/>
     <path d="M 8.5 21.578125 
L 8.5 54.6875 
L 17.484375 54.6875 
L 17.484375 21.921875 
Q 17.484375 14.15625 20.5 10.265625 
Q 23.53125 6.390625 29.59375 6.390625 
Q 36.859375 6.390625 41.078125 11.03125 
Q 45.3125 15.671875 45.3125 23.6875 
L 45.3125 54.6875 
L 54.296875 54.6875 
L 54.296875 0 
L 45.3125 0 
L 45.3125 8.40625 
Q 42.046875 3.421875 37.71875 1 
Q 33.40625 -1.421875 27.6875 -1.421875 
Q 18.265625 -1.421875 13.375 4.4375 
Q 8.5 10.296875 8.5 21.578125 
z
M 31.109375 56 
z
" id="DejaVuSans-117"/>
     <path d="M 18.3125 70.21875 
L 18.3125 54.6875 
L 36.8125 54.6875 
L 36.8125 47.703125 
L 18.3125 47.703125 
L 18.3125 18.015625 
Q 18.3125 11.328125 20.140625 9.421875 
Q 21.96875 7.515625 27.59375 7.515625 
L 36.8125 7.515625 
L 36.8125 0 
L 27.59375 0 
Q 17.1875 0 13.234375 3.875 
Q 9.28125 7.765625 9.28125 18.015625 
L 9.28125 47.703125 
L 2.6875 47.703125 
L 2.6875 54.6875 
L 9.28125 54.6875 
L 9.28125 70.21875 
z
" id="DejaVuSans-116"/>
     <path d="M 9.421875 54.6875 
L 18.40625 54.6875 
L 18.40625 0 
L 9.421875 0 
z
M 9.421875 75.984375 
L 18.40625 75.984375 
L 18.40625 64.59375 
L 9.421875 64.59375 
z
" id="DejaVuSans-105"/>
     <path d="M 30.609375 48.390625 
Q 23.390625 48.390625 19.1875 42.75 
Q 14.984375 37.109375 14.984375 27.296875 
Q 14.984375 17.484375 19.15625 11.84375 
Q 23.34375 6.203125 30.609375 6.203125 
Q 37.796875 6.203125 41.984375 11.859375 
Q 46.1875 17.53125 46.1875 27.296875 
Q 46.1875 37.015625 41.984375 42.703125 
Q 37.796875 48.390625 30.609375 48.390625 
z
M 30.609375 56 
Q 42.328125 56 49.015625 48.375 
Q 55.71875 40.765625 55.71875 27.296875 
Q 55.71875 13.875 49.015625 6.21875 
Q 42.328125 -1.421875 30.609375 -1.421875 
Q 18.84375 -1.421875 12.171875 6.21875 
Q 5.515625 13.875 5.515625 27.296875 
Q 5.515625 40.765625 12.171875 48.375 
Q 18.84375 56 30.609375 56 
z
" id="DejaVuSans-111"/>
     <path d="M 54.890625 33.015625 
L 54.890625 0 
L 45.90625 0 
L 45.90625 32.71875 
Q 45.90625 40.484375 42.875 44.328125 
Q 39.84375 48.1875 33.796875 48.1875 
Q 26.515625 48.1875 22.3125 43.546875 
Q 18.109375 38.921875 18.109375 30.90625 
L 18.109375 0 
L 9.078125 0 
L 9.078125 54.6875 
L 18.109375 54.6875 
L 18.109375 46.1875 
Q 21.34375 51.125 25.703125 53.5625 
Q 30.078125 56 35.796875 56 
Q 45.21875 56 50.046875 50.171875 
Q 54.890625 44.34375 54.890625 33.015625 
z
" id="DejaVuSans-110"/>
     <path id="DejaVuSans-32"/>
     <path d="M 19.671875 64.796875 
L 19.671875 37.40625 
L 32.078125 37.40625 
Q 38.96875 37.40625 42.71875 40.96875 
Q 46.484375 44.53125 46.484375 51.125 
Q 46.484375 57.671875 42.71875 61.234375 
Q 38.96875 64.796875 32.078125 64.796875 
z
M 9.8125 72.90625 
L 32.078125 72.90625 
Q 44.34375 72.90625 50.609375 67.359375 
Q 56.890625 61.8125 56.890625 51.125 
Q 56.890625 40.328125 50.609375 34.8125 
Q 44.34375 29.296875 32.078125 29.296875 
L 19.671875 29.296875 
L 19.671875 0 
L 9.8125 0 
z
" id="DejaVuSans-80"/>
     <path d="M 41.109375 46.296875 
Q 39.59375 47.171875 37.8125 47.578125 
Q 36.03125 48 33.890625 48 
Q 26.265625 48 22.1875 43.046875 
Q 18.109375 38.09375 18.109375 28.8125 
L 18.109375 0 
L 9.078125 0 
L 9.078125 54.6875 
L 18.109375 54.6875 
L 18.109375 46.1875 
Q 20.953125 51.171875 25.484375 53.578125 
Q 30.03125 56 36.53125 56 
Q 37.453125 56 38.578125 55.875 
Q 39.703125 55.765625 41.0625 55.515625 
z
" id="DejaVuSans-114"/>
     <path d="M 56.203125 29.59375 
L 56.203125 25.203125 
L 14.890625 25.203125 
Q 15.484375 15.921875 20.484375 11.0625 
Q 25.484375 6.203125 34.421875 6.203125 
Q 39.59375 6.203125 44.453125 7.46875 
Q 49.3125 8.734375 54.109375 11.28125 
L 54.109375 2.78125 
Q 49.265625 0.734375 44.1875 -0.34375 
Q 39.109375 -1.421875 33.890625 -1.421875 
Q 20.796875 -1.421875 13.15625 6.1875 
Q 5.515625 13.8125 5.515625 26.8125 
Q 5.515625 40.234375 12.765625 48.109375 
Q 20.015625 56 32.328125 56 
Q 43.359375 56 49.78125 48.890625 
Q 56.203125 41.796875 56.203125 29.59375 
z
M 47.21875 32.234375 
Q 47.125 39.59375 43.09375 43.984375 
Q 39.0625 48.390625 32.421875 48.390625 
Q 24.90625 48.390625 20.390625 44.140625 
Q 15.875 39.890625 15.1875 32.171875 
z
" id="DejaVuSans-101"/>
     <path d="M 45.40625 46.390625 
L 45.40625 75.984375 
L 54.390625 75.984375 
L 54.390625 0 
L 45.40625 0 
L 45.40625 8.203125 
Q 42.578125 3.328125 38.25 0.953125 
Q 33.9375 -1.421875 27.875 -1.421875 
Q 17.96875 -1.421875 11.734375 6.484375 
Q 5.515625 14.40625 5.515625 27.296875 
Q 5.515625 40.1875 11.734375 48.09375 
Q 17.96875 56 27.875 56 
Q 33.9375 56 38.25 53.625 
Q 42.578125 51.265625 45.40625 46.390625 
z
M 14.796875 27.296875 
Q 14.796875 17.390625 18.875 11.75 
Q 22.953125 6.109375 30.078125 6.109375 
Q 37.203125 6.109375 41.296875 11.75 
Q 45.40625 17.390625 45.40625 27.296875 
Q 45.40625 37.203125 41.296875 42.84375 
Q 37.203125 48.484375 30.078125 48.484375 
Q 22.953125 48.484375 18.875 42.84375 
Q 14.796875 37.203125 14.796875 27.296875 
z
" id="DejaVuSans-100"/>
     <path d="M 44.28125 53.078125 
L 44.28125 44.578125 
Q 40.484375 46.53125 36.375 47.5 
Q 32.28125 48.484375 27.875 48.484375 
Q 21.1875 48.484375 17.84375 46.4375 
Q 14.5 44.390625 14.5 40.28125 
Q 14.5 37.15625 16.890625 35.375 
Q 19.28125 33.59375 26.515625 31.984375 
L 29.59375 31.296875 
Q 39.15625 29.25 43.1875 25.515625 
Q 47.21875 21.78125 47.21875 15.09375 
Q 47.21875 7.46875 41.1875 3.015625 
Q 35.15625 -1.421875 24.609375 -1.421875 
Q 20.21875 -1.421875 15.453125 -0.5625 
Q 10.6875 0.296875 5.421875 2 
L 5.421875 11.28125 
Q 10.40625 8.6875 15.234375 7.390625 
Q 20.0625 6.109375 24.8125 6.109375 
Q 31.15625 6.109375 34.5625 8.28125 
Q 37.984375 10.453125 37.984375 14.40625 
Q 37.984375 18.0625 35.515625 20.015625 
Q 33.0625 21.96875 24.703125 23.78125 
L 21.578125 24.515625 
Q 13.234375 26.265625 9.515625 29.90625 
Q 5.8125 33.546875 5.8125 39.890625 
Q 5.8125 47.609375 11.28125 51.796875 
Q 16.75 56 26.8125 56 
Q 31.78125 56 36.171875 55.265625 
Q 40.578125 54.546875 44.28125 53.078125 
z
" id="DejaVuSans-115"/>
     <path d="M 9.8125 72.90625 
L 23.09375 72.90625 
L 55.421875 11.921875 
L 55.421875 72.90625 
L 64.984375 72.90625 
L 64.984375 0 
L 51.703125 0 
L 19.390625 60.984375 
L 19.390625 0 
L 9.8125 0 
z
" id="DejaVuSans-78"/>
     <path d="M 11.71875 12.40625 
L 22.015625 12.40625 
L 22.015625 0 
L 11.71875 0 
z
M 11.71875 51.703125 
L 22.015625 51.703125 
L 22.015625 39.3125 
L 11.71875 39.3125 
z
" id="DejaVuSans-58"/>
     <path d="M 37.796875 64.3125 
L 12.890625 25.390625 
L 37.796875 25.390625 
z
M 35.203125 72.90625 
L 47.609375 72.90625 
L 47.609375 25.390625 
L 58.015625 25.390625 
L 58.015625 17.1875 
L 47.609375 17.1875 
L 47.609375 0 
L 37.796875 0 
L 37.796875 17.1875 
L 4.890625 17.1875 
L 4.890625 26.703125 
z
" id="DejaVuSans-52"/>
    </defs>
    <g transform="translate(374.421656 80.4)scale(0.324 -0.324)">
     <use xlink:href="#DejaVuSans-69"/>
     <use x="63.183594" xlink:href="#DejaVuSans-118"/>
     <use x="122.363281" xlink:href="#DejaVuSans-97"/>
     <use x="183.642578" xlink:href="#DejaVuSans-108"/>
     <use x="211.425781" xlink:href="#DejaVuSans-117"/>
     <use x="274.804688" xlink:href="#DejaVuSans-97"/>
     <use x="336.083984" xlink:href="#DejaVuSans-116"/>
     <use x="375.292969" xlink:href="#DejaVuSans-105"/>
     <use x="403.076172" xlink:href="#DejaVuSans-111"/>
     <use x="464.257812" xlink:href="#DejaVuSans-110"/>
     <use x="527.636719" xlink:href="#DejaVuSans-32"/>
     <use x="559.423828" xlink:href="#DejaVuSans-80"/>
     <use x="619.710938" xlink:href="#DejaVuSans-114"/>
     <use x="660.792969" xlink:href="#DejaVuSans-101"/>
     <use x="722.316406" xlink:href="#DejaVuSans-100"/>
     <use x="785.792969" xlink:href="#DejaVuSans-115"/>
     <use x="837.892578" xlink:href="#DejaVuSans-32"/>
     <use x="869.679688" xlink:href="#DejaVuSans-78"/>
     <use x="944.484375" xlink:href="#DejaVuSans-58"/>
     <use x="978.175781" xlink:href="#DejaVuSans-52"/>
     <use x="1041.798828" xlink:href="#DejaVuSans-48"/>
    </g>
   </g>
   <g id="legend_1">
    <g id="patch_7">
     <path d="M 805.57875 187.261875 
L 953.1 187.261875 
Q 958.5 187.261875 958.5 181.861875 
L 958.5 105.3 
Q 958.5 99.9 953.1 99.9 
L 805.57875 99.9 
Q 800.17875 99.9 800.17875 105.3 
L 800.17875 181.861875 
Q 800.17875 187.261875 805.57875 187.261875 
z
" style="fill:#ffffff;opacity:0.8;stroke:#cccccc;stroke-linejoin:miter;"/>
    </g>
    <g id="line2d_33">
     <path d="M 810.97875 121.765781 
L 864.97875 121.765781 
" style="fill:none;stroke:#ff0000;stroke-linecap:square;stroke-width:1.5;"/>
    </g>
    <g id="line2d_34"/>
    <g id="text_17">
     <!-- Real -->
     <defs>
      <path d="M 44.390625 34.1875 
Q 47.5625 33.109375 50.5625 29.59375 
Q 53.5625 26.078125 56.59375 19.921875 
L 66.609375 0 
L 56 0 
L 46.6875 18.703125 
Q 43.0625 26.03125 39.671875 28.421875 
Q 36.28125 30.8125 30.421875 30.8125 
L 19.671875 30.8125 
L 19.671875 0 
L 9.8125 0 
L 9.8125 72.90625 
L 32.078125 72.90625 
Q 44.578125 72.90625 50.734375 67.671875 
Q 56.890625 62.453125 56.890625 51.90625 
Q 56.890625 45.015625 53.6875 40.46875 
Q 50.484375 35.9375 44.390625 34.1875 
z
M 19.671875 64.796875 
L 19.671875 38.921875 
L 32.078125 38.921875 
Q 39.203125 38.921875 42.84375 42.21875 
Q 46.484375 45.515625 46.484375 51.90625 
Q 46.484375 58.296875 42.84375 61.546875 
Q 39.203125 64.796875 32.078125 64.796875 
z
" id="DejaVuSans-82"/>
     </defs>
     <g transform="translate(886.57875 131.215781)scale(0.27 -0.27)">
      <use xlink:href="#DejaVuSans-82"/>
      <use x="69.419922" xlink:href="#DejaVuSans-101"/>
      <use x="130.943359" xlink:href="#DejaVuSans-97"/>
      <use x="192.222656" xlink:href="#DejaVuSans-108"/>
     </g>
    </g>
    <g id="line2d_35">
     <path d="M 810.97875 161.396719 
L 864.97875 161.396719 
" style="fill:none;stroke:#0000ff;stroke-linecap:square;stroke-width:1.5;"/>
    </g>
    <g id="line2d_36"/>
    <g id="text_18">
     <!-- Pred -->
     <g transform="translate(886.57875 170.846719)scale(0.27 -0.27)">
      <use xlink:href="#DejaVuSans-80"/>
      <use x="60.287109" xlink:href="#DejaVuSans-114"/>
      <use x="101.369141" xlink:href="#DejaVuSans-101"/>
      <use x="162.892578" xlink:href="#DejaVuSans-100"/>
     </g>
    </g>
   </g>
  </g>
 </g>
 <defs>
  <clipPath id="p060ab95b66">
   <rect height="554.4" width="837" x="135" y="86.4"/>
  </clipPath>
 </defs>
</svg>
