<?xml version="1.0" encoding="utf-8" standalone="no"?>
<!DOCTYPE svg PUBLIC "-//W3C//DTD SVG 1.1//EN"
  "http://www.w3.org/Graphics/SVG/1.1/DTD/svg11.dtd">
<!-- Created with matplotlib (https://matplotlib.org/) -->
<svg height="720pt" version="1.1" viewBox="0 0 1080 720" width="1080pt" xmlns="http://www.w3.org/2000/svg" xmlns:xlink="http://www.w3.org/1999/xlink">
 <defs>
  <style type="text/css">
*{stroke-linecap:butt;stroke-linejoin:round;}
  </style>
 </defs>
 <g id="figure_1">
  <g id="patch_1">
   <path d="M 0 720 
L 1080 720 
L 1080 0 
L 0 0 
z
" style="fill:#ffffff;"/>
  </g>
  <g id="axes_1">
   <g id="patch_2">
    <path d="M 135 640.8 
L 972 640.8 
L 972 86.4 
L 135 86.4 
z
" style="fill:#ffffff;"/>
   </g>
   <g id="matplotlib.axis_1">
    <g id="xtick_1">
     <g id="line2d_1">
      <path clip-path="url(#p9862c31ffe)" d="M 173.045455 640.8 
L 173.045455 86.4 
" style="fill:none;stroke:#b0b0b0;stroke-linecap:square;stroke-width:0.8;"/>
     </g>
     <g id="line2d_2">
      <defs>
       <path d="M 0 0 
L 0 3.5 
" id="m43228dc465" style="stroke:#000000;stroke-width:0.8;"/>
      </defs>
      <g>
       <use style="stroke:#000000;stroke-width:0.8;" x="173.045455" xlink:href="#m43228dc465" y="640.8"/>
      </g>
     </g>
     <g id="text_1">
      <!-- 0 -->
      <defs>
       <path d="M 31.78125 66.40625 
Q 24.171875 66.40625 20.328125 58.90625 
Q 16.5 51.421875 16.5 36.375 
Q 16.5 21.390625 20.328125 13.890625 
Q 24.171875 6.390625 31.78125 6.390625 
Q 39.453125 6.390625 43.28125 13.890625 
Q 47.125 21.390625 47.125 36.375 
Q 47.125 51.421875 43.28125 58.90625 
Q 39.453125 66.40625 31.78125 66.40625 
z
M 31.78125 74.21875 
Q 44.046875 74.21875 50.515625 64.515625 
Q 56.984375 54.828125 56.984375 36.375 
Q 56.984375 17.96875 50.515625 8.265625 
Q 44.046875 -1.421875 31.78125 -1.421875 
Q 19.53125 -1.421875 13.0625 8.265625 
Q 6.59375 17.96875 6.59375 36.375 
Q 6.59375 54.828125 13.0625 64.515625 
Q 19.53125 74.21875 31.78125 74.21875 
z
" id="DejaVuSans-48"/>
      </defs>
      <g transform="translate(164.45608 668.315781)scale(0.27 -0.27)">
       <use xlink:href="#DejaVuSans-48"/>
      </g>
     </g>
    </g>
    <g id="xtick_2">
     <g id="line2d_3">
      <path clip-path="url(#p9862c31ffe)" d="M 282.371473 640.8 
L 282.371473 86.4 
" style="fill:none;stroke:#b0b0b0;stroke-linecap:square;stroke-width:0.8;"/>
     </g>
     <g id="line2d_4">
      <g>
       <use style="stroke:#000000;stroke-width:0.8;" x="282.371473" xlink:href="#m43228dc465" y="640.8"/>
      </g>
     </g>
     <g id="text_2">
      <!-- 250 -->
      <defs>
       <path d="M 19.1875 8.296875 
L 53.609375 8.296875 
L 53.609375 0 
L 7.328125 0 
L 7.328125 8.296875 
Q 12.9375 14.109375 22.625 23.890625 
Q 32.328125 33.6875 34.8125 36.53125 
Q 39.546875 41.84375 41.421875 45.53125 
Q 43.3125 49.21875 43.3125 52.78125 
Q 43.3125 58.59375 39.234375 62.25 
Q 35.15625 65.921875 28.609375 65.921875 
Q 23.96875 65.921875 18.8125 64.3125 
Q 13.671875 62.703125 7.8125 59.421875 
L 7.8125 69.390625 
Q 13.765625 71.78125 18.9375 73 
Q 24.125 74.21875 28.421875 74.21875 
Q 39.75 74.21875 46.484375 68.546875 
Q 53.21875 62.890625 53.21875 53.421875 
Q 53.21875 48.921875 51.53125 44.890625 
Q 49.859375 40.875 45.40625 35.40625 
Q 44.1875 33.984375 37.640625 27.21875 
Q 31.109375 20.453125 19.1875 8.296875 
z
" id="DejaVuSans-50"/>
       <path d="M 10.796875 72.90625 
L 49.515625 72.90625 
L 49.515625 64.59375 
L 19.828125 64.59375 
L 19.828125 46.734375 
Q 21.96875 47.46875 24.109375 47.828125 
Q 26.265625 48.1875 28.421875 48.1875 
Q 40.625 48.1875 47.75 41.5 
Q 54.890625 34.8125 54.890625 23.390625 
Q 54.890625 11.625 47.5625 5.09375 
Q 40.234375 -1.421875 26.90625 -1.421875 
Q 22.3125 -1.421875 17.546875 -0.640625 
Q 12.796875 0.140625 7.71875 1.703125 
L 7.71875 11.625 
Q 12.109375 9.234375 16.796875 8.0625 
Q 21.484375 6.890625 26.703125 6.890625 
Q 35.15625 6.890625 40.078125 11.328125 
Q 45.015625 15.765625 45.015625 23.390625 
Q 45.015625 31 40.078125 35.4375 
Q 35.15625 39.890625 26.703125 39.890625 
Q 22.75 39.890625 18.8125 39.015625 
Q 14.890625 38.140625 10.796875 36.28125 
z
" id="DejaVuSans-53"/>
      </defs>
      <g transform="translate(256.603348 668.315781)scale(0.27 -0.27)">
       <use xlink:href="#DejaVuSans-50"/>
       <use x="63.623047" xlink:href="#DejaVuSans-53"/>
       <use x="127.246094" xlink:href="#DejaVuSans-48"/>
      </g>
     </g>
    </g>
    <g id="xtick_3">
     <g id="line2d_5">
      <path clip-path="url(#p9862c31ffe)" d="M 391.697492 640.8 
L 391.697492 86.4 
" style="fill:none;stroke:#b0b0b0;stroke-linecap:square;stroke-width:0.8;"/>
     </g>
     <g id="line2d_6">
      <g>
       <use style="stroke:#000000;stroke-width:0.8;" x="391.697492" xlink:href="#m43228dc465" y="640.8"/>
      </g>
     </g>
     <g id="text_3">
      <!-- 500 -->
      <g transform="translate(365.929367 668.315781)scale(0.27 -0.27)">
       <use xlink:href="#DejaVuSans-53"/>
       <use x="63.623047" xlink:href="#DejaVuSans-48"/>
       <use x="127.246094" xlink:href="#DejaVuSans-48"/>
      </g>
     </g>
    </g>
    <g id="xtick_4">
     <g id="line2d_7">
      <path clip-path="url(#p9862c31ffe)" d="M 501.023511 640.8 
L 501.023511 86.4 
" style="fill:none;stroke:#b0b0b0;stroke-linecap:square;stroke-width:0.8;"/>
     </g>
     <g id="line2d_8">
      <g>
       <use style="stroke:#000000;stroke-width:0.8;" x="501.023511" xlink:href="#m43228dc465" y="640.8"/>
      </g>
     </g>
     <g id="text_4">
      <!-- 750 -->
      <defs>
       <path d="M 8.203125 72.90625 
L 55.078125 72.90625 
L 55.078125 68.703125 
L 28.609375 0 
L 18.3125 0 
L 43.21875 64.59375 
L 8.203125 64.59375 
z
" id="DejaVuSans-55"/>
      </defs>
      <g transform="translate(475.255386 668.315781)scale(0.27 -0.27)">
       <use xlink:href="#DejaVuSans-55"/>
       <use x="63.623047" xlink:href="#DejaVuSans-53"/>
       <use x="127.246094" xlink:href="#DejaVuSans-48"/>
      </g>
     </g>
    </g>
    <g id="xtick_5">
     <g id="line2d_9">
      <path clip-path="url(#p9862c31ffe)" d="M 610.34953 640.8 
L 610.34953 86.4 
" style="fill:none;stroke:#b0b0b0;stroke-linecap:square;stroke-width:0.8;"/>
     </g>
     <g id="line2d_10">
      <g>
       <use style="stroke:#000000;stroke-width:0.8;" x="610.34953" xlink:href="#m43228dc465" y="640.8"/>
      </g>
     </g>
     <g id="text_5">
      <!-- 1000 -->
      <defs>
       <path d="M 12.40625 8.296875 
L 28.515625 8.296875 
L 28.515625 63.921875 
L 10.984375 60.40625 
L 10.984375 69.390625 
L 28.421875 72.90625 
L 38.28125 72.90625 
L 38.28125 8.296875 
L 54.390625 8.296875 
L 54.390625 0 
L 12.40625 0 
z
" id="DejaVuSans-49"/>
      </defs>
      <g transform="translate(575.99203 668.315781)scale(0.27 -0.27)">
       <use xlink:href="#DejaVuSans-49"/>
       <use x="63.623047" xlink:href="#DejaVuSans-48"/>
       <use x="127.246094" xlink:href="#DejaVuSans-48"/>
       <use x="190.869141" xlink:href="#DejaVuSans-48"/>
      </g>
     </g>
    </g>
    <g id="xtick_6">
     <g id="line2d_11">
      <path clip-path="url(#p9862c31ffe)" d="M 719.675549 640.8 
L 719.675549 86.4 
" style="fill:none;stroke:#b0b0b0;stroke-linecap:square;stroke-width:0.8;"/>
     </g>
     <g id="line2d_12">
      <g>
       <use style="stroke:#000000;stroke-width:0.8;" x="719.675549" xlink:href="#m43228dc465" y="640.8"/>
      </g>
     </g>
     <g id="text_6">
      <!-- 1250 -->
      <g transform="translate(685.318049 668.315781)scale(0.27 -0.27)">
       <use xlink:href="#DejaVuSans-49"/>
       <use x="63.623047" xlink:href="#DejaVuSans-50"/>
       <use x="127.246094" xlink:href="#DejaVuSans-53"/>
       <use x="190.869141" xlink:href="#DejaVuSans-48"/>
      </g>
     </g>
    </g>
    <g id="xtick_7">
     <g id="line2d_13">
      <path clip-path="url(#p9862c31ffe)" d="M 829.001567 640.8 
L 829.001567 86.4 
" style="fill:none;stroke:#b0b0b0;stroke-linecap:square;stroke-width:0.8;"/>
     </g>
     <g id="line2d_14">
      <g>
       <use style="stroke:#000000;stroke-width:0.8;" x="829.001567" xlink:href="#m43228dc465" y="640.8"/>
      </g>
     </g>
     <g id="text_7">
      <!-- 1500 -->
      <g transform="translate(794.644067 668.315781)scale(0.27 -0.27)">
       <use xlink:href="#DejaVuSans-49"/>
       <use x="63.623047" xlink:href="#DejaVuSans-53"/>
       <use x="127.246094" xlink:href="#DejaVuSans-48"/>
       <use x="190.869141" xlink:href="#DejaVuSans-48"/>
      </g>
     </g>
    </g>
    <g id="xtick_8">
     <g id="line2d_15">
      <path clip-path="url(#p9862c31ffe)" d="M 938.327586 640.8 
L 938.327586 86.4 
" style="fill:none;stroke:#b0b0b0;stroke-linecap:square;stroke-width:0.8;"/>
     </g>
     <g id="line2d_16">
      <g>
       <use style="stroke:#000000;stroke-width:0.8;" x="938.327586" xlink:href="#m43228dc465" y="640.8"/>
      </g>
     </g>
     <g id="text_8">
      <!-- 1750 -->
      <g transform="translate(903.970086 668.315781)scale(0.27 -0.27)">
       <use xlink:href="#DejaVuSans-49"/>
       <use x="63.623047" xlink:href="#DejaVuSans-55"/>
       <use x="127.246094" xlink:href="#DejaVuSans-53"/>
       <use x="190.869141" xlink:href="#DejaVuSans-48"/>
      </g>
     </g>
    </g>
   </g>
   <g id="matplotlib.axis_2">
    <g id="ytick_1">
     <g id="line2d_17">
      <path clip-path="url(#p9862c31ffe)" d="M 135 576.741262 
L 972 576.741262 
" style="fill:none;stroke:#b0b0b0;stroke-linecap:square;stroke-width:0.8;"/>
     </g>
     <g id="line2d_18">
      <defs>
       <path d="M 0 0 
L -3.5 0 
" id="mf38d2047d1" style="stroke:#000000;stroke-width:0.8;"/>
      </defs>
      <g>
       <use style="stroke:#000000;stroke-width:0.8;" x="135" xlink:href="#mf38d2047d1" y="576.741262"/>
      </g>
     </g>
     <g id="text_9">
      <!-- 80.0 -->
      <defs>
       <path d="M 31.78125 34.625 
Q 24.75 34.625 20.71875 30.859375 
Q 16.703125 27.09375 16.703125 20.515625 
Q 16.703125 13.921875 20.71875 10.15625 
Q 24.75 6.390625 31.78125 6.390625 
Q 38.8125 6.390625 42.859375 10.171875 
Q 46.921875 13.96875 46.921875 20.515625 
Q 46.921875 27.09375 42.890625 30.859375 
Q 38.875 34.625 31.78125 34.625 
z
M 21.921875 38.8125 
Q 15.578125 40.375 12.03125 44.71875 
Q 8.5 49.078125 8.5 55.328125 
Q 8.5 64.0625 14.71875 69.140625 
Q 20.953125 74.21875 31.78125 74.21875 
Q 42.671875 74.21875 48.875 69.140625 
Q 55.078125 64.0625 55.078125 55.328125 
Q 55.078125 49.078125 51.53125 44.71875 
Q 48 40.375 41.703125 38.8125 
Q 48.828125 37.15625 52.796875 32.3125 
Q 56.78125 27.484375 56.78125 20.515625 
Q 56.78125 9.90625 50.3125 4.234375 
Q 43.84375 -1.421875 31.78125 -1.421875 
Q 19.734375 -1.421875 13.25 4.234375 
Q 6.78125 9.90625 6.78125 20.515625 
Q 6.78125 27.484375 10.78125 32.3125 
Q 14.796875 37.15625 21.921875 38.8125 
z
M 18.3125 54.390625 
Q 18.3125 48.734375 21.84375 45.5625 
Q 25.390625 42.390625 31.78125 42.390625 
Q 38.140625 42.390625 41.71875 45.5625 
Q 45.3125 48.734375 45.3125 54.390625 
Q 45.3125 60.0625 41.71875 63.234375 
Q 38.140625 66.40625 31.78125 66.40625 
Q 25.390625 66.40625 21.84375 63.234375 
Q 18.3125 60.0625 18.3125 54.390625 
z
" id="DejaVuSans-56"/>
       <path d="M 10.6875 12.40625 
L 21 12.40625 
L 21 0 
L 10.6875 0 
z
" id="DejaVuSans-46"/>
      </defs>
      <g transform="translate(67.882812 586.999153)scale(0.27 -0.27)">
       <use xlink:href="#DejaVuSans-56"/>
       <use x="63.623047" xlink:href="#DejaVuSans-48"/>
       <use x="127.246094" xlink:href="#DejaVuSans-46"/>
       <use x="159.033203" xlink:href="#DejaVuSans-48"/>
      </g>
     </g>
    </g>
    <g id="ytick_2">
     <g id="line2d_19">
      <path clip-path="url(#p9862c31ffe)" d="M 135 506.819178 
L 972 506.819178 
" style="fill:none;stroke:#b0b0b0;stroke-linecap:square;stroke-width:0.8;"/>
     </g>
     <g id="line2d_20">
      <g>
       <use style="stroke:#000000;stroke-width:0.8;" x="135" xlink:href="#mf38d2047d1" y="506.819178"/>
      </g>
     </g>
     <g id="text_10">
      <!-- 82.5 -->
      <g transform="translate(67.882812 517.077068)scale(0.27 -0.27)">
       <use xlink:href="#DejaVuSans-56"/>
       <use x="63.623047" xlink:href="#DejaVuSans-50"/>
       <use x="127.246094" xlink:href="#DejaVuSans-46"/>
       <use x="159.033203" xlink:href="#DejaVuSans-53"/>
      </g>
     </g>
    </g>
    <g id="ytick_3">
     <g id="line2d_21">
      <path clip-path="url(#p9862c31ffe)" d="M 135 436.897093 
L 972 436.897093 
" style="fill:none;stroke:#b0b0b0;stroke-linecap:square;stroke-width:0.8;"/>
     </g>
     <g id="line2d_22">
      <g>
       <use style="stroke:#000000;stroke-width:0.8;" x="135" xlink:href="#mf38d2047d1" y="436.897093"/>
      </g>
     </g>
     <g id="text_11">
      <!-- 85.0 -->
      <g transform="translate(67.882812 447.154983)scale(0.27 -0.27)">
       <use xlink:href="#DejaVuSans-56"/>
       <use x="63.623047" xlink:href="#DejaVuSans-53"/>
       <use x="127.246094" xlink:href="#DejaVuSans-46"/>
       <use x="159.033203" xlink:href="#DejaVuSans-48"/>
      </g>
     </g>
    </g>
    <g id="ytick_4">
     <g id="line2d_23">
      <path clip-path="url(#p9862c31ffe)" d="M 135 366.975008 
L 972 366.975008 
" style="fill:none;stroke:#b0b0b0;stroke-linecap:square;stroke-width:0.8;"/>
     </g>
     <g id="line2d_24">
      <g>
       <use style="stroke:#000000;stroke-width:0.8;" x="135" xlink:href="#mf38d2047d1" y="366.975008"/>
      </g>
     </g>
     <g id="text_12">
      <!-- 87.5 -->
      <g transform="translate(67.882812 377.232899)scale(0.27 -0.27)">
       <use xlink:href="#DejaVuSans-56"/>
       <use x="63.623047" xlink:href="#DejaVuSans-55"/>
       <use x="127.246094" xlink:href="#DejaVuSans-46"/>
       <use x="159.033203" xlink:href="#DejaVuSans-53"/>
      </g>
     </g>
    </g>
    <g id="ytick_5">
     <g id="line2d_25">
      <path clip-path="url(#p9862c31ffe)" d="M 135 297.052923 
L 972 297.052923 
" style="fill:none;stroke:#b0b0b0;stroke-linecap:square;stroke-width:0.8;"/>
     </g>
     <g id="line2d_26">
      <g>
       <use style="stroke:#000000;stroke-width:0.8;" x="135" xlink:href="#mf38d2047d1" y="297.052923"/>
      </g>
     </g>
     <g id="text_13">
      <!-- 90.0 -->
      <defs>
       <path d="M 10.984375 1.515625 
L 10.984375 10.5 
Q 14.703125 8.734375 18.5 7.8125 
Q 22.3125 6.890625 25.984375 6.890625 
Q 35.75 6.890625 40.890625 13.453125 
Q 46.046875 20.015625 46.78125 33.40625 
Q 43.953125 29.203125 39.59375 26.953125 
Q 35.25 24.703125 29.984375 24.703125 
Q 19.046875 24.703125 12.671875 31.3125 
Q 6.296875 37.9375 6.296875 49.421875 
Q 6.296875 60.640625 12.9375 67.421875 
Q 19.578125 74.21875 30.609375 74.21875 
Q 43.265625 74.21875 49.921875 64.515625 
Q 56.59375 54.828125 56.59375 36.375 
Q 56.59375 19.140625 48.40625 8.859375 
Q 40.234375 -1.421875 26.421875 -1.421875 
Q 22.703125 -1.421875 18.890625 -0.6875 
Q 15.09375 0.046875 10.984375 1.515625 
z
M 30.609375 32.421875 
Q 37.25 32.421875 41.125 36.953125 
Q 45.015625 41.5 45.015625 49.421875 
Q 45.015625 57.28125 41.125 61.84375 
Q 37.25 66.40625 30.609375 66.40625 
Q 23.96875 66.40625 20.09375 61.84375 
Q 16.21875 57.28125 16.21875 49.421875 
Q 16.21875 41.5 20.09375 36.953125 
Q 23.96875 32.421875 30.609375 32.421875 
z
" id="DejaVuSans-57"/>
      </defs>
      <g transform="translate(67.882812 307.310814)scale(0.27 -0.27)">
       <use xlink:href="#DejaVuSans-57"/>
       <use x="63.623047" xlink:href="#DejaVuSans-48"/>
       <use x="127.246094" xlink:href="#DejaVuSans-46"/>
       <use x="159.033203" xlink:href="#DejaVuSans-48"/>
      </g>
     </g>
    </g>
    <g id="ytick_6">
     <g id="line2d_27">
      <path clip-path="url(#p9862c31ffe)" d="M 135 227.130839 
L 972 227.130839 
" style="fill:none;stroke:#b0b0b0;stroke-linecap:square;stroke-width:0.8;"/>
     </g>
     <g id="line2d_28">
      <g>
       <use style="stroke:#000000;stroke-width:0.8;" x="135" xlink:href="#mf38d2047d1" y="227.130839"/>
      </g>
     </g>
     <g id="text_14">
      <!-- 92.5 -->
      <g transform="translate(67.882812 237.388729)scale(0.27 -0.27)">
       <use xlink:href="#DejaVuSans-57"/>
       <use x="63.623047" xlink:href="#DejaVuSans-50"/>
       <use x="127.246094" xlink:href="#DejaVuSans-46"/>
       <use x="159.033203" xlink:href="#DejaVuSans-53"/>
      </g>
     </g>
    </g>
    <g id="ytick_7">
     <g id="line2d_29">
      <path clip-path="url(#p9862c31ffe)" d="M 135 157.208754 
L 972 157.208754 
" style="fill:none;stroke:#b0b0b0;stroke-linecap:square;stroke-width:0.8;"/>
     </g>
     <g id="line2d_30">
      <g>
       <use style="stroke:#000000;stroke-width:0.8;" x="135" xlink:href="#mf38d2047d1" y="157.208754"/>
      </g>
     </g>
     <g id="text_15">
      <!-- 95.0 -->
      <g transform="translate(67.882812 167.466645)scale(0.27 -0.27)">
       <use xlink:href="#DejaVuSans-57"/>
       <use x="63.623047" xlink:href="#DejaVuSans-53"/>
       <use x="127.246094" xlink:href="#DejaVuSans-46"/>
       <use x="159.033203" xlink:href="#DejaVuSans-48"/>
      </g>
     </g>
    </g>
    <g id="ytick_8">
     <g id="line2d_31">
      <path clip-path="url(#p9862c31ffe)" d="M 135 87.286669 
L 972 87.286669 
" style="fill:none;stroke:#b0b0b0;stroke-linecap:square;stroke-width:0.8;"/>
     </g>
     <g id="line2d_32">
      <g>
       <use style="stroke:#000000;stroke-width:0.8;" x="135" xlink:href="#mf38d2047d1" y="87.286669"/>
      </g>
     </g>
     <g id="text_16">
      <!-- 97.5 -->
      <g transform="translate(67.882812 97.54456)scale(0.27 -0.27)">
       <use xlink:href="#DejaVuSans-57"/>
       <use x="63.623047" xlink:href="#DejaVuSans-55"/>
       <use x="127.246094" xlink:href="#DejaVuSans-46"/>
       <use x="159.033203" xlink:href="#DejaVuSans-53"/>
      </g>
     </g>
    </g>
   </g>
   <g id="line2d_33">
    <path clip-path="url(#p9862c31ffe)" d="M 173.045455 460.354322 
L 173.482759 463.351745 
L 173.920063 462.239794 
L 174.357367 461.786777 
L 174.794671 459.258589 
L 175.669279 462.446351 
L 176.106583 459.09919 
L 176.543887 461.741753 
L 176.981191 459.542604 
L 177.418495 462.336458 
L 177.855799 460.722412 
L 178.293103 463.365402 
L 179.167712 460.115757 
L 179.605016 459.253681 
L 180.04232 461.654905 
L 180.479624 461.747088 
L 180.916928 460.704914 
L 181.354232 461.186738 
L 181.791536 460.528871 
L 182.22884 461.649784 
L 182.666144 459.419481 
L 183.103448 459.864816 
L 183.540752 455.864909 
L 184.415361 456.439129 
L 184.852665 455.296024 
L 185.289969 453.398816 
L 185.727273 449.912101 
L 186.164577 451.246825 
L 187.476489 439.677716 
L 187.913793 439.160044 
L 188.351097 438.147744 
L 188.788401 436.821981 
L 189.225705 436.772903 
L 189.663009 437.082311 
L 190.100313 437.769625 
L 190.537618 434.273308 
L 190.974922 433.678389 
L 191.412226 431.987525 
L 191.84953 433.865315 
L 192.286834 431.377456 
L 192.724138 430.92636 
L 193.161442 429.612333 
L 193.598746 430.88603 
L 194.910658 427.606725 
L 195.347962 426.028101 
L 195.785266 426.482611 
L 196.222571 421.687418 
L 196.659875 425.704609 
L 197.534483 421.569629 
L 197.971787 421.096981 
L 198.409091 422.77995 
L 198.846395 422.475663 
L 199.283699 420.581869 
L 199.721003 421.201326 
L 200.158307 419.695253 
L 200.595611 421.025497 
L 201.032915 421.200686 
L 201.470219 419.648735 
L 201.907524 420.172809 
L 202.344828 418.349645 
L 202.782132 415.999207 
L 203.219436 415.519516 
L 203.65674 413.288147 
L 204.094044 413.68547 
L 204.531348 411.290647 
L 204.968652 410.50731 
L 205.405956 405.675841 
L 206.280564 401.488582 
L 207.155172 390.626418 
L 207.592476 386.492932 
L 208.029781 385.502397 
L 208.467085 385.161194 
L 208.904389 385.251243 
L 209.341693 386.147461 
L 209.778997 387.511846 
L 210.653605 386.948083 
L 211.528213 379.429879 
L 211.965517 379.532518 
L 212.402821 379.414729 
L 212.840125 380.299211 
L 213.277429 381.915178 
L 213.714734 385.563212 
L 214.152038 390.628978 
L 215.026646 395.219963 
L 215.901254 395.966171 
L 216.338558 396.92235 
L 216.775862 399.46825 
L 217.65047 403.328389 
L 218.087774 405.837587 
L 218.525078 404.734385 
L 218.962382 402.523927 
L 219.836991 410.134312 
L 220.274295 408.951305 
L 221.148903 407.324669 
L 221.586207 409.467484 
L 222.023511 408.372604 
L 222.460815 410.683353 
L 222.898119 409.038152 
L 223.335423 408.04271 
L 223.772727 403.421852 
L 224.210031 400.899425 
L 224.647335 403.683249 
L 225.084639 399.934497 
L 225.521944 400.642936 
L 225.959248 400.33182 
L 226.396552 403.531959 
L 226.833856 402.545265 
L 227.27116 404.807363 
L 227.708464 405.788508 
L 228.583072 410.271092 
L 229.020376 409.651635 
L 229.45768 412.795654 
L 229.894984 397.689897 
L 230.332288 409.725466 
L 230.769592 410.079472 
L 231.206897 404.205189 
L 231.644201 405.425967 
L 232.081505 405.944279 
L 232.518809 405.022242 
L 232.956113 404.487071 
L 233.393417 419.483148 
L 233.830721 390.809716 
L 234.268025 407.643466 
L 234.705329 414.228536 
L 235.142633 413.00029 
L 235.579937 411.250317 
L 236.017241 412.053073 
L 236.454545 410.303527 
L 236.89185 410.109133 
L 237.329154 406.01619 
L 237.766458 405.470777 
L 238.203762 404.304627 
L 238.641066 402.672656 
L 239.07837 402.790872 
L 239.515674 399.430054 
L 239.952978 399.363691 
L 240.390282 396.519906 
L 240.827586 395.679594 
L 241.26489 390.687659 
L 241.702194 391.883684 
L 242.139498 391.419144 
L 242.576803 391.491055 
L 243.014107 387.027249 
L 243.451411 386.410352 
L 244.326019 383.942551 
L 244.763323 383.250543 
L 245.200627 378.994787 
L 245.637931 376.632825 
L 246.075235 377.073466 
L 246.512539 374.731136 
L 246.949843 369.09371 
L 247.387147 370.33988 
L 247.824451 358.238588 
L 248.261755 359.738687 
L 248.69906 354.14906 
L 249.136364 355.248847 
L 249.573668 360.179754 
L 250.010972 358.856766 
L 250.448276 361.221714 
L 250.88558 360.512849 
L 251.322884 362.375915 
L 251.760188 361.142975 
L 252.197492 362.114732 
L 252.634796 360.560434 
L 253.0721 362.340707 
L 253.509404 360.957544 
L 253.946708 360.670114 
L 254.384013 363.032288 
L 255.258621 365.733959 
L 255.695925 362.228253 
L 256.133229 363.884336 
L 256.570533 364.184996 
L 257.007837 361.058261 
L 257.445141 360.302451 
L 257.882445 361.718902 
L 258.319749 360.618261 
L 258.757053 360.597989 
L 259.194357 358.241576 
L 259.631661 353.965975 
L 260.068966 356.969159 
L 260.50627 353.059301 
L 260.943574 355.163707 
L 261.380878 353.987527 
L 261.818182 355.17651 
L 262.255486 354.043007 
L 262.69279 357.026987 
L 263.130094 358.220451 
L 263.567398 357.396357 
L 264.004702 359.877174 
L 264.442006 359.860957 
L 264.87931 363.205344 
L 265.316614 360.937059 
L 265.753918 364.622862 
L 266.191223 364.742998 
L 266.628527 366.001331 
L 267.065831 366.592835 
L 267.503135 364.94038 
L 267.940439 366.686938 
L 268.377743 365.739081 
L 268.815047 366.728975 
L 269.252351 366.520071 
L 269.689655 369.938716 
L 270.126959 370.085739 
L 270.564263 371.956914 
L 271.001567 372.346555 
L 271.876176 375.647839 
L 272.31348 376.560915 
L 272.750784 379.215 
L 273.188088 380.139385 
L 273.625392 382.142646 
L 274.062696 381.640124 
L 274.5 383.350194 
L 274.937304 384.595937 
L 275.374608 388.370082 
L 275.811912 390.145874 
L 276.249216 393.320834 
L 276.68652 393.411522 
L 277.123824 393.679321 
L 277.561129 397.241361 
L 277.998433 396.33234 
L 278.435737 399.256785 
L 278.873041 400.592363 
L 279.310345 404.519506 
L 279.747649 405.188042 
L 280.184953 408.357027 
L 280.622257 408.083467 
L 281.059561 408.407386 
L 281.496865 407.242302 
L 281.934169 407.162496 
L 282.371473 409.788415 
L 282.808777 408.551847 
L 283.246082 410.485331 
L 283.683386 410.802635 
L 284.12069 412.143121 
L 284.557994 412.099377 
L 284.995298 412.250241 
L 285.432602 413.104849 
L 285.869906 415.106189 
L 286.30721 415.41197 
L 286.744514 412.443995 
L 287.181818 411.321375 
L 287.619122 410.650705 
L 288.056426 410.666069 
L 288.49373 409.574176 
L 288.931034 410.156078 
L 289.368339 412.198815 
L 289.805643 412.819766 
L 290.242947 413.855111 
L 290.680251 416.036122 
L 291.117555 414.180737 
L 291.554859 411.803199 
L 291.992163 413.224131 
L 292.866771 414.837964 
L 293.304075 413.702541 
L 293.741379 415.316374 
L 294.178683 415.757654 
L 294.615987 416.36751 
L 295.053292 416.656006 
L 295.490596 414.949351 
L 295.9279 415.04132 
L 296.365204 415.703241 
L 296.802508 414.589583 
L 297.239812 411.800851 
L 298.11442 414.580835 
L 298.551724 414.967062 
L 298.989028 413.169078 
L 299.863636 416.162446 
L 300.30094 418.150984 
L 300.738245 416.548674 
L 301.175549 417.793563 
L 301.612853 416.524348 
L 302.050157 413.638739 
L 302.487461 415.494977 
L 302.924765 415.114938 
L 303.362069 418.248287 
L 303.799373 418.749529 
L 304.236677 418.879054 
L 304.673981 418.735446 
L 305.111285 419.234127 
L 305.548589 418.605281 
L 305.985893 418.28499 
L 306.423197 418.829762 
L 306.860502 417.512322 
L 307.297806 417.49141 
L 307.73511 416.239265 
L 308.172414 417.057384 
L 308.609718 415.621728 
L 309.047022 413.705528 
L 309.92163 407.350488 
L 310.358934 407.730741 
L 310.796238 407.941139 
L 311.233542 405.924008 
L 311.670846 404.915762 
L 312.545455 403.747265 
L 313.420063 403.325189 
L 313.857367 402.77124 
L 314.294671 399.431121 
L 314.731975 400.04439 
L 315.606583 400.311762 
L 316.043887 401.09766 
L 316.918495 400.403091 
L 317.355799 402.0022 
L 317.793103 402.545265 
L 318.230408 402.735818 
L 318.667712 402.496614 
L 319.105016 398.978104 
L 319.54232 399.403594 
L 319.979624 399.453099 
L 320.416928 399.880724 
L 320.854232 399.198958 
L 321.291536 397.221516 
L 321.72884 397.404601 
L 322.166144 397.253951 
L 322.603448 398.529141 
L 323.040752 396.71686 
L 323.478056 396.221166 
L 323.915361 394.983958 
L 324.352665 395.146131 
L 324.789969 392.846905 
L 325.227273 393.723278 
L 325.664577 392.736371 
L 326.101881 393.502425 
L 326.539185 394.028633 
L 326.976489 395.336898 
L 327.413793 395.790982 
L 327.851097 395.889992 
L 328.288401 398.388947 
L 328.725705 398.40111 
L 329.163009 397.994398 
L 329.600313 398.751489 
L 330.474922 394.914395 
L 330.912226 396.78493 
L 331.34953 396.264057 
L 331.786834 396.984445 
L 332.224138 398.289083 
L 333.098746 397.253738 
L 333.53605 392.434645 
L 333.973354 395.08553 
L 334.410658 396.670769 
L 334.847962 396.536336 
L 335.285266 396.732864 
L 335.722571 397.61884 
L 336.159875 397.158781 
L 336.597179 396.529721 
L 337.034483 396.67525 
L 337.471787 393.938584 
L 337.909091 394.736645 
L 338.346395 394.569991 
L 338.783699 394.854007 
L 339.221003 393.990863 
L 340.095611 388.827367 
L 340.532915 391.019047 
L 341.407524 387.82659 
L 341.844828 389.000209 
L 342.282132 387.866706 
L 342.719436 388.422148 
L 343.15674 385.947092 
L 343.594044 387.377627 
L 344.031348 385.508799 
L 344.468652 386.227694 
L 344.905956 381.996264 
L 345.34326 379.950326 
L 345.780564 376.424988 
L 346.217868 371.629581 
L 347.529781 364.267362 
L 348.404389 362.310406 
L 348.841693 360.264255 
L 349.278997 355.016258 
L 349.716301 351.859222 
L 350.153605 351.633034 
L 351.028213 346.394639 
L 351.902821 329.146494 
L 352.340125 325.336927 
L 352.777429 323.602745 
L 353.214734 320.417757 
L 353.652038 318.738201 
L 354.089342 319.795312 
L 354.96395 317.908773 
L 355.401254 317.707977 
L 355.838558 316.234339 
L 356.275862 316.956861 
L 356.713166 316.350633 
L 357.15047 318.335757 
L 357.587774 313.650243 
L 358.025078 318.072653 
L 358.462382 316.079207 
L 358.899687 318.067318 
L 359.336991 315.688926 
L 359.774295 320.456593 
L 360.211599 316.707414 
L 360.648903 316.860624 
L 361.086207 317.480935 
L 361.523511 315.101476 
L 361.960815 314.254337 
L 362.398119 314.250922 
L 362.835423 315.499013 
L 363.272727 315.262795 
L 363.710031 315.428169 
L 364.147335 314.136761 
L 364.584639 320.50119 
L 365.021944 319.334613 
L 365.459248 319.821131 
L 365.896552 324.488721 
L 366.333856 327.400149 
L 366.77116 331.127563 
L 367.208464 332.620193 
L 368.083072 339.541985 
L 368.520376 344.751146 
L 368.95768 342.153394 
L 369.394984 344.322241 
L 369.832288 348.003351 
L 370.269592 346.097607 
L 370.706897 351.119416 
L 371.144201 341.916749 
L 371.581505 344.843542 
L 372.018809 342.653355 
L 372.456113 371.110415 
L 372.893417 366.441758 
L 373.330721 389.386863 
L 373.768025 380.147067 
L 374.205329 385.414909 
L 374.642633 388.96372 
L 375.079937 391.529251 
L 375.517241 399.35793 
L 376.39185 406.620711 
L 376.829154 398.548986 
L 377.266458 397.66045 
L 377.703762 393.973152 
L 378.141066 395.202892 
L 379.015674 437.818917 
L 379.452978 446.999605 
L 379.890282 447.486337 
L 380.327586 443.956518 
L 380.76489 460.667358 
L 381.202194 470.777552 
L 381.639498 468.574563 
L 382.076803 473.13738 
L 382.514107 484.302124 
L 383.388715 481.607922 
L 383.826019 484.365286 
L 384.263323 486.291301 
L 384.700627 486.589401 
L 385.137931 489.17563 
L 385.575235 498.077423 
L 386.449843 501.821695 
L 386.887147 502.07797 
L 387.324451 508.983118 
L 387.761755 506.688586 
L 388.19906 507.500944 
L 388.636364 511.863179 
L 389.073668 512.243218 
L 389.510972 514.021357 
L 390.38558 520.960219 
L 390.822884 519.363671 
L 391.260188 520.341402 
L 392.134796 525.296421 
L 392.5721 526.31747 
L 393.009404 524.926625 
L 393.446708 522.404624 
L 393.884013 525.735355 
L 394.758621 524.471687 
L 395.195925 525.033317 
L 395.633229 522.634013 
L 396.070533 517.18138 
L 396.507837 517.478625 
L 396.945141 519.308191 
L 397.382445 520.586368 
L 397.819749 523.452773 
L 398.257053 521.063284 
L 398.694357 516.588382 
L 399.131661 516.737752 
L 399.568966 514.490591 
L 400.00627 515.625374 
L 400.443574 516.050864 
L 400.880878 518.491352 
L 401.318182 522.366642 
L 401.755486 522.826914 
L 402.19279 524.686566 
L 402.630094 527.67332 
L 403.067398 527.73072 
L 404.37931 538.391875 
L 405.253918 542.608795 
L 405.691223 536.459672 
L 406.128527 525.606684 
L 406.565831 524.459738 
L 407.440439 537.752573 
L 407.877743 537.696666 
L 408.315047 534.787585 
L 408.752351 542.187146 
L 409.189655 543.892734 
L 409.626959 541.044254 
L 410.064263 544.235644 
L 410.938871 552.490027 
L 411.376176 544.495121 
L 411.81348 547.699527 
L 412.250784 552.976332 
L 414 561.925496 
L 414.437304 562.192015 
L 415.311912 565.08872 
L 415.749216 568.152505 
L 416.623824 571.450801 
L 417.061129 571.946922 
L 417.498433 573.570144 
L 417.935737 573.953597 
L 418.373041 575.204248 
L 418.810345 577.015462 
L 419.247649 576.0452 
L 419.684953 577.478935 
L 420.122257 577.557888 
L 420.559561 580.478919 
L 421.434169 580.752905 
L 421.871473 580.692304 
L 422.308777 581.804468 
L 422.746082 578.765222 
L 423.183386 578.26398 
L 423.62069 580.421731 
L 424.057994 581.249666 
L 424.495298 583.40123 
L 424.932602 583.228601 
L 425.80721 584.943792 
L 426.244514 587.297858 
L 426.681818 588.876483 
L 427.119122 587.812757 
L 427.556426 587.713533 
L 427.99373 583.629339 
L 428.431034 584.720378 
L 428.868339 586.863833 
L 429.305643 592.018367 
L 429.742947 587.599158 
L 430.617555 590.484127 
L 431.054859 588.829538 
L 431.492163 589.137239 
L 431.929467 587.27844 
L 432.366771 584.879776 
L 432.804075 588.256598 
L 433.678683 590.703701 
L 434.115987 592.900929 
L 434.553292 592.7825 
L 434.990596 593.349251 
L 435.4279 591.42665 
L 435.865204 591.385253 
L 436.302508 590.109423 
L 437.177116 598.911565 
L 438.051724 602.242082 
L 438.489028 605.232463 
L 438.926332 603.748582 
L 439.363636 604.380203 
L 439.80094 604.766857 
L 440.238245 602.048969 
L 440.675549 603.7377 
L 441.112853 603.523674 
L 441.550157 604.366973 
L 441.987461 603.557816 
L 442.424765 602.241229 
L 442.862069 602.68507 
L 443.736677 608.365172 
L 444.173981 608.750333 
L 445.485893 612.149987 
L 445.923197 609.636735 
L 446.360502 612.486922 
L 446.797806 611.700598 
L 447.672414 610.850897 
L 448.547022 615.6 
L 448.984326 614.953869 
L 449.42163 613.88609 
L 450.296238 614.991425 
L 450.733542 612.719726 
L 451.170846 612.793344 
L 451.60815 612.324109 
L 452.045455 610.591421 
L 452.482759 611.759279 
L 452.920063 610.540209 
L 453.357367 611.460112 
L 454.231975 610.900189 
L 454.669279 610.549171 
L 455.106583 609.668743 
L 455.543887 607.895938 
L 455.981191 609.660848 
L 456.418495 608.003911 
L 456.855799 608.673087 
L 457.730408 606.889827 
L 458.167712 602.636205 
L 458.605016 600.956649 
L 459.04232 595.853541 
L 459.479624 597.695482 
L 459.916928 601.005728 
L 460.354232 597.593911 
L 460.791536 602.021015 
L 461.666144 591.540598 
L 462.103448 593.292704 
L 462.978056 590.074214 
L 463.415361 582.010171 
L 463.852665 583.674363 
L 464.289969 590.652915 
L 464.727273 590.776465 
L 465.164577 590.497997 
L 465.601881 587.882534 
L 466.039185 588.190022 
L 466.476489 588.239314 
L 466.913793 584.86548 
L 467.351097 587.898538 
L 467.788401 588.165696 
L 468.225705 587.803368 
L 469.100313 584.861639 
L 469.974922 580.436242 
L 470.84953 576.610671 
L 471.724138 578.44237 
L 472.598746 574.912337 
L 473.03605 575.608187 
L 473.473354 574.796682 
L 473.910658 573.386206 
L 474.347962 574.228437 
L 474.785266 569.310334 
L 475.222571 570.260112 
L 475.659875 567.691593 
L 476.097179 569.59755 
L 476.534483 568.65268 
L 476.971787 570.040325 
L 477.409091 566.650273 
L 477.846395 569.400596 
L 478.283699 569.222846 
L 478.721003 567.029245 
L 479.595611 559.235775 
L 480.032915 561.789997 
L 480.470219 562.222742 
L 480.907524 563.564935 
L 481.344828 564.330135 
L 481.782132 568.491148 
L 482.219436 565.813803 
L 482.65674 560.656067 
L 483.094044 558.506638 
L 483.531348 557.760429 
L 483.968652 561.372402 
L 484.405956 557.740584 
L 484.84326 556.825802 
L 485.280564 557.485802 
L 485.717868 556.198022 
L 486.155172 552.343644 
L 486.592476 552.629154 
L 487.029781 548.772215 
L 487.467085 548.273534 
L 487.904389 548.822361 
L 488.341693 546.147149 
L 488.778997 547.610332 
L 489.216301 542.131665 
L 489.653605 541.77894 
L 490.090909 539.358724 
L 490.528213 538.9853 
L 490.965517 538.809684 
L 491.402821 536.440894 
L 491.840125 534.997983 
L 492.277429 531.56312 
L 492.714734 530.729424 
L 493.152038 527.791749 
L 493.589342 529.795436 
L 494.026646 528.421022 
L 494.46395 530.802188 
L 494.901254 527.864086 
L 495.338558 531.206767 
L 495.775862 530.377551 
L 496.213166 533.05575 
L 496.65047 533.211094 
L 497.087774 531.674294 
L 497.525078 535.02935 
L 497.962382 532.639222 
L 498.399687 535.130068 
L 498.836991 531.685816 
L 499.274295 537.671273 
L 499.711599 537.031117 
L 500.148903 540.39919 
L 500.586207 535.842775 
L 501.023511 535.494103 
L 501.460815 538.901226 
L 501.898119 539.16369 
L 502.335423 539.169024 
L 502.772727 538.78109 
L 503.210031 541.959464 
L 503.647335 541.828445 
L 504.084639 537.551777 
L 504.521944 537.808907 
L 504.959248 540.571819 
L 505.396552 535.332144 
L 506.708464 528.017297 
L 507.145768 527.047674 
L 507.583072 524.142007 
L 508.894984 520.176028 
L 509.332288 518.695135 
L 509.769592 516.713426 
L 510.206897 513.003296 
L 510.644201 512.763238 
L 511.518809 507.802884 
L 511.956113 508.253127 
L 512.393417 504.832561 
L 512.830721 508.889868 
L 513.268025 509.271614 
L 513.705329 507.803097 
L 514.142633 503.120997 
L 514.579937 503.438515 
L 515.017241 500.2021 
L 515.454545 499.217968 
L 515.89185 501.423944 
L 516.329154 498.640547 
L 516.766458 497.983961 
L 517.203762 492.496758 
L 517.641066 491.701045 
L 518.07837 489.898153 
L 518.515674 491.143469 
L 518.952978 490.235515 
L 519.390282 489.993749 
L 519.827586 489.119083 
L 520.26489 487.756831 
L 520.702194 487.935648 
L 521.139498 486.708683 
L 521.576803 487.774542 
L 522.014107 487.12265 
L 522.451411 490.61342 
L 522.888715 485.912543 
L 523.326019 488.423234 
L 523.763323 487.243853 
L 524.200627 487.189013 
L 524.637931 484.992852 
L 525.075235 484.190097 
L 525.512539 484.720786 
L 525.949843 482.411317 
L 526.387147 481.977078 
L 526.824451 479.367376 
L 527.261755 482.499659 
L 527.69906 482.103615 
L 528.136364 481.465594 
L 528.573668 477.294978 
L 529.010972 477.906967 
L 529.88558 474.982309 
L 530.322884 475.611795 
L 530.760188 470.814681 
L 531.197492 473.530649 
L 531.634796 469.999123 
L 532.0721 470.95893 
L 532.509404 468.488355 
L 532.946708 469.064709 
L 533.384013 462.734208 
L 533.821317 463.846372 
L 534.258621 467.347384 
L 534.695925 464.190349 
L 535.133229 464.257779 
L 535.570533 460.052809 
L 536.445141 458.38819 
L 536.882445 459.09983 
L 537.319749 458.197637 
L 537.757053 458.869801 
L 538.194357 458.178432 
L 538.631661 457.98852 
L 539.068966 458.138743 
L 539.50627 456.850749 
L 539.943574 457.399363 
L 540.380878 455.508983 
L 540.818182 455.111446 
L 541.255486 456.608984 
L 541.69279 456.524697 
L 542.130094 457.067975 
L 542.567398 460.605903 
L 543.004702 457.670149 
L 543.442006 456.425259 
L 543.87931 458.308597 
L 544.316614 460.871355 
L 544.753918 464.27549 
L 545.191223 464.51 
L 545.628527 466.7546 
L 546.065831 463.391648 
L 546.503135 468.569655 
L 546.940439 469.106746 
L 547.377743 465.899352 
L 547.815047 469.259316 
L 548.252351 471.082266 
L 548.689655 467.614116 
L 549.126959 469.631887 
L 549.564263 469.765679 
L 550.001567 469.56339 
L 550.438871 472.367913 
L 550.876176 471.707272 
L 551.31348 470.148279 
L 551.750784 469.628899 
L 552.188088 472.478233 
L 552.625392 471.793266 
L 553.062696 467.750682 
L 553.5 468.05689 
L 553.937304 469.633167 
L 554.374608 466.834192 
L 554.811912 468.529538 
L 555.249216 471.863043 
L 555.68652 469.266785 
L 556.123824 471.13988 
L 556.561129 472.397787 
L 556.998433 470.069753 
L 557.435737 470.106669 
L 557.873041 468.817609 
L 558.310345 469.927639 
L 558.747649 471.473188 
L 559.184953 474.013326 
L 559.622257 469.584088 
L 560.059561 467.534096 
L 560.496865 473.595091 
L 560.934169 467.657646 
L 561.371473 459.216552 
L 561.808777 464.054423 
L 562.246082 458.851023 
L 562.683386 457.807355 
L 563.12069 453.300018 
L 563.557994 452.78768 
L 563.995298 453.25286 
L 564.432602 455.355559 
L 564.869906 454.242968 
L 565.30721 451.080385 
L 565.744514 453.084713 
L 566.181818 450.385176 
L 566.619122 452.681628 
L 567.056426 449.934506 
L 567.49373 453.493986 
L 567.931034 450.263973 
L 568.368339 454.571154 
L 568.805643 455.627838 
L 569.242947 457.292884 
L 569.680251 458.191022 
L 570.554859 452.086283 
L 570.992163 451.975109 
L 571.429467 454.329176 
L 571.866771 450.013459 
L 572.304075 453.161745 
L 572.741379 450.575942 
L 573.178683 449.017163 
L 573.615987 444.864899 
L 574.490596 440.096805 
L 574.9279 439.441072 
L 575.802508 437.237656 
L 576.239812 438.506231 
L 576.677116 437.468752 
L 577.11442 438.222002 
L 577.551724 434.355248 
L 577.989028 439.992246 
L 578.426332 439.438511 
L 578.863636 439.574438 
L 579.30094 436.451118 
L 579.738245 435.134104 
L 580.175549 435.589681 
L 580.612853 435.77618 
L 581.487461 434.887004 
L 581.924765 435.553192 
L 582.362069 432.581589 
L 582.799373 435.803493 
L 583.236677 434.235325 
L 583.673981 436.659168 
L 584.111285 435.04875 
L 584.548589 436.504251 
L 584.985893 436.63911 
L 585.423197 437.074843 
L 585.860502 437.001652 
L 586.297806 437.167025 
L 586.73511 437.718199 
L 587.172414 435.472533 
L 587.609718 437.900217 
L 588.047022 436.550128 
L 588.484326 441.751821 
L 588.92163 439.717193 
L 589.358934 440.472576 
L 589.796238 438.521595 
L 590.233542 438.405087 
L 590.670846 438.653254 
L 591.10815 436.666423 
L 591.982759 429.341334 
L 592.420063 436.880449 
L 592.857367 432.297787 
L 593.294671 433.647235 
L 593.731975 432.6535 
L 594.169279 434.415422 
L 594.606583 432.54254 
L 595.043887 433.042501 
L 595.481191 432.733946 
L 595.918495 430.877921 
L 596.355799 430.158813 
L 596.793103 428.973244 
L 597.667712 425.607305 
L 598.105016 425.657451 
L 598.54232 421.246137 
L 598.979624 421.678669 
L 599.416928 420.252829 
L 599.854232 423.797371 
L 600.291536 419.728328 
L 600.72884 418.525048 
L 601.603448 417.457695 
L 602.040752 418.187473 
L 602.478056 413.635965 
L 602.915361 416.496608 
L 603.352665 410.447562 
L 603.789969 410.406165 
L 605.101881 400.83669 
L 605.539185 402.931493 
L 606.413793 399.356223 
L 606.851097 399.467183 
L 607.288401 398.239151 
L 607.725705 396.309508 
L 608.163009 393.582017 
L 608.600313 394.900525 
L 609.037618 391.429813 
L 609.474922 389.987969 
L 609.912226 389.061024 
L 610.34953 390.975089 
L 610.786834 386.096462 
L 611.224138 386.81493 
L 611.661442 386.231108 
L 612.098746 389.165369 
L 612.53605 387.819548 
L 612.973354 390.172761 
L 613.410658 391.145157 
L 613.847962 387.529984 
L 614.722571 385.511786 
L 615.159875 388.121275 
L 615.597179 387.673166 
L 616.034483 385.33617 
L 616.471787 385.267887 
L 616.909091 378.449801 
L 617.346395 378.633312 
L 617.783699 380.067688 
L 618.221003 378.374049 
L 618.658307 373.519321 
L 619.095611 371.998097 
L 619.532915 365.831903 
L 619.970219 365.906375 
L 620.407524 364.536441 
L 620.844828 362.409204 
L 621.282132 376.448887 
L 621.719436 355.992068 
L 622.15674 353.4116 
L 622.594044 348.63113 
L 623.031348 347.269305 
L 623.468652 340.704294 
L 623.905956 343.531862 
L 624.34326 341.370696 
L 624.780564 343.394229 
L 625.217868 344.060418 
L 625.655172 344.486121 
L 626.092476 344.333337 
L 626.529781 345.359507 
L 626.967085 345.406879 
L 627.404389 343.582435 
L 627.841693 339.476475 
L 628.278997 337.122622 
L 628.716301 336.876803 
L 629.153605 330.690764 
L 629.590909 335.192766 
L 630.028213 337.186425 
L 630.465517 348.562633 
L 631.340125 356.901303 
L 631.777429 361.008329 
L 632.652038 366.404203 
L 633.089342 364.731262 
L 633.526646 367.646745 
L 633.96395 365.769381 
L 634.401254 368.999608 
L 634.838558 366.658344 
L 635.275862 366.766104 
L 636.15047 366.248431 
L 636.587774 368.317415 
L 637.025078 366.157529 
L 637.462382 367.415435 
L 637.899687 365.043445 
L 638.336991 364.323483 
L 638.774295 362.68255 
L 639.211599 371.182325 
L 639.648903 368.875204 
L 640.523511 356.334338 
L 640.960815 355.601573 
L 641.398119 355.651292 
L 641.835423 352.311813 
L 642.272727 357.20303 
L 642.710031 354.744831 
L 643.147335 356.691972 
L 643.584639 353.349505 
L 644.021944 356.160429 
L 644.459248 354.295869 
L 644.896552 354.137537 
L 645.333856 355.557616 
L 645.77116 354.868595 
L 646.208464 355.042931 
L 646.645768 354.358177 
L 647.083072 358.396494 
L 647.520376 359.156358 
L 647.95768 364.365733 
L 648.394984 364.508274 
L 648.832288 363.233724 
L 649.269592 363.428118 
L 649.706897 360.132596 
L 650.144201 361.966642 
L 650.581505 361.507864 
L 651.018809 361.969843 
L 651.456113 358.446852 
L 651.893417 365.976365 
L 652.330721 366.786589 
L 652.768025 367.835804 
L 653.205329 366.771012 
L 653.642633 368.766591 
L 654.079937 368.368414 
L 654.517241 366.426821 
L 654.954545 363.545053 
L 655.39185 362.6132 
L 655.829154 362.840242 
L 656.266458 360.608018 
L 656.703762 361.886836 
L 657.141066 359.685981 
L 657.57837 366.220478 
L 658.452978 359.672537 
L 658.890282 360.134517 
L 659.327586 361.401172 
L 659.76489 360.316748 
L 660.202194 358.861247 
L 660.639498 358.740471 
L 661.076803 354.504986 
L 661.514107 357.995969 
L 661.951411 357.718569 
L 662.388715 359.847087 
L 662.826019 358.020295 
L 663.263323 358.088365 
L 663.700627 357.456531 
L 664.137931 354.962911 
L 664.575235 354.579885 
L 665.012539 353.686441 
L 665.449843 354.090165 
L 665.887147 351.201142 
L 666.324451 352.954316 
L 666.761755 351.4109 
L 667.19906 350.515749 
L 667.636364 351.610629 
L 668.510972 355.483571 
L 668.948276 355.099905 
L 669.38558 356.720566 
L 669.822884 357.24656 
L 670.260188 358.371314 
L 670.697492 357.593098 
L 671.134796 358.138724 
L 672.009404 356.430362 
L 672.446708 357.675038 
L 673.321317 354.497945 
L 673.758621 356.426521 
L 674.195925 357.115755 
L 674.633229 354.222891 
L 675.070533 355.621845 
L 675.507837 353.266712 
L 676.382445 343.848313 
L 676.819749 344.035238 
L 678.131661 335.00392 
L 678.568966 334.938411 
L 679.00627 332.343219 
L 679.443574 306.455105 
L 679.880878 325.135065 
L 680.318182 325.62265 
L 680.755486 325.711418 
L 681.19279 324.284725 
L 681.630094 323.477701 
L 682.067398 319.526446 
L 682.504702 317.99306 
L 682.942006 314.741922 
L 683.37931 312.671445 
L 683.816614 311.661065 
L 684.253918 305.815163 
L 685.128527 302.886663 
L 685.565831 302.212366 
L 686.440439 296.685474 
L 687.752351 291.8348 
L 688.189655 290.83637 
L 688.626959 285.541642 
L 689.501567 278.752149 
L 689.938871 275.135909 
L 690.376176 273.127527 
L 690.81348 269.929522 
L 691.250784 270.773034 
L 691.688088 266.859975 
L 692.125392 264.541544 
L 692.562696 266.013689 
L 693 262.561542 
L 693.437304 256.921129 
L 693.874608 259.508852 
L 694.311912 259.318513 
L 694.749216 254.835288 
L 695.18652 253.990069 
L 696.061129 256.608733 
L 697.373041 247.530897 
L 697.810345 242.494791 
L 698.247649 240.521831 
L 698.684953 239.377659 
L 699.122257 240.356884 
L 699.559561 240.45056 
L 699.996865 238.523051 
L 700.434169 240.918514 
L 700.871473 239.250695 
L 701.308777 233.819613 
L 701.746082 233.681766 
L 702.183386 233.383027 
L 702.62069 237.207318 
L 703.057994 235.083921 
L 703.495298 234.930284 
L 703.932602 233.491 
L 704.369906 229.742461 
L 704.80721 227.868938 
L 706.556426 218.279191 
L 706.99373 219.894944 
L 707.431034 216.883651 
L 707.868339 215.26235 
L 708.305643 216.241362 
L 708.742947 216.256512 
L 709.180251 213.108439 
L 709.617555 208.651034 
L 710.054859 208.648687 
L 710.492163 210.661977 
L 710.929467 210.795129 
L 711.366771 209.302713 
L 711.804075 210.085837 
L 712.241379 214.130128 
L 712.678683 214.239381 
L 713.115987 211.303626 
L 713.553292 210.386283 
L 713.990596 202.953221 
L 714.865204 202.205305 
L 715.739812 195.719887 
L 716.177116 195.412826 
L 716.61442 197.969394 
L 717.051724 197.712692 
L 717.489028 196.339985 
L 717.926332 199.767379 
L 718.363636 200.327515 
L 718.80094 201.448641 
L 719.238245 202.891126 
L 720.112853 208.901122 
L 720.550157 209.730764 
L 720.987461 210.188048 
L 721.424765 215.844038 
L 721.862069 216.119092 
L 722.299373 212.682095 
L 722.736677 207.023545 
L 723.173981 203.707111 
L 724.048589 204.841894 
L 724.485893 203.420535 
L 724.923197 205.887055 
L 725.360502 212.717944 
L 725.797806 213.758624 
L 726.23511 214.143358 
L 726.672414 219.18053 
L 727.109718 218.625942 
L 727.547022 218.57729 
L 727.984326 214.531719 
L 728.42163 213.745821 
L 728.858934 211.285702 
L 729.296238 207.713633 
L 730.170846 207.534602 
L 730.60815 206.955261 
L 731.045455 205.587675 
L 731.482759 210.689504 
L 732.357367 213.693541 
L 732.794671 208.412896 
L 733.231975 208.247736 
L 734.106583 190.378214 
L 734.543887 191.832434 
L 735.418495 197.997561 
L 736.293103 205.961526 
L 736.730408 206.955902 
L 737.167712 210.41509 
L 737.605016 211.309601 
L 738.04232 206.525717 
L 738.479624 204.848295 
L 738.916928 202.38647 
L 739.354232 204.549343 
L 739.791536 204.124066 
L 740.22884 205.117161 
L 740.666144 204.928315 
L 741.103448 205.959606 
L 741.540752 206.244902 
L 741.978056 208.277183 
L 742.415361 208.327115 
L 742.852665 210.654509 
L 743.289969 208.969405 
L 743.727273 213.96134 
L 744.164577 216.486968 
L 744.601881 208.260539 
L 745.039185 209.041956 
L 745.476489 225.112427 
L 745.913793 224.540982 
L 746.351097 224.200632 
L 746.788401 223.173609 
L 747.225705 226.028917 
L 748.537618 205.928665 
L 748.974922 205.692661 
L 749.412226 196.779345 
L 749.84953 196.250576 
L 750.286834 202.444297 
L 751.161442 188.540966 
L 751.598746 188.058502 
L 752.03605 184.901681 
L 752.473354 177.689259 
L 752.910658 174.495094 
L 753.347962 172.815752 
L 753.785266 173.902524 
L 754.222571 173.157596 
L 754.659875 176.554476 
L 755.097179 177.190364 
L 755.534483 175.112845 
L 755.971787 171.901397 
L 756.409091 173.402135 
L 757.283699 172.39325 
L 758.158307 176.270887 
L 758.595611 160.264004 
L 759.032915 149.234973 
L 759.470219 116.342274 
L 759.907524 111.6 
L 760.344828 147.419918 
L 760.782132 148.255748 
L 761.219436 149.839494 
L 761.65674 147.79953 
L 762.094044 146.915262 
L 762.531348 146.967328 
L 762.968652 143.524357 
L 763.405956 141.229185 
L 763.84326 143.683115 
L 764.280564 142.423929 
L 764.717868 138.007067 
L 765.155172 141.607303 
L 765.592476 140.522666 
L 766.029781 144.98946 
L 766.467085 145.494543 
L 766.904389 146.314156 
L 767.341693 144.171981 
L 767.778997 144.957452 
L 768.216301 147.02985 
L 768.653605 149.867447 
L 769.090909 149.15218 
L 769.528213 147.827911 
L 769.965517 149.976487 
L 770.402821 148.279861 
L 770.840125 148.652005 
L 771.714734 156.958453 
L 772.152038 156.708579 
L 772.589342 156.143108 
L 773.026646 154.57494 
L 773.46395 155.827511 
L 773.901254 155.135503 
L 774.338558 155.849276 
L 774.775862 157.151353 
L 775.65047 160.247147 
L 776.087774 158.087901 
L 776.525078 159.480027 
L 776.962382 160.461172 
L 777.399687 162.319331 
L 777.836991 162.179137 
L 778.274295 163.827965 
L 778.711599 166.117802 
L 779.148903 162.249554 
L 780.023511 167.097454 
L 780.460815 170.282869 
L 780.898119 171.367293 
L 781.335423 173.965259 
L 781.772727 174.792767 
L 782.210031 175.266909 
L 782.647335 176.724544 
L 783.084639 180.634615 
L 783.521944 186.291886 
L 783.959248 187.058152 
L 784.396552 186.779471 
L 784.833856 190.18638 
L 785.27116 192.640524 
L 785.708464 191.713152 
L 786.583072 194.556084 
L 787.020376 195.433311 
L 787.45768 194.096665 
L 788.769592 201.431784 
L 789.206897 203.678091 
L 790.081505 204.816928 
L 790.518809 204.029963 
L 791.393417 200.727826 
L 792.268025 203.957198 
L 792.705329 206.190915 
L 793.142633 207.03208 
L 793.579937 209.395535 
L 794.017241 208.966418 
L 794.454545 208.148512 
L 794.89185 205.396909 
L 795.329154 204.327849 
L 795.766458 201.695101 
L 796.203762 198.313158 
L 796.641066 199.54055 
L 797.07837 199.4441 
L 797.515674 199.80024 
L 797.952978 201.075217 
L 798.390282 197.832188 
L 798.827586 196.418297 
L 799.702194 191.730649 
L 800.576803 195.050071 
L 801.014107 196.679267 
L 801.451411 196.452012 
L 801.888715 194.058256 
L 802.326019 193.925317 
L 802.763323 190.443509 
L 803.200627 189.523606 
L 803.637931 190.467409 
L 804.075235 188.317125 
L 804.512539 188.186107 
L 804.949843 189.43377 
L 805.387147 189.904498 
L 805.824451 191.715499 
L 806.261755 191.10479 
L 806.69906 191.362346 
L 807.136364 189.353324 
L 807.573668 191.446207 
L 808.010972 189.365487 
L 808.448276 196.263166 
L 808.88558 196.809219 
L 809.322884 196.146017 
L 809.760188 195.215231 
L 810.197492 196.431527 
L 811.0721 194.863358 
L 811.509404 198.535292 
L 812.384013 195.044949 
L 812.821317 192.11709 
L 813.258621 190.027622 
L 813.695925 189.136098 
L 814.133229 187.399355 
L 814.570533 188.477804 
L 815.007837 188.895826 
L 815.445141 187.179782 
L 816.319749 191.998661 
L 816.757053 194.887684 
L 818.068966 193.140486 
L 818.50627 195.933272 
L 819.380878 197.485223 
L 819.818182 200.685362 
L 820.255486 203.026412 
L 820.69279 202.477798 
L 821.130094 205.849499 
L 821.567398 204.941331 
L 822.004702 207.195747 
L 822.442006 208.736815 
L 822.87931 208.533886 
L 823.316614 215.139227 
L 823.753918 219.285729 
L 824.191223 217.242352 
L 824.628527 221.267652 
L 825.065831 220.986837 
L 825.503135 221.511978 
L 825.940439 223.113861 
L 826.377743 226.777899 
L 826.815047 225.42589 
L 827.689655 221.004334 
L 828.126959 225.89043 
L 828.564263 225.936948 
L 829.001567 223.353706 
L 829.438871 222.286993 
L 830.31348 227.322459 
L 831.188088 223.362668 
L 831.625392 223.299293 
L 832.062696 220.492423 
L 832.5 221.662414 
L 832.937304 223.385287 
L 833.374608 224.518363 
L 833.811912 224.277664 
L 834.249216 222.49355 
L 834.68652 224.312446 
L 835.561129 224.833106 
L 835.998433 229.268746 
L 836.435737 229.882655 
L 836.873041 228.757901 
L 837.310345 227.287677 
L 837.747649 229.172295 
L 838.184953 227.398637 
L 838.622257 224.90267 
L 839.059561 221.545693 
L 839.496865 222.540921 
L 840.371473 219.434032 
L 840.808777 220.869688 
L 841.246082 217.929666 
L 841.683386 216.479713 
L 842.12069 216.378355 
L 842.557994 218.313333 
L 842.995298 219.466467 
L 843.432602 216.470751 
L 843.869906 212.501785 
L 844.30721 212.716237 
L 844.744514 213.212784 
L 845.181818 211.778409 
L 845.619122 212.123026 
L 846.056426 209.792432 
L 846.49373 210.090958 
L 846.931034 213.841204 
L 847.368339 213.31841 
L 847.805643 211.568011 
L 848.242947 212.339612 
L 848.680251 212.005024 
L 849.117555 208.613478 
L 849.992163 205.175202 
L 850.429467 204.541661 
L 850.866771 199.621423 
L 851.304075 199.961133 
L 851.741379 199.605846 
L 852.178683 203.954424 
L 852.615987 202.170737 
L 853.053292 201.763811 
L 853.490596 200.481366 
L 853.9279 201.991493 
L 854.365204 201.425169 
L 854.802508 200.299988 
L 855.239812 202.766295 
L 855.677116 202.802357 
L 856.11442 202.026275 
L 856.551724 202.735141 
L 856.989028 204.879236 
L 857.426332 203.59551 
L 857.863636 205.442147 
L 858.30094 206.154 
L 858.738245 204.844881 
L 859.175549 204.656249 
L 859.612853 204.710235 
L 860.050157 205.162612 
L 860.487461 206.916852 
L 860.924765 207.40081 
L 861.362069 204.296054 
L 861.799373 208.701393 
L 862.236677 211.42931 
L 862.673981 210.638931 
L 863.111285 213.555695 
L 863.548589 217.539811 
L 863.985893 218.172498 
L 864.860502 222.202066 
L 865.297806 221.804316 
L 865.73511 224.011146 
L 866.172414 224.309885 
L 866.609718 228.882732 
L 867.047022 230.068087 
L 867.484326 231.579068 
L 867.92163 229.336389 
L 868.358934 231.587603 
L 868.796238 235.54398 
L 869.233542 237.496455 
L 869.670846 237.429665 
L 870.10815 241.817506 
L 870.545455 244.611573 
L 871.857367 234.248304 
L 872.294671 232.607158 
L 872.731975 217.941402 
L 873.169279 212.877983 
L 873.606583 213.483997 
L 874.043887 214.614299 
L 874.481191 209.354779 
L 874.918495 209.217785 
L 875.355799 207.606087 
L 875.793103 207.383526 
L 876.230408 209.266437 
L 876.667712 222.525131 
L 877.105016 224.407616 
L 877.54232 225.317277 
L 877.979624 225.509964 
L 878.416928 226.993845 
L 878.854232 227.545873 
L 879.72884 230.087932 
L 880.166144 232.100155 
L 880.603448 236.665319 
L 881.040752 238.117406 
L 881.478056 240.774693 
L 881.915361 244.662572 
L 882.352665 243.521388 
L 882.789969 246.140052 
L 883.227273 252.880679 
L 883.664577 254.503901 
L 884.101881 258.174554 
L 884.539185 259.480259 
L 884.976489 263.514094 
L 885.413793 266.341662 
L 885.851097 266.398422 
L 886.288401 263.460534 
L 886.725705 255.721904 
L 887.163009 259.355002 
L 887.600313 274.928712 
L 888.037618 282.816712 
L 888.474922 282.904627 
L 889.34953 289.211655 
L 890.224138 292.163413 
L 890.661442 295.79395 
L 891.098746 297.427201 
L 891.53605 299.849551 
L 891.973354 304.79134 
L 892.410658 306.838772 
L 892.847962 307.052797 
L 893.285266 310.246535 
L 893.722571 311.550318 
L 894.159875 316.370052 
L 894.597179 316.996764 
L 895.909091 325.071263 
L 896.346395 325.193532 
L 897.221003 333.812377 
L 897.658307 333.673463 
L 898.095611 334.733988 
L 898.532915 337.93434 
L 898.970219 338.60565 
L 899.407524 338.68759 
L 899.844828 344.380922 
L 900.282132 347.668549 
L 900.719436 347.879374 
L 901.15674 347.64657 
L 901.594044 350.660851 
L 902.905956 355.9304 
L 903.34326 360.157776 
L 903.780564 359.129472 
L 904.217868 357.64111 
L 904.655172 360.24377 
L 905.092476 363.696984 
L 905.529781 360.691665 
L 905.967085 362.842162 
L 906.404389 364.041814 
L 906.841693 361.509358 
L 908.153605 363.3242 
L 908.590909 361.017291 
L 909.028213 359.827242 
L 909.465517 359.294632 
L 909.902821 357.447996 
L 910.340125 357.259363 
L 910.777429 354.973794 
L 911.214734 355.567005 
L 911.652038 355.804929 
L 912.089342 356.896608 
L 912.526646 357.280915 
L 913.401254 358.888133 
L 914.275862 362.640727 
L 914.713166 362.39512 
L 915.15047 359.513992 
L 915.587774 358.368967 
L 916.025078 356.671274 
L 916.462382 355.652146 
L 916.899687 357.511158 
L 917.336991 356.567568 
L 917.774295 356.60235 
L 918.211599 355.331641 
L 918.648903 353.063569 
L 919.086207 354.145005 
L 919.523511 352.994859 
L 919.960815 351.09509 
L 920.398119 346.240362 
L 920.835423 346.946667 
L 921.272727 345.38362 
L 921.710031 346.366045 
L 922.147335 332.293714 
L 922.584639 343.829962 
L 923.021944 345.371243 
L 923.459248 346.076482 
L 923.896552 345.465986 
L 924.333856 345.647577 
L 924.77116 345.081039 
L 925.208464 343.162706 
L 926.083072 350.335865 
L 926.520376 349.213459 
L 926.95768 349.741374 
L 927.394984 349.069423 
L 927.832288 345.19392 
L 928.269592 345.20715 
L 929.144201 341.300919 
L 929.581505 338.02823 
L 930.456113 333.862736 
L 930.893417 330.545875 
L 931.330721 328.148918 
L 931.768025 328.623274 
L 932.205329 325.906026 
L 933.079937 321.821832 
L 933.517241 324.809226 
L 933.954545 322.785693 
L 933.954545 322.785693 
" style="fill:none;stroke:#ff0000;stroke-linecap:square;stroke-width:1.5;"/>
   </g>
   <g id="line2d_34">
    <path clip-path="url(#p9862c31ffe)" d="M 173.045455 455.720661 
L 173.482759 456.530885 
L 173.920063 457.944349 
L 174.357367 458.798317 
L 174.794671 459.090014 
L 175.231975 458.427026 
L 175.669279 458.153893 
L 176.106583 458.565727 
L 176.543887 457.976143 
L 176.981191 457.991934 
L 177.418495 457.611468 
L 177.855799 457.909994 
L 178.293103 457.93752 
L 178.730408 458.539907 
L 179.167712 458.732167 
L 179.605016 458.121032 
L 180.04232 457.207529 
L 180.479624 457.144794 
L 180.916928 457.339402 
L 182.22884 456.837946 
L 182.666144 456.975366 
L 183.540752 456.166636 
L 184.415361 453.571444 
L 185.289969 451.985992 
L 185.727273 450.739182 
L 186.164577 448.697512 
L 186.601881 447.362573 
L 187.039185 445.531941 
L 187.913793 439.739811 
L 188.788401 434.910263 
L 189.663009 431.676836 
L 190.100313 430.899473 
L 190.537618 430.613537 
L 191.412226 428.363389 
L 191.84953 427.108044 
L 192.286834 426.744649 
L 193.161442 425.332678 
L 193.598746 424.571746 
L 194.473354 424.115742 
L 195.347962 422.678592 
L 195.785266 421.634925 
L 196.222571 420.974924 
L 196.659875 419.303477 
L 197.534483 418.744621 
L 198.409091 417.040527 
L 198.846395 417.005532 
L 199.283699 417.114571 
L 199.721003 416.612689 
L 200.158307 416.298373 
L 200.595611 415.791796 
L 201.032915 415.772805 
L 201.470219 415.964211 
L 202.344828 415.599536 
L 202.782132 415.0665 
L 205.405956 407.936231 
L 206.717868 400.301519 
L 207.592476 392.291463 
L 208.467085 384.166606 
L 208.904389 381.812539 
L 209.341693 380.520705 
L 209.778997 380.074943 
L 211.090909 381.245148 
L 211.528213 380.357892 
L 212.402821 377.14431 
L 212.840125 376.336647 
L 213.277429 376.211176 
L 213.714734 376.855813 
L 214.152038 378.720587 
L 215.901254 390.937534 
L 218.087774 399.998939 
L 218.525078 402.268505 
L 218.962382 403.745771 
L 219.399687 403.900048 
L 219.836991 404.872872 
L 220.274295 406.972156 
L 220.711599 408.399063 
L 221.148903 408.78017 
L 221.586207 408.709112 
L 222.023511 409.135029 
L 222.460815 409.24855 
L 222.898119 409.923915 
L 223.335423 410.12279 
L 223.772727 409.748512 
L 224.210031 408.044417 
L 224.647335 405.722785 
L 225.084639 404.760418 
L 225.959248 402.035488 
L 226.396552 401.243615 
L 227.27116 401.859018 
L 227.708464 402.534596 
L 228.145768 403.490135 
L 229.894984 408.977338 
L 230.332288 405.654716 
L 230.769592 405.504279 
L 231.206897 406.482224 
L 232.081505 404.186625 
L 233.393417 402.211317 
L 233.830721 406.018111 
L 234.268025 401.146738 
L 234.705329 400.48119 
L 235.579937 406.020458 
L 236.454545 407.786434 
L 236.89185 407.918306 
L 237.329154 407.864533 
L 238.203762 405.202125 
L 240.390282 398.192633 
L 241.26489 394.718294 
L 241.702194 392.062501 
L 242.139498 390.163585 
L 242.576803 388.845291 
L 243.014107 388.036561 
L 244.326019 382.939214 
L 245.637931 378.237909 
L 246.075235 375.829216 
L 246.949843 372.663646 
L 247.387147 369.738134 
L 247.824451 367.853515 
L 248.69906 359.085301 
L 249.136364 355.182058 
L 249.573668 352.528399 
L 250.010972 352.419145 
L 250.448276 352.567021 
L 251.760188 354.88844 
L 252.634796 355.858276 
L 253.0721 355.735579 
L 253.509404 356.142932 
L 253.946708 356.074648 
L 254.384013 355.749876 
L 254.821317 356.362292 
L 255.695925 358.761382 
L 256.133229 358.776319 
L 256.570533 358.953856 
L 257.007837 359.409007 
L 257.445141 358.859326 
L 257.882445 358.058705 
L 259.194357 357.817793 
L 259.631661 357.040644 
L 260.068966 355.158372 
L 260.50627 354.440971 
L 260.943574 353.1645 
L 261.818182 352.121473 
L 262.69279 351.866691 
L 263.130094 352.592841 
L 263.567398 353.795267 
L 264.004702 354.515442 
L 264.87931 356.736996 
L 265.316614 358.486542 
L 265.753918 359.270733 
L 267.065831 363.293899 
L 267.503135 364.449593 
L 267.940439 364.703309 
L 268.377743 365.235065 
L 268.815047 365.466588 
L 269.689655 366.109731 
L 271.876176 371.679513 
L 273.188088 376.140759 
L 274.5 380.806214 
L 275.374608 383.312424 
L 276.249216 387.678074 
L 276.68652 390.237417 
L 277.123824 392.107738 
L 277.561129 393.340892 
L 277.998433 395.067605 
L 278.435737 396.140507 
L 279.310345 399.028463 
L 280.622257 405.38585 
L 281.059561 407.028277 
L 281.496865 408.066396 
L 281.934169 408.368549 
L 282.371473 408.160072 
L 282.808777 408.773555 
L 283.246082 408.891557 
L 284.12069 409.700287 
L 284.995298 410.673964 
L 285.432602 410.953499 
L 285.869906 411.460289 
L 286.744514 413.304791 
L 287.181818 412.950571 
L 288.931034 409.212061 
L 289.368339 408.587909 
L 289.805643 408.830955 
L 290.242947 409.34436 
L 290.680251 410.123643 
L 291.117555 411.383683 
L 291.554859 411.919067 
L 291.992163 411.293208 
L 292.429467 410.986573 
L 292.866771 411.115458 
L 293.304075 411.459648 
L 293.741379 411.34186 
L 294.178683 411.529212 
L 295.053292 412.458505 
L 295.490596 413.001357 
L 296.365204 412.567545 
L 296.802508 412.613849 
L 297.239812 412.304654 
L 297.677116 411.166884 
L 298.11442 410.534623 
L 298.551724 410.611442 
L 298.989028 410.948164 
L 299.426332 410.722829 
L 299.863636 410.821413 
L 300.30094 411.520677 
L 300.738245 412.713073 
L 301.612853 413.791736 
L 302.050157 413.889893 
L 302.487461 412.967002 
L 303.362069 412.445702 
L 304.673981 415.030224 
L 305.548589 415.760428 
L 305.985893 415.855172 
L 306.423197 415.777499 
L 306.860502 415.831059 
L 307.73511 415.27263 
L 308.172414 414.686674 
L 308.609718 414.613269 
L 309.047022 414.348885 
L 309.484326 413.40935 
L 309.92163 411.624809 
L 310.358934 409.28952 
L 310.796238 407.627889 
L 311.670846 405.477606 
L 312.545455 403.029437 
L 312.982759 402.114227 
L 313.420063 401.468097 
L 314.294671 400.530055 
L 315.169279 398.209063 
L 316.043887 397.291507 
L 316.918495 397.169877 
L 317.355799 396.976337 
L 317.793103 397.316686 
L 319.105016 398.775388 
L 319.979624 397.252244 
L 320.416928 396.79944 
L 321.291536 396.44074 
L 322.166144 395.018954 
L 322.603448 394.626965 
L 323.040752 394.768653 
L 323.478056 394.61971 
L 323.915361 394.221106 
L 324.352665 393.572201 
L 324.789969 393.125373 
L 325.227273 392.189465 
L 326.101881 390.86861 
L 326.539185 390.667601 
L 326.976489 390.78667 
L 327.851097 392.04415 
L 328.288401 392.708205 
L 329.163009 394.996975 
L 330.037618 396.229275 
L 330.474922 396.057286 
L 330.912226 395.218042 
L 331.786834 394.83971 
L 332.224138 394.890069 
L 332.661442 395.419264 
L 333.098746 395.685569 
L 333.53605 395.650147 
L 333.973354 394.070669 
L 334.410658 393.465936 
L 335.285266 393.911697 
L 335.722571 394.052745 
L 336.597179 394.5781 
L 337.471787 394.322464 
L 338.346395 392.609621 
L 338.783699 392.179009 
L 339.221003 391.915905 
L 339.658307 391.521142 
L 340.095611 390.430317 
L 340.532915 388.579413 
L 341.407524 386.721254 
L 341.844828 385.503678 
L 343.15674 384.058633 
L 343.594044 383.190581 
L 344.031348 382.838709 
L 344.468652 382.113839 
L 344.905956 381.854149 
L 345.780564 378.6124 
L 346.217868 375.922893 
L 347.967085 362.184722 
L 348.841693 357.936862 
L 349.278997 356.21975 
L 351.028213 345.343077 
L 351.465517 342.979835 
L 351.902821 338.668812 
L 352.777429 326.920033 
L 353.652038 318.227144 
L 354.089342 314.905588 
L 354.526646 312.997924 
L 355.401254 310.881142 
L 356.275862 309.608939 
L 356.713166 309.357145 
L 357.15047 309.314894 
L 357.587774 309.944594 
L 358.025078 309.317882 
L 359.336991 310.854683 
L 359.774295 310.872607 
L 360.211599 312.134994 
L 360.648903 312.490281 
L 361.086207 312.362463 
L 361.523511 312.572221 
L 361.960815 312.124111 
L 362.398119 311.37833 
L 362.835423 310.872393 
L 363.272727 310.898426 
L 364.147335 311.207622 
L 364.584639 311.015362 
L 365.459248 314.113716 
L 365.896552 315.114066 
L 366.333856 317.22594 
L 367.645768 326.119411 
L 368.520376 332.533345 
L 368.95768 336.488228 
L 370.269592 342.990931 
L 370.706897 344.359157 
L 371.144201 346.482767 
L 372.456113 343.523114 
L 373.330721 357.415348 
L 373.768025 367.984107 
L 374.205329 374.40679 
L 376.829154 401.035778 
L 377.266458 401.57607 
L 377.703762 400.520453 
L 378.57837 396.454183 
L 379.015674 402.445188 
L 380.327586 435.494938 
L 380.76489 440.077387 
L 381.202194 447.293863 
L 381.639498 456.560972 
L 382.951411 473.95998 
L 383.388715 478.786755 
L 384.263323 483.038456 
L 384.700627 484.866955 
L 385.575235 487.512932 
L 386.887147 497.589198 
L 387.324451 499.421324 
L 387.761755 502.477214 
L 388.19906 504.20158 
L 388.636364 505.080301 
L 390.38558 511.692897 
L 390.822884 514.162618 
L 391.260188 515.490088 
L 391.697492 516.373076 
L 392.134796 517.549683 
L 393.009404 520.477542 
L 393.446708 520.930986 
L 393.884013 520.256901 
L 394.321317 520.59277 
L 394.758621 520.757077 
L 395.633229 520.261809 
L 396.070533 519.299655 
L 396.945141 514.835849 
L 397.382445 513.981454 
L 397.819749 514.042909 
L 398.257053 514.987779 
L 398.694357 515.083589 
L 400.00627 510.650297 
L 400.443574 509.762827 
L 400.880878 509.441256 
L 401.318182 509.999472 
L 402.630094 515.498623 
L 403.067398 517.656589 
L 403.504702 519.230092 
L 403.942006 521.277096 
L 405.691223 533.217283 
L 406.128527 533.378175 
L 407.003135 525.611165 
L 407.440439 525.102668 
L 408.315047 529.23594 
L 408.752351 529.582264 
L 409.189655 531.521937 
L 409.626959 534.119689 
L 410.501567 536.441534 
L 410.938871 538.798588 
L 411.376176 541.992752 
L 412.250784 542.336942 
L 412.688088 544.187419 
L 414.437304 553.637826 
L 415.311912 556.771815 
L 416.18652 560.14437 
L 417.061129 563.685498 
L 417.935737 566.178051 
L 419.684953 569.529054 
L 420.559561 570.538579 
L 421.434169 572.564886 
L 421.871473 573.184343 
L 422.308777 573.468572 
L 422.746082 573.935246 
L 423.183386 573.343955 
L 423.62069 572.37668 
L 424.057994 572.213867 
L 424.495298 572.455206 
L 424.932602 573.205895 
L 425.80721 574.271968 
L 426.244514 575.004093 
L 427.556426 578.547782 
L 427.99373 578.931235 
L 428.868339 577.08588 
L 429.305643 577.209216 
L 429.742947 578.947026 
L 430.617555 579.115173 
L 431.054859 579.754902 
L 431.929467 579.706037 
L 432.366771 579.145901 
L 432.804075 577.822912 
L 433.241379 577.690187 
L 433.678683 578.202738 
L 434.115987 578.961963 
L 434.990596 581.173701 
L 435.4279 581.982005 
L 435.865204 581.983498 
L 436.302508 581.79956 
L 436.739812 581.366815 
L 437.177116 582.311471 
L 438.926332 591.292431 
L 439.363636 592.551617 
L 440.238245 594.047448 
L 440.675549 593.751482 
L 441.550157 593.900852 
L 441.987461 594.202792 
L 442.424765 594.147739 
L 443.299373 593.038562 
L 443.736677 593.59059 
L 444.611285 595.969195 
L 445.485893 598.100061 
L 445.923197 599.209878 
L 446.360502 599.251274 
L 446.797806 599.792419 
L 447.23511 600.115698 
L 447.672414 600.012846 
L 448.109718 599.660547 
L 448.547022 600.047415 
L 448.984326 601.171955 
L 449.42163 601.883168 
L 450.733542 602.132616 
L 452.045455 600.35789 
L 452.482759 599.295658 
L 453.357367 598.071254 
L 453.794671 597.843785 
L 454.231975 597.775502 
L 455.106583 597.298799 
L 455.543887 596.761068 
L 455.981191 595.736179 
L 458.167712 593.952278 
L 458.605016 592.488455 
L 459.04232 590.572895 
L 459.479624 587.542398 
L 459.916928 585.615956 
L 460.354232 585.434151 
L 460.791536 584.655082 
L 461.22884 585.318283 
L 461.666144 584.501444 
L 462.103448 582.218009 
L 463.415361 578.7059 
L 463.852665 575.328865 
L 464.289969 572.864692 
L 464.727273 573.460891 
L 465.164577 574.449078 
L 465.601881 575.107158 
L 466.476489 574.477031 
L 466.913793 574.398292 
L 467.351097 573.424402 
L 467.788401 573.458543 
L 468.225705 573.942501 
L 468.663009 574.212434 
L 469.100313 573.993714 
L 469.537618 573.26543 
L 469.974922 571.943081 
L 471.724138 565.330272 
L 472.161442 565.002512 
L 472.598746 564.353607 
L 473.03605 563.397001 
L 473.910658 562.508892 
L 474.347962 561.778901 
L 474.785266 561.385205 
L 475.659875 558.513039 
L 476.097179 557.043455 
L 476.971787 555.890961 
L 477.409091 555.866422 
L 477.846395 555.138138 
L 478.283699 555.142619 
L 478.721003 555.405723 
L 479.158307 555.004985 
L 479.595611 553.425721 
L 480.032915 550.912896 
L 480.470219 549.584146 
L 480.907524 549.124727 
L 481.344828 549.258093 
L 481.782132 550.053594 
L 482.219436 552.092276 
L 482.65674 553.233674 
L 483.094044 552.332548 
L 483.968652 549.414718 
L 484.405956 549.639199 
L 484.84326 549.231847 
L 485.280564 548.411807 
L 486.155172 547.787442 
L 488.778997 539.266541 
L 489.216301 538.570052 
L 490.965517 531.049715 
L 491.402821 529.903623 
L 492.277429 526.843678 
L 493.589342 520.888949 
L 494.46395 518.725649 
L 494.901254 518.557074 
L 495.338558 517.71719 
L 496.213166 518.013796 
L 497.087774 519.628909 
L 497.525078 519.709568 
L 497.962382 520.60536 
L 498.399687 520.606853 
L 498.836991 521.401287 
L 499.274295 520.958299 
L 500.148903 523.323034 
L 500.586207 525.189942 
L 501.023511 525.206159 
L 501.460815 524.704064 
L 503.210031 527.342146 
L 504.084639 529.591013 
L 504.959248 528.432758 
L 505.396552 528.938481 
L 505.833856 527.899935 
L 507.145768 522.112927 
L 509.332288 513.225217 
L 510.206897 510.123022 
L 511.081505 506.06294 
L 512.830721 498.703282 
L 513.268025 498.361439 
L 513.705329 498.65079 
L 514.142633 498.326657 
L 515.89185 491.83121 
L 516.329154 491.378193 
L 517.203762 489.647852 
L 518.515674 483.209378 
L 518.952978 482.189823 
L 521.576803 477.889043 
L 522.451411 477.421516 
L 522.888715 478.242196 
L 523.326019 477.839538 
L 524.200627 477.969916 
L 524.637931 477.933214 
L 525.075235 477.374998 
L 525.512539 476.632204 
L 525.949843 476.320875 
L 526.824451 474.853211 
L 527.261755 473.614723 
L 527.69906 473.566711 
L 528.136364 473.7658 
L 528.573668 473.686847 
L 529.010972 472.477166 
L 529.88558 470.704788 
L 530.322884 469.567658 
L 530.760188 468.934544 
L 531.197492 467.120129 
L 531.634796 466.448819 
L 532.0721 465.160185 
L 532.509404 464.447692 
L 533.384013 462.483694 
L 534.258621 457.809916 
L 534.695925 457.423049 
L 535.570533 455.642562 
L 536.445141 451.902772 
L 536.882445 450.693731 
L 537.757053 449.701916 
L 538.631661 449.443506 
L 539.50627 449.779588 
L 539.943574 449.462925 
L 540.380878 449.385252 
L 540.818182 448.927327 
L 541.255486 447.914388 
L 542.130094 447.065541 
L 542.567398 446.908703 
L 543.004702 447.749227 
L 543.442006 447.654271 
L 543.87931 446.974426 
L 544.316614 446.81396 
L 544.753918 447.693107 
L 546.065831 453.024751 
L 546.503135 453.464965 
L 547.377743 456.713756 
L 547.815047 457.006094 
L 548.252351 457.918102 
L 548.689655 459.432284 
L 549.126959 459.514224 
L 550.438871 460.517562 
L 550.876176 461.565924 
L 551.31348 462.282898 
L 551.750784 462.248116 
L 552.188088 461.951297 
L 553.062696 463.160978 
L 553.937304 461.30346 
L 554.374608 461.149182 
L 554.811912 460.381635 
L 555.249216 460.040219 
L 555.68652 460.86474 
L 556.123824 460.938784 
L 556.561129 461.380492 
L 556.998433 462.120725 
L 557.873041 461.735138 
L 558.310345 461.21085 
L 558.747649 461.074284 
L 559.184953 461.669415 
L 559.622257 462.957836 
L 560.059561 462.785634 
L 560.496865 461.804702 
L 560.934169 462.898301 
L 561.371473 462.297408 
L 561.808777 459.230849 
L 562.246082 458.036318 
L 563.12069 454.027022 
L 563.995298 448.835785 
L 564.432602 447.330779 
L 565.30721 446.428586 
L 565.744514 445.164918 
L 566.181818 444.66453 
L 566.619122 443.756789 
L 567.056426 443.548525 
L 567.49373 442.777564 
L 567.931034 443.133277 
L 568.368339 442.848621 
L 568.805643 443.764258 
L 569.680251 446.944338 
L 570.117555 448.684068 
L 570.554859 449.062827 
L 571.429467 447.271671 
L 571.866771 447.408024 
L 572.304075 446.525036 
L 572.741379 446.376947 
L 573.178683 445.96362 
L 573.615987 444.918458 
L 574.053292 442.911997 
L 575.365204 435.786636 
L 576.239812 432.617651 
L 577.11442 431.54219 
L 577.551724 431.4212 
L 577.989028 430.373692 
L 578.426332 431.018329 
L 579.30094 432.721143 
L 579.738245 432.464227 
L 580.175549 431.604285 
L 580.612853 431.12118 
L 581.487461 430.740928 
L 581.924765 430.510045 
L 582.362069 430.561898 
L 582.799373 429.826359 
L 583.236677 429.999201 
L 583.673981 430.047212 
L 584.111285 430.682887 
L 584.548589 430.863411 
L 584.985893 431.210802 
L 585.860502 432.173597 
L 587.172414 432.941143 
L 587.609718 432.491541 
L 588.047022 432.606128 
L 588.484326 432.547021 
L 588.92163 433.826052 
L 589.358934 434.607469 
L 589.796238 435.06326 
L 590.233542 434.822561 
L 591.10815 434.092997 
L 591.545455 433.263142 
L 591.982759 431.345022 
L 592.420063 428.601527 
L 592.857367 428.599393 
L 593.731975 427.424921 
L 594.169279 426.935202 
L 594.606583 427.002418 
L 595.918495 426.148663 
L 596.793103 424.594365 
L 597.667712 422.456031 
L 598.105016 420.921791 
L 598.54232 419.859346 
L 599.416928 416.4375 
L 599.854232 415.130515 
L 600.291536 415.215442 
L 600.72884 414.555869 
L 601.603448 412.455944 
L 602.040752 411.604324 
L 602.478056 411.26056 
L 602.915361 409.861179 
L 603.352665 409.291227 
L 604.664577 403.788021 
L 605.976489 396.909974 
L 607.725705 392.221686 
L 608.163009 391.051268 
L 608.600313 389.335224 
L 609.037618 388.434951 
L 610.34953 383.872987 
L 610.786834 383.449845 
L 611.661442 380.771859 
L 612.098746 379.9531 
L 612.53605 380.243731 
L 612.973354 380.388619 
L 613.847962 382.300338 
L 614.285266 382.090794 
L 615.159875 380.597524 
L 616.034483 381.429299 
L 616.909091 380.776554 
L 617.783699 376.811642 
L 618.658307 375.399458 
L 619.532915 371.452471 
L 620.407524 365.875434 
L 621.282132 362.166158 
L 621.719436 365.071612 
L 622.15674 362.30059 
L 623.468652 349.441567 
L 623.905956 345.12393 
L 624.780564 340.835313 
L 625.217868 340.077582 
L 625.655172 339.871451 
L 626.092476 340.546176 
L 626.529781 340.45634 
L 627.404389 341.163286 
L 627.841693 340.901462 
L 628.278997 339.453003 
L 629.590909 332.269601 
L 630.028213 331.09897 
L 630.465517 331.22252 
L 630.902821 334.866287 
L 632.214734 349.261257 
L 633.089342 356.727821 
L 633.526646 358.70889 
L 633.96395 360.103789 
L 634.401254 360.829512 
L 634.838558 361.874673 
L 635.275862 361.98478 
L 636.587774 361.204644 
L 637.025078 361.607515 
L 637.462382 361.396904 
L 637.899687 361.359988 
L 638.336991 360.871336 
L 638.774295 360.12022 
L 639.211599 359.063963 
L 640.086207 362.334092 
L 640.523511 361.0254 
L 641.398119 355.270826 
L 642.272727 351.461259 
L 643.147335 351.092529 
L 643.584639 351.324052 
L 644.021944 350.864847 
L 644.459248 351.089755 
L 644.896552 351.047078 
L 645.333856 350.780773 
L 645.77116 351.014644 
L 646.208464 351.072044 
L 646.645768 351.266225 
L 647.083072 351.175749 
L 647.520376 352.303277 
L 647.95768 353.74064 
L 648.832288 358.495504 
L 649.269592 359.521034 
L 649.706897 360.263188 
L 650.144201 359.695156 
L 651.456113 359.052013 
L 651.893417 357.965882 
L 652.330721 359.265612 
L 653.205329 362.793084 
L 653.642633 363.763133 
L 654.517241 366.051263 
L 654.954545 366.168412 
L 656.703762 361.597059 
L 657.141066 360.935778 
L 657.57837 359.979385 
L 658.015674 361.102646 
L 658.452978 361.595352 
L 659.327586 359.389162 
L 660.202194 358.583632 
L 661.076803 356.899169 
L 661.514107 355.131272 
L 661.951411 354.587566 
L 662.388715 354.507334 
L 662.826019 355.108653 
L 663.263323 355.110147 
L 664.137931 354.76617 
L 665.449843 351.717321 
L 665.887147 351.171268 
L 666.324451 349.940249 
L 667.19906 348.6179 
L 667.636364 347.647851 
L 668.073668 347.301313 
L 668.510972 347.793166 
L 669.38558 349.411693 
L 671.134796 352.640213 
L 671.5721 352.853171 
L 672.009404 352.697186 
L 672.446708 352.081143 
L 672.884013 351.975091 
L 673.321317 351.442054 
L 673.758621 350.591714 
L 674.195925 350.487369 
L 674.633229 350.963858 
L 675.070533 350.54925 
L 675.507837 350.32861 
L 675.945141 349.645564 
L 676.382445 347.561003 
L 677.257053 342.004451 
L 678.131661 336.684969 
L 679.00627 331.748088 
L 679.443574 329.602499 
L 679.880878 320.23766 
L 680.318182 316.648306 
L 680.755486 316.78722 
L 681.19279 317.098762 
L 681.630094 317.164272 
L 682.067398 316.806424 
L 682.504702 315.519925 
L 682.942006 313.888167 
L 684.253918 307.527579 
L 685.565831 298.910869 
L 686.877743 292.830029 
L 687.752351 288.962634 
L 689.064263 283.390291 
L 691.250784 267.190722 
L 693 259.907243 
L 693.437304 258.470733 
L 693.874608 255.688616 
L 694.311912 254.169313 
L 694.749216 253.55391 
L 695.623824 250.406904 
L 696.061129 249.915051 
L 696.498433 250.257961 
L 696.935737 250.009367 
L 697.373041 248.957378 
L 697.810345 247.01045 
L 699.122257 238.375175 
L 699.559561 237.12175 
L 699.996865 236.614533 
L 700.434169 235.883689 
L 700.871473 236.105823 
L 701.308777 236.146366 
L 702.183386 232.759942 
L 702.62069 231.675945 
L 703.057994 232.146033 
L 703.495298 232.40935 
L 703.932602 232.424287 
L 704.369906 232.121067 
L 704.80721 230.823257 
L 705.681818 226.965252 
L 707.431034 218.662004 
L 708.305643 215.627452 
L 708.742947 214.820216 
L 709.180251 214.540894 
L 709.617555 213.600292 
L 710.492163 209.570298 
L 710.929467 209.076098 
L 711.366771 209.048998 
L 711.804075 208.711209 
L 712.241379 208.633537 
L 713.115987 211.43998 
L 713.553292 211.65998 
L 713.990596 211.282501 
L 714.865204 206.294621 
L 715.739812 202.614578 
L 716.61442 197.782682 
L 717.051724 197.162371 
L 717.489028 197.072109 
L 717.926332 196.766328 
L 718.363636 197.558841 
L 719.238245 199.851026 
L 719.675549 201.245712 
L 720.550157 205.778015 
L 722.299373 215.180623 
L 722.736677 215.884581 
L 723.173981 214.252184 
L 724.048589 209.586302 
L 724.923197 207.417454 
L 725.360502 207.305213 
L 726.672414 213.999536 
L 727.547022 219.146389 
L 727.984326 220.583112 
L 728.42163 220.331957 
L 728.858934 219.45281 
L 729.296238 218.117658 
L 730.170846 213.884948 
L 730.60815 212.513308 
L 731.482759 210.342112 
L 731.920063 210.972239 
L 732.794671 213.966034 
L 733.231975 213.623124 
L 733.669279 212.802445 
L 734.106583 209.336214 
L 734.543887 203.659099 
L 734.981191 199.488057 
L 735.418495 197.722508 
L 735.855799 197.919249 
L 736.293103 199.613955 
L 738.04232 210.328242 
L 738.479624 210.619727 
L 738.916928 209.874372 
L 739.354232 208.467096 
L 739.791536 207.886475 
L 740.22884 207.565543 
L 741.540752 207.876232 
L 741.978056 208.232799 
L 743.727273 211.460678 
L 744.164577 213.137033 
L 744.601881 215.511584 
L 745.039185 214.854998 
L 745.476489 213.79618 
L 746.351097 222.065713 
L 746.788401 224.637218 
L 747.663009 227.344224 
L 748.100313 226.671847 
L 748.537618 223.063075 
L 750.286834 203.835569 
L 750.724138 202.533919 
L 751.161442 200.433141 
L 752.03605 192.230184 
L 752.473354 188.803217 
L 753.785266 175.538548 
L 754.222571 173.429662 
L 754.659875 172.022386 
L 755.097179 172.180078 
L 755.534483 172.951465 
L 755.971787 173.023376 
L 756.409091 171.988458 
L 756.846395 171.500019 
L 757.721003 171.10739 
L 758.158307 171.64 
L 758.595611 172.91711 
L 759.032915 169.289134 
L 759.470219 161.939719 
L 760.344828 131.076314 
L 760.782132 131.593773 
L 761.65674 140.206429 
L 762.094044 142.59485 
L 762.968652 144.78525 
L 763.405956 144.533456 
L 763.84326 143.318653 
L 764.717868 143.01586 
L 765.155172 141.536033 
L 765.592476 141.27805 
L 766.029781 141.426779 
L 766.467085 142.762785 
L 767.341693 145.969752 
L 768.216301 146.850179 
L 768.653605 147.815321 
L 769.090909 149.512374 
L 769.528213 150.761531 
L 769.965517 151.143064 
L 770.402821 151.925121 
L 771.277429 152.26291 
L 771.714734 153.80846 
L 772.589342 158.633527 
L 773.026646 159.692985 
L 773.46395 159.83702 
L 773.901254 160.099697 
L 774.775862 160.387554 
L 775.213166 160.951531 
L 776.087774 163.37132 
L 776.962382 164.073358 
L 777.399687 164.714581 
L 779.148903 169.15086 
L 780.023511 169.708436 
L 780.460815 170.824228 
L 782.210031 178.718202 
L 783.084639 181.072482 
L 783.521944 182.976305 
L 784.396552 189.201607 
L 785.27116 192.930515 
L 785.708464 195.232942 
L 786.583072 197.576552 
L 787.45768 199.629745 
L 787.894984 199.867243 
L 788.332288 200.51252 
L 788.769592 201.918942 
L 790.081505 207.37435 
L 790.518809 208.630763 
L 790.956113 209.125176 
L 791.393417 208.722305 
L 791.830721 207.616969 
L 792.268025 207.220713 
L 792.705329 207.549113 
L 793.579937 209.750182 
L 794.017241 211.317923 
L 794.454545 212.451212 
L 794.89185 212.927062 
L 795.329154 212.172318 
L 795.766458 211.01833 
L 796.203762 209.219279 
L 796.641066 206.719044 
L 797.07837 204.970352 
L 797.515674 203.886141 
L 797.952978 203.239157 
L 798.390282 203.257295 
L 798.827586 202.419971 
L 799.26489 201.174014 
L 800.576803 196.059383 
L 801.014107 195.903825 
L 801.888715 197.079151 
L 802.763323 196.370712 
L 803.637931 193.727082 
L 804.075235 193.161611 
L 804.949843 191.750281 
L 805.387147 191.81643 
L 805.824451 192.268167 
L 806.69906 194.013445 
L 807.136364 194.605589 
L 807.573668 194.487587 
L 808.010972 194.815347 
L 808.448276 194.620526 
L 808.88558 196.322487 
L 809.322884 198.489841 
L 809.760188 199.738785 
L 810.634796 200.578243 
L 811.0721 200.678534 
L 811.509404 200.413723 
L 811.946708 201.238884 
L 812.384013 201.772347 
L 812.821317 201.491105 
L 813.695925 198.22439 
L 815.007837 193.235229 
L 815.445141 192.497343 
L 815.882445 191.444286 
L 816.319749 191.020503 
L 816.757053 191.649563 
L 817.631661 194.314105 
L 818.068966 194.737888 
L 818.50627 194.704813 
L 818.943574 195.374416 
L 819.818182 197.186911 
L 820.255486 198.625981 
L 820.69279 200.676187 
L 821.130094 202.080262 
L 821.567398 204.002436 
L 822.442006 206.681061 
L 822.87931 208.311538 
L 823.316614 209.442053 
L 823.753918 212.067332 
L 824.191223 215.739266 
L 825.503135 222.370427 
L 826.377743 225.049692 
L 826.815047 227.114835 
L 827.252351 228.378289 
L 827.689655 228.243856 
L 828.126959 227.221101 
L 828.564263 227.747522 
L 829.001567 228.571616 
L 829.438871 228.324943 
L 829.876176 227.499355 
L 830.31348 227.489539 
L 830.750784 228.440171 
L 831.188088 228.556252 
L 832.062696 227.039083 
L 832.5 225.701157 
L 832.937304 224.844629 
L 833.374608 224.98461 
L 834.249216 226.187249 
L 834.68652 225.965755 
L 835.123824 226.152467 
L 835.998433 226.867521 
L 836.873041 229.934508 
L 837.310345 230.749853 
L 837.747649 230.736196 
L 838.184953 231.151657 
L 838.622257 231.111327 
L 839.059561 230.148106 
L 839.496865 228.222091 
L 840.808777 224.301777 
L 841.246082 223.597819 
L 841.683386 222.44063 
L 842.557994 219.855041 
L 842.995298 219.692015 
L 843.432602 220.19475 
L 843.869906 219.762219 
L 844.744514 216.395212 
L 846.931034 211.801454 
L 847.805643 213.280428 
L 848.242947 213.370476 
L 849.117555 213.883241 
L 849.554859 213.01583 
L 849.992163 211.827701 
L 850.866771 209.030433 
L 851.741379 204.767636 
L 852.178683 203.538963 
L 853.053292 204.547636 
L 853.490596 204.555958 
L 853.9279 204.285385 
L 854.802508 204.49685 
L 855.239812 204.293707 
L 855.677116 204.752699 
L 856.11442 205.376637 
L 856.989028 206.033224 
L 857.426332 206.992177 
L 858.30094 208.213168 
L 858.738245 209.063081 
L 859.175549 209.171268 
L 860.050157 208.948067 
L 860.487461 208.89472 
L 861.362069 210.024595 
L 861.799373 209.599959 
L 862.236677 210.328242 
L 862.673981 211.941008 
L 863.111285 212.927702 
L 863.548589 214.418198 
L 864.423197 219.050792 
L 865.297806 222.858866 
L 866.609718 226.591614 
L 867.92163 232.666052 
L 868.796238 234.171272 
L 870.10815 239.832597 
L 870.982759 245.076966 
L 871.420063 246.224339 
L 871.857367 245.633475 
L 872.731975 241.485266 
L 874.043887 222.881058 
L 875.793103 211.339262 
L 876.230408 209.688727 
L 876.667712 209.211811 
L 878.416928 224.484221 
L 879.291536 228.604691 
L 880.603448 233.66811 
L 882.789969 247.137628 
L 883.227273 249.052334 
L 885.851097 268.771267 
L 886.288401 271.18124 
L 886.725705 271.756527 
L 887.163009 269.350181 
L 887.600313 267.835145 
L 888.037618 271.786187 
L 888.912226 283.423153 
L 889.786834 291.53158 
L 890.661442 296.988694 
L 893.722571 314.364017 
L 894.159875 316.360449 
L 895.034483 321.331686 
L 897.221003 331.86737 
L 898.095611 337.049645 
L 899.407524 342.188602 
L 899.844828 343.100824 
L 900.282132 345.261777 
L 900.719436 348.01274 
L 901.15674 349.964148 
L 901.594044 351.005041 
L 902.905956 355.536064 
L 903.34326 357.154165 
L 903.780564 359.529996 
L 904.217868 361.14703 
L 904.655172 361.540725 
L 905.092476 362.214169 
L 905.529781 363.785325 
L 905.967085 363.970544 
L 906.404389 364.310253 
L 906.841693 364.956383 
L 908.153605 363.673084 
L 908.590909 363.652599 
L 909.028213 363.086062 
L 910.777429 357.947104 
L 911.652038 354.997266 
L 912.089342 354.10873 
L 912.526646 353.772221 
L 912.96395 353.695403 
L 913.401254 353.990515 
L 913.838558 354.448013 
L 914.275862 355.441748 
L 915.15047 358.072361 
L 915.587774 357.90272 
L 916.025078 357.201109 
L 916.899687 354.624269 
L 917.774295 353.639069 
L 918.211599 353.243879 
L 918.648903 352.679262 
L 919.086207 351.581822 
L 919.960815 350.443198 
L 920.398119 349.46568 
L 921.272727 345.056287 
L 921.710031 343.367342 
L 922.147335 342.401347 
L 922.584639 337.71434 
L 923.021944 336.757093 
L 924.333856 339.667882 
L 924.77116 340.116204 
L 925.208464 340.282431 
L 925.645768 339.691141 
L 926.083072 340.146078 
L 926.520376 341.956226 
L 926.95768 343.19386 
L 927.394984 344.052522 
L 927.832288 344.550777 
L 928.706897 342.665518 
L 929.581505 339.8531 
L 930.893417 333.294704 
L 931.768025 328.077861 
L 933.517241 321.375216 
L 933.954545 321.257214 
L 933.954545 321.257214 
" style="fill:none;stroke:#0000ff;stroke-linecap:square;stroke-width:1.5;"/>
   </g>
   <g id="patch_3">
    <path d="M 135 640.8 
L 135 86.4 
" style="fill:none;stroke:#000000;stroke-linecap:square;stroke-linejoin:miter;stroke-width:0.8;"/>
   </g>
   <g id="patch_4">
    <path d="M 972 640.8 
L 972 86.4 
" style="fill:none;stroke:#000000;stroke-linecap:square;stroke-linejoin:miter;stroke-width:0.8;"/>
   </g>
   <g id="patch_5">
    <path d="M 135 640.8 
L 972 640.8 
" style="fill:none;stroke:#000000;stroke-linecap:square;stroke-linejoin:miter;stroke-width:0.8;"/>
   </g>
   <g id="patch_6">
    <path d="M 135 86.4 
L 972 86.4 
" style="fill:none;stroke:#000000;stroke-linecap:square;stroke-linejoin:miter;stroke-width:0.8;"/>
   </g>
   <g id="text_17">
    <!-- Evaluation Preds N:1 -->
    <defs>
     <path d="M 9.8125 72.90625 
L 55.90625 72.90625 
L 55.90625 64.59375 
L 19.671875 64.59375 
L 19.671875 43.015625 
L 54.390625 43.015625 
L 54.390625 34.71875 
L 19.671875 34.71875 
L 19.671875 8.296875 
L 56.78125 8.296875 
L 56.78125 0 
L 9.8125 0 
z
" id="DejaVuSans-69"/>
     <path d="M 2.984375 54.6875 
L 12.5 54.6875 
L 29.59375 8.796875 
L 46.6875 54.6875 
L 56.203125 54.6875 
L 35.6875 0 
L 23.484375 0 
z
" id="DejaVuSans-118"/>
     <path d="M 34.28125 27.484375 
Q 23.390625 27.484375 19.1875 25 
Q 14.984375 22.515625 14.984375 16.5 
Q 14.984375 11.71875 18.140625 8.90625 
Q 21.296875 6.109375 26.703125 6.109375 
Q 34.1875 6.109375 38.703125 11.40625 
Q 43.21875 16.703125 43.21875 25.484375 
L 43.21875 27.484375 
z
M 52.203125 31.203125 
L 52.203125 0 
L 43.21875 0 
L 43.21875 8.296875 
Q 40.140625 3.328125 35.546875 0.953125 
Q 30.953125 -1.421875 24.3125 -1.421875 
Q 15.921875 -1.421875 10.953125 3.296875 
Q 6 8.015625 6 15.921875 
Q 6 25.140625 12.171875 29.828125 
Q 18.359375 34.515625 30.609375 34.515625 
L 43.21875 34.515625 
L 43.21875 35.40625 
Q 43.21875 41.609375 39.140625 45 
Q 35.0625 48.390625 27.6875 48.390625 
Q 23 48.390625 18.546875 47.265625 
Q 14.109375 46.140625 10.015625 43.890625 
L 10.015625 52.203125 
Q 14.9375 54.109375 19.578125 55.046875 
Q 24.21875 56 28.609375 56 
Q 40.484375 56 46.34375 49.84375 
Q 52.203125 43.703125 52.203125 31.203125 
z
" id="DejaVuSans-97"/>
     <path d="M 9.421875 75.984375 
L 18.40625 75.984375 
L 18.40625 0 
L 9.421875 0 
z
" id="DejaVuSans-108"/>
     <path d="M 8.5 21.578125 
L 8.5 54.6875 
L 17.484375 54.6875 
L 17.484375 21.921875 
Q 17.484375 14.15625 20.5 10.265625 
Q 23.53125 6.390625 29.59375 6.390625 
Q 36.859375 6.390625 41.078125 11.03125 
Q 45.3125 15.671875 45.3125 23.6875 
L 45.3125 54.6875 
L 54.296875 54.6875 
L 54.296875 0 
L 45.3125 0 
L 45.3125 8.40625 
Q 42.046875 3.421875 37.71875 1 
Q 33.40625 -1.421875 27.6875 -1.421875 
Q 18.265625 -1.421875 13.375 4.4375 
Q 8.5 10.296875 8.5 21.578125 
z
M 31.109375 56 
z
" id="DejaVuSans-117"/>
     <path d="M 18.3125 70.21875 
L 18.3125 54.6875 
L 36.8125 54.6875 
L 36.8125 47.703125 
L 18.3125 47.703125 
L 18.3125 18.015625 
Q 18.3125 11.328125 20.140625 9.421875 
Q 21.96875 7.515625 27.59375 7.515625 
L 36.8125 7.515625 
L 36.8125 0 
L 27.59375 0 
Q 17.1875 0 13.234375 3.875 
Q 9.28125 7.765625 9.28125 18.015625 
L 9.28125 47.703125 
L 2.6875 47.703125 
L 2.6875 54.6875 
L 9.28125 54.6875 
L 9.28125 70.21875 
z
" id="DejaVuSans-116"/>
     <path d="M 9.421875 54.6875 
L 18.40625 54.6875 
L 18.40625 0 
L 9.421875 0 
z
M 9.421875 75.984375 
L 18.40625 75.984375 
L 18.40625 64.59375 
L 9.421875 64.59375 
z
" id="DejaVuSans-105"/>
     <path d="M 30.609375 48.390625 
Q 23.390625 48.390625 19.1875 42.75 
Q 14.984375 37.109375 14.984375 27.296875 
Q 14.984375 17.484375 19.15625 11.84375 
Q 23.34375 6.203125 30.609375 6.203125 
Q 37.796875 6.203125 41.984375 11.859375 
Q 46.1875 17.53125 46.1875 27.296875 
Q 46.1875 37.015625 41.984375 42.703125 
Q 37.796875 48.390625 30.609375 48.390625 
z
M 30.609375 56 
Q 42.328125 56 49.015625 48.375 
Q 55.71875 40.765625 55.71875 27.296875 
Q 55.71875 13.875 49.015625 6.21875 
Q 42.328125 -1.421875 30.609375 -1.421875 
Q 18.84375 -1.421875 12.171875 6.21875 
Q 5.515625 13.875 5.515625 27.296875 
Q 5.515625 40.765625 12.171875 48.375 
Q 18.84375 56 30.609375 56 
z
" id="DejaVuSans-111"/>
     <path d="M 54.890625 33.015625 
L 54.890625 0 
L 45.90625 0 
L 45.90625 32.71875 
Q 45.90625 40.484375 42.875 44.328125 
Q 39.84375 48.1875 33.796875 48.1875 
Q 26.515625 48.1875 22.3125 43.546875 
Q 18.109375 38.921875 18.109375 30.90625 
L 18.109375 0 
L 9.078125 0 
L 9.078125 54.6875 
L 18.109375 54.6875 
L 18.109375 46.1875 
Q 21.34375 51.125 25.703125 53.5625 
Q 30.078125 56 35.796875 56 
Q 45.21875 56 50.046875 50.171875 
Q 54.890625 44.34375 54.890625 33.015625 
z
" id="DejaVuSans-110"/>
     <path id="DejaVuSans-32"/>
     <path d="M 19.671875 64.796875 
L 19.671875 37.40625 
L 32.078125 37.40625 
Q 38.96875 37.40625 42.71875 40.96875 
Q 46.484375 44.53125 46.484375 51.125 
Q 46.484375 57.671875 42.71875 61.234375 
Q 38.96875 64.796875 32.078125 64.796875 
z
M 9.8125 72.90625 
L 32.078125 72.90625 
Q 44.34375 72.90625 50.609375 67.359375 
Q 56.890625 61.8125 56.890625 51.125 
Q 56.890625 40.328125 50.609375 34.8125 
Q 44.34375 29.296875 32.078125 29.296875 
L 19.671875 29.296875 
L 19.671875 0 
L 9.8125 0 
z
" id="DejaVuSans-80"/>
     <path d="M 41.109375 46.296875 
Q 39.59375 47.171875 37.8125 47.578125 
Q 36.03125 48 33.890625 48 
Q 26.265625 48 22.1875 43.046875 
Q 18.109375 38.09375 18.109375 28.8125 
L 18.109375 0 
L 9.078125 0 
L 9.078125 54.6875 
L 18.109375 54.6875 
L 18.109375 46.1875 
Q 20.953125 51.171875 25.484375 53.578125 
Q 30.03125 56 36.53125 56 
Q 37.453125 56 38.578125 55.875 
Q 39.703125 55.765625 41.0625 55.515625 
z
" id="DejaVuSans-114"/>
     <path d="M 56.203125 29.59375 
L 56.203125 25.203125 
L 14.890625 25.203125 
Q 15.484375 15.921875 20.484375 11.0625 
Q 25.484375 6.203125 34.421875 6.203125 
Q 39.59375 6.203125 44.453125 7.46875 
Q 49.3125 8.734375 54.109375 11.28125 
L 54.109375 2.78125 
Q 49.265625 0.734375 44.1875 -0.34375 
Q 39.109375 -1.421875 33.890625 -1.421875 
Q 20.796875 -1.421875 13.15625 6.1875 
Q 5.515625 13.8125 5.515625 26.8125 
Q 5.515625 40.234375 12.765625 48.109375 
Q 20.015625 56 32.328125 56 
Q 43.359375 56 49.78125 48.890625 
Q 56.203125 41.796875 56.203125 29.59375 
z
M 47.21875 32.234375 
Q 47.125 39.59375 43.09375 43.984375 
Q 39.0625 48.390625 32.421875 48.390625 
Q 24.90625 48.390625 20.390625 44.140625 
Q 15.875 39.890625 15.1875 32.171875 
z
" id="DejaVuSans-101"/>
     <path d="M 45.40625 46.390625 
L 45.40625 75.984375 
L 54.390625 75.984375 
L 54.390625 0 
L 45.40625 0 
L 45.40625 8.203125 
Q 42.578125 3.328125 38.25 0.953125 
Q 33.9375 -1.421875 27.875 -1.421875 
Q 17.96875 -1.421875 11.734375 6.484375 
Q 5.515625 14.40625 5.515625 27.296875 
Q 5.515625 40.1875 11.734375 48.09375 
Q 17.96875 56 27.875 56 
Q 33.9375 56 38.25 53.625 
Q 42.578125 51.265625 45.40625 46.390625 
z
M 14.796875 27.296875 
Q 14.796875 17.390625 18.875 11.75 
Q 22.953125 6.109375 30.078125 6.109375 
Q 37.203125 6.109375 41.296875 11.75 
Q 45.40625 17.390625 45.40625 27.296875 
Q 45.40625 37.203125 41.296875 42.84375 
Q 37.203125 48.484375 30.078125 48.484375 
Q 22.953125 48.484375 18.875 42.84375 
Q 14.796875 37.203125 14.796875 27.296875 
z
" id="DejaVuSans-100"/>
     <path d="M 44.28125 53.078125 
L 44.28125 44.578125 
Q 40.484375 46.53125 36.375 47.5 
Q 32.28125 48.484375 27.875 48.484375 
Q 21.1875 48.484375 17.84375 46.4375 
Q 14.5 44.390625 14.5 40.28125 
Q 14.5 37.15625 16.890625 35.375 
Q 19.28125 33.59375 26.515625 31.984375 
L 29.59375 31.296875 
Q 39.15625 29.25 43.1875 25.515625 
Q 47.21875 21.78125 47.21875 15.09375 
Q 47.21875 7.46875 41.1875 3.015625 
Q 35.15625 -1.421875 24.609375 -1.421875 
Q 20.21875 -1.421875 15.453125 -0.5625 
Q 10.6875 0.296875 5.421875 2 
L 5.421875 11.28125 
Q 10.40625 8.6875 15.234375 7.390625 
Q 20.0625 6.109375 24.8125 6.109375 
Q 31.15625 6.109375 34.5625 8.28125 
Q 37.984375 10.453125 37.984375 14.40625 
Q 37.984375 18.0625 35.515625 20.015625 
Q 33.0625 21.96875 24.703125 23.78125 
L 21.578125 24.515625 
Q 13.234375 26.265625 9.515625 29.90625 
Q 5.8125 33.546875 5.8125 39.890625 
Q 5.8125 47.609375 11.28125 51.796875 
Q 16.75 56 26.8125 56 
Q 31.78125 56 36.171875 55.265625 
Q 40.578125 54.546875 44.28125 53.078125 
z
" id="DejaVuSans-115"/>
     <path d="M 9.8125 72.90625 
L 23.09375 72.90625 
L 55.421875 11.921875 
L 55.421875 72.90625 
L 64.984375 72.90625 
L 64.984375 0 
L 51.703125 0 
L 19.390625 60.984375 
L 19.390625 0 
L 9.8125 0 
z
" id="DejaVuSans-78"/>
     <path d="M 11.71875 12.40625 
L 22.015625 12.40625 
L 22.015625 0 
L 11.71875 0 
z
M 11.71875 51.703125 
L 22.015625 51.703125 
L 22.015625 39.3125 
L 11.71875 39.3125 
z
" id="DejaVuSans-58"/>
    </defs>
    <g transform="translate(384.728906 80.4)scale(0.324 -0.324)">
     <use xlink:href="#DejaVuSans-69"/>
     <use x="63.183594" xlink:href="#DejaVuSans-118"/>
     <use x="122.363281" xlink:href="#DejaVuSans-97"/>
     <use x="183.642578" xlink:href="#DejaVuSans-108"/>
     <use x="211.425781" xlink:href="#DejaVuSans-117"/>
     <use x="274.804688" xlink:href="#DejaVuSans-97"/>
     <use x="336.083984" xlink:href="#DejaVuSans-116"/>
     <use x="375.292969" xlink:href="#DejaVuSans-105"/>
     <use x="403.076172" xlink:href="#DejaVuSans-111"/>
     <use x="464.257812" xlink:href="#DejaVuSans-110"/>
     <use x="527.636719" xlink:href="#DejaVuSans-32"/>
     <use x="559.423828" xlink:href="#DejaVuSans-80"/>
     <use x="619.710938" xlink:href="#DejaVuSans-114"/>
     <use x="660.792969" xlink:href="#DejaVuSans-101"/>
     <use x="722.316406" xlink:href="#DejaVuSans-100"/>
     <use x="785.792969" xlink:href="#DejaVuSans-115"/>
     <use x="837.892578" xlink:href="#DejaVuSans-32"/>
     <use x="869.679688" xlink:href="#DejaVuSans-78"/>
     <use x="944.484375" xlink:href="#DejaVuSans-58"/>
     <use x="978.175781" xlink:href="#DejaVuSans-49"/>
    </g>
   </g>
   <g id="legend_1">
    <g id="patch_7">
     <path d="M 153.9 187.261875 
L 301.42125 187.261875 
Q 306.82125 187.261875 306.82125 181.861875 
L 306.82125 105.3 
Q 306.82125 99.9 301.42125 99.9 
L 153.9 99.9 
Q 148.5 99.9 148.5 105.3 
L 148.5 181.861875 
Q 148.5 187.261875 153.9 187.261875 
z
" style="fill:#ffffff;opacity:0.8;stroke:#cccccc;stroke-linejoin:miter;"/>
    </g>
    <g id="line2d_35">
     <path d="M 159.3 121.765781 
L 213.3 121.765781 
" style="fill:none;stroke:#ff0000;stroke-linecap:square;stroke-width:1.5;"/>
    </g>
    <g id="line2d_36"/>
    <g id="text_18">
     <!-- Real -->
     <defs>
      <path d="M 44.390625 34.1875 
Q 47.5625 33.109375 50.5625 29.59375 
Q 53.5625 26.078125 56.59375 19.921875 
L 66.609375 0 
L 56 0 
L 46.6875 18.703125 
Q 43.0625 26.03125 39.671875 28.421875 
Q 36.28125 30.8125 30.421875 30.8125 
L 19.671875 30.8125 
L 19.671875 0 
L 9.8125 0 
L 9.8125 72.90625 
L 32.078125 72.90625 
Q 44.578125 72.90625 50.734375 67.671875 
Q 56.890625 62.453125 56.890625 51.90625 
Q 56.890625 45.015625 53.6875 40.46875 
Q 50.484375 35.9375 44.390625 34.1875 
z
M 19.671875 64.796875 
L 19.671875 38.921875 
L 32.078125 38.921875 
Q 39.203125 38.921875 42.84375 42.21875 
Q 46.484375 45.515625 46.484375 51.90625 
Q 46.484375 58.296875 42.84375 61.546875 
Q 39.203125 64.796875 32.078125 64.796875 
z
" id="DejaVuSans-82"/>
     </defs>
     <g transform="translate(234.9 131.215781)scale(0.27 -0.27)">
      <use xlink:href="#DejaVuSans-82"/>
      <use x="69.419922" xlink:href="#DejaVuSans-101"/>
      <use x="130.943359" xlink:href="#DejaVuSans-97"/>
      <use x="192.222656" xlink:href="#DejaVuSans-108"/>
     </g>
    </g>
    <g id="line2d_37">
     <path d="M 159.3 161.396719 
L 213.3 161.396719 
" style="fill:none;stroke:#0000ff;stroke-linecap:square;stroke-width:1.5;"/>
    </g>
    <g id="line2d_38"/>
    <g id="text_19">
     <!-- Pred -->
     <g transform="translate(234.9 170.846719)scale(0.27 -0.27)">
      <use xlink:href="#DejaVuSans-80"/>
      <use x="60.287109" xlink:href="#DejaVuSans-114"/>
      <use x="101.369141" xlink:href="#DejaVuSans-101"/>
      <use x="162.892578" xlink:href="#DejaVuSans-100"/>
     </g>
    </g>
   </g>
  </g>
 </g>
 <defs>
  <clipPath id="p9862c31ffe">
   <rect height="554.4" width="837" x="135" y="86.4"/>
  </clipPath>
 </defs>
</svg>
